%FSLAX45Y45*%
G04 Gerber Fmt 4.5, Leading zero omitted, Abs format (unit mm)*
G04 Created by KiCad (PCBNEW (5.1.9)-1) date 2021-03-06 15:09:39*
%MOMM*%
%LPD*%
G01*
G04 APERTURE LIST*
%TA.AperFunction,Profile*%
%ADD10C,0.200000*%
%TD*%
%ADD11C,0.200000*%
%ADD12C,0.300000*%
G04 APERTURE END LIST*
D10*
X18351500Y-5524500D02*
X18415000Y-5524500D01*
X4711700Y-3073400D02*
X4711700Y-3505200D01*
X2108200Y-3073400D02*
X2108200Y-2324100D01*
X2108200Y-3073400D02*
X4203700Y-3073400D01*
X2108200Y-2324100D02*
X42678350Y-2324100D01*
X16916400Y-3073400D02*
X19672300Y-3073400D01*
X16408400Y-3505200D02*
X16408400Y-3073400D01*
X4203700Y-3505200D02*
X4203700Y-3073400D01*
X42678350Y-2324100D02*
X42678350Y-3073400D01*
X16916400Y-3073400D02*
X16916400Y-3505200D01*
X16408400Y-3073400D02*
X4711700Y-3073400D01*
X19672300Y-3505200D02*
X19672300Y-3073400D01*
X20180300Y-3073400D02*
X20180300Y-3505200D01*
X40601900Y-3073400D02*
X40601900Y-3505200D01*
X40601900Y-3073400D02*
X42678350Y-3073400D01*
X40093900Y-3073400D02*
X20180300Y-3073400D01*
X40093900Y-3505200D02*
X40093900Y-3073400D01*
X42684700Y-13652500D02*
X40589200Y-13652500D01*
X28384500Y-13665200D02*
X25120600Y-13665200D01*
X42684700Y-14401800D02*
X2108200Y-14401800D01*
X2108200Y-14401800D02*
X2108200Y-13652500D01*
X4191000Y-13652500D02*
X2108200Y-13652500D01*
X28384500Y-13665200D02*
X40081200Y-13665200D01*
X4699000Y-13652500D02*
X13195300Y-13652500D01*
X42684700Y-13652500D02*
X42684700Y-14401800D01*
X13703300Y-13665200D02*
X24612600Y-13665200D01*
X4699000Y-13220700D02*
X4699000Y-13652500D01*
X4191000Y-13652500D02*
X4191000Y-13220700D01*
X13703300Y-13220700D02*
X13703300Y-13665200D01*
X13195300Y-13652500D02*
X13195300Y-13220700D01*
X25120600Y-13220700D02*
X25120600Y-13665200D01*
X24612600Y-13665200D02*
X24612600Y-13220700D01*
X40081200Y-13665200D02*
X40081200Y-13220700D01*
X40589200Y-13220700D02*
X40589200Y-13652500D01*
X13703300Y-13220700D02*
X17856200Y-13220700D01*
X40589200Y-13220700D02*
X42538650Y-13220700D01*
X28384500Y-13220700D02*
X25120600Y-13220700D01*
X24612600Y-13220700D02*
X19786600Y-13220700D01*
X2247900Y-13220700D02*
X4191000Y-13220700D01*
X4699000Y-13220700D02*
X13195300Y-13220700D01*
X40601900Y-3505200D02*
X42538650Y-3505200D01*
X2247900Y-3505200D02*
X4203700Y-3505200D01*
X18554700Y-3505200D02*
X19672300Y-3505200D01*
X16916400Y-3505200D02*
X18110200Y-3505200D01*
X18211800Y-5664200D02*
G75*
G02*
X18351500Y-5524500I139700J0D01*
G01*
X18351500Y-7429500D02*
G75*
G02*
X18211800Y-7289800I0J139700D01*
G01*
X18554700Y-7429500D02*
G75*
G02*
X18694400Y-7569200I0J-139700D01*
G01*
X18834100Y-9334500D02*
G75*
G02*
X18694400Y-9194800I0J139700D01*
G01*
X19507200Y-9334500D02*
G75*
G02*
X19646900Y-9474200I0J-139700D01*
G01*
X19786600Y-13220700D02*
G75*
G02*
X19646900Y-13081000I0J139700D01*
G01*
X17995900Y-13081000D02*
G75*
G02*
X17856200Y-13220700I-139700J0D01*
G01*
X17856200Y-9334500D02*
G75*
G02*
X17995900Y-9474200I0J-139700D01*
G01*
X17183100Y-9334500D02*
G75*
G02*
X17043400Y-9194800I0J139700D01*
G01*
X16903700Y-7429500D02*
G75*
G02*
X17043400Y-7569200I0J-139700D01*
G01*
X16713200Y-7429500D02*
G75*
G02*
X16573500Y-7289800I0J139700D01*
G01*
X16573500Y-5664200D02*
G75*
G02*
X16713200Y-5524500I139700J0D01*
G01*
X18249900Y-5384800D02*
G75*
G02*
X18110200Y-5524500I-139700J0D01*
G01*
X18110200Y-3505200D02*
G75*
G02*
X18249900Y-3644900I0J-139700D01*
G01*
X18415000Y-3644900D02*
G75*
G02*
X18554700Y-3505200I139700J0D01*
G01*
X20180300Y-3505200D02*
X40093900Y-3505200D01*
X28384500Y-13220700D02*
X40081200Y-13220700D01*
X18415000Y-5524500D02*
X18415000Y-3644900D01*
X18211800Y-7289800D02*
X18211800Y-5664200D01*
X18554700Y-7429500D02*
X18351500Y-7429500D01*
X18694400Y-9194800D02*
X18694400Y-7569200D01*
X19507200Y-9334500D02*
X18834100Y-9334500D01*
X19646900Y-13081000D02*
X19646900Y-9474200D01*
X18249900Y-5384800D02*
X18249900Y-3644900D01*
X16713200Y-5524500D02*
X18110200Y-5524500D01*
X16573500Y-7289800D02*
X16573500Y-5664200D01*
X16903700Y-7429500D02*
X16713200Y-7429500D01*
X17043400Y-9194800D02*
X17043400Y-7569200D01*
X17856200Y-9334500D02*
X17183100Y-9334500D01*
X17995900Y-13081000D02*
X17995900Y-9474200D01*
X2108200Y-3644900D02*
G75*
G02*
X2247900Y-3505200I139700J0D01*
G01*
X42538650Y-3505200D02*
G75*
G02*
X42678350Y-3644900I0J-139700D01*
G01*
X42678488Y-13074650D02*
G75*
G02*
X42538650Y-13220700I-146188J0D01*
G01*
X2247900Y-13220700D02*
G75*
G02*
X2108200Y-13081000I0J139700D01*
G01*
X4711700Y-3505200D02*
X16408400Y-3505200D01*
X42678350Y-3644900D02*
X42678488Y-13074650D01*
X2108200Y-13081000D02*
X2108200Y-3644900D01*
D11*
X4198850Y-13205700D02*
X4228850Y-13235700D01*
X4228850Y-13205700D02*
X4198850Y-13235700D01*
X4205200Y-3490200D02*
X4235200Y-3520200D01*
X4235200Y-3490200D02*
X4205200Y-3520200D01*
X4258225Y-13205700D02*
X4288225Y-13235700D01*
X4288225Y-13205700D02*
X4258225Y-13235700D01*
X4264575Y-3490200D02*
X4294575Y-3520200D01*
X4294575Y-3490200D02*
X4264575Y-3520200D01*
X4317600Y-13205700D02*
X4347600Y-13235700D01*
X4347600Y-13205700D02*
X4317600Y-13235700D01*
X4323950Y-3490200D02*
X4353950Y-3520200D01*
X4353950Y-3490200D02*
X4323950Y-3520200D01*
X4376975Y-13205700D02*
X4406975Y-13235700D01*
X4406975Y-13205700D02*
X4376975Y-13235700D01*
X4383325Y-3490200D02*
X4413325Y-3520200D01*
X4413325Y-3490200D02*
X4383325Y-3520200D01*
X4436350Y-13205700D02*
X4466350Y-13235700D01*
X4466350Y-13205700D02*
X4436350Y-13235700D01*
X4442700Y-3490200D02*
X4472700Y-3520200D01*
X4472700Y-3490200D02*
X4442700Y-3520200D01*
X4495725Y-13205700D02*
X4525725Y-13235700D01*
X4525725Y-13205700D02*
X4495725Y-13235700D01*
X4502075Y-3490200D02*
X4532075Y-3520200D01*
X4532075Y-3490200D02*
X4502075Y-3520200D01*
X4555100Y-13205700D02*
X4585100Y-13235700D01*
X4585100Y-13205700D02*
X4555100Y-13235700D01*
X4561450Y-3490200D02*
X4591450Y-3520200D01*
X4591450Y-3490200D02*
X4561450Y-3520200D01*
X4614475Y-13205700D02*
X4644475Y-13235700D01*
X4644475Y-13205700D02*
X4614475Y-13235700D01*
X4620825Y-3490200D02*
X4650825Y-3520200D01*
X4650825Y-3490200D02*
X4620825Y-3520200D01*
X4673850Y-13205700D02*
X4703850Y-13235700D01*
X4703850Y-13205700D02*
X4673850Y-13235700D01*
X4680200Y-3490200D02*
X4710200Y-3520200D01*
X4710200Y-3490200D02*
X4680200Y-3520200D01*
X13196800Y-13205700D02*
X13226800Y-13235700D01*
X13226800Y-13205700D02*
X13196800Y-13235700D01*
X13256175Y-13205700D02*
X13286175Y-13235700D01*
X13286175Y-13205700D02*
X13256175Y-13235700D01*
X13315550Y-13205700D02*
X13345550Y-13235700D01*
X13345550Y-13205700D02*
X13315550Y-13235700D01*
X13374925Y-13205700D02*
X13404925Y-13235700D01*
X13404925Y-13205700D02*
X13374925Y-13235700D01*
X13434300Y-13205700D02*
X13464300Y-13235700D01*
X13464300Y-13205700D02*
X13434300Y-13235700D01*
X13493675Y-13205700D02*
X13523675Y-13235700D01*
X13523675Y-13205700D02*
X13493675Y-13235700D01*
X13553050Y-13205700D02*
X13583050Y-13235700D01*
X13583050Y-13205700D02*
X13553050Y-13235700D01*
X13612425Y-13205700D02*
X13642425Y-13235700D01*
X13642425Y-13205700D02*
X13612425Y-13235700D01*
X13671800Y-13205700D02*
X13701800Y-13235700D01*
X13701800Y-13205700D02*
X13671800Y-13235700D01*
X16409900Y-3490200D02*
X16439900Y-3520200D01*
X16439900Y-3490200D02*
X16409900Y-3520200D01*
X16469275Y-3490200D02*
X16499275Y-3520200D01*
X16499275Y-3490200D02*
X16469275Y-3520200D01*
X16528650Y-3490200D02*
X16558650Y-3520200D01*
X16558650Y-3490200D02*
X16528650Y-3520200D01*
X16588025Y-3490200D02*
X16618025Y-3520200D01*
X16618025Y-3490200D02*
X16588025Y-3520200D01*
X16647400Y-3490200D02*
X16677400Y-3520200D01*
X16677400Y-3490200D02*
X16647400Y-3520200D01*
X16706775Y-3490200D02*
X16736775Y-3520200D01*
X16736775Y-3490200D02*
X16706775Y-3520200D01*
X16766150Y-3490200D02*
X16796150Y-3520200D01*
X16796150Y-3490200D02*
X16766150Y-3520200D01*
X16825525Y-3490200D02*
X16855525Y-3520200D01*
X16855525Y-3490200D02*
X16825525Y-3520200D01*
X16884900Y-3490200D02*
X16914900Y-3520200D01*
X16914900Y-3490200D02*
X16884900Y-3520200D01*
X19680150Y-3490200D02*
X19710150Y-3520200D01*
X19710150Y-3490200D02*
X19680150Y-3520200D01*
X19739525Y-3490200D02*
X19769525Y-3520200D01*
X19769525Y-3490200D02*
X19739525Y-3520200D01*
X19798900Y-3490200D02*
X19828900Y-3520200D01*
X19828900Y-3490200D02*
X19798900Y-3520200D01*
X19858275Y-3490200D02*
X19888275Y-3520200D01*
X19888275Y-3490200D02*
X19858275Y-3520200D01*
X19917650Y-3490200D02*
X19947650Y-3520200D01*
X19947650Y-3490200D02*
X19917650Y-3520200D01*
X19977025Y-3490200D02*
X20007025Y-3520200D01*
X20007025Y-3490200D02*
X19977025Y-3520200D01*
X20036400Y-3490200D02*
X20066400Y-3520200D01*
X20066400Y-3490200D02*
X20036400Y-3520200D01*
X20095775Y-3490200D02*
X20125775Y-3520200D01*
X20125775Y-3490200D02*
X20095775Y-3520200D01*
X20155150Y-3490200D02*
X20185150Y-3520200D01*
X20185150Y-3490200D02*
X20155150Y-3520200D01*
X24614100Y-13205700D02*
X24644100Y-13235700D01*
X24644100Y-13205700D02*
X24614100Y-13235700D01*
X24673475Y-13205700D02*
X24703475Y-13235700D01*
X24703475Y-13205700D02*
X24673475Y-13235700D01*
X24732850Y-13205700D02*
X24762850Y-13235700D01*
X24762850Y-13205700D02*
X24732850Y-13235700D01*
X24792225Y-13205700D02*
X24822225Y-13235700D01*
X24822225Y-13205700D02*
X24792225Y-13235700D01*
X24851600Y-13205700D02*
X24881600Y-13235700D01*
X24881600Y-13205700D02*
X24851600Y-13235700D01*
X24910975Y-13205700D02*
X24940975Y-13235700D01*
X24940975Y-13205700D02*
X24910975Y-13235700D01*
X24970350Y-13205700D02*
X25000350Y-13235700D01*
X25000350Y-13205700D02*
X24970350Y-13235700D01*
X25029725Y-13205700D02*
X25059725Y-13235700D01*
X25059725Y-13205700D02*
X25029725Y-13235700D01*
X25089100Y-13205700D02*
X25119100Y-13235700D01*
X25119100Y-13205700D02*
X25089100Y-13235700D01*
X40082700Y-13205700D02*
X40112700Y-13235700D01*
X40112700Y-13205700D02*
X40082700Y-13235700D01*
X40095400Y-3490200D02*
X40125400Y-3520200D01*
X40125400Y-3490200D02*
X40095400Y-3520200D01*
X40142075Y-13205700D02*
X40172075Y-13235700D01*
X40172075Y-13205700D02*
X40142075Y-13235700D01*
X40154775Y-3490200D02*
X40184775Y-3520200D01*
X40184775Y-3490200D02*
X40154775Y-3520200D01*
X40201450Y-13205700D02*
X40231450Y-13235700D01*
X40231450Y-13205700D02*
X40201450Y-13235700D01*
X40214150Y-3490200D02*
X40244150Y-3520200D01*
X40244150Y-3490200D02*
X40214150Y-3520200D01*
X40260825Y-13205700D02*
X40290825Y-13235700D01*
X40290825Y-13205700D02*
X40260825Y-13235700D01*
X40273525Y-3490200D02*
X40303525Y-3520200D01*
X40303525Y-3490200D02*
X40273525Y-3520200D01*
X40320200Y-13205700D02*
X40350200Y-13235700D01*
X40350200Y-13205700D02*
X40320200Y-13235700D01*
X40332900Y-3490200D02*
X40362900Y-3520200D01*
X40362900Y-3490200D02*
X40332900Y-3520200D01*
X40379575Y-13205700D02*
X40409575Y-13235700D01*
X40409575Y-13205700D02*
X40379575Y-13235700D01*
X40392275Y-3490200D02*
X40422275Y-3520200D01*
X40422275Y-3490200D02*
X40392275Y-3520200D01*
X40438950Y-13205700D02*
X40468950Y-13235700D01*
X40468950Y-13205700D02*
X40438950Y-13235700D01*
X40451650Y-3490200D02*
X40481650Y-3520200D01*
X40481650Y-3490200D02*
X40451650Y-3520200D01*
X40498325Y-13205700D02*
X40528325Y-13235700D01*
X40528325Y-13205700D02*
X40498325Y-13235700D01*
X40511025Y-3490200D02*
X40541025Y-3520200D01*
X40541025Y-3490200D02*
X40511025Y-3520200D01*
X40557700Y-13205700D02*
X40587700Y-13235700D01*
X40587700Y-13205700D02*
X40557700Y-13235700D01*
X40570400Y-3490200D02*
X40600400Y-3520200D01*
X40600400Y-3490200D02*
X40570400Y-3520200D01*
X17955200Y-3863000D02*
G75*
G03*
X17955200Y-3863000I-60000J0D01*
G01*
X17955200Y-4563000D02*
G75*
G03*
X17955200Y-4563000I-60000J0D01*
G01*
X18862350Y-3850300D02*
G75*
G03*
X18862350Y-3850300I-60000J0D01*
G01*
X18862350Y-4550300D02*
G75*
G03*
X18862350Y-4550300I-60000J0D01*
G01*
X4873625Y-12104500D02*
X4873625Y-12279500D01*
X4786125Y-12192000D02*
X4961125Y-12192000D01*
X5349875Y-8294500D02*
X5349875Y-8469500D01*
X5262375Y-8382000D02*
X5437375Y-8382000D01*
X5826125Y-10199500D02*
X5826125Y-10374500D01*
X5738625Y-10287000D02*
X5913625Y-10287000D01*
X5889625Y-12104500D02*
X5889625Y-12279500D01*
X5802125Y-12192000D02*
X5977125Y-12192000D01*
X6365875Y-8294500D02*
X6365875Y-8469500D01*
X6278375Y-8382000D02*
X6453375Y-8382000D01*
X6842125Y-10199500D02*
X6842125Y-10374500D01*
X6754625Y-10287000D02*
X6929625Y-10287000D01*
X7254875Y-12104500D02*
X7254875Y-12279500D01*
X7167375Y-12192000D02*
X7342375Y-12192000D01*
X8270875Y-12104500D02*
X8270875Y-12279500D01*
X8183375Y-12192000D02*
X8358375Y-12192000D01*
X9642475Y-12104500D02*
X9642475Y-12279500D01*
X9554975Y-12192000D02*
X9729975Y-12192000D01*
X10658475Y-12104500D02*
X10658475Y-12279500D01*
X10570975Y-12192000D02*
X10745975Y-12192000D01*
X12023725Y-12104500D02*
X12023725Y-12279500D01*
X11936225Y-12192000D02*
X12111225Y-12192000D01*
X13039725Y-12104500D02*
X13039725Y-12279500D01*
X12952225Y-12192000D02*
X13127225Y-12192000D01*
X15351125Y-12104500D02*
X15351125Y-12279500D01*
X15263625Y-12192000D02*
X15438625Y-12192000D01*
X15351125Y-12104500D02*
X15351125Y-12279500D01*
X15263625Y-12192000D02*
X15438625Y-12192000D01*
X16367125Y-12104500D02*
X16367125Y-12279500D01*
X16279625Y-12192000D02*
X16454625Y-12192000D01*
X16367125Y-12104500D02*
X16367125Y-12279500D01*
X16279625Y-12192000D02*
X16454625Y-12192000D01*
X21755100Y-12104500D02*
X21755100Y-12279500D01*
X21667600Y-12192000D02*
X21842600Y-12192000D01*
X21755100Y-12104500D02*
X21755100Y-12279500D01*
X21667600Y-12192000D02*
X21842600Y-12192000D01*
X22771100Y-12104500D02*
X22771100Y-12279500D01*
X22683600Y-12192000D02*
X22858600Y-12192000D01*
X22771100Y-12104500D02*
X22771100Y-12279500D01*
X22683600Y-12192000D02*
X22858600Y-12192000D01*
X25565100Y-12104500D02*
X25565100Y-12279500D01*
X25477600Y-12192000D02*
X25652600Y-12192000D01*
X26581100Y-12104500D02*
X26581100Y-12279500D01*
X26493600Y-12192000D02*
X26668600Y-12192000D01*
X27946350Y-12104500D02*
X27946350Y-12279500D01*
X27858850Y-12192000D02*
X28033850Y-12192000D01*
X28962350Y-12104500D02*
X28962350Y-12279500D01*
X28874850Y-12192000D02*
X29049850Y-12192000D01*
X30327600Y-12104500D02*
X30327600Y-12279500D01*
X30240100Y-12192000D02*
X30415100Y-12192000D01*
X31280100Y-10199500D02*
X31280100Y-10374500D01*
X31192600Y-10287000D02*
X31367600Y-10287000D01*
X31343600Y-12104500D02*
X31343600Y-12279500D01*
X31256100Y-12192000D02*
X31431100Y-12192000D01*
X31756350Y-8294500D02*
X31756350Y-8469500D01*
X31668850Y-8382000D02*
X31843850Y-8382000D01*
X31994475Y-4484500D02*
X31994475Y-4659500D01*
X31906975Y-4572000D02*
X32081975Y-4572000D01*
X32296100Y-10199500D02*
X32296100Y-10374500D01*
X32208600Y-10287000D02*
X32383600Y-10287000D01*
X32708850Y-12104500D02*
X32708850Y-12279500D01*
X32621350Y-12192000D02*
X32796350Y-12192000D01*
X32772350Y-8294500D02*
X32772350Y-8469500D01*
X32684850Y-8382000D02*
X32859850Y-8382000D01*
X33010475Y-4484500D02*
X33010475Y-4659500D01*
X32922975Y-4572000D02*
X33097975Y-4572000D01*
X33724850Y-12104500D02*
X33724850Y-12279500D01*
X33637350Y-12192000D02*
X33812350Y-12192000D01*
X4702676Y-4639176D02*
X4702676Y-4504824D01*
X4568324Y-4504824D01*
X4568324Y-4639176D01*
X4702676Y-4639176D01*
X4940801Y-12259176D02*
X4940801Y-12124824D01*
X4806449Y-12124824D01*
X4806449Y-12259176D01*
X4940801Y-12259176D01*
X5178926Y-6544176D02*
X5178926Y-6409824D01*
X5044574Y-6409824D01*
X5044574Y-6544176D01*
X5178926Y-6544176D01*
X5417051Y-8449176D02*
X5417051Y-8314824D01*
X5282699Y-8314824D01*
X5282699Y-8449176D01*
X5417051Y-8449176D01*
X5718676Y-4639176D02*
X5718676Y-4504824D01*
X5584324Y-4504824D01*
X5584324Y-4639176D01*
X5718676Y-4639176D01*
X5893301Y-10354176D02*
X5893301Y-10219824D01*
X5758949Y-10219824D01*
X5758949Y-10354176D01*
X5893301Y-10354176D01*
X5956801Y-12259176D02*
X5956801Y-12124824D01*
X5822449Y-12124824D01*
X5822449Y-12259176D01*
X5956801Y-12259176D01*
X6194926Y-6544176D02*
X6194926Y-6409824D01*
X6060574Y-6409824D01*
X6060574Y-6544176D01*
X6194926Y-6544176D01*
X6433051Y-8449176D02*
X6433051Y-8314824D01*
X6298699Y-8314824D01*
X6298699Y-8449176D01*
X6433051Y-8449176D01*
X6607676Y-4639176D02*
X6607676Y-4504824D01*
X6473324Y-4504824D01*
X6473324Y-4639176D01*
X6607676Y-4639176D01*
X6909301Y-10354176D02*
X6909301Y-10219824D01*
X6774949Y-10219824D01*
X6774949Y-10354176D01*
X6909301Y-10354176D01*
X7322051Y-12259176D02*
X7322051Y-12124824D01*
X7187699Y-12124824D01*
X7187699Y-12259176D01*
X7322051Y-12259176D01*
X7560176Y-6544176D02*
X7560176Y-6409824D01*
X7425824Y-6409824D01*
X7425824Y-6544176D01*
X7560176Y-6544176D01*
X7623676Y-4639176D02*
X7623676Y-4504824D01*
X7489324Y-4504824D01*
X7489324Y-4639176D01*
X7623676Y-4639176D01*
X8036426Y-8449176D02*
X8036426Y-8314824D01*
X7902074Y-8314824D01*
X7902074Y-8449176D01*
X8036426Y-8449176D01*
X8338051Y-12259176D02*
X8338051Y-12124824D01*
X8203699Y-12124824D01*
X8203699Y-12259176D01*
X8338051Y-12259176D01*
X8512676Y-4639176D02*
X8512676Y-4504824D01*
X8378324Y-4504824D01*
X8378324Y-4639176D01*
X8512676Y-4639176D01*
X8576176Y-6544176D02*
X8576176Y-6409824D01*
X8441824Y-6409824D01*
X8441824Y-6544176D01*
X8576176Y-6544176D01*
X8988926Y-10354176D02*
X8988926Y-10219824D01*
X8854574Y-10219824D01*
X8854574Y-10354176D01*
X8988926Y-10354176D01*
X9052426Y-8449176D02*
X9052426Y-8314824D01*
X8918074Y-8314824D01*
X8918074Y-8449176D01*
X9052426Y-8449176D01*
X9465176Y-6544176D02*
X9465176Y-6409824D01*
X9330824Y-6409824D01*
X9330824Y-6544176D01*
X9465176Y-6544176D01*
X9528676Y-4639176D02*
X9528676Y-4504824D01*
X9394324Y-4504824D01*
X9394324Y-4639176D01*
X9528676Y-4639176D01*
X9709651Y-12259176D02*
X9709651Y-12124824D01*
X9575299Y-12124824D01*
X9575299Y-12259176D01*
X9709651Y-12259176D01*
X9941426Y-8449176D02*
X9941426Y-8314824D01*
X9807074Y-8314824D01*
X9807074Y-8449176D01*
X9941426Y-8449176D01*
X10004926Y-10354176D02*
X10004926Y-10219824D01*
X9870574Y-10219824D01*
X9870574Y-10354176D01*
X10004926Y-10354176D01*
X10417676Y-4639176D02*
X10417676Y-4504824D01*
X10283324Y-4504824D01*
X10283324Y-4639176D01*
X10417676Y-4639176D01*
X10481176Y-6544176D02*
X10481176Y-6409824D01*
X10346824Y-6409824D01*
X10346824Y-6544176D01*
X10481176Y-6544176D01*
X10725651Y-12259176D02*
X10725651Y-12124824D01*
X10591299Y-12124824D01*
X10591299Y-12259176D01*
X10725651Y-12259176D01*
X10893926Y-10354176D02*
X10893926Y-10219824D01*
X10759574Y-10219824D01*
X10759574Y-10354176D01*
X10893926Y-10354176D01*
X10957426Y-8449176D02*
X10957426Y-8314824D01*
X10823074Y-8314824D01*
X10823074Y-8449176D01*
X10957426Y-8449176D01*
X11370176Y-6544176D02*
X11370176Y-6409824D01*
X11235824Y-6409824D01*
X11235824Y-6544176D01*
X11370176Y-6544176D01*
X11433676Y-4639176D02*
X11433676Y-4504824D01*
X11299324Y-4504824D01*
X11299324Y-4639176D01*
X11433676Y-4639176D01*
X11846426Y-8449176D02*
X11846426Y-8314824D01*
X11712074Y-8314824D01*
X11712074Y-8449176D01*
X11846426Y-8449176D01*
X11909926Y-10354176D02*
X11909926Y-10219824D01*
X11775574Y-10219824D01*
X11775574Y-10354176D01*
X11909926Y-10354176D01*
X12090901Y-12259176D02*
X12090901Y-12124824D01*
X11956549Y-12124824D01*
X11956549Y-12259176D01*
X12090901Y-12259176D01*
X12322676Y-4639176D02*
X12322676Y-4504824D01*
X12188324Y-4504824D01*
X12188324Y-4639176D01*
X12322676Y-4639176D01*
X12386176Y-6544176D02*
X12386176Y-6409824D01*
X12251824Y-6409824D01*
X12251824Y-6544176D01*
X12386176Y-6544176D01*
X12798926Y-10354176D02*
X12798926Y-10219824D01*
X12664574Y-10219824D01*
X12664574Y-10354176D01*
X12798926Y-10354176D01*
X12862426Y-8449176D02*
X12862426Y-8314824D01*
X12728074Y-8314824D01*
X12728074Y-8449176D01*
X12862426Y-8449176D01*
X13106901Y-12259176D02*
X13106901Y-12124824D01*
X12972549Y-12124824D01*
X12972549Y-12259176D01*
X13106901Y-12259176D01*
X13275176Y-6544176D02*
X13275176Y-6409824D01*
X13140824Y-6409824D01*
X13140824Y-6544176D01*
X13275176Y-6544176D01*
X13338676Y-4639176D02*
X13338676Y-4504824D01*
X13204324Y-4504824D01*
X13204324Y-4639176D01*
X13338676Y-4639176D01*
X13751426Y-8449176D02*
X13751426Y-8314824D01*
X13617074Y-8314824D01*
X13617074Y-8449176D01*
X13751426Y-8449176D01*
X13814926Y-10354176D02*
X13814926Y-10219824D01*
X13680574Y-10219824D01*
X13680574Y-10354176D01*
X13814926Y-10354176D01*
X14227676Y-4639176D02*
X14227676Y-4504824D01*
X14093324Y-4504824D01*
X14093324Y-4639176D01*
X14227676Y-4639176D01*
X14291176Y-6544176D02*
X14291176Y-6409824D01*
X14156824Y-6409824D01*
X14156824Y-6544176D01*
X14291176Y-6544176D01*
X14703926Y-10354176D02*
X14703926Y-10219824D01*
X14569574Y-10219824D01*
X14569574Y-10354176D01*
X14703926Y-10354176D01*
X14767426Y-8449176D02*
X14767426Y-8314824D01*
X14633074Y-8314824D01*
X14633074Y-8449176D01*
X14767426Y-8449176D01*
X15180176Y-6544176D02*
X15180176Y-6409824D01*
X15045824Y-6409824D01*
X15045824Y-6544176D01*
X15180176Y-6544176D01*
X15243676Y-4639176D02*
X15243676Y-4504824D01*
X15109324Y-4504824D01*
X15109324Y-4639176D01*
X15243676Y-4639176D01*
X15418301Y-12259176D02*
X15418301Y-12124824D01*
X15283949Y-12124824D01*
X15283949Y-12259176D01*
X15418301Y-12259176D01*
X15656426Y-8449176D02*
X15656426Y-8314824D01*
X15522074Y-8314824D01*
X15522074Y-8449176D01*
X15656426Y-8449176D01*
X15719926Y-10354176D02*
X15719926Y-10219824D01*
X15585574Y-10219824D01*
X15585574Y-10354176D01*
X15719926Y-10354176D01*
X16132676Y-4639176D02*
X16132676Y-4504824D01*
X15998324Y-4504824D01*
X15998324Y-4639176D01*
X16132676Y-4639176D01*
X16196176Y-6544176D02*
X16196176Y-6409824D01*
X16061824Y-6409824D01*
X16061824Y-6544176D01*
X16196176Y-6544176D01*
X16434301Y-12259176D02*
X16434301Y-12124824D01*
X16299949Y-12124824D01*
X16299949Y-12259176D01*
X16434301Y-12259176D01*
X16608926Y-10354176D02*
X16608926Y-10219824D01*
X16474574Y-10219824D01*
X16474574Y-10354176D01*
X16608926Y-10354176D01*
X16672426Y-8449176D02*
X16672426Y-8314824D01*
X16538074Y-8314824D01*
X16538074Y-8449176D01*
X16672426Y-8449176D01*
X17148676Y-4639176D02*
X17148676Y-4504824D01*
X17014324Y-4504824D01*
X17014324Y-4639176D01*
X17148676Y-4639176D01*
X17624926Y-10354176D02*
X17624926Y-10219824D01*
X17490574Y-10219824D01*
X17490574Y-10354176D01*
X17624926Y-10354176D01*
X18726651Y-6544176D02*
X18726651Y-6409824D01*
X18592299Y-6409824D01*
X18592299Y-6544176D01*
X18726651Y-6544176D01*
X19202901Y-8449176D02*
X19202901Y-8314824D01*
X19068549Y-8314824D01*
X19068549Y-8449176D01*
X19202901Y-8449176D01*
X19679151Y-4639176D02*
X19679151Y-4504824D01*
X19544799Y-4504824D01*
X19544799Y-4639176D01*
X19679151Y-4639176D01*
X19742651Y-6544176D02*
X19742651Y-6409824D01*
X19608299Y-6409824D01*
X19608299Y-6544176D01*
X19742651Y-6544176D01*
X20155401Y-10354176D02*
X20155401Y-10219824D01*
X20021049Y-10219824D01*
X20021049Y-10354176D01*
X20155401Y-10354176D01*
X20218901Y-8449176D02*
X20218901Y-8314824D01*
X20084549Y-8314824D01*
X20084549Y-8449176D01*
X20218901Y-8449176D01*
X20631651Y-6544176D02*
X20631651Y-6409824D01*
X20497299Y-6409824D01*
X20497299Y-6544176D01*
X20631651Y-6544176D01*
X20695151Y-4639176D02*
X20695151Y-4504824D01*
X20560799Y-4504824D01*
X20560799Y-4639176D01*
X20695151Y-4639176D01*
X21107901Y-8449176D02*
X21107901Y-8314824D01*
X20973549Y-8314824D01*
X20973549Y-8449176D01*
X21107901Y-8449176D01*
X21171401Y-10354176D02*
X21171401Y-10219824D01*
X21037049Y-10219824D01*
X21037049Y-10354176D01*
X21171401Y-10354176D01*
X21584151Y-4639176D02*
X21584151Y-4504824D01*
X21449799Y-4504824D01*
X21449799Y-4639176D01*
X21584151Y-4639176D01*
X21647651Y-6544176D02*
X21647651Y-6409824D01*
X21513299Y-6409824D01*
X21513299Y-6544176D01*
X21647651Y-6544176D01*
X21822276Y-12259176D02*
X21822276Y-12124824D01*
X21687924Y-12124824D01*
X21687924Y-12259176D01*
X21822276Y-12259176D01*
X22060401Y-10354176D02*
X22060401Y-10219824D01*
X21926049Y-10219824D01*
X21926049Y-10354176D01*
X22060401Y-10354176D01*
X22123901Y-8449176D02*
X22123901Y-8314824D01*
X21989549Y-8314824D01*
X21989549Y-8449176D01*
X22123901Y-8449176D01*
X22536651Y-6544176D02*
X22536651Y-6409824D01*
X22402299Y-6409824D01*
X22402299Y-6544176D01*
X22536651Y-6544176D01*
X22600151Y-4639176D02*
X22600151Y-4504824D01*
X22465799Y-4504824D01*
X22465799Y-4639176D01*
X22600151Y-4639176D01*
X22838276Y-12259176D02*
X22838276Y-12124824D01*
X22703924Y-12124824D01*
X22703924Y-12259176D01*
X22838276Y-12259176D01*
X23012901Y-8449176D02*
X23012901Y-8314824D01*
X22878549Y-8314824D01*
X22878549Y-8449176D01*
X23012901Y-8449176D01*
X23076401Y-10354176D02*
X23076401Y-10219824D01*
X22942049Y-10219824D01*
X22942049Y-10354176D01*
X23076401Y-10354176D01*
X23489151Y-4639176D02*
X23489151Y-4504824D01*
X23354799Y-4504824D01*
X23354799Y-4639176D01*
X23489151Y-4639176D01*
X23552651Y-6544176D02*
X23552651Y-6409824D01*
X23418299Y-6409824D01*
X23418299Y-6544176D01*
X23552651Y-6544176D01*
X23965401Y-10354176D02*
X23965401Y-10219824D01*
X23831049Y-10219824D01*
X23831049Y-10354176D01*
X23965401Y-10354176D01*
X24028901Y-8449176D02*
X24028901Y-8314824D01*
X23894549Y-8314824D01*
X23894549Y-8449176D01*
X24028901Y-8449176D01*
X24441651Y-6544176D02*
X24441651Y-6409824D01*
X24307299Y-6409824D01*
X24307299Y-6544176D01*
X24441651Y-6544176D01*
X24505151Y-4639176D02*
X24505151Y-4504824D01*
X24370799Y-4504824D01*
X24370799Y-4639176D01*
X24505151Y-4639176D01*
X24917901Y-8449176D02*
X24917901Y-8314824D01*
X24783549Y-8314824D01*
X24783549Y-8449176D01*
X24917901Y-8449176D01*
X24981401Y-10354176D02*
X24981401Y-10219824D01*
X24847049Y-10219824D01*
X24847049Y-10354176D01*
X24981401Y-10354176D01*
X25394151Y-4639176D02*
X25394151Y-4504824D01*
X25259799Y-4504824D01*
X25259799Y-4639176D01*
X25394151Y-4639176D01*
X25457651Y-6544176D02*
X25457651Y-6409824D01*
X25323299Y-6409824D01*
X25323299Y-6544176D01*
X25457651Y-6544176D01*
X25632276Y-12259176D02*
X25632276Y-12124824D01*
X25497924Y-12124824D01*
X25497924Y-12259176D01*
X25632276Y-12259176D01*
X25870401Y-10354176D02*
X25870401Y-10219824D01*
X25736049Y-10219824D01*
X25736049Y-10354176D01*
X25870401Y-10354176D01*
X25933901Y-8449176D02*
X25933901Y-8314824D01*
X25799549Y-8314824D01*
X25799549Y-8449176D01*
X25933901Y-8449176D01*
X26346651Y-6544176D02*
X26346651Y-6409824D01*
X26212299Y-6409824D01*
X26212299Y-6544176D01*
X26346651Y-6544176D01*
X26410151Y-4639176D02*
X26410151Y-4504824D01*
X26275799Y-4504824D01*
X26275799Y-4639176D01*
X26410151Y-4639176D01*
X26648276Y-12259176D02*
X26648276Y-12124824D01*
X26513924Y-12124824D01*
X26513924Y-12259176D01*
X26648276Y-12259176D01*
X26822901Y-8449176D02*
X26822901Y-8314824D01*
X26688549Y-8314824D01*
X26688549Y-8449176D01*
X26822901Y-8449176D01*
X26886401Y-10354176D02*
X26886401Y-10219824D01*
X26752049Y-10219824D01*
X26752049Y-10354176D01*
X26886401Y-10354176D01*
X27299151Y-4639176D02*
X27299151Y-4504824D01*
X27164799Y-4504824D01*
X27164799Y-4639176D01*
X27299151Y-4639176D01*
X27362651Y-6544176D02*
X27362651Y-6409824D01*
X27228299Y-6409824D01*
X27228299Y-6544176D01*
X27362651Y-6544176D01*
X27775401Y-10354176D02*
X27775401Y-10219824D01*
X27641049Y-10219824D01*
X27641049Y-10354176D01*
X27775401Y-10354176D01*
X27838901Y-8449176D02*
X27838901Y-8314824D01*
X27704549Y-8314824D01*
X27704549Y-8449176D01*
X27838901Y-8449176D01*
X28013526Y-12259176D02*
X28013526Y-12124824D01*
X27879174Y-12124824D01*
X27879174Y-12259176D01*
X28013526Y-12259176D01*
X28251651Y-6544176D02*
X28251651Y-6409824D01*
X28117299Y-6409824D01*
X28117299Y-6544176D01*
X28251651Y-6544176D01*
X28315151Y-4639176D02*
X28315151Y-4504824D01*
X28180799Y-4504824D01*
X28180799Y-4639176D01*
X28315151Y-4639176D01*
X28727901Y-8449176D02*
X28727901Y-8314824D01*
X28593549Y-8314824D01*
X28593549Y-8449176D01*
X28727901Y-8449176D01*
X28791401Y-10354176D02*
X28791401Y-10219824D01*
X28657049Y-10219824D01*
X28657049Y-10354176D01*
X28791401Y-10354176D01*
X29029526Y-12259176D02*
X29029526Y-12124824D01*
X28895174Y-12124824D01*
X28895174Y-12259176D01*
X29029526Y-12259176D01*
X29204151Y-4639176D02*
X29204151Y-4504824D01*
X29069799Y-4504824D01*
X29069799Y-4639176D01*
X29204151Y-4639176D01*
X29267651Y-6544176D02*
X29267651Y-6409824D01*
X29133299Y-6409824D01*
X29133299Y-6544176D01*
X29267651Y-6544176D01*
X29743901Y-8449176D02*
X29743901Y-8314824D01*
X29609549Y-8314824D01*
X29609549Y-8449176D01*
X29743901Y-8449176D01*
X30156651Y-6544176D02*
X30156651Y-6409824D01*
X30022299Y-6409824D01*
X30022299Y-6544176D01*
X30156651Y-6544176D01*
X30220151Y-4639176D02*
X30220151Y-4504824D01*
X30085799Y-4504824D01*
X30085799Y-4639176D01*
X30220151Y-4639176D01*
X30394776Y-12259176D02*
X30394776Y-12124824D01*
X30260424Y-12124824D01*
X30260424Y-12259176D01*
X30394776Y-12259176D01*
X31172651Y-6544176D02*
X31172651Y-6409824D01*
X31038299Y-6409824D01*
X31038299Y-6544176D01*
X31172651Y-6544176D01*
X31347276Y-10354176D02*
X31347276Y-10219824D01*
X31212924Y-10219824D01*
X31212924Y-10354176D01*
X31347276Y-10354176D01*
X31410776Y-12259176D02*
X31410776Y-12124824D01*
X31276424Y-12124824D01*
X31276424Y-12259176D01*
X31410776Y-12259176D01*
X31823526Y-8449176D02*
X31823526Y-8314824D01*
X31689174Y-8314824D01*
X31689174Y-8449176D01*
X31823526Y-8449176D01*
X32061651Y-4639176D02*
X32061651Y-4504824D01*
X31927299Y-4504824D01*
X31927299Y-4639176D01*
X32061651Y-4639176D01*
X32363276Y-10354176D02*
X32363276Y-10219824D01*
X32228924Y-10219824D01*
X32228924Y-10354176D01*
X32363276Y-10354176D01*
X32537901Y-6544176D02*
X32537901Y-6409824D01*
X32403549Y-6409824D01*
X32403549Y-6544176D01*
X32537901Y-6544176D01*
X32776026Y-12259176D02*
X32776026Y-12124824D01*
X32641674Y-12124824D01*
X32641674Y-12259176D01*
X32776026Y-12259176D01*
X32839526Y-8449176D02*
X32839526Y-8314824D01*
X32705174Y-8314824D01*
X32705174Y-8449176D01*
X32839526Y-8449176D01*
X33077651Y-4639176D02*
X33077651Y-4504824D01*
X32943299Y-4504824D01*
X32943299Y-4639176D01*
X33077651Y-4639176D01*
X33553901Y-6544176D02*
X33553901Y-6409824D01*
X33419549Y-6409824D01*
X33419549Y-6544176D01*
X33553901Y-6544176D01*
X33792026Y-12259176D02*
X33792026Y-12124824D01*
X33657674Y-12124824D01*
X33657674Y-12259176D01*
X33792026Y-12259176D01*
X35395326Y-4639176D02*
X35395326Y-4504824D01*
X35260974Y-4504824D01*
X35260974Y-4639176D01*
X35395326Y-4639176D01*
X35395326Y-6544176D02*
X35395326Y-6409824D01*
X35260974Y-6409824D01*
X35260974Y-6544176D01*
X35395326Y-6544176D01*
X35395326Y-12259176D02*
X35395326Y-12124824D01*
X35260974Y-12124824D01*
X35260974Y-12259176D01*
X35395326Y-12259176D01*
X36411326Y-4639176D02*
X36411326Y-4504824D01*
X36276974Y-4504824D01*
X36276974Y-4639176D01*
X36411326Y-4639176D01*
X36411326Y-6544176D02*
X36411326Y-6409824D01*
X36276974Y-6409824D01*
X36276974Y-6544176D01*
X36411326Y-6544176D01*
X36411326Y-12259176D02*
X36411326Y-12124824D01*
X36276974Y-12124824D01*
X36276974Y-12259176D01*
X36411326Y-12259176D01*
X37297226Y-10354176D02*
X37297226Y-10219824D01*
X37162874Y-10219824D01*
X37162874Y-10354176D01*
X37297226Y-10354176D01*
X37297226Y-12259176D02*
X37297226Y-12124824D01*
X37162874Y-12124824D01*
X37162874Y-12259176D01*
X37297226Y-12259176D01*
X37303576Y-4639176D02*
X37303576Y-4504824D01*
X37169224Y-4504824D01*
X37169224Y-4639176D01*
X37303576Y-4639176D01*
X37303576Y-6544176D02*
X37303576Y-6409824D01*
X37169224Y-6409824D01*
X37169224Y-6544176D01*
X37303576Y-6544176D01*
X38313226Y-10354176D02*
X38313226Y-10219824D01*
X38178874Y-10219824D01*
X38178874Y-10354176D01*
X38313226Y-10354176D01*
X38313226Y-12259176D02*
X38313226Y-12124824D01*
X38178874Y-12124824D01*
X38178874Y-12259176D01*
X38313226Y-12259176D01*
X38319576Y-4639176D02*
X38319576Y-4504824D01*
X38185224Y-4504824D01*
X38185224Y-4639176D01*
X38319576Y-4639176D01*
X38319576Y-6544176D02*
X38319576Y-6409824D01*
X38185224Y-6409824D01*
X38185224Y-6544176D01*
X38319576Y-6544176D01*
X39202226Y-12259176D02*
X39202226Y-12124824D01*
X39067874Y-12124824D01*
X39067874Y-12259176D01*
X39202226Y-12259176D01*
X39208576Y-4639176D02*
X39208576Y-4504824D01*
X39074224Y-4504824D01*
X39074224Y-4639176D01*
X39208576Y-4639176D01*
X39208576Y-6544176D02*
X39208576Y-6409824D01*
X39074224Y-6409824D01*
X39074224Y-6544176D01*
X39208576Y-6544176D01*
X40218226Y-12259176D02*
X40218226Y-12124824D01*
X40083874Y-12124824D01*
X40083874Y-12259176D01*
X40218226Y-12259176D01*
X40224576Y-4639176D02*
X40224576Y-4504824D01*
X40090224Y-4504824D01*
X40090224Y-4639176D01*
X40224576Y-4639176D01*
X40224576Y-6544176D02*
X40224576Y-6409824D01*
X40090224Y-6409824D01*
X40090224Y-6544176D01*
X40224576Y-6544176D01*
X2380000Y-10120000D02*
X2490000Y-10010000D01*
X2380000Y-9900000D01*
X2270000Y-10010000D01*
X2380000Y-10120000D01*
X3900000Y-10132900D02*
X4010000Y-10022900D01*
X3900000Y-9912900D01*
X3790000Y-10022900D01*
X3900000Y-10132900D01*
X40920000Y-10120000D02*
X41030000Y-10010000D01*
X40920000Y-9900000D01*
X40810000Y-10010000D01*
X40920000Y-10120000D01*
X42440000Y-10132900D02*
X42550000Y-10022900D01*
X42440000Y-9912900D01*
X42330000Y-10022900D01*
X42440000Y-10132900D01*
X4739500Y-4930000D02*
X5039500Y-5230000D01*
X5039500Y-4930000D02*
X4739500Y-5230000D01*
X5039500Y-5080000D02*
G75*
G03*
X5039500Y-5080000I-150000J0D01*
G01*
X4977625Y-12550000D02*
X5277625Y-12850000D01*
X5277625Y-12550000D02*
X4977625Y-12850000D01*
X5277625Y-12700000D02*
G75*
G03*
X5277625Y-12700000I-150000J0D01*
G01*
X5215750Y-6835000D02*
X5515750Y-7135000D01*
X5515750Y-6835000D02*
X5215750Y-7135000D01*
X5515750Y-6985000D02*
G75*
G03*
X5515750Y-6985000I-150000J0D01*
G01*
X5374500Y-4676000D02*
X5674500Y-4976000D01*
X5674500Y-4676000D02*
X5374500Y-4976000D01*
X5674500Y-4826000D02*
G75*
G03*
X5674500Y-4826000I-150000J0D01*
G01*
X5453875Y-8740000D02*
X5753875Y-9040000D01*
X5753875Y-8740000D02*
X5453875Y-9040000D01*
X5753875Y-8890000D02*
G75*
G03*
X5753875Y-8890000I-150000J0D01*
G01*
X5612625Y-12296000D02*
X5912625Y-12596000D01*
X5912625Y-12296000D02*
X5612625Y-12596000D01*
X5912625Y-12446000D02*
G75*
G03*
X5912625Y-12446000I-150000J0D01*
G01*
X5850750Y-6581000D02*
X6150750Y-6881000D01*
X6150750Y-6581000D02*
X5850750Y-6881000D01*
X6150750Y-6731000D02*
G75*
G03*
X6150750Y-6731000I-150000J0D01*
G01*
X5930125Y-10645000D02*
X6230125Y-10945000D01*
X6230125Y-10645000D02*
X5930125Y-10945000D01*
X6230125Y-10795000D02*
G75*
G03*
X6230125Y-10795000I-150000J0D01*
G01*
X6088875Y-8486000D02*
X6388875Y-8786000D01*
X6388875Y-8486000D02*
X6088875Y-8786000D01*
X6388875Y-8636000D02*
G75*
G03*
X6388875Y-8636000I-150000J0D01*
G01*
X6565125Y-10391000D02*
X6865125Y-10691000D01*
X6865125Y-10391000D02*
X6565125Y-10691000D01*
X6865125Y-10541000D02*
G75*
G03*
X6865125Y-10541000I-150000J0D01*
G01*
X6644500Y-4930000D02*
X6944500Y-5230000D01*
X6944500Y-4930000D02*
X6644500Y-5230000D01*
X6944500Y-5080000D02*
G75*
G03*
X6944500Y-5080000I-150000J0D01*
G01*
X7279500Y-4676000D02*
X7579500Y-4976000D01*
X7579500Y-4676000D02*
X7279500Y-4976000D01*
X7579500Y-4826000D02*
G75*
G03*
X7579500Y-4826000I-150000J0D01*
G01*
X7358875Y-12550000D02*
X7658875Y-12850000D01*
X7658875Y-12550000D02*
X7358875Y-12850000D01*
X7658875Y-12700000D02*
G75*
G03*
X7658875Y-12700000I-150000J0D01*
G01*
X7597000Y-6835000D02*
X7897000Y-7135000D01*
X7897000Y-6835000D02*
X7597000Y-7135000D01*
X7897000Y-6985000D02*
G75*
G03*
X7897000Y-6985000I-150000J0D01*
G01*
X7993875Y-12296000D02*
X8293875Y-12596000D01*
X8293875Y-12296000D02*
X7993875Y-12596000D01*
X8293875Y-12446000D02*
G75*
G03*
X8293875Y-12446000I-150000J0D01*
G01*
X8073250Y-8740000D02*
X8373250Y-9040000D01*
X8373250Y-8740000D02*
X8073250Y-9040000D01*
X8373250Y-8890000D02*
G75*
G03*
X8373250Y-8890000I-150000J0D01*
G01*
X8232000Y-6581000D02*
X8532000Y-6881000D01*
X8532000Y-6581000D02*
X8232000Y-6881000D01*
X8532000Y-6731000D02*
G75*
G03*
X8532000Y-6731000I-150000J0D01*
G01*
X8549500Y-4930000D02*
X8849500Y-5230000D01*
X8849500Y-4930000D02*
X8549500Y-5230000D01*
X8849500Y-5080000D02*
G75*
G03*
X8849500Y-5080000I-150000J0D01*
G01*
X8708250Y-8486000D02*
X9008250Y-8786000D01*
X9008250Y-8486000D02*
X8708250Y-8786000D01*
X9008250Y-8636000D02*
G75*
G03*
X9008250Y-8636000I-150000J0D01*
G01*
X9025750Y-10645000D02*
X9325750Y-10945000D01*
X9325750Y-10645000D02*
X9025750Y-10945000D01*
X9325750Y-10795000D02*
G75*
G03*
X9325750Y-10795000I-150000J0D01*
G01*
X9184500Y-4676000D02*
X9484500Y-4976000D01*
X9484500Y-4676000D02*
X9184500Y-4976000D01*
X9484500Y-4826000D02*
G75*
G03*
X9484500Y-4826000I-150000J0D01*
G01*
X9502000Y-6835000D02*
X9802000Y-7135000D01*
X9802000Y-6835000D02*
X9502000Y-7135000D01*
X9802000Y-6985000D02*
G75*
G03*
X9802000Y-6985000I-150000J0D01*
G01*
X9660750Y-10391000D02*
X9960750Y-10691000D01*
X9960750Y-10391000D02*
X9660750Y-10691000D01*
X9960750Y-10541000D02*
G75*
G03*
X9960750Y-10541000I-150000J0D01*
G01*
X9746475Y-12550000D02*
X10046475Y-12850000D01*
X10046475Y-12550000D02*
X9746475Y-12850000D01*
X10046475Y-12700000D02*
G75*
G03*
X10046475Y-12700000I-150000J0D01*
G01*
X9978250Y-8740000D02*
X10278250Y-9040000D01*
X10278250Y-8740000D02*
X9978250Y-9040000D01*
X10278250Y-8890000D02*
G75*
G03*
X10278250Y-8890000I-150000J0D01*
G01*
X10137000Y-6581000D02*
X10437000Y-6881000D01*
X10437000Y-6581000D02*
X10137000Y-6881000D01*
X10437000Y-6731000D02*
G75*
G03*
X10437000Y-6731000I-150000J0D01*
G01*
X10381475Y-12296000D02*
X10681475Y-12596000D01*
X10681475Y-12296000D02*
X10381475Y-12596000D01*
X10681475Y-12446000D02*
G75*
G03*
X10681475Y-12446000I-150000J0D01*
G01*
X10454500Y-4930000D02*
X10754500Y-5230000D01*
X10754500Y-4930000D02*
X10454500Y-5230000D01*
X10754500Y-5080000D02*
G75*
G03*
X10754500Y-5080000I-150000J0D01*
G01*
X10613250Y-8486000D02*
X10913250Y-8786000D01*
X10913250Y-8486000D02*
X10613250Y-8786000D01*
X10913250Y-8636000D02*
G75*
G03*
X10913250Y-8636000I-150000J0D01*
G01*
X10930750Y-10645000D02*
X11230750Y-10945000D01*
X11230750Y-10645000D02*
X10930750Y-10945000D01*
X11230750Y-10795000D02*
G75*
G03*
X11230750Y-10795000I-150000J0D01*
G01*
X11089500Y-4676000D02*
X11389500Y-4976000D01*
X11389500Y-4676000D02*
X11089500Y-4976000D01*
X11389500Y-4826000D02*
G75*
G03*
X11389500Y-4826000I-150000J0D01*
G01*
X11407000Y-6835000D02*
X11707000Y-7135000D01*
X11707000Y-6835000D02*
X11407000Y-7135000D01*
X11707000Y-6985000D02*
G75*
G03*
X11707000Y-6985000I-150000J0D01*
G01*
X11565750Y-10391000D02*
X11865750Y-10691000D01*
X11865750Y-10391000D02*
X11565750Y-10691000D01*
X11865750Y-10541000D02*
G75*
G03*
X11865750Y-10541000I-150000J0D01*
G01*
X11883250Y-8740000D02*
X12183250Y-9040000D01*
X12183250Y-8740000D02*
X11883250Y-9040000D01*
X12183250Y-8890000D02*
G75*
G03*
X12183250Y-8890000I-150000J0D01*
G01*
X12042000Y-6581000D02*
X12342000Y-6881000D01*
X12342000Y-6581000D02*
X12042000Y-6881000D01*
X12342000Y-6731000D02*
G75*
G03*
X12342000Y-6731000I-150000J0D01*
G01*
X12127725Y-12550000D02*
X12427725Y-12850000D01*
X12427725Y-12550000D02*
X12127725Y-12850000D01*
X12427725Y-12700000D02*
G75*
G03*
X12427725Y-12700000I-150000J0D01*
G01*
X12359500Y-4930000D02*
X12659500Y-5230000D01*
X12659500Y-4930000D02*
X12359500Y-5230000D01*
X12659500Y-5080000D02*
G75*
G03*
X12659500Y-5080000I-150000J0D01*
G01*
X12518250Y-8486000D02*
X12818250Y-8786000D01*
X12818250Y-8486000D02*
X12518250Y-8786000D01*
X12818250Y-8636000D02*
G75*
G03*
X12818250Y-8636000I-150000J0D01*
G01*
X12762725Y-12296000D02*
X13062725Y-12596000D01*
X13062725Y-12296000D02*
X12762725Y-12596000D01*
X13062725Y-12446000D02*
G75*
G03*
X13062725Y-12446000I-150000J0D01*
G01*
X12835750Y-10645000D02*
X13135750Y-10945000D01*
X13135750Y-10645000D02*
X12835750Y-10945000D01*
X13135750Y-10795000D02*
G75*
G03*
X13135750Y-10795000I-150000J0D01*
G01*
X12994500Y-4676000D02*
X13294500Y-4976000D01*
X13294500Y-4676000D02*
X12994500Y-4976000D01*
X13294500Y-4826000D02*
G75*
G03*
X13294500Y-4826000I-150000J0D01*
G01*
X13312000Y-6835000D02*
X13612000Y-7135000D01*
X13612000Y-6835000D02*
X13312000Y-7135000D01*
X13612000Y-6985000D02*
G75*
G03*
X13612000Y-6985000I-150000J0D01*
G01*
X13470750Y-10391000D02*
X13770750Y-10691000D01*
X13770750Y-10391000D02*
X13470750Y-10691000D01*
X13770750Y-10541000D02*
G75*
G03*
X13770750Y-10541000I-150000J0D01*
G01*
X13788250Y-8740000D02*
X14088250Y-9040000D01*
X14088250Y-8740000D02*
X13788250Y-9040000D01*
X14088250Y-8890000D02*
G75*
G03*
X14088250Y-8890000I-150000J0D01*
G01*
X13947000Y-6581000D02*
X14247000Y-6881000D01*
X14247000Y-6581000D02*
X13947000Y-6881000D01*
X14247000Y-6731000D02*
G75*
G03*
X14247000Y-6731000I-150000J0D01*
G01*
X14264500Y-4930000D02*
X14564500Y-5230000D01*
X14564500Y-4930000D02*
X14264500Y-5230000D01*
X14564500Y-5080000D02*
G75*
G03*
X14564500Y-5080000I-150000J0D01*
G01*
X14423250Y-8486000D02*
X14723250Y-8786000D01*
X14723250Y-8486000D02*
X14423250Y-8786000D01*
X14723250Y-8636000D02*
G75*
G03*
X14723250Y-8636000I-150000J0D01*
G01*
X14740750Y-10645000D02*
X15040750Y-10945000D01*
X15040750Y-10645000D02*
X14740750Y-10945000D01*
X15040750Y-10795000D02*
G75*
G03*
X15040750Y-10795000I-150000J0D01*
G01*
X14899500Y-4676000D02*
X15199500Y-4976000D01*
X15199500Y-4676000D02*
X14899500Y-4976000D01*
X15199500Y-4826000D02*
G75*
G03*
X15199500Y-4826000I-150000J0D01*
G01*
X15217000Y-6835000D02*
X15517000Y-7135000D01*
X15517000Y-6835000D02*
X15217000Y-7135000D01*
X15517000Y-6985000D02*
G75*
G03*
X15517000Y-6985000I-150000J0D01*
G01*
X15375750Y-10391000D02*
X15675750Y-10691000D01*
X15675750Y-10391000D02*
X15375750Y-10691000D01*
X15675750Y-10541000D02*
G75*
G03*
X15675750Y-10541000I-150000J0D01*
G01*
X15455125Y-12550000D02*
X15755125Y-12850000D01*
X15755125Y-12550000D02*
X15455125Y-12850000D01*
X15755125Y-12700000D02*
G75*
G03*
X15755125Y-12700000I-150000J0D01*
G01*
X15693250Y-8740000D02*
X15993250Y-9040000D01*
X15993250Y-8740000D02*
X15693250Y-9040000D01*
X15993250Y-8890000D02*
G75*
G03*
X15993250Y-8890000I-150000J0D01*
G01*
X15852000Y-6581000D02*
X16152000Y-6881000D01*
X16152000Y-6581000D02*
X15852000Y-6881000D01*
X16152000Y-6731000D02*
G75*
G03*
X16152000Y-6731000I-150000J0D01*
G01*
X16090125Y-12296000D02*
X16390125Y-12596000D01*
X16390125Y-12296000D02*
X16090125Y-12596000D01*
X16390125Y-12446000D02*
G75*
G03*
X16390125Y-12446000I-150000J0D01*
G01*
X16169500Y-4930000D02*
X16469500Y-5230000D01*
X16469500Y-4930000D02*
X16169500Y-5230000D01*
X16469500Y-5080000D02*
G75*
G03*
X16469500Y-5080000I-150000J0D01*
G01*
X16328250Y-8486000D02*
X16628250Y-8786000D01*
X16628250Y-8486000D02*
X16328250Y-8786000D01*
X16628250Y-8636000D02*
G75*
G03*
X16628250Y-8636000I-150000J0D01*
G01*
X16645750Y-10645000D02*
X16945750Y-10945000D01*
X16945750Y-10645000D02*
X16645750Y-10945000D01*
X16945750Y-10795000D02*
G75*
G03*
X16945750Y-10795000I-150000J0D01*
G01*
X16804500Y-4676000D02*
X17104500Y-4976000D01*
X17104500Y-4676000D02*
X16804500Y-4976000D01*
X17104500Y-4826000D02*
G75*
G03*
X17104500Y-4826000I-150000J0D01*
G01*
X17280750Y-10391000D02*
X17580750Y-10691000D01*
X17580750Y-10391000D02*
X17280750Y-10691000D01*
X17580750Y-10541000D02*
G75*
G03*
X17580750Y-10541000I-150000J0D01*
G01*
X18763475Y-6835000D02*
X19063475Y-7135000D01*
X19063475Y-6835000D02*
X18763475Y-7135000D01*
X19063475Y-6985000D02*
G75*
G03*
X19063475Y-6985000I-150000J0D01*
G01*
X19239725Y-8740000D02*
X19539725Y-9040000D01*
X19539725Y-8740000D02*
X19239725Y-9040000D01*
X19539725Y-8890000D02*
G75*
G03*
X19539725Y-8890000I-150000J0D01*
G01*
X19398475Y-6581000D02*
X19698475Y-6881000D01*
X19698475Y-6581000D02*
X19398475Y-6881000D01*
X19698475Y-6731000D02*
G75*
G03*
X19698475Y-6731000I-150000J0D01*
G01*
X19715975Y-4930000D02*
X20015975Y-5230000D01*
X20015975Y-4930000D02*
X19715975Y-5230000D01*
X20015975Y-5080000D02*
G75*
G03*
X20015975Y-5080000I-150000J0D01*
G01*
X19874725Y-8486000D02*
X20174725Y-8786000D01*
X20174725Y-8486000D02*
X19874725Y-8786000D01*
X20174725Y-8636000D02*
G75*
G03*
X20174725Y-8636000I-150000J0D01*
G01*
X20192225Y-10645000D02*
X20492225Y-10945000D01*
X20492225Y-10645000D02*
X20192225Y-10945000D01*
X20492225Y-10795000D02*
G75*
G03*
X20492225Y-10795000I-150000J0D01*
G01*
X20350975Y-4676000D02*
X20650975Y-4976000D01*
X20650975Y-4676000D02*
X20350975Y-4976000D01*
X20650975Y-4826000D02*
G75*
G03*
X20650975Y-4826000I-150000J0D01*
G01*
X20668475Y-6835000D02*
X20968475Y-7135000D01*
X20968475Y-6835000D02*
X20668475Y-7135000D01*
X20968475Y-6985000D02*
G75*
G03*
X20968475Y-6985000I-150000J0D01*
G01*
X20827225Y-10391000D02*
X21127225Y-10691000D01*
X21127225Y-10391000D02*
X20827225Y-10691000D01*
X21127225Y-10541000D02*
G75*
G03*
X21127225Y-10541000I-150000J0D01*
G01*
X21144725Y-8740000D02*
X21444725Y-9040000D01*
X21444725Y-8740000D02*
X21144725Y-9040000D01*
X21444725Y-8890000D02*
G75*
G03*
X21444725Y-8890000I-150000J0D01*
G01*
X21303475Y-6581000D02*
X21603475Y-6881000D01*
X21603475Y-6581000D02*
X21303475Y-6881000D01*
X21603475Y-6731000D02*
G75*
G03*
X21603475Y-6731000I-150000J0D01*
G01*
X21620975Y-4930000D02*
X21920975Y-5230000D01*
X21920975Y-4930000D02*
X21620975Y-5230000D01*
X21920975Y-5080000D02*
G75*
G03*
X21920975Y-5080000I-150000J0D01*
G01*
X21779725Y-8486000D02*
X22079725Y-8786000D01*
X22079725Y-8486000D02*
X21779725Y-8786000D01*
X22079725Y-8636000D02*
G75*
G03*
X22079725Y-8636000I-150000J0D01*
G01*
X21859100Y-12550000D02*
X22159100Y-12850000D01*
X22159100Y-12550000D02*
X21859100Y-12850000D01*
X22159100Y-12700000D02*
G75*
G03*
X22159100Y-12700000I-150000J0D01*
G01*
X22097225Y-10645000D02*
X22397225Y-10945000D01*
X22397225Y-10645000D02*
X22097225Y-10945000D01*
X22397225Y-10795000D02*
G75*
G03*
X22397225Y-10795000I-150000J0D01*
G01*
X22255975Y-4676000D02*
X22555975Y-4976000D01*
X22555975Y-4676000D02*
X22255975Y-4976000D01*
X22555975Y-4826000D02*
G75*
G03*
X22555975Y-4826000I-150000J0D01*
G01*
X22494100Y-12296000D02*
X22794100Y-12596000D01*
X22794100Y-12296000D02*
X22494100Y-12596000D01*
X22794100Y-12446000D02*
G75*
G03*
X22794100Y-12446000I-150000J0D01*
G01*
X22573475Y-6835000D02*
X22873475Y-7135000D01*
X22873475Y-6835000D02*
X22573475Y-7135000D01*
X22873475Y-6985000D02*
G75*
G03*
X22873475Y-6985000I-150000J0D01*
G01*
X22732225Y-10391000D02*
X23032225Y-10691000D01*
X23032225Y-10391000D02*
X22732225Y-10691000D01*
X23032225Y-10541000D02*
G75*
G03*
X23032225Y-10541000I-150000J0D01*
G01*
X23049725Y-8740000D02*
X23349725Y-9040000D01*
X23349725Y-8740000D02*
X23049725Y-9040000D01*
X23349725Y-8890000D02*
G75*
G03*
X23349725Y-8890000I-150000J0D01*
G01*
X23208475Y-6581000D02*
X23508475Y-6881000D01*
X23508475Y-6581000D02*
X23208475Y-6881000D01*
X23508475Y-6731000D02*
G75*
G03*
X23508475Y-6731000I-150000J0D01*
G01*
X23525975Y-4930000D02*
X23825975Y-5230000D01*
X23825975Y-4930000D02*
X23525975Y-5230000D01*
X23825975Y-5080000D02*
G75*
G03*
X23825975Y-5080000I-150000J0D01*
G01*
X23684725Y-8486000D02*
X23984725Y-8786000D01*
X23984725Y-8486000D02*
X23684725Y-8786000D01*
X23984725Y-8636000D02*
G75*
G03*
X23984725Y-8636000I-150000J0D01*
G01*
X24002225Y-10645000D02*
X24302225Y-10945000D01*
X24302225Y-10645000D02*
X24002225Y-10945000D01*
X24302225Y-10795000D02*
G75*
G03*
X24302225Y-10795000I-150000J0D01*
G01*
X24160975Y-4676000D02*
X24460975Y-4976000D01*
X24460975Y-4676000D02*
X24160975Y-4976000D01*
X24460975Y-4826000D02*
G75*
G03*
X24460975Y-4826000I-150000J0D01*
G01*
X24478475Y-6835000D02*
X24778475Y-7135000D01*
X24778475Y-6835000D02*
X24478475Y-7135000D01*
X24778475Y-6985000D02*
G75*
G03*
X24778475Y-6985000I-150000J0D01*
G01*
X24637225Y-10391000D02*
X24937225Y-10691000D01*
X24937225Y-10391000D02*
X24637225Y-10691000D01*
X24937225Y-10541000D02*
G75*
G03*
X24937225Y-10541000I-150000J0D01*
G01*
X24954725Y-8740000D02*
X25254725Y-9040000D01*
X25254725Y-8740000D02*
X24954725Y-9040000D01*
X25254725Y-8890000D02*
G75*
G03*
X25254725Y-8890000I-150000J0D01*
G01*
X25113475Y-6581000D02*
X25413475Y-6881000D01*
X25413475Y-6581000D02*
X25113475Y-6881000D01*
X25413475Y-6731000D02*
G75*
G03*
X25413475Y-6731000I-150000J0D01*
G01*
X25430975Y-4930000D02*
X25730975Y-5230000D01*
X25730975Y-4930000D02*
X25430975Y-5230000D01*
X25730975Y-5080000D02*
G75*
G03*
X25730975Y-5080000I-150000J0D01*
G01*
X25589725Y-8486000D02*
X25889725Y-8786000D01*
X25889725Y-8486000D02*
X25589725Y-8786000D01*
X25889725Y-8636000D02*
G75*
G03*
X25889725Y-8636000I-150000J0D01*
G01*
X25669100Y-12550000D02*
X25969100Y-12850000D01*
X25969100Y-12550000D02*
X25669100Y-12850000D01*
X25969100Y-12700000D02*
G75*
G03*
X25969100Y-12700000I-150000J0D01*
G01*
X25907225Y-10645000D02*
X26207225Y-10945000D01*
X26207225Y-10645000D02*
X25907225Y-10945000D01*
X26207225Y-10795000D02*
G75*
G03*
X26207225Y-10795000I-150000J0D01*
G01*
X26065975Y-4676000D02*
X26365975Y-4976000D01*
X26365975Y-4676000D02*
X26065975Y-4976000D01*
X26365975Y-4826000D02*
G75*
G03*
X26365975Y-4826000I-150000J0D01*
G01*
X26304100Y-12296000D02*
X26604100Y-12596000D01*
X26604100Y-12296000D02*
X26304100Y-12596000D01*
X26604100Y-12446000D02*
G75*
G03*
X26604100Y-12446000I-150000J0D01*
G01*
X26383475Y-6835000D02*
X26683475Y-7135000D01*
X26683475Y-6835000D02*
X26383475Y-7135000D01*
X26683475Y-6985000D02*
G75*
G03*
X26683475Y-6985000I-150000J0D01*
G01*
X26542225Y-10391000D02*
X26842225Y-10691000D01*
X26842225Y-10391000D02*
X26542225Y-10691000D01*
X26842225Y-10541000D02*
G75*
G03*
X26842225Y-10541000I-150000J0D01*
G01*
X26859725Y-8740000D02*
X27159725Y-9040000D01*
X27159725Y-8740000D02*
X26859725Y-9040000D01*
X27159725Y-8890000D02*
G75*
G03*
X27159725Y-8890000I-150000J0D01*
G01*
X27018475Y-6581000D02*
X27318475Y-6881000D01*
X27318475Y-6581000D02*
X27018475Y-6881000D01*
X27318475Y-6731000D02*
G75*
G03*
X27318475Y-6731000I-150000J0D01*
G01*
X27335975Y-4930000D02*
X27635975Y-5230000D01*
X27635975Y-4930000D02*
X27335975Y-5230000D01*
X27635975Y-5080000D02*
G75*
G03*
X27635975Y-5080000I-150000J0D01*
G01*
X27494725Y-8486000D02*
X27794725Y-8786000D01*
X27794725Y-8486000D02*
X27494725Y-8786000D01*
X27794725Y-8636000D02*
G75*
G03*
X27794725Y-8636000I-150000J0D01*
G01*
X27812225Y-10645000D02*
X28112225Y-10945000D01*
X28112225Y-10645000D02*
X27812225Y-10945000D01*
X28112225Y-10795000D02*
G75*
G03*
X28112225Y-10795000I-150000J0D01*
G01*
X27970975Y-4676000D02*
X28270975Y-4976000D01*
X28270975Y-4676000D02*
X27970975Y-4976000D01*
X28270975Y-4826000D02*
G75*
G03*
X28270975Y-4826000I-150000J0D01*
G01*
X28050350Y-12550000D02*
X28350350Y-12850000D01*
X28350350Y-12550000D02*
X28050350Y-12850000D01*
X28350350Y-12700000D02*
G75*
G03*
X28350350Y-12700000I-150000J0D01*
G01*
X28288475Y-6835000D02*
X28588475Y-7135000D01*
X28588475Y-6835000D02*
X28288475Y-7135000D01*
X28588475Y-6985000D02*
G75*
G03*
X28588475Y-6985000I-150000J0D01*
G01*
X28447225Y-10391000D02*
X28747225Y-10691000D01*
X28747225Y-10391000D02*
X28447225Y-10691000D01*
X28747225Y-10541000D02*
G75*
G03*
X28747225Y-10541000I-150000J0D01*
G01*
X28685350Y-12296000D02*
X28985350Y-12596000D01*
X28985350Y-12296000D02*
X28685350Y-12596000D01*
X28985350Y-12446000D02*
G75*
G03*
X28985350Y-12446000I-150000J0D01*
G01*
X28764725Y-8740000D02*
X29064725Y-9040000D01*
X29064725Y-8740000D02*
X28764725Y-9040000D01*
X29064725Y-8890000D02*
G75*
G03*
X29064725Y-8890000I-150000J0D01*
G01*
X28923475Y-6581000D02*
X29223475Y-6881000D01*
X29223475Y-6581000D02*
X28923475Y-6881000D01*
X29223475Y-6731000D02*
G75*
G03*
X29223475Y-6731000I-150000J0D01*
G01*
X29240975Y-4930000D02*
X29540975Y-5230000D01*
X29540975Y-4930000D02*
X29240975Y-5230000D01*
X29540975Y-5080000D02*
G75*
G03*
X29540975Y-5080000I-150000J0D01*
G01*
X29399725Y-8486000D02*
X29699725Y-8786000D01*
X29699725Y-8486000D02*
X29399725Y-8786000D01*
X29699725Y-8636000D02*
G75*
G03*
X29699725Y-8636000I-150000J0D01*
G01*
X29875975Y-4676000D02*
X30175975Y-4976000D01*
X30175975Y-4676000D02*
X29875975Y-4976000D01*
X30175975Y-4826000D02*
G75*
G03*
X30175975Y-4826000I-150000J0D01*
G01*
X30193475Y-6835000D02*
X30493475Y-7135000D01*
X30493475Y-6835000D02*
X30193475Y-7135000D01*
X30493475Y-6985000D02*
G75*
G03*
X30493475Y-6985000I-150000J0D01*
G01*
X30431600Y-12550000D02*
X30731600Y-12850000D01*
X30731600Y-12550000D02*
X30431600Y-12850000D01*
X30731600Y-12700000D02*
G75*
G03*
X30731600Y-12700000I-150000J0D01*
G01*
X30828475Y-6581000D02*
X31128475Y-6881000D01*
X31128475Y-6581000D02*
X30828475Y-6881000D01*
X31128475Y-6731000D02*
G75*
G03*
X31128475Y-6731000I-150000J0D01*
G01*
X31066600Y-12296000D02*
X31366600Y-12596000D01*
X31366600Y-12296000D02*
X31066600Y-12596000D01*
X31366600Y-12446000D02*
G75*
G03*
X31366600Y-12446000I-150000J0D01*
G01*
X31384100Y-10645000D02*
X31684100Y-10945000D01*
X31684100Y-10645000D02*
X31384100Y-10945000D01*
X31684100Y-10795000D02*
G75*
G03*
X31684100Y-10795000I-150000J0D01*
G01*
X31860350Y-8740000D02*
X32160350Y-9040000D01*
X32160350Y-8740000D02*
X31860350Y-9040000D01*
X32160350Y-8890000D02*
G75*
G03*
X32160350Y-8890000I-150000J0D01*
G01*
X32019100Y-10391000D02*
X32319100Y-10691000D01*
X32319100Y-10391000D02*
X32019100Y-10691000D01*
X32319100Y-10541000D02*
G75*
G03*
X32319100Y-10541000I-150000J0D01*
G01*
X32098475Y-4930000D02*
X32398475Y-5230000D01*
X32398475Y-4930000D02*
X32098475Y-5230000D01*
X32398475Y-5080000D02*
G75*
G03*
X32398475Y-5080000I-150000J0D01*
G01*
X32495350Y-8486000D02*
X32795350Y-8786000D01*
X32795350Y-8486000D02*
X32495350Y-8786000D01*
X32795350Y-8636000D02*
G75*
G03*
X32795350Y-8636000I-150000J0D01*
G01*
X32574725Y-6835000D02*
X32874725Y-7135000D01*
X32874725Y-6835000D02*
X32574725Y-7135000D01*
X32874725Y-6985000D02*
G75*
G03*
X32874725Y-6985000I-150000J0D01*
G01*
X32733475Y-4676000D02*
X33033475Y-4976000D01*
X33033475Y-4676000D02*
X32733475Y-4976000D01*
X33033475Y-4826000D02*
G75*
G03*
X33033475Y-4826000I-150000J0D01*
G01*
X32812850Y-12550000D02*
X33112850Y-12850000D01*
X33112850Y-12550000D02*
X32812850Y-12850000D01*
X33112850Y-12700000D02*
G75*
G03*
X33112850Y-12700000I-150000J0D01*
G01*
X33209725Y-6581000D02*
X33509725Y-6881000D01*
X33509725Y-6581000D02*
X33209725Y-6881000D01*
X33509725Y-6731000D02*
G75*
G03*
X33509725Y-6731000I-150000J0D01*
G01*
X33447850Y-12296000D02*
X33747850Y-12596000D01*
X33747850Y-12296000D02*
X33447850Y-12596000D01*
X33747850Y-12446000D02*
G75*
G03*
X33747850Y-12446000I-150000J0D01*
G01*
X35432150Y-4930000D02*
X35732150Y-5230000D01*
X35732150Y-4930000D02*
X35432150Y-5230000D01*
X35732150Y-5080000D02*
G75*
G03*
X35732150Y-5080000I-150000J0D01*
G01*
X35432150Y-6835000D02*
X35732150Y-7135000D01*
X35732150Y-6835000D02*
X35432150Y-7135000D01*
X35732150Y-6985000D02*
G75*
G03*
X35732150Y-6985000I-150000J0D01*
G01*
X35432150Y-12550000D02*
X35732150Y-12850000D01*
X35732150Y-12550000D02*
X35432150Y-12850000D01*
X35732150Y-12700000D02*
G75*
G03*
X35732150Y-12700000I-150000J0D01*
G01*
X36067150Y-4676000D02*
X36367150Y-4976000D01*
X36367150Y-4676000D02*
X36067150Y-4976000D01*
X36367150Y-4826000D02*
G75*
G03*
X36367150Y-4826000I-150000J0D01*
G01*
X36067150Y-6581000D02*
X36367150Y-6881000D01*
X36367150Y-6581000D02*
X36067150Y-6881000D01*
X36367150Y-6731000D02*
G75*
G03*
X36367150Y-6731000I-150000J0D01*
G01*
X36067150Y-12296000D02*
X36367150Y-12596000D01*
X36367150Y-12296000D02*
X36067150Y-12596000D01*
X36367150Y-12446000D02*
G75*
G03*
X36367150Y-12446000I-150000J0D01*
G01*
X37334050Y-10645000D02*
X37634050Y-10945000D01*
X37634050Y-10645000D02*
X37334050Y-10945000D01*
X37634050Y-10795000D02*
G75*
G03*
X37634050Y-10795000I-150000J0D01*
G01*
X37334050Y-12550000D02*
X37634050Y-12850000D01*
X37634050Y-12550000D02*
X37334050Y-12850000D01*
X37634050Y-12700000D02*
G75*
G03*
X37634050Y-12700000I-150000J0D01*
G01*
X37340400Y-4930000D02*
X37640400Y-5230000D01*
X37640400Y-4930000D02*
X37340400Y-5230000D01*
X37640400Y-5080000D02*
G75*
G03*
X37640400Y-5080000I-150000J0D01*
G01*
X37340400Y-6835000D02*
X37640400Y-7135000D01*
X37640400Y-6835000D02*
X37340400Y-7135000D01*
X37640400Y-6985000D02*
G75*
G03*
X37640400Y-6985000I-150000J0D01*
G01*
X37969050Y-10391000D02*
X38269050Y-10691000D01*
X38269050Y-10391000D02*
X37969050Y-10691000D01*
X38269050Y-10541000D02*
G75*
G03*
X38269050Y-10541000I-150000J0D01*
G01*
X37969050Y-12296000D02*
X38269050Y-12596000D01*
X38269050Y-12296000D02*
X37969050Y-12596000D01*
X38269050Y-12446000D02*
G75*
G03*
X38269050Y-12446000I-150000J0D01*
G01*
X37975400Y-4676000D02*
X38275400Y-4976000D01*
X38275400Y-4676000D02*
X37975400Y-4976000D01*
X38275400Y-4826000D02*
G75*
G03*
X38275400Y-4826000I-150000J0D01*
G01*
X37975400Y-6581000D02*
X38275400Y-6881000D01*
X38275400Y-6581000D02*
X37975400Y-6881000D01*
X38275400Y-6731000D02*
G75*
G03*
X38275400Y-6731000I-150000J0D01*
G01*
X39239050Y-12550000D02*
X39539050Y-12850000D01*
X39539050Y-12550000D02*
X39239050Y-12850000D01*
X39539050Y-12700000D02*
G75*
G03*
X39539050Y-12700000I-150000J0D01*
G01*
X39245400Y-4930000D02*
X39545400Y-5230000D01*
X39545400Y-4930000D02*
X39245400Y-5230000D01*
X39545400Y-5080000D02*
G75*
G03*
X39545400Y-5080000I-150000J0D01*
G01*
X39245400Y-6835000D02*
X39545400Y-7135000D01*
X39545400Y-6835000D02*
X39245400Y-7135000D01*
X39545400Y-6985000D02*
G75*
G03*
X39545400Y-6985000I-150000J0D01*
G01*
X39874050Y-12296000D02*
X40174050Y-12596000D01*
X40174050Y-12296000D02*
X39874050Y-12596000D01*
X40174050Y-12446000D02*
G75*
G03*
X40174050Y-12446000I-150000J0D01*
G01*
X39880400Y-4676000D02*
X40180400Y-4976000D01*
X40180400Y-4676000D02*
X39880400Y-4976000D01*
X40180400Y-4826000D02*
G75*
G03*
X40180400Y-4826000I-150000J0D01*
G01*
X39880400Y-6581000D02*
X40180400Y-6881000D01*
X40180400Y-6581000D02*
X39880400Y-6881000D01*
X40180400Y-6731000D02*
G75*
G03*
X40180400Y-6731000I-150000J0D01*
G01*
X4987925Y-10833100D02*
X5292725Y-11137900D01*
X5292725Y-10833100D02*
X4987925Y-11137900D01*
X5140325Y-10833100D02*
X5140325Y-11137900D01*
X4987925Y-10985500D02*
X5292725Y-10985500D01*
X7375525Y-10833100D02*
X7680325Y-11137900D01*
X7680325Y-10833100D02*
X7375525Y-11137900D01*
X7527925Y-10833100D02*
X7527925Y-11137900D01*
X7375525Y-10985500D02*
X7680325Y-10985500D01*
X14512925Y-12738100D02*
X14817725Y-13042900D01*
X14817725Y-12738100D02*
X14512925Y-13042900D01*
X14665325Y-12738100D02*
X14665325Y-13042900D01*
X14512925Y-12890500D02*
X14817725Y-12890500D01*
X14512925Y-12738100D02*
X14817725Y-13042900D01*
X14817725Y-12738100D02*
X14512925Y-13042900D01*
X14665325Y-12738100D02*
X14665325Y-13042900D01*
X14512925Y-12890500D02*
X14817725Y-12890500D01*
X16900525Y-12738100D02*
X17205325Y-13042900D01*
X17205325Y-12738100D02*
X16900525Y-13042900D01*
X17052925Y-12738100D02*
X17052925Y-13042900D01*
X16900525Y-12890500D02*
X17205325Y-12890500D01*
X16900525Y-12738100D02*
X17205325Y-13042900D01*
X17205325Y-12738100D02*
X16900525Y-13042900D01*
X17052925Y-12738100D02*
X17052925Y-13042900D01*
X16900525Y-12890500D02*
X17205325Y-12890500D01*
X20916900Y-12738100D02*
X21221700Y-13042900D01*
X21221700Y-12738100D02*
X20916900Y-13042900D01*
X21069300Y-12738100D02*
X21069300Y-13042900D01*
X20916900Y-12890500D02*
X21221700Y-12890500D01*
X23304500Y-12738100D02*
X23609300Y-13042900D01*
X23609300Y-12738100D02*
X23304500Y-13042900D01*
X23456900Y-12738100D02*
X23456900Y-13042900D01*
X23304500Y-12890500D02*
X23609300Y-12890500D01*
X30441900Y-9436100D02*
X30746700Y-9740900D01*
X30746700Y-9436100D02*
X30441900Y-9740900D01*
X30594300Y-9436100D02*
X30594300Y-9740900D01*
X30441900Y-9588500D02*
X30746700Y-9588500D01*
X30918150Y-8928100D02*
X31222950Y-9232900D01*
X31222950Y-8928100D02*
X30918150Y-9232900D01*
X31070550Y-8928100D02*
X31070550Y-9232900D01*
X30918150Y-9080500D02*
X31222950Y-9080500D01*
X31156275Y-3721100D02*
X31461075Y-4025900D01*
X31461075Y-3721100D02*
X31156275Y-4025900D01*
X31308675Y-3721100D02*
X31308675Y-4025900D01*
X31156275Y-3873500D02*
X31461075Y-3873500D01*
X32829500Y-9436100D02*
X33134300Y-9740900D01*
X33134300Y-9436100D02*
X32829500Y-9740900D01*
X32981900Y-9436100D02*
X32981900Y-9740900D01*
X32829500Y-9588500D02*
X33134300Y-9588500D01*
X33305750Y-8928100D02*
X33610550Y-9232900D01*
X33610550Y-8928100D02*
X33305750Y-9232900D01*
X33458150Y-8928100D02*
X33458150Y-9232900D01*
X33305750Y-9080500D02*
X33610550Y-9080500D01*
X33543875Y-3721100D02*
X33848675Y-4025900D01*
X33848675Y-3721100D02*
X33543875Y-4025900D01*
X33696275Y-3721100D02*
X33696275Y-4025900D01*
X33543875Y-3873500D02*
X33848675Y-3873500D01*
X4940935Y-9262110D02*
X5339715Y-9660890D01*
X5339715Y-9262110D02*
X4940935Y-9660890D01*
X5281316Y-9602491D02*
X5281316Y-9320509D01*
X4999334Y-9320509D01*
X4999334Y-9602491D01*
X5281316Y-9602491D01*
X5182235Y-11992610D02*
X5581015Y-12391390D01*
X5581015Y-11992610D02*
X5182235Y-12391390D01*
X5522616Y-12332991D02*
X5522616Y-12051009D01*
X5240634Y-12051009D01*
X5240634Y-12332991D01*
X5522616Y-12332991D01*
X5658485Y-8182610D02*
X6057265Y-8581390D01*
X6057265Y-8182610D02*
X5658485Y-8581390D01*
X5998866Y-8522991D02*
X5998866Y-8241009D01*
X5716884Y-8241009D01*
X5716884Y-8522991D01*
X5998866Y-8522991D01*
X6134735Y-10087610D02*
X6533515Y-10486390D01*
X6533515Y-10087610D02*
X6134735Y-10486390D01*
X6475116Y-10427991D02*
X6475116Y-10146009D01*
X6193134Y-10146009D01*
X6193134Y-10427991D01*
X6475116Y-10427991D01*
X7328535Y-9262110D02*
X7727315Y-9660890D01*
X7727315Y-9262110D02*
X7328535Y-9660890D01*
X7668916Y-9602491D02*
X7668916Y-9320509D01*
X7386934Y-9320509D01*
X7386934Y-9602491D01*
X7668916Y-9602491D01*
X7563485Y-11992610D02*
X7962265Y-12391390D01*
X7962265Y-11992610D02*
X7563485Y-12391390D01*
X7903866Y-12332991D02*
X7903866Y-12051009D01*
X7621884Y-12051009D01*
X7621884Y-12332991D01*
X7903866Y-12332991D01*
X9951085Y-11992610D02*
X10349865Y-12391390D01*
X10349865Y-11992610D02*
X9951085Y-12391390D01*
X10291466Y-12332991D02*
X10291466Y-12051009D01*
X10009484Y-12051009D01*
X10009484Y-12332991D01*
X10291466Y-12332991D01*
X12332335Y-11992610D02*
X12731115Y-12391390D01*
X12731115Y-11992610D02*
X12332335Y-12391390D01*
X12672716Y-12332991D02*
X12672716Y-12051009D01*
X12390734Y-12051009D01*
X12390734Y-12332991D01*
X12672716Y-12332991D01*
X14465935Y-11167110D02*
X14864715Y-11565890D01*
X14864715Y-11167110D02*
X14465935Y-11565890D01*
X14806316Y-11507491D02*
X14806316Y-11225509D01*
X14524334Y-11225509D01*
X14524334Y-11507491D01*
X14806316Y-11507491D01*
X14465935Y-11167110D02*
X14864715Y-11565890D01*
X14864715Y-11167110D02*
X14465935Y-11565890D01*
X14806316Y-11507491D02*
X14806316Y-11225509D01*
X14524334Y-11225509D01*
X14524334Y-11507491D01*
X14806316Y-11507491D01*
X15659735Y-11992610D02*
X16058515Y-12391390D01*
X16058515Y-11992610D02*
X15659735Y-12391390D01*
X16000116Y-12332991D02*
X16000116Y-12051009D01*
X15718134Y-12051009D01*
X15718134Y-12332991D01*
X16000116Y-12332991D01*
X15659735Y-11992610D02*
X16058515Y-12391390D01*
X16058515Y-11992610D02*
X15659735Y-12391390D01*
X16000116Y-12332991D02*
X16000116Y-12051009D01*
X15718134Y-12051009D01*
X15718134Y-12332991D01*
X16000116Y-12332991D01*
X16853535Y-11167110D02*
X17252315Y-11565890D01*
X17252315Y-11167110D02*
X16853535Y-11565890D01*
X17193916Y-11507491D02*
X17193916Y-11225509D01*
X16911934Y-11225509D01*
X16911934Y-11507491D01*
X17193916Y-11507491D01*
X16853535Y-11167110D02*
X17252315Y-11565890D01*
X17252315Y-11167110D02*
X16853535Y-11565890D01*
X17193916Y-11507491D02*
X17193916Y-11225509D01*
X16911934Y-11225509D01*
X16911934Y-11507491D01*
X17193916Y-11507491D01*
X20869910Y-11167110D02*
X21268690Y-11565890D01*
X21268690Y-11167110D02*
X20869910Y-11565890D01*
X21210291Y-11507491D02*
X21210291Y-11225509D01*
X20928309Y-11225509D01*
X20928309Y-11507491D01*
X21210291Y-11507491D01*
X22063710Y-11992610D02*
X22462490Y-12391390D01*
X22462490Y-11992610D02*
X22063710Y-12391390D01*
X22404091Y-12332991D02*
X22404091Y-12051009D01*
X22122109Y-12051009D01*
X22122109Y-12332991D01*
X22404091Y-12332991D01*
X22063710Y-11992610D02*
X22462490Y-12391390D01*
X22462490Y-11992610D02*
X22063710Y-12391390D01*
X22404091Y-12332991D02*
X22404091Y-12051009D01*
X22122109Y-12051009D01*
X22122109Y-12332991D01*
X22404091Y-12332991D01*
X23257510Y-11167110D02*
X23656290Y-11565890D01*
X23656290Y-11167110D02*
X23257510Y-11565890D01*
X23597891Y-11507491D02*
X23597891Y-11225509D01*
X23315909Y-11225509D01*
X23315909Y-11507491D01*
X23597891Y-11507491D01*
X25873710Y-11992610D02*
X26272490Y-12391390D01*
X26272490Y-11992610D02*
X25873710Y-12391390D01*
X26214091Y-12332991D02*
X26214091Y-12051009D01*
X25932109Y-12051009D01*
X25932109Y-12332991D01*
X26214091Y-12332991D01*
X28254960Y-11992610D02*
X28653740Y-12391390D01*
X28653740Y-11992610D02*
X28254960Y-12391390D01*
X28595341Y-12332991D02*
X28595341Y-12051009D01*
X28313359Y-12051009D01*
X28313359Y-12332991D01*
X28595341Y-12332991D01*
X30394910Y-10913110D02*
X30793690Y-11311890D01*
X30793690Y-10913110D02*
X30394910Y-11311890D01*
X30735291Y-11253491D02*
X30735291Y-10971509D01*
X30453309Y-10971509D01*
X30453309Y-11253491D01*
X30735291Y-11253491D01*
X30636210Y-11992610D02*
X31034990Y-12391390D01*
X31034990Y-11992610D02*
X30636210Y-12391390D01*
X30976591Y-12332991D02*
X30976591Y-12051009D01*
X30694609Y-12051009D01*
X30694609Y-12332991D01*
X30976591Y-12332991D01*
X30871160Y-7357110D02*
X31269940Y-7755890D01*
X31269940Y-7357110D02*
X30871160Y-7755890D01*
X31211541Y-7697491D02*
X31211541Y-7415509D01*
X30929559Y-7415509D01*
X30929559Y-7697491D01*
X31211541Y-7697491D01*
X31109285Y-5198110D02*
X31508065Y-5596890D01*
X31508065Y-5198110D02*
X31109285Y-5596890D01*
X31449666Y-5538491D02*
X31449666Y-5256509D01*
X31167684Y-5256509D01*
X31167684Y-5538491D01*
X31449666Y-5538491D01*
X31588710Y-10087610D02*
X31987490Y-10486390D01*
X31987490Y-10087610D02*
X31588710Y-10486390D01*
X31929091Y-10427991D02*
X31929091Y-10146009D01*
X31647109Y-10146009D01*
X31647109Y-10427991D01*
X31929091Y-10427991D01*
X32064960Y-8182610D02*
X32463740Y-8581390D01*
X32463740Y-8182610D02*
X32064960Y-8581390D01*
X32405341Y-8522991D02*
X32405341Y-8241009D01*
X32123359Y-8241009D01*
X32123359Y-8522991D01*
X32405341Y-8522991D01*
X32303085Y-4372610D02*
X32701865Y-4771390D01*
X32701865Y-4372610D02*
X32303085Y-4771390D01*
X32643466Y-4712991D02*
X32643466Y-4431009D01*
X32361484Y-4431009D01*
X32361484Y-4712991D01*
X32643466Y-4712991D01*
X32782510Y-10913110D02*
X33181290Y-11311890D01*
X33181290Y-10913110D02*
X32782510Y-11311890D01*
X33122891Y-11253491D02*
X33122891Y-10971509D01*
X32840909Y-10971509D01*
X32840909Y-11253491D01*
X33122891Y-11253491D01*
X33017460Y-11992610D02*
X33416240Y-12391390D01*
X33416240Y-11992610D02*
X33017460Y-12391390D01*
X33357841Y-12332991D02*
X33357841Y-12051009D01*
X33075859Y-12051009D01*
X33075859Y-12332991D01*
X33357841Y-12332991D01*
X33258760Y-7357110D02*
X33657540Y-7755890D01*
X33657540Y-7357110D02*
X33258760Y-7755890D01*
X33599141Y-7697491D02*
X33599141Y-7415509D01*
X33317159Y-7415509D01*
X33317159Y-7697491D01*
X33599141Y-7697491D01*
X33496885Y-5198110D02*
X33895665Y-5596890D01*
X33895665Y-5198110D02*
X33496885Y-5596890D01*
X33837266Y-5538491D02*
X33837266Y-5256509D01*
X33555284Y-5256509D01*
X33555284Y-5538491D01*
X33837266Y-5538491D01*
X4938500Y-4367000D02*
X5348500Y-4777000D01*
X5348500Y-4367000D02*
X4938500Y-4777000D01*
X5143500Y-4777000D02*
X5348500Y-4572000D01*
X5143500Y-4367000D01*
X4938500Y-4572000D01*
X5143500Y-4777000D01*
X5176625Y-11987000D02*
X5586625Y-12397000D01*
X5586625Y-11987000D02*
X5176625Y-12397000D01*
X5381625Y-12397000D02*
X5586625Y-12192000D01*
X5381625Y-11987000D01*
X5176625Y-12192000D01*
X5381625Y-12397000D01*
X5414750Y-6272000D02*
X5824750Y-6682000D01*
X5824750Y-6272000D02*
X5414750Y-6682000D01*
X5619750Y-6682000D02*
X5824750Y-6477000D01*
X5619750Y-6272000D01*
X5414750Y-6477000D01*
X5619750Y-6682000D01*
X5652875Y-8177000D02*
X6062875Y-8587000D01*
X6062875Y-8177000D02*
X5652875Y-8587000D01*
X5857875Y-8587000D02*
X6062875Y-8382000D01*
X5857875Y-8177000D01*
X5652875Y-8382000D01*
X5857875Y-8587000D01*
X6129125Y-10082000D02*
X6539125Y-10492000D01*
X6539125Y-10082000D02*
X6129125Y-10492000D01*
X6334125Y-10492000D02*
X6539125Y-10287000D01*
X6334125Y-10082000D01*
X6129125Y-10287000D01*
X6334125Y-10492000D01*
X6843500Y-4367000D02*
X7253500Y-4777000D01*
X7253500Y-4367000D02*
X6843500Y-4777000D01*
X7048500Y-4777000D02*
X7253500Y-4572000D01*
X7048500Y-4367000D01*
X6843500Y-4572000D01*
X7048500Y-4777000D01*
X7557875Y-11987000D02*
X7967875Y-12397000D01*
X7967875Y-11987000D02*
X7557875Y-12397000D01*
X7762875Y-12397000D02*
X7967875Y-12192000D01*
X7762875Y-11987000D01*
X7557875Y-12192000D01*
X7762875Y-12397000D01*
X7796000Y-6272000D02*
X8206000Y-6682000D01*
X8206000Y-6272000D02*
X7796000Y-6682000D01*
X8001000Y-6682000D02*
X8206000Y-6477000D01*
X8001000Y-6272000D01*
X7796000Y-6477000D01*
X8001000Y-6682000D01*
X8272250Y-8177000D02*
X8682250Y-8587000D01*
X8682250Y-8177000D02*
X8272250Y-8587000D01*
X8477250Y-8587000D02*
X8682250Y-8382000D01*
X8477250Y-8177000D01*
X8272250Y-8382000D01*
X8477250Y-8587000D01*
X8748500Y-4367000D02*
X9158500Y-4777000D01*
X9158500Y-4367000D02*
X8748500Y-4777000D01*
X8953500Y-4777000D02*
X9158500Y-4572000D01*
X8953500Y-4367000D01*
X8748500Y-4572000D01*
X8953500Y-4777000D01*
X9224750Y-10082000D02*
X9634750Y-10492000D01*
X9634750Y-10082000D02*
X9224750Y-10492000D01*
X9429750Y-10492000D02*
X9634750Y-10287000D01*
X9429750Y-10082000D01*
X9224750Y-10287000D01*
X9429750Y-10492000D01*
X9701000Y-6272000D02*
X10111000Y-6682000D01*
X10111000Y-6272000D02*
X9701000Y-6682000D01*
X9906000Y-6682000D02*
X10111000Y-6477000D01*
X9906000Y-6272000D01*
X9701000Y-6477000D01*
X9906000Y-6682000D01*
X9945475Y-11987000D02*
X10355475Y-12397000D01*
X10355475Y-11987000D02*
X9945475Y-12397000D01*
X10150475Y-12397000D02*
X10355475Y-12192000D01*
X10150475Y-11987000D01*
X9945475Y-12192000D01*
X10150475Y-12397000D01*
X10177250Y-8177000D02*
X10587250Y-8587000D01*
X10587250Y-8177000D02*
X10177250Y-8587000D01*
X10382250Y-8587000D02*
X10587250Y-8382000D01*
X10382250Y-8177000D01*
X10177250Y-8382000D01*
X10382250Y-8587000D01*
X10653500Y-4367000D02*
X11063500Y-4777000D01*
X11063500Y-4367000D02*
X10653500Y-4777000D01*
X10858500Y-4777000D02*
X11063500Y-4572000D01*
X10858500Y-4367000D01*
X10653500Y-4572000D01*
X10858500Y-4777000D01*
X11129750Y-10082000D02*
X11539750Y-10492000D01*
X11539750Y-10082000D02*
X11129750Y-10492000D01*
X11334750Y-10492000D02*
X11539750Y-10287000D01*
X11334750Y-10082000D01*
X11129750Y-10287000D01*
X11334750Y-10492000D01*
X11606000Y-6272000D02*
X12016000Y-6682000D01*
X12016000Y-6272000D02*
X11606000Y-6682000D01*
X11811000Y-6682000D02*
X12016000Y-6477000D01*
X11811000Y-6272000D01*
X11606000Y-6477000D01*
X11811000Y-6682000D01*
X12082250Y-8177000D02*
X12492250Y-8587000D01*
X12492250Y-8177000D02*
X12082250Y-8587000D01*
X12287250Y-8587000D02*
X12492250Y-8382000D01*
X12287250Y-8177000D01*
X12082250Y-8382000D01*
X12287250Y-8587000D01*
X12326725Y-11987000D02*
X12736725Y-12397000D01*
X12736725Y-11987000D02*
X12326725Y-12397000D01*
X12531725Y-12397000D02*
X12736725Y-12192000D01*
X12531725Y-11987000D01*
X12326725Y-12192000D01*
X12531725Y-12397000D01*
X12558500Y-4367000D02*
X12968500Y-4777000D01*
X12968500Y-4367000D02*
X12558500Y-4777000D01*
X12763500Y-4777000D02*
X12968500Y-4572000D01*
X12763500Y-4367000D01*
X12558500Y-4572000D01*
X12763500Y-4777000D01*
X13034750Y-10082000D02*
X13444750Y-10492000D01*
X13444750Y-10082000D02*
X13034750Y-10492000D01*
X13239750Y-10492000D02*
X13444750Y-10287000D01*
X13239750Y-10082000D01*
X13034750Y-10287000D01*
X13239750Y-10492000D01*
X13511000Y-6272000D02*
X13921000Y-6682000D01*
X13921000Y-6272000D02*
X13511000Y-6682000D01*
X13716000Y-6682000D02*
X13921000Y-6477000D01*
X13716000Y-6272000D01*
X13511000Y-6477000D01*
X13716000Y-6682000D01*
X13987250Y-8177000D02*
X14397250Y-8587000D01*
X14397250Y-8177000D02*
X13987250Y-8587000D01*
X14192250Y-8587000D02*
X14397250Y-8382000D01*
X14192250Y-8177000D01*
X13987250Y-8382000D01*
X14192250Y-8587000D01*
X14463500Y-4367000D02*
X14873500Y-4777000D01*
X14873500Y-4367000D02*
X14463500Y-4777000D01*
X14668500Y-4777000D02*
X14873500Y-4572000D01*
X14668500Y-4367000D01*
X14463500Y-4572000D01*
X14668500Y-4777000D01*
X14939750Y-10082000D02*
X15349750Y-10492000D01*
X15349750Y-10082000D02*
X14939750Y-10492000D01*
X15144750Y-10492000D02*
X15349750Y-10287000D01*
X15144750Y-10082000D01*
X14939750Y-10287000D01*
X15144750Y-10492000D01*
X15416000Y-6272000D02*
X15826000Y-6682000D01*
X15826000Y-6272000D02*
X15416000Y-6682000D01*
X15621000Y-6682000D02*
X15826000Y-6477000D01*
X15621000Y-6272000D01*
X15416000Y-6477000D01*
X15621000Y-6682000D01*
X15654125Y-11987000D02*
X16064125Y-12397000D01*
X16064125Y-11987000D02*
X15654125Y-12397000D01*
X15859125Y-12397000D02*
X16064125Y-12192000D01*
X15859125Y-11987000D01*
X15654125Y-12192000D01*
X15859125Y-12397000D01*
X15892250Y-8177000D02*
X16302250Y-8587000D01*
X16302250Y-8177000D02*
X15892250Y-8587000D01*
X16097250Y-8587000D02*
X16302250Y-8382000D01*
X16097250Y-8177000D01*
X15892250Y-8382000D01*
X16097250Y-8587000D01*
X16368500Y-4367000D02*
X16778500Y-4777000D01*
X16778500Y-4367000D02*
X16368500Y-4777000D01*
X16573500Y-4777000D02*
X16778500Y-4572000D01*
X16573500Y-4367000D01*
X16368500Y-4572000D01*
X16573500Y-4777000D01*
X16844750Y-10082000D02*
X17254750Y-10492000D01*
X17254750Y-10082000D02*
X16844750Y-10492000D01*
X17049750Y-10492000D02*
X17254750Y-10287000D01*
X17049750Y-10082000D01*
X16844750Y-10287000D01*
X17049750Y-10492000D01*
X18962475Y-6272000D02*
X19372475Y-6682000D01*
X19372475Y-6272000D02*
X18962475Y-6682000D01*
X19167475Y-6682000D02*
X19372475Y-6477000D01*
X19167475Y-6272000D01*
X18962475Y-6477000D01*
X19167475Y-6682000D01*
X19438725Y-8177000D02*
X19848725Y-8587000D01*
X19848725Y-8177000D02*
X19438725Y-8587000D01*
X19643725Y-8587000D02*
X19848725Y-8382000D01*
X19643725Y-8177000D01*
X19438725Y-8382000D01*
X19643725Y-8587000D01*
X19914975Y-4367000D02*
X20324975Y-4777000D01*
X20324975Y-4367000D02*
X19914975Y-4777000D01*
X20119975Y-4777000D02*
X20324975Y-4572000D01*
X20119975Y-4367000D01*
X19914975Y-4572000D01*
X20119975Y-4777000D01*
X20391225Y-10082000D02*
X20801225Y-10492000D01*
X20801225Y-10082000D02*
X20391225Y-10492000D01*
X20596225Y-10492000D02*
X20801225Y-10287000D01*
X20596225Y-10082000D01*
X20391225Y-10287000D01*
X20596225Y-10492000D01*
X20867475Y-6272000D02*
X21277475Y-6682000D01*
X21277475Y-6272000D02*
X20867475Y-6682000D01*
X21072475Y-6682000D02*
X21277475Y-6477000D01*
X21072475Y-6272000D01*
X20867475Y-6477000D01*
X21072475Y-6682000D01*
X21343725Y-8177000D02*
X21753725Y-8587000D01*
X21753725Y-8177000D02*
X21343725Y-8587000D01*
X21548725Y-8587000D02*
X21753725Y-8382000D01*
X21548725Y-8177000D01*
X21343725Y-8382000D01*
X21548725Y-8587000D01*
X21819975Y-4367000D02*
X22229975Y-4777000D01*
X22229975Y-4367000D02*
X21819975Y-4777000D01*
X22024975Y-4777000D02*
X22229975Y-4572000D01*
X22024975Y-4367000D01*
X21819975Y-4572000D01*
X22024975Y-4777000D01*
X22058100Y-11987000D02*
X22468100Y-12397000D01*
X22468100Y-11987000D02*
X22058100Y-12397000D01*
X22263100Y-12397000D02*
X22468100Y-12192000D01*
X22263100Y-11987000D01*
X22058100Y-12192000D01*
X22263100Y-12397000D01*
X22296225Y-10082000D02*
X22706225Y-10492000D01*
X22706225Y-10082000D02*
X22296225Y-10492000D01*
X22501225Y-10492000D02*
X22706225Y-10287000D01*
X22501225Y-10082000D01*
X22296225Y-10287000D01*
X22501225Y-10492000D01*
X22772475Y-6272000D02*
X23182475Y-6682000D01*
X23182475Y-6272000D02*
X22772475Y-6682000D01*
X22977475Y-6682000D02*
X23182475Y-6477000D01*
X22977475Y-6272000D01*
X22772475Y-6477000D01*
X22977475Y-6682000D01*
X23248725Y-8177000D02*
X23658725Y-8587000D01*
X23658725Y-8177000D02*
X23248725Y-8587000D01*
X23453725Y-8587000D02*
X23658725Y-8382000D01*
X23453725Y-8177000D01*
X23248725Y-8382000D01*
X23453725Y-8587000D01*
X23724975Y-4367000D02*
X24134975Y-4777000D01*
X24134975Y-4367000D02*
X23724975Y-4777000D01*
X23929975Y-4777000D02*
X24134975Y-4572000D01*
X23929975Y-4367000D01*
X23724975Y-4572000D01*
X23929975Y-4777000D01*
X24201225Y-10082000D02*
X24611225Y-10492000D01*
X24611225Y-10082000D02*
X24201225Y-10492000D01*
X24406225Y-10492000D02*
X24611225Y-10287000D01*
X24406225Y-10082000D01*
X24201225Y-10287000D01*
X24406225Y-10492000D01*
X24677475Y-6272000D02*
X25087475Y-6682000D01*
X25087475Y-6272000D02*
X24677475Y-6682000D01*
X24882475Y-6682000D02*
X25087475Y-6477000D01*
X24882475Y-6272000D01*
X24677475Y-6477000D01*
X24882475Y-6682000D01*
X25153725Y-8177000D02*
X25563725Y-8587000D01*
X25563725Y-8177000D02*
X25153725Y-8587000D01*
X25358725Y-8587000D02*
X25563725Y-8382000D01*
X25358725Y-8177000D01*
X25153725Y-8382000D01*
X25358725Y-8587000D01*
X25629975Y-4367000D02*
X26039975Y-4777000D01*
X26039975Y-4367000D02*
X25629975Y-4777000D01*
X25834975Y-4777000D02*
X26039975Y-4572000D01*
X25834975Y-4367000D01*
X25629975Y-4572000D01*
X25834975Y-4777000D01*
X25868100Y-11987000D02*
X26278100Y-12397000D01*
X26278100Y-11987000D02*
X25868100Y-12397000D01*
X26073100Y-12397000D02*
X26278100Y-12192000D01*
X26073100Y-11987000D01*
X25868100Y-12192000D01*
X26073100Y-12397000D01*
X26106225Y-10082000D02*
X26516225Y-10492000D01*
X26516225Y-10082000D02*
X26106225Y-10492000D01*
X26311225Y-10492000D02*
X26516225Y-10287000D01*
X26311225Y-10082000D01*
X26106225Y-10287000D01*
X26311225Y-10492000D01*
X26582475Y-6272000D02*
X26992475Y-6682000D01*
X26992475Y-6272000D02*
X26582475Y-6682000D01*
X26787475Y-6682000D02*
X26992475Y-6477000D01*
X26787475Y-6272000D01*
X26582475Y-6477000D01*
X26787475Y-6682000D01*
X27058725Y-8177000D02*
X27468725Y-8587000D01*
X27468725Y-8177000D02*
X27058725Y-8587000D01*
X27263725Y-8587000D02*
X27468725Y-8382000D01*
X27263725Y-8177000D01*
X27058725Y-8382000D01*
X27263725Y-8587000D01*
X27534975Y-4367000D02*
X27944975Y-4777000D01*
X27944975Y-4367000D02*
X27534975Y-4777000D01*
X27739975Y-4777000D02*
X27944975Y-4572000D01*
X27739975Y-4367000D01*
X27534975Y-4572000D01*
X27739975Y-4777000D01*
X28011225Y-10082000D02*
X28421225Y-10492000D01*
X28421225Y-10082000D02*
X28011225Y-10492000D01*
X28216225Y-10492000D02*
X28421225Y-10287000D01*
X28216225Y-10082000D01*
X28011225Y-10287000D01*
X28216225Y-10492000D01*
X28249350Y-11987000D02*
X28659350Y-12397000D01*
X28659350Y-11987000D02*
X28249350Y-12397000D01*
X28454350Y-12397000D02*
X28659350Y-12192000D01*
X28454350Y-11987000D01*
X28249350Y-12192000D01*
X28454350Y-12397000D01*
X28487475Y-6272000D02*
X28897475Y-6682000D01*
X28897475Y-6272000D02*
X28487475Y-6682000D01*
X28692475Y-6682000D02*
X28897475Y-6477000D01*
X28692475Y-6272000D01*
X28487475Y-6477000D01*
X28692475Y-6682000D01*
X28963725Y-8177000D02*
X29373725Y-8587000D01*
X29373725Y-8177000D02*
X28963725Y-8587000D01*
X29168725Y-8587000D02*
X29373725Y-8382000D01*
X29168725Y-8177000D01*
X28963725Y-8382000D01*
X29168725Y-8587000D01*
X29439975Y-4367000D02*
X29849975Y-4777000D01*
X29849975Y-4367000D02*
X29439975Y-4777000D01*
X29644975Y-4777000D02*
X29849975Y-4572000D01*
X29644975Y-4367000D01*
X29439975Y-4572000D01*
X29644975Y-4777000D01*
X30392475Y-6272000D02*
X30802475Y-6682000D01*
X30802475Y-6272000D02*
X30392475Y-6682000D01*
X30597475Y-6682000D02*
X30802475Y-6477000D01*
X30597475Y-6272000D01*
X30392475Y-6477000D01*
X30597475Y-6682000D01*
X30630600Y-11987000D02*
X31040600Y-12397000D01*
X31040600Y-11987000D02*
X30630600Y-12397000D01*
X30835600Y-12397000D02*
X31040600Y-12192000D01*
X30835600Y-11987000D01*
X30630600Y-12192000D01*
X30835600Y-12397000D01*
X31583100Y-10082000D02*
X31993100Y-10492000D01*
X31993100Y-10082000D02*
X31583100Y-10492000D01*
X31788100Y-10492000D02*
X31993100Y-10287000D01*
X31788100Y-10082000D01*
X31583100Y-10287000D01*
X31788100Y-10492000D01*
X32059350Y-8177000D02*
X32469350Y-8587000D01*
X32469350Y-8177000D02*
X32059350Y-8587000D01*
X32264350Y-8587000D02*
X32469350Y-8382000D01*
X32264350Y-8177000D01*
X32059350Y-8382000D01*
X32264350Y-8587000D01*
X32297475Y-4367000D02*
X32707475Y-4777000D01*
X32707475Y-4367000D02*
X32297475Y-4777000D01*
X32502475Y-4777000D02*
X32707475Y-4572000D01*
X32502475Y-4367000D01*
X32297475Y-4572000D01*
X32502475Y-4777000D01*
X32773725Y-6272000D02*
X33183725Y-6682000D01*
X33183725Y-6272000D02*
X32773725Y-6682000D01*
X32978725Y-6682000D02*
X33183725Y-6477000D01*
X32978725Y-6272000D01*
X32773725Y-6477000D01*
X32978725Y-6682000D01*
X33011850Y-11987000D02*
X33421850Y-12397000D01*
X33421850Y-11987000D02*
X33011850Y-12397000D01*
X33216850Y-12397000D02*
X33421850Y-12192000D01*
X33216850Y-11987000D01*
X33011850Y-12192000D01*
X33216850Y-12397000D01*
X35631150Y-4367000D02*
X36041150Y-4777000D01*
X36041150Y-4367000D02*
X35631150Y-4777000D01*
X35836150Y-4777000D02*
X36041150Y-4572000D01*
X35836150Y-4367000D01*
X35631150Y-4572000D01*
X35836150Y-4777000D01*
X35631150Y-6272000D02*
X36041150Y-6682000D01*
X36041150Y-6272000D02*
X35631150Y-6682000D01*
X35836150Y-6682000D02*
X36041150Y-6477000D01*
X35836150Y-6272000D01*
X35631150Y-6477000D01*
X35836150Y-6682000D01*
X35631150Y-11987000D02*
X36041150Y-12397000D01*
X36041150Y-11987000D02*
X35631150Y-12397000D01*
X35836150Y-12397000D02*
X36041150Y-12192000D01*
X35836150Y-11987000D01*
X35631150Y-12192000D01*
X35836150Y-12397000D01*
X37533050Y-10082000D02*
X37943050Y-10492000D01*
X37943050Y-10082000D02*
X37533050Y-10492000D01*
X37738050Y-10492000D02*
X37943050Y-10287000D01*
X37738050Y-10082000D01*
X37533050Y-10287000D01*
X37738050Y-10492000D01*
X37533050Y-11987000D02*
X37943050Y-12397000D01*
X37943050Y-11987000D02*
X37533050Y-12397000D01*
X37738050Y-12397000D02*
X37943050Y-12192000D01*
X37738050Y-11987000D01*
X37533050Y-12192000D01*
X37738050Y-12397000D01*
X37539400Y-4367000D02*
X37949400Y-4777000D01*
X37949400Y-4367000D02*
X37539400Y-4777000D01*
X37744400Y-4777000D02*
X37949400Y-4572000D01*
X37744400Y-4367000D01*
X37539400Y-4572000D01*
X37744400Y-4777000D01*
X37539400Y-6272000D02*
X37949400Y-6682000D01*
X37949400Y-6272000D02*
X37539400Y-6682000D01*
X37744400Y-6682000D02*
X37949400Y-6477000D01*
X37744400Y-6272000D01*
X37539400Y-6477000D01*
X37744400Y-6682000D01*
X39438050Y-11987000D02*
X39848050Y-12397000D01*
X39848050Y-11987000D02*
X39438050Y-12397000D01*
X39643050Y-12397000D02*
X39848050Y-12192000D01*
X39643050Y-11987000D01*
X39438050Y-12192000D01*
X39643050Y-12397000D01*
X39444400Y-4367000D02*
X39854400Y-4777000D01*
X39854400Y-4367000D02*
X39444400Y-4777000D01*
X39649400Y-4777000D02*
X39854400Y-4572000D01*
X39649400Y-4367000D01*
X39444400Y-4572000D01*
X39649400Y-4777000D01*
X39444400Y-6272000D02*
X39854400Y-6682000D01*
X39854400Y-6272000D02*
X39444400Y-6682000D01*
X39649400Y-6682000D02*
X39854400Y-6477000D01*
X39649400Y-6272000D01*
X39444400Y-6477000D01*
X39649400Y-6682000D01*
X3140500Y-12142100D02*
X3140500Y-12572100D01*
X2925500Y-12357100D02*
X3355500Y-12357100D01*
X3355500Y-12357100D02*
G75*
G03*
X3355500Y-12357100I-215000J0D01*
G01*
X6883400Y-5373000D02*
X6883400Y-5803000D01*
X6668400Y-5588000D02*
X7098400Y-5588000D01*
X7098400Y-5588000D02*
G75*
G03*
X7098400Y-5588000I-215000J0D01*
G01*
X8896350Y-11646800D02*
X8896350Y-12076800D01*
X8681350Y-11861800D02*
X9111350Y-11861800D01*
X9111350Y-11861800D02*
G75*
G03*
X9111350Y-11861800I-215000J0D01*
G01*
X15621000Y-5226950D02*
X15621000Y-5656950D01*
X15406000Y-5441950D02*
X15836000Y-5441950D01*
X15836000Y-5441950D02*
G75*
G03*
X15836000Y-5441950I-215000J0D01*
G01*
X15970250Y-7201800D02*
X15970250Y-7631800D01*
X15755250Y-7416800D02*
X16185250Y-7416800D01*
X16185250Y-7416800D02*
G75*
G03*
X16185250Y-7416800I-215000J0D01*
G01*
X17386300Y-12078600D02*
X17386300Y-12508600D01*
X17171300Y-12293600D02*
X17601300Y-12293600D01*
X17601300Y-12293600D02*
G75*
G03*
X17601300Y-12293600I-215000J0D01*
G01*
X19164300Y-5303150D02*
X19164300Y-5733150D01*
X18949300Y-5518150D02*
X19379300Y-5518150D01*
X19379300Y-5518150D02*
G75*
G03*
X19379300Y-5518150I-215000J0D01*
G01*
X20256500Y-12084950D02*
X20256500Y-12514950D01*
X20041500Y-12299950D02*
X20471500Y-12299950D01*
X20471500Y-12299950D02*
G75*
G03*
X20471500Y-12299950I-215000J0D01*
G01*
X20726400Y-7214500D02*
X20726400Y-7644500D01*
X20511400Y-7429500D02*
X20941400Y-7429500D01*
X20941400Y-7429500D02*
G75*
G03*
X20941400Y-7429500I-215000J0D01*
G01*
X21609050Y-9119500D02*
X21609050Y-9549500D01*
X21394050Y-9334500D02*
X21824050Y-9334500D01*
X21824050Y-9334500D02*
G75*
G03*
X21824050Y-9334500I-215000J0D01*
G01*
X29667200Y-12307200D02*
X29667200Y-12737200D01*
X29452200Y-12522200D02*
X29882200Y-12522200D01*
X29882200Y-12522200D02*
G75*
G03*
X29882200Y-12522200I-215000J0D01*
G01*
X34410650Y-4388750D02*
X34410650Y-4818750D01*
X34195650Y-4603750D02*
X34625650Y-4603750D01*
X34625650Y-4603750D02*
G75*
G03*
X34625650Y-4603750I-215000J0D01*
G01*
X34645600Y-12307200D02*
X34645600Y-12737200D01*
X34430600Y-12522200D02*
X34860600Y-12522200D01*
X34860600Y-12522200D02*
G75*
G03*
X34860600Y-12522200I-215000J0D01*
G01*
X38696900Y-7925700D02*
X38696900Y-8355700D01*
X38481900Y-8140700D02*
X38911900Y-8140700D01*
X38911900Y-8140700D02*
G75*
G03*
X38911900Y-8140700I-215000J0D01*
G01*
X38830250Y-3804550D02*
X38830250Y-4234550D01*
X38615250Y-4019550D02*
X39045250Y-4019550D01*
X39045250Y-4019550D02*
G75*
G03*
X39045250Y-4019550I-215000J0D01*
G01*
X41677750Y-12142100D02*
X41677750Y-12572100D01*
X41462750Y-12357100D02*
X41892750Y-12357100D01*
X41892750Y-12357100D02*
G75*
G03*
X41892750Y-12357100I-215000J0D01*
G01*
D12*
X2384628Y-14877514D02*
X2384628Y-14577514D01*
X2456057Y-14577514D01*
X2498914Y-14591800D01*
X2527486Y-14620371D01*
X2541771Y-14648943D01*
X2556057Y-14706086D01*
X2556057Y-14748943D01*
X2541771Y-14806086D01*
X2527486Y-14834657D01*
X2498914Y-14863229D01*
X2456057Y-14877514D01*
X2384628Y-14877514D01*
X2684628Y-14877514D02*
X2684628Y-14677514D01*
X2684628Y-14734657D02*
X2698914Y-14706086D01*
X2713200Y-14691800D01*
X2741771Y-14677514D01*
X2770343Y-14677514D01*
X2870343Y-14877514D02*
X2870343Y-14677514D01*
X2870343Y-14577514D02*
X2856057Y-14591800D01*
X2870343Y-14606086D01*
X2884628Y-14591800D01*
X2870343Y-14577514D01*
X2870343Y-14606086D01*
X3056057Y-14877514D02*
X3027486Y-14863229D01*
X3013200Y-14834657D01*
X3013200Y-14577514D01*
X3213200Y-14877514D02*
X3184628Y-14863229D01*
X3170343Y-14834657D01*
X3170343Y-14577514D01*
X3556057Y-14877514D02*
X3556057Y-14577514D01*
X3656057Y-14791800D01*
X3756057Y-14577514D01*
X3756057Y-14877514D01*
X4027486Y-14877514D02*
X4027486Y-14720371D01*
X4013200Y-14691800D01*
X3984628Y-14677514D01*
X3927486Y-14677514D01*
X3898914Y-14691800D01*
X4027486Y-14863229D02*
X3998914Y-14877514D01*
X3927486Y-14877514D01*
X3898914Y-14863229D01*
X3884628Y-14834657D01*
X3884628Y-14806086D01*
X3898914Y-14777514D01*
X3927486Y-14763229D01*
X3998914Y-14763229D01*
X4027486Y-14748943D01*
X4170343Y-14677514D02*
X4170343Y-14977514D01*
X4170343Y-14691800D02*
X4198914Y-14677514D01*
X4256057Y-14677514D01*
X4284628Y-14691800D01*
X4298914Y-14706086D01*
X4313200Y-14734657D01*
X4313200Y-14820371D01*
X4298914Y-14848943D01*
X4284628Y-14863229D01*
X4256057Y-14877514D01*
X4198914Y-14877514D01*
X4170343Y-14863229D01*
X4441771Y-14848943D02*
X4456057Y-14863229D01*
X4441771Y-14877514D01*
X4427486Y-14863229D01*
X4441771Y-14848943D01*
X4441771Y-14877514D01*
X4441771Y-14691800D02*
X4456057Y-14706086D01*
X4441771Y-14720371D01*
X4427486Y-14706086D01*
X4441771Y-14691800D01*
X4441771Y-14720371D01*
X2068200Y-15356800D02*
X2098200Y-15386800D01*
X2098200Y-15356800D02*
X2068200Y-15386800D01*
X2441771Y-15207514D02*
X2470343Y-15207514D01*
X2498914Y-15221800D01*
X2513200Y-15236086D01*
X2527486Y-15264657D01*
X2541771Y-15321800D01*
X2541771Y-15393229D01*
X2527486Y-15450371D01*
X2513200Y-15478943D01*
X2498914Y-15493229D01*
X2470343Y-15507514D01*
X2441771Y-15507514D01*
X2413200Y-15493229D01*
X2398914Y-15478943D01*
X2384628Y-15450371D01*
X2370343Y-15393229D01*
X2370343Y-15321800D01*
X2384628Y-15264657D01*
X2398914Y-15236086D01*
X2413200Y-15221800D01*
X2441771Y-15207514D01*
X2670343Y-15478943D02*
X2684628Y-15493229D01*
X2670343Y-15507514D01*
X2656057Y-15493229D01*
X2670343Y-15478943D01*
X2670343Y-15507514D01*
X2784628Y-15207514D02*
X2970343Y-15207514D01*
X2870343Y-15321800D01*
X2913200Y-15321800D01*
X2941771Y-15336086D01*
X2956057Y-15350371D01*
X2970343Y-15378943D01*
X2970343Y-15450371D01*
X2956057Y-15478943D01*
X2941771Y-15493229D01*
X2913200Y-15507514D01*
X2827486Y-15507514D01*
X2798914Y-15493229D01*
X2784628Y-15478943D01*
X3156057Y-15207514D02*
X3184628Y-15207514D01*
X3213200Y-15221800D01*
X3227486Y-15236086D01*
X3241771Y-15264657D01*
X3256057Y-15321800D01*
X3256057Y-15393229D01*
X3241771Y-15450371D01*
X3227486Y-15478943D01*
X3213200Y-15493229D01*
X3184628Y-15507514D01*
X3156057Y-15507514D01*
X3127486Y-15493229D01*
X3113200Y-15478943D01*
X3098914Y-15450371D01*
X3084628Y-15393229D01*
X3084628Y-15321800D01*
X3098914Y-15264657D01*
X3113200Y-15236086D01*
X3127486Y-15221800D01*
X3156057Y-15207514D01*
X3384628Y-15507514D02*
X3384628Y-15307514D01*
X3384628Y-15336086D02*
X3398914Y-15321800D01*
X3427486Y-15307514D01*
X3470343Y-15307514D01*
X3498914Y-15321800D01*
X3513200Y-15350371D01*
X3513200Y-15507514D01*
X3513200Y-15350371D02*
X3527486Y-15321800D01*
X3556057Y-15307514D01*
X3598914Y-15307514D01*
X3627486Y-15321800D01*
X3641771Y-15350371D01*
X3641771Y-15507514D01*
X3784628Y-15507514D02*
X3784628Y-15307514D01*
X3784628Y-15336086D02*
X3798914Y-15321800D01*
X3827486Y-15307514D01*
X3870343Y-15307514D01*
X3898914Y-15321800D01*
X3913200Y-15350371D01*
X3913200Y-15507514D01*
X3913200Y-15350371D02*
X3927486Y-15321800D01*
X3956057Y-15307514D01*
X3998914Y-15307514D01*
X4027486Y-15321800D01*
X4041771Y-15350371D01*
X4041771Y-15507514D01*
X4627486Y-15193229D02*
X4370343Y-15578943D01*
X5013200Y-15207514D02*
X5041771Y-15207514D01*
X5070343Y-15221800D01*
X5084628Y-15236086D01*
X5098914Y-15264657D01*
X5113200Y-15321800D01*
X5113200Y-15393229D01*
X5098914Y-15450371D01*
X5084628Y-15478943D01*
X5070343Y-15493229D01*
X5041771Y-15507514D01*
X5013200Y-15507514D01*
X4984628Y-15493229D01*
X4970343Y-15478943D01*
X4956057Y-15450371D01*
X4941771Y-15393229D01*
X4941771Y-15321800D01*
X4956057Y-15264657D01*
X4970343Y-15236086D01*
X4984628Y-15221800D01*
X5013200Y-15207514D01*
X5241771Y-15478943D02*
X5256057Y-15493229D01*
X5241771Y-15507514D01*
X5227486Y-15493229D01*
X5241771Y-15478943D01*
X5241771Y-15507514D01*
X5441771Y-15207514D02*
X5470343Y-15207514D01*
X5498914Y-15221800D01*
X5513200Y-15236086D01*
X5527486Y-15264657D01*
X5541771Y-15321800D01*
X5541771Y-15393229D01*
X5527486Y-15450371D01*
X5513200Y-15478943D01*
X5498914Y-15493229D01*
X5470343Y-15507514D01*
X5441771Y-15507514D01*
X5413200Y-15493229D01*
X5398914Y-15478943D01*
X5384628Y-15450371D01*
X5370343Y-15393229D01*
X5370343Y-15321800D01*
X5384628Y-15264657D01*
X5398914Y-15236086D01*
X5413200Y-15221800D01*
X5441771Y-15207514D01*
X5827486Y-15507514D02*
X5656057Y-15507514D01*
X5741771Y-15507514D02*
X5741771Y-15207514D01*
X5713200Y-15250371D01*
X5684628Y-15278943D01*
X5656057Y-15293229D01*
X5941771Y-15236086D02*
X5956057Y-15221800D01*
X5984628Y-15207514D01*
X6056057Y-15207514D01*
X6084628Y-15221800D01*
X6098914Y-15236086D01*
X6113200Y-15264657D01*
X6113200Y-15293229D01*
X6098914Y-15336086D01*
X5927486Y-15507514D01*
X6113200Y-15507514D01*
X6227486Y-15207514D02*
X6227486Y-15264657D01*
X6341771Y-15207514D02*
X6341771Y-15264657D01*
X6784628Y-15621800D02*
X6770343Y-15607514D01*
X6741771Y-15564657D01*
X6727486Y-15536086D01*
X6713200Y-15493229D01*
X6698914Y-15421800D01*
X6698914Y-15364657D01*
X6713200Y-15293229D01*
X6727486Y-15250371D01*
X6741771Y-15221800D01*
X6770343Y-15178943D01*
X6784628Y-15164657D01*
X6870343Y-15207514D02*
X7070343Y-15207514D01*
X6941771Y-15507514D01*
X7170343Y-15236086D02*
X7184628Y-15221800D01*
X7213200Y-15207514D01*
X7284628Y-15207514D01*
X7313200Y-15221800D01*
X7327486Y-15236086D01*
X7341771Y-15264657D01*
X7341771Y-15293229D01*
X7327486Y-15336086D01*
X7156057Y-15507514D01*
X7341771Y-15507514D01*
X7698914Y-15507514D02*
X7698914Y-15207514D01*
X7827486Y-15507514D02*
X7827486Y-15350371D01*
X7813200Y-15321800D01*
X7784628Y-15307514D01*
X7741771Y-15307514D01*
X7713200Y-15321800D01*
X7698914Y-15336086D01*
X8013200Y-15507514D02*
X7984628Y-15493229D01*
X7970343Y-15478943D01*
X7956057Y-15450371D01*
X7956057Y-15364657D01*
X7970343Y-15336086D01*
X7984628Y-15321800D01*
X8013200Y-15307514D01*
X8056057Y-15307514D01*
X8084628Y-15321800D01*
X8098914Y-15336086D01*
X8113200Y-15364657D01*
X8113200Y-15450371D01*
X8098914Y-15478943D01*
X8084628Y-15493229D01*
X8056057Y-15507514D01*
X8013200Y-15507514D01*
X8284628Y-15507514D02*
X8256057Y-15493229D01*
X8241771Y-15464657D01*
X8241771Y-15207514D01*
X8513200Y-15493229D02*
X8484628Y-15507514D01*
X8427486Y-15507514D01*
X8398914Y-15493229D01*
X8384628Y-15464657D01*
X8384628Y-15350371D01*
X8398914Y-15321800D01*
X8427486Y-15307514D01*
X8484628Y-15307514D01*
X8513200Y-15321800D01*
X8527486Y-15350371D01*
X8527486Y-15378943D01*
X8384628Y-15407514D01*
X8641771Y-15493229D02*
X8670343Y-15507514D01*
X8727486Y-15507514D01*
X8756057Y-15493229D01*
X8770343Y-15464657D01*
X8770343Y-15450371D01*
X8756057Y-15421800D01*
X8727486Y-15407514D01*
X8684628Y-15407514D01*
X8656057Y-15393229D01*
X8641771Y-15364657D01*
X8641771Y-15350371D01*
X8656057Y-15321800D01*
X8684628Y-15307514D01*
X8727486Y-15307514D01*
X8756057Y-15321800D01*
X8870343Y-15621800D02*
X8884628Y-15607514D01*
X8913200Y-15564657D01*
X8927486Y-15536086D01*
X8941771Y-15493229D01*
X8956057Y-15421800D01*
X8956057Y-15364657D01*
X8941771Y-15293229D01*
X8927486Y-15250371D01*
X8913200Y-15221800D01*
X8884628Y-15178943D01*
X8870343Y-15164657D01*
X9413200Y-15621800D02*
X9398914Y-15607514D01*
X9370343Y-15564657D01*
X9356057Y-15536086D01*
X9341771Y-15493229D01*
X9327486Y-15421800D01*
X9327486Y-15364657D01*
X9341771Y-15293229D01*
X9356057Y-15250371D01*
X9370343Y-15221800D01*
X9398914Y-15178943D01*
X9413200Y-15164657D01*
X9527486Y-15307514D02*
X9527486Y-15507514D01*
X9527486Y-15336086D02*
X9541771Y-15321800D01*
X9570343Y-15307514D01*
X9613200Y-15307514D01*
X9641771Y-15321800D01*
X9656057Y-15350371D01*
X9656057Y-15507514D01*
X9841771Y-15507514D02*
X9813200Y-15493229D01*
X9798914Y-15478943D01*
X9784628Y-15450371D01*
X9784628Y-15364657D01*
X9798914Y-15336086D01*
X9813200Y-15321800D01*
X9841771Y-15307514D01*
X9884628Y-15307514D01*
X9913200Y-15321800D01*
X9927486Y-15336086D01*
X9941771Y-15364657D01*
X9941771Y-15450371D01*
X9927486Y-15478943D01*
X9913200Y-15493229D01*
X9884628Y-15507514D01*
X9841771Y-15507514D01*
X10027486Y-15307514D02*
X10141771Y-15307514D01*
X10070343Y-15207514D02*
X10070343Y-15464657D01*
X10084628Y-15493229D01*
X10113200Y-15507514D01*
X10141771Y-15507514D01*
X10470343Y-15307514D02*
X10470343Y-15607514D01*
X10470343Y-15321800D02*
X10498914Y-15307514D01*
X10556057Y-15307514D01*
X10584628Y-15321800D01*
X10598914Y-15336086D01*
X10613200Y-15364657D01*
X10613200Y-15450371D01*
X10598914Y-15478943D01*
X10584628Y-15493229D01*
X10556057Y-15507514D01*
X10498914Y-15507514D01*
X10470343Y-15493229D01*
X10784628Y-15507514D02*
X10756057Y-15493229D01*
X10741771Y-15464657D01*
X10741771Y-15207514D01*
X11027486Y-15507514D02*
X11027486Y-15350371D01*
X11013200Y-15321800D01*
X10984628Y-15307514D01*
X10927486Y-15307514D01*
X10898914Y-15321800D01*
X11027486Y-15493229D02*
X10998914Y-15507514D01*
X10927486Y-15507514D01*
X10898914Y-15493229D01*
X10884628Y-15464657D01*
X10884628Y-15436086D01*
X10898914Y-15407514D01*
X10927486Y-15393229D01*
X10998914Y-15393229D01*
X11027486Y-15378943D01*
X11127486Y-15307514D02*
X11241771Y-15307514D01*
X11170343Y-15207514D02*
X11170343Y-15464657D01*
X11184628Y-15493229D01*
X11213200Y-15507514D01*
X11241771Y-15507514D01*
X11456057Y-15493229D02*
X11427486Y-15507514D01*
X11370343Y-15507514D01*
X11341771Y-15493229D01*
X11327486Y-15464657D01*
X11327486Y-15350371D01*
X11341771Y-15321800D01*
X11370343Y-15307514D01*
X11427486Y-15307514D01*
X11456057Y-15321800D01*
X11470343Y-15350371D01*
X11470343Y-15378943D01*
X11327486Y-15407514D01*
X11727486Y-15507514D02*
X11727486Y-15207514D01*
X11727486Y-15493229D02*
X11698914Y-15507514D01*
X11641771Y-15507514D01*
X11613200Y-15493229D01*
X11598914Y-15478943D01*
X11584628Y-15450371D01*
X11584628Y-15364657D01*
X11598914Y-15336086D01*
X11613200Y-15321800D01*
X11641771Y-15307514D01*
X11698914Y-15307514D01*
X11727486Y-15321800D01*
X11841771Y-15621800D02*
X11856057Y-15607514D01*
X11884628Y-15564657D01*
X11898914Y-15536086D01*
X11913200Y-15493229D01*
X11927486Y-15421800D01*
X11927486Y-15364657D01*
X11913200Y-15293229D01*
X11898914Y-15250371D01*
X11884628Y-15221800D01*
X11856057Y-15178943D01*
X11841771Y-15164657D01*
X2098200Y-15767800D02*
G75*
G03*
X2098200Y-15767800I-60000J0D01*
G01*
X2541771Y-15903514D02*
X2370343Y-15903514D01*
X2456057Y-15903514D02*
X2456057Y-15603514D01*
X2427486Y-15646371D01*
X2398914Y-15674943D01*
X2370343Y-15689229D01*
X2670343Y-15874943D02*
X2684628Y-15889229D01*
X2670343Y-15903514D01*
X2656057Y-15889229D01*
X2670343Y-15874943D01*
X2670343Y-15903514D01*
X2798914Y-15632086D02*
X2813200Y-15617800D01*
X2841771Y-15603514D01*
X2913200Y-15603514D01*
X2941771Y-15617800D01*
X2956057Y-15632086D01*
X2970343Y-15660657D01*
X2970343Y-15689229D01*
X2956057Y-15732086D01*
X2784628Y-15903514D01*
X2970343Y-15903514D01*
X3156057Y-15603514D02*
X3184628Y-15603514D01*
X3213200Y-15617800D01*
X3227486Y-15632086D01*
X3241771Y-15660657D01*
X3256057Y-15717800D01*
X3256057Y-15789229D01*
X3241771Y-15846371D01*
X3227486Y-15874943D01*
X3213200Y-15889229D01*
X3184628Y-15903514D01*
X3156057Y-15903514D01*
X3127486Y-15889229D01*
X3113200Y-15874943D01*
X3098914Y-15846371D01*
X3084628Y-15789229D01*
X3084628Y-15717800D01*
X3098914Y-15660657D01*
X3113200Y-15632086D01*
X3127486Y-15617800D01*
X3156057Y-15603514D01*
X3384628Y-15903514D02*
X3384628Y-15703514D01*
X3384628Y-15732086D02*
X3398914Y-15717800D01*
X3427486Y-15703514D01*
X3470343Y-15703514D01*
X3498914Y-15717800D01*
X3513200Y-15746371D01*
X3513200Y-15903514D01*
X3513200Y-15746371D02*
X3527486Y-15717800D01*
X3556057Y-15703514D01*
X3598914Y-15703514D01*
X3627486Y-15717800D01*
X3641771Y-15746371D01*
X3641771Y-15903514D01*
X3784628Y-15903514D02*
X3784628Y-15703514D01*
X3784628Y-15732086D02*
X3798914Y-15717800D01*
X3827486Y-15703514D01*
X3870343Y-15703514D01*
X3898914Y-15717800D01*
X3913200Y-15746371D01*
X3913200Y-15903514D01*
X3913200Y-15746371D02*
X3927486Y-15717800D01*
X3956057Y-15703514D01*
X3998914Y-15703514D01*
X4027486Y-15717800D01*
X4041771Y-15746371D01*
X4041771Y-15903514D01*
X4627486Y-15589229D02*
X4370343Y-15974943D01*
X5013200Y-15603514D02*
X5041771Y-15603514D01*
X5070343Y-15617800D01*
X5084628Y-15632086D01*
X5098914Y-15660657D01*
X5113200Y-15717800D01*
X5113200Y-15789229D01*
X5098914Y-15846371D01*
X5084628Y-15874943D01*
X5070343Y-15889229D01*
X5041771Y-15903514D01*
X5013200Y-15903514D01*
X4984628Y-15889229D01*
X4970343Y-15874943D01*
X4956057Y-15846371D01*
X4941771Y-15789229D01*
X4941771Y-15717800D01*
X4956057Y-15660657D01*
X4970343Y-15632086D01*
X4984628Y-15617800D01*
X5013200Y-15603514D01*
X5241771Y-15874943D02*
X5256057Y-15889229D01*
X5241771Y-15903514D01*
X5227486Y-15889229D01*
X5241771Y-15874943D01*
X5241771Y-15903514D01*
X5441771Y-15603514D02*
X5470343Y-15603514D01*
X5498914Y-15617800D01*
X5513200Y-15632086D01*
X5527486Y-15660657D01*
X5541771Y-15717800D01*
X5541771Y-15789229D01*
X5527486Y-15846371D01*
X5513200Y-15874943D01*
X5498914Y-15889229D01*
X5470343Y-15903514D01*
X5441771Y-15903514D01*
X5413200Y-15889229D01*
X5398914Y-15874943D01*
X5384628Y-15846371D01*
X5370343Y-15789229D01*
X5370343Y-15717800D01*
X5384628Y-15660657D01*
X5398914Y-15632086D01*
X5413200Y-15617800D01*
X5441771Y-15603514D01*
X5798914Y-15703514D02*
X5798914Y-15903514D01*
X5727486Y-15589229D02*
X5656057Y-15803514D01*
X5841771Y-15803514D01*
X5927486Y-15603514D02*
X6127486Y-15603514D01*
X5998914Y-15903514D01*
X6227486Y-15603514D02*
X6227486Y-15660657D01*
X6341771Y-15603514D02*
X6341771Y-15660657D01*
X6784628Y-16017800D02*
X6770343Y-16003514D01*
X6741771Y-15960657D01*
X6727486Y-15932086D01*
X6713200Y-15889229D01*
X6698914Y-15817800D01*
X6698914Y-15760657D01*
X6713200Y-15689229D01*
X6727486Y-15646371D01*
X6741771Y-15617800D01*
X6770343Y-15574943D01*
X6784628Y-15560657D01*
X7027486Y-15703514D02*
X7027486Y-15903514D01*
X6956057Y-15589229D02*
X6884628Y-15803514D01*
X7070343Y-15803514D01*
X7413200Y-15903514D02*
X7413200Y-15603514D01*
X7541771Y-15903514D02*
X7541771Y-15746371D01*
X7527486Y-15717800D01*
X7498914Y-15703514D01*
X7456057Y-15703514D01*
X7427486Y-15717800D01*
X7413200Y-15732086D01*
X7727486Y-15903514D02*
X7698914Y-15889229D01*
X7684628Y-15874943D01*
X7670343Y-15846371D01*
X7670343Y-15760657D01*
X7684628Y-15732086D01*
X7698914Y-15717800D01*
X7727486Y-15703514D01*
X7770343Y-15703514D01*
X7798914Y-15717800D01*
X7813200Y-15732086D01*
X7827486Y-15760657D01*
X7827486Y-15846371D01*
X7813200Y-15874943D01*
X7798914Y-15889229D01*
X7770343Y-15903514D01*
X7727486Y-15903514D01*
X7998914Y-15903514D02*
X7970343Y-15889229D01*
X7956057Y-15860657D01*
X7956057Y-15603514D01*
X8227486Y-15889229D02*
X8198914Y-15903514D01*
X8141771Y-15903514D01*
X8113200Y-15889229D01*
X8098914Y-15860657D01*
X8098914Y-15746371D01*
X8113200Y-15717800D01*
X8141771Y-15703514D01*
X8198914Y-15703514D01*
X8227486Y-15717800D01*
X8241771Y-15746371D01*
X8241771Y-15774943D01*
X8098914Y-15803514D01*
X8356057Y-15889229D02*
X8384628Y-15903514D01*
X8441771Y-15903514D01*
X8470343Y-15889229D01*
X8484628Y-15860657D01*
X8484628Y-15846371D01*
X8470343Y-15817800D01*
X8441771Y-15803514D01*
X8398914Y-15803514D01*
X8370343Y-15789229D01*
X8356057Y-15760657D01*
X8356057Y-15746371D01*
X8370343Y-15717800D01*
X8398914Y-15703514D01*
X8441771Y-15703514D01*
X8470343Y-15717800D01*
X8584628Y-16017800D02*
X8598914Y-16003514D01*
X8627486Y-15960657D01*
X8641771Y-15932086D01*
X8656057Y-15889229D01*
X8670343Y-15817800D01*
X8670343Y-15760657D01*
X8656057Y-15689229D01*
X8641771Y-15646371D01*
X8627486Y-15617800D01*
X8598914Y-15574943D01*
X8584628Y-15560657D01*
X9127486Y-16017800D02*
X9113200Y-16003514D01*
X9084628Y-15960657D01*
X9070343Y-15932086D01*
X9056057Y-15889229D01*
X9041771Y-15817800D01*
X9041771Y-15760657D01*
X9056057Y-15689229D01*
X9070343Y-15646371D01*
X9084628Y-15617800D01*
X9113200Y-15574943D01*
X9127486Y-15560657D01*
X9241771Y-15703514D02*
X9241771Y-15903514D01*
X9241771Y-15732086D02*
X9256057Y-15717800D01*
X9284628Y-15703514D01*
X9327486Y-15703514D01*
X9356057Y-15717800D01*
X9370343Y-15746371D01*
X9370343Y-15903514D01*
X9556057Y-15903514D02*
X9527486Y-15889229D01*
X9513200Y-15874943D01*
X9498914Y-15846371D01*
X9498914Y-15760657D01*
X9513200Y-15732086D01*
X9527486Y-15717800D01*
X9556057Y-15703514D01*
X9598914Y-15703514D01*
X9627486Y-15717800D01*
X9641771Y-15732086D01*
X9656057Y-15760657D01*
X9656057Y-15846371D01*
X9641771Y-15874943D01*
X9627486Y-15889229D01*
X9598914Y-15903514D01*
X9556057Y-15903514D01*
X9741771Y-15703514D02*
X9856057Y-15703514D01*
X9784628Y-15603514D02*
X9784628Y-15860657D01*
X9798914Y-15889229D01*
X9827486Y-15903514D01*
X9856057Y-15903514D01*
X10184628Y-15703514D02*
X10184628Y-16003514D01*
X10184628Y-15717800D02*
X10213200Y-15703514D01*
X10270343Y-15703514D01*
X10298914Y-15717800D01*
X10313200Y-15732086D01*
X10327486Y-15760657D01*
X10327486Y-15846371D01*
X10313200Y-15874943D01*
X10298914Y-15889229D01*
X10270343Y-15903514D01*
X10213200Y-15903514D01*
X10184628Y-15889229D01*
X10498914Y-15903514D02*
X10470343Y-15889229D01*
X10456057Y-15860657D01*
X10456057Y-15603514D01*
X10741771Y-15903514D02*
X10741771Y-15746371D01*
X10727486Y-15717800D01*
X10698914Y-15703514D01*
X10641771Y-15703514D01*
X10613200Y-15717800D01*
X10741771Y-15889229D02*
X10713200Y-15903514D01*
X10641771Y-15903514D01*
X10613200Y-15889229D01*
X10598914Y-15860657D01*
X10598914Y-15832086D01*
X10613200Y-15803514D01*
X10641771Y-15789229D01*
X10713200Y-15789229D01*
X10741771Y-15774943D01*
X10841771Y-15703514D02*
X10956057Y-15703514D01*
X10884628Y-15603514D02*
X10884628Y-15860657D01*
X10898914Y-15889229D01*
X10927486Y-15903514D01*
X10956057Y-15903514D01*
X11170343Y-15889229D02*
X11141771Y-15903514D01*
X11084628Y-15903514D01*
X11056057Y-15889229D01*
X11041771Y-15860657D01*
X11041771Y-15746371D01*
X11056057Y-15717800D01*
X11084628Y-15703514D01*
X11141771Y-15703514D01*
X11170343Y-15717800D01*
X11184628Y-15746371D01*
X11184628Y-15774943D01*
X11041771Y-15803514D01*
X11441771Y-15903514D02*
X11441771Y-15603514D01*
X11441771Y-15889229D02*
X11413200Y-15903514D01*
X11356057Y-15903514D01*
X11327486Y-15889229D01*
X11313200Y-15874943D01*
X11298914Y-15846371D01*
X11298914Y-15760657D01*
X11313200Y-15732086D01*
X11327486Y-15717800D01*
X11356057Y-15703514D01*
X11413200Y-15703514D01*
X11441771Y-15717800D01*
X11556057Y-16017800D02*
X11570343Y-16003514D01*
X11598914Y-15960657D01*
X11613200Y-15932086D01*
X11627486Y-15889229D01*
X11641771Y-15817800D01*
X11641771Y-15760657D01*
X11627486Y-15689229D01*
X11613200Y-15646371D01*
X11598914Y-15617800D01*
X11570343Y-15574943D01*
X11556057Y-15560657D01*
X2010700Y-16076300D02*
X2010700Y-16251300D01*
X1923200Y-16163800D02*
X2098200Y-16163800D01*
X2541771Y-16299514D02*
X2370343Y-16299514D01*
X2456057Y-16299514D02*
X2456057Y-15999514D01*
X2427486Y-16042371D01*
X2398914Y-16070943D01*
X2370343Y-16085229D01*
X2670343Y-16270943D02*
X2684628Y-16285229D01*
X2670343Y-16299514D01*
X2656057Y-16285229D01*
X2670343Y-16270943D01*
X2670343Y-16299514D01*
X2784628Y-15999514D02*
X2984628Y-15999514D01*
X2856057Y-16299514D01*
X3241771Y-15999514D02*
X3098914Y-15999514D01*
X3084628Y-16142371D01*
X3098914Y-16128086D01*
X3127486Y-16113800D01*
X3198914Y-16113800D01*
X3227486Y-16128086D01*
X3241771Y-16142371D01*
X3256057Y-16170943D01*
X3256057Y-16242371D01*
X3241771Y-16270943D01*
X3227486Y-16285229D01*
X3198914Y-16299514D01*
X3127486Y-16299514D01*
X3098914Y-16285229D01*
X3084628Y-16270943D01*
X3384628Y-16299514D02*
X3384628Y-16099514D01*
X3384628Y-16128086D02*
X3398914Y-16113800D01*
X3427486Y-16099514D01*
X3470343Y-16099514D01*
X3498914Y-16113800D01*
X3513200Y-16142371D01*
X3513200Y-16299514D01*
X3513200Y-16142371D02*
X3527486Y-16113800D01*
X3556057Y-16099514D01*
X3598914Y-16099514D01*
X3627486Y-16113800D01*
X3641771Y-16142371D01*
X3641771Y-16299514D01*
X3784628Y-16299514D02*
X3784628Y-16099514D01*
X3784628Y-16128086D02*
X3798914Y-16113800D01*
X3827486Y-16099514D01*
X3870343Y-16099514D01*
X3898914Y-16113800D01*
X3913200Y-16142371D01*
X3913200Y-16299514D01*
X3913200Y-16142371D02*
X3927486Y-16113800D01*
X3956057Y-16099514D01*
X3998914Y-16099514D01*
X4027486Y-16113800D01*
X4041771Y-16142371D01*
X4041771Y-16299514D01*
X4627486Y-15985229D02*
X4370343Y-16370943D01*
X5013200Y-15999514D02*
X5041771Y-15999514D01*
X5070343Y-16013800D01*
X5084628Y-16028086D01*
X5098914Y-16056657D01*
X5113200Y-16113800D01*
X5113200Y-16185229D01*
X5098914Y-16242371D01*
X5084628Y-16270943D01*
X5070343Y-16285229D01*
X5041771Y-16299514D01*
X5013200Y-16299514D01*
X4984628Y-16285229D01*
X4970343Y-16270943D01*
X4956057Y-16242371D01*
X4941771Y-16185229D01*
X4941771Y-16113800D01*
X4956057Y-16056657D01*
X4970343Y-16028086D01*
X4984628Y-16013800D01*
X5013200Y-15999514D01*
X5241771Y-16270943D02*
X5256057Y-16285229D01*
X5241771Y-16299514D01*
X5227486Y-16285229D01*
X5241771Y-16270943D01*
X5241771Y-16299514D01*
X5441771Y-15999514D02*
X5470343Y-15999514D01*
X5498914Y-16013800D01*
X5513200Y-16028086D01*
X5527486Y-16056657D01*
X5541771Y-16113800D01*
X5541771Y-16185229D01*
X5527486Y-16242371D01*
X5513200Y-16270943D01*
X5498914Y-16285229D01*
X5470343Y-16299514D01*
X5441771Y-16299514D01*
X5413200Y-16285229D01*
X5398914Y-16270943D01*
X5384628Y-16242371D01*
X5370343Y-16185229D01*
X5370343Y-16113800D01*
X5384628Y-16056657D01*
X5398914Y-16028086D01*
X5413200Y-16013800D01*
X5441771Y-15999514D01*
X5798914Y-15999514D02*
X5741771Y-15999514D01*
X5713200Y-16013800D01*
X5698914Y-16028086D01*
X5670343Y-16070943D01*
X5656057Y-16128086D01*
X5656057Y-16242371D01*
X5670343Y-16270943D01*
X5684628Y-16285229D01*
X5713200Y-16299514D01*
X5770343Y-16299514D01*
X5798914Y-16285229D01*
X5813200Y-16270943D01*
X5827486Y-16242371D01*
X5827486Y-16170943D01*
X5813200Y-16142371D01*
X5798914Y-16128086D01*
X5770343Y-16113800D01*
X5713200Y-16113800D01*
X5684628Y-16128086D01*
X5670343Y-16142371D01*
X5656057Y-16170943D01*
X5970343Y-16299514D02*
X6027486Y-16299514D01*
X6056057Y-16285229D01*
X6070343Y-16270943D01*
X6098914Y-16228086D01*
X6113200Y-16170943D01*
X6113200Y-16056657D01*
X6098914Y-16028086D01*
X6084628Y-16013800D01*
X6056057Y-15999514D01*
X5998914Y-15999514D01*
X5970343Y-16013800D01*
X5956057Y-16028086D01*
X5941771Y-16056657D01*
X5941771Y-16128086D01*
X5956057Y-16156657D01*
X5970343Y-16170943D01*
X5998914Y-16185229D01*
X6056057Y-16185229D01*
X6084628Y-16170943D01*
X6098914Y-16156657D01*
X6113200Y-16128086D01*
X6227486Y-15999514D02*
X6227486Y-16056657D01*
X6341771Y-15999514D02*
X6341771Y-16056657D01*
X6784628Y-16413800D02*
X6770343Y-16399514D01*
X6741771Y-16356657D01*
X6727486Y-16328086D01*
X6713200Y-16285229D01*
X6698914Y-16213800D01*
X6698914Y-16156657D01*
X6713200Y-16085229D01*
X6727486Y-16042371D01*
X6741771Y-16013800D01*
X6770343Y-15970943D01*
X6784628Y-15956657D01*
X6870343Y-15999514D02*
X7056057Y-15999514D01*
X6956057Y-16113800D01*
X6998914Y-16113800D01*
X7027486Y-16128086D01*
X7041771Y-16142371D01*
X7056057Y-16170943D01*
X7056057Y-16242371D01*
X7041771Y-16270943D01*
X7027486Y-16285229D01*
X6998914Y-16299514D01*
X6913200Y-16299514D01*
X6884628Y-16285229D01*
X6870343Y-16270943D01*
X7313200Y-16099514D02*
X7313200Y-16299514D01*
X7241771Y-15985229D02*
X7170343Y-16199514D01*
X7356057Y-16199514D01*
X7698914Y-16299514D02*
X7698914Y-15999514D01*
X7827486Y-16299514D02*
X7827486Y-16142371D01*
X7813200Y-16113800D01*
X7784628Y-16099514D01*
X7741771Y-16099514D01*
X7713200Y-16113800D01*
X7698914Y-16128086D01*
X8013200Y-16299514D02*
X7984628Y-16285229D01*
X7970343Y-16270943D01*
X7956057Y-16242371D01*
X7956057Y-16156657D01*
X7970343Y-16128086D01*
X7984628Y-16113800D01*
X8013200Y-16099514D01*
X8056057Y-16099514D01*
X8084628Y-16113800D01*
X8098914Y-16128086D01*
X8113200Y-16156657D01*
X8113200Y-16242371D01*
X8098914Y-16270943D01*
X8084628Y-16285229D01*
X8056057Y-16299514D01*
X8013200Y-16299514D01*
X8284628Y-16299514D02*
X8256057Y-16285229D01*
X8241771Y-16256657D01*
X8241771Y-15999514D01*
X8513200Y-16285229D02*
X8484628Y-16299514D01*
X8427486Y-16299514D01*
X8398914Y-16285229D01*
X8384628Y-16256657D01*
X8384628Y-16142371D01*
X8398914Y-16113800D01*
X8427486Y-16099514D01*
X8484628Y-16099514D01*
X8513200Y-16113800D01*
X8527486Y-16142371D01*
X8527486Y-16170943D01*
X8384628Y-16199514D01*
X8641771Y-16285229D02*
X8670343Y-16299514D01*
X8727486Y-16299514D01*
X8756057Y-16285229D01*
X8770343Y-16256657D01*
X8770343Y-16242371D01*
X8756057Y-16213800D01*
X8727486Y-16199514D01*
X8684628Y-16199514D01*
X8656057Y-16185229D01*
X8641771Y-16156657D01*
X8641771Y-16142371D01*
X8656057Y-16113800D01*
X8684628Y-16099514D01*
X8727486Y-16099514D01*
X8756057Y-16113800D01*
X8870343Y-16413800D02*
X8884628Y-16399514D01*
X8913200Y-16356657D01*
X8927486Y-16328086D01*
X8941771Y-16285229D01*
X8956057Y-16213800D01*
X8956057Y-16156657D01*
X8941771Y-16085229D01*
X8927486Y-16042371D01*
X8913200Y-16013800D01*
X8884628Y-15970943D01*
X8870343Y-15956657D01*
X9413200Y-16413800D02*
X9398914Y-16399514D01*
X9370343Y-16356657D01*
X9356057Y-16328086D01*
X9341771Y-16285229D01*
X9327486Y-16213800D01*
X9327486Y-16156657D01*
X9341771Y-16085229D01*
X9356057Y-16042371D01*
X9370343Y-16013800D01*
X9398914Y-15970943D01*
X9413200Y-15956657D01*
X9527486Y-16099514D02*
X9527486Y-16299514D01*
X9527486Y-16128086D02*
X9541771Y-16113800D01*
X9570343Y-16099514D01*
X9613200Y-16099514D01*
X9641771Y-16113800D01*
X9656057Y-16142371D01*
X9656057Y-16299514D01*
X9841771Y-16299514D02*
X9813200Y-16285229D01*
X9798914Y-16270943D01*
X9784628Y-16242371D01*
X9784628Y-16156657D01*
X9798914Y-16128086D01*
X9813200Y-16113800D01*
X9841771Y-16099514D01*
X9884628Y-16099514D01*
X9913200Y-16113800D01*
X9927486Y-16128086D01*
X9941771Y-16156657D01*
X9941771Y-16242371D01*
X9927486Y-16270943D01*
X9913200Y-16285229D01*
X9884628Y-16299514D01*
X9841771Y-16299514D01*
X10027486Y-16099514D02*
X10141771Y-16099514D01*
X10070343Y-15999514D02*
X10070343Y-16256657D01*
X10084628Y-16285229D01*
X10113200Y-16299514D01*
X10141771Y-16299514D01*
X10470343Y-16099514D02*
X10470343Y-16399514D01*
X10470343Y-16113800D02*
X10498914Y-16099514D01*
X10556057Y-16099514D01*
X10584628Y-16113800D01*
X10598914Y-16128086D01*
X10613200Y-16156657D01*
X10613200Y-16242371D01*
X10598914Y-16270943D01*
X10584628Y-16285229D01*
X10556057Y-16299514D01*
X10498914Y-16299514D01*
X10470343Y-16285229D01*
X10784628Y-16299514D02*
X10756057Y-16285229D01*
X10741771Y-16256657D01*
X10741771Y-15999514D01*
X11027486Y-16299514D02*
X11027486Y-16142371D01*
X11013200Y-16113800D01*
X10984628Y-16099514D01*
X10927486Y-16099514D01*
X10898914Y-16113800D01*
X11027486Y-16285229D02*
X10998914Y-16299514D01*
X10927486Y-16299514D01*
X10898914Y-16285229D01*
X10884628Y-16256657D01*
X10884628Y-16228086D01*
X10898914Y-16199514D01*
X10927486Y-16185229D01*
X10998914Y-16185229D01*
X11027486Y-16170943D01*
X11127486Y-16099514D02*
X11241771Y-16099514D01*
X11170343Y-15999514D02*
X11170343Y-16256657D01*
X11184628Y-16285229D01*
X11213200Y-16299514D01*
X11241771Y-16299514D01*
X11456057Y-16285229D02*
X11427486Y-16299514D01*
X11370343Y-16299514D01*
X11341771Y-16285229D01*
X11327486Y-16256657D01*
X11327486Y-16142371D01*
X11341771Y-16113800D01*
X11370343Y-16099514D01*
X11427486Y-16099514D01*
X11456057Y-16113800D01*
X11470343Y-16142371D01*
X11470343Y-16170943D01*
X11327486Y-16199514D01*
X11727486Y-16299514D02*
X11727486Y-15999514D01*
X11727486Y-16285229D02*
X11698914Y-16299514D01*
X11641771Y-16299514D01*
X11613200Y-16285229D01*
X11598914Y-16270943D01*
X11584628Y-16242371D01*
X11584628Y-16156657D01*
X11598914Y-16128086D01*
X11613200Y-16113800D01*
X11641771Y-16099514D01*
X11698914Y-16099514D01*
X11727486Y-16113800D01*
X11841771Y-16413800D02*
X11856057Y-16399514D01*
X11884628Y-16356657D01*
X11898914Y-16328086D01*
X11913200Y-16285229D01*
X11927486Y-16213800D01*
X11927486Y-16156657D01*
X11913200Y-16085229D01*
X11898914Y-16042371D01*
X11884628Y-16013800D01*
X11856057Y-15970943D01*
X11841771Y-15956657D01*
X2070376Y-16626976D02*
X2070376Y-16492624D01*
X1936024Y-16492624D01*
X1936024Y-16626976D01*
X2070376Y-16626976D01*
X2541771Y-16695514D02*
X2370343Y-16695514D01*
X2456057Y-16695514D02*
X2456057Y-16395514D01*
X2427486Y-16438371D01*
X2398914Y-16466943D01*
X2370343Y-16481229D01*
X2670343Y-16666943D02*
X2684628Y-16681229D01*
X2670343Y-16695514D01*
X2656057Y-16681229D01*
X2670343Y-16666943D01*
X2670343Y-16695514D01*
X2827486Y-16695514D02*
X2884628Y-16695514D01*
X2913200Y-16681229D01*
X2927486Y-16666943D01*
X2956057Y-16624086D01*
X2970343Y-16566943D01*
X2970343Y-16452657D01*
X2956057Y-16424086D01*
X2941771Y-16409800D01*
X2913200Y-16395514D01*
X2856057Y-16395514D01*
X2827486Y-16409800D01*
X2813200Y-16424086D01*
X2798914Y-16452657D01*
X2798914Y-16524086D01*
X2813200Y-16552657D01*
X2827486Y-16566943D01*
X2856057Y-16581229D01*
X2913200Y-16581229D01*
X2941771Y-16566943D01*
X2956057Y-16552657D01*
X2970343Y-16524086D01*
X3156057Y-16395514D02*
X3184628Y-16395514D01*
X3213200Y-16409800D01*
X3227486Y-16424086D01*
X3241771Y-16452657D01*
X3256057Y-16509800D01*
X3256057Y-16581229D01*
X3241771Y-16638371D01*
X3227486Y-16666943D01*
X3213200Y-16681229D01*
X3184628Y-16695514D01*
X3156057Y-16695514D01*
X3127486Y-16681229D01*
X3113200Y-16666943D01*
X3098914Y-16638371D01*
X3084628Y-16581229D01*
X3084628Y-16509800D01*
X3098914Y-16452657D01*
X3113200Y-16424086D01*
X3127486Y-16409800D01*
X3156057Y-16395514D01*
X3384628Y-16695514D02*
X3384628Y-16495514D01*
X3384628Y-16524086D02*
X3398914Y-16509800D01*
X3427486Y-16495514D01*
X3470343Y-16495514D01*
X3498914Y-16509800D01*
X3513200Y-16538371D01*
X3513200Y-16695514D01*
X3513200Y-16538371D02*
X3527486Y-16509800D01*
X3556057Y-16495514D01*
X3598914Y-16495514D01*
X3627486Y-16509800D01*
X3641771Y-16538371D01*
X3641771Y-16695514D01*
X3784628Y-16695514D02*
X3784628Y-16495514D01*
X3784628Y-16524086D02*
X3798914Y-16509800D01*
X3827486Y-16495514D01*
X3870343Y-16495514D01*
X3898914Y-16509800D01*
X3913200Y-16538371D01*
X3913200Y-16695514D01*
X3913200Y-16538371D02*
X3927486Y-16509800D01*
X3956057Y-16495514D01*
X3998914Y-16495514D01*
X4027486Y-16509800D01*
X4041771Y-16538371D01*
X4041771Y-16695514D01*
X4627486Y-16381229D02*
X4370343Y-16766943D01*
X5013200Y-16395514D02*
X5041771Y-16395514D01*
X5070343Y-16409800D01*
X5084628Y-16424086D01*
X5098914Y-16452657D01*
X5113200Y-16509800D01*
X5113200Y-16581229D01*
X5098914Y-16638371D01*
X5084628Y-16666943D01*
X5070343Y-16681229D01*
X5041771Y-16695514D01*
X5013200Y-16695514D01*
X4984628Y-16681229D01*
X4970343Y-16666943D01*
X4956057Y-16638371D01*
X4941771Y-16581229D01*
X4941771Y-16509800D01*
X4956057Y-16452657D01*
X4970343Y-16424086D01*
X4984628Y-16409800D01*
X5013200Y-16395514D01*
X5241771Y-16666943D02*
X5256057Y-16681229D01*
X5241771Y-16695514D01*
X5227486Y-16681229D01*
X5241771Y-16666943D01*
X5241771Y-16695514D01*
X5441771Y-16395514D02*
X5470343Y-16395514D01*
X5498914Y-16409800D01*
X5513200Y-16424086D01*
X5527486Y-16452657D01*
X5541771Y-16509800D01*
X5541771Y-16581229D01*
X5527486Y-16638371D01*
X5513200Y-16666943D01*
X5498914Y-16681229D01*
X5470343Y-16695514D01*
X5441771Y-16695514D01*
X5413200Y-16681229D01*
X5398914Y-16666943D01*
X5384628Y-16638371D01*
X5370343Y-16581229D01*
X5370343Y-16509800D01*
X5384628Y-16452657D01*
X5398914Y-16424086D01*
X5413200Y-16409800D01*
X5441771Y-16395514D01*
X5641771Y-16395514D02*
X5841771Y-16395514D01*
X5713200Y-16695514D01*
X6098914Y-16395514D02*
X5956057Y-16395514D01*
X5941771Y-16538371D01*
X5956057Y-16524086D01*
X5984628Y-16509800D01*
X6056057Y-16509800D01*
X6084628Y-16524086D01*
X6098914Y-16538371D01*
X6113200Y-16566943D01*
X6113200Y-16638371D01*
X6098914Y-16666943D01*
X6084628Y-16681229D01*
X6056057Y-16695514D01*
X5984628Y-16695514D01*
X5956057Y-16681229D01*
X5941771Y-16666943D01*
X6227486Y-16395514D02*
X6227486Y-16452657D01*
X6341771Y-16395514D02*
X6341771Y-16452657D01*
X6784628Y-16809800D02*
X6770343Y-16795514D01*
X6741771Y-16752657D01*
X6727486Y-16724086D01*
X6713200Y-16681229D01*
X6698914Y-16609800D01*
X6698914Y-16552657D01*
X6713200Y-16481229D01*
X6727486Y-16438371D01*
X6741771Y-16409800D01*
X6770343Y-16366943D01*
X6784628Y-16352657D01*
X7056057Y-16695514D02*
X6884628Y-16695514D01*
X6970343Y-16695514D02*
X6970343Y-16395514D01*
X6941771Y-16438371D01*
X6913200Y-16466943D01*
X6884628Y-16481229D01*
X7313200Y-16495514D02*
X7313200Y-16695514D01*
X7241771Y-16381229D02*
X7170343Y-16595514D01*
X7356057Y-16595514D01*
X7598914Y-16395514D02*
X7541771Y-16395514D01*
X7513200Y-16409800D01*
X7498914Y-16424086D01*
X7470343Y-16466943D01*
X7456057Y-16524086D01*
X7456057Y-16638371D01*
X7470343Y-16666943D01*
X7484628Y-16681229D01*
X7513200Y-16695514D01*
X7570343Y-16695514D01*
X7598914Y-16681229D01*
X7613200Y-16666943D01*
X7627486Y-16638371D01*
X7627486Y-16566943D01*
X7613200Y-16538371D01*
X7598914Y-16524086D01*
X7570343Y-16509800D01*
X7513200Y-16509800D01*
X7484628Y-16524086D01*
X7470343Y-16538371D01*
X7456057Y-16566943D01*
X7984628Y-16695514D02*
X7984628Y-16395514D01*
X8113200Y-16695514D02*
X8113200Y-16538371D01*
X8098914Y-16509800D01*
X8070343Y-16495514D01*
X8027486Y-16495514D01*
X7998914Y-16509800D01*
X7984628Y-16524086D01*
X8298914Y-16695514D02*
X8270343Y-16681229D01*
X8256057Y-16666943D01*
X8241771Y-16638371D01*
X8241771Y-16552657D01*
X8256057Y-16524086D01*
X8270343Y-16509800D01*
X8298914Y-16495514D01*
X8341771Y-16495514D01*
X8370343Y-16509800D01*
X8384628Y-16524086D01*
X8398914Y-16552657D01*
X8398914Y-16638371D01*
X8384628Y-16666943D01*
X8370343Y-16681229D01*
X8341771Y-16695514D01*
X8298914Y-16695514D01*
X8570343Y-16695514D02*
X8541771Y-16681229D01*
X8527486Y-16652657D01*
X8527486Y-16395514D01*
X8798914Y-16681229D02*
X8770343Y-16695514D01*
X8713200Y-16695514D01*
X8684628Y-16681229D01*
X8670343Y-16652657D01*
X8670343Y-16538371D01*
X8684628Y-16509800D01*
X8713200Y-16495514D01*
X8770343Y-16495514D01*
X8798914Y-16509800D01*
X8813200Y-16538371D01*
X8813200Y-16566943D01*
X8670343Y-16595514D01*
X8927486Y-16681229D02*
X8956057Y-16695514D01*
X9013200Y-16695514D01*
X9041771Y-16681229D01*
X9056057Y-16652657D01*
X9056057Y-16638371D01*
X9041771Y-16609800D01*
X9013200Y-16595514D01*
X8970343Y-16595514D01*
X8941771Y-16581229D01*
X8927486Y-16552657D01*
X8927486Y-16538371D01*
X8941771Y-16509800D01*
X8970343Y-16495514D01*
X9013200Y-16495514D01*
X9041771Y-16509800D01*
X9156057Y-16809800D02*
X9170343Y-16795514D01*
X9198914Y-16752657D01*
X9213200Y-16724086D01*
X9227486Y-16681229D01*
X9241771Y-16609800D01*
X9241771Y-16552657D01*
X9227486Y-16481229D01*
X9213200Y-16438371D01*
X9198914Y-16409800D01*
X9170343Y-16366943D01*
X9156057Y-16352657D01*
X9698914Y-16809800D02*
X9684628Y-16795514D01*
X9656057Y-16752657D01*
X9641771Y-16724086D01*
X9627486Y-16681229D01*
X9613200Y-16609800D01*
X9613200Y-16552657D01*
X9627486Y-16481229D01*
X9641771Y-16438371D01*
X9656057Y-16409800D01*
X9684628Y-16366943D01*
X9698914Y-16352657D01*
X9813200Y-16495514D02*
X9813200Y-16695514D01*
X9813200Y-16524086D02*
X9827486Y-16509800D01*
X9856057Y-16495514D01*
X9898914Y-16495514D01*
X9927486Y-16509800D01*
X9941771Y-16538371D01*
X9941771Y-16695514D01*
X10127486Y-16695514D02*
X10098914Y-16681229D01*
X10084628Y-16666943D01*
X10070343Y-16638371D01*
X10070343Y-16552657D01*
X10084628Y-16524086D01*
X10098914Y-16509800D01*
X10127486Y-16495514D01*
X10170343Y-16495514D01*
X10198914Y-16509800D01*
X10213200Y-16524086D01*
X10227486Y-16552657D01*
X10227486Y-16638371D01*
X10213200Y-16666943D01*
X10198914Y-16681229D01*
X10170343Y-16695514D01*
X10127486Y-16695514D01*
X10313200Y-16495514D02*
X10427486Y-16495514D01*
X10356057Y-16395514D02*
X10356057Y-16652657D01*
X10370343Y-16681229D01*
X10398914Y-16695514D01*
X10427486Y-16695514D01*
X10756057Y-16495514D02*
X10756057Y-16795514D01*
X10756057Y-16509800D02*
X10784628Y-16495514D01*
X10841771Y-16495514D01*
X10870343Y-16509800D01*
X10884628Y-16524086D01*
X10898914Y-16552657D01*
X10898914Y-16638371D01*
X10884628Y-16666943D01*
X10870343Y-16681229D01*
X10841771Y-16695514D01*
X10784628Y-16695514D01*
X10756057Y-16681229D01*
X11070343Y-16695514D02*
X11041771Y-16681229D01*
X11027486Y-16652657D01*
X11027486Y-16395514D01*
X11313200Y-16695514D02*
X11313200Y-16538371D01*
X11298914Y-16509800D01*
X11270343Y-16495514D01*
X11213200Y-16495514D01*
X11184628Y-16509800D01*
X11313200Y-16681229D02*
X11284628Y-16695514D01*
X11213200Y-16695514D01*
X11184628Y-16681229D01*
X11170343Y-16652657D01*
X11170343Y-16624086D01*
X11184628Y-16595514D01*
X11213200Y-16581229D01*
X11284628Y-16581229D01*
X11313200Y-16566943D01*
X11413200Y-16495514D02*
X11527486Y-16495514D01*
X11456057Y-16395514D02*
X11456057Y-16652657D01*
X11470343Y-16681229D01*
X11498914Y-16695514D01*
X11527486Y-16695514D01*
X11741771Y-16681229D02*
X11713200Y-16695514D01*
X11656057Y-16695514D01*
X11627486Y-16681229D01*
X11613200Y-16652657D01*
X11613200Y-16538371D01*
X11627486Y-16509800D01*
X11656057Y-16495514D01*
X11713200Y-16495514D01*
X11741771Y-16509800D01*
X11756057Y-16538371D01*
X11756057Y-16566943D01*
X11613200Y-16595514D01*
X12013200Y-16695514D02*
X12013200Y-16395514D01*
X12013200Y-16681229D02*
X11984628Y-16695514D01*
X11927486Y-16695514D01*
X11898914Y-16681229D01*
X11884628Y-16666943D01*
X11870343Y-16638371D01*
X11870343Y-16552657D01*
X11884628Y-16524086D01*
X11898914Y-16509800D01*
X11927486Y-16495514D01*
X11984628Y-16495514D01*
X12013200Y-16509800D01*
X12127486Y-16809800D02*
X12141771Y-16795514D01*
X12170343Y-16752657D01*
X12184628Y-16724086D01*
X12198914Y-16681229D01*
X12213200Y-16609800D01*
X12213200Y-16552657D01*
X12198914Y-16481229D01*
X12184628Y-16438371D01*
X12170343Y-16409800D01*
X12141771Y-16366943D01*
X12127486Y-16352657D01*
X1988200Y-17065800D02*
X2098200Y-16955800D01*
X1988200Y-16845800D01*
X1878200Y-16955800D01*
X1988200Y-17065800D01*
X2370343Y-16820086D02*
X2384628Y-16805800D01*
X2413200Y-16791514D01*
X2484628Y-16791514D01*
X2513200Y-16805800D01*
X2527486Y-16820086D01*
X2541771Y-16848657D01*
X2541771Y-16877229D01*
X2527486Y-16920086D01*
X2356057Y-17091514D01*
X2541771Y-17091514D01*
X2670343Y-17062943D02*
X2684628Y-17077229D01*
X2670343Y-17091514D01*
X2656057Y-17077229D01*
X2670343Y-17062943D01*
X2670343Y-17091514D01*
X2798914Y-16820086D02*
X2813200Y-16805800D01*
X2841771Y-16791514D01*
X2913200Y-16791514D01*
X2941771Y-16805800D01*
X2956057Y-16820086D01*
X2970343Y-16848657D01*
X2970343Y-16877229D01*
X2956057Y-16920086D01*
X2784628Y-17091514D01*
X2970343Y-17091514D01*
X3156057Y-16791514D02*
X3184628Y-16791514D01*
X3213200Y-16805800D01*
X3227486Y-16820086D01*
X3241771Y-16848657D01*
X3256057Y-16905800D01*
X3256057Y-16977229D01*
X3241771Y-17034372D01*
X3227486Y-17062943D01*
X3213200Y-17077229D01*
X3184628Y-17091514D01*
X3156057Y-17091514D01*
X3127486Y-17077229D01*
X3113200Y-17062943D01*
X3098914Y-17034372D01*
X3084628Y-16977229D01*
X3084628Y-16905800D01*
X3098914Y-16848657D01*
X3113200Y-16820086D01*
X3127486Y-16805800D01*
X3156057Y-16791514D01*
X3384628Y-17091514D02*
X3384628Y-16891514D01*
X3384628Y-16920086D02*
X3398914Y-16905800D01*
X3427486Y-16891514D01*
X3470343Y-16891514D01*
X3498914Y-16905800D01*
X3513200Y-16934372D01*
X3513200Y-17091514D01*
X3513200Y-16934372D02*
X3527486Y-16905800D01*
X3556057Y-16891514D01*
X3598914Y-16891514D01*
X3627486Y-16905800D01*
X3641771Y-16934372D01*
X3641771Y-17091514D01*
X3784628Y-17091514D02*
X3784628Y-16891514D01*
X3784628Y-16920086D02*
X3798914Y-16905800D01*
X3827486Y-16891514D01*
X3870343Y-16891514D01*
X3898914Y-16905800D01*
X3913200Y-16934372D01*
X3913200Y-17091514D01*
X3913200Y-16934372D02*
X3927486Y-16905800D01*
X3956057Y-16891514D01*
X3998914Y-16891514D01*
X4027486Y-16905800D01*
X4041771Y-16934372D01*
X4041771Y-17091514D01*
X4627486Y-16777229D02*
X4370343Y-17162943D01*
X5013200Y-16791514D02*
X5041771Y-16791514D01*
X5070343Y-16805800D01*
X5084628Y-16820086D01*
X5098914Y-16848657D01*
X5113200Y-16905800D01*
X5113200Y-16977229D01*
X5098914Y-17034372D01*
X5084628Y-17062943D01*
X5070343Y-17077229D01*
X5041771Y-17091514D01*
X5013200Y-17091514D01*
X4984628Y-17077229D01*
X4970343Y-17062943D01*
X4956057Y-17034372D01*
X4941771Y-16977229D01*
X4941771Y-16905800D01*
X4956057Y-16848657D01*
X4970343Y-16820086D01*
X4984628Y-16805800D01*
X5013200Y-16791514D01*
X5241771Y-17062943D02*
X5256057Y-17077229D01*
X5241771Y-17091514D01*
X5227486Y-17077229D01*
X5241771Y-17062943D01*
X5241771Y-17091514D01*
X5441771Y-16791514D02*
X5470343Y-16791514D01*
X5498914Y-16805800D01*
X5513200Y-16820086D01*
X5527486Y-16848657D01*
X5541771Y-16905800D01*
X5541771Y-16977229D01*
X5527486Y-17034372D01*
X5513200Y-17062943D01*
X5498914Y-17077229D01*
X5470343Y-17091514D01*
X5441771Y-17091514D01*
X5413200Y-17077229D01*
X5398914Y-17062943D01*
X5384628Y-17034372D01*
X5370343Y-16977229D01*
X5370343Y-16905800D01*
X5384628Y-16848657D01*
X5398914Y-16820086D01*
X5413200Y-16805800D01*
X5441771Y-16791514D01*
X5713200Y-16920086D02*
X5684628Y-16905800D01*
X5670343Y-16891514D01*
X5656057Y-16862943D01*
X5656057Y-16848657D01*
X5670343Y-16820086D01*
X5684628Y-16805800D01*
X5713200Y-16791514D01*
X5770343Y-16791514D01*
X5798914Y-16805800D01*
X5813200Y-16820086D01*
X5827486Y-16848657D01*
X5827486Y-16862943D01*
X5813200Y-16891514D01*
X5798914Y-16905800D01*
X5770343Y-16920086D01*
X5713200Y-16920086D01*
X5684628Y-16934372D01*
X5670343Y-16948657D01*
X5656057Y-16977229D01*
X5656057Y-17034372D01*
X5670343Y-17062943D01*
X5684628Y-17077229D01*
X5713200Y-17091514D01*
X5770343Y-17091514D01*
X5798914Y-17077229D01*
X5813200Y-17062943D01*
X5827486Y-17034372D01*
X5827486Y-16977229D01*
X5813200Y-16948657D01*
X5798914Y-16934372D01*
X5770343Y-16920086D01*
X5927486Y-16791514D02*
X6127486Y-16791514D01*
X5998914Y-17091514D01*
X6227486Y-16791514D02*
X6227486Y-16848657D01*
X6341771Y-16791514D02*
X6341771Y-16848657D01*
X6784628Y-17205800D02*
X6770343Y-17191514D01*
X6741771Y-17148657D01*
X6727486Y-17120086D01*
X6713200Y-17077229D01*
X6698914Y-17005800D01*
X6698914Y-16948657D01*
X6713200Y-16877229D01*
X6727486Y-16834372D01*
X6741771Y-16805800D01*
X6770343Y-16762943D01*
X6784628Y-16748657D01*
X7027486Y-16891514D02*
X7027486Y-17091514D01*
X6956057Y-16777229D02*
X6884628Y-16991514D01*
X7070343Y-16991514D01*
X7413200Y-17091514D02*
X7413200Y-16791514D01*
X7541771Y-17091514D02*
X7541771Y-16934372D01*
X7527486Y-16905800D01*
X7498914Y-16891514D01*
X7456057Y-16891514D01*
X7427486Y-16905800D01*
X7413200Y-16920086D01*
X7727486Y-17091514D02*
X7698914Y-17077229D01*
X7684628Y-17062943D01*
X7670343Y-17034372D01*
X7670343Y-16948657D01*
X7684628Y-16920086D01*
X7698914Y-16905800D01*
X7727486Y-16891514D01*
X7770343Y-16891514D01*
X7798914Y-16905800D01*
X7813200Y-16920086D01*
X7827486Y-16948657D01*
X7827486Y-17034372D01*
X7813200Y-17062943D01*
X7798914Y-17077229D01*
X7770343Y-17091514D01*
X7727486Y-17091514D01*
X7998914Y-17091514D02*
X7970343Y-17077229D01*
X7956057Y-17048657D01*
X7956057Y-16791514D01*
X8227486Y-17077229D02*
X8198914Y-17091514D01*
X8141771Y-17091514D01*
X8113200Y-17077229D01*
X8098914Y-17048657D01*
X8098914Y-16934372D01*
X8113200Y-16905800D01*
X8141771Y-16891514D01*
X8198914Y-16891514D01*
X8227486Y-16905800D01*
X8241771Y-16934372D01*
X8241771Y-16962943D01*
X8098914Y-16991514D01*
X8356057Y-17077229D02*
X8384628Y-17091514D01*
X8441771Y-17091514D01*
X8470343Y-17077229D01*
X8484628Y-17048657D01*
X8484628Y-17034372D01*
X8470343Y-17005800D01*
X8441771Y-16991514D01*
X8398914Y-16991514D01*
X8370343Y-16977229D01*
X8356057Y-16948657D01*
X8356057Y-16934372D01*
X8370343Y-16905800D01*
X8398914Y-16891514D01*
X8441771Y-16891514D01*
X8470343Y-16905800D01*
X8584628Y-17205800D02*
X8598914Y-17191514D01*
X8627486Y-17148657D01*
X8641771Y-17120086D01*
X8656057Y-17077229D01*
X8670343Y-17005800D01*
X8670343Y-16948657D01*
X8656057Y-16877229D01*
X8641771Y-16834372D01*
X8627486Y-16805800D01*
X8598914Y-16762943D01*
X8584628Y-16748657D01*
X9127486Y-17205800D02*
X9113200Y-17191514D01*
X9084628Y-17148657D01*
X9070343Y-17120086D01*
X9056057Y-17077229D01*
X9041771Y-17005800D01*
X9041771Y-16948657D01*
X9056057Y-16877229D01*
X9070343Y-16834372D01*
X9084628Y-16805800D01*
X9113200Y-16762943D01*
X9127486Y-16748657D01*
X9241771Y-16891514D02*
X9241771Y-17091514D01*
X9241771Y-16920086D02*
X9256057Y-16905800D01*
X9284628Y-16891514D01*
X9327486Y-16891514D01*
X9356057Y-16905800D01*
X9370343Y-16934372D01*
X9370343Y-17091514D01*
X9556057Y-17091514D02*
X9527486Y-17077229D01*
X9513200Y-17062943D01*
X9498914Y-17034372D01*
X9498914Y-16948657D01*
X9513200Y-16920086D01*
X9527486Y-16905800D01*
X9556057Y-16891514D01*
X9598914Y-16891514D01*
X9627486Y-16905800D01*
X9641771Y-16920086D01*
X9656057Y-16948657D01*
X9656057Y-17034372D01*
X9641771Y-17062943D01*
X9627486Y-17077229D01*
X9598914Y-17091514D01*
X9556057Y-17091514D01*
X9741771Y-16891514D02*
X9856057Y-16891514D01*
X9784628Y-16791514D02*
X9784628Y-17048657D01*
X9798914Y-17077229D01*
X9827486Y-17091514D01*
X9856057Y-17091514D01*
X10184628Y-16891514D02*
X10184628Y-17191514D01*
X10184628Y-16905800D02*
X10213200Y-16891514D01*
X10270343Y-16891514D01*
X10298914Y-16905800D01*
X10313200Y-16920086D01*
X10327486Y-16948657D01*
X10327486Y-17034372D01*
X10313200Y-17062943D01*
X10298914Y-17077229D01*
X10270343Y-17091514D01*
X10213200Y-17091514D01*
X10184628Y-17077229D01*
X10498914Y-17091514D02*
X10470343Y-17077229D01*
X10456057Y-17048657D01*
X10456057Y-16791514D01*
X10741771Y-17091514D02*
X10741771Y-16934372D01*
X10727486Y-16905800D01*
X10698914Y-16891514D01*
X10641771Y-16891514D01*
X10613200Y-16905800D01*
X10741771Y-17077229D02*
X10713200Y-17091514D01*
X10641771Y-17091514D01*
X10613200Y-17077229D01*
X10598914Y-17048657D01*
X10598914Y-17020086D01*
X10613200Y-16991514D01*
X10641771Y-16977229D01*
X10713200Y-16977229D01*
X10741771Y-16962943D01*
X10841771Y-16891514D02*
X10956057Y-16891514D01*
X10884628Y-16791514D02*
X10884628Y-17048657D01*
X10898914Y-17077229D01*
X10927486Y-17091514D01*
X10956057Y-17091514D01*
X11170343Y-17077229D02*
X11141771Y-17091514D01*
X11084628Y-17091514D01*
X11056057Y-17077229D01*
X11041771Y-17048657D01*
X11041771Y-16934372D01*
X11056057Y-16905800D01*
X11084628Y-16891514D01*
X11141771Y-16891514D01*
X11170343Y-16905800D01*
X11184628Y-16934372D01*
X11184628Y-16962943D01*
X11041771Y-16991514D01*
X11441771Y-17091514D02*
X11441771Y-16791514D01*
X11441771Y-17077229D02*
X11413200Y-17091514D01*
X11356057Y-17091514D01*
X11327486Y-17077229D01*
X11313200Y-17062943D01*
X11298914Y-17034372D01*
X11298914Y-16948657D01*
X11313200Y-16920086D01*
X11327486Y-16905800D01*
X11356057Y-16891514D01*
X11413200Y-16891514D01*
X11441771Y-16905800D01*
X11556057Y-17205800D02*
X11570343Y-17191514D01*
X11598914Y-17148657D01*
X11613200Y-17120086D01*
X11627486Y-17077229D01*
X11641771Y-17005800D01*
X11641771Y-16948657D01*
X11627486Y-16877229D01*
X11613200Y-16834372D01*
X11598914Y-16805800D01*
X11570343Y-16762943D01*
X11556057Y-16748657D01*
X1798200Y-17201800D02*
X2098200Y-17501800D01*
X2098200Y-17201800D02*
X1798200Y-17501800D01*
X2098200Y-17351800D02*
G75*
G03*
X2098200Y-17351800I-150000J0D01*
G01*
X2356057Y-17187514D02*
X2541771Y-17187514D01*
X2441771Y-17301800D01*
X2484628Y-17301800D01*
X2513200Y-17316086D01*
X2527486Y-17330372D01*
X2541771Y-17358943D01*
X2541771Y-17430372D01*
X2527486Y-17458943D01*
X2513200Y-17473229D01*
X2484628Y-17487514D01*
X2398914Y-17487514D01*
X2370343Y-17473229D01*
X2356057Y-17458943D01*
X2670343Y-17458943D02*
X2684628Y-17473229D01*
X2670343Y-17487514D01*
X2656057Y-17473229D01*
X2670343Y-17458943D01*
X2670343Y-17487514D01*
X2870343Y-17187514D02*
X2898914Y-17187514D01*
X2927486Y-17201800D01*
X2941771Y-17216086D01*
X2956057Y-17244657D01*
X2970343Y-17301800D01*
X2970343Y-17373229D01*
X2956057Y-17430372D01*
X2941771Y-17458943D01*
X2927486Y-17473229D01*
X2898914Y-17487514D01*
X2870343Y-17487514D01*
X2841771Y-17473229D01*
X2827486Y-17458943D01*
X2813200Y-17430372D01*
X2798914Y-17373229D01*
X2798914Y-17301800D01*
X2813200Y-17244657D01*
X2827486Y-17216086D01*
X2841771Y-17201800D01*
X2870343Y-17187514D01*
X3156057Y-17187514D02*
X3184628Y-17187514D01*
X3213200Y-17201800D01*
X3227486Y-17216086D01*
X3241771Y-17244657D01*
X3256057Y-17301800D01*
X3256057Y-17373229D01*
X3241771Y-17430372D01*
X3227486Y-17458943D01*
X3213200Y-17473229D01*
X3184628Y-17487514D01*
X3156057Y-17487514D01*
X3127486Y-17473229D01*
X3113200Y-17458943D01*
X3098914Y-17430372D01*
X3084628Y-17373229D01*
X3084628Y-17301800D01*
X3098914Y-17244657D01*
X3113200Y-17216086D01*
X3127486Y-17201800D01*
X3156057Y-17187514D01*
X3384628Y-17487514D02*
X3384628Y-17287514D01*
X3384628Y-17316086D02*
X3398914Y-17301800D01*
X3427486Y-17287514D01*
X3470343Y-17287514D01*
X3498914Y-17301800D01*
X3513200Y-17330372D01*
X3513200Y-17487514D01*
X3513200Y-17330372D02*
X3527486Y-17301800D01*
X3556057Y-17287514D01*
X3598914Y-17287514D01*
X3627486Y-17301800D01*
X3641771Y-17330372D01*
X3641771Y-17487514D01*
X3784628Y-17487514D02*
X3784628Y-17287514D01*
X3784628Y-17316086D02*
X3798914Y-17301800D01*
X3827486Y-17287514D01*
X3870343Y-17287514D01*
X3898914Y-17301800D01*
X3913200Y-17330372D01*
X3913200Y-17487514D01*
X3913200Y-17330372D02*
X3927486Y-17301800D01*
X3956057Y-17287514D01*
X3998914Y-17287514D01*
X4027486Y-17301800D01*
X4041771Y-17330372D01*
X4041771Y-17487514D01*
X4627486Y-17173229D02*
X4370343Y-17558943D01*
X5013200Y-17187514D02*
X5041771Y-17187514D01*
X5070343Y-17201800D01*
X5084628Y-17216086D01*
X5098914Y-17244657D01*
X5113200Y-17301800D01*
X5113200Y-17373229D01*
X5098914Y-17430372D01*
X5084628Y-17458943D01*
X5070343Y-17473229D01*
X5041771Y-17487514D01*
X5013200Y-17487514D01*
X4984628Y-17473229D01*
X4970343Y-17458943D01*
X4956057Y-17430372D01*
X4941771Y-17373229D01*
X4941771Y-17301800D01*
X4956057Y-17244657D01*
X4970343Y-17216086D01*
X4984628Y-17201800D01*
X5013200Y-17187514D01*
X5241771Y-17458943D02*
X5256057Y-17473229D01*
X5241771Y-17487514D01*
X5227486Y-17473229D01*
X5241771Y-17458943D01*
X5241771Y-17487514D01*
X5541771Y-17487514D02*
X5370343Y-17487514D01*
X5456057Y-17487514D02*
X5456057Y-17187514D01*
X5427486Y-17230372D01*
X5398914Y-17258943D01*
X5370343Y-17273229D01*
X5827486Y-17487514D02*
X5656057Y-17487514D01*
X5741771Y-17487514D02*
X5741771Y-17187514D01*
X5713200Y-17230372D01*
X5684628Y-17258943D01*
X5656057Y-17273229D01*
X5998914Y-17316086D02*
X5970343Y-17301800D01*
X5956057Y-17287514D01*
X5941771Y-17258943D01*
X5941771Y-17244657D01*
X5956057Y-17216086D01*
X5970343Y-17201800D01*
X5998914Y-17187514D01*
X6056057Y-17187514D01*
X6084628Y-17201800D01*
X6098914Y-17216086D01*
X6113200Y-17244657D01*
X6113200Y-17258943D01*
X6098914Y-17287514D01*
X6084628Y-17301800D01*
X6056057Y-17316086D01*
X5998914Y-17316086D01*
X5970343Y-17330372D01*
X5956057Y-17344657D01*
X5941771Y-17373229D01*
X5941771Y-17430372D01*
X5956057Y-17458943D01*
X5970343Y-17473229D01*
X5998914Y-17487514D01*
X6056057Y-17487514D01*
X6084628Y-17473229D01*
X6098914Y-17458943D01*
X6113200Y-17430372D01*
X6113200Y-17373229D01*
X6098914Y-17344657D01*
X6084628Y-17330372D01*
X6056057Y-17316086D01*
X6227486Y-17187514D02*
X6227486Y-17244657D01*
X6341771Y-17187514D02*
X6341771Y-17244657D01*
X6784628Y-17601800D02*
X6770343Y-17587514D01*
X6741771Y-17544657D01*
X6727486Y-17516086D01*
X6713200Y-17473229D01*
X6698914Y-17401800D01*
X6698914Y-17344657D01*
X6713200Y-17273229D01*
X6727486Y-17230372D01*
X6741771Y-17201800D01*
X6770343Y-17158943D01*
X6784628Y-17144657D01*
X7056057Y-17487514D02*
X6884628Y-17487514D01*
X6970343Y-17487514D02*
X6970343Y-17187514D01*
X6941771Y-17230372D01*
X6913200Y-17258943D01*
X6884628Y-17273229D01*
X7313200Y-17287514D02*
X7313200Y-17487514D01*
X7241771Y-17173229D02*
X7170343Y-17387514D01*
X7356057Y-17387514D01*
X7598914Y-17187514D02*
X7541771Y-17187514D01*
X7513200Y-17201800D01*
X7498914Y-17216086D01*
X7470343Y-17258943D01*
X7456057Y-17316086D01*
X7456057Y-17430372D01*
X7470343Y-17458943D01*
X7484628Y-17473229D01*
X7513200Y-17487514D01*
X7570343Y-17487514D01*
X7598914Y-17473229D01*
X7613200Y-17458943D01*
X7627486Y-17430372D01*
X7627486Y-17358943D01*
X7613200Y-17330372D01*
X7598914Y-17316086D01*
X7570343Y-17301800D01*
X7513200Y-17301800D01*
X7484628Y-17316086D01*
X7470343Y-17330372D01*
X7456057Y-17358943D01*
X7984628Y-17487514D02*
X7984628Y-17187514D01*
X8113200Y-17487514D02*
X8113200Y-17330372D01*
X8098914Y-17301800D01*
X8070343Y-17287514D01*
X8027486Y-17287514D01*
X7998914Y-17301800D01*
X7984628Y-17316086D01*
X8298914Y-17487514D02*
X8270343Y-17473229D01*
X8256057Y-17458943D01*
X8241771Y-17430372D01*
X8241771Y-17344657D01*
X8256057Y-17316086D01*
X8270343Y-17301800D01*
X8298914Y-17287514D01*
X8341771Y-17287514D01*
X8370343Y-17301800D01*
X8384628Y-17316086D01*
X8398914Y-17344657D01*
X8398914Y-17430372D01*
X8384628Y-17458943D01*
X8370343Y-17473229D01*
X8341771Y-17487514D01*
X8298914Y-17487514D01*
X8570343Y-17487514D02*
X8541771Y-17473229D01*
X8527486Y-17444657D01*
X8527486Y-17187514D01*
X8798914Y-17473229D02*
X8770343Y-17487514D01*
X8713200Y-17487514D01*
X8684628Y-17473229D01*
X8670343Y-17444657D01*
X8670343Y-17330372D01*
X8684628Y-17301800D01*
X8713200Y-17287514D01*
X8770343Y-17287514D01*
X8798914Y-17301800D01*
X8813200Y-17330372D01*
X8813200Y-17358943D01*
X8670343Y-17387514D01*
X8927486Y-17473229D02*
X8956057Y-17487514D01*
X9013200Y-17487514D01*
X9041771Y-17473229D01*
X9056057Y-17444657D01*
X9056057Y-17430372D01*
X9041771Y-17401800D01*
X9013200Y-17387514D01*
X8970343Y-17387514D01*
X8941771Y-17373229D01*
X8927486Y-17344657D01*
X8927486Y-17330372D01*
X8941771Y-17301800D01*
X8970343Y-17287514D01*
X9013200Y-17287514D01*
X9041771Y-17301800D01*
X9156057Y-17601800D02*
X9170343Y-17587514D01*
X9198914Y-17544657D01*
X9213200Y-17516086D01*
X9227486Y-17473229D01*
X9241771Y-17401800D01*
X9241771Y-17344657D01*
X9227486Y-17273229D01*
X9213200Y-17230372D01*
X9198914Y-17201800D01*
X9170343Y-17158943D01*
X9156057Y-17144657D01*
X9698914Y-17601800D02*
X9684628Y-17587514D01*
X9656057Y-17544657D01*
X9641771Y-17516086D01*
X9627486Y-17473229D01*
X9613200Y-17401800D01*
X9613200Y-17344657D01*
X9627486Y-17273229D01*
X9641771Y-17230372D01*
X9656057Y-17201800D01*
X9684628Y-17158943D01*
X9698914Y-17144657D01*
X9813200Y-17287514D02*
X9813200Y-17487514D01*
X9813200Y-17316086D02*
X9827486Y-17301800D01*
X9856057Y-17287514D01*
X9898914Y-17287514D01*
X9927486Y-17301800D01*
X9941771Y-17330372D01*
X9941771Y-17487514D01*
X10127486Y-17487514D02*
X10098914Y-17473229D01*
X10084628Y-17458943D01*
X10070343Y-17430372D01*
X10070343Y-17344657D01*
X10084628Y-17316086D01*
X10098914Y-17301800D01*
X10127486Y-17287514D01*
X10170343Y-17287514D01*
X10198914Y-17301800D01*
X10213200Y-17316086D01*
X10227486Y-17344657D01*
X10227486Y-17430372D01*
X10213200Y-17458943D01*
X10198914Y-17473229D01*
X10170343Y-17487514D01*
X10127486Y-17487514D01*
X10313200Y-17287514D02*
X10427486Y-17287514D01*
X10356057Y-17187514D02*
X10356057Y-17444657D01*
X10370343Y-17473229D01*
X10398914Y-17487514D01*
X10427486Y-17487514D01*
X10756057Y-17287514D02*
X10756057Y-17587514D01*
X10756057Y-17301800D02*
X10784628Y-17287514D01*
X10841771Y-17287514D01*
X10870343Y-17301800D01*
X10884628Y-17316086D01*
X10898914Y-17344657D01*
X10898914Y-17430372D01*
X10884628Y-17458943D01*
X10870343Y-17473229D01*
X10841771Y-17487514D01*
X10784628Y-17487514D01*
X10756057Y-17473229D01*
X11070343Y-17487514D02*
X11041771Y-17473229D01*
X11027486Y-17444657D01*
X11027486Y-17187514D01*
X11313200Y-17487514D02*
X11313200Y-17330372D01*
X11298914Y-17301800D01*
X11270343Y-17287514D01*
X11213200Y-17287514D01*
X11184628Y-17301800D01*
X11313200Y-17473229D02*
X11284628Y-17487514D01*
X11213200Y-17487514D01*
X11184628Y-17473229D01*
X11170343Y-17444657D01*
X11170343Y-17416086D01*
X11184628Y-17387514D01*
X11213200Y-17373229D01*
X11284628Y-17373229D01*
X11313200Y-17358943D01*
X11413200Y-17287514D02*
X11527486Y-17287514D01*
X11456057Y-17187514D02*
X11456057Y-17444657D01*
X11470343Y-17473229D01*
X11498914Y-17487514D01*
X11527486Y-17487514D01*
X11741771Y-17473229D02*
X11713200Y-17487514D01*
X11656057Y-17487514D01*
X11627486Y-17473229D01*
X11613200Y-17444657D01*
X11613200Y-17330372D01*
X11627486Y-17301800D01*
X11656057Y-17287514D01*
X11713200Y-17287514D01*
X11741771Y-17301800D01*
X11756057Y-17330372D01*
X11756057Y-17358943D01*
X11613200Y-17387514D01*
X12013200Y-17487514D02*
X12013200Y-17187514D01*
X12013200Y-17473229D02*
X11984628Y-17487514D01*
X11927486Y-17487514D01*
X11898914Y-17473229D01*
X11884628Y-17458943D01*
X11870343Y-17430372D01*
X11870343Y-17344657D01*
X11884628Y-17316086D01*
X11898914Y-17301800D01*
X11927486Y-17287514D01*
X11984628Y-17287514D01*
X12013200Y-17301800D01*
X12127486Y-17601800D02*
X12141771Y-17587514D01*
X12170343Y-17544657D01*
X12184628Y-17516086D01*
X12198914Y-17473229D01*
X12213200Y-17401800D01*
X12213200Y-17344657D01*
X12198914Y-17273229D01*
X12184628Y-17230372D01*
X12170343Y-17201800D01*
X12141771Y-17158943D01*
X12127486Y-17144657D01*
X1793400Y-17629400D02*
X2098200Y-17934200D01*
X2098200Y-17629400D02*
X1793400Y-17934200D01*
X1945800Y-17629400D02*
X1945800Y-17934200D01*
X1793400Y-17781800D02*
X2098200Y-17781800D01*
X2356057Y-17617514D02*
X2541771Y-17617514D01*
X2441771Y-17731800D01*
X2484628Y-17731800D01*
X2513200Y-17746086D01*
X2527486Y-17760372D01*
X2541771Y-17788943D01*
X2541771Y-17860372D01*
X2527486Y-17888943D01*
X2513200Y-17903229D01*
X2484628Y-17917514D01*
X2398914Y-17917514D01*
X2370343Y-17903229D01*
X2356057Y-17888943D01*
X2670343Y-17888943D02*
X2684628Y-17903229D01*
X2670343Y-17917514D01*
X2656057Y-17903229D01*
X2670343Y-17888943D01*
X2670343Y-17917514D01*
X2870343Y-17617514D02*
X2898914Y-17617514D01*
X2927486Y-17631800D01*
X2941771Y-17646086D01*
X2956057Y-17674657D01*
X2970343Y-17731800D01*
X2970343Y-17803229D01*
X2956057Y-17860372D01*
X2941771Y-17888943D01*
X2927486Y-17903229D01*
X2898914Y-17917514D01*
X2870343Y-17917514D01*
X2841771Y-17903229D01*
X2827486Y-17888943D01*
X2813200Y-17860372D01*
X2798914Y-17803229D01*
X2798914Y-17731800D01*
X2813200Y-17674657D01*
X2827486Y-17646086D01*
X2841771Y-17631800D01*
X2870343Y-17617514D01*
X3241771Y-17617514D02*
X3098914Y-17617514D01*
X3084628Y-17760372D01*
X3098914Y-17746086D01*
X3127486Y-17731800D01*
X3198914Y-17731800D01*
X3227486Y-17746086D01*
X3241771Y-17760372D01*
X3256057Y-17788943D01*
X3256057Y-17860372D01*
X3241771Y-17888943D01*
X3227486Y-17903229D01*
X3198914Y-17917514D01*
X3127486Y-17917514D01*
X3098914Y-17903229D01*
X3084628Y-17888943D01*
X3384628Y-17917514D02*
X3384628Y-17717514D01*
X3384628Y-17746086D02*
X3398914Y-17731800D01*
X3427486Y-17717514D01*
X3470343Y-17717514D01*
X3498914Y-17731800D01*
X3513200Y-17760372D01*
X3513200Y-17917514D01*
X3513200Y-17760372D02*
X3527486Y-17731800D01*
X3556057Y-17717514D01*
X3598914Y-17717514D01*
X3627486Y-17731800D01*
X3641771Y-17760372D01*
X3641771Y-17917514D01*
X3784628Y-17917514D02*
X3784628Y-17717514D01*
X3784628Y-17746086D02*
X3798914Y-17731800D01*
X3827486Y-17717514D01*
X3870343Y-17717514D01*
X3898914Y-17731800D01*
X3913200Y-17760372D01*
X3913200Y-17917514D01*
X3913200Y-17760372D02*
X3927486Y-17731800D01*
X3956057Y-17717514D01*
X3998914Y-17717514D01*
X4027486Y-17731800D01*
X4041771Y-17760372D01*
X4041771Y-17917514D01*
X4627486Y-17603229D02*
X4370343Y-17988943D01*
X5013200Y-17617514D02*
X5041771Y-17617514D01*
X5070343Y-17631800D01*
X5084628Y-17646086D01*
X5098914Y-17674657D01*
X5113200Y-17731800D01*
X5113200Y-17803229D01*
X5098914Y-17860372D01*
X5084628Y-17888943D01*
X5070343Y-17903229D01*
X5041771Y-17917514D01*
X5013200Y-17917514D01*
X4984628Y-17903229D01*
X4970343Y-17888943D01*
X4956057Y-17860372D01*
X4941771Y-17803229D01*
X4941771Y-17731800D01*
X4956057Y-17674657D01*
X4970343Y-17646086D01*
X4984628Y-17631800D01*
X5013200Y-17617514D01*
X5241771Y-17888943D02*
X5256057Y-17903229D01*
X5241771Y-17917514D01*
X5227486Y-17903229D01*
X5241771Y-17888943D01*
X5241771Y-17917514D01*
X5541771Y-17917514D02*
X5370343Y-17917514D01*
X5456057Y-17917514D02*
X5456057Y-17617514D01*
X5427486Y-17660372D01*
X5398914Y-17688943D01*
X5370343Y-17703229D01*
X5656057Y-17646086D02*
X5670343Y-17631800D01*
X5698914Y-17617514D01*
X5770343Y-17617514D01*
X5798914Y-17631800D01*
X5813200Y-17646086D01*
X5827486Y-17674657D01*
X5827486Y-17703229D01*
X5813200Y-17746086D01*
X5641771Y-17917514D01*
X5827486Y-17917514D01*
X6013200Y-17617514D02*
X6041771Y-17617514D01*
X6070343Y-17631800D01*
X6084628Y-17646086D01*
X6098914Y-17674657D01*
X6113200Y-17731800D01*
X6113200Y-17803229D01*
X6098914Y-17860372D01*
X6084628Y-17888943D01*
X6070343Y-17903229D01*
X6041771Y-17917514D01*
X6013200Y-17917514D01*
X5984628Y-17903229D01*
X5970343Y-17888943D01*
X5956057Y-17860372D01*
X5941771Y-17803229D01*
X5941771Y-17731800D01*
X5956057Y-17674657D01*
X5970343Y-17646086D01*
X5984628Y-17631800D01*
X6013200Y-17617514D01*
X6227486Y-17617514D02*
X6227486Y-17674657D01*
X6341771Y-17617514D02*
X6341771Y-17674657D01*
X6784628Y-18031800D02*
X6770343Y-18017514D01*
X6741771Y-17974657D01*
X6727486Y-17946086D01*
X6713200Y-17903229D01*
X6698914Y-17831800D01*
X6698914Y-17774657D01*
X6713200Y-17703229D01*
X6727486Y-17660372D01*
X6741771Y-17631800D01*
X6770343Y-17588943D01*
X6784628Y-17574657D01*
X7056057Y-17917514D02*
X6884628Y-17917514D01*
X6970343Y-17917514D02*
X6970343Y-17617514D01*
X6941771Y-17660372D01*
X6913200Y-17688943D01*
X6884628Y-17703229D01*
X7313200Y-17717514D02*
X7313200Y-17917514D01*
X7241771Y-17603229D02*
X7170343Y-17817514D01*
X7356057Y-17817514D01*
X7698914Y-17917514D02*
X7698914Y-17617514D01*
X7827486Y-17917514D02*
X7827486Y-17760372D01*
X7813200Y-17731800D01*
X7784628Y-17717514D01*
X7741771Y-17717514D01*
X7713200Y-17731800D01*
X7698914Y-17746086D01*
X8013200Y-17917514D02*
X7984628Y-17903229D01*
X7970343Y-17888943D01*
X7956057Y-17860372D01*
X7956057Y-17774657D01*
X7970343Y-17746086D01*
X7984628Y-17731800D01*
X8013200Y-17717514D01*
X8056057Y-17717514D01*
X8084628Y-17731800D01*
X8098914Y-17746086D01*
X8113200Y-17774657D01*
X8113200Y-17860372D01*
X8098914Y-17888943D01*
X8084628Y-17903229D01*
X8056057Y-17917514D01*
X8013200Y-17917514D01*
X8284628Y-17917514D02*
X8256057Y-17903229D01*
X8241771Y-17874657D01*
X8241771Y-17617514D01*
X8513200Y-17903229D02*
X8484628Y-17917514D01*
X8427486Y-17917514D01*
X8398914Y-17903229D01*
X8384628Y-17874657D01*
X8384628Y-17760372D01*
X8398914Y-17731800D01*
X8427486Y-17717514D01*
X8484628Y-17717514D01*
X8513200Y-17731800D01*
X8527486Y-17760372D01*
X8527486Y-17788943D01*
X8384628Y-17817514D01*
X8641771Y-17903229D02*
X8670343Y-17917514D01*
X8727486Y-17917514D01*
X8756057Y-17903229D01*
X8770343Y-17874657D01*
X8770343Y-17860372D01*
X8756057Y-17831800D01*
X8727486Y-17817514D01*
X8684628Y-17817514D01*
X8656057Y-17803229D01*
X8641771Y-17774657D01*
X8641771Y-17760372D01*
X8656057Y-17731800D01*
X8684628Y-17717514D01*
X8727486Y-17717514D01*
X8756057Y-17731800D01*
X8870343Y-18031800D02*
X8884628Y-18017514D01*
X8913200Y-17974657D01*
X8927486Y-17946086D01*
X8941771Y-17903229D01*
X8956057Y-17831800D01*
X8956057Y-17774657D01*
X8941771Y-17703229D01*
X8927486Y-17660372D01*
X8913200Y-17631800D01*
X8884628Y-17588943D01*
X8870343Y-17574657D01*
X9413200Y-18031800D02*
X9398914Y-18017514D01*
X9370343Y-17974657D01*
X9356057Y-17946086D01*
X9341771Y-17903229D01*
X9327486Y-17831800D01*
X9327486Y-17774657D01*
X9341771Y-17703229D01*
X9356057Y-17660372D01*
X9370343Y-17631800D01*
X9398914Y-17588943D01*
X9413200Y-17574657D01*
X9527486Y-17717514D02*
X9527486Y-17917514D01*
X9527486Y-17746086D02*
X9541771Y-17731800D01*
X9570343Y-17717514D01*
X9613200Y-17717514D01*
X9641771Y-17731800D01*
X9656057Y-17760372D01*
X9656057Y-17917514D01*
X9841771Y-17917514D02*
X9813200Y-17903229D01*
X9798914Y-17888943D01*
X9784628Y-17860372D01*
X9784628Y-17774657D01*
X9798914Y-17746086D01*
X9813200Y-17731800D01*
X9841771Y-17717514D01*
X9884628Y-17717514D01*
X9913200Y-17731800D01*
X9927486Y-17746086D01*
X9941771Y-17774657D01*
X9941771Y-17860372D01*
X9927486Y-17888943D01*
X9913200Y-17903229D01*
X9884628Y-17917514D01*
X9841771Y-17917514D01*
X10027486Y-17717514D02*
X10141771Y-17717514D01*
X10070343Y-17617514D02*
X10070343Y-17874657D01*
X10084628Y-17903229D01*
X10113200Y-17917514D01*
X10141771Y-17917514D01*
X10470343Y-17717514D02*
X10470343Y-18017514D01*
X10470343Y-17731800D02*
X10498914Y-17717514D01*
X10556057Y-17717514D01*
X10584628Y-17731800D01*
X10598914Y-17746086D01*
X10613200Y-17774657D01*
X10613200Y-17860372D01*
X10598914Y-17888943D01*
X10584628Y-17903229D01*
X10556057Y-17917514D01*
X10498914Y-17917514D01*
X10470343Y-17903229D01*
X10784628Y-17917514D02*
X10756057Y-17903229D01*
X10741771Y-17874657D01*
X10741771Y-17617514D01*
X11027486Y-17917514D02*
X11027486Y-17760372D01*
X11013200Y-17731800D01*
X10984628Y-17717514D01*
X10927486Y-17717514D01*
X10898914Y-17731800D01*
X11027486Y-17903229D02*
X10998914Y-17917514D01*
X10927486Y-17917514D01*
X10898914Y-17903229D01*
X10884628Y-17874657D01*
X10884628Y-17846086D01*
X10898914Y-17817514D01*
X10927486Y-17803229D01*
X10998914Y-17803229D01*
X11027486Y-17788943D01*
X11127486Y-17717514D02*
X11241771Y-17717514D01*
X11170343Y-17617514D02*
X11170343Y-17874657D01*
X11184628Y-17903229D01*
X11213200Y-17917514D01*
X11241771Y-17917514D01*
X11456057Y-17903229D02*
X11427486Y-17917514D01*
X11370343Y-17917514D01*
X11341771Y-17903229D01*
X11327486Y-17874657D01*
X11327486Y-17760372D01*
X11341771Y-17731800D01*
X11370343Y-17717514D01*
X11427486Y-17717514D01*
X11456057Y-17731800D01*
X11470343Y-17760372D01*
X11470343Y-17788943D01*
X11327486Y-17817514D01*
X11727486Y-17917514D02*
X11727486Y-17617514D01*
X11727486Y-17903229D02*
X11698914Y-17917514D01*
X11641771Y-17917514D01*
X11613200Y-17903229D01*
X11598914Y-17888943D01*
X11584628Y-17860372D01*
X11584628Y-17774657D01*
X11598914Y-17746086D01*
X11613200Y-17731800D01*
X11641771Y-17717514D01*
X11698914Y-17717514D01*
X11727486Y-17731800D01*
X11841771Y-18031800D02*
X11856057Y-18017514D01*
X11884628Y-17974657D01*
X11898914Y-17946086D01*
X11913200Y-17903229D01*
X11927486Y-17831800D01*
X11927486Y-17774657D01*
X11913200Y-17703229D01*
X11898914Y-17660372D01*
X11884628Y-17631800D01*
X11856057Y-17588943D01*
X11841771Y-17574657D01*
X1699420Y-18017210D02*
X2098200Y-18415990D01*
X2098200Y-18017210D02*
X1699420Y-18415990D01*
X2039801Y-18357592D02*
X2039801Y-18075609D01*
X1757818Y-18075609D01*
X1757818Y-18357592D01*
X2039801Y-18357592D01*
X2356057Y-18052314D02*
X2541771Y-18052314D01*
X2441771Y-18166600D01*
X2484628Y-18166600D01*
X2513200Y-18180886D01*
X2527486Y-18195172D01*
X2541771Y-18223743D01*
X2541771Y-18295172D01*
X2527486Y-18323743D01*
X2513200Y-18338029D01*
X2484628Y-18352314D01*
X2398914Y-18352314D01*
X2370343Y-18338029D01*
X2356057Y-18323743D01*
X2670343Y-18323743D02*
X2684628Y-18338029D01*
X2670343Y-18352314D01*
X2656057Y-18338029D01*
X2670343Y-18323743D01*
X2670343Y-18352314D01*
X2827486Y-18352314D02*
X2884628Y-18352314D01*
X2913200Y-18338029D01*
X2927486Y-18323743D01*
X2956057Y-18280886D01*
X2970343Y-18223743D01*
X2970343Y-18109457D01*
X2956057Y-18080886D01*
X2941771Y-18066600D01*
X2913200Y-18052314D01*
X2856057Y-18052314D01*
X2827486Y-18066600D01*
X2813200Y-18080886D01*
X2798914Y-18109457D01*
X2798914Y-18180886D01*
X2813200Y-18209457D01*
X2827486Y-18223743D01*
X2856057Y-18238029D01*
X2913200Y-18238029D01*
X2941771Y-18223743D01*
X2956057Y-18209457D01*
X2970343Y-18180886D01*
X3113200Y-18352314D02*
X3170343Y-18352314D01*
X3198914Y-18338029D01*
X3213200Y-18323743D01*
X3241771Y-18280886D01*
X3256057Y-18223743D01*
X3256057Y-18109457D01*
X3241771Y-18080886D01*
X3227486Y-18066600D01*
X3198914Y-18052314D01*
X3141771Y-18052314D01*
X3113200Y-18066600D01*
X3098914Y-18080886D01*
X3084628Y-18109457D01*
X3084628Y-18180886D01*
X3098914Y-18209457D01*
X3113200Y-18223743D01*
X3141771Y-18238029D01*
X3198914Y-18238029D01*
X3227486Y-18223743D01*
X3241771Y-18209457D01*
X3256057Y-18180886D01*
X3384628Y-18352314D02*
X3384628Y-18152314D01*
X3384628Y-18180886D02*
X3398914Y-18166600D01*
X3427486Y-18152314D01*
X3470343Y-18152314D01*
X3498914Y-18166600D01*
X3513200Y-18195172D01*
X3513200Y-18352314D01*
X3513200Y-18195172D02*
X3527486Y-18166600D01*
X3556057Y-18152314D01*
X3598914Y-18152314D01*
X3627486Y-18166600D01*
X3641771Y-18195172D01*
X3641771Y-18352314D01*
X3784628Y-18352314D02*
X3784628Y-18152314D01*
X3784628Y-18180886D02*
X3798914Y-18166600D01*
X3827486Y-18152314D01*
X3870343Y-18152314D01*
X3898914Y-18166600D01*
X3913200Y-18195172D01*
X3913200Y-18352314D01*
X3913200Y-18195172D02*
X3927486Y-18166600D01*
X3956057Y-18152314D01*
X3998914Y-18152314D01*
X4027486Y-18166600D01*
X4041771Y-18195172D01*
X4041771Y-18352314D01*
X4627486Y-18038029D02*
X4370343Y-18423743D01*
X5013200Y-18052314D02*
X5041771Y-18052314D01*
X5070343Y-18066600D01*
X5084628Y-18080886D01*
X5098914Y-18109457D01*
X5113200Y-18166600D01*
X5113200Y-18238029D01*
X5098914Y-18295172D01*
X5084628Y-18323743D01*
X5070343Y-18338029D01*
X5041771Y-18352314D01*
X5013200Y-18352314D01*
X4984628Y-18338029D01*
X4970343Y-18323743D01*
X4956057Y-18295172D01*
X4941771Y-18238029D01*
X4941771Y-18166600D01*
X4956057Y-18109457D01*
X4970343Y-18080886D01*
X4984628Y-18066600D01*
X5013200Y-18052314D01*
X5241771Y-18323743D02*
X5256057Y-18338029D01*
X5241771Y-18352314D01*
X5227486Y-18338029D01*
X5241771Y-18323743D01*
X5241771Y-18352314D01*
X5541771Y-18352314D02*
X5370343Y-18352314D01*
X5456057Y-18352314D02*
X5456057Y-18052314D01*
X5427486Y-18095172D01*
X5398914Y-18123743D01*
X5370343Y-18138029D01*
X5813200Y-18052314D02*
X5670343Y-18052314D01*
X5656057Y-18195172D01*
X5670343Y-18180886D01*
X5698914Y-18166600D01*
X5770343Y-18166600D01*
X5798914Y-18180886D01*
X5813200Y-18195172D01*
X5827486Y-18223743D01*
X5827486Y-18295172D01*
X5813200Y-18323743D01*
X5798914Y-18338029D01*
X5770343Y-18352314D01*
X5698914Y-18352314D01*
X5670343Y-18338029D01*
X5656057Y-18323743D01*
X5927486Y-18052314D02*
X6127486Y-18052314D01*
X5998914Y-18352314D01*
X6227486Y-18052314D02*
X6227486Y-18109457D01*
X6341771Y-18052314D02*
X6341771Y-18109457D01*
X6784628Y-18466600D02*
X6770343Y-18452314D01*
X6741771Y-18409457D01*
X6727486Y-18380886D01*
X6713200Y-18338029D01*
X6698914Y-18266600D01*
X6698914Y-18209457D01*
X6713200Y-18138029D01*
X6727486Y-18095172D01*
X6741771Y-18066600D01*
X6770343Y-18023743D01*
X6784628Y-18009457D01*
X6870343Y-18052314D02*
X7056057Y-18052314D01*
X6956057Y-18166600D01*
X6998914Y-18166600D01*
X7027486Y-18180886D01*
X7041771Y-18195172D01*
X7056057Y-18223743D01*
X7056057Y-18295172D01*
X7041771Y-18323743D01*
X7027486Y-18338029D01*
X6998914Y-18352314D01*
X6913200Y-18352314D01*
X6884628Y-18338029D01*
X6870343Y-18323743D01*
X7341771Y-18352314D02*
X7170343Y-18352314D01*
X7256057Y-18352314D02*
X7256057Y-18052314D01*
X7227486Y-18095172D01*
X7198914Y-18123743D01*
X7170343Y-18138029D01*
X7698914Y-18352314D02*
X7698914Y-18052314D01*
X7827486Y-18352314D02*
X7827486Y-18195172D01*
X7813200Y-18166600D01*
X7784628Y-18152314D01*
X7741771Y-18152314D01*
X7713200Y-18166600D01*
X7698914Y-18180886D01*
X8013200Y-18352314D02*
X7984628Y-18338029D01*
X7970343Y-18323743D01*
X7956057Y-18295172D01*
X7956057Y-18209457D01*
X7970343Y-18180886D01*
X7984628Y-18166600D01*
X8013200Y-18152314D01*
X8056057Y-18152314D01*
X8084628Y-18166600D01*
X8098914Y-18180886D01*
X8113200Y-18209457D01*
X8113200Y-18295172D01*
X8098914Y-18323743D01*
X8084628Y-18338029D01*
X8056057Y-18352314D01*
X8013200Y-18352314D01*
X8284628Y-18352314D02*
X8256057Y-18338029D01*
X8241771Y-18309457D01*
X8241771Y-18052314D01*
X8513200Y-18338029D02*
X8484628Y-18352314D01*
X8427486Y-18352314D01*
X8398914Y-18338029D01*
X8384628Y-18309457D01*
X8384628Y-18195172D01*
X8398914Y-18166600D01*
X8427486Y-18152314D01*
X8484628Y-18152314D01*
X8513200Y-18166600D01*
X8527486Y-18195172D01*
X8527486Y-18223743D01*
X8384628Y-18252314D01*
X8641771Y-18338029D02*
X8670343Y-18352314D01*
X8727486Y-18352314D01*
X8756057Y-18338029D01*
X8770343Y-18309457D01*
X8770343Y-18295172D01*
X8756057Y-18266600D01*
X8727486Y-18252314D01*
X8684628Y-18252314D01*
X8656057Y-18238029D01*
X8641771Y-18209457D01*
X8641771Y-18195172D01*
X8656057Y-18166600D01*
X8684628Y-18152314D01*
X8727486Y-18152314D01*
X8756057Y-18166600D01*
X8870343Y-18466600D02*
X8884628Y-18452314D01*
X8913200Y-18409457D01*
X8927486Y-18380886D01*
X8941771Y-18338029D01*
X8956057Y-18266600D01*
X8956057Y-18209457D01*
X8941771Y-18138029D01*
X8927486Y-18095172D01*
X8913200Y-18066600D01*
X8884628Y-18023743D01*
X8870343Y-18009457D01*
X9413200Y-18466600D02*
X9398914Y-18452314D01*
X9370343Y-18409457D01*
X9356057Y-18380886D01*
X9341771Y-18338029D01*
X9327486Y-18266600D01*
X9327486Y-18209457D01*
X9341771Y-18138029D01*
X9356057Y-18095172D01*
X9370343Y-18066600D01*
X9398914Y-18023743D01*
X9413200Y-18009457D01*
X9527486Y-18152314D02*
X9527486Y-18352314D01*
X9527486Y-18180886D02*
X9541771Y-18166600D01*
X9570343Y-18152314D01*
X9613200Y-18152314D01*
X9641771Y-18166600D01*
X9656057Y-18195172D01*
X9656057Y-18352314D01*
X9841771Y-18352314D02*
X9813200Y-18338029D01*
X9798914Y-18323743D01*
X9784628Y-18295172D01*
X9784628Y-18209457D01*
X9798914Y-18180886D01*
X9813200Y-18166600D01*
X9841771Y-18152314D01*
X9884628Y-18152314D01*
X9913200Y-18166600D01*
X9927486Y-18180886D01*
X9941771Y-18209457D01*
X9941771Y-18295172D01*
X9927486Y-18323743D01*
X9913200Y-18338029D01*
X9884628Y-18352314D01*
X9841771Y-18352314D01*
X10027486Y-18152314D02*
X10141771Y-18152314D01*
X10070343Y-18052314D02*
X10070343Y-18309457D01*
X10084628Y-18338029D01*
X10113200Y-18352314D01*
X10141771Y-18352314D01*
X10470343Y-18152314D02*
X10470343Y-18452314D01*
X10470343Y-18166600D02*
X10498914Y-18152314D01*
X10556057Y-18152314D01*
X10584628Y-18166600D01*
X10598914Y-18180886D01*
X10613200Y-18209457D01*
X10613200Y-18295172D01*
X10598914Y-18323743D01*
X10584628Y-18338029D01*
X10556057Y-18352314D01*
X10498914Y-18352314D01*
X10470343Y-18338029D01*
X10784628Y-18352314D02*
X10756057Y-18338029D01*
X10741771Y-18309457D01*
X10741771Y-18052314D01*
X11027486Y-18352314D02*
X11027486Y-18195172D01*
X11013200Y-18166600D01*
X10984628Y-18152314D01*
X10927486Y-18152314D01*
X10898914Y-18166600D01*
X11027486Y-18338029D02*
X10998914Y-18352314D01*
X10927486Y-18352314D01*
X10898914Y-18338029D01*
X10884628Y-18309457D01*
X10884628Y-18280886D01*
X10898914Y-18252314D01*
X10927486Y-18238029D01*
X10998914Y-18238029D01*
X11027486Y-18223743D01*
X11127486Y-18152314D02*
X11241771Y-18152314D01*
X11170343Y-18052314D02*
X11170343Y-18309457D01*
X11184628Y-18338029D01*
X11213200Y-18352314D01*
X11241771Y-18352314D01*
X11456057Y-18338029D02*
X11427486Y-18352314D01*
X11370343Y-18352314D01*
X11341771Y-18338029D01*
X11327486Y-18309457D01*
X11327486Y-18195172D01*
X11341771Y-18166600D01*
X11370343Y-18152314D01*
X11427486Y-18152314D01*
X11456057Y-18166600D01*
X11470343Y-18195172D01*
X11470343Y-18223743D01*
X11327486Y-18252314D01*
X11727486Y-18352314D02*
X11727486Y-18052314D01*
X11727486Y-18338029D02*
X11698914Y-18352314D01*
X11641771Y-18352314D01*
X11613200Y-18338029D01*
X11598914Y-18323743D01*
X11584628Y-18295172D01*
X11584628Y-18209457D01*
X11598914Y-18180886D01*
X11613200Y-18166600D01*
X11641771Y-18152314D01*
X11698914Y-18152314D01*
X11727486Y-18166600D01*
X11841771Y-18466600D02*
X11856057Y-18452314D01*
X11884628Y-18409457D01*
X11898914Y-18380886D01*
X11913200Y-18338029D01*
X11927486Y-18266600D01*
X11927486Y-18209457D01*
X11913200Y-18138029D01*
X11898914Y-18095172D01*
X11884628Y-18066600D01*
X11856057Y-18023743D01*
X11841771Y-18009457D01*
X1688200Y-18540380D02*
X2098200Y-18950380D01*
X2098200Y-18540380D02*
X1688200Y-18950380D01*
X1893200Y-18950380D02*
X2098200Y-18745380D01*
X1893200Y-18540380D01*
X1688200Y-18745380D01*
X1893200Y-18950380D01*
X2513200Y-18681094D02*
X2513200Y-18881094D01*
X2441771Y-18566809D02*
X2370343Y-18781094D01*
X2556057Y-18781094D01*
X2670343Y-18852523D02*
X2684628Y-18866809D01*
X2670343Y-18881094D01*
X2656057Y-18866809D01*
X2670343Y-18852523D01*
X2670343Y-18881094D01*
X2970343Y-18881094D02*
X2798914Y-18881094D01*
X2884628Y-18881094D02*
X2884628Y-18581094D01*
X2856057Y-18623952D01*
X2827486Y-18652523D01*
X2798914Y-18666809D01*
X3156057Y-18581094D02*
X3184628Y-18581094D01*
X3213200Y-18595380D01*
X3227486Y-18609666D01*
X3241771Y-18638237D01*
X3256057Y-18695380D01*
X3256057Y-18766809D01*
X3241771Y-18823952D01*
X3227486Y-18852523D01*
X3213200Y-18866809D01*
X3184628Y-18881094D01*
X3156057Y-18881094D01*
X3127486Y-18866809D01*
X3113200Y-18852523D01*
X3098914Y-18823952D01*
X3084628Y-18766809D01*
X3084628Y-18695380D01*
X3098914Y-18638237D01*
X3113200Y-18609666D01*
X3127486Y-18595380D01*
X3156057Y-18581094D01*
X3384628Y-18881094D02*
X3384628Y-18681094D01*
X3384628Y-18709666D02*
X3398914Y-18695380D01*
X3427486Y-18681094D01*
X3470343Y-18681094D01*
X3498914Y-18695380D01*
X3513200Y-18723952D01*
X3513200Y-18881094D01*
X3513200Y-18723952D02*
X3527486Y-18695380D01*
X3556057Y-18681094D01*
X3598914Y-18681094D01*
X3627486Y-18695380D01*
X3641771Y-18723952D01*
X3641771Y-18881094D01*
X3784628Y-18881094D02*
X3784628Y-18681094D01*
X3784628Y-18709666D02*
X3798914Y-18695380D01*
X3827486Y-18681094D01*
X3870343Y-18681094D01*
X3898914Y-18695380D01*
X3913200Y-18723952D01*
X3913200Y-18881094D01*
X3913200Y-18723952D02*
X3927486Y-18695380D01*
X3956057Y-18681094D01*
X3998914Y-18681094D01*
X4027486Y-18695380D01*
X4041771Y-18723952D01*
X4041771Y-18881094D01*
X4627486Y-18566809D02*
X4370343Y-18952523D01*
X5013200Y-18581094D02*
X5041771Y-18581094D01*
X5070343Y-18595380D01*
X5084628Y-18609666D01*
X5098914Y-18638237D01*
X5113200Y-18695380D01*
X5113200Y-18766809D01*
X5098914Y-18823952D01*
X5084628Y-18852523D01*
X5070343Y-18866809D01*
X5041771Y-18881094D01*
X5013200Y-18881094D01*
X4984628Y-18866809D01*
X4970343Y-18852523D01*
X4956057Y-18823952D01*
X4941771Y-18766809D01*
X4941771Y-18695380D01*
X4956057Y-18638237D01*
X4970343Y-18609666D01*
X4984628Y-18595380D01*
X5013200Y-18581094D01*
X5241771Y-18852523D02*
X5256057Y-18866809D01*
X5241771Y-18881094D01*
X5227486Y-18866809D01*
X5241771Y-18852523D01*
X5241771Y-18881094D01*
X5541771Y-18881094D02*
X5370343Y-18881094D01*
X5456057Y-18881094D02*
X5456057Y-18581094D01*
X5427486Y-18623952D01*
X5398914Y-18652523D01*
X5370343Y-18666809D01*
X5798914Y-18581094D02*
X5741771Y-18581094D01*
X5713200Y-18595380D01*
X5698914Y-18609666D01*
X5670343Y-18652523D01*
X5656057Y-18709666D01*
X5656057Y-18823952D01*
X5670343Y-18852523D01*
X5684628Y-18866809D01*
X5713200Y-18881094D01*
X5770343Y-18881094D01*
X5798914Y-18866809D01*
X5813200Y-18852523D01*
X5827486Y-18823952D01*
X5827486Y-18752523D01*
X5813200Y-18723952D01*
X5798914Y-18709666D01*
X5770343Y-18695380D01*
X5713200Y-18695380D01*
X5684628Y-18709666D01*
X5670343Y-18723952D01*
X5656057Y-18752523D01*
X6113200Y-18881094D02*
X5941771Y-18881094D01*
X6027486Y-18881094D02*
X6027486Y-18581094D01*
X5998914Y-18623952D01*
X5970343Y-18652523D01*
X5941771Y-18666809D01*
X6227486Y-18581094D02*
X6227486Y-18638237D01*
X6341771Y-18581094D02*
X6341771Y-18638237D01*
X6784628Y-18995380D02*
X6770343Y-18981094D01*
X6741771Y-18938237D01*
X6727486Y-18909666D01*
X6713200Y-18866809D01*
X6698914Y-18795380D01*
X6698914Y-18738237D01*
X6713200Y-18666809D01*
X6727486Y-18623952D01*
X6741771Y-18595380D01*
X6770343Y-18552523D01*
X6784628Y-18538237D01*
X6870343Y-18581094D02*
X7070343Y-18581094D01*
X6941771Y-18881094D01*
X7156057Y-18581094D02*
X7341771Y-18581094D01*
X7241771Y-18695380D01*
X7284628Y-18695380D01*
X7313200Y-18709666D01*
X7327486Y-18723952D01*
X7341771Y-18752523D01*
X7341771Y-18823952D01*
X7327486Y-18852523D01*
X7313200Y-18866809D01*
X7284628Y-18881094D01*
X7198914Y-18881094D01*
X7170343Y-18866809D01*
X7156057Y-18852523D01*
X7698914Y-18881094D02*
X7698914Y-18581094D01*
X7827486Y-18881094D02*
X7827486Y-18723952D01*
X7813200Y-18695380D01*
X7784628Y-18681094D01*
X7741771Y-18681094D01*
X7713200Y-18695380D01*
X7698914Y-18709666D01*
X8013200Y-18881094D02*
X7984628Y-18866809D01*
X7970343Y-18852523D01*
X7956057Y-18823952D01*
X7956057Y-18738237D01*
X7970343Y-18709666D01*
X7984628Y-18695380D01*
X8013200Y-18681094D01*
X8056057Y-18681094D01*
X8084628Y-18695380D01*
X8098914Y-18709666D01*
X8113200Y-18738237D01*
X8113200Y-18823952D01*
X8098914Y-18852523D01*
X8084628Y-18866809D01*
X8056057Y-18881094D01*
X8013200Y-18881094D01*
X8284628Y-18881094D02*
X8256057Y-18866809D01*
X8241771Y-18838237D01*
X8241771Y-18581094D01*
X8513200Y-18866809D02*
X8484628Y-18881094D01*
X8427486Y-18881094D01*
X8398914Y-18866809D01*
X8384628Y-18838237D01*
X8384628Y-18723952D01*
X8398914Y-18695380D01*
X8427486Y-18681094D01*
X8484628Y-18681094D01*
X8513200Y-18695380D01*
X8527486Y-18723952D01*
X8527486Y-18752523D01*
X8384628Y-18781094D01*
X8641771Y-18866809D02*
X8670343Y-18881094D01*
X8727486Y-18881094D01*
X8756057Y-18866809D01*
X8770343Y-18838237D01*
X8770343Y-18823952D01*
X8756057Y-18795380D01*
X8727486Y-18781094D01*
X8684628Y-18781094D01*
X8656057Y-18766809D01*
X8641771Y-18738237D01*
X8641771Y-18723952D01*
X8656057Y-18695380D01*
X8684628Y-18681094D01*
X8727486Y-18681094D01*
X8756057Y-18695380D01*
X8870343Y-18995380D02*
X8884628Y-18981094D01*
X8913200Y-18938237D01*
X8927486Y-18909666D01*
X8941771Y-18866809D01*
X8956057Y-18795380D01*
X8956057Y-18738237D01*
X8941771Y-18666809D01*
X8927486Y-18623952D01*
X8913200Y-18595380D01*
X8884628Y-18552523D01*
X8870343Y-18538237D01*
X9413200Y-18995380D02*
X9398914Y-18981094D01*
X9370343Y-18938237D01*
X9356057Y-18909666D01*
X9341771Y-18866809D01*
X9327486Y-18795380D01*
X9327486Y-18738237D01*
X9341771Y-18666809D01*
X9356057Y-18623952D01*
X9370343Y-18595380D01*
X9398914Y-18552523D01*
X9413200Y-18538237D01*
X9527486Y-18681094D02*
X9527486Y-18881094D01*
X9527486Y-18709666D02*
X9541771Y-18695380D01*
X9570343Y-18681094D01*
X9613200Y-18681094D01*
X9641771Y-18695380D01*
X9656057Y-18723952D01*
X9656057Y-18881094D01*
X9841771Y-18881094D02*
X9813200Y-18866809D01*
X9798914Y-18852523D01*
X9784628Y-18823952D01*
X9784628Y-18738237D01*
X9798914Y-18709666D01*
X9813200Y-18695380D01*
X9841771Y-18681094D01*
X9884628Y-18681094D01*
X9913200Y-18695380D01*
X9927486Y-18709666D01*
X9941771Y-18738237D01*
X9941771Y-18823952D01*
X9927486Y-18852523D01*
X9913200Y-18866809D01*
X9884628Y-18881094D01*
X9841771Y-18881094D01*
X10027486Y-18681094D02*
X10141771Y-18681094D01*
X10070343Y-18581094D02*
X10070343Y-18838237D01*
X10084628Y-18866809D01*
X10113200Y-18881094D01*
X10141771Y-18881094D01*
X10470343Y-18681094D02*
X10470343Y-18981094D01*
X10470343Y-18695380D02*
X10498914Y-18681094D01*
X10556057Y-18681094D01*
X10584628Y-18695380D01*
X10598914Y-18709666D01*
X10613200Y-18738237D01*
X10613200Y-18823952D01*
X10598914Y-18852523D01*
X10584628Y-18866809D01*
X10556057Y-18881094D01*
X10498914Y-18881094D01*
X10470343Y-18866809D01*
X10784628Y-18881094D02*
X10756057Y-18866809D01*
X10741771Y-18838237D01*
X10741771Y-18581094D01*
X11027486Y-18881094D02*
X11027486Y-18723952D01*
X11013200Y-18695380D01*
X10984628Y-18681094D01*
X10927486Y-18681094D01*
X10898914Y-18695380D01*
X11027486Y-18866809D02*
X10998914Y-18881094D01*
X10927486Y-18881094D01*
X10898914Y-18866809D01*
X10884628Y-18838237D01*
X10884628Y-18809666D01*
X10898914Y-18781094D01*
X10927486Y-18766809D01*
X10998914Y-18766809D01*
X11027486Y-18752523D01*
X11127486Y-18681094D02*
X11241771Y-18681094D01*
X11170343Y-18581094D02*
X11170343Y-18838237D01*
X11184628Y-18866809D01*
X11213200Y-18881094D01*
X11241771Y-18881094D01*
X11456057Y-18866809D02*
X11427486Y-18881094D01*
X11370343Y-18881094D01*
X11341771Y-18866809D01*
X11327486Y-18838237D01*
X11327486Y-18723952D01*
X11341771Y-18695380D01*
X11370343Y-18681094D01*
X11427486Y-18681094D01*
X11456057Y-18695380D01*
X11470343Y-18723952D01*
X11470343Y-18752523D01*
X11327486Y-18781094D01*
X11727486Y-18881094D02*
X11727486Y-18581094D01*
X11727486Y-18866809D02*
X11698914Y-18881094D01*
X11641771Y-18881094D01*
X11613200Y-18866809D01*
X11598914Y-18852523D01*
X11584628Y-18823952D01*
X11584628Y-18738237D01*
X11598914Y-18709666D01*
X11613200Y-18695380D01*
X11641771Y-18681094D01*
X11698914Y-18681094D01*
X11727486Y-18695380D01*
X11841771Y-18995380D02*
X11856057Y-18981094D01*
X11884628Y-18938237D01*
X11898914Y-18909666D01*
X11913200Y-18866809D01*
X11927486Y-18795380D01*
X11927486Y-18738237D01*
X11913200Y-18666809D01*
X11898914Y-18623952D01*
X11884628Y-18595380D01*
X11856057Y-18552523D01*
X11841771Y-18538237D01*
X1883200Y-19070380D02*
X1883200Y-19500380D01*
X1668200Y-19285380D02*
X2098200Y-19285380D01*
X2098200Y-19285380D02*
G75*
G03*
X2098200Y-19285380I-215000J0D01*
G01*
X2513200Y-19221094D02*
X2513200Y-19421094D01*
X2441771Y-19106809D02*
X2370343Y-19321094D01*
X2556057Y-19321094D01*
X2670343Y-19392523D02*
X2684628Y-19406809D01*
X2670343Y-19421094D01*
X2656057Y-19406809D01*
X2670343Y-19392523D01*
X2670343Y-19421094D01*
X2784628Y-19121094D02*
X2970343Y-19121094D01*
X2870343Y-19235380D01*
X2913200Y-19235380D01*
X2941771Y-19249666D01*
X2956057Y-19263952D01*
X2970343Y-19292523D01*
X2970343Y-19363952D01*
X2956057Y-19392523D01*
X2941771Y-19406809D01*
X2913200Y-19421094D01*
X2827486Y-19421094D01*
X2798914Y-19406809D01*
X2784628Y-19392523D01*
X3156057Y-19121094D02*
X3184628Y-19121094D01*
X3213200Y-19135380D01*
X3227486Y-19149666D01*
X3241771Y-19178237D01*
X3256057Y-19235380D01*
X3256057Y-19306809D01*
X3241771Y-19363952D01*
X3227486Y-19392523D01*
X3213200Y-19406809D01*
X3184628Y-19421094D01*
X3156057Y-19421094D01*
X3127486Y-19406809D01*
X3113200Y-19392523D01*
X3098914Y-19363952D01*
X3084628Y-19306809D01*
X3084628Y-19235380D01*
X3098914Y-19178237D01*
X3113200Y-19149666D01*
X3127486Y-19135380D01*
X3156057Y-19121094D01*
X3384628Y-19421094D02*
X3384628Y-19221094D01*
X3384628Y-19249666D02*
X3398914Y-19235380D01*
X3427486Y-19221094D01*
X3470343Y-19221094D01*
X3498914Y-19235380D01*
X3513200Y-19263952D01*
X3513200Y-19421094D01*
X3513200Y-19263952D02*
X3527486Y-19235380D01*
X3556057Y-19221094D01*
X3598914Y-19221094D01*
X3627486Y-19235380D01*
X3641771Y-19263952D01*
X3641771Y-19421094D01*
X3784628Y-19421094D02*
X3784628Y-19221094D01*
X3784628Y-19249666D02*
X3798914Y-19235380D01*
X3827486Y-19221094D01*
X3870343Y-19221094D01*
X3898914Y-19235380D01*
X3913200Y-19263952D01*
X3913200Y-19421094D01*
X3913200Y-19263952D02*
X3927486Y-19235380D01*
X3956057Y-19221094D01*
X3998914Y-19221094D01*
X4027486Y-19235380D01*
X4041771Y-19263952D01*
X4041771Y-19421094D01*
X4627486Y-19106809D02*
X4370343Y-19492523D01*
X5013200Y-19121094D02*
X5041771Y-19121094D01*
X5070343Y-19135380D01*
X5084628Y-19149666D01*
X5098914Y-19178237D01*
X5113200Y-19235380D01*
X5113200Y-19306809D01*
X5098914Y-19363952D01*
X5084628Y-19392523D01*
X5070343Y-19406809D01*
X5041771Y-19421094D01*
X5013200Y-19421094D01*
X4984628Y-19406809D01*
X4970343Y-19392523D01*
X4956057Y-19363952D01*
X4941771Y-19306809D01*
X4941771Y-19235380D01*
X4956057Y-19178237D01*
X4970343Y-19149666D01*
X4984628Y-19135380D01*
X5013200Y-19121094D01*
X5241771Y-19392523D02*
X5256057Y-19406809D01*
X5241771Y-19421094D01*
X5227486Y-19406809D01*
X5241771Y-19392523D01*
X5241771Y-19421094D01*
X5541771Y-19421094D02*
X5370343Y-19421094D01*
X5456057Y-19421094D02*
X5456057Y-19121094D01*
X5427486Y-19163952D01*
X5398914Y-19192523D01*
X5370343Y-19206809D01*
X5798914Y-19121094D02*
X5741771Y-19121094D01*
X5713200Y-19135380D01*
X5698914Y-19149666D01*
X5670343Y-19192523D01*
X5656057Y-19249666D01*
X5656057Y-19363952D01*
X5670343Y-19392523D01*
X5684628Y-19406809D01*
X5713200Y-19421094D01*
X5770343Y-19421094D01*
X5798914Y-19406809D01*
X5813200Y-19392523D01*
X5827486Y-19363952D01*
X5827486Y-19292523D01*
X5813200Y-19263952D01*
X5798914Y-19249666D01*
X5770343Y-19235380D01*
X5713200Y-19235380D01*
X5684628Y-19249666D01*
X5670343Y-19263952D01*
X5656057Y-19292523D01*
X5970343Y-19421094D02*
X6027486Y-19421094D01*
X6056057Y-19406809D01*
X6070343Y-19392523D01*
X6098914Y-19349666D01*
X6113200Y-19292523D01*
X6113200Y-19178237D01*
X6098914Y-19149666D01*
X6084628Y-19135380D01*
X6056057Y-19121094D01*
X5998914Y-19121094D01*
X5970343Y-19135380D01*
X5956057Y-19149666D01*
X5941771Y-19178237D01*
X5941771Y-19249666D01*
X5956057Y-19278237D01*
X5970343Y-19292523D01*
X5998914Y-19306809D01*
X6056057Y-19306809D01*
X6084628Y-19292523D01*
X6098914Y-19278237D01*
X6113200Y-19249666D01*
X6227486Y-19121094D02*
X6227486Y-19178237D01*
X6341771Y-19121094D02*
X6341771Y-19178237D01*
X6784628Y-19535380D02*
X6770343Y-19521094D01*
X6741771Y-19478237D01*
X6727486Y-19449666D01*
X6713200Y-19406809D01*
X6698914Y-19335380D01*
X6698914Y-19278237D01*
X6713200Y-19206809D01*
X6727486Y-19163952D01*
X6741771Y-19135380D01*
X6770343Y-19092523D01*
X6784628Y-19078237D01*
X7056057Y-19421094D02*
X6884628Y-19421094D01*
X6970343Y-19421094D02*
X6970343Y-19121094D01*
X6941771Y-19163952D01*
X6913200Y-19192523D01*
X6884628Y-19206809D01*
X7313200Y-19121094D02*
X7256057Y-19121094D01*
X7227486Y-19135380D01*
X7213200Y-19149666D01*
X7184628Y-19192523D01*
X7170343Y-19249666D01*
X7170343Y-19363952D01*
X7184628Y-19392523D01*
X7198914Y-19406809D01*
X7227486Y-19421094D01*
X7284628Y-19421094D01*
X7313200Y-19406809D01*
X7327486Y-19392523D01*
X7341771Y-19363952D01*
X7341771Y-19292523D01*
X7327486Y-19263952D01*
X7313200Y-19249666D01*
X7284628Y-19235380D01*
X7227486Y-19235380D01*
X7198914Y-19249666D01*
X7184628Y-19263952D01*
X7170343Y-19292523D01*
X7698914Y-19421094D02*
X7698914Y-19121094D01*
X7827486Y-19421094D02*
X7827486Y-19263952D01*
X7813200Y-19235380D01*
X7784628Y-19221094D01*
X7741771Y-19221094D01*
X7713200Y-19235380D01*
X7698914Y-19249666D01*
X8013200Y-19421094D02*
X7984628Y-19406809D01*
X7970343Y-19392523D01*
X7956057Y-19363952D01*
X7956057Y-19278237D01*
X7970343Y-19249666D01*
X7984628Y-19235380D01*
X8013200Y-19221094D01*
X8056057Y-19221094D01*
X8084628Y-19235380D01*
X8098914Y-19249666D01*
X8113200Y-19278237D01*
X8113200Y-19363952D01*
X8098914Y-19392523D01*
X8084628Y-19406809D01*
X8056057Y-19421094D01*
X8013200Y-19421094D01*
X8284628Y-19421094D02*
X8256057Y-19406809D01*
X8241771Y-19378237D01*
X8241771Y-19121094D01*
X8513200Y-19406809D02*
X8484628Y-19421094D01*
X8427486Y-19421094D01*
X8398914Y-19406809D01*
X8384628Y-19378237D01*
X8384628Y-19263952D01*
X8398914Y-19235380D01*
X8427486Y-19221094D01*
X8484628Y-19221094D01*
X8513200Y-19235380D01*
X8527486Y-19263952D01*
X8527486Y-19292523D01*
X8384628Y-19321094D01*
X8641771Y-19406809D02*
X8670343Y-19421094D01*
X8727486Y-19421094D01*
X8756057Y-19406809D01*
X8770343Y-19378237D01*
X8770343Y-19363952D01*
X8756057Y-19335380D01*
X8727486Y-19321094D01*
X8684628Y-19321094D01*
X8656057Y-19306809D01*
X8641771Y-19278237D01*
X8641771Y-19263952D01*
X8656057Y-19235380D01*
X8684628Y-19221094D01*
X8727486Y-19221094D01*
X8756057Y-19235380D01*
X8870343Y-19535380D02*
X8884628Y-19521094D01*
X8913200Y-19478237D01*
X8927486Y-19449666D01*
X8941771Y-19406809D01*
X8956057Y-19335380D01*
X8956057Y-19278237D01*
X8941771Y-19206809D01*
X8927486Y-19163952D01*
X8913200Y-19135380D01*
X8884628Y-19092523D01*
X8870343Y-19078237D01*
X9413200Y-19535380D02*
X9398914Y-19521094D01*
X9370343Y-19478237D01*
X9356057Y-19449666D01*
X9341771Y-19406809D01*
X9327486Y-19335380D01*
X9327486Y-19278237D01*
X9341771Y-19206809D01*
X9356057Y-19163952D01*
X9370343Y-19135380D01*
X9398914Y-19092523D01*
X9413200Y-19078237D01*
X9527486Y-19221094D02*
X9527486Y-19421094D01*
X9527486Y-19249666D02*
X9541771Y-19235380D01*
X9570343Y-19221094D01*
X9613200Y-19221094D01*
X9641771Y-19235380D01*
X9656057Y-19263952D01*
X9656057Y-19421094D01*
X9841771Y-19421094D02*
X9813200Y-19406809D01*
X9798914Y-19392523D01*
X9784628Y-19363952D01*
X9784628Y-19278237D01*
X9798914Y-19249666D01*
X9813200Y-19235380D01*
X9841771Y-19221094D01*
X9884628Y-19221094D01*
X9913200Y-19235380D01*
X9927486Y-19249666D01*
X9941771Y-19278237D01*
X9941771Y-19363952D01*
X9927486Y-19392523D01*
X9913200Y-19406809D01*
X9884628Y-19421094D01*
X9841771Y-19421094D01*
X10027486Y-19221094D02*
X10141771Y-19221094D01*
X10070343Y-19121094D02*
X10070343Y-19378237D01*
X10084628Y-19406809D01*
X10113200Y-19421094D01*
X10141771Y-19421094D01*
X10470343Y-19221094D02*
X10470343Y-19521094D01*
X10470343Y-19235380D02*
X10498914Y-19221094D01*
X10556057Y-19221094D01*
X10584628Y-19235380D01*
X10598914Y-19249666D01*
X10613200Y-19278237D01*
X10613200Y-19363952D01*
X10598914Y-19392523D01*
X10584628Y-19406809D01*
X10556057Y-19421094D01*
X10498914Y-19421094D01*
X10470343Y-19406809D01*
X10784628Y-19421094D02*
X10756057Y-19406809D01*
X10741771Y-19378237D01*
X10741771Y-19121094D01*
X11027486Y-19421094D02*
X11027486Y-19263952D01*
X11013200Y-19235380D01*
X10984628Y-19221094D01*
X10927486Y-19221094D01*
X10898914Y-19235380D01*
X11027486Y-19406809D02*
X10998914Y-19421094D01*
X10927486Y-19421094D01*
X10898914Y-19406809D01*
X10884628Y-19378237D01*
X10884628Y-19349666D01*
X10898914Y-19321094D01*
X10927486Y-19306809D01*
X10998914Y-19306809D01*
X11027486Y-19292523D01*
X11127486Y-19221094D02*
X11241771Y-19221094D01*
X11170343Y-19121094D02*
X11170343Y-19378237D01*
X11184628Y-19406809D01*
X11213200Y-19421094D01*
X11241771Y-19421094D01*
X11456057Y-19406809D02*
X11427486Y-19421094D01*
X11370343Y-19421094D01*
X11341771Y-19406809D01*
X11327486Y-19378237D01*
X11327486Y-19263952D01*
X11341771Y-19235380D01*
X11370343Y-19221094D01*
X11427486Y-19221094D01*
X11456057Y-19235380D01*
X11470343Y-19263952D01*
X11470343Y-19292523D01*
X11327486Y-19321094D01*
X11727486Y-19421094D02*
X11727486Y-19121094D01*
X11727486Y-19406809D02*
X11698914Y-19421094D01*
X11641771Y-19421094D01*
X11613200Y-19406809D01*
X11598914Y-19392523D01*
X11584628Y-19363952D01*
X11584628Y-19278237D01*
X11598914Y-19249666D01*
X11613200Y-19235380D01*
X11641771Y-19221094D01*
X11698914Y-19221094D01*
X11727486Y-19235380D01*
X11841771Y-19535380D02*
X11856057Y-19521094D01*
X11884628Y-19478237D01*
X11898914Y-19449666D01*
X11913200Y-19406809D01*
X11927486Y-19335380D01*
X11927486Y-19278237D01*
X11913200Y-19206809D01*
X11898914Y-19163952D01*
X11884628Y-19135380D01*
X11856057Y-19092523D01*
X11841771Y-19078237D01*
M02*
