M48
; DRILL file {KiCad (5.1.9)-1} date 03/06/21 15:09:38
; FORMAT={-:-/ absolute / inch / decimal}
; #@! TF.CreationDate,2021-03-06T15:09:38-08:00
; #@! TF.GenerationSoftware,Kicad,Pcbnew,(5.1.9)-1
; #@! TF.FileFunction,Plated,1,2,PTH
FMAT,2
INCH
T1C0.0157
T2C0.0320
T3C0.0394
T4C0.0866
%
G90
G05
T1
X1.6089Y-1.8
X1.61Y-1.74
X1.615Y-2.455
X1.65Y-2.815
X1.655Y-1.68
X1.655Y-2.22
X1.675Y-1.94
X1.6925Y-1.5731
X1.695Y-4.73
X1.7136Y-3.96
X1.7305Y-2.3664
X1.745Y-2.85
X1.76Y-3.215
X1.76Y-5.135
X1.7832Y-3.0442
X1.8125Y-4.2425
X1.82Y-3.125
X1.84Y-1.645
X1.8639Y-4.59
X1.87Y-3.5
X1.895Y-3.84
X1.9107Y-3.4493
X1.915Y-4.7
X1.925Y-2.27
X1.94Y-4.635
X2.135Y-3.12
X2.2Y-1.585
X2.225Y-4.54
X2.235Y-2.15
X2.235Y-2.205
X2.275Y-3.645
X2.305Y-1.985
X2.31Y-3.885
X2.32Y-2.29
X2.325Y-2.95
X2.33Y-2.1
X2.375Y-4.625
X2.395Y-2.025
X2.405Y-4.815
X2.42Y-3.75
X2.435Y-3.035
X2.455Y-2.45
X2.46Y-2.155
X2.485Y-4.31
X2.485Y-4.3494
X2.49Y-2.565
X2.4911Y-2.7128
X2.5769Y-2.875
X2.58Y-3.19
X2.585Y-3.3
X2.585Y-3.48
X2.6Y-1.64
X2.616Y-3.785
X2.63Y-4.395
X2.6321Y-4.6629
X2.7Y-4.5
X2.745Y-3.585
X2.7479Y-3.9371
X2.775Y-4.05
X2.775Y-4.2235
X2.835Y-4.32
X2.8455Y-2.051
X2.85Y-4.47
X2.94Y-1.585
X2.97Y-2.365
X3.05Y-2.0
X3.12Y-3.125
X3.155Y-4.53
X3.2525Y-2.309
X3.335Y-4.795
X3.34Y-2.21
X3.345Y-1.645
X3.425Y-2.76
X3.43Y-2.565
X3.445Y-3.04
X3.535Y-2.21
X3.535Y-3.885
X3.54Y-2.155
X3.585Y-2.0639
X3.62Y-3.285
X3.625Y-3.51
X3.69Y-1.59
X3.72Y-2.395
X3.775Y-4.455
X3.795Y-2.195
X3.8Y-4.635
X3.805Y-2.0
X3.82Y-3.7861
X3.905Y-3.14
X3.995Y-4.04
X3.995Y-4.2385
X4.0Y-4.455
X4.01Y-2.285
X4.0945Y-4.5305
X4.1Y-1.645
X4.17Y-2.1
X4.175Y-2.56
X4.18Y-2.74
X4.19Y-2.435
X4.195Y-3.035
X4.24Y-4.615
X4.2525Y-2.8114
X4.275Y-4.805
X4.285Y-3.89
X4.365Y-3.275
X4.37Y-3.485
X4.435Y-1.585
X4.465Y-2.205
X4.475Y-2.385
X4.53Y-4.395
X4.555Y-1.9864
X4.56Y-4.69
X4.57Y-3.79
X4.66Y-3.12
X4.665Y-2.2
X4.665Y-2.15
X4.74Y-4.2435
X4.745Y-4.04
X4.75Y-2.2911
X4.845Y-1.635
X4.9Y-2.15
X4.925Y-2.81
X4.93Y-2.57
X4.93Y-2.73
X4.94Y-3.0361
X5.03Y-4.54
X5.035Y-3.88
X5.115Y-3.495
X5.12Y-2.41
X5.12Y-3.305
X5.1212Y-2.0862
X5.19Y-1.585
X5.215Y-4.8
X5.22Y-2.395
X5.29Y-4.455
X5.305Y-1.98
X5.305Y-3.795
X5.4219Y-3.1215
X5.455Y-3.91
X5.49Y-3.985
X5.49Y-4.2435
X5.51Y-2.29
X5.51Y-4.455
X5.5894Y-2.8967
X5.59Y-2.135
X5.595Y-2.19
X5.6Y-1.645
X5.66Y-4.3686
X5.68Y-4.695
X5.695Y-3.04
X5.745Y-2.565
X5.755Y-2.685
X5.805Y-2.95
X5.8055Y-3.5745
X5.815Y-2.195
X5.8531Y-3.1869
X5.8573Y-3.4973
X5.88Y-2.845
X5.925Y-3.305
X5.935Y-1.585
X5.95Y-3.6836
X5.96Y-4.355
X5.975Y-2.385
X6.055Y-1.9875
X6.0649Y-3.7903
X6.065Y-4.61
X6.0862Y-3.9438
X6.1164Y-3.62
X6.155Y-3.13
X6.24Y-4.0
X6.25Y-2.2911
X6.32Y-4.235
X6.34Y-3.5725
X6.35Y-1.645
X6.37Y-3.705
X6.3892Y-4.6938
X6.39Y-4.34
X6.43Y-2.535
X6.43Y-2.75
X6.44Y-3.035
X6.53Y-3.8825
X6.615Y-3.515
X6.625Y-3.3
X6.67Y-4.905
X6.6886Y-1.5936
X6.805Y-2.0
X6.8105Y-3.7861
X6.915Y-1.49
X6.9217Y-1.8433
X6.99Y-4.245
X6.995Y-4.07
X7.3725Y-2.39
X7.49Y-2.905
X7.5375Y-1.485
X7.5375Y-1.8061
X7.5625Y-3.125
X7.6525Y-2.285
X7.675Y-2.945
X7.74Y-3.605
X7.7425Y-1.63
X7.8275Y-2.55
X7.8425Y-3.04
X7.8825Y-3.885
X7.8914Y-2.1736
X7.92Y-2.67
X7.9225Y-3.65
X7.95Y-2.175
X7.9925Y-2.9175
X8.0125Y-3.295
X8.0125Y-3.5
X8.0325Y-1.5411
X8.04Y-3.17
X8.1125Y-2.405
X8.185Y-2.175
X8.1975Y-1.995
X8.206Y-3.7861
X8.3025Y-3.14
X8.3825Y-3.5975
X8.4061Y-4.025
X8.4075Y-2.29
X8.4083Y-4.2342
X8.4425Y-3.94
X8.4825Y-1.65
X8.5298Y-4.4502
X8.53Y-2.085
X8.5725Y-2.74
X8.575Y-4.4
X8.5775Y-2.545
X8.5775Y-4.635
X8.5875Y-3.04
X8.6125Y-2.4
X8.655Y-3.8925
X8.675Y-3.7275
X8.7625Y-3.295
X8.7625Y-3.495
X8.7775Y-1.5311
X8.8Y-4.405
X8.8675Y-2.375
X8.9025Y-2.01
X8.9475Y-3.78
X9.0425Y-4.77
X9.0525Y-3.125
X9.076Y-4.3935
X9.0825Y-4.67
X9.1375Y-4.055
X9.1525Y-2.2911
X9.19Y-2.205
X9.2425Y-1.635
X9.3225Y-2.73
X9.3275Y-2.56
X9.3325Y-3.025
X9.4075Y-3.87
X9.445Y-2.095
X9.445Y-2.205
X9.455Y-2.435
X9.5125Y-3.27
X9.5125Y-3.5
X9.5225Y-1.5415
X9.635Y-3.715
X9.6425Y-4.4
X9.6735Y-2.441
X9.7025Y-2.01
X9.705Y-3.7925
X9.7925Y-3.15
X9.8875Y-4.01
X9.8975Y-2.29
X9.9175Y-4.445
X9.9875Y-1.645
X10.0675Y-2.73
X10.0725Y-2.55
X10.0875Y-3.035
X10.0925Y-2.415
X10.1825Y-3.89
X10.2625Y-3.295
X10.2625Y-3.51
X10.2725Y-1.5394
X10.315Y-2.195
X10.3475Y-2.36
X10.3725Y-4.535
X10.4515Y-1.987
X10.4611Y-3.785
X10.525Y-2.155
X10.5275Y-4.325
X10.5275Y-4.68
X10.5475Y-3.115
X10.6375Y-4.05
X10.6375Y-4.25
X10.6375Y-4.775
X10.6575Y-2.28
X10.6975Y-4.4
X10.74Y-1.6
X10.8275Y-2.565
X10.8275Y-2.74
X10.8375Y-3.025
X10.9Y-2.4
X10.9125Y-3.89
X10.9775Y-4.435
X10.98Y-2.12
X11.0125Y-4.61
X11.0175Y-3.49
X11.0275Y-3.3
X11.0375Y-1.5415
X11.1175Y-2.39
X11.2025Y-1.98
X11.2048Y-3.7877
X11.2675Y-4.702
X11.2925Y-3.14
X11.3025Y-4.545
X11.3875Y-4.07
X11.3875Y-4.245
X11.4025Y-2.285
X11.4725Y-4.715
X11.4825Y-4.345
X11.49Y-2.195
X11.4975Y-1.655
X11.5775Y-2.45
X11.5775Y-2.745
X11.5825Y-3.035
X11.5925Y-4.805
X11.6625Y-4.41
X11.705Y-2.2
X11.7625Y-3.29
X11.78Y-1.54
X11.8675Y-2.38
X11.875Y-3.54
X11.9475Y-2.0
X11.9525Y-4.46
X11.9525Y-4.595
X12.1575Y-2.27
X12.2475Y-4.5
X12.3225Y-3.86
X12.3675Y-2.74
X12.3975Y-4.68
X12.4075Y-4.335
X12.4275Y-4.8
X12.5175Y-3.1361
X12.5875Y-4.395
X12.6146Y-1.6611
X12.6175Y-3.7911
X12.6225Y-2.205
X12.7925Y-4.235
X12.7975Y-3.0411
X12.8025Y-2.395
X12.8025Y-4.06
X12.8525Y-2.205
X12.8975Y-1.5394
X12.9045Y-4.488
X12.9725Y-3.515
X12.9875Y-3.315
X13.0925Y-2.285
X13.1875Y-4.535
X13.2675Y-2.56
X13.2675Y-2.745
X13.3225Y-4.66
X13.3325Y-4.28
X13.3675Y-1.9075
X13.3725Y-4.78
X13.3732Y-2.0132
X13.4025Y-2.1
X13.4025Y-2.44
X13.5475Y-4.395
X13.6575Y-2.2
X13.9025Y-2.2
X13.9225Y-4.61
X13.9375Y-2.37
X13.9375Y-1.625
X13.9925Y-4.45
X14.0075Y-4.745
X14.2175Y-2.285
X14.2175Y-4.54
X14.2325Y-1.54
X14.3725Y-4.705
X14.3775Y-1.975
X14.3775Y-2.7264
X14.3825Y-4.325
X14.4025Y-2.56
X14.4075Y-2.07
X14.4175Y-4.815
X14.4575Y-4.4
X14.6875Y-1.645
X14.7575Y-2.44
X14.7575Y-3.95
X14.84Y-2.2489
X14.8875Y-4.43
X14.9628Y-1.5387
X14.9675Y-4.535
X14.9725Y-3.775
X14.9751Y-2.2996
X14.985Y-2.205
X15.095Y-2.155
X15.1025Y-4.355
X15.1125Y-4.65
X15.1275Y-1.99
X15.1289Y-2.405
X15.1375Y-2.7214
X15.1525Y-4.255
X15.1575Y-2.555
X15.1575Y-4.06
X15.16Y-2.0689
X15.1675Y-4.815
X15.2975Y-4.11
X15.4Y-2.19
X15.425Y-1.66
X15.4325Y-4.635
X15.4375Y-2.39
X15.465Y-2.93
X15.4675Y-3.0625
X15.4775Y-3.525
X15.485Y-4.18
X15.485Y-4.435
X15.58Y-2.995
X15.58Y-3.3794
X15.7025Y-4.705
X15.7075Y-4.535
X15.7175Y-2.29
X15.7225Y-1.5386
X15.7664Y-3.8639
X15.7675Y-3.1936
X15.7714Y-3.405
X15.7714Y-4.35
X15.775Y-2.87
X15.775Y-2.87
X15.7975Y-4.1981
X15.7989Y-3.63
X15.7989Y-3.0139
X15.8025Y-4.495
X15.8525Y-4.715
X15.8814Y-2.56
X15.8839Y-4.805
X15.8875Y-1.975
X15.8875Y-2.735
X15.9125Y-2.39
X15.9175Y-3.1975
X15.9432Y-3.305
X15.945Y-1.7425
X15.9778Y-1.69
X15.9825Y-2.3
X16.4175Y-4.2925
X16.4231Y-4.3315
X16.5895Y-3.185
T2
X1.0864Y-3.5433
X1.1864Y-3.5433
X1.2864Y-3.5433
X1.3864Y-3.5433
X16.2586Y-3.5433
X16.3586Y-3.5433
X16.4586Y-3.5433
X16.5586Y-3.5433
T3
X0.9354Y-1.595
X0.9354Y-1.695
X0.9354Y-1.795
X0.9354Y-1.895
X0.9354Y-1.995
X0.9354Y-2.095
X0.9354Y-2.195
X0.9354Y-2.295
X0.9354Y-2.395
X0.9354Y-2.495
X0.9354Y-2.595
X0.9354Y-2.695
X0.9354Y-2.895
X0.9354Y-2.995
X0.9354Y-3.095
X0.9354Y-3.195
X0.9354Y-3.295
X0.9354Y-3.395
X1.0354Y-1.795
X1.2344Y-1.795
X1.3344Y-1.795
X1.4344Y-1.795
X1.5344Y-1.595
X1.5344Y-1.695
X1.5344Y-1.795
X1.5344Y-1.895
X1.5344Y-1.995
X1.5344Y-2.095
X1.5344Y-2.195
X1.5344Y-2.295
X1.5344Y-2.395
X1.5344Y-2.495
X1.5344Y-2.595
X1.5344Y-2.695
X1.5344Y-2.895
X1.5344Y-2.995
X1.5344Y-3.095
X1.5344Y-3.195
X1.5344Y-3.295
X1.5344Y-3.395
X16.1094Y-1.595
X16.1094Y-1.695
X16.1094Y-1.795
X16.1094Y-1.895
X16.1094Y-1.995
X16.1094Y-2.095
X16.1094Y-2.195
X16.1094Y-2.295
X16.1094Y-2.395
X16.1094Y-2.495
X16.1094Y-2.595
X16.1094Y-2.695
X16.1094Y-2.895
X16.1094Y-2.995
X16.1094Y-3.095
X16.1094Y-3.195
X16.1094Y-3.295
X16.1094Y-3.395
X16.2094Y-1.795
X16.4084Y-1.795
X16.5084Y-1.795
X16.6084Y-1.795
X16.7084Y-1.595
X16.7084Y-1.695
X16.7084Y-1.795
X16.7084Y-1.895
X16.7084Y-1.995
X16.7084Y-2.095
X16.7084Y-2.195
X16.7084Y-2.295
X16.7084Y-2.395
X16.7084Y-2.495
X16.7084Y-2.595
X16.7084Y-2.695
X16.7084Y-2.895
X16.7084Y-2.995
X16.7084Y-3.095
X16.7084Y-3.195
X16.7084Y-3.295
X16.7084Y-3.395
T4
X0.9594Y-1.4838
X1.5104Y-1.4838
X16.1334Y-1.4838
X16.6844Y-1.4838
T3
G00X6.9607Y-1.9165
M15
G01X6.9607Y-1.9362
M16
G05
G00X7.13Y-1.5819
M15
G01X7.13Y-1.6016
M16
G05
G00X7.13Y-1.7
M15
G01X7.13Y-1.7197
M16
G05
G00X7.13Y-1.8575
M15
G01X7.13Y-1.8772
M16
G05
G00X7.3179Y-1.9115
M15
G01X7.3179Y-1.9312
M16
G05
G00X7.4871Y-1.5769
M15
G01X7.4871Y-1.5966
M16
G05
G00X7.4871Y-1.695
M15
G01X7.4871Y-1.7147
M16
G05
G00X7.4871Y-1.8525
M15
G01X7.4871Y-1.8722
M16
G05
T0
M30
