M48
; DRILL file {KiCad (5.1.9)-1} date 03/06/21 15:09:38
; FORMAT={-:-/ absolute / inch / decimal}
; #@! TF.CreationDate,2021-03-06T15:09:38-08:00
; #@! TF.GenerationSoftware,Kicad,Pcbnew,(5.1.9)-1
; #@! TF.FileFunction,NonPlated,1,2,NPTH
FMAT,2
INCH
T1C0.0118
T2C0.0472
T3C0.0689
T4C0.0748
T5C0.0866
T6C0.1181
T7C0.1200
T8C0.1570
T9C0.1614
T10C0.1693
%
G90
G05
T1
X1.659Y-5.205
X1.6615Y-1.38
X1.6824Y-5.205
X1.6849Y-1.38
X1.7057Y-5.205
X1.7082Y-1.38
X1.7291Y-5.205
X1.7316Y-1.38
X1.7525Y-5.205
X1.755Y-1.38
X1.7759Y-5.205
X1.7784Y-1.38
X1.7993Y-5.205
X1.8018Y-1.38
X1.8226Y-5.205
X1.8251Y-1.38
X1.846Y-5.205
X1.8485Y-1.38
X5.2015Y-5.205
X5.2249Y-5.205
X5.2482Y-5.205
X5.2716Y-5.205
X5.295Y-5.205
X5.3184Y-5.205
X5.3418Y-5.205
X5.3651Y-5.205
X5.3885Y-5.205
X6.4665Y-1.38
X6.4899Y-1.38
X6.5132Y-1.38
X6.5366Y-1.38
X6.56Y-1.38
X6.5834Y-1.38
X6.6068Y-1.38
X6.6301Y-1.38
X6.6535Y-1.38
X7.754Y-1.38
X7.7774Y-1.38
X7.8007Y-1.38
X7.8241Y-1.38
X7.8475Y-1.38
X7.8709Y-1.38
X7.8943Y-1.38
X7.9176Y-1.38
X7.941Y-1.38
X9.6965Y-5.205
X9.7199Y-5.205
X9.7432Y-5.205
X9.7666Y-5.205
X9.79Y-5.205
X9.8134Y-5.205
X9.8368Y-5.205
X9.8601Y-5.205
X9.8835Y-5.205
X15.7865Y-5.205
X15.7915Y-1.38
X15.8099Y-5.205
X15.8149Y-1.38
X15.8332Y-5.205
X15.8382Y-1.38
X15.8566Y-5.205
X15.8616Y-1.38
X15.88Y-5.205
X15.885Y-1.38
X15.9034Y-5.205
X15.9084Y-1.38
X15.9268Y-5.205
X15.9318Y-1.38
X15.9501Y-5.205
X15.9551Y-1.38
X15.9735Y-5.205
X15.9785Y-1.38
T2
X7.0454Y-1.5209
X7.0454Y-1.7965
X7.4025Y-1.5159
X7.4025Y-1.7915
T3
X1.9187Y-4.8
X2.1062Y-3.3
X2.2937Y-4.05
X2.3188Y-4.8
X2.5063Y-3.3
X2.6938Y-4.05
X2.8562Y-4.8
X3.2563Y-4.8
X3.7963Y-4.8
X4.1963Y-4.8
X4.7337Y-4.8
X5.1338Y-4.8
X6.0438Y-4.8
X6.0438Y-4.8
X6.4437Y-4.8
X6.4437Y-4.8
X8.565Y-4.8
X8.565Y-4.8
X8.965Y-4.8
X8.965Y-4.8
X10.065Y-4.8
X10.465Y-4.8
X11.0025Y-4.8
X11.4025Y-4.8
X11.94Y-4.8
X12.315Y-4.05
X12.34Y-4.8
X12.5025Y-3.3
X12.5962Y-1.8
X12.715Y-4.05
X12.8775Y-4.8
X12.9025Y-3.3
X12.9962Y-1.8
X13.2775Y-4.8
T4
X1.825Y-1.8
X1.9187Y-4.8
X2.0125Y-2.55
X2.1062Y-3.3
X2.225Y-1.8
X2.2937Y-4.05
X2.3188Y-4.8
X2.4125Y-2.55
X2.5063Y-3.3
X2.575Y-1.8
X2.6938Y-4.05
X2.8562Y-4.8
X2.95Y-2.55
X2.975Y-1.8
X3.1375Y-3.3
X3.2563Y-4.8
X3.325Y-1.8
X3.35Y-2.55
X3.5125Y-4.05
X3.5375Y-3.3
X3.7Y-2.55
X3.725Y-1.8
X3.7963Y-4.8
X3.8875Y-3.3
X3.9125Y-4.05
X4.075Y-1.8
X4.1Y-2.55
X4.1963Y-4.8
X4.2625Y-4.05
X4.2875Y-3.3
X4.45Y-2.55
X4.475Y-1.8
X4.6375Y-3.3
X4.6625Y-4.05
X4.7337Y-4.8
X4.825Y-1.8
X4.85Y-2.55
X5.0125Y-4.05
X5.0375Y-3.3
X5.1338Y-4.8
X5.2Y-2.55
X5.225Y-1.8
X5.3875Y-3.3
X5.4125Y-4.05
X5.575Y-1.8
X5.6Y-2.55
X5.7625Y-4.05
X5.7875Y-3.3
X5.95Y-2.55
X5.975Y-1.8
X6.0438Y-4.8
X6.1375Y-3.3
X6.1625Y-4.05
X6.325Y-1.8
X6.35Y-2.55
X6.4437Y-4.8
X6.5125Y-4.05
X6.5375Y-3.3
X6.725Y-1.8
X6.9125Y-4.05
X7.3462Y-2.55
X7.5337Y-3.3
X7.7212Y-1.8
X7.7462Y-2.55
X7.9087Y-4.05
X7.9337Y-3.3
X8.0962Y-2.55
X8.1212Y-1.8
X8.2837Y-3.3
X8.3087Y-4.05
X8.4712Y-1.8
X8.4962Y-2.55
X8.565Y-4.8
X8.6587Y-4.05
X8.6837Y-3.3
X8.8462Y-2.55
X8.8712Y-1.8
X8.965Y-4.8
X9.0337Y-3.3
X9.0587Y-4.05
X9.2212Y-1.8
X9.2462Y-2.55
X9.4087Y-4.05
X9.4337Y-3.3
X9.5962Y-2.55
X9.6212Y-1.8
X9.7837Y-3.3
X9.8087Y-4.05
X9.9712Y-1.8
X9.9962Y-2.55
X10.065Y-4.8
X10.1587Y-4.05
X10.1837Y-3.3
X10.3462Y-2.55
X10.3712Y-1.8
X10.465Y-4.8
X10.5337Y-3.3
X10.5587Y-4.05
X10.7212Y-1.8
X10.7462Y-2.55
X10.9087Y-4.05
X10.9337Y-3.3
X11.0025Y-4.8
X11.0962Y-2.55
X11.1212Y-1.8
X11.2837Y-3.3
X11.3087Y-4.05
X11.4025Y-4.8
X11.4712Y-1.8
X11.4962Y-2.55
X11.6837Y-3.3
X11.8462Y-2.55
X11.8712Y-1.8
X11.94Y-4.8
X12.2462Y-2.55
X12.315Y-4.05
X12.34Y-4.8
X12.5025Y-3.3
X12.5962Y-1.8
X12.715Y-4.05
X12.7837Y-2.55
X12.8775Y-4.8
X12.9025Y-3.3
X12.9962Y-1.8
X13.1837Y-2.55
X13.2775Y-4.8
X13.9087Y-1.8
X13.9087Y-2.55
X13.9087Y-4.8
X14.3087Y-1.8
X14.3087Y-2.55
X14.3087Y-4.8
X14.6575Y-4.05
X14.6575Y-4.8
X14.66Y-1.8
X14.66Y-2.55
X15.0575Y-4.05
X15.0575Y-4.8
X15.06Y-1.8
X15.06Y-2.55
X15.4075Y-4.8
X15.41Y-1.8
X15.41Y-2.55
X15.8075Y-4.8
X15.81Y-1.8
X15.81Y-2.55
T5
X0.937Y-3.9409
X1.5354Y-3.946
X16.1102Y-3.9409
X16.7087Y-3.946
T6
X1.925Y-2.0
X2.0187Y-5.0
X2.1125Y-2.75
X2.175Y-1.9
X2.2062Y-3.5
X2.2687Y-4.9
X2.3625Y-2.65
X2.3937Y-4.25
X2.4562Y-3.4
X2.6437Y-4.15
X2.675Y-2.0
X2.925Y-1.9
X2.9562Y-5.0
X3.05Y-2.75
X3.2062Y-4.9
X3.2375Y-3.5
X3.3Y-2.65
X3.425Y-2.0
X3.4875Y-3.4
X3.6125Y-4.25
X3.675Y-1.9
X3.8Y-2.75
X3.8625Y-4.15
X3.8962Y-5.0
X3.9875Y-3.5
X4.05Y-2.65
X4.1463Y-4.9
X4.175Y-2.0
X4.2375Y-3.4
X4.3625Y-4.25
X4.425Y-1.9
X4.55Y-2.75
X4.6125Y-4.15
X4.7375Y-3.5
X4.8Y-2.65
X4.8338Y-5.0
X4.925Y-2.0
X4.9875Y-3.4
X5.0838Y-4.9
X5.1125Y-4.25
X5.175Y-1.9
X5.3Y-2.75
X5.3625Y-4.15
X5.4875Y-3.5
X5.55Y-2.65
X5.675Y-2.0
X5.7375Y-3.4
X5.8625Y-4.25
X5.925Y-1.9
X6.05Y-2.75
X6.1125Y-4.15
X6.1437Y-5.0
X6.2375Y-3.5
X6.3Y-2.65
X6.3937Y-4.9
X6.425Y-2.0
X6.4875Y-3.4
X6.6125Y-4.25
X6.675Y-1.9
X6.8625Y-4.15
X7.4463Y-2.75
X7.6338Y-3.5
X7.6963Y-2.65
X7.8213Y-2.0
X7.8838Y-3.4
X8.0087Y-4.25
X8.0712Y-1.9
X8.1962Y-2.75
X8.2587Y-4.15
X8.3837Y-3.5
X8.4462Y-2.65
X8.5712Y-2.0
X8.6337Y-3.4
X8.665Y-5.0
X8.7587Y-4.25
X8.8212Y-1.9
X8.915Y-4.9
X8.9462Y-2.75
X9.0087Y-4.15
X9.1337Y-3.5
X9.1962Y-2.65
X9.3212Y-2.0
X9.3837Y-3.4
X9.5087Y-4.25
X9.5712Y-1.9
X9.6962Y-2.75
X9.7587Y-4.15
X9.8837Y-3.5
X9.9462Y-2.65
X10.0712Y-2.0
X10.1337Y-3.4
X10.165Y-5.0
X10.2587Y-4.25
X10.3212Y-1.9
X10.415Y-4.9
X10.4462Y-2.75
X10.5087Y-4.15
X10.6337Y-3.5
X10.6962Y-2.65
X10.8212Y-2.0
X10.8837Y-3.4
X11.0087Y-4.25
X11.0712Y-1.9
X11.1025Y-5.0
X11.1962Y-2.75
X11.2587Y-4.15
X11.3525Y-4.9
X11.3837Y-3.5
X11.4462Y-2.65
X11.5712Y-2.0
X11.6337Y-3.4
X11.8212Y-1.9
X11.9462Y-2.75
X12.04Y-5.0
X12.1962Y-2.65
X12.29Y-4.9
X12.415Y-4.25
X12.6025Y-3.5
X12.665Y-4.15
X12.6962Y-2.0
X12.8525Y-3.4
X12.8837Y-2.75
X12.9462Y-1.9
X12.9775Y-5.0
X13.1337Y-2.65
X13.2275Y-4.9
X14.0087Y-2.0
X14.0087Y-2.75
X14.0087Y-5.0
X14.2587Y-1.9
X14.2587Y-2.65
X14.2587Y-4.9
X14.7575Y-4.25
X14.7575Y-5.0
X14.76Y-2.0
X14.76Y-2.75
X15.0075Y-4.15
X15.0075Y-4.9
X15.01Y-1.9
X15.01Y-2.65
X15.5075Y-5.0
X15.51Y-2.0
X15.51Y-2.75
X15.7575Y-4.9
X15.76Y-1.9
X15.76Y-2.65
T7
X2.0238Y-4.325
X2.9638Y-4.325
X5.7737Y-5.075
X5.7737Y-5.075
X6.7138Y-5.075
X6.7138Y-5.075
X8.295Y-5.075
X9.235Y-5.075
X12.045Y-3.775
X12.2325Y-3.575
X12.3262Y-1.525
X12.985Y-3.775
X13.1725Y-3.575
X13.2662Y-1.525
T8
X2.0238Y-3.725
X2.1187Y-4.8
X2.3062Y-3.3
X2.4937Y-4.05
X2.9638Y-3.725
X3.0562Y-4.8
X3.9962Y-4.8
X4.9337Y-4.8
X5.7737Y-4.475
X5.7737Y-4.475
X6.2437Y-4.8
X6.2437Y-4.8
X6.7138Y-4.475
X6.7138Y-4.475
X8.295Y-4.475
X8.765Y-4.8
X8.765Y-4.8
X9.235Y-4.475
X10.265Y-4.8
X11.2025Y-4.8
X12.045Y-4.375
X12.14Y-4.8
X12.2325Y-2.975
X12.3262Y-2.125
X12.515Y-4.05
X12.7025Y-3.3
X12.7963Y-1.8
X12.985Y-4.375
X13.0775Y-4.8
X13.1725Y-2.975
X13.2662Y-2.125
T9
X2.025Y-1.8
X2.1187Y-4.8
X2.2125Y-2.55
X2.3062Y-3.3
X2.4937Y-4.05
X2.775Y-1.8
X3.0562Y-4.8
X3.15Y-2.55
X3.3375Y-3.3
X3.525Y-1.8
X3.7125Y-4.05
X3.9Y-2.55
X3.9962Y-4.8
X4.0875Y-3.3
X4.275Y-1.8
X4.4625Y-4.05
X4.65Y-2.55
X4.8375Y-3.3
X4.9337Y-4.8
X5.025Y-1.8
X5.2125Y-4.05
X5.4Y-2.55
X5.5875Y-3.3
X5.775Y-1.8
X5.9625Y-4.05
X6.15Y-2.55
X6.2437Y-4.8
X6.3375Y-3.3
X6.525Y-1.8
X6.7125Y-4.05
X7.5462Y-2.55
X7.7337Y-3.3
X7.9212Y-1.8
X8.1088Y-4.05
X8.2963Y-2.55
X8.4838Y-3.3
X8.6713Y-1.8
X8.765Y-4.8
X8.8588Y-4.05
X9.0463Y-2.55
X9.2338Y-3.3
X9.4213Y-1.8
X9.6088Y-4.05
X9.7963Y-2.55
X9.9838Y-3.3
X10.1713Y-1.8
X10.265Y-4.8
X10.3588Y-4.05
X10.5463Y-2.55
X10.7338Y-3.3
X10.9213Y-1.8
X11.1088Y-4.05
X11.2025Y-4.8
X11.2963Y-2.55
X11.4838Y-3.3
X11.6713Y-1.8
X12.0463Y-2.55
X12.14Y-4.8
X12.515Y-4.05
X12.7025Y-3.3
X12.7963Y-1.8
X12.9838Y-2.55
X13.0775Y-4.8
X14.1087Y-1.8
X14.1087Y-2.55
X14.1087Y-4.8
X14.8575Y-4.05
X14.8575Y-4.8
X14.86Y-1.8
X14.86Y-2.55
X15.6075Y-4.8
X15.61Y-1.8
X15.61Y-2.55
T10
X1.2364Y-4.865
X2.71Y-2.2
X3.5025Y-4.67
X6.15Y-2.1425
X6.2875Y-2.92
X6.845Y-4.84
X7.545Y-2.1725
X7.975Y-4.8425
X8.16Y-2.925
X8.5075Y-3.675
X11.68Y-4.93
X13.5475Y-1.8125
X13.64Y-4.93
X15.235Y-3.205
X15.2875Y-1.5825
X16.4086Y-4.865
T0
M30
