%FSLAX45Y45*%
G04 Gerber Fmt 4.5, Leading zero omitted, Abs format (unit mm)*
G04 Created by KiCad (PCBNEW (5.1.9)-1) date 2021-03-29 22:20:54*
%MOMM*%
%LPD*%
G01*
G04 APERTURE LIST*
%TA.AperFunction,Profile*%
%ADD10C,0.200000*%
%TD*%
%ADD11C,0.200000*%
%ADD12C,0.300000*%
G04 APERTURE END LIST*
D10*
X18351500Y-5524500D02*
X18415000Y-5524500D01*
X4711700Y-3073400D02*
X4711700Y-3505200D01*
X2108200Y-3073400D02*
X2108200Y-2324100D01*
X2108200Y-3073400D02*
X4203700Y-3073400D01*
X2108200Y-2324100D02*
X42678350Y-2324100D01*
X16916400Y-3073400D02*
X19672300Y-3073400D01*
X16408400Y-3505200D02*
X16408400Y-3073400D01*
X4203700Y-3505200D02*
X4203700Y-3073400D01*
X42678350Y-2324100D02*
X42678350Y-3073400D01*
X16916400Y-3073400D02*
X16916400Y-3505200D01*
X16408400Y-3073400D02*
X4711700Y-3073400D01*
X19672300Y-3505200D02*
X19672300Y-3073400D01*
X20180300Y-3073400D02*
X20180300Y-3505200D01*
X40601900Y-3073400D02*
X40601900Y-3505200D01*
X40601900Y-3073400D02*
X42678350Y-3073400D01*
X40093900Y-3073400D02*
X20180300Y-3073400D01*
X40093900Y-3505200D02*
X40093900Y-3073400D01*
X42684700Y-13652500D02*
X40589200Y-13652500D01*
X28384500Y-13665200D02*
X25120600Y-13665200D01*
X42684700Y-14401800D02*
X2108200Y-14401800D01*
X2108200Y-14401800D02*
X2108200Y-13652500D01*
X4191000Y-13652500D02*
X2108200Y-13652500D01*
X28384500Y-13665200D02*
X40081200Y-13665200D01*
X4699000Y-13652500D02*
X13195300Y-13652500D01*
X42684700Y-13652500D02*
X42684700Y-14401800D01*
X13703300Y-13665200D02*
X24612600Y-13665200D01*
X4699000Y-13220700D02*
X4699000Y-13652500D01*
X4191000Y-13652500D02*
X4191000Y-13220700D01*
X13703300Y-13220700D02*
X13703300Y-13665200D01*
X13195300Y-13652500D02*
X13195300Y-13220700D01*
X25120600Y-13220700D02*
X25120600Y-13665200D01*
X24612600Y-13665200D02*
X24612600Y-13220700D01*
X40081200Y-13665200D02*
X40081200Y-13220700D01*
X40589200Y-13220700D02*
X40589200Y-13652500D01*
X13703300Y-13220700D02*
X17856200Y-13220700D01*
X40589200Y-13220700D02*
X42538650Y-13220700D01*
X28384500Y-13220700D02*
X25120600Y-13220700D01*
X24612600Y-13220700D02*
X19786600Y-13220700D01*
X2247900Y-13220700D02*
X4191000Y-13220700D01*
X4699000Y-13220700D02*
X13195300Y-13220700D01*
X40601900Y-3505200D02*
X42538650Y-3505200D01*
X2247900Y-3505200D02*
X4203700Y-3505200D01*
X18554700Y-3505200D02*
X19672300Y-3505200D01*
X16916400Y-3505200D02*
X18110200Y-3505200D01*
X18211800Y-5664200D02*
G75*
G02*
X18351500Y-5524500I139700J0D01*
G01*
X18351500Y-7429500D02*
G75*
G02*
X18211800Y-7289800I0J139700D01*
G01*
X18554700Y-7429500D02*
G75*
G02*
X18694400Y-7569200I0J-139700D01*
G01*
X18834100Y-9334500D02*
G75*
G02*
X18694400Y-9194800I0J139700D01*
G01*
X19507200Y-9334500D02*
G75*
G02*
X19646900Y-9474200I0J-139700D01*
G01*
X19786600Y-13220700D02*
G75*
G02*
X19646900Y-13081000I0J139700D01*
G01*
X17995900Y-13081000D02*
G75*
G02*
X17856200Y-13220700I-139700J0D01*
G01*
X17856200Y-9334500D02*
G75*
G02*
X17995900Y-9474200I0J-139700D01*
G01*
X17183100Y-9334500D02*
G75*
G02*
X17043400Y-9194800I0J139700D01*
G01*
X16903700Y-7429500D02*
G75*
G02*
X17043400Y-7569200I0J-139700D01*
G01*
X16713200Y-7429500D02*
G75*
G02*
X16573500Y-7289800I0J139700D01*
G01*
X16573500Y-5664200D02*
G75*
G02*
X16713200Y-5524500I139700J0D01*
G01*
X18249900Y-5384800D02*
G75*
G02*
X18110200Y-5524500I-139700J0D01*
G01*
X18110200Y-3505200D02*
G75*
G02*
X18249900Y-3644900I0J-139700D01*
G01*
X18415000Y-3644900D02*
G75*
G02*
X18554700Y-3505200I139700J0D01*
G01*
X20180300Y-3505200D02*
X40093900Y-3505200D01*
X28384500Y-13220700D02*
X40081200Y-13220700D01*
X18415000Y-5524500D02*
X18415000Y-3644900D01*
X18211800Y-7289800D02*
X18211800Y-5664200D01*
X18554700Y-7429500D02*
X18351500Y-7429500D01*
X18694400Y-9194800D02*
X18694400Y-7569200D01*
X19507200Y-9334500D02*
X18834100Y-9334500D01*
X19646900Y-13081000D02*
X19646900Y-9474200D01*
X18249900Y-5384800D02*
X18249900Y-3644900D01*
X16713200Y-5524500D02*
X18110200Y-5524500D01*
X16573500Y-7289800D02*
X16573500Y-5664200D01*
X16903700Y-7429500D02*
X16713200Y-7429500D01*
X17043400Y-9194800D02*
X17043400Y-7569200D01*
X17856200Y-9334500D02*
X17183100Y-9334500D01*
X17995900Y-13081000D02*
X17995900Y-9474200D01*
X2108200Y-3644900D02*
G75*
G02*
X2247900Y-3505200I139700J0D01*
G01*
X42538650Y-3505200D02*
G75*
G02*
X42678350Y-3644900I0J-139700D01*
G01*
X42678488Y-13074650D02*
G75*
G02*
X42538650Y-13220700I-146188J0D01*
G01*
X2247900Y-13220700D02*
G75*
G02*
X2108200Y-13081000I0J139700D01*
G01*
X4711700Y-3505200D02*
X16408400Y-3505200D01*
X42678350Y-3644900D02*
X42678488Y-13074650D01*
X2108200Y-13081000D02*
X2108200Y-3644900D01*
D11*
X2610000Y-6460000D02*
X2650000Y-6500000D01*
X2650000Y-6460000D02*
X2610000Y-6500000D01*
X2830000Y-4920000D02*
X2870000Y-4960000D01*
X2870000Y-4920000D02*
X2830000Y-4960000D01*
X2830000Y-4050000D02*
X2870000Y-4090000D01*
X2870000Y-4050000D02*
X2830000Y-4090000D01*
X2830000Y-5050000D02*
X2870000Y-5090000D01*
X2870000Y-5050000D02*
X2830000Y-5090000D01*
X2864799Y-5300000D02*
X2904799Y-5340000D01*
X2904799Y-5300000D02*
X2864799Y-5340000D01*
X4066550Y-4552000D02*
X4106550Y-4592000D01*
X4106550Y-4552000D02*
X4066550Y-4592000D01*
X4069400Y-4399601D02*
X4109400Y-4439601D01*
X4109400Y-4399601D02*
X4069400Y-4439601D01*
X4082100Y-6215700D02*
X4122100Y-6255700D01*
X4122100Y-6215700D02*
X4082100Y-6255700D01*
X4171000Y-7130100D02*
X4211000Y-7170100D01*
X4211000Y-7130100D02*
X4171000Y-7170100D01*
X4183700Y-4247200D02*
X4223700Y-4287200D01*
X4223700Y-4247200D02*
X4183700Y-4287200D01*
X4183700Y-5618800D02*
X4223700Y-5658800D01*
X4223700Y-5618800D02*
X4183700Y-5658800D01*
X4234500Y-4907600D02*
X4274500Y-4947600D01*
X4274500Y-4907600D02*
X4234500Y-4947600D01*
X4278908Y-3975707D02*
X4318908Y-4015707D01*
X4318908Y-3975707D02*
X4278908Y-4015707D01*
X4285300Y-11994200D02*
X4325300Y-12034200D01*
X4325300Y-11994200D02*
X4285300Y-12034200D01*
X4332601Y-10038400D02*
X4372601Y-10078400D01*
X4372601Y-10038400D02*
X4332601Y-10078400D01*
X4375378Y-5990783D02*
X4415378Y-6030783D01*
X4415378Y-5990783D02*
X4375378Y-6030783D01*
X4412300Y-7219000D02*
X4452300Y-7259000D01*
X4452300Y-7219000D02*
X4412300Y-7259000D01*
X4450400Y-8146100D02*
X4490400Y-8186100D01*
X4490400Y-8146100D02*
X4450400Y-8186100D01*
X4450400Y-13022900D02*
X4490400Y-13062900D01*
X4490400Y-13022900D02*
X4450400Y-13062900D01*
X4509284Y-7712189D02*
X4549284Y-7752189D01*
X4549284Y-7712189D02*
X4509284Y-7752189D01*
X4583750Y-10755950D02*
X4623750Y-10795950D01*
X4623750Y-10755950D02*
X4583750Y-10795950D01*
X4602800Y-7917500D02*
X4642800Y-7957500D01*
X4642800Y-7917500D02*
X4602800Y-7957500D01*
X4653600Y-4158300D02*
X4693600Y-4198300D01*
X4693600Y-4158300D02*
X4653600Y-4198300D01*
X4714249Y-11638600D02*
X4754249Y-11678600D01*
X4754249Y-11638600D02*
X4714249Y-11678600D01*
X4729800Y-8870000D02*
X4769800Y-8910000D01*
X4769800Y-8870000D02*
X4729800Y-8910000D01*
X4793300Y-9733600D02*
X4833300Y-9773600D01*
X4833300Y-9733600D02*
X4793300Y-9773600D01*
X4833300Y-8741100D02*
X4873300Y-8781100D01*
X4873300Y-8741100D02*
X4833300Y-8781100D01*
X4844100Y-11918000D02*
X4884100Y-11958000D01*
X4884100Y-11918000D02*
X4844100Y-11958000D01*
X4869500Y-5745800D02*
X4909500Y-5785800D01*
X4909500Y-5745800D02*
X4869500Y-5785800D01*
X4907600Y-11752900D02*
X4947600Y-11792900D01*
X4947600Y-11752900D02*
X4907600Y-11792900D01*
X5402900Y-7904800D02*
X5442900Y-7944800D01*
X5442900Y-7904800D02*
X5402900Y-7944800D01*
X5568000Y-4005900D02*
X5608000Y-4045900D01*
X5608000Y-4005900D02*
X5568000Y-4045900D01*
X5631500Y-11511600D02*
X5671500Y-11551600D01*
X5671500Y-11511600D02*
X5631500Y-11551600D01*
X5656900Y-5441000D02*
X5696900Y-5481000D01*
X5696900Y-5441000D02*
X5656900Y-5481000D01*
X5656900Y-5580700D02*
X5696900Y-5620700D01*
X5696900Y-5580700D02*
X5656900Y-5620700D01*
X5758500Y-9238300D02*
X5798500Y-9278300D01*
X5798500Y-9238300D02*
X5758500Y-9278300D01*
X5834700Y-5021900D02*
X5874700Y-5061900D01*
X5874700Y-5021900D02*
X5834700Y-5061900D01*
X5847400Y-9847900D02*
X5887400Y-9887900D01*
X5887400Y-9847900D02*
X5847400Y-9887900D01*
X5872800Y-5796600D02*
X5912800Y-5836600D01*
X5912800Y-5796600D02*
X5872800Y-5836600D01*
X5885500Y-7473000D02*
X5925500Y-7513000D01*
X5925500Y-7473000D02*
X5885500Y-7513000D01*
X5898200Y-5313999D02*
X5938200Y-5353999D01*
X5938200Y-5313999D02*
X5898200Y-5353999D01*
X6012500Y-11727500D02*
X6052500Y-11767500D01*
X6052500Y-11727500D02*
X6012500Y-11767500D01*
X6063300Y-5123500D02*
X6103300Y-5163500D01*
X6103300Y-5123500D02*
X6063300Y-5163500D01*
X6088700Y-12210100D02*
X6128700Y-12250100D01*
X6128700Y-12210100D02*
X6088700Y-12250100D01*
X6126800Y-9505000D02*
X6166800Y-9545000D01*
X6166800Y-9505000D02*
X6126800Y-9545000D01*
X6164900Y-7688900D02*
X6204900Y-7728900D01*
X6204900Y-7688900D02*
X6164900Y-7728900D01*
X6215700Y-6203000D02*
X6255700Y-6243000D01*
X6255700Y-6203000D02*
X6215700Y-6243000D01*
X6228400Y-5453700D02*
X6268400Y-5493700D01*
X6268400Y-5453700D02*
X6228400Y-5493700D01*
X6291900Y-10927400D02*
X6331900Y-10967400D01*
X6331900Y-10927400D02*
X6291900Y-10967400D01*
X6291900Y-11027400D02*
X6331900Y-11067400D01*
X6331900Y-11027400D02*
X6291900Y-11067400D01*
X6304600Y-6495100D02*
X6344600Y-6535100D01*
X6344600Y-6495100D02*
X6304600Y-6535100D01*
X6307436Y-6870396D02*
X6347436Y-6910396D01*
X6347436Y-6870396D02*
X6307436Y-6910396D01*
X6525252Y-7282500D02*
X6565252Y-7322500D01*
X6565252Y-7282500D02*
X6525252Y-7322500D01*
X6533200Y-8082600D02*
X6573200Y-8122600D01*
X6573200Y-8082600D02*
X6533200Y-8122600D01*
X6545900Y-8362000D02*
X6585900Y-8402000D01*
X6585900Y-8362000D02*
X6545900Y-8402000D01*
X6545900Y-8819200D02*
X6585900Y-8859200D01*
X6585900Y-8819200D02*
X6545900Y-8859200D01*
X6584000Y-4145600D02*
X6624000Y-4185600D01*
X6624000Y-4145600D02*
X6584000Y-4185600D01*
X6624526Y-9593900D02*
X6664526Y-9633900D01*
X6664526Y-9593900D02*
X6624526Y-9633900D01*
X6660200Y-11143300D02*
X6700200Y-11183300D01*
X6700200Y-11143300D02*
X6660200Y-11183300D01*
X6665449Y-11823851D02*
X6705449Y-11863851D01*
X6705449Y-11823851D02*
X6665449Y-11863851D01*
X6838000Y-11410000D02*
X6878000Y-11450000D01*
X6878000Y-11410000D02*
X6838000Y-11450000D01*
X6952300Y-9085900D02*
X6992300Y-9125900D01*
X6992300Y-9085900D02*
X6952300Y-9125900D01*
X6959750Y-9980150D02*
X6999750Y-10020150D01*
X6999750Y-9980150D02*
X6959750Y-10020150D01*
X7028500Y-10267000D02*
X7068500Y-10307000D01*
X7068500Y-10267000D02*
X7028500Y-10307000D01*
X7028500Y-10707698D02*
X7068500Y-10747698D01*
X7068500Y-10707698D02*
X7028500Y-10747698D01*
X7180900Y-10952800D02*
X7220900Y-10992800D01*
X7220900Y-10952800D02*
X7180900Y-10992800D01*
X7207600Y-5189549D02*
X7247600Y-5229549D01*
X7247600Y-5189549D02*
X7207600Y-5229549D01*
X7219000Y-11333800D02*
X7259000Y-11373800D01*
X7259000Y-11333800D02*
X7219000Y-11373800D01*
X7447600Y-4005900D02*
X7487600Y-4045900D01*
X7487600Y-4005900D02*
X7447600Y-4045900D01*
X7523800Y-5987100D02*
X7563800Y-6027100D01*
X7563800Y-5987100D02*
X7523800Y-6027100D01*
X7727000Y-5060000D02*
X7767000Y-5100000D01*
X7767000Y-5060000D02*
X7727000Y-5100000D01*
X7904800Y-7917500D02*
X7944800Y-7957500D01*
X7944800Y-7917500D02*
X7904800Y-7957500D01*
X7993700Y-11486200D02*
X8033700Y-11526200D01*
X8033700Y-11486200D02*
X7993700Y-11526200D01*
X8241278Y-5844852D02*
X8281278Y-5884852D01*
X8281278Y-5844852D02*
X8241278Y-5884852D01*
X8450900Y-12159300D02*
X8490900Y-12199300D01*
X8490900Y-12159300D02*
X8450900Y-12199300D01*
X8463600Y-5593400D02*
X8503600Y-5633400D01*
X8503600Y-5593400D02*
X8463600Y-5633400D01*
X8476300Y-4158300D02*
X8516300Y-4198300D01*
X8516300Y-4158300D02*
X8476300Y-4198300D01*
X8679500Y-6990400D02*
X8719500Y-7030400D01*
X8719500Y-6990400D02*
X8679500Y-7030400D01*
X8692200Y-6495100D02*
X8732200Y-6535100D01*
X8732200Y-6495100D02*
X8692200Y-6535100D01*
X8730300Y-7701600D02*
X8770300Y-7741600D01*
X8770300Y-7701600D02*
X8730300Y-7741600D01*
X8958900Y-5593400D02*
X8998900Y-5633400D01*
X8998900Y-5593400D02*
X8958900Y-5633400D01*
X8958900Y-9847900D02*
X8998900Y-9887900D01*
X8998900Y-9847900D02*
X8958900Y-9887900D01*
X8971600Y-5453700D02*
X9011600Y-5493700D01*
X9011600Y-5453700D02*
X8971600Y-5493700D01*
X9085900Y-5222249D02*
X9125900Y-5262249D01*
X9125900Y-5222249D02*
X9085900Y-5262249D01*
X9174800Y-8323900D02*
X9214800Y-8363900D01*
X9214800Y-8323900D02*
X9174800Y-8363900D01*
X9187500Y-8895400D02*
X9227500Y-8935400D01*
X9227500Y-8895400D02*
X9187500Y-8935400D01*
X9352600Y-4018600D02*
X9392600Y-4058600D01*
X9392600Y-4018600D02*
X9352600Y-4058600D01*
X9428800Y-6063300D02*
X9468800Y-6103300D01*
X9468800Y-6063300D02*
X9428800Y-6103300D01*
X9568500Y-11295700D02*
X9608500Y-11335700D01*
X9608500Y-11295700D02*
X9568500Y-11335700D01*
X9619300Y-5555300D02*
X9659300Y-5595300D01*
X9659300Y-5555300D02*
X9619300Y-5595300D01*
X9632000Y-11752900D02*
X9672000Y-11792900D01*
X9672000Y-11752900D02*
X9632000Y-11792900D01*
X9644700Y-5060000D02*
X9684700Y-5100000D01*
X9684700Y-5060000D02*
X9644700Y-5100000D01*
X9682728Y-9596750D02*
X9722728Y-9636750D01*
X9722728Y-9596750D02*
X9682728Y-9636750D01*
X9898700Y-7955600D02*
X9938700Y-7995600D01*
X9938700Y-7955600D02*
X9898700Y-7995600D01*
X10127300Y-10241600D02*
X10167300Y-10281600D01*
X10167300Y-10241600D02*
X10127300Y-10281600D01*
X10127300Y-10745798D02*
X10167300Y-10785798D01*
X10167300Y-10745798D02*
X10127300Y-10785798D01*
X10140000Y-11295700D02*
X10180000Y-11335700D01*
X10180000Y-11295700D02*
X10140000Y-11335700D01*
X10165400Y-5783900D02*
X10205400Y-5823900D01*
X10205400Y-5783900D02*
X10165400Y-5823900D01*
X10379903Y-11487597D02*
X10419903Y-11527597D01*
X10419903Y-11487597D02*
X10379903Y-11527597D01*
X10394000Y-4158300D02*
X10434000Y-4198300D01*
X10434000Y-4158300D02*
X10394000Y-4198300D01*
X10571800Y-5314000D02*
X10611800Y-5354000D01*
X10611800Y-5314000D02*
X10571800Y-5354000D01*
X10584500Y-6482400D02*
X10624500Y-6522400D01*
X10624500Y-6482400D02*
X10584500Y-6522400D01*
X10597200Y-6939600D02*
X10637200Y-6979600D01*
X10637200Y-6939600D02*
X10597200Y-6979600D01*
X10622600Y-6164900D02*
X10662600Y-6204900D01*
X10662600Y-6164900D02*
X10622600Y-6204900D01*
X10635300Y-7688900D02*
X10675300Y-7728900D01*
X10675300Y-7688900D02*
X10635300Y-7728900D01*
X10749600Y-11702100D02*
X10789600Y-11742100D01*
X10789600Y-11702100D02*
X10749600Y-11742100D01*
X10781350Y-7120899D02*
X10821350Y-7160899D01*
X10821350Y-7120899D02*
X10781350Y-7160899D01*
X10838500Y-12184700D02*
X10878500Y-12224700D01*
X10878500Y-12184700D02*
X10838500Y-12224700D01*
X10863900Y-9860600D02*
X10903900Y-9900600D01*
X10903900Y-9860600D02*
X10863900Y-9900600D01*
X11067100Y-8298500D02*
X11107100Y-8338500D01*
X11107100Y-8298500D02*
X11067100Y-8338500D01*
X11079800Y-8831900D02*
X11119800Y-8871900D01*
X11119800Y-8831900D02*
X11079800Y-8871900D01*
X11244900Y-4005900D02*
X11284900Y-4045900D01*
X11284900Y-4005900D02*
X11244900Y-4045900D01*
X11321100Y-5580700D02*
X11361100Y-5620700D01*
X11361100Y-5580700D02*
X11321100Y-5620700D01*
X11346500Y-6037900D02*
X11386500Y-6077900D01*
X11386500Y-6037900D02*
X11346500Y-6077900D01*
X11486200Y-11143300D02*
X11526200Y-11183300D01*
X11526200Y-11143300D02*
X11486200Y-11183300D01*
X11549700Y-5025399D02*
X11589700Y-5065399D01*
X11589700Y-5025399D02*
X11549700Y-5065399D01*
X11562400Y-11892600D02*
X11602400Y-11932600D01*
X11602400Y-11892600D02*
X11562400Y-11932600D01*
X11587800Y-9606600D02*
X11627800Y-9646600D01*
X11627800Y-9606600D02*
X11587800Y-9646600D01*
X11816400Y-7904800D02*
X11856400Y-7944800D01*
X11856400Y-7904800D02*
X11816400Y-7944800D01*
X11829100Y-5568000D02*
X11869100Y-5608000D01*
X11869100Y-5568000D02*
X11829100Y-5608000D01*
X11829101Y-5441000D02*
X11869101Y-5481000D01*
X11869101Y-5441000D02*
X11829101Y-5481000D01*
X12019600Y-10758498D02*
X12059600Y-10798498D01*
X12059600Y-10758498D02*
X12019600Y-10798498D01*
X12032300Y-10241600D02*
X12072300Y-10281600D01*
X12072300Y-10241600D02*
X12032300Y-10281600D01*
X12045000Y-5799450D02*
X12085000Y-5839450D01*
X12085000Y-5799450D02*
X12045000Y-5839450D01*
X12286300Y-4132900D02*
X12326300Y-4172900D01*
X12326300Y-4132900D02*
X12286300Y-4172900D01*
X12426000Y-5441000D02*
X12466000Y-5481000D01*
X12466000Y-5441000D02*
X12426000Y-5481000D01*
X12489500Y-7117400D02*
X12529500Y-7157400D01*
X12529500Y-7117400D02*
X12489500Y-7157400D01*
X12502200Y-6507800D02*
X12542200Y-6547800D01*
X12542200Y-6507800D02*
X12502200Y-6547800D01*
X12502200Y-6914200D02*
X12542200Y-6954200D01*
X12542200Y-6914200D02*
X12502200Y-6954200D01*
X12527600Y-7691750D02*
X12567600Y-7731750D01*
X12567600Y-7691750D02*
X12527600Y-7731750D01*
X12756200Y-11511600D02*
X12796200Y-11551600D01*
X12796200Y-11511600D02*
X12756200Y-11551600D01*
X12768900Y-9835199D02*
X12808900Y-9875199D01*
X12808900Y-9835199D02*
X12768900Y-9875199D01*
X12972100Y-8857300D02*
X13012100Y-8897300D01*
X13012100Y-8857300D02*
X12972100Y-8897300D01*
X12984800Y-6101400D02*
X13024800Y-6141400D01*
X13024800Y-6101400D02*
X12984800Y-6141400D01*
X12984800Y-8374700D02*
X13024800Y-8414700D01*
X13024800Y-8374700D02*
X12984800Y-8414700D01*
X12987949Y-5279049D02*
X13027949Y-5319049D01*
X13027949Y-5279049D02*
X12987949Y-5319049D01*
X13162600Y-4005900D02*
X13202600Y-4045900D01*
X13202600Y-4005900D02*
X13162600Y-4045900D01*
X13226100Y-12172000D02*
X13266100Y-12212000D01*
X13266100Y-12172000D02*
X13226100Y-12212000D01*
X13238800Y-6063300D02*
X13278800Y-6103300D01*
X13278800Y-6063300D02*
X13238800Y-6103300D01*
X13416600Y-11295700D02*
X13456600Y-11335700D01*
X13456600Y-11295700D02*
X13416600Y-11335700D01*
X13454700Y-5009199D02*
X13494700Y-5049199D01*
X13494700Y-5009199D02*
X13454700Y-5049199D01*
X13454700Y-9619300D02*
X13494700Y-9659300D01*
X13494700Y-9619300D02*
X13454700Y-9659300D01*
X13751569Y-7908499D02*
X13791569Y-7948499D01*
X13791569Y-7908499D02*
X13751569Y-7948499D01*
X13835700Y-9911400D02*
X13875700Y-9951400D01*
X13875700Y-9911400D02*
X13835700Y-9951400D01*
X13924600Y-10101900D02*
X13964600Y-10141900D01*
X13964600Y-10101900D02*
X13924600Y-10141900D01*
X13924600Y-10758498D02*
X13964600Y-10798498D01*
X13964600Y-10758498D02*
X13924600Y-10798498D01*
X13975400Y-5796600D02*
X14015400Y-5836600D01*
X14015400Y-5796600D02*
X13975400Y-5836600D01*
X13975400Y-11295700D02*
X14015400Y-11335700D01*
X14015400Y-11295700D02*
X13975400Y-11335700D01*
X14177102Y-7337736D02*
X14217102Y-7377736D01*
X14217102Y-7337736D02*
X14177102Y-7377736D01*
X14178600Y-5402900D02*
X14218600Y-5442900D01*
X14218600Y-5402900D02*
X14178600Y-5442900D01*
X14191300Y-5542600D02*
X14231300Y-5582600D01*
X14231300Y-5542600D02*
X14191300Y-5582600D01*
X14204000Y-4158300D02*
X14244000Y-4198300D01*
X14244000Y-4158300D02*
X14204000Y-4198300D01*
X14356400Y-11076300D02*
X14396400Y-11116300D01*
X14396400Y-11076300D02*
X14356400Y-11116300D01*
X14407200Y-11905300D02*
X14447200Y-11945300D01*
X14447200Y-11905300D02*
X14407200Y-11945300D01*
X14445300Y-7701600D02*
X14485300Y-7741600D01*
X14485300Y-7701600D02*
X14445300Y-7741600D01*
X14572300Y-6495100D02*
X14612300Y-6535100D01*
X14612300Y-6495100D02*
X14572300Y-6535100D01*
X14597700Y-6799900D02*
X14637700Y-6839900D01*
X14637700Y-6799900D02*
X14597700Y-6839900D01*
X14724700Y-7473000D02*
X14764700Y-7513000D01*
X14764700Y-7473000D02*
X14724700Y-7513000D01*
X14726027Y-9059173D02*
X14766027Y-9099173D01*
X14766027Y-9059173D02*
X14726027Y-9099173D01*
X14750100Y-5555300D02*
X14790100Y-5595300D01*
X14790100Y-5555300D02*
X14750100Y-5595300D01*
X14846950Y-8074650D02*
X14886950Y-8114650D01*
X14886950Y-8074650D02*
X14846950Y-8114650D01*
X14857443Y-8863042D02*
X14897443Y-8903042D01*
X14897443Y-8863042D02*
X14857443Y-8903042D01*
X14915200Y-7206300D02*
X14955200Y-7246300D01*
X14955200Y-7206300D02*
X14915200Y-7246300D01*
X15029500Y-8374700D02*
X15069500Y-8414700D01*
X15069500Y-8374700D02*
X15029500Y-8414700D01*
X15054900Y-4005900D02*
X15094900Y-4045900D01*
X15094900Y-4005900D02*
X15054900Y-4045900D01*
X15093000Y-9336401D02*
X15133000Y-9376401D01*
X15133000Y-9336401D02*
X15093000Y-9376401D01*
X15118400Y-11041700D02*
X15158400Y-11081700D01*
X15158400Y-11041700D02*
X15118400Y-11081700D01*
X15156500Y-6037900D02*
X15196500Y-6077900D01*
X15196500Y-6037900D02*
X15156500Y-6077900D01*
X15359700Y-5028250D02*
X15399700Y-5068250D01*
X15399700Y-5028250D02*
X15359700Y-5068250D01*
X15384879Y-9607432D02*
X15424879Y-9647432D01*
X15424879Y-9607432D02*
X15384879Y-9647432D01*
X15385100Y-11689400D02*
X15425100Y-11729400D01*
X15425100Y-11689400D02*
X15385100Y-11729400D01*
X15439049Y-9997151D02*
X15479049Y-10037151D01*
X15479049Y-9997151D02*
X15439049Y-10037151D01*
X15515599Y-9174800D02*
X15555599Y-9214800D01*
X15555599Y-9174800D02*
X15515599Y-9214800D01*
X15613700Y-7930200D02*
X15653700Y-7970200D01*
X15653700Y-7930200D02*
X15613700Y-7970200D01*
X15829600Y-10140000D02*
X15869600Y-10180000D01*
X15869600Y-10140000D02*
X15829600Y-10180000D01*
X15855000Y-5799450D02*
X15895000Y-5839450D01*
X15895000Y-5799450D02*
X15855000Y-5839450D01*
X16032800Y-10736900D02*
X16072800Y-10776900D01*
X16072800Y-10736900D02*
X16032800Y-10776900D01*
X16083600Y-9054150D02*
X16123600Y-9094150D01*
X16123600Y-9054150D02*
X16083600Y-9094150D01*
X16109000Y-4158300D02*
X16149000Y-4198300D01*
X16149000Y-4158300D02*
X16109000Y-4198300D01*
X16159800Y-9390700D02*
X16199800Y-9430700D01*
X16199800Y-9390700D02*
X16159800Y-9430700D01*
X16208449Y-11902151D02*
X16248449Y-11942151D01*
X16248449Y-11902151D02*
X16208449Y-11942151D01*
X16210600Y-11003600D02*
X16250600Y-11043600D01*
X16250600Y-11003600D02*
X16210600Y-11043600D01*
X16312200Y-6418900D02*
X16352200Y-6458900D01*
X16352200Y-6418900D02*
X16312200Y-6458900D01*
X16312200Y-6965000D02*
X16352200Y-7005000D01*
X16352200Y-6965000D02*
X16312200Y-7005000D01*
X16337600Y-7688900D02*
X16377600Y-7728900D01*
X16377600Y-7688900D02*
X16337600Y-7728900D01*
X16566200Y-9841550D02*
X16606200Y-9881550D01*
X16606200Y-9841550D02*
X16566200Y-9881550D01*
X16782100Y-8908100D02*
X16822100Y-8948100D01*
X16822100Y-8908100D02*
X16782100Y-8948100D01*
X16807500Y-8362000D02*
X16847500Y-8402000D01*
X16847500Y-8362000D02*
X16807500Y-8402000D01*
X16921800Y-12438700D02*
X16961800Y-12478700D01*
X16961800Y-12438700D02*
X16921800Y-12478700D01*
X16969025Y-4027868D02*
X17009025Y-4067868D01*
X17009025Y-4027868D02*
X16969025Y-4067868D01*
X17264700Y-5060000D02*
X17304700Y-5100000D01*
X17304700Y-5060000D02*
X17264700Y-5100000D01*
X17278653Y-9596750D02*
X17318653Y-9636750D01*
X17318653Y-9596750D02*
X17278653Y-9636750D01*
X17544100Y-3764600D02*
X17584100Y-3804600D01*
X17584100Y-3764600D02*
X17544100Y-3804600D01*
X17561048Y-4662053D02*
X17601048Y-4702053D01*
X17601048Y-4662053D02*
X17561048Y-4702053D01*
X17734600Y-10762300D02*
X17774600Y-10802300D01*
X17774600Y-10762300D02*
X17734600Y-10802300D01*
X17747300Y-10317800D02*
X17787300Y-10357800D01*
X17787300Y-10317800D02*
X17747300Y-10357800D01*
X18706150Y-6050600D02*
X18746150Y-6090600D01*
X18746150Y-6050600D02*
X18706150Y-6090600D01*
X19004600Y-7358700D02*
X19044600Y-7398700D01*
X19044600Y-7358700D02*
X19004600Y-7398700D01*
X19125250Y-3751900D02*
X19165250Y-3791900D01*
X19165250Y-3751900D02*
X19125250Y-3791900D01*
X19125250Y-4567500D02*
X19165250Y-4607500D01*
X19165250Y-4567500D02*
X19125250Y-4607500D01*
X19188750Y-7917500D02*
X19228750Y-7957500D01*
X19228750Y-7917500D02*
X19188750Y-7957500D01*
X19417350Y-5783900D02*
X19457350Y-5823900D01*
X19457350Y-5783900D02*
X19417350Y-5823900D01*
X19474500Y-7460300D02*
X19514500Y-7500300D01*
X19514500Y-7460300D02*
X19474500Y-7500300D01*
X19639600Y-9136700D02*
X19679600Y-9176700D01*
X19679600Y-9136700D02*
X19639600Y-9176700D01*
X19645950Y-4120200D02*
X19685950Y-4160200D01*
X19685950Y-4120200D02*
X19645950Y-4160200D01*
X19861850Y-6457000D02*
X19901850Y-6497000D01*
X19901850Y-6457000D02*
X19861850Y-6497000D01*
X19899950Y-7701600D02*
X19939950Y-7741600D01*
X19939950Y-7701600D02*
X19899950Y-7741600D01*
X20001550Y-9847900D02*
X20041550Y-9887900D01*
X20041550Y-9847900D02*
X20001550Y-9887900D01*
X20024100Y-5501001D02*
X20064100Y-5541001D01*
X20064100Y-5501001D02*
X20024100Y-5541001D01*
X20096800Y-6761800D02*
X20136800Y-6801800D01*
X20136800Y-6761800D02*
X20096800Y-6801800D01*
X20103150Y-9251000D02*
X20143150Y-9291000D01*
X20143150Y-9251000D02*
X20103150Y-9291000D01*
X20173000Y-5504500D02*
X20213000Y-5544500D01*
X20213000Y-5504500D02*
X20173000Y-5544500D01*
X20280950Y-7390450D02*
X20320950Y-7430450D01*
X20320950Y-7390450D02*
X20280950Y-7430450D01*
X20331750Y-8349300D02*
X20371750Y-8389300D01*
X20371750Y-8349300D02*
X20331750Y-8389300D01*
X20331750Y-8870000D02*
X20371750Y-8910000D01*
X20371750Y-8870000D02*
X20331750Y-8910000D01*
X20382550Y-3894451D02*
X20422550Y-3934451D01*
X20422550Y-3894451D02*
X20382550Y-3934451D01*
X20401600Y-8031800D02*
X20441600Y-8071800D01*
X20441600Y-8031800D02*
X20401600Y-8071800D01*
X20585750Y-6088700D02*
X20625750Y-6128700D01*
X20625750Y-6088700D02*
X20585750Y-6128700D01*
X20769900Y-5504500D02*
X20809900Y-5544500D01*
X20809900Y-5504500D02*
X20769900Y-5544500D01*
X20801650Y-5047300D02*
X20841650Y-5087300D01*
X20841650Y-5047300D02*
X20801650Y-5087300D01*
X20823223Y-9596750D02*
X20863223Y-9636750D01*
X20863223Y-9596750D02*
X20823223Y-9636750D01*
X21068350Y-7955600D02*
X21108350Y-7995600D01*
X21108350Y-7955600D02*
X21068350Y-7995600D01*
X21271550Y-9117650D02*
X21311550Y-9157650D01*
X21311550Y-9117650D02*
X21271550Y-9157650D01*
X21331551Y-10203500D02*
X21371551Y-10243500D01*
X21371551Y-10203500D02*
X21331551Y-10243500D01*
X21335050Y-5796600D02*
X21375050Y-5836600D01*
X21375050Y-5796600D02*
X21335050Y-5836600D01*
X21337157Y-10734794D02*
X21377157Y-10774794D01*
X21377157Y-10734794D02*
X21337157Y-10774794D01*
X21423950Y-9987600D02*
X21463950Y-10027600D01*
X21463950Y-9987600D02*
X21423950Y-10027600D01*
X21525550Y-4171000D02*
X21565550Y-4211000D01*
X21565550Y-4171000D02*
X21525550Y-4211000D01*
X21645593Y-11283607D02*
X21685593Y-11323607D01*
X21685593Y-11283607D02*
X21645593Y-11323607D01*
X21646201Y-5275900D02*
X21686201Y-5315900D01*
X21686201Y-5275900D02*
X21646201Y-5315900D01*
X21754150Y-6939600D02*
X21794150Y-6979600D01*
X21794150Y-6939600D02*
X21754150Y-6979600D01*
X21760500Y-11156000D02*
X21800500Y-11196000D01*
X21800500Y-11156000D02*
X21760500Y-11196000D01*
X21766850Y-6444300D02*
X21806850Y-6484300D01*
X21806850Y-6444300D02*
X21766850Y-6484300D01*
X21766850Y-11752900D02*
X21806850Y-11792900D01*
X21806850Y-11752900D02*
X21766850Y-11792900D01*
X21792250Y-7701600D02*
X21832250Y-7741600D01*
X21832250Y-7701600D02*
X21792250Y-7741600D01*
X21855750Y-6076000D02*
X21895750Y-6116000D01*
X21895750Y-6076000D02*
X21855750Y-6116000D01*
X21963700Y-9866950D02*
X22003700Y-9906950D01*
X22003700Y-9866950D02*
X21963700Y-9906950D01*
X22014500Y-9447850D02*
X22054500Y-9487850D01*
X22054500Y-9447850D02*
X22014500Y-9487850D01*
X22236750Y-8349300D02*
X22276750Y-8389300D01*
X22276750Y-8349300D02*
X22236750Y-8389300D01*
X22236750Y-8857300D02*
X22276750Y-8897300D01*
X22276750Y-8857300D02*
X22236750Y-8897300D01*
X22274850Y-3869051D02*
X22314850Y-3909051D01*
X22314850Y-3869051D02*
X22274850Y-3909051D01*
X22332000Y-11168700D02*
X22372000Y-11208700D01*
X22372000Y-11168700D02*
X22332000Y-11208700D01*
X22503450Y-6012500D02*
X22543450Y-6052500D01*
X22543450Y-6012500D02*
X22503450Y-6052500D01*
X22592350Y-5085400D02*
X22632350Y-5125400D01*
X22632350Y-5085400D02*
X22592350Y-5125400D01*
X22706650Y-9581200D02*
X22746650Y-9621200D01*
X22746650Y-9581200D02*
X22706650Y-9621200D01*
X22947950Y-12095800D02*
X22987950Y-12135800D01*
X22987950Y-12095800D02*
X22947950Y-12135800D01*
X22973350Y-7917500D02*
X23013350Y-7957500D01*
X23013350Y-7917500D02*
X22973350Y-7957500D01*
X23033068Y-11139518D02*
X23073068Y-11179518D01*
X23073068Y-11139518D02*
X23033068Y-11179518D01*
X23049550Y-11841800D02*
X23089550Y-11881800D01*
X23089550Y-11841800D02*
X23049550Y-11881800D01*
X23189250Y-10279700D02*
X23229250Y-10319700D01*
X23229250Y-10279700D02*
X23189250Y-10319700D01*
X23227350Y-5799450D02*
X23267350Y-5839450D01*
X23267350Y-5799450D02*
X23227350Y-5839450D01*
X23322600Y-5580700D02*
X23362600Y-5620700D01*
X23362600Y-5580700D02*
X23322600Y-5620700D01*
X23455950Y-4132900D02*
X23495950Y-4172900D01*
X23495950Y-4132900D02*
X23455950Y-4172900D01*
X23659150Y-6914201D02*
X23699150Y-6954201D01*
X23699150Y-6914201D02*
X23659150Y-6954201D01*
X23671850Y-6482400D02*
X23711850Y-6522400D01*
X23711850Y-6482400D02*
X23671850Y-6522400D01*
X23684550Y-7663500D02*
X23724550Y-7703500D01*
X23724550Y-7663500D02*
X23684550Y-7703500D01*
X23875050Y-9809800D02*
X23915050Y-9849800D01*
X23915050Y-9809800D02*
X23875050Y-9849800D01*
X23970300Y-5301300D02*
X24010300Y-5341300D01*
X24010300Y-5301300D02*
X23970300Y-5341300D01*
X23970300Y-5580700D02*
X24010300Y-5620700D01*
X24010300Y-5580700D02*
X23970300Y-5620700D01*
X23995700Y-6164900D02*
X24035700Y-6204900D01*
X24035700Y-6164900D02*
X23995700Y-6204900D01*
X24141750Y-8285800D02*
X24181750Y-8325800D01*
X24181750Y-8285800D02*
X24141750Y-8325800D01*
X24141750Y-8870000D02*
X24181750Y-8910000D01*
X24181750Y-8870000D02*
X24141750Y-8910000D01*
X24167150Y-3895402D02*
X24207150Y-3935402D01*
X24207150Y-3895402D02*
X24167150Y-3935402D01*
X24452900Y-9416100D02*
X24492900Y-9456100D01*
X24492900Y-9416100D02*
X24452900Y-9456100D01*
X24471950Y-11156000D02*
X24511950Y-11196000D01*
X24511950Y-11156000D02*
X24471950Y-11196000D01*
X24550690Y-6180140D02*
X24590690Y-6220140D01*
X24590690Y-6180140D02*
X24550690Y-6220140D01*
X24624350Y-5085400D02*
X24664350Y-5125400D01*
X24664350Y-5085400D02*
X24624350Y-5125400D01*
X24630700Y-9612950D02*
X24670700Y-9652950D01*
X24670700Y-9612950D02*
X24630700Y-9652950D01*
X24852950Y-7981000D02*
X24892950Y-8021000D01*
X24892950Y-7981000D02*
X24852950Y-8021000D01*
X25094250Y-10165400D02*
X25134250Y-10205400D01*
X25134250Y-10165400D02*
X25094250Y-10205400D01*
X25119650Y-5796600D02*
X25159650Y-5836600D01*
X25159650Y-5796600D02*
X25119650Y-5836600D01*
X25170450Y-11270300D02*
X25210450Y-11310300D01*
X25210450Y-11270300D02*
X25170450Y-11310300D01*
X25348250Y-4158300D02*
X25388250Y-4198300D01*
X25388250Y-4158300D02*
X25348250Y-4198300D01*
X25551450Y-6914200D02*
X25591450Y-6954200D01*
X25591450Y-6914200D02*
X25551450Y-6954200D01*
X25564150Y-6457000D02*
X25604150Y-6497000D01*
X25604150Y-6457000D02*
X25564150Y-6497000D01*
X25602250Y-7688900D02*
X25642250Y-7728900D01*
X25642250Y-7688900D02*
X25602250Y-7728900D01*
X25614950Y-6114100D02*
X25654950Y-6154100D01*
X25654950Y-6114100D02*
X25614950Y-6154100D01*
X25843550Y-9860600D02*
X25883550Y-9900600D01*
X25883550Y-9860600D02*
X25843550Y-9900600D01*
X26046750Y-8349300D02*
X26086750Y-8389300D01*
X26086750Y-8349300D02*
X26046750Y-8389300D01*
X26046750Y-8895400D02*
X26086750Y-8935400D01*
X26086750Y-8895400D02*
X26046750Y-8935400D01*
X26072150Y-3890003D02*
X26112150Y-3930003D01*
X26112150Y-3890003D02*
X26072150Y-3930003D01*
X26180100Y-5555300D02*
X26220100Y-5595300D01*
X26220100Y-5555300D02*
X26180100Y-5595300D01*
X26262650Y-5974400D02*
X26302650Y-6014400D01*
X26302650Y-5974400D02*
X26262650Y-6014400D01*
X26326150Y-11498900D02*
X26366150Y-11538900D01*
X26366150Y-11498900D02*
X26326150Y-11538900D01*
X26526810Y-5026980D02*
X26566810Y-5066980D01*
X26566810Y-5026980D02*
X26526810Y-5066980D01*
X26551131Y-9593900D02*
X26591131Y-9633900D01*
X26591131Y-9593900D02*
X26551131Y-9633900D01*
X26713500Y-5453700D02*
X26753500Y-5493700D01*
X26753500Y-5453700D02*
X26713500Y-5493700D01*
X26719850Y-10965500D02*
X26759850Y-11005500D01*
X26759850Y-10965500D02*
X26719850Y-11005500D01*
X26719851Y-11867200D02*
X26759851Y-11907200D01*
X26759851Y-11867200D02*
X26719851Y-11907200D01*
X26770650Y-7892100D02*
X26810650Y-7932100D01*
X26810650Y-7892100D02*
X26770650Y-7932100D01*
X26999250Y-10267000D02*
X27039250Y-10307000D01*
X27039250Y-10267000D02*
X26999250Y-10307000D01*
X26999250Y-10775000D02*
X27039250Y-10815000D01*
X27039250Y-10775000D02*
X26999250Y-10815000D01*
X26999250Y-12108500D02*
X27039250Y-12148500D01*
X27039250Y-12108500D02*
X26999250Y-12148500D01*
X27050050Y-5771200D02*
X27090050Y-5811200D01*
X27090050Y-5771200D02*
X27050050Y-5811200D01*
X27151650Y-11156000D02*
X27191650Y-11196000D01*
X27191650Y-11156000D02*
X27151650Y-11196000D01*
X27259600Y-4044000D02*
X27299600Y-4084000D01*
X27299600Y-4044000D02*
X27259600Y-4084000D01*
X27481850Y-6495100D02*
X27521850Y-6535100D01*
X27521850Y-6495100D02*
X27481850Y-6535100D01*
X27481850Y-6939600D02*
X27521850Y-6979600D01*
X27521850Y-6939600D02*
X27481850Y-6979600D01*
X27507250Y-7663500D02*
X27547250Y-7703500D01*
X27547250Y-7663500D02*
X27507250Y-7703500D01*
X27666000Y-6076000D02*
X27706000Y-6116000D01*
X27706000Y-6076000D02*
X27666000Y-6116000D01*
X27697750Y-9860600D02*
X27737750Y-9900600D01*
X27737750Y-9860600D02*
X27697750Y-9900600D01*
X27862850Y-11244900D02*
X27902850Y-11284900D01*
X27902850Y-11244900D02*
X27862850Y-11284900D01*
X27869200Y-5364800D02*
X27909200Y-5404800D01*
X27909200Y-5364800D02*
X27869200Y-5404800D01*
X27951750Y-11689400D02*
X27991750Y-11729400D01*
X27991750Y-11689400D02*
X27951750Y-11729400D01*
X27964450Y-8844600D02*
X28004450Y-8884600D01*
X28004450Y-8844600D02*
X27964450Y-8884600D01*
X27989850Y-8362000D02*
X28029850Y-8402000D01*
X28029850Y-8362000D02*
X27989850Y-8402000D01*
X28015250Y-3895402D02*
X28055250Y-3935402D01*
X28055250Y-3895402D02*
X28015250Y-3935402D01*
X28218450Y-6050600D02*
X28258450Y-6090600D01*
X28258450Y-6050600D02*
X28218450Y-6090600D01*
X28434350Y-5009200D02*
X28474350Y-5049200D01*
X28474350Y-5009200D02*
X28434350Y-5049200D01*
X28440093Y-9600857D02*
X28480093Y-9640857D01*
X28480093Y-9600857D02*
X28440093Y-9640857D01*
X28599450Y-11923100D02*
X28639450Y-11963100D01*
X28639450Y-11923100D02*
X28599450Y-11963100D01*
X28662950Y-7955600D02*
X28702950Y-7995600D01*
X28702950Y-7955600D02*
X28662950Y-7995600D01*
X28688350Y-11524300D02*
X28728350Y-11564300D01*
X28728350Y-11524300D02*
X28688350Y-11564300D01*
X28904250Y-10317800D02*
X28944250Y-10357800D01*
X28944250Y-10317800D02*
X28904250Y-10357800D01*
X28904250Y-10762300D02*
X28944250Y-10802300D01*
X28944250Y-10762300D02*
X28904250Y-10802300D01*
X28942350Y-5783900D02*
X28982350Y-5823900D01*
X28982350Y-5783900D02*
X28942350Y-5823900D01*
X29120150Y-11956100D02*
X29160150Y-11996100D01*
X29160150Y-11956100D02*
X29120150Y-11996100D01*
X29145550Y-11016300D02*
X29185550Y-11056300D01*
X29185550Y-11016300D02*
X29145550Y-11056300D01*
X29164600Y-5555300D02*
X29204600Y-5595300D01*
X29204600Y-5555300D02*
X29164600Y-5595300D01*
X29183650Y-4183700D02*
X29223650Y-4223700D01*
X29223650Y-4183700D02*
X29183650Y-4223700D01*
X29386850Y-6203000D02*
X29426850Y-6243000D01*
X29426850Y-6203000D02*
X29386850Y-6243000D01*
X29386850Y-6952300D02*
X29426850Y-6992300D01*
X29426850Y-6952300D02*
X29386850Y-6992300D01*
X29399550Y-7688900D02*
X29439550Y-7728900D01*
X29439550Y-7688900D02*
X29399550Y-7728900D01*
X29424950Y-12184700D02*
X29464950Y-12224700D01*
X29464950Y-12184700D02*
X29424950Y-12224700D01*
X29602750Y-11181400D02*
X29642750Y-11221400D01*
X29642750Y-11181400D02*
X29602750Y-11221400D01*
X29710700Y-5568000D02*
X29750700Y-5608000D01*
X29750700Y-5568000D02*
X29710700Y-5608000D01*
X29856750Y-8336600D02*
X29896750Y-8376600D01*
X29896750Y-8336600D02*
X29856750Y-8376600D01*
X29901200Y-3891600D02*
X29941200Y-3931600D01*
X29941200Y-3891600D02*
X29901200Y-3931600D01*
X30123450Y-6025200D02*
X30163450Y-6065200D01*
X30163450Y-6025200D02*
X30123450Y-6065200D01*
X30142500Y-8971600D02*
X30182500Y-9011600D01*
X30182500Y-8971600D02*
X30142500Y-9011600D01*
X30326650Y-5060000D02*
X30366650Y-5100000D01*
X30366650Y-5060000D02*
X30326650Y-5100000D01*
X30339350Y-11308400D02*
X30379350Y-11348400D01*
X30379350Y-11308400D02*
X30339350Y-11348400D01*
X30339350Y-11651300D02*
X30379350Y-11691300D01*
X30379350Y-11651300D02*
X30339350Y-11691300D01*
X30860050Y-5745800D02*
X30900050Y-5785800D01*
X30900050Y-5745800D02*
X30860050Y-5785800D01*
X31088650Y-11410000D02*
X31128650Y-11450000D01*
X31128650Y-11410000D02*
X31088650Y-11450000D01*
X31279150Y-9784400D02*
X31319150Y-9824400D01*
X31319150Y-9784400D02*
X31279150Y-9824400D01*
X31393450Y-6939600D02*
X31433450Y-6979600D01*
X31433450Y-6939600D02*
X31393450Y-6979600D01*
X31469650Y-11867200D02*
X31509650Y-11907200D01*
X31509650Y-11867200D02*
X31469650Y-11907200D01*
X31495050Y-10990900D02*
X31535050Y-11030900D01*
X31535050Y-10990900D02*
X31495050Y-11030900D01*
X31545850Y-12172000D02*
X31585850Y-12212000D01*
X31585850Y-12172000D02*
X31545850Y-12212000D01*
X31774450Y-7945752D02*
X31814450Y-7985752D01*
X31814450Y-7945752D02*
X31774450Y-7985752D01*
X31952250Y-11143300D02*
X31992250Y-11183300D01*
X31992250Y-11143300D02*
X31952250Y-11183300D01*
X32021203Y-4199251D02*
X32061203Y-4239251D01*
X32061203Y-4199251D02*
X32021203Y-4239251D01*
X32028450Y-9609450D02*
X32068450Y-9649450D01*
X32068450Y-9609450D02*
X32028450Y-9649450D01*
X32041150Y-5580700D02*
X32081150Y-5620700D01*
X32081150Y-5580700D02*
X32041150Y-5620700D01*
X32472950Y-10736900D02*
X32512950Y-10776900D01*
X32512950Y-10736900D02*
X32472950Y-10776900D01*
X32485650Y-7704450D02*
X32525650Y-7744450D01*
X32525650Y-7704450D02*
X32485650Y-7744450D01*
X32498350Y-6063300D02*
X32538350Y-6103300D01*
X32538350Y-6063300D02*
X32498350Y-6103300D01*
X32498350Y-10292400D02*
X32538350Y-10332400D01*
X32538350Y-10292400D02*
X32498350Y-10332400D01*
X32625350Y-5580700D02*
X32665350Y-5620700D01*
X32665350Y-5580700D02*
X32625350Y-5620700D01*
X32739650Y-3890003D02*
X32779650Y-3930003D01*
X32779650Y-3890003D02*
X32739650Y-3930003D01*
X32757447Y-11379503D02*
X32797447Y-11419503D01*
X32797447Y-11379503D02*
X32757447Y-11419503D01*
X32930150Y-8908100D02*
X32970150Y-8948100D01*
X32970150Y-8908100D02*
X32930150Y-8948100D01*
X32968250Y-8400100D02*
X33008250Y-8440100D01*
X33008250Y-8400100D02*
X32968250Y-8440100D01*
X33234950Y-5783900D02*
X33274950Y-5823900D01*
X33274950Y-5783900D02*
X33234950Y-5823900D01*
X33476250Y-11498900D02*
X33516250Y-11538900D01*
X33516250Y-11498900D02*
X33476250Y-11538900D01*
X33679450Y-6482400D02*
X33719450Y-6522400D01*
X33719450Y-6482400D02*
X33679450Y-6522400D01*
X33679450Y-6952300D02*
X33719450Y-6992300D01*
X33719450Y-6952300D02*
X33679450Y-6992300D01*
X33819150Y-11816400D02*
X33859150Y-11856400D01*
X33859150Y-11816400D02*
X33819150Y-11856400D01*
X33844550Y-10851200D02*
X33884550Y-10891200D01*
X33884550Y-10851200D02*
X33844550Y-10891200D01*
X33933450Y-4825050D02*
X33973450Y-4865050D01*
X33973450Y-4825050D02*
X33933450Y-4865050D01*
X33946150Y-12121200D02*
X33986150Y-12161200D01*
X33986150Y-12121200D02*
X33946150Y-12161200D01*
X33948050Y-5093650D02*
X33988050Y-5133650D01*
X33988050Y-5093650D02*
X33948050Y-5133650D01*
X34022350Y-5314000D02*
X34062350Y-5354000D01*
X34062350Y-5314000D02*
X34022350Y-5354000D01*
X34022350Y-6177600D02*
X34062350Y-6217600D01*
X34062350Y-6177600D02*
X34022350Y-6217600D01*
X34390650Y-11143300D02*
X34430650Y-11183300D01*
X34430650Y-11143300D02*
X34390650Y-11183300D01*
X34670050Y-5568000D02*
X34710050Y-5608000D01*
X34710050Y-5568000D02*
X34670050Y-5608000D01*
X35292350Y-5568000D02*
X35332350Y-5608000D01*
X35332350Y-5568000D02*
X35292350Y-5608000D01*
X35343150Y-11689400D02*
X35383150Y-11729400D01*
X35383150Y-11689400D02*
X35343150Y-11729400D01*
X35381250Y-5999800D02*
X35421250Y-6039800D01*
X35421250Y-5999800D02*
X35381250Y-6039800D01*
X35381251Y-4107500D02*
X35421251Y-4147500D01*
X35421251Y-4107500D02*
X35381251Y-4147500D01*
X35520950Y-11283000D02*
X35560950Y-11323000D01*
X35560950Y-11283000D02*
X35520950Y-11323000D01*
X35559050Y-12032300D02*
X35599050Y-12072300D01*
X35599050Y-12032300D02*
X35559050Y-12072300D01*
X36092450Y-5783900D02*
X36132450Y-5823900D01*
X36132450Y-5783900D02*
X36092450Y-5823900D01*
X36092450Y-11511600D02*
X36132450Y-11551600D01*
X36132450Y-11511600D02*
X36092450Y-11551600D01*
X36130550Y-3891600D02*
X36170550Y-3931600D01*
X36170550Y-3891600D02*
X36130550Y-3931600D01*
X36486150Y-11930700D02*
X36526150Y-11970700D01*
X36526150Y-11930700D02*
X36486150Y-11970700D01*
X36498850Y-4996500D02*
X36538850Y-5036500D01*
X36538850Y-4996500D02*
X36498850Y-5036500D01*
X36498850Y-6905000D02*
X36538850Y-6945000D01*
X36538850Y-6905000D02*
X36498850Y-6945000D01*
X36511550Y-10965500D02*
X36551550Y-11005500D01*
X36551550Y-10965500D02*
X36511550Y-11005500D01*
X36562350Y-6482400D02*
X36602350Y-6522400D01*
X36602350Y-6482400D02*
X36562350Y-6522400D01*
X36575050Y-5237800D02*
X36615050Y-5277800D01*
X36615050Y-5237800D02*
X36575050Y-5277800D01*
X36600450Y-12210100D02*
X36640450Y-12250100D01*
X36640450Y-12210100D02*
X36600450Y-12250100D01*
X36702050Y-11156000D02*
X36742050Y-11196000D01*
X36742050Y-11156000D02*
X36702050Y-11196000D01*
X37286250Y-4158300D02*
X37326250Y-4198300D01*
X37326250Y-4158300D02*
X37286250Y-4198300D01*
X37464050Y-6177600D02*
X37504050Y-6217600D01*
X37504050Y-6177600D02*
X37464050Y-6217600D01*
X37464050Y-10013000D02*
X37504050Y-10053000D01*
X37504050Y-10013000D02*
X37464050Y-10053000D01*
X37673600Y-5692150D02*
X37713600Y-5732150D01*
X37713600Y-5692150D02*
X37673600Y-5732150D01*
X37794250Y-11232200D02*
X37834250Y-11272200D01*
X37834250Y-11232200D02*
X37794250Y-11272200D01*
X37985533Y-3888403D02*
X38025533Y-3928403D01*
X38025533Y-3888403D02*
X37985533Y-3928403D01*
X37997450Y-11498900D02*
X38037450Y-11538900D01*
X38037450Y-11498900D02*
X37997450Y-11538900D01*
X38010150Y-9568500D02*
X38050150Y-9608500D01*
X38050150Y-9568500D02*
X38010150Y-9608500D01*
X38016662Y-5820933D02*
X38056662Y-5860933D01*
X38056662Y-5820933D02*
X38016662Y-5860933D01*
X38041900Y-5580700D02*
X38081900Y-5620700D01*
X38081900Y-5580700D02*
X38041900Y-5620700D01*
X38321300Y-5453700D02*
X38361300Y-5493700D01*
X38361300Y-5453700D02*
X38321300Y-5493700D01*
X38340350Y-11041700D02*
X38380350Y-11081700D01*
X38380350Y-11041700D02*
X38340350Y-11081700D01*
X38365750Y-11791000D02*
X38405750Y-11831000D01*
X38405750Y-11791000D02*
X38365750Y-11831000D01*
X38403850Y-5034600D02*
X38443850Y-5074600D01*
X38443850Y-5034600D02*
X38403850Y-5074600D01*
X38407350Y-6088700D02*
X38447350Y-6128700D01*
X38447350Y-6088700D02*
X38407350Y-6128700D01*
X38429250Y-6892300D02*
X38469250Y-6932300D01*
X38469250Y-6892300D02*
X38429250Y-6932300D01*
X38467350Y-10787700D02*
X38507350Y-10827700D01*
X38507350Y-10787700D02*
X38467350Y-10827700D01*
X38480050Y-6469700D02*
X38520050Y-6509700D01*
X38520050Y-6469700D02*
X38480050Y-6509700D01*
X38480050Y-10292400D02*
X38520050Y-10332400D01*
X38520050Y-10292400D02*
X38480050Y-10332400D01*
X38486309Y-5234949D02*
X38526309Y-5274949D01*
X38526309Y-5234949D02*
X38486309Y-5274949D01*
X38505450Y-12210100D02*
X38545450Y-12250100D01*
X38545450Y-12210100D02*
X38505450Y-12250100D01*
X38835650Y-10419400D02*
X38875650Y-10459400D01*
X38875650Y-10419400D02*
X38835650Y-10459400D01*
X39096000Y-5542600D02*
X39136000Y-5582600D01*
X39136000Y-5542600D02*
X39096000Y-5582600D01*
X39159500Y-4196400D02*
X39199500Y-4236400D01*
X39199500Y-4196400D02*
X39159500Y-4236400D01*
X39178550Y-11752900D02*
X39218550Y-11792900D01*
X39218550Y-11752900D02*
X39178550Y-11792900D01*
X39191250Y-6050600D02*
X39231250Y-6090600D01*
X39231250Y-6050600D02*
X39191250Y-6090600D01*
X39261100Y-7422200D02*
X39301100Y-7462200D01*
X39301100Y-7422200D02*
X39261100Y-7462200D01*
X39267450Y-7758750D02*
X39307450Y-7798750D01*
X39307450Y-7758750D02*
X39267450Y-7798750D01*
X39292850Y-8933500D02*
X39332850Y-8973500D01*
X39332850Y-8933500D02*
X39292850Y-8973500D01*
X39311900Y-10597200D02*
X39351900Y-10637200D01*
X39351900Y-10597200D02*
X39311900Y-10637200D01*
X39311900Y-11244900D02*
X39351900Y-11284900D01*
X39351900Y-11244900D02*
X39311900Y-11284900D01*
X39553200Y-7587300D02*
X39593200Y-7627300D01*
X39593200Y-7587300D02*
X39553200Y-7627300D01*
X39553200Y-8563603D02*
X39593200Y-8603603D01*
X39593200Y-8563603D02*
X39553200Y-8603603D01*
X39864350Y-11930700D02*
X39904350Y-11970700D01*
X39904350Y-11930700D02*
X39864350Y-11970700D01*
X39877050Y-11498900D02*
X39917050Y-11538900D01*
X39917050Y-11498900D02*
X39877050Y-11538900D01*
X39902450Y-5796600D02*
X39942450Y-5836600D01*
X39942450Y-5796600D02*
X39902450Y-5836600D01*
X39915150Y-3888101D02*
X39955150Y-3928101D01*
X39955150Y-3888101D02*
X39915150Y-3928101D01*
X40026600Y-9794250D02*
X40066600Y-9834250D01*
X40066600Y-9794250D02*
X40026600Y-9834250D01*
X40029450Y-8091801D02*
X40069450Y-8131801D01*
X40069450Y-8091801D02*
X40029450Y-8131801D01*
X40039299Y-8628700D02*
X40079299Y-8668700D01*
X40079299Y-8628700D02*
X40039299Y-8668700D01*
X40039299Y-11029000D02*
X40079299Y-11069000D01*
X40079299Y-11029000D02*
X40039299Y-11069000D01*
X40048500Y-7269800D02*
X40088500Y-7309800D01*
X40088500Y-7269800D02*
X40048500Y-7309800D01*
X40048500Y-7269800D02*
X40088500Y-7309800D01*
X40088500Y-7269800D02*
X40048500Y-7309800D01*
X40105650Y-10643082D02*
X40145650Y-10683082D01*
X40145650Y-10643082D02*
X40105650Y-10683082D01*
X40109149Y-9200200D02*
X40149149Y-9240200D01*
X40149149Y-9200200D02*
X40109149Y-9240200D01*
X40109150Y-7635250D02*
X40149150Y-7675250D01*
X40149150Y-7635250D02*
X40109150Y-7675250D01*
X40118349Y-11397300D02*
X40158349Y-11437300D01*
X40158349Y-11397300D02*
X40118349Y-11437300D01*
X40245350Y-11956100D02*
X40285350Y-11996100D01*
X40285350Y-11956100D02*
X40245350Y-11996100D01*
X40318700Y-6482400D02*
X40358700Y-6522400D01*
X40358700Y-6482400D02*
X40318700Y-6522400D01*
X40325049Y-12184700D02*
X40365049Y-12224700D01*
X40365049Y-12184700D02*
X40325049Y-12224700D01*
X40334250Y-4996500D02*
X40374250Y-5036500D01*
X40374250Y-4996500D02*
X40334250Y-5036500D01*
X40334250Y-6926900D02*
X40374250Y-6966900D01*
X40374250Y-6926900D02*
X40334250Y-6966900D01*
X40397750Y-6050600D02*
X40437750Y-6090600D01*
X40437750Y-6050600D02*
X40397750Y-6090600D01*
X40410450Y-8101650D02*
X40450450Y-8141650D01*
X40450450Y-8101650D02*
X40410450Y-8141650D01*
X40475695Y-8374700D02*
X40515695Y-8414700D01*
X40515695Y-8374700D02*
X40475695Y-8414700D01*
X40480000Y-4020000D02*
X40520000Y-4060000D01*
X40520000Y-4020000D02*
X40480000Y-4060000D01*
X40480300Y-4405950D02*
X40520300Y-4445950D01*
X40520300Y-4405950D02*
X40480300Y-4445950D01*
X40563499Y-4272600D02*
X40603499Y-4312600D01*
X40603499Y-4272600D02*
X40563499Y-4312600D01*
X40575550Y-5822000D02*
X40615550Y-5862000D01*
X40615550Y-5822000D02*
X40575550Y-5862000D01*
X41140000Y-7710000D02*
X41180000Y-7750000D01*
X41180000Y-7710000D02*
X41140000Y-7750000D01*
X42117299Y-8069900D02*
X42157299Y-8109900D01*
X42157299Y-8069900D02*
X42117299Y-8109900D01*
X42150000Y-10890000D02*
X42190000Y-10930000D01*
X42190000Y-10890000D02*
X42150000Y-10930000D01*
X42210000Y-12010000D02*
X42250000Y-12050000D01*
X42250000Y-12010000D02*
X42210000Y-12050000D01*
X2800140Y-9000000D02*
G75*
G03*
X2800140Y-9000000I-40640J0D01*
G01*
X3054140Y-9000000D02*
G75*
G03*
X3054140Y-9000000I-40640J0D01*
G01*
X3308140Y-9000000D02*
G75*
G03*
X3308140Y-9000000I-40640J0D01*
G01*
X3562140Y-9000000D02*
G75*
G03*
X3562140Y-9000000I-40640J0D01*
G01*
X41337390Y-9000000D02*
G75*
G03*
X41337390Y-9000000I-40640J0D01*
G01*
X41591390Y-9000000D02*
G75*
G03*
X41591390Y-9000000I-40640J0D01*
G01*
X41845390Y-9000000D02*
G75*
G03*
X41845390Y-9000000I-40640J0D01*
G01*
X42099390Y-9000000D02*
G75*
G03*
X42099390Y-9000000I-40640J0D01*
G01*
X2375900Y-4001300D02*
X2375900Y-4101300D01*
X2325900Y-4051300D02*
X2425900Y-4051300D01*
X2375900Y-4255300D02*
X2375900Y-4355300D01*
X2325900Y-4305300D02*
X2425900Y-4305300D01*
X2375900Y-4509300D02*
X2375900Y-4609300D01*
X2325900Y-4559300D02*
X2425900Y-4559300D01*
X2375900Y-4763300D02*
X2375900Y-4863300D01*
X2325900Y-4813300D02*
X2425900Y-4813300D01*
X2375900Y-5017300D02*
X2375900Y-5117300D01*
X2325900Y-5067300D02*
X2425900Y-5067300D01*
X2375900Y-5271300D02*
X2375900Y-5371300D01*
X2325900Y-5321300D02*
X2425900Y-5321300D01*
X2375900Y-5525300D02*
X2375900Y-5625300D01*
X2325900Y-5575300D02*
X2425900Y-5575300D01*
X2375900Y-5779300D02*
X2375900Y-5879300D01*
X2325900Y-5829300D02*
X2425900Y-5829300D01*
X2375900Y-6033300D02*
X2375900Y-6133300D01*
X2325900Y-6083300D02*
X2425900Y-6083300D01*
X2375900Y-6287300D02*
X2375900Y-6387300D01*
X2325900Y-6337300D02*
X2425900Y-6337300D01*
X2375900Y-6541300D02*
X2375900Y-6641300D01*
X2325900Y-6591300D02*
X2425900Y-6591300D01*
X2375900Y-6795300D02*
X2375900Y-6895300D01*
X2325900Y-6845300D02*
X2425900Y-6845300D01*
X2375900Y-7303300D02*
X2375900Y-7403300D01*
X2325900Y-7353300D02*
X2425900Y-7353300D01*
X2375900Y-7557300D02*
X2375900Y-7657300D01*
X2325900Y-7607300D02*
X2425900Y-7607300D01*
X2375900Y-7811300D02*
X2375900Y-7911300D01*
X2325900Y-7861300D02*
X2425900Y-7861300D01*
X2375900Y-8065300D02*
X2375900Y-8165300D01*
X2325900Y-8115300D02*
X2425900Y-8115300D01*
X2375900Y-8319300D02*
X2375900Y-8419300D01*
X2325900Y-8369300D02*
X2425900Y-8369300D01*
X2375900Y-8573300D02*
X2375900Y-8673300D01*
X2325900Y-8623300D02*
X2425900Y-8623300D01*
X2629900Y-4509300D02*
X2629900Y-4609300D01*
X2579900Y-4559300D02*
X2679900Y-4559300D01*
X3135400Y-4509300D02*
X3135400Y-4609300D01*
X3085400Y-4559300D02*
X3185400Y-4559300D01*
X3389400Y-4509300D02*
X3389400Y-4609300D01*
X3339400Y-4559300D02*
X3439400Y-4559300D01*
X3643400Y-4509300D02*
X3643400Y-4609300D01*
X3593400Y-4559300D02*
X3693400Y-4559300D01*
X3897400Y-4001300D02*
X3897400Y-4101300D01*
X3847400Y-4051300D02*
X3947400Y-4051300D01*
X3897400Y-4255300D02*
X3897400Y-4355300D01*
X3847400Y-4305300D02*
X3947400Y-4305300D01*
X3897400Y-4509300D02*
X3897400Y-4609300D01*
X3847400Y-4559300D02*
X3947400Y-4559300D01*
X3897400Y-4763300D02*
X3897400Y-4863300D01*
X3847400Y-4813300D02*
X3947400Y-4813300D01*
X3897400Y-5017300D02*
X3897400Y-5117300D01*
X3847400Y-5067300D02*
X3947400Y-5067300D01*
X3897400Y-5271300D02*
X3897400Y-5371300D01*
X3847400Y-5321300D02*
X3947400Y-5321300D01*
X3897400Y-5525300D02*
X3897400Y-5625300D01*
X3847400Y-5575300D02*
X3947400Y-5575300D01*
X3897400Y-5779300D02*
X3897400Y-5879300D01*
X3847400Y-5829300D02*
X3947400Y-5829300D01*
X3897400Y-6033300D02*
X3897400Y-6133300D01*
X3847400Y-6083300D02*
X3947400Y-6083300D01*
X3897400Y-6287300D02*
X3897400Y-6387300D01*
X3847400Y-6337300D02*
X3947400Y-6337300D01*
X3897400Y-6541300D02*
X3897400Y-6641300D01*
X3847400Y-6591300D02*
X3947400Y-6591300D01*
X3897400Y-6795300D02*
X3897400Y-6895300D01*
X3847400Y-6845300D02*
X3947400Y-6845300D01*
X3897400Y-7303300D02*
X3897400Y-7403300D01*
X3847400Y-7353300D02*
X3947400Y-7353300D01*
X3897400Y-7557300D02*
X3897400Y-7657300D01*
X3847400Y-7607300D02*
X3947400Y-7607300D01*
X3897400Y-7811300D02*
X3897400Y-7911300D01*
X3847400Y-7861300D02*
X3947400Y-7861300D01*
X3897400Y-8065300D02*
X3897400Y-8165300D01*
X3847400Y-8115300D02*
X3947400Y-8115300D01*
X3897400Y-8319300D02*
X3897400Y-8419300D01*
X3847400Y-8369300D02*
X3947400Y-8369300D01*
X3897400Y-8573300D02*
X3897400Y-8673300D01*
X3847400Y-8623300D02*
X3947400Y-8623300D01*
X17680200Y-4843000D02*
X17680200Y-4943000D01*
X17630200Y-4893000D02*
X17730200Y-4893000D01*
X17640200Y-4868000D02*
X17640200Y-4918000D01*
X17720200Y-4868000D02*
X17720200Y-4918000D01*
X17640200Y-4918000D02*
G75*
G03*
X17720200Y-4918000I40000J0D01*
G01*
X17720200Y-4868000D02*
G75*
G03*
X17640200Y-4868000I-40000J0D01*
G01*
X18110200Y-3993000D02*
X18110200Y-4093000D01*
X18060200Y-4043000D02*
X18160200Y-4043000D01*
X18070200Y-4018000D02*
X18070200Y-4068000D01*
X18150200Y-4018000D02*
X18150200Y-4068000D01*
X18070200Y-4068000D02*
G75*
G03*
X18150200Y-4068000I40000J0D01*
G01*
X18150200Y-4018000D02*
G75*
G03*
X18070200Y-4018000I-40000J0D01*
G01*
X18110200Y-4293000D02*
X18110200Y-4393000D01*
X18060200Y-4343000D02*
X18160200Y-4343000D01*
X18070200Y-4318000D02*
X18070200Y-4368000D01*
X18150200Y-4318000D02*
X18150200Y-4368000D01*
X18070200Y-4368000D02*
G75*
G03*
X18150200Y-4368000I40000J0D01*
G01*
X18150200Y-4318000D02*
G75*
G03*
X18070200Y-4318000I-40000J0D01*
G01*
X18110200Y-4693000D02*
X18110200Y-4793000D01*
X18060200Y-4743000D02*
X18160200Y-4743000D01*
X18070200Y-4718000D02*
X18070200Y-4768000D01*
X18150200Y-4718000D02*
X18150200Y-4768000D01*
X18070200Y-4768000D02*
G75*
G03*
X18150200Y-4768000I40000J0D01*
G01*
X18150200Y-4718000D02*
G75*
G03*
X18070200Y-4718000I-40000J0D01*
G01*
X18587350Y-4830300D02*
X18587350Y-4930300D01*
X18537350Y-4880300D02*
X18637350Y-4880300D01*
X18547350Y-4855300D02*
X18547350Y-4905300D01*
X18627350Y-4855300D02*
X18627350Y-4905300D01*
X18547350Y-4905300D02*
G75*
G03*
X18627350Y-4905300I40000J0D01*
G01*
X18627350Y-4855300D02*
G75*
G03*
X18547350Y-4855300I-40000J0D01*
G01*
X19017350Y-3980300D02*
X19017350Y-4080300D01*
X18967350Y-4030300D02*
X19067350Y-4030300D01*
X18977350Y-4005300D02*
X18977350Y-4055300D01*
X19057350Y-4005300D02*
X19057350Y-4055300D01*
X18977350Y-4055300D02*
G75*
G03*
X19057350Y-4055300I40000J0D01*
G01*
X19057350Y-4005300D02*
G75*
G03*
X18977350Y-4005300I-40000J0D01*
G01*
X19017350Y-4280300D02*
X19017350Y-4380300D01*
X18967350Y-4330300D02*
X19067350Y-4330300D01*
X18977350Y-4305300D02*
X18977350Y-4355300D01*
X19057350Y-4305300D02*
X19057350Y-4355300D01*
X18977350Y-4355300D02*
G75*
G03*
X19057350Y-4355300I40000J0D01*
G01*
X19057350Y-4305300D02*
G75*
G03*
X18977350Y-4305300I-40000J0D01*
G01*
X19017350Y-4680300D02*
X19017350Y-4780300D01*
X18967350Y-4730300D02*
X19067350Y-4730300D01*
X18977350Y-4705300D02*
X18977350Y-4755300D01*
X19057350Y-4705300D02*
X19057350Y-4755300D01*
X18977350Y-4755300D02*
G75*
G03*
X19057350Y-4755300I40000J0D01*
G01*
X19057350Y-4705300D02*
G75*
G03*
X18977350Y-4705300I-40000J0D01*
G01*
X40917900Y-4001300D02*
X40917900Y-4101300D01*
X40867900Y-4051300D02*
X40967900Y-4051300D01*
X40917900Y-4255300D02*
X40917900Y-4355300D01*
X40867900Y-4305300D02*
X40967900Y-4305300D01*
X40917900Y-4509300D02*
X40917900Y-4609300D01*
X40867900Y-4559300D02*
X40967900Y-4559300D01*
X40917900Y-4763300D02*
X40917900Y-4863300D01*
X40867900Y-4813300D02*
X40967900Y-4813300D01*
X40917900Y-5017300D02*
X40917900Y-5117300D01*
X40867900Y-5067300D02*
X40967900Y-5067300D01*
X40917900Y-5271300D02*
X40917900Y-5371300D01*
X40867900Y-5321300D02*
X40967900Y-5321300D01*
X40917900Y-5525300D02*
X40917900Y-5625300D01*
X40867900Y-5575300D02*
X40967900Y-5575300D01*
X40917900Y-5779300D02*
X40917900Y-5879300D01*
X40867900Y-5829300D02*
X40967900Y-5829300D01*
X40917900Y-6033300D02*
X40917900Y-6133300D01*
X40867900Y-6083300D02*
X40967900Y-6083300D01*
X40917900Y-6287300D02*
X40917900Y-6387300D01*
X40867900Y-6337300D02*
X40967900Y-6337300D01*
X40917900Y-6541300D02*
X40917900Y-6641300D01*
X40867900Y-6591300D02*
X40967900Y-6591300D01*
X40917900Y-6795300D02*
X40917900Y-6895300D01*
X40867900Y-6845300D02*
X40967900Y-6845300D01*
X40917900Y-7303300D02*
X40917900Y-7403300D01*
X40867900Y-7353300D02*
X40967900Y-7353300D01*
X40917900Y-7557300D02*
X40917900Y-7657300D01*
X40867900Y-7607300D02*
X40967900Y-7607300D01*
X40917900Y-7811300D02*
X40917900Y-7911300D01*
X40867900Y-7861300D02*
X40967900Y-7861300D01*
X40917900Y-8065300D02*
X40917900Y-8165300D01*
X40867900Y-8115300D02*
X40967900Y-8115300D01*
X40917900Y-8319300D02*
X40917900Y-8419300D01*
X40867900Y-8369300D02*
X40967900Y-8369300D01*
X40917900Y-8573300D02*
X40917900Y-8673300D01*
X40867900Y-8623300D02*
X40967900Y-8623300D01*
X41171900Y-4509300D02*
X41171900Y-4609300D01*
X41121900Y-4559300D02*
X41221900Y-4559300D01*
X41677400Y-4509300D02*
X41677400Y-4609300D01*
X41627400Y-4559300D02*
X41727400Y-4559300D01*
X41931400Y-4509300D02*
X41931400Y-4609300D01*
X41881400Y-4559300D02*
X41981400Y-4559300D01*
X42185400Y-4509300D02*
X42185400Y-4609300D01*
X42135400Y-4559300D02*
X42235400Y-4559300D01*
X42439400Y-4001300D02*
X42439400Y-4101300D01*
X42389400Y-4051300D02*
X42489400Y-4051300D01*
X42439400Y-4255300D02*
X42439400Y-4355300D01*
X42389400Y-4305300D02*
X42489400Y-4305300D01*
X42439400Y-4509300D02*
X42439400Y-4609300D01*
X42389400Y-4559300D02*
X42489400Y-4559300D01*
X42439400Y-4763300D02*
X42439400Y-4863300D01*
X42389400Y-4813300D02*
X42489400Y-4813300D01*
X42439400Y-5017300D02*
X42439400Y-5117300D01*
X42389400Y-5067300D02*
X42489400Y-5067300D01*
X42439400Y-5271300D02*
X42439400Y-5371300D01*
X42389400Y-5321300D02*
X42489400Y-5321300D01*
X42439400Y-5525300D02*
X42439400Y-5625300D01*
X42389400Y-5575300D02*
X42489400Y-5575300D01*
X42439400Y-5779300D02*
X42439400Y-5879300D01*
X42389400Y-5829300D02*
X42489400Y-5829300D01*
X42439400Y-6033300D02*
X42439400Y-6133300D01*
X42389400Y-6083300D02*
X42489400Y-6083300D01*
X42439400Y-6287300D02*
X42439400Y-6387300D01*
X42389400Y-6337300D02*
X42489400Y-6337300D01*
X42439400Y-6541300D02*
X42439400Y-6641300D01*
X42389400Y-6591300D02*
X42489400Y-6591300D01*
X42439400Y-6795300D02*
X42439400Y-6895300D01*
X42389400Y-6845300D02*
X42489400Y-6845300D01*
X42439400Y-7303300D02*
X42439400Y-7403300D01*
X42389400Y-7353300D02*
X42489400Y-7353300D01*
X42439400Y-7557300D02*
X42439400Y-7657300D01*
X42389400Y-7607300D02*
X42489400Y-7607300D01*
X42439400Y-7811300D02*
X42439400Y-7911300D01*
X42389400Y-7861300D02*
X42489400Y-7861300D01*
X42439400Y-8065300D02*
X42439400Y-8165300D01*
X42389400Y-8115300D02*
X42489400Y-8115300D01*
X42439400Y-8319300D02*
X42439400Y-8419300D01*
X42389400Y-8369300D02*
X42489400Y-8369300D01*
X42439400Y-8573300D02*
X42439400Y-8673300D01*
X42389400Y-8623300D02*
X42489400Y-8623300D01*
X2514683Y-3846602D02*
X2514683Y-3691037D01*
X2359118Y-3691037D01*
X2359118Y-3846602D01*
X2514683Y-3846602D01*
X3914222Y-3846602D02*
X3914222Y-3691037D01*
X3758657Y-3691037D01*
X3758657Y-3846602D01*
X3914222Y-3846602D01*
X41056683Y-3846602D02*
X41056683Y-3691037D01*
X40901118Y-3691037D01*
X40901118Y-3846602D01*
X41056683Y-3846602D01*
X42456223Y-3846602D02*
X42456223Y-3691037D01*
X42300658Y-3691037D01*
X42300658Y-3846602D01*
X42456223Y-3846602D01*
D12*
X2144629Y-15117514D02*
X2144629Y-14817514D01*
X2216057Y-14817514D01*
X2258914Y-14831800D01*
X2287486Y-14860371D01*
X2301771Y-14888943D01*
X2316057Y-14946086D01*
X2316057Y-14988943D01*
X2301771Y-15046086D01*
X2287486Y-15074657D01*
X2258914Y-15103228D01*
X2216057Y-15117514D01*
X2144629Y-15117514D01*
X2444629Y-15117514D02*
X2444629Y-14917514D01*
X2444629Y-14974657D02*
X2458914Y-14946086D01*
X2473200Y-14931800D01*
X2501771Y-14917514D01*
X2530343Y-14917514D01*
X2630343Y-15117514D02*
X2630343Y-14917514D01*
X2630343Y-14817514D02*
X2616057Y-14831800D01*
X2630343Y-14846086D01*
X2644629Y-14831800D01*
X2630343Y-14817514D01*
X2630343Y-14846086D01*
X2816057Y-15117514D02*
X2787486Y-15103228D01*
X2773200Y-15074657D01*
X2773200Y-14817514D01*
X2973200Y-15117514D02*
X2944628Y-15103228D01*
X2930343Y-15074657D01*
X2930343Y-14817514D01*
X3316057Y-15117514D02*
X3316057Y-14817514D01*
X3416057Y-15031800D01*
X3516057Y-14817514D01*
X3516057Y-15117514D01*
X3787486Y-15117514D02*
X3787486Y-14960371D01*
X3773200Y-14931800D01*
X3744628Y-14917514D01*
X3687486Y-14917514D01*
X3658914Y-14931800D01*
X3787486Y-15103228D02*
X3758914Y-15117514D01*
X3687486Y-15117514D01*
X3658914Y-15103228D01*
X3644628Y-15074657D01*
X3644628Y-15046086D01*
X3658914Y-15017514D01*
X3687486Y-15003228D01*
X3758914Y-15003228D01*
X3787486Y-14988943D01*
X3930343Y-14917514D02*
X3930343Y-15217514D01*
X3930343Y-14931800D02*
X3958914Y-14917514D01*
X4016057Y-14917514D01*
X4044628Y-14931800D01*
X4058914Y-14946086D01*
X4073200Y-14974657D01*
X4073200Y-15060371D01*
X4058914Y-15088943D01*
X4044628Y-15103228D01*
X4016057Y-15117514D01*
X3958914Y-15117514D01*
X3930343Y-15103228D01*
X4201771Y-15088943D02*
X4216057Y-15103228D01*
X4201771Y-15117514D01*
X4187486Y-15103228D01*
X4201771Y-15088943D01*
X4201771Y-15117514D01*
X4201771Y-14931800D02*
X4216057Y-14946086D01*
X4201771Y-14960371D01*
X4187486Y-14946086D01*
X4201771Y-14931800D01*
X4201771Y-14960371D01*
X1818200Y-15591800D02*
X1858200Y-15631800D01*
X1858200Y-15591800D02*
X1818200Y-15631800D01*
X2201771Y-15447514D02*
X2230343Y-15447514D01*
X2258914Y-15461800D01*
X2273200Y-15476086D01*
X2287486Y-15504657D01*
X2301771Y-15561800D01*
X2301771Y-15633228D01*
X2287486Y-15690371D01*
X2273200Y-15718943D01*
X2258914Y-15733228D01*
X2230343Y-15747514D01*
X2201771Y-15747514D01*
X2173200Y-15733228D01*
X2158914Y-15718943D01*
X2144629Y-15690371D01*
X2130343Y-15633228D01*
X2130343Y-15561800D01*
X2144629Y-15504657D01*
X2158914Y-15476086D01*
X2173200Y-15461800D01*
X2201771Y-15447514D01*
X2430343Y-15718943D02*
X2444629Y-15733228D01*
X2430343Y-15747514D01*
X2416057Y-15733228D01*
X2430343Y-15718943D01*
X2430343Y-15747514D01*
X2701771Y-15547514D02*
X2701771Y-15747514D01*
X2630343Y-15433228D02*
X2558914Y-15647514D01*
X2744629Y-15647514D01*
X2916057Y-15447514D02*
X2944628Y-15447514D01*
X2973200Y-15461800D01*
X2987486Y-15476086D01*
X3001771Y-15504657D01*
X3016057Y-15561800D01*
X3016057Y-15633228D01*
X3001771Y-15690371D01*
X2987486Y-15718943D01*
X2973200Y-15733228D01*
X2944628Y-15747514D01*
X2916057Y-15747514D01*
X2887486Y-15733228D01*
X2873200Y-15718943D01*
X2858914Y-15690371D01*
X2844628Y-15633228D01*
X2844628Y-15561800D01*
X2858914Y-15504657D01*
X2873200Y-15476086D01*
X2887486Y-15461800D01*
X2916057Y-15447514D01*
X3144628Y-15747514D02*
X3144628Y-15547514D01*
X3144628Y-15576086D02*
X3158914Y-15561800D01*
X3187486Y-15547514D01*
X3230343Y-15547514D01*
X3258914Y-15561800D01*
X3273200Y-15590371D01*
X3273200Y-15747514D01*
X3273200Y-15590371D02*
X3287486Y-15561800D01*
X3316057Y-15547514D01*
X3358914Y-15547514D01*
X3387486Y-15561800D01*
X3401771Y-15590371D01*
X3401771Y-15747514D01*
X3544628Y-15747514D02*
X3544628Y-15547514D01*
X3544628Y-15576086D02*
X3558914Y-15561800D01*
X3587486Y-15547514D01*
X3630343Y-15547514D01*
X3658914Y-15561800D01*
X3673200Y-15590371D01*
X3673200Y-15747514D01*
X3673200Y-15590371D02*
X3687486Y-15561800D01*
X3716057Y-15547514D01*
X3758914Y-15547514D01*
X3787486Y-15561800D01*
X3801771Y-15590371D01*
X3801771Y-15747514D01*
X4387486Y-15433228D02*
X4130343Y-15818943D01*
X4773200Y-15447514D02*
X4801771Y-15447514D01*
X4830343Y-15461800D01*
X4844629Y-15476086D01*
X4858914Y-15504657D01*
X4873200Y-15561800D01*
X4873200Y-15633228D01*
X4858914Y-15690371D01*
X4844629Y-15718943D01*
X4830343Y-15733228D01*
X4801771Y-15747514D01*
X4773200Y-15747514D01*
X4744629Y-15733228D01*
X4730343Y-15718943D01*
X4716057Y-15690371D01*
X4701771Y-15633228D01*
X4701771Y-15561800D01*
X4716057Y-15504657D01*
X4730343Y-15476086D01*
X4744629Y-15461800D01*
X4773200Y-15447514D01*
X5001771Y-15718943D02*
X5016057Y-15733228D01*
X5001771Y-15747514D01*
X4987486Y-15733228D01*
X5001771Y-15718943D01*
X5001771Y-15747514D01*
X5201771Y-15447514D02*
X5230343Y-15447514D01*
X5258914Y-15461800D01*
X5273200Y-15476086D01*
X5287486Y-15504657D01*
X5301771Y-15561800D01*
X5301771Y-15633228D01*
X5287486Y-15690371D01*
X5273200Y-15718943D01*
X5258914Y-15733228D01*
X5230343Y-15747514D01*
X5201771Y-15747514D01*
X5173200Y-15733228D01*
X5158914Y-15718943D01*
X5144629Y-15690371D01*
X5130343Y-15633228D01*
X5130343Y-15561800D01*
X5144629Y-15504657D01*
X5158914Y-15476086D01*
X5173200Y-15461800D01*
X5201771Y-15447514D01*
X5587486Y-15747514D02*
X5416057Y-15747514D01*
X5501771Y-15747514D02*
X5501771Y-15447514D01*
X5473200Y-15490371D01*
X5444629Y-15518943D01*
X5416057Y-15533228D01*
X5844628Y-15447514D02*
X5787486Y-15447514D01*
X5758914Y-15461800D01*
X5744628Y-15476086D01*
X5716057Y-15518943D01*
X5701771Y-15576086D01*
X5701771Y-15690371D01*
X5716057Y-15718943D01*
X5730343Y-15733228D01*
X5758914Y-15747514D01*
X5816057Y-15747514D01*
X5844628Y-15733228D01*
X5858914Y-15718943D01*
X5873200Y-15690371D01*
X5873200Y-15618943D01*
X5858914Y-15590371D01*
X5844628Y-15576086D01*
X5816057Y-15561800D01*
X5758914Y-15561800D01*
X5730343Y-15576086D01*
X5716057Y-15590371D01*
X5701771Y-15618943D01*
X5987486Y-15447514D02*
X5987486Y-15504657D01*
X6101771Y-15447514D02*
X6101771Y-15504657D01*
X6544628Y-15861800D02*
X6530343Y-15847514D01*
X6501771Y-15804657D01*
X6487486Y-15776086D01*
X6473200Y-15733228D01*
X6458914Y-15661800D01*
X6458914Y-15604657D01*
X6473200Y-15533228D01*
X6487486Y-15490371D01*
X6501771Y-15461800D01*
X6530343Y-15418943D01*
X6544628Y-15404657D01*
X6787486Y-15547514D02*
X6787486Y-15747514D01*
X6716057Y-15433228D02*
X6644628Y-15647514D01*
X6830343Y-15647514D01*
X7073200Y-15547514D02*
X7073200Y-15747514D01*
X7001771Y-15433228D02*
X6930343Y-15647514D01*
X7116057Y-15647514D01*
X7201771Y-15447514D02*
X7401771Y-15447514D01*
X7273200Y-15747514D01*
X7744628Y-15747514D02*
X7744628Y-15447514D01*
X7873200Y-15747514D02*
X7873200Y-15590371D01*
X7858914Y-15561800D01*
X7830343Y-15547514D01*
X7787486Y-15547514D01*
X7758914Y-15561800D01*
X7744628Y-15576086D01*
X8058914Y-15747514D02*
X8030343Y-15733228D01*
X8016057Y-15718943D01*
X8001771Y-15690371D01*
X8001771Y-15604657D01*
X8016057Y-15576086D01*
X8030343Y-15561800D01*
X8058914Y-15547514D01*
X8101771Y-15547514D01*
X8130343Y-15561800D01*
X8144628Y-15576086D01*
X8158914Y-15604657D01*
X8158914Y-15690371D01*
X8144628Y-15718943D01*
X8130343Y-15733228D01*
X8101771Y-15747514D01*
X8058914Y-15747514D01*
X8330343Y-15747514D02*
X8301771Y-15733228D01*
X8287486Y-15704657D01*
X8287486Y-15447514D01*
X8558914Y-15733228D02*
X8530343Y-15747514D01*
X8473200Y-15747514D01*
X8444629Y-15733228D01*
X8430343Y-15704657D01*
X8430343Y-15590371D01*
X8444629Y-15561800D01*
X8473200Y-15547514D01*
X8530343Y-15547514D01*
X8558914Y-15561800D01*
X8573200Y-15590371D01*
X8573200Y-15618943D01*
X8430343Y-15647514D01*
X8687486Y-15733228D02*
X8716057Y-15747514D01*
X8773200Y-15747514D01*
X8801771Y-15733228D01*
X8816057Y-15704657D01*
X8816057Y-15690371D01*
X8801771Y-15661800D01*
X8773200Y-15647514D01*
X8730343Y-15647514D01*
X8701771Y-15633228D01*
X8687486Y-15604657D01*
X8687486Y-15590371D01*
X8701771Y-15561800D01*
X8730343Y-15547514D01*
X8773200Y-15547514D01*
X8801771Y-15561800D01*
X8916057Y-15861800D02*
X8930343Y-15847514D01*
X8958914Y-15804657D01*
X8973200Y-15776086D01*
X8987486Y-15733228D01*
X9001771Y-15661800D01*
X9001771Y-15604657D01*
X8987486Y-15533228D01*
X8973200Y-15490371D01*
X8958914Y-15461800D01*
X8930343Y-15418943D01*
X8916057Y-15404657D01*
X1858200Y-16007800D02*
G75*
G03*
X1858200Y-16007800I-40640J0D01*
G01*
X2201771Y-15843514D02*
X2230343Y-15843514D01*
X2258914Y-15857800D01*
X2273200Y-15872086D01*
X2287486Y-15900657D01*
X2301771Y-15957800D01*
X2301771Y-16029228D01*
X2287486Y-16086371D01*
X2273200Y-16114943D01*
X2258914Y-16129228D01*
X2230343Y-16143514D01*
X2201771Y-16143514D01*
X2173200Y-16129228D01*
X2158914Y-16114943D01*
X2144629Y-16086371D01*
X2130343Y-16029228D01*
X2130343Y-15957800D01*
X2144629Y-15900657D01*
X2158914Y-15872086D01*
X2173200Y-15857800D01*
X2201771Y-15843514D01*
X2430343Y-16114943D02*
X2444629Y-16129228D01*
X2430343Y-16143514D01*
X2416057Y-16129228D01*
X2430343Y-16114943D01*
X2430343Y-16143514D01*
X2616057Y-15972086D02*
X2587486Y-15957800D01*
X2573200Y-15943514D01*
X2558914Y-15914943D01*
X2558914Y-15900657D01*
X2573200Y-15872086D01*
X2587486Y-15857800D01*
X2616057Y-15843514D01*
X2673200Y-15843514D01*
X2701771Y-15857800D01*
X2716057Y-15872086D01*
X2730343Y-15900657D01*
X2730343Y-15914943D01*
X2716057Y-15943514D01*
X2701771Y-15957800D01*
X2673200Y-15972086D01*
X2616057Y-15972086D01*
X2587486Y-15986371D01*
X2573200Y-16000657D01*
X2558914Y-16029228D01*
X2558914Y-16086371D01*
X2573200Y-16114943D01*
X2587486Y-16129228D01*
X2616057Y-16143514D01*
X2673200Y-16143514D01*
X2701771Y-16129228D01*
X2716057Y-16114943D01*
X2730343Y-16086371D01*
X2730343Y-16029228D01*
X2716057Y-16000657D01*
X2701771Y-15986371D01*
X2673200Y-15972086D01*
X3016057Y-16143514D02*
X2844628Y-16143514D01*
X2930343Y-16143514D02*
X2930343Y-15843514D01*
X2901771Y-15886371D01*
X2873200Y-15914943D01*
X2844628Y-15929228D01*
X3144628Y-16143514D02*
X3144628Y-15943514D01*
X3144628Y-15972086D02*
X3158914Y-15957800D01*
X3187486Y-15943514D01*
X3230343Y-15943514D01*
X3258914Y-15957800D01*
X3273200Y-15986371D01*
X3273200Y-16143514D01*
X3273200Y-15986371D02*
X3287486Y-15957800D01*
X3316057Y-15943514D01*
X3358914Y-15943514D01*
X3387486Y-15957800D01*
X3401771Y-15986371D01*
X3401771Y-16143514D01*
X3544628Y-16143514D02*
X3544628Y-15943514D01*
X3544628Y-15972086D02*
X3558914Y-15957800D01*
X3587486Y-15943514D01*
X3630343Y-15943514D01*
X3658914Y-15957800D01*
X3673200Y-15986371D01*
X3673200Y-16143514D01*
X3673200Y-15986371D02*
X3687486Y-15957800D01*
X3716057Y-15943514D01*
X3758914Y-15943514D01*
X3787486Y-15957800D01*
X3801771Y-15986371D01*
X3801771Y-16143514D01*
X4387486Y-15829228D02*
X4130343Y-16214943D01*
X4773200Y-15843514D02*
X4801771Y-15843514D01*
X4830343Y-15857800D01*
X4844629Y-15872086D01*
X4858914Y-15900657D01*
X4873200Y-15957800D01*
X4873200Y-16029228D01*
X4858914Y-16086371D01*
X4844629Y-16114943D01*
X4830343Y-16129228D01*
X4801771Y-16143514D01*
X4773200Y-16143514D01*
X4744629Y-16129228D01*
X4730343Y-16114943D01*
X4716057Y-16086371D01*
X4701771Y-16029228D01*
X4701771Y-15957800D01*
X4716057Y-15900657D01*
X4730343Y-15872086D01*
X4744629Y-15857800D01*
X4773200Y-15843514D01*
X5001771Y-16114943D02*
X5016057Y-16129228D01*
X5001771Y-16143514D01*
X4987486Y-16129228D01*
X5001771Y-16114943D01*
X5001771Y-16143514D01*
X5201771Y-15843514D02*
X5230343Y-15843514D01*
X5258914Y-15857800D01*
X5273200Y-15872086D01*
X5287486Y-15900657D01*
X5301771Y-15957800D01*
X5301771Y-16029228D01*
X5287486Y-16086371D01*
X5273200Y-16114943D01*
X5258914Y-16129228D01*
X5230343Y-16143514D01*
X5201771Y-16143514D01*
X5173200Y-16129228D01*
X5158914Y-16114943D01*
X5144629Y-16086371D01*
X5130343Y-16029228D01*
X5130343Y-15957800D01*
X5144629Y-15900657D01*
X5158914Y-15872086D01*
X5173200Y-15857800D01*
X5201771Y-15843514D01*
X5401771Y-15843514D02*
X5587486Y-15843514D01*
X5487486Y-15957800D01*
X5530343Y-15957800D01*
X5558914Y-15972086D01*
X5573200Y-15986371D01*
X5587486Y-16014943D01*
X5587486Y-16086371D01*
X5573200Y-16114943D01*
X5558914Y-16129228D01*
X5530343Y-16143514D01*
X5444629Y-16143514D01*
X5416057Y-16129228D01*
X5401771Y-16114943D01*
X5701771Y-15872086D02*
X5716057Y-15857800D01*
X5744628Y-15843514D01*
X5816057Y-15843514D01*
X5844628Y-15857800D01*
X5858914Y-15872086D01*
X5873200Y-15900657D01*
X5873200Y-15929228D01*
X5858914Y-15972086D01*
X5687486Y-16143514D01*
X5873200Y-16143514D01*
X5987486Y-15843514D02*
X5987486Y-15900657D01*
X6101771Y-15843514D02*
X6101771Y-15900657D01*
X6544628Y-16257800D02*
X6530343Y-16243514D01*
X6501771Y-16200657D01*
X6487486Y-16172086D01*
X6473200Y-16129228D01*
X6458914Y-16057800D01*
X6458914Y-16000657D01*
X6473200Y-15929228D01*
X6487486Y-15886371D01*
X6501771Y-15857800D01*
X6530343Y-15814943D01*
X6544628Y-15800657D01*
X6701771Y-15972086D02*
X6673200Y-15957800D01*
X6658914Y-15943514D01*
X6644628Y-15914943D01*
X6644628Y-15900657D01*
X6658914Y-15872086D01*
X6673200Y-15857800D01*
X6701771Y-15843514D01*
X6758914Y-15843514D01*
X6787486Y-15857800D01*
X6801771Y-15872086D01*
X6816057Y-15900657D01*
X6816057Y-15914943D01*
X6801771Y-15943514D01*
X6787486Y-15957800D01*
X6758914Y-15972086D01*
X6701771Y-15972086D01*
X6673200Y-15986371D01*
X6658914Y-16000657D01*
X6644628Y-16029228D01*
X6644628Y-16086371D01*
X6658914Y-16114943D01*
X6673200Y-16129228D01*
X6701771Y-16143514D01*
X6758914Y-16143514D01*
X6787486Y-16129228D01*
X6801771Y-16114943D01*
X6816057Y-16086371D01*
X6816057Y-16029228D01*
X6801771Y-16000657D01*
X6787486Y-15986371D01*
X6758914Y-15972086D01*
X7173200Y-16143514D02*
X7173200Y-15843514D01*
X7301771Y-16143514D02*
X7301771Y-15986371D01*
X7287486Y-15957800D01*
X7258914Y-15943514D01*
X7216057Y-15943514D01*
X7187486Y-15957800D01*
X7173200Y-15972086D01*
X7487486Y-16143514D02*
X7458914Y-16129228D01*
X7444628Y-16114943D01*
X7430343Y-16086371D01*
X7430343Y-16000657D01*
X7444628Y-15972086D01*
X7458914Y-15957800D01*
X7487486Y-15943514D01*
X7530343Y-15943514D01*
X7558914Y-15957800D01*
X7573200Y-15972086D01*
X7587486Y-16000657D01*
X7587486Y-16086371D01*
X7573200Y-16114943D01*
X7558914Y-16129228D01*
X7530343Y-16143514D01*
X7487486Y-16143514D01*
X7758914Y-16143514D02*
X7730343Y-16129228D01*
X7716057Y-16100657D01*
X7716057Y-15843514D01*
X7987486Y-16129228D02*
X7958914Y-16143514D01*
X7901771Y-16143514D01*
X7873200Y-16129228D01*
X7858914Y-16100657D01*
X7858914Y-15986371D01*
X7873200Y-15957800D01*
X7901771Y-15943514D01*
X7958914Y-15943514D01*
X7987486Y-15957800D01*
X8001771Y-15986371D01*
X8001771Y-16014943D01*
X7858914Y-16043514D01*
X8116057Y-16129228D02*
X8144628Y-16143514D01*
X8201771Y-16143514D01*
X8230343Y-16129228D01*
X8244628Y-16100657D01*
X8244628Y-16086371D01*
X8230343Y-16057800D01*
X8201771Y-16043514D01*
X8158914Y-16043514D01*
X8130343Y-16029228D01*
X8116057Y-16000657D01*
X8116057Y-15986371D01*
X8130343Y-15957800D01*
X8158914Y-15943514D01*
X8201771Y-15943514D01*
X8230343Y-15957800D01*
X8344628Y-16257800D02*
X8358914Y-16243514D01*
X8387486Y-16200657D01*
X8401771Y-16172086D01*
X8416057Y-16129228D01*
X8430343Y-16057800D01*
X8430343Y-16000657D01*
X8416057Y-15929228D01*
X8401771Y-15886371D01*
X8387486Y-15857800D01*
X8358914Y-15814943D01*
X8344628Y-15800657D01*
X1808200Y-16353800D02*
X1808200Y-16453800D01*
X1758200Y-16403800D02*
X1858200Y-16403800D01*
X2301771Y-16539514D02*
X2130343Y-16539514D01*
X2216057Y-16539514D02*
X2216057Y-16239514D01*
X2187486Y-16282371D01*
X2158914Y-16310943D01*
X2130343Y-16325228D01*
X2430343Y-16510943D02*
X2444629Y-16525228D01*
X2430343Y-16539514D01*
X2416057Y-16525228D01*
X2430343Y-16510943D01*
X2430343Y-16539514D01*
X2630343Y-16239514D02*
X2658914Y-16239514D01*
X2687486Y-16253800D01*
X2701771Y-16268086D01*
X2716057Y-16296657D01*
X2730343Y-16353800D01*
X2730343Y-16425228D01*
X2716057Y-16482371D01*
X2701771Y-16510943D01*
X2687486Y-16525228D01*
X2658914Y-16539514D01*
X2630343Y-16539514D01*
X2601771Y-16525228D01*
X2587486Y-16510943D01*
X2573200Y-16482371D01*
X2558914Y-16425228D01*
X2558914Y-16353800D01*
X2573200Y-16296657D01*
X2587486Y-16268086D01*
X2601771Y-16253800D01*
X2630343Y-16239514D01*
X2916057Y-16239514D02*
X2944628Y-16239514D01*
X2973200Y-16253800D01*
X2987486Y-16268086D01*
X3001771Y-16296657D01*
X3016057Y-16353800D01*
X3016057Y-16425228D01*
X3001771Y-16482371D01*
X2987486Y-16510943D01*
X2973200Y-16525228D01*
X2944628Y-16539514D01*
X2916057Y-16539514D01*
X2887486Y-16525228D01*
X2873200Y-16510943D01*
X2858914Y-16482371D01*
X2844628Y-16425228D01*
X2844628Y-16353800D01*
X2858914Y-16296657D01*
X2873200Y-16268086D01*
X2887486Y-16253800D01*
X2916057Y-16239514D01*
X3144628Y-16539514D02*
X3144628Y-16339514D01*
X3144628Y-16368086D02*
X3158914Y-16353800D01*
X3187486Y-16339514D01*
X3230343Y-16339514D01*
X3258914Y-16353800D01*
X3273200Y-16382371D01*
X3273200Y-16539514D01*
X3273200Y-16382371D02*
X3287486Y-16353800D01*
X3316057Y-16339514D01*
X3358914Y-16339514D01*
X3387486Y-16353800D01*
X3401771Y-16382371D01*
X3401771Y-16539514D01*
X3544628Y-16539514D02*
X3544628Y-16339514D01*
X3544628Y-16368086D02*
X3558914Y-16353800D01*
X3587486Y-16339514D01*
X3630343Y-16339514D01*
X3658914Y-16353800D01*
X3673200Y-16382371D01*
X3673200Y-16539514D01*
X3673200Y-16382371D02*
X3687486Y-16353800D01*
X3716057Y-16339514D01*
X3758914Y-16339514D01*
X3787486Y-16353800D01*
X3801771Y-16382371D01*
X3801771Y-16539514D01*
X4387486Y-16225228D02*
X4130343Y-16610943D01*
X4773200Y-16239514D02*
X4801771Y-16239514D01*
X4830343Y-16253800D01*
X4844629Y-16268086D01*
X4858914Y-16296657D01*
X4873200Y-16353800D01*
X4873200Y-16425228D01*
X4858914Y-16482371D01*
X4844629Y-16510943D01*
X4830343Y-16525228D01*
X4801771Y-16539514D01*
X4773200Y-16539514D01*
X4744629Y-16525228D01*
X4730343Y-16510943D01*
X4716057Y-16482371D01*
X4701771Y-16425228D01*
X4701771Y-16353800D01*
X4716057Y-16296657D01*
X4730343Y-16268086D01*
X4744629Y-16253800D01*
X4773200Y-16239514D01*
X5001771Y-16510943D02*
X5016057Y-16525228D01*
X5001771Y-16539514D01*
X4987486Y-16525228D01*
X5001771Y-16510943D01*
X5001771Y-16539514D01*
X5201771Y-16239514D02*
X5230343Y-16239514D01*
X5258914Y-16253800D01*
X5273200Y-16268086D01*
X5287486Y-16296657D01*
X5301771Y-16353800D01*
X5301771Y-16425228D01*
X5287486Y-16482371D01*
X5273200Y-16510943D01*
X5258914Y-16525228D01*
X5230343Y-16539514D01*
X5201771Y-16539514D01*
X5173200Y-16525228D01*
X5158914Y-16510943D01*
X5144629Y-16482371D01*
X5130343Y-16425228D01*
X5130343Y-16353800D01*
X5144629Y-16296657D01*
X5158914Y-16268086D01*
X5173200Y-16253800D01*
X5201771Y-16239514D01*
X5401771Y-16239514D02*
X5587486Y-16239514D01*
X5487486Y-16353800D01*
X5530343Y-16353800D01*
X5558914Y-16368086D01*
X5573200Y-16382371D01*
X5587486Y-16410943D01*
X5587486Y-16482371D01*
X5573200Y-16510943D01*
X5558914Y-16525228D01*
X5530343Y-16539514D01*
X5444629Y-16539514D01*
X5416057Y-16525228D01*
X5401771Y-16510943D01*
X5730343Y-16539514D02*
X5787486Y-16539514D01*
X5816057Y-16525228D01*
X5830343Y-16510943D01*
X5858914Y-16468086D01*
X5873200Y-16410943D01*
X5873200Y-16296657D01*
X5858914Y-16268086D01*
X5844628Y-16253800D01*
X5816057Y-16239514D01*
X5758914Y-16239514D01*
X5730343Y-16253800D01*
X5716057Y-16268086D01*
X5701771Y-16296657D01*
X5701771Y-16368086D01*
X5716057Y-16396657D01*
X5730343Y-16410943D01*
X5758914Y-16425228D01*
X5816057Y-16425228D01*
X5844628Y-16410943D01*
X5858914Y-16396657D01*
X5873200Y-16368086D01*
X5987486Y-16239514D02*
X5987486Y-16296657D01*
X6101771Y-16239514D02*
X6101771Y-16296657D01*
X6544628Y-16653800D02*
X6530343Y-16639514D01*
X6501771Y-16596657D01*
X6487486Y-16568086D01*
X6473200Y-16525228D01*
X6458914Y-16453800D01*
X6458914Y-16396657D01*
X6473200Y-16325228D01*
X6487486Y-16282371D01*
X6501771Y-16253800D01*
X6530343Y-16210943D01*
X6544628Y-16196657D01*
X6701771Y-16368086D02*
X6673200Y-16353800D01*
X6658914Y-16339514D01*
X6644628Y-16310943D01*
X6644628Y-16296657D01*
X6658914Y-16268086D01*
X6673200Y-16253800D01*
X6701771Y-16239514D01*
X6758914Y-16239514D01*
X6787486Y-16253800D01*
X6801771Y-16268086D01*
X6816057Y-16296657D01*
X6816057Y-16310943D01*
X6801771Y-16339514D01*
X6787486Y-16353800D01*
X6758914Y-16368086D01*
X6701771Y-16368086D01*
X6673200Y-16382371D01*
X6658914Y-16396657D01*
X6644628Y-16425228D01*
X6644628Y-16482371D01*
X6658914Y-16510943D01*
X6673200Y-16525228D01*
X6701771Y-16539514D01*
X6758914Y-16539514D01*
X6787486Y-16525228D01*
X6801771Y-16510943D01*
X6816057Y-16482371D01*
X6816057Y-16425228D01*
X6801771Y-16396657D01*
X6787486Y-16382371D01*
X6758914Y-16368086D01*
X7001771Y-16239514D02*
X7030343Y-16239514D01*
X7058914Y-16253800D01*
X7073200Y-16268086D01*
X7087486Y-16296657D01*
X7101771Y-16353800D01*
X7101771Y-16425228D01*
X7087486Y-16482371D01*
X7073200Y-16510943D01*
X7058914Y-16525228D01*
X7030343Y-16539514D01*
X7001771Y-16539514D01*
X6973200Y-16525228D01*
X6958914Y-16510943D01*
X6944628Y-16482371D01*
X6930343Y-16425228D01*
X6930343Y-16353800D01*
X6944628Y-16296657D01*
X6958914Y-16268086D01*
X6973200Y-16253800D01*
X7001771Y-16239514D01*
X7458914Y-16539514D02*
X7458914Y-16239514D01*
X7587486Y-16539514D02*
X7587486Y-16382371D01*
X7573200Y-16353800D01*
X7544628Y-16339514D01*
X7501771Y-16339514D01*
X7473200Y-16353800D01*
X7458914Y-16368086D01*
X7773200Y-16539514D02*
X7744628Y-16525228D01*
X7730343Y-16510943D01*
X7716057Y-16482371D01*
X7716057Y-16396657D01*
X7730343Y-16368086D01*
X7744628Y-16353800D01*
X7773200Y-16339514D01*
X7816057Y-16339514D01*
X7844628Y-16353800D01*
X7858914Y-16368086D01*
X7873200Y-16396657D01*
X7873200Y-16482371D01*
X7858914Y-16510943D01*
X7844628Y-16525228D01*
X7816057Y-16539514D01*
X7773200Y-16539514D01*
X8044628Y-16539514D02*
X8016057Y-16525228D01*
X8001771Y-16496657D01*
X8001771Y-16239514D01*
X8273200Y-16525228D02*
X8244628Y-16539514D01*
X8187486Y-16539514D01*
X8158914Y-16525228D01*
X8144628Y-16496657D01*
X8144628Y-16382371D01*
X8158914Y-16353800D01*
X8187486Y-16339514D01*
X8244628Y-16339514D01*
X8273200Y-16353800D01*
X8287486Y-16382371D01*
X8287486Y-16410943D01*
X8144628Y-16439514D01*
X8401771Y-16525228D02*
X8430343Y-16539514D01*
X8487486Y-16539514D01*
X8516057Y-16525228D01*
X8530343Y-16496657D01*
X8530343Y-16482371D01*
X8516057Y-16453800D01*
X8487486Y-16439514D01*
X8444629Y-16439514D01*
X8416057Y-16425228D01*
X8401771Y-16396657D01*
X8401771Y-16382371D01*
X8416057Y-16353800D01*
X8444629Y-16339514D01*
X8487486Y-16339514D01*
X8516057Y-16353800D01*
X8887486Y-16425228D02*
X9116057Y-16425228D01*
X9001771Y-16539514D02*
X9001771Y-16310943D01*
X9530343Y-16368086D02*
X9501771Y-16353800D01*
X9487486Y-16339514D01*
X9473200Y-16310943D01*
X9473200Y-16296657D01*
X9487486Y-16268086D01*
X9501771Y-16253800D01*
X9530343Y-16239514D01*
X9587486Y-16239514D01*
X9616057Y-16253800D01*
X9630343Y-16268086D01*
X9644629Y-16296657D01*
X9644629Y-16310943D01*
X9630343Y-16339514D01*
X9616057Y-16353800D01*
X9587486Y-16368086D01*
X9530343Y-16368086D01*
X9501771Y-16382371D01*
X9487486Y-16396657D01*
X9473200Y-16425228D01*
X9473200Y-16482371D01*
X9487486Y-16510943D01*
X9501771Y-16525228D01*
X9530343Y-16539514D01*
X9587486Y-16539514D01*
X9616057Y-16525228D01*
X9630343Y-16510943D01*
X9644629Y-16482371D01*
X9644629Y-16425228D01*
X9630343Y-16396657D01*
X9616057Y-16382371D01*
X9587486Y-16368086D01*
X9987486Y-16525228D02*
X10016057Y-16539514D01*
X10073200Y-16539514D01*
X10101771Y-16525228D01*
X10116057Y-16496657D01*
X10116057Y-16482371D01*
X10101771Y-16453800D01*
X10073200Y-16439514D01*
X10030343Y-16439514D01*
X10001771Y-16425228D01*
X9987486Y-16396657D01*
X9987486Y-16382371D01*
X10001771Y-16353800D01*
X10030343Y-16339514D01*
X10073200Y-16339514D01*
X10101771Y-16353800D01*
X10287486Y-16539514D02*
X10258914Y-16525228D01*
X10244629Y-16496657D01*
X10244629Y-16239514D01*
X10444629Y-16539514D02*
X10416057Y-16525228D01*
X10401771Y-16510943D01*
X10387486Y-16482371D01*
X10387486Y-16396657D01*
X10401771Y-16368086D01*
X10416057Y-16353800D01*
X10444629Y-16339514D01*
X10487486Y-16339514D01*
X10516057Y-16353800D01*
X10530343Y-16368086D01*
X10544629Y-16396657D01*
X10544629Y-16482371D01*
X10530343Y-16510943D01*
X10516057Y-16525228D01*
X10487486Y-16539514D01*
X10444629Y-16539514D01*
X10630343Y-16339514D02*
X10744629Y-16339514D01*
X10673200Y-16239514D02*
X10673200Y-16496657D01*
X10687486Y-16525228D01*
X10716057Y-16539514D01*
X10744629Y-16539514D01*
X10830343Y-16525228D02*
X10858914Y-16539514D01*
X10916057Y-16539514D01*
X10944629Y-16525228D01*
X10958914Y-16496657D01*
X10958914Y-16482371D01*
X10944629Y-16453800D01*
X10916057Y-16439514D01*
X10873200Y-16439514D01*
X10844629Y-16425228D01*
X10830343Y-16396657D01*
X10830343Y-16382371D01*
X10844629Y-16353800D01*
X10873200Y-16339514D01*
X10916057Y-16339514D01*
X10944629Y-16353800D01*
X11058914Y-16653800D02*
X11073200Y-16639514D01*
X11101771Y-16596657D01*
X11116057Y-16568086D01*
X11130343Y-16525228D01*
X11144629Y-16453800D01*
X11144629Y-16396657D01*
X11130343Y-16325228D01*
X11116057Y-16282371D01*
X11101771Y-16253800D01*
X11073200Y-16210943D01*
X11058914Y-16196657D01*
X1825982Y-16877583D02*
X1825982Y-16722017D01*
X1670417Y-16722017D01*
X1670417Y-16877583D01*
X1825982Y-16877583D01*
X2130343Y-16664086D02*
X2144629Y-16649800D01*
X2173200Y-16635514D01*
X2244629Y-16635514D01*
X2273200Y-16649800D01*
X2287486Y-16664086D01*
X2301771Y-16692657D01*
X2301771Y-16721228D01*
X2287486Y-16764086D01*
X2116057Y-16935514D01*
X2301771Y-16935514D01*
X2430343Y-16906943D02*
X2444629Y-16921229D01*
X2430343Y-16935514D01*
X2416057Y-16921229D01*
X2430343Y-16906943D01*
X2430343Y-16935514D01*
X2558914Y-16664086D02*
X2573200Y-16649800D01*
X2601771Y-16635514D01*
X2673200Y-16635514D01*
X2701771Y-16649800D01*
X2716057Y-16664086D01*
X2730343Y-16692657D01*
X2730343Y-16721228D01*
X2716057Y-16764086D01*
X2544629Y-16935514D01*
X2730343Y-16935514D01*
X2916057Y-16635514D02*
X2944628Y-16635514D01*
X2973200Y-16649800D01*
X2987486Y-16664086D01*
X3001771Y-16692657D01*
X3016057Y-16749800D01*
X3016057Y-16821229D01*
X3001771Y-16878371D01*
X2987486Y-16906943D01*
X2973200Y-16921229D01*
X2944628Y-16935514D01*
X2916057Y-16935514D01*
X2887486Y-16921229D01*
X2873200Y-16906943D01*
X2858914Y-16878371D01*
X2844628Y-16821229D01*
X2844628Y-16749800D01*
X2858914Y-16692657D01*
X2873200Y-16664086D01*
X2887486Y-16649800D01*
X2916057Y-16635514D01*
X3144628Y-16935514D02*
X3144628Y-16735514D01*
X3144628Y-16764086D02*
X3158914Y-16749800D01*
X3187486Y-16735514D01*
X3230343Y-16735514D01*
X3258914Y-16749800D01*
X3273200Y-16778371D01*
X3273200Y-16935514D01*
X3273200Y-16778371D02*
X3287486Y-16749800D01*
X3316057Y-16735514D01*
X3358914Y-16735514D01*
X3387486Y-16749800D01*
X3401771Y-16778371D01*
X3401771Y-16935514D01*
X3544628Y-16935514D02*
X3544628Y-16735514D01*
X3544628Y-16764086D02*
X3558914Y-16749800D01*
X3587486Y-16735514D01*
X3630343Y-16735514D01*
X3658914Y-16749800D01*
X3673200Y-16778371D01*
X3673200Y-16935514D01*
X3673200Y-16778371D02*
X3687486Y-16749800D01*
X3716057Y-16735514D01*
X3758914Y-16735514D01*
X3787486Y-16749800D01*
X3801771Y-16778371D01*
X3801771Y-16935514D01*
X4387486Y-16621228D02*
X4130343Y-17006943D01*
X4773200Y-16635514D02*
X4801771Y-16635514D01*
X4830343Y-16649800D01*
X4844629Y-16664086D01*
X4858914Y-16692657D01*
X4873200Y-16749800D01*
X4873200Y-16821229D01*
X4858914Y-16878371D01*
X4844629Y-16906943D01*
X4830343Y-16921229D01*
X4801771Y-16935514D01*
X4773200Y-16935514D01*
X4744629Y-16921229D01*
X4730343Y-16906943D01*
X4716057Y-16878371D01*
X4701771Y-16821229D01*
X4701771Y-16749800D01*
X4716057Y-16692657D01*
X4730343Y-16664086D01*
X4744629Y-16649800D01*
X4773200Y-16635514D01*
X5001771Y-16906943D02*
X5016057Y-16921229D01*
X5001771Y-16935514D01*
X4987486Y-16921229D01*
X5001771Y-16906943D01*
X5001771Y-16935514D01*
X5201771Y-16635514D02*
X5230343Y-16635514D01*
X5258914Y-16649800D01*
X5273200Y-16664086D01*
X5287486Y-16692657D01*
X5301771Y-16749800D01*
X5301771Y-16821229D01*
X5287486Y-16878371D01*
X5273200Y-16906943D01*
X5258914Y-16921229D01*
X5230343Y-16935514D01*
X5201771Y-16935514D01*
X5173200Y-16921229D01*
X5158914Y-16906943D01*
X5144629Y-16878371D01*
X5130343Y-16821229D01*
X5130343Y-16749800D01*
X5144629Y-16692657D01*
X5158914Y-16664086D01*
X5173200Y-16649800D01*
X5201771Y-16635514D01*
X5473200Y-16764086D02*
X5444629Y-16749800D01*
X5430343Y-16735514D01*
X5416057Y-16706943D01*
X5416057Y-16692657D01*
X5430343Y-16664086D01*
X5444629Y-16649800D01*
X5473200Y-16635514D01*
X5530343Y-16635514D01*
X5558914Y-16649800D01*
X5573200Y-16664086D01*
X5587486Y-16692657D01*
X5587486Y-16706943D01*
X5573200Y-16735514D01*
X5558914Y-16749800D01*
X5530343Y-16764086D01*
X5473200Y-16764086D01*
X5444629Y-16778371D01*
X5430343Y-16792657D01*
X5416057Y-16821229D01*
X5416057Y-16878371D01*
X5430343Y-16906943D01*
X5444629Y-16921229D01*
X5473200Y-16935514D01*
X5530343Y-16935514D01*
X5558914Y-16921229D01*
X5573200Y-16906943D01*
X5587486Y-16878371D01*
X5587486Y-16821229D01*
X5573200Y-16792657D01*
X5558914Y-16778371D01*
X5530343Y-16764086D01*
X5687486Y-16635514D02*
X5887486Y-16635514D01*
X5758914Y-16935514D01*
X5987486Y-16635514D02*
X5987486Y-16692657D01*
X6101771Y-16635514D02*
X6101771Y-16692657D01*
X6544628Y-17049800D02*
X6530343Y-17035514D01*
X6501771Y-16992657D01*
X6487486Y-16964086D01*
X6473200Y-16921229D01*
X6458914Y-16849800D01*
X6458914Y-16792657D01*
X6473200Y-16721228D01*
X6487486Y-16678371D01*
X6501771Y-16649800D01*
X6530343Y-16606943D01*
X6544628Y-16592657D01*
X6787486Y-16735514D02*
X6787486Y-16935514D01*
X6716057Y-16621228D02*
X6644628Y-16835514D01*
X6830343Y-16835514D01*
X7173200Y-16935514D02*
X7173200Y-16635514D01*
X7301771Y-16935514D02*
X7301771Y-16778371D01*
X7287486Y-16749800D01*
X7258914Y-16735514D01*
X7216057Y-16735514D01*
X7187486Y-16749800D01*
X7173200Y-16764086D01*
X7487486Y-16935514D02*
X7458914Y-16921229D01*
X7444628Y-16906943D01*
X7430343Y-16878371D01*
X7430343Y-16792657D01*
X7444628Y-16764086D01*
X7458914Y-16749800D01*
X7487486Y-16735514D01*
X7530343Y-16735514D01*
X7558914Y-16749800D01*
X7573200Y-16764086D01*
X7587486Y-16792657D01*
X7587486Y-16878371D01*
X7573200Y-16906943D01*
X7558914Y-16921229D01*
X7530343Y-16935514D01*
X7487486Y-16935514D01*
X7758914Y-16935514D02*
X7730343Y-16921229D01*
X7716057Y-16892657D01*
X7716057Y-16635514D01*
X7987486Y-16921229D02*
X7958914Y-16935514D01*
X7901771Y-16935514D01*
X7873200Y-16921229D01*
X7858914Y-16892657D01*
X7858914Y-16778371D01*
X7873200Y-16749800D01*
X7901771Y-16735514D01*
X7958914Y-16735514D01*
X7987486Y-16749800D01*
X8001771Y-16778371D01*
X8001771Y-16806943D01*
X7858914Y-16835514D01*
X8116057Y-16921229D02*
X8144628Y-16935514D01*
X8201771Y-16935514D01*
X8230343Y-16921229D01*
X8244628Y-16892657D01*
X8244628Y-16878371D01*
X8230343Y-16849800D01*
X8201771Y-16835514D01*
X8158914Y-16835514D01*
X8130343Y-16821229D01*
X8116057Y-16792657D01*
X8116057Y-16778371D01*
X8130343Y-16749800D01*
X8158914Y-16735514D01*
X8201771Y-16735514D01*
X8230343Y-16749800D01*
X8344628Y-17049800D02*
X8358914Y-17035514D01*
X8387486Y-16992657D01*
X8401771Y-16964086D01*
X8416057Y-16921229D01*
X8430343Y-16849800D01*
X8430343Y-16792657D01*
X8416057Y-16721228D01*
X8401771Y-16678371D01*
X8387486Y-16649800D01*
X8358914Y-16606943D01*
X8344628Y-16592657D01*
M02*
