G04 #@! TF.GenerationSoftware,KiCad,Pcbnew,(5.1.9)-1*
G04 #@! TF.CreationDate,2021-03-29T22:20:50-07:00*
G04 #@! TF.ProjectId,bakekujira,62616b65-6b75-46a6-9972-612e6b696361,0.3*
G04 #@! TF.SameCoordinates,Original*
G04 #@! TF.FileFunction,Copper,L1,Top*
G04 #@! TF.FilePolarity,Positive*
%FSLAX46Y46*%
G04 Gerber Fmt 4.6, Leading zero omitted, Abs format (unit mm)*
G04 Created by KiCad (PCBNEW (5.1.9)-1) date 2021-03-29 22:20:50*
%MOMM*%
%LPD*%
G01*
G04 APERTURE LIST*
G04 #@! TA.AperFunction,ComponentPad*
%ADD10C,1.397000*%
G04 #@! TD*
G04 #@! TA.AperFunction,ComponentPad*
%ADD11C,1.700000*%
G04 #@! TD*
G04 #@! TA.AperFunction,ComponentPad*
%ADD12C,2.200000*%
G04 #@! TD*
G04 #@! TA.AperFunction,ComponentPad*
%ADD13O,1.500000X2.300000*%
G04 #@! TD*
G04 #@! TA.AperFunction,SMDPad,CuDef*
%ADD14R,1.700000X1.000000*%
G04 #@! TD*
G04 #@! TA.AperFunction,ViaPad*
%ADD15C,0.800000*%
G04 #@! TD*
G04 #@! TA.AperFunction,Conductor*
%ADD16C,0.381000*%
G04 #@! TD*
G04 #@! TA.AperFunction,Conductor*
%ADD17C,0.254000*%
G04 #@! TD*
G04 APERTURE END LIST*
D10*
X420587500Y-90000000D03*
X418047500Y-90000000D03*
X415507500Y-90000000D03*
X412967500Y-90000000D03*
D11*
X409179000Y-40513000D03*
X424394000Y-43053000D03*
D12*
X409789000Y-37688200D03*
X423784400Y-37688200D03*
D11*
X424394000Y-40513000D03*
X421854000Y-45593000D03*
X424394000Y-45593000D03*
X424394000Y-48133000D03*
X424394000Y-50673000D03*
X424394000Y-53213000D03*
X419314000Y-45593000D03*
X416774000Y-45593000D03*
X424394000Y-55753000D03*
X424394000Y-58293000D03*
X424394000Y-60833000D03*
X424394000Y-63373000D03*
X424394000Y-65913000D03*
X424394000Y-68453000D03*
X424394000Y-76073000D03*
X424394000Y-81153000D03*
X424394000Y-83693000D03*
X424394000Y-78613000D03*
X424394000Y-86233000D03*
X424394000Y-73533000D03*
X409179000Y-43053000D03*
X409179000Y-45593000D03*
X409179000Y-50673000D03*
X411719000Y-45593000D03*
X409179000Y-48133000D03*
X409179000Y-53213000D03*
X409179000Y-55753000D03*
X409179000Y-58293000D03*
X409179000Y-63373000D03*
X409179000Y-65913000D03*
X409179000Y-60833000D03*
X409179000Y-68453000D03*
X409179000Y-76073000D03*
X409179000Y-73533000D03*
X409179000Y-81153000D03*
X409179000Y-78613000D03*
X409179000Y-83693000D03*
X409179000Y-86233000D03*
X23759000Y-40513000D03*
X38974000Y-43053000D03*
D12*
X24369000Y-37688200D03*
X38364400Y-37688200D03*
D11*
X38974000Y-40513000D03*
X36434000Y-45593000D03*
X38974000Y-45593000D03*
X38974000Y-48133000D03*
X38974000Y-50673000D03*
X38974000Y-53213000D03*
X33894000Y-45593000D03*
X31354000Y-45593000D03*
X38974000Y-55753000D03*
X38974000Y-58293000D03*
X38974000Y-60833000D03*
X38974000Y-63373000D03*
X38974000Y-65913000D03*
X38974000Y-68453000D03*
X38974000Y-76073000D03*
X38974000Y-81153000D03*
X38974000Y-83693000D03*
X38974000Y-78613000D03*
X38974000Y-86233000D03*
X38974000Y-73533000D03*
X23759000Y-43053000D03*
X23759000Y-45593000D03*
X23759000Y-50673000D03*
X26299000Y-45593000D03*
X23759000Y-48133000D03*
X23759000Y-53213000D03*
X23759000Y-55753000D03*
X23759000Y-58293000D03*
X23759000Y-63373000D03*
X23759000Y-65913000D03*
X23759000Y-60833000D03*
X23759000Y-68453000D03*
X23759000Y-76073000D03*
X23759000Y-73533000D03*
X23759000Y-81153000D03*
X23759000Y-78613000D03*
X23759000Y-83693000D03*
X23759000Y-86233000D03*
D10*
X35215000Y-90000000D03*
X32675000Y-90000000D03*
X30135000Y-90000000D03*
X27595000Y-90000000D03*
D13*
X181102000Y-40430000D03*
X181102000Y-43430000D03*
X181102000Y-47430000D03*
X176802000Y-48930000D03*
X190173500Y-40303000D03*
X190173500Y-43303000D03*
X190173500Y-47303000D03*
X185873500Y-48803000D03*
D14*
X34555000Y-97900000D03*
X28255000Y-97900000D03*
X34555000Y-94100000D03*
X28255000Y-94100000D03*
X419927500Y-97900000D03*
X413627500Y-97900000D03*
X419927500Y-94100000D03*
X413627500Y-94100000D03*
D15*
X47342490Y-116586000D03*
X40894004Y-44196010D03*
X47498000Y-88900000D03*
X42989079Y-39957069D03*
X42037000Y-56388000D03*
X45292839Y-77321888D03*
X40865500Y-45720000D03*
X208216500Y-50673000D03*
X198818500Y-64770000D03*
X203517500Y-83693000D03*
X203517500Y-88900000D03*
X229679500Y-121158000D03*
X213515510Y-102235000D03*
X213571569Y-107547940D03*
X201168000Y-67818000D03*
X41021000Y-62357000D03*
X44704000Y-81661000D03*
X421372990Y-80899000D03*
X43526010Y-100584000D03*
X421700000Y-109100000D03*
X43053000Y-120142000D03*
X175641000Y-37846000D03*
X175810475Y-46820525D03*
X267335000Y-54737000D03*
X262001000Y-55753000D03*
X95885000Y-113157000D03*
X101600000Y-113157000D03*
X392811000Y-74422000D03*
X392874500Y-77787500D03*
X147701000Y-55753000D03*
X141986000Y-54229000D03*
X124460000Y-54610000D03*
X118491010Y-54610000D03*
X147447000Y-74930000D03*
X142113000Y-55626000D03*
X134366000Y-113157000D03*
X139954000Y-113157000D03*
X196596000Y-91567000D03*
X190246000Y-73787000D03*
X201231500Y-92710000D03*
X216655933Y-113036067D03*
X61468000Y-95250000D03*
X63119000Y-110474003D03*
X225234500Y-60325000D03*
X241871500Y-39154021D03*
X65659000Y-83820000D03*
X58547000Y-50419000D03*
X63246000Y-65151000D03*
X65659000Y-88392000D03*
X61087000Y-122301000D03*
X60833000Y-51435000D03*
X63274361Y-68903959D03*
X77470000Y-50800000D03*
X70485000Y-102870000D03*
X84709000Y-121793000D03*
X72276000Y-52095489D03*
X70485000Y-107276979D03*
X96647000Y-50800000D03*
X86995000Y-70104000D03*
X91948000Y-83439000D03*
X92075000Y-89154000D03*
X101473000Y-102616000D03*
X108585000Y-122047000D03*
X87122000Y-65151000D03*
X91059000Y-52422490D03*
X101473000Y-107657979D03*
X106172000Y-69596000D03*
X110871000Y-83185000D03*
X110998000Y-88519000D03*
X120523000Y-102616000D03*
X132461000Y-121920000D03*
X106045000Y-65024000D03*
X115697000Y-50453990D03*
X120396000Y-107784979D03*
X108013500Y-71408990D03*
X125222000Y-69342000D03*
X130048000Y-83947000D03*
X129921000Y-88773000D03*
X125222000Y-65278000D03*
X134747000Y-50291992D03*
X139446000Y-101219000D03*
X125095000Y-71374000D03*
X139446000Y-107784979D03*
X153797000Y-50482500D03*
X145923000Y-65151000D03*
X148774430Y-88830421D03*
X150495000Y-83947000D03*
X146177000Y-68199000D03*
X158496000Y-101600000D03*
X160528000Y-107568996D03*
X44323000Y-72390000D03*
X46037500Y-107759500D03*
X172847000Y-50800000D03*
X163322000Y-64389000D03*
X163322000Y-69850000D03*
X168275000Y-83820000D03*
X168021000Y-89281000D03*
X177673000Y-103378000D03*
X177546000Y-107823000D03*
X169418000Y-124587000D03*
X44704000Y-130429000D03*
X41910000Y-71501000D03*
X217868500Y-64643000D03*
X226123500Y-51054000D03*
X217741500Y-69596000D03*
X222567500Y-83693000D03*
X222567500Y-88773000D03*
X232092500Y-102997000D03*
X246443500Y-51054000D03*
X241617500Y-83058000D03*
X241617500Y-88900000D03*
X251142500Y-101854000D03*
X236791500Y-69342006D03*
X236918500Y-65024000D03*
X260667500Y-83693000D03*
X260667500Y-89154000D03*
X270192500Y-102870000D03*
X270192500Y-107950000D03*
X270192500Y-121285000D03*
X265468100Y-50469800D03*
X255714500Y-69342000D03*
X255841500Y-64770000D03*
X294449500Y-122047000D03*
X289242500Y-107823000D03*
X284543500Y-50292000D03*
X275018500Y-65151000D03*
X275018500Y-69596000D03*
X279844500Y-88646000D03*
X280098500Y-83820000D03*
X289242500Y-103378000D03*
X294068500Y-69723000D03*
X298767500Y-83566000D03*
X294068500Y-62230000D03*
X303466500Y-50800000D03*
X301625000Y-89916000D03*
X404956946Y-83947000D03*
X339661500Y-121412000D03*
X336994500Y-69723000D03*
X336994500Y-65024000D03*
X339680499Y-51136499D03*
X339534500Y-48450500D03*
X315658500Y-121920000D03*
X324929500Y-107569000D03*
X325183500Y-103124000D03*
X314134500Y-69596000D03*
X329882500Y-84201000D03*
X329501500Y-89281000D03*
X404304500Y-81216500D03*
X191452500Y-37719000D03*
X191452500Y-45875000D03*
X207899000Y-55245000D03*
X201929996Y-55245000D03*
X297307000Y-55880000D03*
X291846000Y-55753000D03*
X223520000Y-111887000D03*
X217805000Y-111760000D03*
X251904500Y-112903000D03*
X244919500Y-111760000D03*
X278828500Y-112649000D03*
X271716500Y-111760000D03*
X187261500Y-60706000D03*
X204025500Y-39144510D03*
X262826500Y-59944000D03*
X280352500Y-39154021D03*
X301434500Y-60452000D03*
X327596500Y-39100032D03*
X376936000Y-57121500D03*
X380619000Y-56007000D03*
X391160000Y-55626000D03*
X391795000Y-42164000D03*
X93726000Y-40386000D03*
X75438000Y-60071000D03*
X131826000Y-40259000D03*
X113665000Y-60579000D03*
X142240000Y-41783000D03*
X139954000Y-58166000D03*
X28847989Y-53200000D03*
X28500000Y-50700000D03*
X320611500Y-56007000D03*
X326453500Y-56007000D03*
X194945000Y-74803000D03*
X200440999Y-55210007D03*
X422300000Y-120300002D03*
X196659500Y-41402000D03*
X222948500Y-38890510D03*
X54229000Y-79248000D03*
X58928000Y-58166000D03*
X325056500Y-77244500D03*
X312991500Y-98044000D03*
X163576000Y-77089000D03*
X165862000Y-98615502D03*
X411600000Y-77299996D03*
X149352000Y-72263000D03*
X148669501Y-80946499D03*
X154590490Y-100171510D03*
X69797501Y-100001499D03*
X69723000Y-91059000D03*
X48641000Y-119380000D03*
X162284490Y-119221510D03*
X162306000Y-110236000D03*
X115824004Y-119126000D03*
X42037000Y-42672000D03*
X46228000Y-79375000D03*
X62357000Y-62230000D03*
X59182000Y-53339988D03*
X106426000Y-61849000D03*
X105918000Y-53340000D03*
X66854490Y-118438510D03*
X66802000Y-111633000D03*
X115062000Y-111633000D03*
X144272000Y-119253000D03*
X143764000Y-110963000D03*
X65532000Y-81026000D03*
X65452522Y-73025000D03*
X48133004Y-97536000D03*
X130079490Y-52990490D03*
X130048000Y-61214000D03*
X42545000Y-49276000D03*
X43953778Y-60107827D03*
X155355990Y-91948000D03*
X48533003Y-87610997D03*
X26300000Y-64800000D03*
X28499998Y-49400000D03*
X28500000Y-40700000D03*
X354012500Y-60198000D03*
X361505500Y-39116000D03*
X258635500Y-98806000D03*
X263461500Y-115189000D03*
X151384000Y-110617000D03*
X151130000Y-93564010D03*
X169890249Y-40478685D03*
X151765000Y-60579000D03*
X218122500Y-77216000D03*
X206057500Y-61087000D03*
X245706900Y-62001400D03*
X256222500Y-77089000D03*
X79248000Y-79375000D03*
X82612782Y-58648521D03*
X199199500Y-77216000D03*
X200215500Y-98679000D03*
X284600933Y-96208567D03*
X279717500Y-117094000D03*
X380174500Y-115189000D03*
X374840500Y-100330000D03*
X365188500Y-50165000D03*
X365823500Y-65024000D03*
X365188500Y-69250000D03*
X366204500Y-122301000D03*
X365950500Y-52578000D03*
X384238500Y-50546000D03*
X385000500Y-64897000D03*
X384492500Y-69123000D03*
X385000500Y-103124000D03*
X384873500Y-108077000D03*
X385254500Y-122301000D03*
X385063086Y-52549490D03*
X403542500Y-50165000D03*
X403387000Y-65024000D03*
X403542500Y-69469000D03*
X403450490Y-122047000D03*
X141971019Y-73577357D03*
X161798000Y-94107000D03*
X161036000Y-90741500D03*
X147460269Y-90791731D03*
X327774468Y-113995032D03*
X319722500Y-111633000D03*
X234759500Y-41529000D03*
X260921500Y-39100032D03*
X272796000Y-40640000D03*
X299212000Y-39116000D03*
X332549500Y-58039000D03*
X320412029Y-42192510D03*
X194373500Y-58039000D03*
X192087500Y-79375000D03*
X232473500Y-58194500D03*
X229933500Y-79375000D03*
X270700500Y-57912000D03*
X267906500Y-79121000D03*
X66040000Y-41656000D03*
X66445261Y-96139000D03*
X104140000Y-41783000D03*
X101854000Y-58039000D03*
X134747000Y-96393000D03*
X138557000Y-99314000D03*
X287083500Y-115443000D03*
X286194500Y-119431000D03*
X80137000Y-115062000D03*
X58674000Y-98679000D03*
X72009000Y-109728000D03*
X63119000Y-109474000D03*
X56515000Y-115316000D03*
X60325000Y-117475000D03*
X97027282Y-96167500D03*
X96520000Y-117728996D03*
X107696000Y-117221000D03*
X103999032Y-115075968D03*
X55880000Y-40259000D03*
X48895000Y-57658000D03*
X127762000Y-115316000D03*
X108839000Y-98806000D03*
X172986532Y-96167500D03*
X154051000Y-117094000D03*
X405955500Y-58420000D03*
X401256500Y-106630823D03*
X401383494Y-114173000D03*
X401291490Y-92202000D03*
X401291499Y-76552499D03*
X405834989Y-42926000D03*
X404177500Y-60706000D03*
X230695500Y-118618000D03*
X383857500Y-118110000D03*
X383603500Y-110617000D03*
X365315500Y-109855000D03*
X365061500Y-119507000D03*
X338645500Y-108712000D03*
X338391500Y-118364000D03*
X315150500Y-110109000D03*
X291401500Y-119761000D03*
X267398508Y-118872000D03*
X214439500Y-100076000D03*
X384273500Y-61087000D03*
X340423500Y-61976000D03*
X340423497Y-53340003D03*
X256349500Y-61341000D03*
X218757500Y-60960000D03*
X314896500Y-118872000D03*
X291655500Y-110362996D03*
X267398500Y-109855000D03*
X400592990Y-86487000D03*
X400592990Y-110490000D03*
X230530676Y-111595176D03*
X400685000Y-72898000D03*
X216662006Y-52959000D03*
X278892000Y-53848000D03*
X276860000Y-60960000D03*
X240157000Y-61849000D03*
X239903000Y-53213000D03*
X400685000Y-72898000D03*
X400494500Y-81118010D03*
X400465998Y-98142498D03*
X402653500Y-119761000D03*
X405003000Y-44259500D03*
X383413000Y-54737000D03*
X203009500Y-74104500D03*
X204216000Y-80518000D03*
X212915500Y-91376500D03*
X405000000Y-40400000D03*
X89789000Y-56134000D03*
X84836000Y-56134000D03*
X62484000Y-54737000D03*
X56769000Y-54610000D03*
X118491000Y-55880000D03*
X113411000Y-56007000D03*
X96393000Y-55753000D03*
X89916000Y-54737000D03*
X355409500Y-113030000D03*
X344106500Y-111633000D03*
X378142500Y-112522000D03*
X367220500Y-111760000D03*
X393319000Y-112649000D03*
X393319000Y-106172000D03*
X388556500Y-104394002D03*
X393128500Y-89535000D03*
X346900500Y-55880000D03*
X353123500Y-55880000D03*
X56769000Y-56007000D03*
X46736000Y-41783000D03*
X303593500Y-113284000D03*
X296227500Y-112014000D03*
X395732000Y-76073000D03*
X395732000Y-85836030D03*
X59055000Y-74930000D03*
X57785000Y-92583000D03*
X68580000Y-114300000D03*
X72390000Y-113538000D03*
X213550500Y-58166000D03*
X215455500Y-41910000D03*
X251396500Y-58166000D03*
X253682500Y-41783000D03*
X292036500Y-42037000D03*
X289623500Y-58038998D03*
X354012506Y-41275000D03*
X380055327Y-39084032D03*
X373062500Y-41783000D03*
X380366624Y-58409327D03*
X392112500Y-60706000D03*
X399351500Y-39081010D03*
X74676000Y-40259000D03*
X84963000Y-41783000D03*
X112649000Y-40259000D03*
X123063000Y-41529000D03*
X161290000Y-41783000D03*
X150749000Y-40259000D03*
X282384500Y-60706000D03*
X294195500Y-77088999D03*
X308800500Y-57658000D03*
X317944500Y-79657521D03*
X325183500Y-60833000D03*
X334962500Y-115189000D03*
X361124500Y-58039000D03*
X353631500Y-117094000D03*
X380301500Y-95885000D03*
X374840500Y-61976000D03*
X399224500Y-58166000D03*
X391985500Y-117729000D03*
X106553000Y-77089000D03*
X94488000Y-60833000D03*
X120650000Y-58194500D03*
X118364000Y-79248000D03*
X132588000Y-60833000D03*
X144653000Y-77216000D03*
X158750000Y-58194500D03*
X156337000Y-79502000D03*
X210883500Y-79756000D03*
X227266500Y-96012000D03*
X237045500Y-76835000D03*
X238950500Y-98298000D03*
X248729500Y-80010000D03*
X265711309Y-96138999D03*
X275272500Y-76835000D03*
X277177500Y-98806000D03*
X286829500Y-79756000D03*
X311086500Y-114300000D03*
X49276000Y-117729000D03*
X61849000Y-77089000D03*
X87503000Y-77216000D03*
X89789000Y-98679000D03*
X99187000Y-79756000D03*
X116078000Y-96266000D03*
X125476000Y-77117500D03*
X127889000Y-98551994D03*
X137715692Y-79284986D03*
X154048795Y-96274322D03*
X208432225Y-96167500D03*
X217868500Y-117729000D03*
X219837000Y-98869500D03*
X246507000Y-96329500D03*
X244729000Y-94361000D03*
X220345000Y-94678500D03*
X320484500Y-96294500D03*
X303593500Y-116713000D03*
X361124500Y-115316000D03*
X355790500Y-120523000D03*
X398970500Y-115189000D03*
X398843500Y-119507000D03*
X239903000Y-56007000D03*
X233426000Y-56007000D03*
D16*
X47342490Y-116586000D02*
X47342490Y-89055510D01*
X47342490Y-89055510D02*
X47498000Y-88900000D01*
X40894004Y-44196010D02*
X40894004Y-42052144D01*
X40894004Y-42052144D02*
X42989079Y-39957069D01*
X41656000Y-44958006D02*
X41656000Y-56007000D01*
X40894004Y-44196010D02*
X41656000Y-44958006D01*
X41656000Y-56007000D02*
X42037000Y-56388000D01*
X42037000Y-59366683D02*
X45292839Y-62622522D01*
X42037000Y-56388000D02*
X42037000Y-59366683D01*
X45292839Y-79709839D02*
X45292839Y-77321888D01*
X47498000Y-81915000D02*
X45292839Y-79709839D01*
X47498000Y-88900000D02*
X47498000Y-81915000D01*
X45292839Y-62622522D02*
X45292839Y-77321888D01*
X35913499Y-96541501D02*
X34555000Y-97900000D01*
X34555000Y-97900000D02*
X28255000Y-97900000D01*
X35913499Y-90698499D02*
X35215000Y-90000000D01*
X35913499Y-96541501D02*
X35913499Y-90698499D01*
D17*
X40865500Y-53752500D02*
X40865500Y-45720000D01*
X39025000Y-55593000D02*
X40865500Y-53752500D01*
X229679500Y-121158000D02*
X229679500Y-113665000D01*
X229679500Y-113665000D02*
X225996500Y-109982000D01*
X225996500Y-109982000D02*
X216005629Y-109982000D01*
X216005629Y-109982000D02*
X213571569Y-107547940D01*
X213515510Y-99914010D02*
X213515510Y-102235000D01*
X208851500Y-95250000D02*
X213515510Y-99914010D01*
X206946500Y-95250000D02*
X208851500Y-95250000D01*
X203517500Y-91821000D02*
X206946500Y-95250000D01*
X203517500Y-88900000D02*
X203517500Y-91821000D01*
X203517500Y-83693000D02*
X201168000Y-81343500D01*
X201168000Y-81343500D02*
X201168000Y-67818000D01*
X198818500Y-54165500D02*
X198818500Y-64770000D01*
X202311000Y-50673000D02*
X198818500Y-54165500D01*
X208216500Y-50673000D02*
X202311000Y-50673000D01*
X239985521Y-131464021D02*
X229679500Y-121158000D01*
X403544682Y-131464022D02*
X239985521Y-131464021D01*
X407500000Y-127508704D02*
X403544682Y-131464022D01*
X407500000Y-81090038D02*
X407500000Y-127508704D01*
X409179000Y-79411038D02*
X407500000Y-81090038D01*
X409179000Y-78613000D02*
X409179000Y-79411038D01*
X39025000Y-58133000D02*
X41021000Y-60129000D01*
X41021000Y-60129000D02*
X41021000Y-62357000D01*
X43595995Y-80552995D02*
X44704000Y-81661000D01*
X39025000Y-60673000D02*
X39025000Y-61436962D01*
X39025000Y-61436962D02*
X43595995Y-66007957D01*
X43595995Y-66007957D02*
X43595995Y-80552995D01*
X424394000Y-60833000D02*
X421372990Y-63854010D01*
X421372990Y-63854010D02*
X421372990Y-80899000D01*
X43126011Y-100184001D02*
X43526010Y-100584000D01*
X43126011Y-67314011D02*
X43126011Y-100184001D01*
X39025000Y-63213000D02*
X43126011Y-67314011D01*
X422099999Y-108700001D02*
X421700000Y-109100000D01*
X422099999Y-65667001D02*
X422099999Y-108700001D01*
X424394000Y-63373000D02*
X422099999Y-65667001D01*
X39025000Y-65753000D02*
X39025000Y-66479451D01*
X42653001Y-69381001D02*
X39025000Y-65753000D01*
X43053000Y-120142000D02*
X42653001Y-119742001D01*
X42653001Y-119742001D02*
X42653001Y-69381001D01*
X175641000Y-46651050D02*
X175810475Y-46820525D01*
X175641000Y-37846000D02*
X175641000Y-46651050D01*
X263017000Y-54737000D02*
X262001000Y-55753000D01*
X267335000Y-54737000D02*
X263017000Y-54737000D01*
X95885000Y-113157000D02*
X101600000Y-113157000D01*
X392811000Y-74422000D02*
X392811000Y-77724000D01*
X392811000Y-77724000D02*
X392874500Y-77787500D01*
X143510000Y-55753000D02*
X141986000Y-54229000D01*
X147701000Y-55753000D02*
X143510000Y-55753000D01*
X124460000Y-54610000D02*
X118491010Y-54610000D01*
X143517001Y-57030001D02*
X142113000Y-55626000D01*
X147447000Y-74930000D02*
X143517001Y-71000001D01*
X143517001Y-71000001D02*
X143517001Y-57030001D01*
X134366000Y-113157000D02*
X139954000Y-113157000D01*
X194060249Y-82679039D02*
X190246000Y-78864790D01*
X194060249Y-84960961D02*
X194060249Y-82679039D01*
X190246000Y-78864790D02*
X190246000Y-73787000D01*
X196596000Y-87496712D02*
X194060249Y-84960961D01*
X196596000Y-91567000D02*
X196596000Y-87496712D01*
X214963965Y-111344099D02*
X216655933Y-113036067D01*
X202345901Y-111344099D02*
X214963965Y-111344099D01*
X202342750Y-111347250D02*
X202345901Y-111344099D01*
X201168000Y-110172500D02*
X202342750Y-111347250D01*
X201168000Y-106934000D02*
X201168000Y-110172500D01*
X202882500Y-105219500D02*
X201168000Y-106934000D01*
X202882500Y-94361000D02*
X202882500Y-105219500D01*
X201231500Y-92710000D02*
X202882500Y-94361000D01*
X63846001Y-109822961D02*
X63194959Y-110474003D01*
X63846001Y-106892713D02*
X63846001Y-109822961D01*
X60964249Y-104010961D02*
X63846001Y-106892713D01*
X63194959Y-110474003D02*
X63119000Y-110474003D01*
X60964249Y-95753751D02*
X60964249Y-104010961D01*
X61468000Y-95250000D02*
X60964249Y-95753751D01*
X235496751Y-45138249D02*
X237676990Y-42958010D01*
X225234500Y-60325000D02*
X225234500Y-59621288D01*
X237676990Y-42958010D02*
X241164804Y-42958010D01*
X225234500Y-59621288D02*
X235496751Y-49359037D01*
X241164804Y-42958010D02*
X241871500Y-42251314D01*
X235496751Y-49359037D02*
X235496751Y-45138249D01*
X241871500Y-42251314D02*
X241871500Y-39154021D01*
X26162000Y-88074500D02*
X26225500Y-88138000D01*
X26162000Y-92007000D02*
X28255000Y-94100000D01*
X26162000Y-88074500D02*
X26162000Y-92007000D01*
X28255000Y-94100000D02*
X34555000Y-94100000D01*
X26162000Y-74993500D02*
X26162000Y-88074500D01*
X25300000Y-74131500D02*
X26162000Y-74993500D01*
X25300000Y-46948000D02*
X25300000Y-74131500D01*
X23785000Y-45433000D02*
X25300000Y-46948000D01*
X419927500Y-94100000D02*
X413627500Y-94100000D01*
X419481000Y-93653500D02*
X419927500Y-94100000D01*
X409179000Y-45593000D02*
X410572999Y-46986999D01*
X410572999Y-46986999D02*
X410572999Y-91045499D01*
X410572999Y-91045499D02*
X413627500Y-94100000D01*
X59817000Y-50419000D02*
X60833000Y-51435000D01*
X58547000Y-50419000D02*
X59817000Y-50419000D01*
X61183871Y-51435000D02*
X60833000Y-51435000D01*
X64271511Y-54522640D02*
X61183871Y-51435000D01*
X63246000Y-65151000D02*
X64271511Y-64125489D01*
X64271511Y-64125489D02*
X64271511Y-54522640D01*
X63274361Y-81435361D02*
X63274361Y-68903959D01*
X65659000Y-83820000D02*
X63274361Y-81435361D01*
X65659000Y-88392000D02*
X65718251Y-88451251D01*
X65370002Y-118017998D02*
X61087000Y-122301000D01*
X65324249Y-108952285D02*
X65370002Y-108998038D01*
X65718251Y-88451251D02*
X65718251Y-104139037D01*
X65370002Y-108998038D02*
X65370002Y-118017998D01*
X65324249Y-104533039D02*
X65324249Y-108952285D01*
X65718251Y-104139037D02*
X65324249Y-104533039D01*
X70485000Y-102870000D02*
X72424999Y-100930001D01*
X72424999Y-100930001D02*
X72424999Y-55845001D01*
X72377511Y-52197000D02*
X72276000Y-52095489D01*
X76073000Y-52197000D02*
X72377511Y-52197000D01*
X72424999Y-55845001D02*
X76073000Y-52197000D01*
X76073000Y-52197000D02*
X77470000Y-50800000D01*
X84709000Y-116078000D02*
X75907979Y-107276979D01*
X75907979Y-107276979D02*
X70485000Y-107276979D01*
X84709000Y-121793000D02*
X84709000Y-116078000D01*
X92075000Y-89154000D02*
X96393000Y-93472000D01*
X96393000Y-93472000D02*
X98806000Y-93472000D01*
X101473000Y-96139000D02*
X101473000Y-102616000D01*
X98806000Y-93472000D02*
X101473000Y-96139000D01*
X89823999Y-73945461D02*
X91948000Y-76069462D01*
X89823999Y-72932999D02*
X89823999Y-73945461D01*
X91948000Y-76069462D02*
X91948000Y-83439000D01*
X86995000Y-70104000D02*
X88392000Y-71501000D01*
X88392000Y-71501000D02*
X89823999Y-72932999D01*
X95024510Y-52422490D02*
X91059000Y-52422490D01*
X96647000Y-50800000D02*
X95024510Y-52422490D01*
X108585000Y-122047000D02*
X108585000Y-114769979D01*
X108585000Y-114769979D02*
X101473000Y-107657979D01*
X85725000Y-53340000D02*
X90141490Y-53340000D01*
X83820000Y-55245000D02*
X85725000Y-53340000D01*
X83820000Y-61849000D02*
X83820000Y-55245000D01*
X85463999Y-63492999D02*
X83820000Y-61849000D01*
X85702961Y-63492999D02*
X85463999Y-63492999D01*
X90141490Y-53340000D02*
X91059000Y-52422490D01*
X86367001Y-64157039D02*
X85702961Y-63492999D01*
X86367001Y-64396001D02*
X86367001Y-64157039D01*
X87122000Y-65151000D02*
X86367001Y-64396001D01*
X110998000Y-88519000D02*
X113665000Y-91186000D01*
X113665000Y-91186000D02*
X119380000Y-91186000D01*
X120523000Y-92329000D02*
X120523000Y-102616000D01*
X119380000Y-91186000D02*
X120523000Y-92329000D01*
X132461000Y-121920000D02*
X132461000Y-113919000D01*
X132461000Y-113919000D02*
X126326979Y-107784979D01*
X126326979Y-107784979D02*
X120396000Y-107784979D01*
X108204000Y-57946990D02*
X115697000Y-50453990D01*
X108204000Y-62865000D02*
X108204000Y-57946990D01*
X106045000Y-65024000D02*
X108204000Y-62865000D01*
X106172000Y-69596000D02*
X107984990Y-71408990D01*
X110871000Y-83185000D02*
X108013500Y-80327500D01*
X107984990Y-71408990D02*
X108013500Y-71408990D01*
X108013500Y-80327500D02*
X108013500Y-71408990D01*
X129540000Y-83439000D02*
X130048000Y-83947000D01*
X129540000Y-73660000D02*
X129540000Y-83439000D01*
X125222000Y-69342000D02*
X129540000Y-73660000D01*
X129921000Y-88773000D02*
X130944068Y-88773000D01*
X139446000Y-97274932D02*
X139446000Y-101219000D01*
X133353534Y-91182466D02*
X139446000Y-97274932D01*
X130944068Y-88773000D02*
X133353534Y-91182466D01*
X125222000Y-69342000D02*
X125222000Y-71247000D01*
X125222000Y-71247000D02*
X125095000Y-71374000D01*
X131445008Y-50291992D02*
X134747000Y-50291992D01*
X126047500Y-55689500D02*
X131445008Y-50291992D01*
X126047500Y-64452500D02*
X126047500Y-55689500D01*
X125222000Y-65278000D02*
X126047500Y-64452500D01*
X150558500Y-60515500D02*
X145923000Y-65151000D01*
X153797000Y-50482500D02*
X150558500Y-53721000D01*
X150558500Y-53721000D02*
X150558500Y-60515500D01*
X150495000Y-83947000D02*
X150495000Y-71824315D01*
X150495000Y-71824315D02*
X149155685Y-70485000D01*
X149155685Y-70485000D02*
X148209000Y-70485000D01*
X148209000Y-70231000D02*
X148209000Y-70485000D01*
X146177000Y-68199000D02*
X148209000Y-70231000D01*
X158496000Y-101600000D02*
X160528000Y-103632000D01*
X160528000Y-103632000D02*
X160528000Y-107568996D01*
X156083000Y-91253038D02*
X156083000Y-99187000D01*
X156083000Y-99187000D02*
X158496000Y-101600000D01*
X153660383Y-88830421D02*
X156083000Y-91253038D01*
X148774430Y-88830421D02*
X153660383Y-88830421D01*
X46037500Y-81918538D02*
X46037500Y-107759500D01*
X44323000Y-80204038D02*
X46037500Y-81918538D01*
X44323000Y-72390000D02*
X44323000Y-80204038D01*
X163322000Y-56134000D02*
X163322000Y-64389000D01*
X165481000Y-53975000D02*
X163322000Y-56134000D01*
X169672000Y-53975000D02*
X165481000Y-53975000D01*
X172847000Y-50800000D02*
X169672000Y-53975000D01*
X168275000Y-78867000D02*
X168275000Y-83820000D01*
X163322000Y-73914000D02*
X168275000Y-78867000D01*
X163322000Y-69850000D02*
X163322000Y-73914000D01*
X177419000Y-95123000D02*
X177673000Y-95377000D01*
X177673000Y-95377000D02*
X177673000Y-103378000D01*
X171577000Y-95123000D02*
X177419000Y-95123000D01*
X168021000Y-91567000D02*
X171577000Y-95123000D01*
X168021000Y-89281000D02*
X168021000Y-91567000D01*
X44704000Y-130429000D02*
X41925991Y-127650991D01*
X41925991Y-127650991D02*
X41925991Y-71501000D01*
X41925991Y-71501000D02*
X41910000Y-71501000D01*
X169418000Y-121285000D02*
X169418000Y-124587000D01*
X177546000Y-113157000D02*
X169418000Y-121285000D01*
X177546000Y-107823000D02*
X177546000Y-113157000D01*
X222567500Y-88773000D02*
X227139500Y-93345000D01*
X227139500Y-93345000D02*
X229806500Y-93345000D01*
X229806500Y-93345000D02*
X232092500Y-95631000D01*
X232092500Y-95631000D02*
X232092500Y-102997000D01*
X223964500Y-82296000D02*
X222567500Y-83693000D01*
X223964500Y-75819000D02*
X223964500Y-82296000D01*
X217741500Y-69596000D02*
X223964500Y-75819000D01*
X222634536Y-51054000D02*
X226123500Y-51054000D01*
X220789500Y-52899036D02*
X222634536Y-51054000D01*
X220789500Y-61722000D02*
X220789500Y-52899036D01*
X217868500Y-64643000D02*
X220789500Y-61722000D01*
X409179000Y-76073000D02*
X407986284Y-77265716D01*
X407986284Y-77265716D02*
X407986282Y-79961688D01*
X259539826Y-131010011D02*
X232092500Y-103562685D01*
X232092500Y-103562685D02*
X232092500Y-102997000D01*
X407986282Y-79961688D02*
X407045989Y-80901981D01*
X407045989Y-80901981D02*
X407045989Y-127320647D01*
X407045989Y-127320647D02*
X403356625Y-131010011D01*
X403356625Y-131010011D02*
X259539826Y-131010011D01*
X241617500Y-88900000D02*
X246570500Y-93853000D01*
X246570500Y-93853000D02*
X249110500Y-93853000D01*
X251142500Y-95885000D02*
X251142500Y-101854000D01*
X249110500Y-93853000D02*
X251142500Y-95885000D01*
X241617500Y-83058000D02*
X241617500Y-74168006D01*
X240696747Y-73247253D02*
X236791500Y-69342006D01*
X241617500Y-74168006D02*
X240696747Y-73247253D01*
X239014000Y-65024000D02*
X236918500Y-65024000D01*
X246443500Y-57594500D02*
X239014000Y-65024000D01*
X246443500Y-51054000D02*
X246443500Y-57594500D01*
X406591978Y-80713924D02*
X406591978Y-127132590D01*
X265493500Y-130556000D02*
X257199231Y-122261731D01*
X257199231Y-122261731D02*
X257199231Y-107910731D01*
X257199231Y-107910731D02*
X251142500Y-101854000D01*
X403168568Y-130556000D02*
X265493500Y-130556000D01*
X407532272Y-75179728D02*
X407532272Y-79773630D01*
X409179000Y-73533000D02*
X407532272Y-75179728D01*
X407532272Y-79773630D02*
X406591978Y-80713924D01*
X406591978Y-127132590D02*
X403168568Y-130556000D01*
X270192500Y-107950000D02*
X270192500Y-121285000D01*
X260667500Y-83693000D02*
X260667500Y-74295000D01*
X260667500Y-74295000D02*
X255714500Y-69342000D01*
X260667500Y-89154000D02*
X264604500Y-93091000D01*
X264604500Y-93091000D02*
X264604510Y-93091000D01*
X270192500Y-102870000D02*
X270192500Y-98678990D01*
X270192500Y-98678990D02*
X264604510Y-93091000D01*
X260985000Y-59626500D02*
X255841500Y-64770000D01*
X260985000Y-54952900D02*
X260985000Y-59626500D01*
X265468100Y-50469800D02*
X260985000Y-54952900D01*
X278965011Y-130057511D02*
X270192500Y-121285000D01*
X409179000Y-68453000D02*
X407078262Y-70553738D01*
X407078261Y-79585573D02*
X406137967Y-80525867D01*
X407078262Y-70553738D02*
X407078261Y-79585573D01*
X402841557Y-130057511D02*
X278965011Y-130057511D01*
X406137967Y-80525867D02*
X406137967Y-126761101D01*
X406137967Y-126761101D02*
X402841557Y-130057511D01*
X284543500Y-50292000D02*
X284543500Y-55626000D01*
X284543500Y-55626000D02*
X275018500Y-65151000D01*
X279844500Y-90424000D02*
X279844500Y-88646000D01*
X280098500Y-74676000D02*
X280098500Y-83820000D01*
X275018500Y-69596000D02*
X280098500Y-74676000D01*
X291401500Y-107823000D02*
X289242500Y-107823000D01*
X293306500Y-109728000D02*
X291401500Y-107823000D01*
X293306500Y-120904000D02*
X293306500Y-109728000D01*
X294449500Y-122047000D02*
X293306500Y-120904000D01*
X289242500Y-99822000D02*
X289242500Y-103378000D01*
X281432000Y-92011500D02*
X289242500Y-99822000D01*
X281432000Y-92011500D02*
X280924000Y-91503500D01*
X280924000Y-91503500D02*
X279844500Y-90424000D01*
X405683956Y-126573044D02*
X402653500Y-129603500D01*
X305689000Y-129603500D02*
X298132500Y-122047000D01*
X298132500Y-122047000D02*
X294449500Y-122047000D01*
X402653500Y-129603500D02*
X305689000Y-129603500D01*
X405683956Y-80337810D02*
X405683956Y-126573044D01*
X406600010Y-79421756D02*
X405683956Y-80337810D01*
X409179000Y-65913000D02*
X406600011Y-68491989D01*
X406600011Y-68491989D02*
X406600010Y-79421756D01*
X294068500Y-69723000D02*
X294068500Y-72517000D01*
X298767500Y-77216000D02*
X298767500Y-83566000D01*
X294068500Y-62230000D02*
X295211500Y-62230000D01*
X295211500Y-62230000D02*
X303466500Y-53975000D01*
X303466500Y-53975000D02*
X303466500Y-50800000D01*
X294068500Y-72517000D02*
X295783000Y-74231500D01*
X295783000Y-74231500D02*
X298767500Y-77216000D01*
X301625000Y-86423500D02*
X298767500Y-83566000D01*
X301625000Y-89916000D02*
X301625000Y-86423500D01*
X409179000Y-63373000D02*
X406146001Y-66405999D01*
X406146000Y-79233702D02*
X405056946Y-80322756D01*
X405056946Y-83847000D02*
X404956946Y-83947000D01*
X405056946Y-80322756D02*
X405056946Y-83847000D01*
X406146001Y-66405999D02*
X406146000Y-79233702D01*
X336994500Y-69723000D02*
X339661500Y-72390000D01*
X339661500Y-72390000D02*
X339661500Y-79022510D01*
X339661500Y-79438500D02*
X339661500Y-79022510D01*
X339661500Y-121412000D02*
X339661500Y-79438500D01*
X336994500Y-65024000D02*
X339680499Y-62338001D01*
X339680499Y-62338001D02*
X339680499Y-51136499D01*
X339680499Y-51136499D02*
X339680499Y-48596499D01*
X339680499Y-48596499D02*
X339534500Y-48450500D01*
X315658500Y-121920000D02*
X315658500Y-112014000D01*
X322135500Y-110363000D02*
X324929500Y-107569000D01*
X315658500Y-112014000D02*
X317309500Y-110363000D01*
X317309500Y-110363000D02*
X322135500Y-110363000D01*
X325183500Y-103124000D02*
X325183500Y-93599000D01*
X325183500Y-93599000D02*
X329501500Y-89281000D01*
X329882500Y-80200500D02*
X329819000Y-80137000D01*
X319278000Y-69596000D02*
X329819000Y-80137000D01*
X314134500Y-69596000D02*
X319278000Y-69596000D01*
X329882500Y-84201000D02*
X329882500Y-80200500D01*
X409179000Y-60833000D02*
X405691990Y-64320010D01*
X405691990Y-64320010D02*
X405691990Y-79009325D01*
X405691990Y-79009325D02*
X404304500Y-80396815D01*
X404304500Y-80396815D02*
X404304500Y-81216500D01*
X191452500Y-38284685D02*
X191452500Y-37719000D01*
X191452500Y-45875000D02*
X191452500Y-38284685D01*
X190173500Y-47154000D02*
X191452500Y-45875000D01*
X207899000Y-55245000D02*
X201929996Y-55245000D01*
X293471318Y-55969182D02*
X293560500Y-55880000D01*
X291973000Y-55880000D02*
X291846000Y-55753000D01*
X297307000Y-55880000D02*
X291973000Y-55880000D01*
X217932000Y-111887000D02*
X217805000Y-111760000D01*
X223520000Y-111887000D02*
X217932000Y-111887000D01*
X250761500Y-111760000D02*
X244919500Y-111760000D01*
X251904500Y-112903000D02*
X250761500Y-111760000D01*
X272605500Y-112649000D02*
X271716500Y-111760000D01*
X278828500Y-112649000D02*
X272605500Y-112649000D01*
X204025500Y-42124314D02*
X204025500Y-39144510D01*
X202806815Y-43342999D02*
X204025500Y-42124314D01*
X199798501Y-43342999D02*
X202806815Y-43342999D01*
X197396751Y-45744749D02*
X199798501Y-43342999D01*
X197396751Y-46332961D02*
X197396751Y-45744749D01*
X191342212Y-52387500D02*
X197396751Y-46332961D01*
X189992000Y-52387500D02*
X191342212Y-52387500D01*
X187261500Y-55118000D02*
X189992000Y-52387500D01*
X187261500Y-60706000D02*
X187261500Y-55118000D01*
X279391804Y-39083990D02*
X279423814Y-39116000D01*
X271042749Y-43512437D02*
X275471196Y-39083990D01*
X280314479Y-39116000D02*
X280352500Y-39154021D01*
X271042749Y-53061251D02*
X271042749Y-43512437D01*
X265970010Y-58133990D02*
X271042749Y-53061251D01*
X265819196Y-58133990D02*
X265970010Y-58133990D01*
X265592490Y-58360696D02*
X265819196Y-58133990D01*
X275471196Y-39083990D02*
X279391804Y-39083990D01*
X265592490Y-58511510D02*
X265592490Y-58360696D01*
X279423814Y-39116000D02*
X280314479Y-39116000D01*
X264160000Y-59944000D02*
X265592490Y-58511510D01*
X262826500Y-59944000D02*
X264160000Y-59944000D01*
X327196501Y-38700033D02*
X327596500Y-39100032D01*
X319630467Y-38700033D02*
X327196501Y-38700033D01*
X301434500Y-56896000D02*
X319630467Y-38700033D01*
X301434500Y-60452000D02*
X301434500Y-56896000D01*
X378050500Y-56007000D02*
X380619000Y-56007000D01*
X376936000Y-57121500D02*
X378050500Y-56007000D01*
X392691001Y-46332961D02*
X392691001Y-43060001D01*
X391160000Y-47863962D02*
X392691001Y-46332961D01*
X392691001Y-43060001D02*
X391795000Y-42164000D01*
X391160000Y-55626000D02*
X391160000Y-47863962D01*
X90133038Y-48768000D02*
X93326001Y-45575037D01*
X84582000Y-48768000D02*
X90133038Y-48768000D01*
X93326001Y-40785999D02*
X93726000Y-40386000D01*
X76708000Y-56642000D02*
X84582000Y-48768000D01*
X76708000Y-57150000D02*
X76708000Y-56642000D01*
X75438000Y-58420000D02*
X76708000Y-57150000D01*
X93326001Y-45575037D02*
X93326001Y-40785999D01*
X75438000Y-60071000D02*
X75438000Y-58420000D01*
X112268000Y-56007000D02*
X112268000Y-59182000D01*
X124890001Y-48972999D02*
X124218039Y-48972999D01*
X125257999Y-48605001D02*
X124890001Y-48972999D01*
X112268000Y-59182000D02*
X113665000Y-60579000D01*
X124218039Y-48972999D02*
X123267999Y-49923039D01*
X125257999Y-44579039D02*
X125257999Y-48605001D01*
X118351961Y-49923039D02*
X112268000Y-56007000D01*
X123267999Y-49923039D02*
X118351961Y-49923039D01*
X126494039Y-43342999D02*
X125257999Y-44579039D01*
X131826000Y-40824685D02*
X129307686Y-43342999D01*
X129307686Y-43342999D02*
X126494039Y-43342999D01*
X131826000Y-40259000D02*
X131826000Y-40824685D01*
X139954000Y-44069000D02*
X139954000Y-58166000D01*
X142240000Y-41783000D02*
X139954000Y-44069000D01*
X415507500Y-62099500D02*
X415507500Y-90000000D01*
X424394000Y-53213000D02*
X415507500Y-62099500D01*
X413327001Y-89640499D02*
X412967500Y-90000000D01*
X424394000Y-50673000D02*
X413327001Y-61739999D01*
X413327001Y-61739999D02*
X413327001Y-89640499D01*
X28575000Y-88440000D02*
X30135000Y-90000000D01*
X28575000Y-53472989D02*
X28575000Y-88440000D01*
X28847989Y-53200000D02*
X28575000Y-53472989D01*
X27595000Y-90000000D02*
X27595000Y-51605000D01*
X27595000Y-51605000D02*
X28500000Y-50700000D01*
X320611500Y-56007000D02*
X326453500Y-56007000D01*
X200440999Y-69307001D02*
X200440999Y-55210007D01*
X194945000Y-74803000D02*
X200440999Y-69307001D01*
X422600000Y-120000002D02*
X422300000Y-120300002D01*
X422600000Y-67707000D02*
X422600000Y-120000002D01*
X424394000Y-65913000D02*
X422600000Y-67707000D01*
X196659500Y-41402000D02*
X199707500Y-38354000D01*
X199707500Y-38354000D02*
X222411990Y-38354000D01*
X222411990Y-38354000D02*
X222948500Y-38890510D01*
X58928000Y-65659000D02*
X58928000Y-58166000D01*
X55484501Y-69102499D02*
X58928000Y-65659000D01*
X55484501Y-70726961D02*
X55484501Y-69102499D01*
X53721000Y-71677001D02*
X54534461Y-71677001D01*
X53721000Y-78740000D02*
X53721000Y-71677001D01*
X54534461Y-71677001D02*
X55484501Y-70726961D01*
X54229000Y-79248000D02*
X53721000Y-78740000D01*
X312991500Y-93223934D02*
X312991500Y-98044000D01*
X318840501Y-83460499D02*
X318840501Y-87374933D01*
X318840501Y-87374933D02*
X312991500Y-93223934D01*
X321242990Y-81058010D02*
X318840501Y-83460499D01*
X324476804Y-81058010D02*
X321242990Y-81058010D01*
X325056500Y-80478314D02*
X324476804Y-81058010D01*
X325056500Y-77244500D02*
X325056500Y-80478314D01*
X165862000Y-87984462D02*
X165862000Y-98615502D01*
X167329501Y-86516961D02*
X165862000Y-87984462D01*
X167329501Y-80842501D02*
X167329501Y-86516961D01*
X163576000Y-77089000D02*
X167329501Y-80842501D01*
X411719000Y-45593000D02*
X411719000Y-77180996D01*
X411719000Y-77180996D02*
X411600000Y-77299996D01*
D16*
X148669501Y-72945499D02*
X148669501Y-80946499D01*
X149352000Y-72263000D02*
X148669501Y-72945499D01*
X69797501Y-91133501D02*
X69723000Y-91059000D01*
X69797501Y-100001499D02*
X69797501Y-91133501D01*
X162284490Y-110257510D02*
X162306000Y-110236000D01*
X162284490Y-119221510D02*
X162284490Y-110257510D01*
X106426000Y-53848000D02*
X105918000Y-53340000D01*
X106426000Y-61849000D02*
X106426000Y-53848000D01*
X62356988Y-53339988D02*
X59182000Y-53339988D01*
X63754000Y-60833000D02*
X63754000Y-54737000D01*
X62357000Y-62230000D02*
X63754000Y-60833000D01*
X63754000Y-54737000D02*
X62356988Y-53339988D01*
X66854490Y-111685490D02*
X66802000Y-111633000D01*
X66854490Y-118438510D02*
X66854490Y-111685490D01*
X115824004Y-112395004D02*
X115062000Y-111633000D01*
X115824004Y-119126000D02*
X115824004Y-112395004D01*
X65532000Y-73104478D02*
X65452522Y-73025000D01*
X65532000Y-81026000D02*
X65532000Y-73104478D01*
X48133004Y-97536000D02*
X48533003Y-97136001D01*
X48533003Y-81680003D02*
X46228000Y-79375000D01*
X48133004Y-118872004D02*
X48133004Y-97536000D01*
X48641000Y-119380000D02*
X48133004Y-118872004D01*
X48533003Y-97136001D02*
X48533003Y-91420997D01*
X130079490Y-52990490D02*
X130079490Y-61182510D01*
X130079490Y-61182510D02*
X130048000Y-61214000D01*
X143637000Y-111090000D02*
X143764000Y-110963000D01*
X143637000Y-118618000D02*
X143637000Y-111090000D01*
X144272000Y-119253000D02*
X143637000Y-118618000D01*
X42037000Y-42672000D02*
X42545000Y-43180000D01*
X42545000Y-43180000D02*
X42545000Y-49276000D01*
X46228000Y-79375000D02*
X46627999Y-78975001D01*
X46627999Y-78975001D02*
X46627999Y-62782048D01*
X46627999Y-62782048D02*
X43953778Y-60107827D01*
X42545000Y-49276000D02*
X43953778Y-50684778D01*
X43953778Y-50684778D02*
X43953778Y-60107827D01*
X154590490Y-100171510D02*
X155355990Y-99406010D01*
X155355990Y-99406010D02*
X155355990Y-91948000D01*
X48533003Y-87610997D02*
X48533003Y-81680003D01*
X48533003Y-91420997D02*
X48533003Y-87610997D01*
D17*
X26299000Y-64799000D02*
X26300000Y-64800000D01*
X26299000Y-45593000D02*
X26299000Y-64799000D01*
D16*
X28499998Y-49400000D02*
X28499998Y-40700002D01*
X28499998Y-40700002D02*
X28500000Y-40700000D01*
D17*
X353994499Y-60179999D02*
X353994499Y-49923039D01*
X354558501Y-49359037D02*
X354558501Y-45554999D01*
X354558501Y-45554999D02*
X357155490Y-42958010D01*
X361505500Y-41870314D02*
X361505500Y-39116000D01*
X360417804Y-42958010D02*
X361505500Y-41870314D01*
X357155490Y-42958010D02*
X360417804Y-42958010D01*
X353994499Y-49923039D02*
X354558501Y-49359037D01*
X354012500Y-60198000D02*
X353994499Y-60179999D01*
X263461500Y-106737212D02*
X263461500Y-115189000D01*
X260735249Y-104010961D02*
X263461500Y-106737212D01*
X260735249Y-100905749D02*
X260735249Y-104010961D01*
X258635500Y-98806000D02*
X260735249Y-100905749D01*
X151384000Y-110617000D02*
X151384000Y-106324462D01*
X148952001Y-95742009D02*
X151130000Y-93564010D01*
X151384000Y-106324462D02*
X148952001Y-103892463D01*
X148952001Y-103892463D02*
X148952001Y-95742009D01*
X151765000Y-55054500D02*
X151765000Y-60579000D01*
X160042039Y-46997001D02*
X159932269Y-46887231D01*
X161267961Y-46997001D02*
X160042039Y-46997001D01*
X162560000Y-45377038D02*
X161932001Y-45377038D01*
X164594039Y-43342999D02*
X162560000Y-45377038D01*
X161932001Y-45377038D02*
X161932001Y-46332961D01*
X169255001Y-43342999D02*
X164594039Y-43342999D01*
X169890249Y-42707751D02*
X169255001Y-43342999D01*
X159932269Y-46887231D02*
X151765000Y-55054500D01*
X161932001Y-46332961D02*
X161267961Y-46997001D01*
X169890249Y-40478685D02*
X169890249Y-42707751D01*
X218122500Y-77216000D02*
X218122500Y-76650315D01*
X218122500Y-76650315D02*
X206921751Y-65449566D01*
X206921751Y-65449566D02*
X206921751Y-61951251D01*
X206921751Y-61951251D02*
X206057500Y-61087000D01*
X245706900Y-62001400D02*
X245706900Y-66573400D01*
X245706900Y-66573400D02*
X256222500Y-77089000D01*
X79647999Y-68778039D02*
X82612782Y-65813256D01*
X79248000Y-79375000D02*
X79647999Y-78975001D01*
X79647999Y-78975001D02*
X79647999Y-68778039D01*
X82612782Y-65813256D02*
X82612782Y-58648521D01*
X199199500Y-77216000D02*
X199199500Y-84703788D01*
X199199500Y-84703788D02*
X198420249Y-85483039D01*
X198420249Y-85483039D02*
X198420249Y-96883749D01*
X198420249Y-96883749D02*
X200215500Y-98679000D01*
X281449251Y-115362249D02*
X279717500Y-117094000D01*
X281449251Y-107073039D02*
X281449251Y-115362249D01*
X284600933Y-103921357D02*
X281449251Y-107073039D01*
X284600933Y-96208567D02*
X284600933Y-103921357D01*
X374840500Y-105246038D02*
X374840500Y-100330000D01*
X380174500Y-110580038D02*
X374840500Y-105246038D01*
X380174500Y-115189000D02*
X380174500Y-110580038D01*
X366204501Y-121735314D02*
X366204501Y-79276510D01*
X366204500Y-122301000D02*
X366204501Y-121735314D01*
X365188500Y-69250000D02*
X366204501Y-70266001D01*
X366204501Y-78930499D02*
X366204501Y-79276510D01*
X366204501Y-70266001D02*
X366204501Y-78930499D01*
X365950500Y-50927000D02*
X365950500Y-52578000D01*
X365188500Y-50165000D02*
X365950500Y-50927000D01*
X365823500Y-52705000D02*
X365950500Y-52578000D01*
X365823500Y-65024000D02*
X365823500Y-52705000D01*
X385000500Y-51308000D02*
X385000500Y-64897000D01*
X384238500Y-50546000D02*
X385000500Y-51308000D01*
X384873500Y-121920000D02*
X385254500Y-122301000D01*
X384873500Y-108077000D02*
X384873500Y-121920000D01*
X385000500Y-69631000D02*
X384492500Y-69123000D01*
X385000500Y-71326468D02*
X385000500Y-69631000D01*
X382651000Y-73675968D02*
X385000500Y-71326468D01*
X382651000Y-100774500D02*
X382651000Y-73675968D01*
X385000500Y-103124000D02*
X382651000Y-100774500D01*
X403387000Y-50320500D02*
X403387000Y-65024000D01*
X403542500Y-50165000D02*
X403387000Y-50320500D01*
X399722989Y-118319499D02*
X403450490Y-122047000D01*
X399722989Y-81788476D02*
X399722989Y-118319499D01*
X398639485Y-80704972D02*
X399722989Y-81788476D01*
X398639485Y-73550051D02*
X398639485Y-80704972D01*
X402720536Y-69469000D02*
X398639485Y-73550051D01*
X403542500Y-69469000D02*
X402720536Y-69469000D01*
X142090319Y-73577357D02*
X141971019Y-73577357D01*
X145380001Y-76867039D02*
X142090319Y-73577357D01*
X145380001Y-83880461D02*
X145380001Y-76867039D01*
X143713231Y-85547231D02*
X145380001Y-83880461D01*
X143713231Y-87044693D02*
X143713231Y-85547231D01*
X161036000Y-93345000D02*
X161036000Y-90741500D01*
X161798000Y-94107000D02*
X161036000Y-93345000D01*
X147460269Y-90791731D02*
X143713231Y-87044693D01*
X322084532Y-113995032D02*
X327774468Y-113995032D01*
X319722500Y-111633000D02*
X322084532Y-113995032D01*
X238690011Y-37598489D02*
X259419957Y-37598489D01*
X259419957Y-37598489D02*
X260921500Y-39100032D01*
X234759500Y-41529000D02*
X238690011Y-37598489D01*
X272796000Y-40640000D02*
X275008980Y-38427020D01*
X298523020Y-38427020D02*
X299212000Y-39116000D01*
X275008980Y-38427020D02*
X298523020Y-38427020D01*
X332549500Y-58039000D02*
X322647749Y-48137249D01*
X322647749Y-48137249D02*
X322647749Y-44428230D01*
X322647749Y-44428230D02*
X320412029Y-42192510D01*
X194373500Y-65589212D02*
X192087500Y-67875212D01*
X192087500Y-67875212D02*
X192087500Y-79375000D01*
X194373500Y-58039000D02*
X194373500Y-65589212D01*
X229933500Y-68257288D02*
X229933500Y-79375000D01*
X232981500Y-65209288D02*
X229933500Y-68257288D01*
X232981500Y-58702500D02*
X232981500Y-65209288D01*
X232473500Y-58194500D02*
X232981500Y-58702500D01*
X267906500Y-68256212D02*
X267906500Y-79121000D01*
X270700500Y-65462212D02*
X267906500Y-68256212D01*
X270700500Y-57912000D02*
X270700500Y-65462212D01*
X66445261Y-83530299D02*
X66445261Y-96139000D01*
X64090522Y-53699583D02*
X64725522Y-54334583D01*
X64725522Y-54334583D02*
X64725522Y-81810560D01*
X64090522Y-43605478D02*
X64090522Y-53699583D01*
X66040000Y-41656000D02*
X64090522Y-43605478D01*
X64725522Y-81810560D02*
X66445261Y-83530299D01*
X101854000Y-44069000D02*
X101854000Y-58039000D01*
X104140000Y-41783000D02*
X101854000Y-44069000D01*
X138557000Y-97028000D02*
X138557000Y-99314000D01*
X137922000Y-96393000D02*
X138557000Y-97028000D01*
X134747000Y-96393000D02*
X137922000Y-96393000D01*
X287083500Y-118542000D02*
X286194500Y-119431000D01*
X287083500Y-115443000D02*
X287083500Y-118542000D01*
X72009000Y-111690685D02*
X72009000Y-109728000D01*
X80137000Y-115062000D02*
X75380315Y-115062000D01*
X75380315Y-115062000D02*
X72009000Y-111690685D01*
X63119000Y-107638315D02*
X63119000Y-109474000D01*
X58674000Y-98679000D02*
X59538251Y-99543251D01*
X59538251Y-99543251D02*
X59538251Y-104057566D01*
X59538251Y-104057566D02*
X63119000Y-107638315D01*
X58674000Y-117475000D02*
X60325000Y-117475000D01*
X56515000Y-115316000D02*
X58674000Y-117475000D01*
X94488000Y-115696996D02*
X96520000Y-117728996D01*
X94488000Y-106325538D02*
X94488000Y-115696996D01*
X97027282Y-103786256D02*
X94488000Y-106325538D01*
X97027282Y-96167500D02*
X97027282Y-103786256D01*
X106144064Y-117221000D02*
X107696000Y-117221000D01*
X103999032Y-115075968D02*
X106144064Y-117221000D01*
X53812001Y-46860961D02*
X50818999Y-49853963D01*
X55880000Y-40259000D02*
X53812001Y-42326999D01*
X50818999Y-55734001D02*
X48895000Y-57658000D01*
X50818999Y-49853963D02*
X50818999Y-55734001D01*
X53812001Y-42326999D02*
X53812001Y-46860961D01*
X111760000Y-105283000D02*
X109728000Y-103251000D01*
X112014000Y-105283000D02*
X111760000Y-105283000D01*
X109728000Y-103251000D02*
X109728000Y-99695000D01*
X114391001Y-105247001D02*
X112049999Y-105247001D01*
X123517010Y-114373010D02*
X114391001Y-105247001D01*
X112049999Y-105247001D02*
X112014000Y-105283000D01*
X126819010Y-114373010D02*
X123517010Y-114373010D01*
X109728000Y-99695000D02*
X108839000Y-98806000D01*
X127762000Y-115316000D02*
X126819010Y-114373010D01*
X154051000Y-115824000D02*
X154051000Y-117094000D01*
X165727999Y-104147001D02*
X154051000Y-115824000D01*
X172986532Y-99388782D02*
X172267304Y-100108010D01*
X172986532Y-96167500D02*
X172986532Y-99388782D01*
X172267304Y-100108010D02*
X169046022Y-100108010D01*
X166694501Y-103482961D02*
X166030461Y-104147001D01*
X169046022Y-100108010D02*
X166694501Y-102459531D01*
X166030461Y-104147001D02*
X165727999Y-104147001D01*
X166694501Y-102459531D02*
X166694501Y-103482961D01*
D16*
X401256500Y-106630823D02*
X401418490Y-106468833D01*
X401418490Y-106468833D02*
X401418490Y-92329000D01*
X401418490Y-92329000D02*
X401291490Y-92202000D01*
X401170987Y-109669431D02*
X401383494Y-109881938D01*
X401383494Y-109881938D02*
X401383494Y-114173000D01*
X401170987Y-106716336D02*
X401170987Y-109669431D01*
X401256500Y-106630823D02*
X401170987Y-106716336D01*
X401291499Y-82294441D02*
X401691489Y-82694431D01*
X401691489Y-82694431D02*
X401691489Y-91802001D01*
X404974468Y-59401032D02*
X404974468Y-70095630D01*
X401291499Y-73778599D02*
X401291499Y-82294441D01*
X401691489Y-91802001D02*
X401291490Y-92202000D01*
X404974468Y-70095630D02*
X401291499Y-73778599D01*
X405955500Y-58420000D02*
X404974468Y-59401032D01*
X413627500Y-97900000D02*
X419927500Y-97900000D01*
X406355499Y-43446510D02*
X405834989Y-42926000D01*
X406355499Y-58020001D02*
X406355499Y-43446510D01*
X405955500Y-58420000D02*
X406355499Y-58020001D01*
X421576500Y-90989000D02*
X420587500Y-90000000D01*
X421576500Y-96251000D02*
X421576500Y-90989000D01*
X419927500Y-97900000D02*
X421576500Y-96251000D01*
X383857500Y-110871000D02*
X383603500Y-110617000D01*
X383857500Y-118110000D02*
X383857500Y-110871000D01*
X365315500Y-119253000D02*
X365061500Y-119507000D01*
X365315500Y-109855000D02*
X365315500Y-119253000D01*
X338645500Y-118110000D02*
X338391500Y-118364000D01*
X338645500Y-108712000D02*
X338645500Y-118110000D01*
X340423500Y-61976000D02*
X340423500Y-53340006D01*
X340423500Y-53340006D02*
X340423497Y-53340003D01*
X315150500Y-110109000D02*
X314896500Y-110363000D01*
X314896500Y-110363000D02*
X314896500Y-118872000D01*
X291401500Y-110616996D02*
X291655500Y-110362996D01*
X291401500Y-119761000D02*
X291401500Y-110616996D01*
X267398508Y-118872000D02*
X267398508Y-109855008D01*
X267398508Y-109855008D02*
X267398500Y-109855000D01*
X230695500Y-111760000D02*
X230530676Y-111595176D01*
X230695500Y-118618000D02*
X230695500Y-111760000D01*
X218757500Y-60960000D02*
X218757500Y-55054494D01*
X218757500Y-55054494D02*
X216662006Y-52959000D01*
X276860000Y-55880000D02*
X276860000Y-60960000D01*
X278892000Y-53848000D02*
X276860000Y-55880000D01*
X240693501Y-54003501D02*
X239903000Y-53213000D01*
X240693501Y-61312499D02*
X240693501Y-54003501D01*
X240157000Y-61849000D02*
X240693501Y-61312499D01*
X400592990Y-86487000D02*
X400592990Y-81216500D01*
X400685000Y-72898000D02*
X399904001Y-73678999D01*
X399904001Y-73678999D02*
X399904001Y-80527511D01*
X400592990Y-81216500D02*
X400494500Y-81118010D01*
X399904001Y-80527511D02*
X400494500Y-81118010D01*
X404393458Y-69755227D02*
X401250685Y-72898000D01*
X404393458Y-60921958D02*
X404393458Y-69755227D01*
X401250685Y-72898000D02*
X400685000Y-72898000D01*
X404177500Y-60706000D02*
X404393458Y-60921958D01*
X400465998Y-87179677D02*
X400465998Y-98142498D01*
X400592990Y-87052685D02*
X400465998Y-87179677D01*
X400465998Y-109797323D02*
X400465998Y-98142498D01*
X400592990Y-86487000D02*
X400592990Y-87052685D01*
X400592990Y-109924315D02*
X400465998Y-109797323D01*
X400592990Y-110490000D02*
X400592990Y-109924315D01*
X400338999Y-110743991D02*
X400592990Y-110490000D01*
X402653500Y-119761000D02*
X400338999Y-117446499D01*
X400338999Y-117446499D02*
X400338999Y-110743991D01*
X405003000Y-56197500D02*
X405003000Y-44259500D01*
X404177500Y-60706000D02*
X404177500Y-57023000D01*
X404177500Y-57023000D02*
X405003000Y-56197500D01*
X383857500Y-55181500D02*
X383413000Y-54737000D01*
X383857500Y-60671000D02*
X383857500Y-55181500D01*
X384273500Y-61087000D02*
X383857500Y-60671000D01*
X203009500Y-74104500D02*
X204216000Y-75311000D01*
X204216000Y-75311000D02*
X204216000Y-80518000D01*
X214439500Y-100076000D02*
X212915500Y-98552000D01*
X212915500Y-98552000D02*
X212915500Y-91376500D01*
X405003000Y-44259500D02*
X405003000Y-40403000D01*
D17*
X405003000Y-40403000D02*
X405000000Y-40400000D01*
X89789000Y-56134000D02*
X84836000Y-56134000D01*
X56896000Y-54737000D02*
X56769000Y-54610000D01*
X62484000Y-54737000D02*
X56896000Y-54737000D01*
X113538000Y-55880000D02*
X113411000Y-56007000D01*
X118491000Y-55880000D02*
X113538000Y-55880000D01*
X90932000Y-55753000D02*
X89916000Y-54737000D01*
X96393000Y-55753000D02*
X90932000Y-55753000D01*
X354012500Y-111633000D02*
X344106500Y-111633000D01*
X355409500Y-113030000D02*
X354012500Y-111633000D01*
X367982500Y-112522000D02*
X367220500Y-111760000D01*
X378142500Y-112522000D02*
X367982500Y-112522000D01*
X393319000Y-112649000D02*
X393319000Y-106172000D01*
X388556500Y-94107000D02*
X393128500Y-89535000D01*
X388556500Y-104394002D02*
X388556500Y-94107000D01*
X346900500Y-55880000D02*
X353123500Y-55880000D01*
X47879000Y-49112038D02*
X47879000Y-42926000D01*
X47067999Y-56906961D02*
X47067999Y-49923039D01*
X48546039Y-58385001D02*
X47067999Y-56906961D01*
X47067999Y-49923039D02*
X47879000Y-49112038D01*
X49243961Y-58385001D02*
X48546039Y-58385001D01*
X51621962Y-56007000D02*
X49243961Y-58385001D01*
X47879000Y-42926000D02*
X46736000Y-41783000D01*
X56769000Y-56007000D02*
X51621962Y-56007000D01*
X297497500Y-113284000D02*
X296227500Y-112014000D01*
X303593500Y-113284000D02*
X297497500Y-113284000D01*
X395732000Y-76073000D02*
X395732000Y-85836030D01*
X59055000Y-91313000D02*
X57785000Y-92583000D01*
X59055000Y-87814212D02*
X59055000Y-91313000D01*
X56201749Y-84960961D02*
X59055000Y-87814212D01*
X56201749Y-77217566D02*
X56201749Y-84960961D01*
X58489315Y-74930000D02*
X56201749Y-77217566D01*
X59055000Y-74930000D02*
X58489315Y-74930000D01*
X69342000Y-113538000D02*
X72390000Y-113538000D01*
X68580000Y-114300000D02*
X69342000Y-113538000D01*
X210502500Y-46863000D02*
X215455500Y-41910000D01*
X210502500Y-55118000D02*
X210502500Y-46863000D01*
X213550500Y-58166000D02*
X210502500Y-55118000D01*
X248221500Y-47244000D02*
X253682500Y-41783000D01*
X248221500Y-54991000D02*
X248221500Y-47244000D01*
X251396500Y-58166000D02*
X248221500Y-54991000D01*
X288948812Y-58038998D02*
X289623500Y-58038998D01*
X288916804Y-58006990D02*
X288948812Y-58038998D01*
X288638991Y-58006990D02*
X288916804Y-58006990D01*
X286829500Y-56197499D02*
X288638991Y-58006990D01*
X286829500Y-47244000D02*
X286829500Y-56197499D01*
X292036500Y-42037000D02*
X286829500Y-47244000D01*
X354139500Y-41148006D02*
X354012506Y-41275000D01*
X356898507Y-38388999D02*
X379360294Y-38388999D01*
X379360294Y-38388999D02*
X380055327Y-39084032D01*
X354012506Y-41275000D02*
X356898507Y-38388999D01*
X381508000Y-57267951D02*
X380366624Y-58409327D01*
X381508000Y-54292500D02*
X381508000Y-57267951D01*
X373716499Y-46500999D02*
X381508000Y-54292500D01*
X373716499Y-42436999D02*
X373716499Y-46500999D01*
X373062500Y-41783000D02*
X373716499Y-42436999D01*
X395781001Y-55132499D02*
X395781001Y-49950961D01*
X399351500Y-46380462D02*
X399351500Y-39081010D01*
X395781001Y-49950961D02*
X399351500Y-46380462D01*
X392112500Y-60706000D02*
X392112500Y-58801000D01*
X392112500Y-58801000D02*
X395781001Y-55132499D01*
X83439000Y-40259000D02*
X84963000Y-41783000D01*
X74676000Y-40259000D02*
X83439000Y-40259000D01*
X123063000Y-41402000D02*
X123063000Y-41529000D01*
X121920000Y-40259000D02*
X123063000Y-41402000D01*
X112649000Y-40259000D02*
X121920000Y-40259000D01*
X161290000Y-41529000D02*
X161290000Y-41783000D01*
X160020000Y-40259000D02*
X161290000Y-41529000D01*
X150749000Y-40259000D02*
X160020000Y-40259000D01*
X294195500Y-76956788D02*
X294195500Y-77088999D01*
X284547749Y-67309037D02*
X294195500Y-76956788D01*
X284547749Y-62869249D02*
X284547749Y-67309037D01*
X282384500Y-60706000D02*
X284547749Y-62869249D01*
X317944500Y-79103511D02*
X317944500Y-79657521D01*
X312483500Y-73642511D02*
X317944500Y-79103511D01*
X312483500Y-61341000D02*
X312483500Y-73642511D01*
X308800500Y-57658000D02*
X312483500Y-61341000D01*
X332359000Y-112585500D02*
X334962500Y-115189000D01*
X332359000Y-93287434D02*
X332359000Y-112585500D01*
X332260599Y-93189033D02*
X332359000Y-93287434D01*
X332359000Y-90862566D02*
X332260599Y-90960967D01*
X332359000Y-77665712D02*
X332359000Y-90862566D01*
X325420249Y-70726961D02*
X332359000Y-77665712D01*
X325420249Y-68973039D02*
X325420249Y-70726961D01*
X332260599Y-90960967D02*
X332260599Y-93189033D01*
X325984251Y-61633751D02*
X325984251Y-68409037D01*
X325984251Y-68409037D02*
X325420249Y-68973039D01*
X325183500Y-60833000D02*
X325984251Y-61633751D01*
X356933500Y-113792000D02*
X353631500Y-117094000D01*
X357648501Y-70726961D02*
X356933500Y-71441962D01*
X356933500Y-71441962D02*
X356933500Y-113792000D01*
X357648501Y-68973039D02*
X357648501Y-70726961D01*
X355219000Y-63944500D02*
X355219000Y-66043460D01*
X357155490Y-62008010D02*
X355219000Y-63944500D01*
X356933500Y-68258038D02*
X357648501Y-68973039D01*
X360417804Y-62008010D02*
X357155490Y-62008010D01*
X356933500Y-67757960D02*
X356933500Y-68258038D01*
X355219000Y-66043460D02*
X356933500Y-67757960D01*
X361124500Y-61301314D02*
X360417804Y-62008010D01*
X361124500Y-58039000D02*
X361124500Y-61301314D01*
X374840500Y-66929000D02*
X374840500Y-61976000D01*
X376999500Y-69088000D02*
X374840500Y-66929000D01*
X376999500Y-92583000D02*
X376999500Y-69088000D01*
X380301500Y-95885000D02*
X376999500Y-92583000D01*
X399224500Y-58166000D02*
X399224500Y-65685538D01*
X398088443Y-111626057D02*
X391985500Y-117729000D01*
X399224500Y-65685538D02*
X398088443Y-66821595D01*
X398088443Y-66821595D02*
X398088443Y-111626057D01*
X106553000Y-77089000D02*
X95257001Y-65793001D01*
X95257001Y-61602001D02*
X94488000Y-60833000D01*
X95257001Y-65793001D02*
X95257001Y-61602001D01*
X120650000Y-65747962D02*
X118364000Y-68033962D01*
X120650000Y-58194500D02*
X120650000Y-65747962D01*
X118364000Y-68033962D02*
X118364000Y-79248000D01*
X144087315Y-77216000D02*
X144653000Y-77216000D01*
X141385999Y-74514684D02*
X144087315Y-77216000D01*
X133357001Y-61602001D02*
X133357001Y-65979963D01*
X132588000Y-60833000D02*
X133357001Y-61602001D01*
X133357001Y-65979963D02*
X141385999Y-74008961D01*
X141385999Y-74008961D02*
X141385999Y-74514684D01*
X156337000Y-68160962D02*
X156337000Y-79502000D01*
X158750000Y-65747962D02*
X156337000Y-68160962D01*
X158750000Y-58194500D02*
X158750000Y-65747962D01*
X220259287Y-92109999D02*
X223364499Y-92109999D01*
X210883500Y-79756000D02*
X213110249Y-81982749D01*
X213110249Y-81982749D02*
X213110249Y-84960961D01*
X223364499Y-92109999D02*
X227266500Y-96012000D01*
X213110249Y-84960961D02*
X220259287Y-92109999D01*
X236518501Y-95866001D02*
X238950500Y-98298000D01*
X236518501Y-85484787D02*
X236518501Y-95866001D01*
X237045500Y-84957788D02*
X236518501Y-85484787D01*
X237045500Y-76835000D02*
X237045500Y-84957788D01*
X263552310Y-93980000D02*
X265711309Y-96138999D01*
X260229288Y-93980000D02*
X263552310Y-93980000D01*
X251210249Y-82490749D02*
X251210249Y-84960961D01*
X251210249Y-84960961D02*
X260229288Y-93980000D01*
X248729500Y-80010000D02*
X251210249Y-82490749D01*
X274620249Y-96248749D02*
X277177500Y-98806000D01*
X276029288Y-84074000D02*
X274620249Y-85483039D01*
X276034500Y-81915000D02*
X276034500Y-84074000D01*
X276034500Y-84074000D02*
X276029288Y-84074000D01*
X275653500Y-81534000D02*
X276034500Y-81915000D01*
X275653500Y-77216000D02*
X275653500Y-81534000D01*
X274620249Y-85483039D02*
X274620249Y-96248749D01*
X275272500Y-76835000D02*
X275653500Y-77216000D01*
X289310249Y-84960961D02*
X311086500Y-106737212D01*
X311086500Y-106737212D02*
X311086500Y-114300000D01*
X286829500Y-79756000D02*
X289310249Y-82236749D01*
X289310249Y-82236749D02*
X289310249Y-84960961D01*
X49276000Y-117729000D02*
X48876001Y-117329001D01*
X48876001Y-117329001D02*
X48876001Y-105809999D01*
X48876001Y-105809999D02*
X60561749Y-94124251D01*
X60561749Y-85483039D02*
X61849000Y-84195788D01*
X61849000Y-84195788D02*
X61849000Y-77089000D01*
X60561749Y-94124251D02*
X60561749Y-85483039D01*
X86755499Y-95645499D02*
X89789000Y-98679000D01*
X87503000Y-84735538D02*
X86755499Y-85483039D01*
X87503000Y-77216000D02*
X87503000Y-84735538D01*
X86755499Y-85483039D02*
X86755499Y-95645499D01*
X115678001Y-95866001D02*
X116078000Y-96266000D01*
X104485001Y-86197001D02*
X114154001Y-95866001D01*
X114154001Y-95866001D02*
X115678001Y-95866001D01*
X102681539Y-86197001D02*
X104485001Y-86197001D01*
X101445499Y-84960961D02*
X102681539Y-86197001D01*
X101445499Y-82014499D02*
X101445499Y-84960961D01*
X99187000Y-79756000D02*
X101445499Y-82014499D01*
X125476000Y-77117500D02*
X125476000Y-84862538D01*
X125476000Y-84862538D02*
X124855499Y-85483039D01*
X124855499Y-85483039D02*
X124855499Y-95518493D01*
X124855499Y-95518493D02*
X127889000Y-98551994D01*
X154048795Y-95060831D02*
X154048795Y-96274322D01*
X138115691Y-83531153D02*
X147421538Y-92837000D01*
X138115691Y-79684985D02*
X138115691Y-83531153D01*
X137715692Y-79284986D02*
X138115691Y-79684985D01*
X147421538Y-92837000D02*
X151824964Y-92837000D01*
X151824964Y-92837000D02*
X154048795Y-95060831D01*
X217868500Y-113220500D02*
X217868500Y-117729000D01*
X212788500Y-108140500D02*
X217868500Y-113220500D01*
X212788500Y-100523775D02*
X212788500Y-108140500D01*
X208432225Y-96167500D02*
X212788500Y-100523775D01*
X244729000Y-94551500D02*
X244729000Y-94361000D01*
X246507000Y-96329500D02*
X244729000Y-94551500D01*
X219837000Y-98869500D02*
X219837000Y-95186500D01*
X219837000Y-95186500D02*
X220345000Y-94678500D01*
X320484500Y-96294500D02*
X320484500Y-99822000D01*
X315503999Y-104010961D02*
X311813501Y-107701459D01*
X316740039Y-100492999D02*
X315503999Y-101729039D01*
X320484500Y-99822000D02*
X319813501Y-100492999D01*
X315503999Y-101729039D02*
X315503999Y-104010961D01*
X311813501Y-107701459D02*
X311813501Y-114648961D01*
X305117500Y-115189000D02*
X303593500Y-116713000D01*
X311273462Y-115189000D02*
X305117500Y-115189000D01*
X319813501Y-100492999D02*
X316740039Y-100492999D01*
X311813501Y-114648961D02*
X311273462Y-115189000D01*
X360417804Y-119158010D02*
X357155490Y-119158010D01*
X361124500Y-118451314D02*
X360417804Y-119158010D01*
X357155490Y-119158010D02*
X355790500Y-120523000D01*
X361124500Y-115316000D02*
X361124500Y-118451314D01*
X398970500Y-119380000D02*
X398843500Y-119507000D01*
X398970500Y-115189000D02*
X398970500Y-119380000D01*
X239903000Y-56007000D02*
X233426000Y-56007000D01*
M02*
