G04 #@! TF.GenerationSoftware,KiCad,Pcbnew,(5.1.9)-1*
G04 #@! TF.CreationDate,2021-03-29T22:20:50-07:00*
G04 #@! TF.ProjectId,bakekujira,62616b65-6b75-46a6-9972-612e6b696361,0.3*
G04 #@! TF.SameCoordinates,Original*
G04 #@! TF.FileFunction,Paste,Bot*
G04 #@! TF.FilePolarity,Positive*
%FSLAX46Y46*%
G04 Gerber Fmt 4.6, Leading zero omitted, Abs format (unit mm)*
G04 Created by KiCad (PCBNEW (5.1.9)-1) date 2021-03-29 22:20:50*
%MOMM*%
%LPD*%
G01*
G04 APERTURE LIST*
%ADD10R,1.700000X1.000000*%
%ADD11R,2.550000X2.500000*%
%ADD12R,1.000000X1.400000*%
G04 APERTURE END LIST*
G36*
G01*
X189646000Y-50742001D02*
X189646000Y-49841999D01*
G75*
G02*
X189895999Y-49592000I249999J0D01*
G01*
X190596001Y-49592000D01*
G75*
G02*
X190846000Y-49841999I0J-249999D01*
G01*
X190846000Y-50742001D01*
G75*
G02*
X190596001Y-50992000I-249999J0D01*
G01*
X189895999Y-50992000D01*
G75*
G02*
X189646000Y-50742001I0J249999D01*
G01*
G37*
G36*
G01*
X187646000Y-50742001D02*
X187646000Y-49841999D01*
G75*
G02*
X187895999Y-49592000I249999J0D01*
G01*
X188596001Y-49592000D01*
G75*
G02*
X188846000Y-49841999I0J-249999D01*
G01*
X188846000Y-50742001D01*
G75*
G02*
X188596001Y-50992000I-249999J0D01*
G01*
X187895999Y-50992000D01*
G75*
G02*
X187646000Y-50742001I0J249999D01*
G01*
G37*
G36*
G01*
X180502000Y-50869001D02*
X180502000Y-49968999D01*
G75*
G02*
X180751999Y-49719000I249999J0D01*
G01*
X181452001Y-49719000D01*
G75*
G02*
X181702000Y-49968999I0J-249999D01*
G01*
X181702000Y-50869001D01*
G75*
G02*
X181452001Y-51119000I-249999J0D01*
G01*
X180751999Y-51119000D01*
G75*
G02*
X180502000Y-50869001I0J249999D01*
G01*
G37*
G36*
G01*
X178502000Y-50869001D02*
X178502000Y-49968999D01*
G75*
G02*
X178751999Y-49719000I249999J0D01*
G01*
X179452001Y-49719000D01*
G75*
G02*
X179702000Y-49968999I0J-249999D01*
G01*
X179702000Y-50869001D01*
G75*
G02*
X179452001Y-51119000I-249999J0D01*
G01*
X178751999Y-51119000D01*
G75*
G02*
X178502000Y-50869001I0J249999D01*
G01*
G37*
D10*
X149562000Y-54291000D03*
X149562000Y-55691000D03*
X144062000Y-54291000D03*
X144062000Y-55691000D03*
X120733000Y-54545000D03*
X120733000Y-55945000D03*
X115233000Y-54545000D03*
X115233000Y-55945000D03*
X235794000Y-54563000D03*
X235794000Y-55963000D03*
X230294000Y-54563000D03*
X230294000Y-55963000D03*
X68453000Y-111757000D03*
X68453000Y-113157000D03*
X62953000Y-111757000D03*
X62953000Y-113157000D03*
X58928000Y-54610000D03*
X58928000Y-56010000D03*
X53428000Y-54610000D03*
X53428000Y-56010000D03*
X395623500Y-73613000D03*
X395623500Y-75013000D03*
X390123500Y-73613000D03*
X390123500Y-75013000D03*
X374541500Y-111713000D03*
X374541500Y-113113000D03*
X369041500Y-111713000D03*
X369041500Y-113113000D03*
X351599500Y-111757000D03*
X351599500Y-113157000D03*
X346099500Y-111757000D03*
X346099500Y-113157000D03*
X395623500Y-104772000D03*
X395623500Y-106172000D03*
X390123500Y-104772000D03*
X390123500Y-106172000D03*
X395623500Y-87884000D03*
X395623500Y-89284000D03*
X390123500Y-87884000D03*
X390123500Y-89284000D03*
X323360500Y-111695000D03*
X323360500Y-113095000D03*
X317860500Y-111695000D03*
X317860500Y-113095000D03*
X136481000Y-111822000D03*
X136481000Y-113222000D03*
X130981000Y-111822000D03*
X130981000Y-113222000D03*
X349142500Y-54545000D03*
X349142500Y-55945000D03*
X343642500Y-54545000D03*
X343642500Y-55945000D03*
X163786000Y-111695000D03*
X163786000Y-113095000D03*
X158286000Y-111695000D03*
X158286000Y-113095000D03*
X208680500Y-92645000D03*
X208680500Y-94045000D03*
X203180500Y-92645000D03*
X203180500Y-94045000D03*
X293770500Y-54545000D03*
X293770500Y-55945000D03*
X288270500Y-54545000D03*
X288270500Y-55945000D03*
X264052500Y-54545000D03*
X264052500Y-55945000D03*
X258552500Y-54545000D03*
X258552500Y-55945000D03*
X203981500Y-54545000D03*
X203981500Y-55945000D03*
X198481500Y-54545000D03*
X198481500Y-55945000D03*
X97873000Y-111822000D03*
X97873000Y-113222000D03*
X92373000Y-111822000D03*
X92373000Y-113222000D03*
X299866500Y-111695000D03*
X299866500Y-113095000D03*
X294366500Y-111695000D03*
X294366500Y-113095000D03*
X275355500Y-111695000D03*
X275355500Y-113095000D03*
X269855500Y-111695000D03*
X269855500Y-113095000D03*
X61297000Y-73530000D03*
X61297000Y-74930000D03*
X55797000Y-73530000D03*
X55797000Y-74930000D03*
X197504500Y-73595000D03*
X197504500Y-74995000D03*
X192004500Y-73595000D03*
X192004500Y-74995000D03*
X163659000Y-92772000D03*
X163659000Y-94172000D03*
X158159000Y-92772000D03*
X158159000Y-94172000D03*
X61297000Y-92645000D03*
X61297000Y-94045000D03*
X55797000Y-92645000D03*
X55797000Y-94045000D03*
X248431500Y-111695000D03*
X248431500Y-113095000D03*
X242931500Y-111695000D03*
X242931500Y-113095000D03*
X219856500Y-111695000D03*
X219856500Y-113095000D03*
X214356500Y-111695000D03*
X214356500Y-113095000D03*
X376828500Y-54545000D03*
X376828500Y-55945000D03*
X371328500Y-54545000D03*
X371328500Y-55945000D03*
X149435000Y-73595000D03*
X149435000Y-74995000D03*
X143935000Y-73595000D03*
X143935000Y-74995000D03*
X92412000Y-54672000D03*
X92412000Y-56072000D03*
X86912000Y-54672000D03*
X86912000Y-56072000D03*
X322980500Y-54545000D03*
X322980500Y-55945000D03*
X317480500Y-54545000D03*
X317480500Y-55945000D03*
D11*
X140843000Y-50800000D03*
X153770000Y-48260000D03*
G36*
G01*
X238014500Y-55596500D02*
X238489500Y-55596500D01*
G75*
G02*
X238727000Y-55834000I0J-237500D01*
G01*
X238727000Y-56434000D01*
G75*
G02*
X238489500Y-56671500I-237500J0D01*
G01*
X238014500Y-56671500D01*
G75*
G02*
X237777000Y-56434000I0J237500D01*
G01*
X237777000Y-55834000D01*
G75*
G02*
X238014500Y-55596500I237500J0D01*
G01*
G37*
G36*
G01*
X238014500Y-53871500D02*
X238489500Y-53871500D01*
G75*
G02*
X238727000Y-54109000I0J-237500D01*
G01*
X238727000Y-54709000D01*
G75*
G02*
X238489500Y-54946500I-237500J0D01*
G01*
X238014500Y-54946500D01*
G75*
G02*
X237777000Y-54709000I0J237500D01*
G01*
X237777000Y-54109000D01*
G75*
G02*
X238014500Y-53871500I237500J0D01*
G01*
G37*
G36*
G01*
X138921500Y-112170500D02*
X138446500Y-112170500D01*
G75*
G02*
X138209000Y-111933000I0J237500D01*
G01*
X138209000Y-111333000D01*
G75*
G02*
X138446500Y-111095500I237500J0D01*
G01*
X138921500Y-111095500D01*
G75*
G02*
X139159000Y-111333000I0J-237500D01*
G01*
X139159000Y-111933000D01*
G75*
G02*
X138921500Y-112170500I-237500J0D01*
G01*
G37*
G36*
G01*
X138921500Y-113895500D02*
X138446500Y-113895500D01*
G75*
G02*
X138209000Y-113658000I0J237500D01*
G01*
X138209000Y-113058000D01*
G75*
G02*
X138446500Y-112820500I237500J0D01*
G01*
X138921500Y-112820500D01*
G75*
G02*
X139159000Y-113058000I0J-237500D01*
G01*
X139159000Y-113658000D01*
G75*
G02*
X138921500Y-113895500I-237500J0D01*
G01*
G37*
X312039000Y-107950000D03*
X324966000Y-105410000D03*
X152749250Y-127000000D03*
X165676250Y-124460000D03*
X216789000Y-127000000D03*
X229716000Y-124460000D03*
X316801500Y-88900000D03*
X329728500Y-86360000D03*
G36*
G01*
X70976500Y-112223500D02*
X70501500Y-112223500D01*
G75*
G02*
X70264000Y-111986000I0J237500D01*
G01*
X70264000Y-111386000D01*
G75*
G02*
X70501500Y-111148500I237500J0D01*
G01*
X70976500Y-111148500D01*
G75*
G02*
X71214000Y-111386000I0J-237500D01*
G01*
X71214000Y-111986000D01*
G75*
G02*
X70976500Y-112223500I-237500J0D01*
G01*
G37*
G36*
G01*
X70976500Y-113948500D02*
X70501500Y-113948500D01*
G75*
G02*
X70264000Y-113711000I0J237500D01*
G01*
X70264000Y-113111000D01*
G75*
G02*
X70501500Y-112873500I237500J0D01*
G01*
X70976500Y-112873500D01*
G75*
G02*
X71214000Y-113111000I0J-237500D01*
G01*
X71214000Y-113711000D01*
G75*
G02*
X70976500Y-113948500I-237500J0D01*
G01*
G37*
G36*
G01*
X61451500Y-54946500D02*
X60976500Y-54946500D01*
G75*
G02*
X60739000Y-54709000I0J237500D01*
G01*
X60739000Y-54109000D01*
G75*
G02*
X60976500Y-53871500I237500J0D01*
G01*
X61451500Y-53871500D01*
G75*
G02*
X61689000Y-54109000I0J-237500D01*
G01*
X61689000Y-54709000D01*
G75*
G02*
X61451500Y-54946500I-237500J0D01*
G01*
G37*
G36*
G01*
X61451500Y-56671500D02*
X60976500Y-56671500D01*
G75*
G02*
X60739000Y-56434000I0J237500D01*
G01*
X60739000Y-55834000D01*
G75*
G02*
X60976500Y-55596500I237500J0D01*
G01*
X61451500Y-55596500D01*
G75*
G02*
X61689000Y-55834000I0J-237500D01*
G01*
X61689000Y-56434000D01*
G75*
G02*
X61451500Y-56671500I-237500J0D01*
G01*
G37*
G36*
G01*
X398319000Y-73970000D02*
X397844000Y-73970000D01*
G75*
G02*
X397606500Y-73732500I0J237500D01*
G01*
X397606500Y-73132500D01*
G75*
G02*
X397844000Y-72895000I237500J0D01*
G01*
X398319000Y-72895000D01*
G75*
G02*
X398556500Y-73132500I0J-237500D01*
G01*
X398556500Y-73732500D01*
G75*
G02*
X398319000Y-73970000I-237500J0D01*
G01*
G37*
G36*
G01*
X398319000Y-75695000D02*
X397844000Y-75695000D01*
G75*
G02*
X397606500Y-75457500I0J237500D01*
G01*
X397606500Y-74857500D01*
G75*
G02*
X397844000Y-74620000I237500J0D01*
G01*
X398319000Y-74620000D01*
G75*
G02*
X398556500Y-74857500I0J-237500D01*
G01*
X398556500Y-75457500D01*
G75*
G02*
X398319000Y-75695000I-237500J0D01*
G01*
G37*
G36*
G01*
X376635000Y-112720000D02*
X377110000Y-112720000D01*
G75*
G02*
X377347500Y-112957500I0J-237500D01*
G01*
X377347500Y-113557500D01*
G75*
G02*
X377110000Y-113795000I-237500J0D01*
G01*
X376635000Y-113795000D01*
G75*
G02*
X376397500Y-113557500I0J237500D01*
G01*
X376397500Y-112957500D01*
G75*
G02*
X376635000Y-112720000I237500J0D01*
G01*
G37*
G36*
G01*
X376635000Y-110995000D02*
X377110000Y-110995000D01*
G75*
G02*
X377347500Y-111232500I0J-237500D01*
G01*
X377347500Y-111832500D01*
G75*
G02*
X377110000Y-112070000I-237500J0D01*
G01*
X376635000Y-112070000D01*
G75*
G02*
X376397500Y-111832500I0J237500D01*
G01*
X376397500Y-111232500D01*
G75*
G02*
X376635000Y-110995000I237500J0D01*
G01*
G37*
G36*
G01*
X353648000Y-112746500D02*
X354123000Y-112746500D01*
G75*
G02*
X354360500Y-112984000I0J-237500D01*
G01*
X354360500Y-113584000D01*
G75*
G02*
X354123000Y-113821500I-237500J0D01*
G01*
X353648000Y-113821500D01*
G75*
G02*
X353410500Y-113584000I0J237500D01*
G01*
X353410500Y-112984000D01*
G75*
G02*
X353648000Y-112746500I237500J0D01*
G01*
G37*
G36*
G01*
X353648000Y-111021500D02*
X354123000Y-111021500D01*
G75*
G02*
X354360500Y-111259000I0J-237500D01*
G01*
X354360500Y-111859000D01*
G75*
G02*
X354123000Y-112096500I-237500J0D01*
G01*
X353648000Y-112096500D01*
G75*
G02*
X353410500Y-111859000I0J237500D01*
G01*
X353410500Y-111259000D01*
G75*
G02*
X353648000Y-111021500I237500J0D01*
G01*
G37*
G36*
G01*
X398319000Y-105111500D02*
X397844000Y-105111500D01*
G75*
G02*
X397606500Y-104874000I0J237500D01*
G01*
X397606500Y-104274000D01*
G75*
G02*
X397844000Y-104036500I237500J0D01*
G01*
X398319000Y-104036500D01*
G75*
G02*
X398556500Y-104274000I0J-237500D01*
G01*
X398556500Y-104874000D01*
G75*
G02*
X398319000Y-105111500I-237500J0D01*
G01*
G37*
G36*
G01*
X398319000Y-106836500D02*
X397844000Y-106836500D01*
G75*
G02*
X397606500Y-106599000I0J237500D01*
G01*
X397606500Y-105999000D01*
G75*
G02*
X397844000Y-105761500I237500J0D01*
G01*
X398319000Y-105761500D01*
G75*
G02*
X398556500Y-105999000I0J-237500D01*
G01*
X398556500Y-106599000D01*
G75*
G02*
X398319000Y-106836500I-237500J0D01*
G01*
G37*
G36*
G01*
X398192000Y-88220500D02*
X397717000Y-88220500D01*
G75*
G02*
X397479500Y-87983000I0J237500D01*
G01*
X397479500Y-87383000D01*
G75*
G02*
X397717000Y-87145500I237500J0D01*
G01*
X398192000Y-87145500D01*
G75*
G02*
X398429500Y-87383000I0J-237500D01*
G01*
X398429500Y-87983000D01*
G75*
G02*
X398192000Y-88220500I-237500J0D01*
G01*
G37*
G36*
G01*
X398192000Y-89945500D02*
X397717000Y-89945500D01*
G75*
G02*
X397479500Y-89708000I0J237500D01*
G01*
X397479500Y-89108000D01*
G75*
G02*
X397717000Y-88870500I237500J0D01*
G01*
X398192000Y-88870500D01*
G75*
G02*
X398429500Y-89108000I0J-237500D01*
G01*
X398429500Y-89708000D01*
G75*
G02*
X398192000Y-89945500I-237500J0D01*
G01*
G37*
G36*
G01*
X326056000Y-112043500D02*
X325581000Y-112043500D01*
G75*
G02*
X325343500Y-111806000I0J237500D01*
G01*
X325343500Y-111206000D01*
G75*
G02*
X325581000Y-110968500I237500J0D01*
G01*
X326056000Y-110968500D01*
G75*
G02*
X326293500Y-111206000I0J-237500D01*
G01*
X326293500Y-111806000D01*
G75*
G02*
X326056000Y-112043500I-237500J0D01*
G01*
G37*
G36*
G01*
X326056000Y-113768500D02*
X325581000Y-113768500D01*
G75*
G02*
X325343500Y-113531000I0J237500D01*
G01*
X325343500Y-112931000D01*
G75*
G02*
X325581000Y-112693500I237500J0D01*
G01*
X326056000Y-112693500D01*
G75*
G02*
X326293500Y-112931000I0J-237500D01*
G01*
X326293500Y-113531000D01*
G75*
G02*
X326056000Y-113768500I-237500J0D01*
G01*
G37*
X126555500Y-107950000D03*
X139482500Y-105410000D03*
X52736750Y-88900000D03*
X65663750Y-86360000D03*
X50355500Y-69850000D03*
X63282500Y-67310000D03*
D12*
X388810500Y-123825000D03*
X388810500Y-120275000D03*
X369887500Y-123698000D03*
X369887500Y-120148000D03*
X350837500Y-123952000D03*
X350837500Y-120402000D03*
X369887500Y-104648000D03*
X369887500Y-101098000D03*
X388937500Y-66675000D03*
X388937500Y-63125000D03*
X369887500Y-66675000D03*
X369887500Y-63125000D03*
X350837500Y-66675000D03*
X350837500Y-63125000D03*
X388937500Y-47752000D03*
X388937500Y-44202000D03*
X369760500Y-47752000D03*
X369760500Y-44202000D03*
X350710500Y-47752000D03*
X350710500Y-44202000D03*
G36*
G01*
X363648000Y-116922500D02*
X363173000Y-116922500D01*
G75*
G02*
X362935500Y-116685000I0J237500D01*
G01*
X362935500Y-116085000D01*
G75*
G02*
X363173000Y-115847500I237500J0D01*
G01*
X363648000Y-115847500D01*
G75*
G02*
X363885500Y-116085000I0J-237500D01*
G01*
X363885500Y-116685000D01*
G75*
G02*
X363648000Y-116922500I-237500J0D01*
G01*
G37*
G36*
G01*
X363648000Y-118647500D02*
X363173000Y-118647500D01*
G75*
G02*
X362935500Y-118410000I0J237500D01*
G01*
X362935500Y-117810000D01*
G75*
G02*
X363173000Y-117572500I237500J0D01*
G01*
X363648000Y-117572500D01*
G75*
G02*
X363885500Y-117810000I0J-237500D01*
G01*
X363885500Y-118410000D01*
G75*
G02*
X363648000Y-118647500I-237500J0D01*
G01*
G37*
G36*
G01*
X382698000Y-97846000D02*
X382223000Y-97846000D01*
G75*
G02*
X381985500Y-97608500I0J237500D01*
G01*
X381985500Y-97008500D01*
G75*
G02*
X382223000Y-96771000I237500J0D01*
G01*
X382698000Y-96771000D01*
G75*
G02*
X382935500Y-97008500I0J-237500D01*
G01*
X382935500Y-97608500D01*
G75*
G02*
X382698000Y-97846000I-237500J0D01*
G01*
G37*
G36*
G01*
X382698000Y-99571000D02*
X382223000Y-99571000D01*
G75*
G02*
X381985500Y-99333500I0J237500D01*
G01*
X381985500Y-98733500D01*
G75*
G02*
X382223000Y-98496000I237500J0D01*
G01*
X382698000Y-98496000D01*
G75*
G02*
X382935500Y-98733500I0J-237500D01*
G01*
X382935500Y-99333500D01*
G75*
G02*
X382698000Y-99571000I-237500J0D01*
G01*
G37*
G36*
G01*
X401748000Y-59645500D02*
X401273000Y-59645500D01*
G75*
G02*
X401035500Y-59408000I0J237500D01*
G01*
X401035500Y-58808000D01*
G75*
G02*
X401273000Y-58570500I237500J0D01*
G01*
X401748000Y-58570500D01*
G75*
G02*
X401985500Y-58808000I0J-237500D01*
G01*
X401985500Y-59408000D01*
G75*
G02*
X401748000Y-59645500I-237500J0D01*
G01*
G37*
G36*
G01*
X401748000Y-61370500D02*
X401273000Y-61370500D01*
G75*
G02*
X401035500Y-61133000I0J237500D01*
G01*
X401035500Y-60533000D01*
G75*
G02*
X401273000Y-60295500I237500J0D01*
G01*
X401748000Y-60295500D01*
G75*
G02*
X401985500Y-60533000I0J-237500D01*
G01*
X401985500Y-61133000D01*
G75*
G02*
X401748000Y-61370500I-237500J0D01*
G01*
G37*
G36*
G01*
X382825000Y-59746000D02*
X382350000Y-59746000D01*
G75*
G02*
X382112500Y-59508500I0J237500D01*
G01*
X382112500Y-58908500D01*
G75*
G02*
X382350000Y-58671000I237500J0D01*
G01*
X382825000Y-58671000D01*
G75*
G02*
X383062500Y-58908500I0J-237500D01*
G01*
X383062500Y-59508500D01*
G75*
G02*
X382825000Y-59746000I-237500J0D01*
G01*
G37*
G36*
G01*
X382825000Y-61471000D02*
X382350000Y-61471000D01*
G75*
G02*
X382112500Y-61233500I0J237500D01*
G01*
X382112500Y-60633500D01*
G75*
G02*
X382350000Y-60396000I237500J0D01*
G01*
X382825000Y-60396000D01*
G75*
G02*
X383062500Y-60633500I0J-237500D01*
G01*
X383062500Y-61233500D01*
G75*
G02*
X382825000Y-61471000I-237500J0D01*
G01*
G37*
G36*
G01*
X363648000Y-59772500D02*
X363173000Y-59772500D01*
G75*
G02*
X362935500Y-59535000I0J237500D01*
G01*
X362935500Y-58935000D01*
G75*
G02*
X363173000Y-58697500I237500J0D01*
G01*
X363648000Y-58697500D01*
G75*
G02*
X363885500Y-58935000I0J-237500D01*
G01*
X363885500Y-59535000D01*
G75*
G02*
X363648000Y-59772500I-237500J0D01*
G01*
G37*
G36*
G01*
X363648000Y-61497500D02*
X363173000Y-61497500D01*
G75*
G02*
X362935500Y-61260000I0J237500D01*
G01*
X362935500Y-60660000D01*
G75*
G02*
X363173000Y-60422500I237500J0D01*
G01*
X363648000Y-60422500D01*
G75*
G02*
X363885500Y-60660000I0J-237500D01*
G01*
X363885500Y-61260000D01*
G75*
G02*
X363648000Y-61497500I-237500J0D01*
G01*
G37*
G36*
G01*
X401748000Y-40722500D02*
X401273000Y-40722500D01*
G75*
G02*
X401035500Y-40485000I0J237500D01*
G01*
X401035500Y-39885000D01*
G75*
G02*
X401273000Y-39647500I237500J0D01*
G01*
X401748000Y-39647500D01*
G75*
G02*
X401985500Y-39885000I0J-237500D01*
G01*
X401985500Y-40485000D01*
G75*
G02*
X401748000Y-40722500I-237500J0D01*
G01*
G37*
G36*
G01*
X401748000Y-42447500D02*
X401273000Y-42447500D01*
G75*
G02*
X401035500Y-42210000I0J237500D01*
G01*
X401035500Y-41610000D01*
G75*
G02*
X401273000Y-41372500I237500J0D01*
G01*
X401748000Y-41372500D01*
G75*
G02*
X401985500Y-41610000I0J-237500D01*
G01*
X401985500Y-42210000D01*
G75*
G02*
X401748000Y-42447500I-237500J0D01*
G01*
G37*
G36*
G01*
X382698000Y-40595500D02*
X382223000Y-40595500D01*
G75*
G02*
X381985500Y-40358000I0J237500D01*
G01*
X381985500Y-39758000D01*
G75*
G02*
X382223000Y-39520500I237500J0D01*
G01*
X382698000Y-39520500D01*
G75*
G02*
X382935500Y-39758000I0J-237500D01*
G01*
X382935500Y-40358000D01*
G75*
G02*
X382698000Y-40595500I-237500J0D01*
G01*
G37*
G36*
G01*
X382698000Y-42320500D02*
X382223000Y-42320500D01*
G75*
G02*
X381985500Y-42083000I0J237500D01*
G01*
X381985500Y-41483000D01*
G75*
G02*
X382223000Y-41245500I237500J0D01*
G01*
X382698000Y-41245500D01*
G75*
G02*
X382935500Y-41483000I0J-237500D01*
G01*
X382935500Y-42083000D01*
G75*
G02*
X382698000Y-42320500I-237500J0D01*
G01*
G37*
G36*
G01*
X363648000Y-40595500D02*
X363173000Y-40595500D01*
G75*
G02*
X362935500Y-40358000I0J237500D01*
G01*
X362935500Y-39758000D01*
G75*
G02*
X363173000Y-39520500I237500J0D01*
G01*
X363648000Y-39520500D01*
G75*
G02*
X363885500Y-39758000I0J-237500D01*
G01*
X363885500Y-40358000D01*
G75*
G02*
X363648000Y-40595500I-237500J0D01*
G01*
G37*
G36*
G01*
X363648000Y-42320500D02*
X363173000Y-42320500D01*
G75*
G02*
X362935500Y-42083000I0J237500D01*
G01*
X362935500Y-41483000D01*
G75*
G02*
X363173000Y-41245500I237500J0D01*
G01*
X363648000Y-41245500D01*
G75*
G02*
X363885500Y-41483000I0J-237500D01*
G01*
X363885500Y-42083000D01*
G75*
G02*
X363648000Y-42320500I-237500J0D01*
G01*
G37*
D10*
X399180500Y-116521000D03*
X399180500Y-117921000D03*
X393680500Y-116521000D03*
X393680500Y-117921000D03*
X380257500Y-116521000D03*
X380257500Y-117921000D03*
X374757500Y-116521000D03*
X374757500Y-117921000D03*
X361207500Y-116521000D03*
X361207500Y-117921000D03*
X355707500Y-116521000D03*
X355707500Y-117921000D03*
X380257500Y-97471000D03*
X380257500Y-98871000D03*
X374757500Y-97471000D03*
X374757500Y-98871000D03*
X399263500Y-59371000D03*
X399263500Y-60771000D03*
X393763500Y-59371000D03*
X393763500Y-60771000D03*
X380257500Y-59371000D03*
X380257500Y-60771000D03*
X374757500Y-59371000D03*
X374757500Y-60771000D03*
X361207500Y-59371000D03*
X361207500Y-60771000D03*
X355707500Y-59371000D03*
X355707500Y-60771000D03*
X399307500Y-40321000D03*
X399307500Y-41721000D03*
X393807500Y-40321000D03*
X393807500Y-41721000D03*
X380174500Y-40256000D03*
X380174500Y-41656000D03*
X374674500Y-40256000D03*
X374674500Y-41656000D03*
X361207500Y-40321000D03*
X361207500Y-41721000D03*
X355707500Y-40321000D03*
X355707500Y-41721000D03*
D11*
X390588500Y-127000000D03*
X403515500Y-124460000D03*
X371538500Y-127000000D03*
X384465500Y-124460000D03*
X352519500Y-127000000D03*
X365446500Y-124460000D03*
X371538500Y-107950000D03*
X384465500Y-105410000D03*
X390652000Y-69850000D03*
X403579000Y-67310000D03*
X371602000Y-69850000D03*
X384529000Y-67310000D03*
X352519500Y-69850000D03*
X365446500Y-67310000D03*
X390652000Y-50800000D03*
X403579000Y-48260000D03*
X371602000Y-50800000D03*
X384529000Y-48260000D03*
X352519500Y-50800000D03*
X365446500Y-48260000D03*
G36*
G01*
X401621000Y-116869500D02*
X401146000Y-116869500D01*
G75*
G02*
X400908500Y-116632000I0J237500D01*
G01*
X400908500Y-116032000D01*
G75*
G02*
X401146000Y-115794500I237500J0D01*
G01*
X401621000Y-115794500D01*
G75*
G02*
X401858500Y-116032000I0J-237500D01*
G01*
X401858500Y-116632000D01*
G75*
G02*
X401621000Y-116869500I-237500J0D01*
G01*
G37*
G36*
G01*
X401621000Y-118594500D02*
X401146000Y-118594500D01*
G75*
G02*
X400908500Y-118357000I0J237500D01*
G01*
X400908500Y-117757000D01*
G75*
G02*
X401146000Y-117519500I237500J0D01*
G01*
X401621000Y-117519500D01*
G75*
G02*
X401858500Y-117757000I0J-237500D01*
G01*
X401858500Y-118357000D01*
G75*
G02*
X401621000Y-118594500I-237500J0D01*
G01*
G37*
G36*
G01*
X382698000Y-116922500D02*
X382223000Y-116922500D01*
G75*
G02*
X381985500Y-116685000I0J237500D01*
G01*
X381985500Y-116085000D01*
G75*
G02*
X382223000Y-115847500I237500J0D01*
G01*
X382698000Y-115847500D01*
G75*
G02*
X382935500Y-116085000I0J-237500D01*
G01*
X382935500Y-116685000D01*
G75*
G02*
X382698000Y-116922500I-237500J0D01*
G01*
G37*
G36*
G01*
X382698000Y-118647500D02*
X382223000Y-118647500D01*
G75*
G02*
X381985500Y-118410000I0J237500D01*
G01*
X381985500Y-117810000D01*
G75*
G02*
X382223000Y-117572500I237500J0D01*
G01*
X382698000Y-117572500D01*
G75*
G02*
X382935500Y-117810000I0J-237500D01*
G01*
X382935500Y-118410000D01*
G75*
G02*
X382698000Y-118647500I-237500J0D01*
G01*
G37*
X117030500Y-88900000D03*
X129957500Y-86360000D03*
X57499250Y-107950000D03*
X70426250Y-105410000D03*
X45593000Y-50800000D03*
X58520000Y-48260000D03*
X278701500Y-127000000D03*
X291628500Y-124460000D03*
X266795250Y-88900000D03*
X279722250Y-86360000D03*
X195357750Y-50800000D03*
X208284750Y-48260000D03*
X319182750Y-50800000D03*
X332109750Y-48260000D03*
G36*
G01*
X205947000Y-55469500D02*
X206422000Y-55469500D01*
G75*
G02*
X206659500Y-55707000I0J-237500D01*
G01*
X206659500Y-56307000D01*
G75*
G02*
X206422000Y-56544500I-237500J0D01*
G01*
X205947000Y-56544500D01*
G75*
G02*
X205709500Y-56307000I0J237500D01*
G01*
X205709500Y-55707000D01*
G75*
G02*
X205947000Y-55469500I237500J0D01*
G01*
G37*
G36*
G01*
X205947000Y-53744500D02*
X206422000Y-53744500D01*
G75*
G02*
X206659500Y-53982000I0J-237500D01*
G01*
X206659500Y-54582000D01*
G75*
G02*
X206422000Y-54819500I-237500J0D01*
G01*
X205947000Y-54819500D01*
G75*
G02*
X205709500Y-54582000I0J237500D01*
G01*
X205709500Y-53982000D01*
G75*
G02*
X205947000Y-53744500I237500J0D01*
G01*
G37*
G36*
G01*
X137397500Y-97846000D02*
X136922500Y-97846000D01*
G75*
G02*
X136685000Y-97608500I0J237500D01*
G01*
X136685000Y-97008500D01*
G75*
G02*
X136922500Y-96771000I237500J0D01*
G01*
X137397500Y-96771000D01*
G75*
G02*
X137635000Y-97008500I0J-237500D01*
G01*
X137635000Y-97608500D01*
G75*
G02*
X137397500Y-97846000I-237500J0D01*
G01*
G37*
G36*
G01*
X137397500Y-99571000D02*
X136922500Y-99571000D01*
G75*
G02*
X136685000Y-99333500I0J237500D01*
G01*
X136685000Y-98733500D01*
G75*
G02*
X136922500Y-98496000I237500J0D01*
G01*
X137397500Y-98496000D01*
G75*
G02*
X137635000Y-98733500I0J-237500D01*
G01*
X137635000Y-99333500D01*
G75*
G02*
X137397500Y-99571000I-237500J0D01*
G01*
G37*
G36*
G01*
X127999500Y-78796000D02*
X127524500Y-78796000D01*
G75*
G02*
X127287000Y-78558500I0J237500D01*
G01*
X127287000Y-77958500D01*
G75*
G02*
X127524500Y-77721000I237500J0D01*
G01*
X127999500Y-77721000D01*
G75*
G02*
X128237000Y-77958500I0J-237500D01*
G01*
X128237000Y-78558500D01*
G75*
G02*
X127999500Y-78796000I-237500J0D01*
G01*
G37*
G36*
G01*
X127999500Y-80521000D02*
X127524500Y-80521000D01*
G75*
G02*
X127287000Y-80283500I0J237500D01*
G01*
X127287000Y-79683500D01*
G75*
G02*
X127524500Y-79446000I237500J0D01*
G01*
X127999500Y-79446000D01*
G75*
G02*
X128237000Y-79683500I0J-237500D01*
G01*
X128237000Y-80283500D01*
G75*
G02*
X127999500Y-80521000I-237500J0D01*
G01*
G37*
G36*
G01*
X311197000Y-59645500D02*
X310722000Y-59645500D01*
G75*
G02*
X310484500Y-59408000I0J237500D01*
G01*
X310484500Y-58808000D01*
G75*
G02*
X310722000Y-58570500I237500J0D01*
G01*
X311197000Y-58570500D01*
G75*
G02*
X311434500Y-58808000I0J-237500D01*
G01*
X311434500Y-59408000D01*
G75*
G02*
X311197000Y-59645500I-237500J0D01*
G01*
G37*
G36*
G01*
X311197000Y-61370500D02*
X310722000Y-61370500D01*
G75*
G02*
X310484500Y-61133000I0J237500D01*
G01*
X310484500Y-60533000D01*
G75*
G02*
X310722000Y-60295500I237500J0D01*
G01*
X311197000Y-60295500D01*
G75*
G02*
X311434500Y-60533000I0J-237500D01*
G01*
X311434500Y-61133000D01*
G75*
G02*
X311197000Y-61370500I-237500J0D01*
G01*
G37*
G36*
G01*
X106536500Y-116795500D02*
X106061500Y-116795500D01*
G75*
G02*
X105824000Y-116558000I0J237500D01*
G01*
X105824000Y-115958000D01*
G75*
G02*
X106061500Y-115720500I237500J0D01*
G01*
X106536500Y-115720500D01*
G75*
G02*
X106774000Y-115958000I0J-237500D01*
G01*
X106774000Y-116558000D01*
G75*
G02*
X106536500Y-116795500I-237500J0D01*
G01*
G37*
G36*
G01*
X106536500Y-118520500D02*
X106061500Y-118520500D01*
G75*
G02*
X105824000Y-118283000I0J237500D01*
G01*
X105824000Y-117683000D01*
G75*
G02*
X106061500Y-117445500I237500J0D01*
G01*
X106536500Y-117445500D01*
G75*
G02*
X106774000Y-117683000I0J-237500D01*
G01*
X106774000Y-118283000D01*
G75*
G02*
X106536500Y-118520500I-237500J0D01*
G01*
G37*
G36*
G01*
X163686500Y-116869500D02*
X163211500Y-116869500D01*
G75*
G02*
X162974000Y-116632000I0J237500D01*
G01*
X162974000Y-116032000D01*
G75*
G02*
X163211500Y-115794500I237500J0D01*
G01*
X163686500Y-115794500D01*
G75*
G02*
X163924000Y-116032000I0J-237500D01*
G01*
X163924000Y-116632000D01*
G75*
G02*
X163686500Y-116869500I-237500J0D01*
G01*
G37*
G36*
G01*
X163686500Y-118594500D02*
X163211500Y-118594500D01*
G75*
G02*
X162974000Y-118357000I0J237500D01*
G01*
X162974000Y-117757000D01*
G75*
G02*
X163211500Y-117519500I237500J0D01*
G01*
X163686500Y-117519500D01*
G75*
G02*
X163924000Y-117757000I0J-237500D01*
G01*
X163924000Y-118357000D01*
G75*
G02*
X163686500Y-118594500I-237500J0D01*
G01*
G37*
G36*
G01*
X130412500Y-116869500D02*
X129937500Y-116869500D01*
G75*
G02*
X129700000Y-116632000I0J237500D01*
G01*
X129700000Y-116032000D01*
G75*
G02*
X129937500Y-115794500I237500J0D01*
G01*
X130412500Y-115794500D01*
G75*
G02*
X130650000Y-116032000I0J-237500D01*
G01*
X130650000Y-116632000D01*
G75*
G02*
X130412500Y-116869500I-237500J0D01*
G01*
G37*
G36*
G01*
X130412500Y-118594500D02*
X129937500Y-118594500D01*
G75*
G02*
X129700000Y-118357000I0J237500D01*
G01*
X129700000Y-117757000D01*
G75*
G02*
X129937500Y-117519500I237500J0D01*
G01*
X130412500Y-117519500D01*
G75*
G02*
X130650000Y-117757000I0J-237500D01*
G01*
X130650000Y-118357000D01*
G75*
G02*
X130412500Y-118594500I-237500J0D01*
G01*
G37*
G36*
G01*
X82787500Y-116869500D02*
X82312500Y-116869500D01*
G75*
G02*
X82075000Y-116632000I0J237500D01*
G01*
X82075000Y-116032000D01*
G75*
G02*
X82312500Y-115794500I237500J0D01*
G01*
X82787500Y-115794500D01*
G75*
G02*
X83025000Y-116032000I0J-237500D01*
G01*
X83025000Y-116632000D01*
G75*
G02*
X82787500Y-116869500I-237500J0D01*
G01*
G37*
G36*
G01*
X82787500Y-118594500D02*
X82312500Y-118594500D01*
G75*
G02*
X82075000Y-118357000I0J237500D01*
G01*
X82075000Y-117757000D01*
G75*
G02*
X82312500Y-117519500I237500J0D01*
G01*
X82787500Y-117519500D01*
G75*
G02*
X83025000Y-117757000I0J-237500D01*
G01*
X83025000Y-118357000D01*
G75*
G02*
X82787500Y-118594500I-237500J0D01*
G01*
G37*
G36*
G01*
X227758000Y-116869500D02*
X227283000Y-116869500D01*
G75*
G02*
X227045500Y-116632000I0J237500D01*
G01*
X227045500Y-116032000D01*
G75*
G02*
X227283000Y-115794500I237500J0D01*
G01*
X227758000Y-115794500D01*
G75*
G02*
X227995500Y-116032000I0J-237500D01*
G01*
X227995500Y-116632000D01*
G75*
G02*
X227758000Y-116869500I-237500J0D01*
G01*
G37*
G36*
G01*
X227758000Y-118594500D02*
X227283000Y-118594500D01*
G75*
G02*
X227045500Y-118357000I0J237500D01*
G01*
X227045500Y-117757000D01*
G75*
G02*
X227283000Y-117519500I237500J0D01*
G01*
X227758000Y-117519500D01*
G75*
G02*
X227995500Y-117757000I0J-237500D01*
G01*
X227995500Y-118357000D01*
G75*
G02*
X227758000Y-118594500I-237500J0D01*
G01*
G37*
G36*
G01*
X118474500Y-97846000D02*
X117999500Y-97846000D01*
G75*
G02*
X117762000Y-97608500I0J237500D01*
G01*
X117762000Y-97008500D01*
G75*
G02*
X117999500Y-96771000I237500J0D01*
G01*
X118474500Y-96771000D01*
G75*
G02*
X118712000Y-97008500I0J-237500D01*
G01*
X118712000Y-97608500D01*
G75*
G02*
X118474500Y-97846000I-237500J0D01*
G01*
G37*
G36*
G01*
X118474500Y-99571000D02*
X117999500Y-99571000D01*
G75*
G02*
X117762000Y-99333500I0J237500D01*
G01*
X117762000Y-98733500D01*
G75*
G02*
X117999500Y-98496000I237500J0D01*
G01*
X118474500Y-98496000D01*
G75*
G02*
X118712000Y-98733500I0J-237500D01*
G01*
X118712000Y-99333500D01*
G75*
G02*
X118474500Y-99571000I-237500J0D01*
G01*
G37*
G36*
G01*
X156574500Y-97846000D02*
X156099500Y-97846000D01*
G75*
G02*
X155862000Y-97608500I0J237500D01*
G01*
X155862000Y-97008500D01*
G75*
G02*
X156099500Y-96771000I237500J0D01*
G01*
X156574500Y-96771000D01*
G75*
G02*
X156812000Y-97008500I0J-237500D01*
G01*
X156812000Y-97608500D01*
G75*
G02*
X156574500Y-97846000I-237500J0D01*
G01*
G37*
G36*
G01*
X156574500Y-99571000D02*
X156099500Y-99571000D01*
G75*
G02*
X155862000Y-99333500I0J237500D01*
G01*
X155862000Y-98733500D01*
G75*
G02*
X156099500Y-98496000I237500J0D01*
G01*
X156574500Y-98496000D01*
G75*
G02*
X156812000Y-98733500I0J-237500D01*
G01*
X156812000Y-99333500D01*
G75*
G02*
X156574500Y-99571000I-237500J0D01*
G01*
G37*
G36*
G01*
X287194000Y-97719000D02*
X286719000Y-97719000D01*
G75*
G02*
X286481500Y-97481500I0J237500D01*
G01*
X286481500Y-96881500D01*
G75*
G02*
X286719000Y-96644000I237500J0D01*
G01*
X287194000Y-96644000D01*
G75*
G02*
X287431500Y-96881500I0J-237500D01*
G01*
X287431500Y-97481500D01*
G75*
G02*
X287194000Y-97719000I-237500J0D01*
G01*
G37*
G36*
G01*
X287194000Y-99444000D02*
X286719000Y-99444000D01*
G75*
G02*
X286481500Y-99206500I0J237500D01*
G01*
X286481500Y-98606500D01*
G75*
G02*
X286719000Y-98369000I237500J0D01*
G01*
X287194000Y-98369000D01*
G75*
G02*
X287431500Y-98606500I0J-237500D01*
G01*
X287431500Y-99206500D01*
G75*
G02*
X287194000Y-99444000I-237500J0D01*
G01*
G37*
G36*
G01*
X249094000Y-97819500D02*
X248619000Y-97819500D01*
G75*
G02*
X248381500Y-97582000I0J237500D01*
G01*
X248381500Y-96982000D01*
G75*
G02*
X248619000Y-96744500I237500J0D01*
G01*
X249094000Y-96744500D01*
G75*
G02*
X249331500Y-96982000I0J-237500D01*
G01*
X249331500Y-97582000D01*
G75*
G02*
X249094000Y-97819500I-237500J0D01*
G01*
G37*
G36*
G01*
X249094000Y-99544500D02*
X248619000Y-99544500D01*
G75*
G02*
X248381500Y-99307000I0J237500D01*
G01*
X248381500Y-98707000D01*
G75*
G02*
X248619000Y-98469500I237500J0D01*
G01*
X249094000Y-98469500D01*
G75*
G02*
X249331500Y-98707000I0J-237500D01*
G01*
X249331500Y-99307000D01*
G75*
G02*
X249094000Y-99544500I-237500J0D01*
G01*
G37*
G36*
G01*
X210994000Y-97745500D02*
X210519000Y-97745500D01*
G75*
G02*
X210281500Y-97508000I0J237500D01*
G01*
X210281500Y-96908000D01*
G75*
G02*
X210519000Y-96670500I237500J0D01*
G01*
X210994000Y-96670500D01*
G75*
G02*
X211231500Y-96908000I0J-237500D01*
G01*
X211231500Y-97508000D01*
G75*
G02*
X210994000Y-97745500I-237500J0D01*
G01*
G37*
G36*
G01*
X210994000Y-99470500D02*
X210519000Y-99470500D01*
G75*
G02*
X210281500Y-99233000I0J237500D01*
G01*
X210281500Y-98633000D01*
G75*
G02*
X210519000Y-98395500I237500J0D01*
G01*
X210994000Y-98395500D01*
G75*
G02*
X211231500Y-98633000I0J-237500D01*
G01*
X211231500Y-99233000D01*
G75*
G02*
X210994000Y-99470500I-237500J0D01*
G01*
G37*
G36*
G01*
X147176500Y-78769500D02*
X146701500Y-78769500D01*
G75*
G02*
X146464000Y-78532000I0J237500D01*
G01*
X146464000Y-77932000D01*
G75*
G02*
X146701500Y-77694500I237500J0D01*
G01*
X147176500Y-77694500D01*
G75*
G02*
X147414000Y-77932000I0J-237500D01*
G01*
X147414000Y-78532000D01*
G75*
G02*
X147176500Y-78769500I-237500J0D01*
G01*
G37*
G36*
G01*
X147176500Y-80494500D02*
X146701500Y-80494500D01*
G75*
G02*
X146464000Y-80257000I0J237500D01*
G01*
X146464000Y-79657000D01*
G75*
G02*
X146701500Y-79419500I237500J0D01*
G01*
X147176500Y-79419500D01*
G75*
G02*
X147414000Y-79657000I0J-237500D01*
G01*
X147414000Y-80257000D01*
G75*
G02*
X147176500Y-80494500I-237500J0D01*
G01*
G37*
G36*
G01*
X108949500Y-78796000D02*
X108474500Y-78796000D01*
G75*
G02*
X108237000Y-78558500I0J237500D01*
G01*
X108237000Y-77958500D01*
G75*
G02*
X108474500Y-77721000I237500J0D01*
G01*
X108949500Y-77721000D01*
G75*
G02*
X109187000Y-77958500I0J-237500D01*
G01*
X109187000Y-78558500D01*
G75*
G02*
X108949500Y-78796000I-237500J0D01*
G01*
G37*
G36*
G01*
X108949500Y-80521000D02*
X108474500Y-80521000D01*
G75*
G02*
X108237000Y-80283500I0J237500D01*
G01*
X108237000Y-79683500D01*
G75*
G02*
X108474500Y-79446000I237500J0D01*
G01*
X108949500Y-79446000D01*
G75*
G02*
X109187000Y-79683500I0J-237500D01*
G01*
X109187000Y-80283500D01*
G75*
G02*
X108949500Y-80521000I-237500J0D01*
G01*
G37*
G36*
G01*
X63737500Y-78796000D02*
X63262500Y-78796000D01*
G75*
G02*
X63025000Y-78558500I0J237500D01*
G01*
X63025000Y-77958500D01*
G75*
G02*
X63262500Y-77721000I237500J0D01*
G01*
X63737500Y-77721000D01*
G75*
G02*
X63975000Y-77958500I0J-237500D01*
G01*
X63975000Y-78558500D01*
G75*
G02*
X63737500Y-78796000I-237500J0D01*
G01*
G37*
G36*
G01*
X63737500Y-80521000D02*
X63262500Y-80521000D01*
G75*
G02*
X63025000Y-80283500I0J237500D01*
G01*
X63025000Y-79683500D01*
G75*
G02*
X63262500Y-79446000I237500J0D01*
G01*
X63737500Y-79446000D01*
G75*
G02*
X63975000Y-79683500I0J-237500D01*
G01*
X63975000Y-80283500D01*
G75*
G02*
X63737500Y-80521000I-237500J0D01*
G01*
G37*
G36*
G01*
X277669000Y-78822500D02*
X277194000Y-78822500D01*
G75*
G02*
X276956500Y-78585000I0J237500D01*
G01*
X276956500Y-77985000D01*
G75*
G02*
X277194000Y-77747500I237500J0D01*
G01*
X277669000Y-77747500D01*
G75*
G02*
X277906500Y-77985000I0J-237500D01*
G01*
X277906500Y-78585000D01*
G75*
G02*
X277669000Y-78822500I-237500J0D01*
G01*
G37*
G36*
G01*
X277669000Y-80547500D02*
X277194000Y-80547500D01*
G75*
G02*
X276956500Y-80310000I0J237500D01*
G01*
X276956500Y-79710000D01*
G75*
G02*
X277194000Y-79472500I237500J0D01*
G01*
X277669000Y-79472500D01*
G75*
G02*
X277906500Y-79710000I0J-237500D01*
G01*
X277906500Y-80310000D01*
G75*
G02*
X277669000Y-80547500I-237500J0D01*
G01*
G37*
G36*
G01*
X258746000Y-78822500D02*
X258271000Y-78822500D01*
G75*
G02*
X258033500Y-78585000I0J237500D01*
G01*
X258033500Y-77985000D01*
G75*
G02*
X258271000Y-77747500I237500J0D01*
G01*
X258746000Y-77747500D01*
G75*
G02*
X258983500Y-77985000I0J-237500D01*
G01*
X258983500Y-78585000D01*
G75*
G02*
X258746000Y-78822500I-237500J0D01*
G01*
G37*
G36*
G01*
X258746000Y-80547500D02*
X258271000Y-80547500D01*
G75*
G02*
X258033500Y-80310000I0J237500D01*
G01*
X258033500Y-79710000D01*
G75*
G02*
X258271000Y-79472500I237500J0D01*
G01*
X258746000Y-79472500D01*
G75*
G02*
X258983500Y-79710000I0J-237500D01*
G01*
X258983500Y-80310000D01*
G75*
G02*
X258746000Y-80547500I-237500J0D01*
G01*
G37*
G36*
G01*
X239569000Y-78769500D02*
X239094000Y-78769500D01*
G75*
G02*
X238856500Y-78532000I0J237500D01*
G01*
X238856500Y-77932000D01*
G75*
G02*
X239094000Y-77694500I237500J0D01*
G01*
X239569000Y-77694500D01*
G75*
G02*
X239806500Y-77932000I0J-237500D01*
G01*
X239806500Y-78532000D01*
G75*
G02*
X239569000Y-78769500I-237500J0D01*
G01*
G37*
G36*
G01*
X239569000Y-80494500D02*
X239094000Y-80494500D01*
G75*
G02*
X238856500Y-80257000I0J237500D01*
G01*
X238856500Y-79657000D01*
G75*
G02*
X239094000Y-79419500I237500J0D01*
G01*
X239569000Y-79419500D01*
G75*
G02*
X239806500Y-79657000I0J-237500D01*
G01*
X239806500Y-80257000D01*
G75*
G02*
X239569000Y-80494500I-237500J0D01*
G01*
G37*
G36*
G01*
X201723000Y-78822500D02*
X201248000Y-78822500D01*
G75*
G02*
X201010500Y-78585000I0J237500D01*
G01*
X201010500Y-77985000D01*
G75*
G02*
X201248000Y-77747500I237500J0D01*
G01*
X201723000Y-77747500D01*
G75*
G02*
X201960500Y-77985000I0J-237500D01*
G01*
X201960500Y-78585000D01*
G75*
G02*
X201723000Y-78822500I-237500J0D01*
G01*
G37*
G36*
G01*
X201723000Y-80547500D02*
X201248000Y-80547500D01*
G75*
G02*
X201010500Y-80310000I0J237500D01*
G01*
X201010500Y-79710000D01*
G75*
G02*
X201248000Y-79472500I237500J0D01*
G01*
X201723000Y-79472500D01*
G75*
G02*
X201960500Y-79710000I0J-237500D01*
G01*
X201960500Y-80310000D01*
G75*
G02*
X201723000Y-80547500I-237500J0D01*
G01*
G37*
G36*
G01*
X142477500Y-59772500D02*
X142002500Y-59772500D01*
G75*
G02*
X141765000Y-59535000I0J237500D01*
G01*
X141765000Y-58935000D01*
G75*
G02*
X142002500Y-58697500I237500J0D01*
G01*
X142477500Y-58697500D01*
G75*
G02*
X142715000Y-58935000I0J-237500D01*
G01*
X142715000Y-59535000D01*
G75*
G02*
X142477500Y-59772500I-237500J0D01*
G01*
G37*
G36*
G01*
X142477500Y-61497500D02*
X142002500Y-61497500D01*
G75*
G02*
X141765000Y-61260000I0J237500D01*
G01*
X141765000Y-60660000D01*
G75*
G02*
X142002500Y-60422500I237500J0D01*
G01*
X142477500Y-60422500D01*
G75*
G02*
X142715000Y-60660000I0J-237500D01*
G01*
X142715000Y-61260000D01*
G75*
G02*
X142477500Y-61497500I-237500J0D01*
G01*
G37*
G36*
G01*
X161273500Y-59746000D02*
X160798500Y-59746000D01*
G75*
G02*
X160561000Y-59508500I0J237500D01*
G01*
X160561000Y-58908500D01*
G75*
G02*
X160798500Y-58671000I237500J0D01*
G01*
X161273500Y-58671000D01*
G75*
G02*
X161511000Y-58908500I0J-237500D01*
G01*
X161511000Y-59508500D01*
G75*
G02*
X161273500Y-59746000I-237500J0D01*
G01*
G37*
G36*
G01*
X161273500Y-61471000D02*
X160798500Y-61471000D01*
G75*
G02*
X160561000Y-61233500I0J237500D01*
G01*
X160561000Y-60633500D01*
G75*
G02*
X160798500Y-60396000I237500J0D01*
G01*
X161273500Y-60396000D01*
G75*
G02*
X161511000Y-60633500I0J-237500D01*
G01*
X161511000Y-61233500D01*
G75*
G02*
X161273500Y-61471000I-237500J0D01*
G01*
G37*
G36*
G01*
X292147000Y-59619000D02*
X291672000Y-59619000D01*
G75*
G02*
X291434500Y-59381500I0J237500D01*
G01*
X291434500Y-58781500D01*
G75*
G02*
X291672000Y-58544000I237500J0D01*
G01*
X292147000Y-58544000D01*
G75*
G02*
X292384500Y-58781500I0J-237500D01*
G01*
X292384500Y-59381500D01*
G75*
G02*
X292147000Y-59619000I-237500J0D01*
G01*
G37*
G36*
G01*
X292147000Y-61344000D02*
X291672000Y-61344000D01*
G75*
G02*
X291434500Y-61106500I0J237500D01*
G01*
X291434500Y-60506500D01*
G75*
G02*
X291672000Y-60269000I237500J0D01*
G01*
X292147000Y-60269000D01*
G75*
G02*
X292384500Y-60506500I0J-237500D01*
G01*
X292384500Y-61106500D01*
G75*
G02*
X292147000Y-61344000I-237500J0D01*
G01*
G37*
G36*
G01*
X272970000Y-59772500D02*
X272495000Y-59772500D01*
G75*
G02*
X272257500Y-59535000I0J237500D01*
G01*
X272257500Y-58935000D01*
G75*
G02*
X272495000Y-58697500I237500J0D01*
G01*
X272970000Y-58697500D01*
G75*
G02*
X273207500Y-58935000I0J-237500D01*
G01*
X273207500Y-59535000D01*
G75*
G02*
X272970000Y-59772500I-237500J0D01*
G01*
G37*
G36*
G01*
X272970000Y-61497500D02*
X272495000Y-61497500D01*
G75*
G02*
X272257500Y-61260000I0J237500D01*
G01*
X272257500Y-60660000D01*
G75*
G02*
X272495000Y-60422500I237500J0D01*
G01*
X272970000Y-60422500D01*
G75*
G02*
X273207500Y-60660000I0J-237500D01*
G01*
X273207500Y-61260000D01*
G75*
G02*
X272970000Y-61497500I-237500J0D01*
G01*
G37*
G36*
G01*
X215820000Y-59772500D02*
X215345000Y-59772500D01*
G75*
G02*
X215107500Y-59535000I0J237500D01*
G01*
X215107500Y-58935000D01*
G75*
G02*
X215345000Y-58697500I237500J0D01*
G01*
X215820000Y-58697500D01*
G75*
G02*
X216057500Y-58935000I0J-237500D01*
G01*
X216057500Y-59535000D01*
G75*
G02*
X215820000Y-59772500I-237500J0D01*
G01*
G37*
G36*
G01*
X215820000Y-61497500D02*
X215345000Y-61497500D01*
G75*
G02*
X215107500Y-61260000I0J237500D01*
G01*
X215107500Y-60660000D01*
G75*
G02*
X215345000Y-60422500I237500J0D01*
G01*
X215820000Y-60422500D01*
G75*
G02*
X216057500Y-60660000I0J-237500D01*
G01*
X216057500Y-61260000D01*
G75*
G02*
X215820000Y-61497500I-237500J0D01*
G01*
G37*
G36*
G01*
X95614500Y-40696000D02*
X95139500Y-40696000D01*
G75*
G02*
X94902000Y-40458500I0J237500D01*
G01*
X94902000Y-39858500D01*
G75*
G02*
X95139500Y-39621000I237500J0D01*
G01*
X95614500Y-39621000D01*
G75*
G02*
X95852000Y-39858500I0J-237500D01*
G01*
X95852000Y-40458500D01*
G75*
G02*
X95614500Y-40696000I-237500J0D01*
G01*
G37*
G36*
G01*
X95614500Y-42421000D02*
X95139500Y-42421000D01*
G75*
G02*
X94902000Y-42183500I0J237500D01*
G01*
X94902000Y-41583500D01*
G75*
G02*
X95139500Y-41346000I237500J0D01*
G01*
X95614500Y-41346000D01*
G75*
G02*
X95852000Y-41583500I0J-237500D01*
G01*
X95852000Y-42183500D01*
G75*
G02*
X95614500Y-42421000I-237500J0D01*
G01*
G37*
G36*
G01*
X114728000Y-40722500D02*
X114253000Y-40722500D01*
G75*
G02*
X114015500Y-40485000I0J237500D01*
G01*
X114015500Y-39885000D01*
G75*
G02*
X114253000Y-39647500I237500J0D01*
G01*
X114728000Y-39647500D01*
G75*
G02*
X114965500Y-39885000I0J-237500D01*
G01*
X114965500Y-40485000D01*
G75*
G02*
X114728000Y-40722500I-237500J0D01*
G01*
G37*
G36*
G01*
X114728000Y-42447500D02*
X114253000Y-42447500D01*
G75*
G02*
X114015500Y-42210000I0J237500D01*
G01*
X114015500Y-41610000D01*
G75*
G02*
X114253000Y-41372500I237500J0D01*
G01*
X114728000Y-41372500D01*
G75*
G02*
X114965500Y-41610000I0J-237500D01*
G01*
X114965500Y-42210000D01*
G75*
G02*
X114728000Y-42447500I-237500J0D01*
G01*
G37*
G36*
G01*
X225345000Y-40696000D02*
X224870000Y-40696000D01*
G75*
G02*
X224632500Y-40458500I0J237500D01*
G01*
X224632500Y-39858500D01*
G75*
G02*
X224870000Y-39621000I237500J0D01*
G01*
X225345000Y-39621000D01*
G75*
G02*
X225582500Y-39858500I0J-237500D01*
G01*
X225582500Y-40458500D01*
G75*
G02*
X225345000Y-40696000I-237500J0D01*
G01*
G37*
G36*
G01*
X225345000Y-42421000D02*
X224870000Y-42421000D01*
G75*
G02*
X224632500Y-42183500I0J237500D01*
G01*
X224632500Y-41583500D01*
G75*
G02*
X224870000Y-41346000I237500J0D01*
G01*
X225345000Y-41346000D01*
G75*
G02*
X225582500Y-41583500I0J-237500D01*
G01*
X225582500Y-42183500D01*
G75*
G02*
X225345000Y-42421000I-237500J0D01*
G01*
G37*
G36*
G01*
X206422000Y-40669500D02*
X205947000Y-40669500D01*
G75*
G02*
X205709500Y-40432000I0J237500D01*
G01*
X205709500Y-39832000D01*
G75*
G02*
X205947000Y-39594500I237500J0D01*
G01*
X206422000Y-39594500D01*
G75*
G02*
X206659500Y-39832000I0J-237500D01*
G01*
X206659500Y-40432000D01*
G75*
G02*
X206422000Y-40669500I-237500J0D01*
G01*
G37*
G36*
G01*
X206422000Y-42394500D02*
X205947000Y-42394500D01*
G75*
G02*
X205709500Y-42157000I0J237500D01*
G01*
X205709500Y-41557000D01*
G75*
G02*
X205947000Y-41319500I237500J0D01*
G01*
X206422000Y-41319500D01*
G75*
G02*
X206659500Y-41557000I0J-237500D01*
G01*
X206659500Y-42157000D01*
G75*
G02*
X206422000Y-42394500I-237500J0D01*
G01*
G37*
G36*
G01*
X167179000Y-112096500D02*
X166704000Y-112096500D01*
G75*
G02*
X166466500Y-111859000I0J237500D01*
G01*
X166466500Y-111259000D01*
G75*
G02*
X166704000Y-111021500I237500J0D01*
G01*
X167179000Y-111021500D01*
G75*
G02*
X167416500Y-111259000I0J-237500D01*
G01*
X167416500Y-111859000D01*
G75*
G02*
X167179000Y-112096500I-237500J0D01*
G01*
G37*
G36*
G01*
X167179000Y-113821500D02*
X166704000Y-113821500D01*
G75*
G02*
X166466500Y-113584000I0J237500D01*
G01*
X166466500Y-112984000D01*
G75*
G02*
X166704000Y-112746500I237500J0D01*
G01*
X167179000Y-112746500D01*
G75*
G02*
X167416500Y-112984000I0J-237500D01*
G01*
X167416500Y-113584000D01*
G75*
G02*
X167179000Y-113821500I-237500J0D01*
G01*
G37*
G36*
G01*
X165624500Y-93770500D02*
X166099500Y-93770500D01*
G75*
G02*
X166337000Y-94008000I0J-237500D01*
G01*
X166337000Y-94608000D01*
G75*
G02*
X166099500Y-94845500I-237500J0D01*
G01*
X165624500Y-94845500D01*
G75*
G02*
X165387000Y-94608000I0J237500D01*
G01*
X165387000Y-94008000D01*
G75*
G02*
X165624500Y-93770500I237500J0D01*
G01*
G37*
G36*
G01*
X165624500Y-92045500D02*
X166099500Y-92045500D01*
G75*
G02*
X166337000Y-92283000I0J-237500D01*
G01*
X166337000Y-92883000D01*
G75*
G02*
X166099500Y-93120500I-237500J0D01*
G01*
X165624500Y-93120500D01*
G75*
G02*
X165387000Y-92883000I0J237500D01*
G01*
X165387000Y-92283000D01*
G75*
G02*
X165624500Y-92045500I237500J0D01*
G01*
G37*
G36*
G01*
X63991500Y-93020000D02*
X63516500Y-93020000D01*
G75*
G02*
X63279000Y-92782500I0J237500D01*
G01*
X63279000Y-92182500D01*
G75*
G02*
X63516500Y-91945000I237500J0D01*
G01*
X63991500Y-91945000D01*
G75*
G02*
X64229000Y-92182500I0J-237500D01*
G01*
X64229000Y-92782500D01*
G75*
G02*
X63991500Y-93020000I-237500J0D01*
G01*
G37*
G36*
G01*
X63991500Y-94745000D02*
X63516500Y-94745000D01*
G75*
G02*
X63279000Y-94507500I0J237500D01*
G01*
X63279000Y-93907500D01*
G75*
G02*
X63516500Y-93670000I237500J0D01*
G01*
X63991500Y-93670000D01*
G75*
G02*
X64229000Y-93907500I0J-237500D01*
G01*
X64229000Y-94507500D01*
G75*
G02*
X63991500Y-94745000I-237500J0D01*
G01*
G37*
G36*
G01*
X63737500Y-73996500D02*
X63262500Y-73996500D01*
G75*
G02*
X63025000Y-73759000I0J237500D01*
G01*
X63025000Y-73159000D01*
G75*
G02*
X63262500Y-72921500I237500J0D01*
G01*
X63737500Y-72921500D01*
G75*
G02*
X63975000Y-73159000I0J-237500D01*
G01*
X63975000Y-73759000D01*
G75*
G02*
X63737500Y-73996500I-237500J0D01*
G01*
G37*
G36*
G01*
X63737500Y-75721500D02*
X63262500Y-75721500D01*
G75*
G02*
X63025000Y-75484000I0J237500D01*
G01*
X63025000Y-74884000D01*
G75*
G02*
X63262500Y-74646500I237500J0D01*
G01*
X63737500Y-74646500D01*
G75*
G02*
X63975000Y-74884000I0J-237500D01*
G01*
X63975000Y-75484000D01*
G75*
G02*
X63737500Y-75721500I-237500J0D01*
G01*
G37*
G36*
G01*
X151875500Y-73943500D02*
X151400500Y-73943500D01*
G75*
G02*
X151163000Y-73706000I0J237500D01*
G01*
X151163000Y-73106000D01*
G75*
G02*
X151400500Y-72868500I237500J0D01*
G01*
X151875500Y-72868500D01*
G75*
G02*
X152113000Y-73106000I0J-237500D01*
G01*
X152113000Y-73706000D01*
G75*
G02*
X151875500Y-73943500I-237500J0D01*
G01*
G37*
G36*
G01*
X151875500Y-75668500D02*
X151400500Y-75668500D01*
G75*
G02*
X151163000Y-75431000I0J237500D01*
G01*
X151163000Y-74831000D01*
G75*
G02*
X151400500Y-74593500I237500J0D01*
G01*
X151875500Y-74593500D01*
G75*
G02*
X152113000Y-74831000I0J-237500D01*
G01*
X152113000Y-75431000D01*
G75*
G02*
X151875500Y-75668500I-237500J0D01*
G01*
G37*
G36*
G01*
X351108000Y-55596500D02*
X351583000Y-55596500D01*
G75*
G02*
X351820500Y-55834000I0J-237500D01*
G01*
X351820500Y-56434000D01*
G75*
G02*
X351583000Y-56671500I-237500J0D01*
G01*
X351108000Y-56671500D01*
G75*
G02*
X350870500Y-56434000I0J237500D01*
G01*
X350870500Y-55834000D01*
G75*
G02*
X351108000Y-55596500I237500J0D01*
G01*
G37*
G36*
G01*
X351108000Y-53871500D02*
X351583000Y-53871500D01*
G75*
G02*
X351820500Y-54109000I0J-237500D01*
G01*
X351820500Y-54709000D01*
G75*
G02*
X351583000Y-54946500I-237500J0D01*
G01*
X351108000Y-54946500D01*
G75*
G02*
X350870500Y-54709000I0J237500D01*
G01*
X350870500Y-54109000D01*
G75*
G02*
X351108000Y-53871500I237500J0D01*
G01*
G37*
G36*
G01*
X324946000Y-55543500D02*
X325421000Y-55543500D01*
G75*
G02*
X325658500Y-55781000I0J-237500D01*
G01*
X325658500Y-56381000D01*
G75*
G02*
X325421000Y-56618500I-237500J0D01*
G01*
X324946000Y-56618500D01*
G75*
G02*
X324708500Y-56381000I0J237500D01*
G01*
X324708500Y-55781000D01*
G75*
G02*
X324946000Y-55543500I237500J0D01*
G01*
G37*
G36*
G01*
X324946000Y-53818500D02*
X325421000Y-53818500D01*
G75*
G02*
X325658500Y-54056000I0J-237500D01*
G01*
X325658500Y-54656000D01*
G75*
G02*
X325421000Y-54893500I-237500J0D01*
G01*
X324946000Y-54893500D01*
G75*
G02*
X324708500Y-54656000I0J237500D01*
G01*
X324708500Y-54056000D01*
G75*
G02*
X324946000Y-53818500I237500J0D01*
G01*
G37*
G36*
G01*
X295736000Y-55469500D02*
X296211000Y-55469500D01*
G75*
G02*
X296448500Y-55707000I0J-237500D01*
G01*
X296448500Y-56307000D01*
G75*
G02*
X296211000Y-56544500I-237500J0D01*
G01*
X295736000Y-56544500D01*
G75*
G02*
X295498500Y-56307000I0J237500D01*
G01*
X295498500Y-55707000D01*
G75*
G02*
X295736000Y-55469500I237500J0D01*
G01*
G37*
G36*
G01*
X295736000Y-53744500D02*
X296211000Y-53744500D01*
G75*
G02*
X296448500Y-53982000I0J-237500D01*
G01*
X296448500Y-54582000D01*
G75*
G02*
X296211000Y-54819500I-237500J0D01*
G01*
X295736000Y-54819500D01*
G75*
G02*
X295498500Y-54582000I0J237500D01*
G01*
X295498500Y-53982000D01*
G75*
G02*
X295736000Y-53744500I237500J0D01*
G01*
G37*
G36*
G01*
X266018000Y-55596500D02*
X266493000Y-55596500D01*
G75*
G02*
X266730500Y-55834000I0J-237500D01*
G01*
X266730500Y-56434000D01*
G75*
G02*
X266493000Y-56671500I-237500J0D01*
G01*
X266018000Y-56671500D01*
G75*
G02*
X265780500Y-56434000I0J237500D01*
G01*
X265780500Y-55834000D01*
G75*
G02*
X266018000Y-55596500I237500J0D01*
G01*
G37*
G36*
G01*
X266018000Y-53871500D02*
X266493000Y-53871500D01*
G75*
G02*
X266730500Y-54109000I0J-237500D01*
G01*
X266730500Y-54709000D01*
G75*
G02*
X266493000Y-54946500I-237500J0D01*
G01*
X266018000Y-54946500D01*
G75*
G02*
X265780500Y-54709000I0J237500D01*
G01*
X265780500Y-54109000D01*
G75*
G02*
X266018000Y-53871500I237500J0D01*
G01*
G37*
X323945250Y-69850000D03*
X336872250Y-67310000D03*
D10*
X334918500Y-116521000D03*
X334918500Y-117921000D03*
X329418500Y-116521000D03*
X329418500Y-117921000D03*
X311042500Y-116521000D03*
X311042500Y-117921000D03*
X305542500Y-116521000D03*
X305542500Y-117921000D03*
X287166500Y-116521000D03*
X287166500Y-117921000D03*
X281666500Y-116521000D03*
X281666500Y-117921000D03*
X263417500Y-116521000D03*
X263417500Y-117921000D03*
X257917500Y-116521000D03*
X257917500Y-117921000D03*
X173057000Y-97471000D03*
X173057000Y-98871000D03*
X167557000Y-97471000D03*
X167557000Y-98871000D03*
X134957000Y-97471000D03*
X134957000Y-98871000D03*
X129457000Y-97471000D03*
X129457000Y-98871000D03*
X66123000Y-97471000D03*
X66123000Y-98871000D03*
X60623000Y-97471000D03*
X60623000Y-98871000D03*
X320567500Y-97471000D03*
X320567500Y-98871000D03*
X315067500Y-97471000D03*
X315067500Y-98871000D03*
X246653500Y-97471000D03*
X246653500Y-98871000D03*
X241153500Y-97471000D03*
X241153500Y-98871000D03*
X208553500Y-97344000D03*
X208553500Y-98744000D03*
X203053500Y-97344000D03*
X203053500Y-98744000D03*
X325266500Y-78421000D03*
X325266500Y-79821000D03*
X319766500Y-78421000D03*
X319766500Y-79821000D03*
X294278500Y-78421000D03*
X294278500Y-79821000D03*
X288778500Y-78421000D03*
X288778500Y-79821000D03*
X275228500Y-78421000D03*
X275228500Y-79821000D03*
X269728500Y-78421000D03*
X269728500Y-79821000D03*
X256305500Y-78421000D03*
X256305500Y-79821000D03*
X250805500Y-78421000D03*
X250805500Y-79821000D03*
X237128500Y-78421000D03*
X237128500Y-79821000D03*
X231628500Y-78421000D03*
X231628500Y-79821000D03*
X218205500Y-78421000D03*
X218205500Y-79821000D03*
X212705500Y-78421000D03*
X212705500Y-79821000D03*
X199282500Y-78421000D03*
X199282500Y-79821000D03*
X193782500Y-78421000D03*
X193782500Y-79821000D03*
X332505500Y-59244000D03*
X332505500Y-60644000D03*
X327005500Y-59244000D03*
X327005500Y-60644000D03*
X308756500Y-59244000D03*
X308756500Y-60644000D03*
X303256500Y-59244000D03*
X303256500Y-60644000D03*
X213379500Y-59371000D03*
X213379500Y-60771000D03*
X207879500Y-59371000D03*
X207879500Y-60771000D03*
X194329500Y-59371000D03*
X194329500Y-60771000D03*
X188829500Y-59371000D03*
X188829500Y-60771000D03*
X168485000Y-40321000D03*
X168485000Y-41721000D03*
X162985000Y-40321000D03*
X162985000Y-41721000D03*
X73235000Y-40321000D03*
X73235000Y-41721000D03*
X67735000Y-40321000D03*
X67735000Y-41721000D03*
X54185000Y-40321000D03*
X54185000Y-41721000D03*
X48685000Y-40321000D03*
X48685000Y-41721000D03*
X241954500Y-40321000D03*
X241954500Y-41721000D03*
X236454500Y-40321000D03*
X236454500Y-41721000D03*
X203981500Y-40321000D03*
X203981500Y-41721000D03*
X198481500Y-40321000D03*
X198481500Y-41721000D03*
D11*
X119475250Y-127000000D03*
X132402250Y-124460000D03*
X95662750Y-127000000D03*
X108589750Y-124460000D03*
X71786750Y-127000000D03*
X84713750Y-124460000D03*
X47974250Y-127000000D03*
X60901250Y-124460000D03*
X326326500Y-127000000D03*
X339253500Y-124460000D03*
X302514000Y-127000000D03*
X315441000Y-124460000D03*
X164655500Y-107950000D03*
X177582500Y-105410000D03*
X145605500Y-107950000D03*
X158532500Y-105410000D03*
X276320250Y-107950000D03*
X289247250Y-105410000D03*
X257270250Y-107950000D03*
X270197250Y-105410000D03*
X219170250Y-107950000D03*
X232097250Y-105410000D03*
X200120250Y-107950000D03*
X213047250Y-105410000D03*
X155130500Y-88900000D03*
X168057500Y-86360000D03*
X136080500Y-88900000D03*
X149007500Y-86360000D03*
X97980500Y-88900000D03*
X110907500Y-86360000D03*
X78930500Y-88900000D03*
X91857500Y-86360000D03*
X285845250Y-88900000D03*
X298772250Y-86360000D03*
X247745250Y-88900000D03*
X260672250Y-86360000D03*
X190595250Y-88900000D03*
X203522250Y-86360000D03*
X150368000Y-69850000D03*
X163295000Y-67310000D03*
X131318000Y-69850000D03*
X144245000Y-67310000D03*
X112268000Y-69850000D03*
X125195000Y-67310000D03*
X93218000Y-69850000D03*
X106145000Y-67310000D03*
X74168000Y-69850000D03*
X87095000Y-67310000D03*
X281082750Y-69850000D03*
X294009750Y-67310000D03*
X242982750Y-69850000D03*
X255909750Y-67310000D03*
X223932750Y-69850000D03*
X236859750Y-67310000D03*
X204882750Y-69850000D03*
X217809750Y-67310000D03*
X185832750Y-69850000D03*
X198759750Y-67310000D03*
X102743000Y-50800000D03*
X115670000Y-48260000D03*
X83693000Y-50800000D03*
X96620000Y-48260000D03*
X64643000Y-50800000D03*
X77570000Y-48260000D03*
X290607750Y-50800000D03*
X303534750Y-48260000D03*
X271557750Y-50800000D03*
X284484750Y-48260000D03*
X233457750Y-50800000D03*
X246384750Y-48260000D03*
D12*
X151003000Y-123698000D03*
X151003000Y-120148000D03*
X117729000Y-123695000D03*
X117729000Y-120145000D03*
X46228000Y-123695000D03*
X46228000Y-120145000D03*
X324532750Y-123687000D03*
X324532750Y-120137000D03*
X300720250Y-123687000D03*
X300720250Y-120137000D03*
X276907750Y-123687000D03*
X276907750Y-120137000D03*
X253174500Y-123687000D03*
X253174500Y-120137000D03*
X162941000Y-104642000D03*
X162941000Y-101092000D03*
X124793500Y-104637000D03*
X124793500Y-101087000D03*
X86693500Y-104642000D03*
X86693500Y-101092000D03*
X55753000Y-104648000D03*
X55753000Y-101098000D03*
X310070500Y-104642000D03*
X310070500Y-101092000D03*
X198310500Y-104648000D03*
X198310500Y-101098000D03*
X134318500Y-85587000D03*
X134318500Y-82037000D03*
X115268500Y-85587000D03*
X115268500Y-82037000D03*
X96218500Y-85587000D03*
X96218500Y-82037000D03*
X77168500Y-85587000D03*
X77168500Y-82037000D03*
X315023500Y-85592000D03*
X315023500Y-82042000D03*
X284035500Y-85592000D03*
X284035500Y-82042000D03*
X265160250Y-85587000D03*
X265160250Y-82037000D03*
X246110250Y-85587000D03*
X246110250Y-82037000D03*
X227060250Y-85587000D03*
X227060250Y-82037000D03*
X208010250Y-85587000D03*
X208010250Y-82037000D03*
X188960250Y-85587000D03*
X188960250Y-82037000D03*
X148606000Y-66537000D03*
X148606000Y-62987000D03*
X129556000Y-66537000D03*
X129556000Y-62987000D03*
X110506000Y-66537000D03*
X110506000Y-62987000D03*
X91456000Y-66537000D03*
X91456000Y-62987000D03*
X72406000Y-66537000D03*
X72406000Y-62987000D03*
X322246750Y-66537000D03*
X322246750Y-62987000D03*
X279320750Y-66537000D03*
X279320750Y-62987000D03*
X260270750Y-66537000D03*
X260270750Y-62987000D03*
X241220750Y-66537000D03*
X241220750Y-62987000D03*
X222170750Y-66537000D03*
X222170750Y-62987000D03*
X203120750Y-66537000D03*
X203120750Y-62987000D03*
X184070750Y-66537000D03*
X184070750Y-62987000D03*
X158131000Y-47487000D03*
X158131000Y-43937000D03*
X139081000Y-47487000D03*
X139081000Y-43937000D03*
X81931000Y-47487000D03*
X81931000Y-43937000D03*
X62881000Y-47487000D03*
X62881000Y-43937000D03*
X43831000Y-47487000D03*
X43831000Y-43937000D03*
X317404750Y-47487000D03*
X317404750Y-43937000D03*
X288829750Y-47487000D03*
X288829750Y-43937000D03*
X269779750Y-47495000D03*
X269779750Y-43945000D03*
X250729750Y-47495000D03*
X250729750Y-43945000D03*
X231695750Y-47487000D03*
X231695750Y-43937000D03*
X212645750Y-47487000D03*
X212645750Y-43937000D03*
X193595750Y-47487000D03*
X193595750Y-43937000D03*
D11*
X159893000Y-50800000D03*
X172820000Y-48260000D03*
G36*
G01*
X50654000Y-73082999D02*
X50654000Y-73983001D01*
G75*
G02*
X50404001Y-74233000I-249999J0D01*
G01*
X49703999Y-74233000D01*
G75*
G02*
X49454000Y-73983001I0J249999D01*
G01*
X49454000Y-73082999D01*
G75*
G02*
X49703999Y-72833000I249999J0D01*
G01*
X50404001Y-72833000D01*
G75*
G02*
X50654000Y-73082999I0J-249999D01*
G01*
G37*
G36*
G01*
X52654000Y-73082999D02*
X52654000Y-73983001D01*
G75*
G02*
X52404001Y-74233000I-249999J0D01*
G01*
X51703999Y-74233000D01*
G75*
G02*
X51454000Y-73983001I0J249999D01*
G01*
X51454000Y-73082999D01*
G75*
G02*
X51703999Y-72833000I249999J0D01*
G01*
X52404001Y-72833000D01*
G75*
G02*
X52654000Y-73082999I0J-249999D01*
G01*
G37*
G36*
G01*
X404700000Y-78250001D02*
X404700000Y-77349999D01*
G75*
G02*
X404949999Y-77100000I249999J0D01*
G01*
X405650001Y-77100000D01*
G75*
G02*
X405900000Y-77349999I0J-249999D01*
G01*
X405900000Y-78250001D01*
G75*
G02*
X405650001Y-78500000I-249999J0D01*
G01*
X404949999Y-78500000D01*
G75*
G02*
X404700000Y-78250001I0J249999D01*
G01*
G37*
G36*
G01*
X402700000Y-78250001D02*
X402700000Y-77349999D01*
G75*
G02*
X402949999Y-77100000I249999J0D01*
G01*
X403650001Y-77100000D01*
G75*
G02*
X403900000Y-77349999I0J-249999D01*
G01*
X403900000Y-78250001D01*
G75*
G02*
X403650001Y-78500000I-249999J0D01*
G01*
X402949999Y-78500000D01*
G75*
G02*
X402700000Y-78250001I0J249999D01*
G01*
G37*
G36*
G01*
X94852500Y-55020500D02*
X94377500Y-55020500D01*
G75*
G02*
X94140000Y-54783000I0J237500D01*
G01*
X94140000Y-54183000D01*
G75*
G02*
X94377500Y-53945500I237500J0D01*
G01*
X94852500Y-53945500D01*
G75*
G02*
X95090000Y-54183000I0J-237500D01*
G01*
X95090000Y-54783000D01*
G75*
G02*
X94852500Y-55020500I-237500J0D01*
G01*
G37*
G36*
G01*
X94852500Y-56745500D02*
X94377500Y-56745500D01*
G75*
G02*
X94140000Y-56508000I0J237500D01*
G01*
X94140000Y-55908000D01*
G75*
G02*
X94377500Y-55670500I237500J0D01*
G01*
X94852500Y-55670500D01*
G75*
G02*
X95090000Y-55908000I0J-237500D01*
G01*
X95090000Y-56508000D01*
G75*
G02*
X94852500Y-56745500I-237500J0D01*
G01*
G37*
G36*
G01*
X123300500Y-59746000D02*
X122825500Y-59746000D01*
G75*
G02*
X122588000Y-59508500I0J237500D01*
G01*
X122588000Y-58908500D01*
G75*
G02*
X122825500Y-58671000I237500J0D01*
G01*
X123300500Y-58671000D01*
G75*
G02*
X123538000Y-58908500I0J-237500D01*
G01*
X123538000Y-59508500D01*
G75*
G02*
X123300500Y-59746000I-237500J0D01*
G01*
G37*
G36*
G01*
X123300500Y-61471000D02*
X122825500Y-61471000D01*
G75*
G02*
X122588000Y-61233500I0J237500D01*
G01*
X122588000Y-60633500D01*
G75*
G02*
X122825500Y-60396000I237500J0D01*
G01*
X123300500Y-60396000D01*
G75*
G02*
X123538000Y-60633500I0J-237500D01*
G01*
X123538000Y-61233500D01*
G75*
G02*
X123300500Y-61471000I-237500J0D01*
G01*
G37*
G36*
G01*
X57514500Y-40733000D02*
X57039500Y-40733000D01*
G75*
G02*
X56802000Y-40495500I0J237500D01*
G01*
X56802000Y-39895500D01*
G75*
G02*
X57039500Y-39658000I237500J0D01*
G01*
X57514500Y-39658000D01*
G75*
G02*
X57752000Y-39895500I0J-237500D01*
G01*
X57752000Y-40495500D01*
G75*
G02*
X57514500Y-40733000I-237500J0D01*
G01*
G37*
G36*
G01*
X57514500Y-42458000D02*
X57039500Y-42458000D01*
G75*
G02*
X56802000Y-42220500I0J237500D01*
G01*
X56802000Y-41620500D01*
G75*
G02*
X57039500Y-41383000I237500J0D01*
G01*
X57514500Y-41383000D01*
G75*
G02*
X57752000Y-41620500I0J-237500D01*
G01*
X57752000Y-42220500D01*
G75*
G02*
X57514500Y-42458000I-237500J0D01*
G01*
G37*
G36*
G01*
X330120000Y-40669500D02*
X329645000Y-40669500D01*
G75*
G02*
X329407500Y-40432000I0J237500D01*
G01*
X329407500Y-39832000D01*
G75*
G02*
X329645000Y-39594500I237500J0D01*
G01*
X330120000Y-39594500D01*
G75*
G02*
X330357500Y-39832000I0J-237500D01*
G01*
X330357500Y-40432000D01*
G75*
G02*
X330120000Y-40669500I-237500J0D01*
G01*
G37*
G36*
G01*
X330120000Y-42394500D02*
X329645000Y-42394500D01*
G75*
G02*
X329407500Y-42157000I0J237500D01*
G01*
X329407500Y-41557000D01*
G75*
G02*
X329645000Y-41319500I237500J0D01*
G01*
X330120000Y-41319500D01*
G75*
G02*
X330357500Y-41557000I0J-237500D01*
G01*
X330357500Y-42157000D01*
G75*
G02*
X330120000Y-42394500I-237500J0D01*
G01*
G37*
G36*
G01*
X244395000Y-40696000D02*
X243920000Y-40696000D01*
G75*
G02*
X243682500Y-40458500I0J237500D01*
G01*
X243682500Y-39858500D01*
G75*
G02*
X243920000Y-39621000I237500J0D01*
G01*
X244395000Y-39621000D01*
G75*
G02*
X244632500Y-39858500I0J-237500D01*
G01*
X244632500Y-40458500D01*
G75*
G02*
X244395000Y-40696000I-237500J0D01*
G01*
G37*
G36*
G01*
X244395000Y-42421000D02*
X243920000Y-42421000D01*
G75*
G02*
X243682500Y-42183500I0J237500D01*
G01*
X243682500Y-41583500D01*
G75*
G02*
X243920000Y-41346000I237500J0D01*
G01*
X244395000Y-41346000D01*
G75*
G02*
X244632500Y-41583500I0J-237500D01*
G01*
X244632500Y-42183500D01*
G75*
G02*
X244395000Y-42421000I-237500J0D01*
G01*
G37*
G36*
G01*
X337359000Y-116869500D02*
X336884000Y-116869500D01*
G75*
G02*
X336646500Y-116632000I0J237500D01*
G01*
X336646500Y-116032000D01*
G75*
G02*
X336884000Y-115794500I237500J0D01*
G01*
X337359000Y-115794500D01*
G75*
G02*
X337596500Y-116032000I0J-237500D01*
G01*
X337596500Y-116632000D01*
G75*
G02*
X337359000Y-116869500I-237500J0D01*
G01*
G37*
G36*
G01*
X337359000Y-118594500D02*
X336884000Y-118594500D01*
G75*
G02*
X336646500Y-118357000I0J237500D01*
G01*
X336646500Y-117757000D01*
G75*
G02*
X336884000Y-117519500I237500J0D01*
G01*
X337359000Y-117519500D01*
G75*
G02*
X337596500Y-117757000I0J-237500D01*
G01*
X337596500Y-118357000D01*
G75*
G02*
X337359000Y-118594500I-237500J0D01*
G01*
G37*
G36*
G01*
X313483000Y-116869500D02*
X313008000Y-116869500D01*
G75*
G02*
X312770500Y-116632000I0J237500D01*
G01*
X312770500Y-116032000D01*
G75*
G02*
X313008000Y-115794500I237500J0D01*
G01*
X313483000Y-115794500D01*
G75*
G02*
X313720500Y-116032000I0J-237500D01*
G01*
X313720500Y-116632000D01*
G75*
G02*
X313483000Y-116869500I-237500J0D01*
G01*
G37*
G36*
G01*
X313483000Y-118594500D02*
X313008000Y-118594500D01*
G75*
G02*
X312770500Y-118357000I0J237500D01*
G01*
X312770500Y-117757000D01*
G75*
G02*
X313008000Y-117519500I237500J0D01*
G01*
X313483000Y-117519500D01*
G75*
G02*
X313720500Y-117757000I0J-237500D01*
G01*
X313720500Y-118357000D01*
G75*
G02*
X313483000Y-118594500I-237500J0D01*
G01*
G37*
G36*
G01*
X323008000Y-97872500D02*
X322533000Y-97872500D01*
G75*
G02*
X322295500Y-97635000I0J237500D01*
G01*
X322295500Y-97035000D01*
G75*
G02*
X322533000Y-96797500I237500J0D01*
G01*
X323008000Y-96797500D01*
G75*
G02*
X323245500Y-97035000I0J-237500D01*
G01*
X323245500Y-97635000D01*
G75*
G02*
X323008000Y-97872500I-237500J0D01*
G01*
G37*
G36*
G01*
X323008000Y-99597500D02*
X322533000Y-99597500D01*
G75*
G02*
X322295500Y-99360000I0J237500D01*
G01*
X322295500Y-98760000D01*
G75*
G02*
X322533000Y-98522500I237500J0D01*
G01*
X323008000Y-98522500D01*
G75*
G02*
X323245500Y-98760000I0J-237500D01*
G01*
X323245500Y-99360000D01*
G75*
G02*
X323008000Y-99597500I-237500J0D01*
G01*
G37*
G36*
G01*
X327707000Y-78822500D02*
X327232000Y-78822500D01*
G75*
G02*
X326994500Y-78585000I0J237500D01*
G01*
X326994500Y-77985000D01*
G75*
G02*
X327232000Y-77747500I237500J0D01*
G01*
X327707000Y-77747500D01*
G75*
G02*
X327944500Y-77985000I0J-237500D01*
G01*
X327944500Y-78585000D01*
G75*
G02*
X327707000Y-78822500I-237500J0D01*
G01*
G37*
G36*
G01*
X327707000Y-80547500D02*
X327232000Y-80547500D01*
G75*
G02*
X326994500Y-80310000I0J237500D01*
G01*
X326994500Y-79710000D01*
G75*
G02*
X327232000Y-79472500I237500J0D01*
G01*
X327707000Y-79472500D01*
G75*
G02*
X327944500Y-79710000I0J-237500D01*
G01*
X327944500Y-80310000D01*
G75*
G02*
X327707000Y-80547500I-237500J0D01*
G01*
G37*
G36*
G01*
X334946000Y-59592500D02*
X334471000Y-59592500D01*
G75*
G02*
X334233500Y-59355000I0J237500D01*
G01*
X334233500Y-58755000D01*
G75*
G02*
X334471000Y-58517500I237500J0D01*
G01*
X334946000Y-58517500D01*
G75*
G02*
X335183500Y-58755000I0J-237500D01*
G01*
X335183500Y-59355000D01*
G75*
G02*
X334946000Y-59592500I-237500J0D01*
G01*
G37*
G36*
G01*
X334946000Y-61317500D02*
X334471000Y-61317500D01*
G75*
G02*
X334233500Y-61080000I0J237500D01*
G01*
X334233500Y-60480000D01*
G75*
G02*
X334471000Y-60242500I237500J0D01*
G01*
X334946000Y-60242500D01*
G75*
G02*
X335183500Y-60480000I0J-237500D01*
G01*
X335183500Y-61080000D01*
G75*
G02*
X334946000Y-61317500I-237500J0D01*
G01*
G37*
G36*
G01*
X277321000Y-112693500D02*
X277796000Y-112693500D01*
G75*
G02*
X278033500Y-112931000I0J-237500D01*
G01*
X278033500Y-113531000D01*
G75*
G02*
X277796000Y-113768500I-237500J0D01*
G01*
X277321000Y-113768500D01*
G75*
G02*
X277083500Y-113531000I0J237500D01*
G01*
X277083500Y-112931000D01*
G75*
G02*
X277321000Y-112693500I237500J0D01*
G01*
G37*
G36*
G01*
X277321000Y-110968500D02*
X277796000Y-110968500D01*
G75*
G02*
X278033500Y-111206000I0J-237500D01*
G01*
X278033500Y-111806000D01*
G75*
G02*
X277796000Y-112043500I-237500J0D01*
G01*
X277321000Y-112043500D01*
G75*
G02*
X277083500Y-111806000I0J237500D01*
G01*
X277083500Y-111206000D01*
G75*
G02*
X277321000Y-110968500I237500J0D01*
G01*
G37*
G36*
G01*
X250872000Y-112043500D02*
X250397000Y-112043500D01*
G75*
G02*
X250159500Y-111806000I0J237500D01*
G01*
X250159500Y-111206000D01*
G75*
G02*
X250397000Y-110968500I237500J0D01*
G01*
X250872000Y-110968500D01*
G75*
G02*
X251109500Y-111206000I0J-237500D01*
G01*
X251109500Y-111806000D01*
G75*
G02*
X250872000Y-112043500I-237500J0D01*
G01*
G37*
G36*
G01*
X250872000Y-113768500D02*
X250397000Y-113768500D01*
G75*
G02*
X250159500Y-113531000I0J237500D01*
G01*
X250159500Y-112931000D01*
G75*
G02*
X250397000Y-112693500I237500J0D01*
G01*
X250872000Y-112693500D01*
G75*
G02*
X251109500Y-112931000I0J-237500D01*
G01*
X251109500Y-113531000D01*
G75*
G02*
X250872000Y-113768500I-237500J0D01*
G01*
G37*
G36*
G01*
X222297000Y-112043500D02*
X221822000Y-112043500D01*
G75*
G02*
X221584500Y-111806000I0J237500D01*
G01*
X221584500Y-111206000D01*
G75*
G02*
X221822000Y-110968500I237500J0D01*
G01*
X222297000Y-110968500D01*
G75*
G02*
X222534500Y-111206000I0J-237500D01*
G01*
X222534500Y-111806000D01*
G75*
G02*
X222297000Y-112043500I-237500J0D01*
G01*
G37*
G36*
G01*
X222297000Y-113768500D02*
X221822000Y-113768500D01*
G75*
G02*
X221584500Y-113531000I0J237500D01*
G01*
X221584500Y-112931000D01*
G75*
G02*
X221822000Y-112693500I237500J0D01*
G01*
X222297000Y-112693500D01*
G75*
G02*
X222534500Y-112931000I0J-237500D01*
G01*
X222534500Y-113531000D01*
G75*
G02*
X222297000Y-113768500I-237500J0D01*
G01*
G37*
G36*
G01*
X378794000Y-55543500D02*
X379269000Y-55543500D01*
G75*
G02*
X379506500Y-55781000I0J-237500D01*
G01*
X379506500Y-56381000D01*
G75*
G02*
X379269000Y-56618500I-237500J0D01*
G01*
X378794000Y-56618500D01*
G75*
G02*
X378556500Y-56381000I0J237500D01*
G01*
X378556500Y-55781000D01*
G75*
G02*
X378794000Y-55543500I237500J0D01*
G01*
G37*
G36*
G01*
X378794000Y-53818500D02*
X379269000Y-53818500D01*
G75*
G02*
X379506500Y-54056000I0J-237500D01*
G01*
X379506500Y-54656000D01*
G75*
G02*
X379269000Y-54893500I-237500J0D01*
G01*
X378794000Y-54893500D01*
G75*
G02*
X378556500Y-54656000I0J237500D01*
G01*
X378556500Y-54056000D01*
G75*
G02*
X378794000Y-53818500I237500J0D01*
G01*
G37*
G36*
G01*
X211121000Y-92993500D02*
X210646000Y-92993500D01*
G75*
G02*
X210408500Y-92756000I0J237500D01*
G01*
X210408500Y-92156000D01*
G75*
G02*
X210646000Y-91918500I237500J0D01*
G01*
X211121000Y-91918500D01*
G75*
G02*
X211358500Y-92156000I0J-237500D01*
G01*
X211358500Y-92756000D01*
G75*
G02*
X211121000Y-92993500I-237500J0D01*
G01*
G37*
G36*
G01*
X211121000Y-94718500D02*
X210646000Y-94718500D01*
G75*
G02*
X210408500Y-94481000I0J237500D01*
G01*
X210408500Y-93881000D01*
G75*
G02*
X210646000Y-93643500I237500J0D01*
G01*
X211121000Y-93643500D01*
G75*
G02*
X211358500Y-93881000I0J-237500D01*
G01*
X211358500Y-94481000D01*
G75*
G02*
X211121000Y-94718500I-237500J0D01*
G01*
G37*
G36*
G01*
X58911500Y-116896000D02*
X58436500Y-116896000D01*
G75*
G02*
X58199000Y-116658500I0J237500D01*
G01*
X58199000Y-116058500D01*
G75*
G02*
X58436500Y-115821000I237500J0D01*
G01*
X58911500Y-115821000D01*
G75*
G02*
X59149000Y-116058500I0J-237500D01*
G01*
X59149000Y-116658500D01*
G75*
G02*
X58911500Y-116896000I-237500J0D01*
G01*
G37*
G36*
G01*
X58911500Y-118621000D02*
X58436500Y-118621000D01*
G75*
G02*
X58199000Y-118383500I0J237500D01*
G01*
X58199000Y-117783500D01*
G75*
G02*
X58436500Y-117546000I237500J0D01*
G01*
X58911500Y-117546000D01*
G75*
G02*
X59149000Y-117783500I0J-237500D01*
G01*
X59149000Y-118383500D01*
G75*
G02*
X58911500Y-118621000I-237500J0D01*
G01*
G37*
G36*
G01*
X289607000Y-116869500D02*
X289132000Y-116869500D01*
G75*
G02*
X288894500Y-116632000I0J237500D01*
G01*
X288894500Y-116032000D01*
G75*
G02*
X289132000Y-115794500I237500J0D01*
G01*
X289607000Y-115794500D01*
G75*
G02*
X289844500Y-116032000I0J-237500D01*
G01*
X289844500Y-116632000D01*
G75*
G02*
X289607000Y-116869500I-237500J0D01*
G01*
G37*
G36*
G01*
X289607000Y-118594500D02*
X289132000Y-118594500D01*
G75*
G02*
X288894500Y-118357000I0J237500D01*
G01*
X288894500Y-117757000D01*
G75*
G02*
X289132000Y-117519500I237500J0D01*
G01*
X289607000Y-117519500D01*
G75*
G02*
X289844500Y-117757000I0J-237500D01*
G01*
X289844500Y-118357000D01*
G75*
G02*
X289607000Y-118594500I-237500J0D01*
G01*
G37*
G36*
G01*
X265858000Y-116869500D02*
X265383000Y-116869500D01*
G75*
G02*
X265145500Y-116632000I0J237500D01*
G01*
X265145500Y-116032000D01*
G75*
G02*
X265383000Y-115794500I237500J0D01*
G01*
X265858000Y-115794500D01*
G75*
G02*
X266095500Y-116032000I0J-237500D01*
G01*
X266095500Y-116632000D01*
G75*
G02*
X265858000Y-116869500I-237500J0D01*
G01*
G37*
G36*
G01*
X265858000Y-118594500D02*
X265383000Y-118594500D01*
G75*
G02*
X265145500Y-118357000I0J237500D01*
G01*
X265145500Y-117757000D01*
G75*
G02*
X265383000Y-117519500I237500J0D01*
G01*
X265858000Y-117519500D01*
G75*
G02*
X266095500Y-117757000I0J-237500D01*
G01*
X266095500Y-118357000D01*
G75*
G02*
X265858000Y-118594500I-237500J0D01*
G01*
G37*
G36*
G01*
X175497500Y-97819500D02*
X175022500Y-97819500D01*
G75*
G02*
X174785000Y-97582000I0J237500D01*
G01*
X174785000Y-96982000D01*
G75*
G02*
X175022500Y-96744500I237500J0D01*
G01*
X175497500Y-96744500D01*
G75*
G02*
X175735000Y-96982000I0J-237500D01*
G01*
X175735000Y-97582000D01*
G75*
G02*
X175497500Y-97819500I-237500J0D01*
G01*
G37*
G36*
G01*
X175497500Y-99544500D02*
X175022500Y-99544500D01*
G75*
G02*
X174785000Y-99307000I0J237500D01*
G01*
X174785000Y-98707000D01*
G75*
G02*
X175022500Y-98469500I237500J0D01*
G01*
X175497500Y-98469500D01*
G75*
G02*
X175735000Y-98707000I0J-237500D01*
G01*
X175735000Y-99307000D01*
G75*
G02*
X175497500Y-99544500I-237500J0D01*
G01*
G37*
G36*
G01*
X99551500Y-97846000D02*
X99076500Y-97846000D01*
G75*
G02*
X98839000Y-97608500I0J237500D01*
G01*
X98839000Y-97008500D01*
G75*
G02*
X99076500Y-96771000I237500J0D01*
G01*
X99551500Y-96771000D01*
G75*
G02*
X99789000Y-97008500I0J-237500D01*
G01*
X99789000Y-97608500D01*
G75*
G02*
X99551500Y-97846000I-237500J0D01*
G01*
G37*
G36*
G01*
X99551500Y-99571000D02*
X99076500Y-99571000D01*
G75*
G02*
X98839000Y-99333500I0J237500D01*
G01*
X98839000Y-98733500D01*
G75*
G02*
X99076500Y-98496000I237500J0D01*
G01*
X99551500Y-98496000D01*
G75*
G02*
X99789000Y-98733500I0J-237500D01*
G01*
X99789000Y-99333500D01*
G75*
G02*
X99551500Y-99571000I-237500J0D01*
G01*
G37*
G36*
G01*
X68563500Y-97819500D02*
X68088500Y-97819500D01*
G75*
G02*
X67851000Y-97582000I0J237500D01*
G01*
X67851000Y-96982000D01*
G75*
G02*
X68088500Y-96744500I237500J0D01*
G01*
X68563500Y-96744500D01*
G75*
G02*
X68801000Y-96982000I0J-237500D01*
G01*
X68801000Y-97582000D01*
G75*
G02*
X68563500Y-97819500I-237500J0D01*
G01*
G37*
G36*
G01*
X68563500Y-99544500D02*
X68088500Y-99544500D01*
G75*
G02*
X67851000Y-99307000I0J237500D01*
G01*
X67851000Y-98707000D01*
G75*
G02*
X68088500Y-98469500I237500J0D01*
G01*
X68563500Y-98469500D01*
G75*
G02*
X68801000Y-98707000I0J-237500D01*
G01*
X68801000Y-99307000D01*
G75*
G02*
X68563500Y-99544500I-237500J0D01*
G01*
G37*
G36*
G01*
X230044000Y-97745500D02*
X229569000Y-97745500D01*
G75*
G02*
X229331500Y-97508000I0J237500D01*
G01*
X229331500Y-96908000D01*
G75*
G02*
X229569000Y-96670500I237500J0D01*
G01*
X230044000Y-96670500D01*
G75*
G02*
X230281500Y-96908000I0J-237500D01*
G01*
X230281500Y-97508000D01*
G75*
G02*
X230044000Y-97745500I-237500J0D01*
G01*
G37*
G36*
G01*
X230044000Y-99470500D02*
X229569000Y-99470500D01*
G75*
G02*
X229331500Y-99233000I0J237500D01*
G01*
X229331500Y-98633000D01*
G75*
G02*
X229569000Y-98395500I237500J0D01*
G01*
X230044000Y-98395500D01*
G75*
G02*
X230281500Y-98633000I0J-237500D01*
G01*
X230281500Y-99233000D01*
G75*
G02*
X230044000Y-99470500I-237500J0D01*
G01*
G37*
G36*
G01*
X268271000Y-97745500D02*
X267796000Y-97745500D01*
G75*
G02*
X267558500Y-97508000I0J237500D01*
G01*
X267558500Y-96908000D01*
G75*
G02*
X267796000Y-96670500I237500J0D01*
G01*
X268271000Y-96670500D01*
G75*
G02*
X268508500Y-96908000I0J-237500D01*
G01*
X268508500Y-97508000D01*
G75*
G02*
X268271000Y-97745500I-237500J0D01*
G01*
G37*
G36*
G01*
X268271000Y-99470500D02*
X267796000Y-99470500D01*
G75*
G02*
X267558500Y-99233000I0J237500D01*
G01*
X267558500Y-98633000D01*
G75*
G02*
X267796000Y-98395500I237500J0D01*
G01*
X268271000Y-98395500D01*
G75*
G02*
X268508500Y-98633000I0J-237500D01*
G01*
X268508500Y-99233000D01*
G75*
G02*
X268271000Y-99470500I-237500J0D01*
G01*
G37*
G36*
G01*
X165972500Y-78769500D02*
X165497500Y-78769500D01*
G75*
G02*
X165260000Y-78532000I0J237500D01*
G01*
X165260000Y-77932000D01*
G75*
G02*
X165497500Y-77694500I237500J0D01*
G01*
X165972500Y-77694500D01*
G75*
G02*
X166210000Y-77932000I0J-237500D01*
G01*
X166210000Y-78532000D01*
G75*
G02*
X165972500Y-78769500I-237500J0D01*
G01*
G37*
G36*
G01*
X165972500Y-80494500D02*
X165497500Y-80494500D01*
G75*
G02*
X165260000Y-80257000I0J237500D01*
G01*
X165260000Y-79657000D01*
G75*
G02*
X165497500Y-79419500I237500J0D01*
G01*
X165972500Y-79419500D01*
G75*
G02*
X166210000Y-79657000I0J-237500D01*
G01*
X166210000Y-80257000D01*
G75*
G02*
X165972500Y-80494500I-237500J0D01*
G01*
G37*
G36*
G01*
X90026500Y-78796000D02*
X89551500Y-78796000D01*
G75*
G02*
X89314000Y-78558500I0J237500D01*
G01*
X89314000Y-77958500D01*
G75*
G02*
X89551500Y-77721000I237500J0D01*
G01*
X90026500Y-77721000D01*
G75*
G02*
X90264000Y-77958500I0J-237500D01*
G01*
X90264000Y-78558500D01*
G75*
G02*
X90026500Y-78796000I-237500J0D01*
G01*
G37*
G36*
G01*
X90026500Y-80521000D02*
X89551500Y-80521000D01*
G75*
G02*
X89314000Y-80283500I0J237500D01*
G01*
X89314000Y-79683500D01*
G75*
G02*
X89551500Y-79446000I237500J0D01*
G01*
X90026500Y-79446000D01*
G75*
G02*
X90264000Y-79683500I0J-237500D01*
G01*
X90264000Y-80283500D01*
G75*
G02*
X90026500Y-80521000I-237500J0D01*
G01*
G37*
G36*
G01*
X296719000Y-78769500D02*
X296244000Y-78769500D01*
G75*
G02*
X296006500Y-78532000I0J237500D01*
G01*
X296006500Y-77932000D01*
G75*
G02*
X296244000Y-77694500I237500J0D01*
G01*
X296719000Y-77694500D01*
G75*
G02*
X296956500Y-77932000I0J-237500D01*
G01*
X296956500Y-78532000D01*
G75*
G02*
X296719000Y-78769500I-237500J0D01*
G01*
G37*
G36*
G01*
X296719000Y-80494500D02*
X296244000Y-80494500D01*
G75*
G02*
X296006500Y-80257000I0J237500D01*
G01*
X296006500Y-79657000D01*
G75*
G02*
X296244000Y-79419500I237500J0D01*
G01*
X296719000Y-79419500D01*
G75*
G02*
X296956500Y-79657000I0J-237500D01*
G01*
X296956500Y-80257000D01*
G75*
G02*
X296719000Y-80494500I-237500J0D01*
G01*
G37*
G36*
G01*
X220646000Y-78822500D02*
X220171000Y-78822500D01*
G75*
G02*
X219933500Y-78585000I0J237500D01*
G01*
X219933500Y-77985000D01*
G75*
G02*
X220171000Y-77747500I237500J0D01*
G01*
X220646000Y-77747500D01*
G75*
G02*
X220883500Y-77985000I0J-237500D01*
G01*
X220883500Y-78585000D01*
G75*
G02*
X220646000Y-78822500I-237500J0D01*
G01*
G37*
G36*
G01*
X220646000Y-80547500D02*
X220171000Y-80547500D01*
G75*
G02*
X219933500Y-80310000I0J237500D01*
G01*
X219933500Y-79710000D01*
G75*
G02*
X220171000Y-79472500I237500J0D01*
G01*
X220646000Y-79472500D01*
G75*
G02*
X220883500Y-79710000I0J-237500D01*
G01*
X220883500Y-80310000D01*
G75*
G02*
X220646000Y-80547500I-237500J0D01*
G01*
G37*
G36*
G01*
X104377500Y-59772500D02*
X103902500Y-59772500D01*
G75*
G02*
X103665000Y-59535000I0J237500D01*
G01*
X103665000Y-58935000D01*
G75*
G02*
X103902500Y-58697500I237500J0D01*
G01*
X104377500Y-58697500D01*
G75*
G02*
X104615000Y-58935000I0J-237500D01*
G01*
X104615000Y-59535000D01*
G75*
G02*
X104377500Y-59772500I-237500J0D01*
G01*
G37*
G36*
G01*
X104377500Y-61497500D02*
X103902500Y-61497500D01*
G75*
G02*
X103665000Y-61260000I0J237500D01*
G01*
X103665000Y-60660000D01*
G75*
G02*
X103902500Y-60422500I237500J0D01*
G01*
X104377500Y-60422500D01*
G75*
G02*
X104615000Y-60660000I0J-237500D01*
G01*
X104615000Y-61260000D01*
G75*
G02*
X104377500Y-61497500I-237500J0D01*
G01*
G37*
G36*
G01*
X85073500Y-59746000D02*
X84598500Y-59746000D01*
G75*
G02*
X84361000Y-59508500I0J237500D01*
G01*
X84361000Y-58908500D01*
G75*
G02*
X84598500Y-58671000I237500J0D01*
G01*
X85073500Y-58671000D01*
G75*
G02*
X85311000Y-58908500I0J-237500D01*
G01*
X85311000Y-59508500D01*
G75*
G02*
X85073500Y-59746000I-237500J0D01*
G01*
G37*
G36*
G01*
X85073500Y-61471000D02*
X84598500Y-61471000D01*
G75*
G02*
X84361000Y-61233500I0J237500D01*
G01*
X84361000Y-60633500D01*
G75*
G02*
X84598500Y-60396000I237500J0D01*
G01*
X85073500Y-60396000D01*
G75*
G02*
X85311000Y-60633500I0J-237500D01*
G01*
X85311000Y-61233500D01*
G75*
G02*
X85073500Y-61471000I-237500J0D01*
G01*
G37*
G36*
G01*
X61324500Y-59746000D02*
X60849500Y-59746000D01*
G75*
G02*
X60612000Y-59508500I0J237500D01*
G01*
X60612000Y-58908500D01*
G75*
G02*
X60849500Y-58671000I237500J0D01*
G01*
X61324500Y-58671000D01*
G75*
G02*
X61562000Y-58908500I0J-237500D01*
G01*
X61562000Y-59508500D01*
G75*
G02*
X61324500Y-59746000I-237500J0D01*
G01*
G37*
G36*
G01*
X61324500Y-61471000D02*
X60849500Y-61471000D01*
G75*
G02*
X60612000Y-61233500I0J237500D01*
G01*
X60612000Y-60633500D01*
G75*
G02*
X60849500Y-60396000I237500J0D01*
G01*
X61324500Y-60396000D01*
G75*
G02*
X61562000Y-60633500I0J-237500D01*
G01*
X61562000Y-61233500D01*
G75*
G02*
X61324500Y-61471000I-237500J0D01*
G01*
G37*
G36*
G01*
X253920000Y-59719500D02*
X253445000Y-59719500D01*
G75*
G02*
X253207500Y-59482000I0J237500D01*
G01*
X253207500Y-58882000D01*
G75*
G02*
X253445000Y-58644500I237500J0D01*
G01*
X253920000Y-58644500D01*
G75*
G02*
X254157500Y-58882000I0J-237500D01*
G01*
X254157500Y-59482000D01*
G75*
G02*
X253920000Y-59719500I-237500J0D01*
G01*
G37*
G36*
G01*
X253920000Y-61444500D02*
X253445000Y-61444500D01*
G75*
G02*
X253207500Y-61207000I0J237500D01*
G01*
X253207500Y-60607000D01*
G75*
G02*
X253445000Y-60369500I237500J0D01*
G01*
X253920000Y-60369500D01*
G75*
G02*
X254157500Y-60607000I0J-237500D01*
G01*
X254157500Y-61207000D01*
G75*
G02*
X253920000Y-61444500I-237500J0D01*
G01*
G37*
G36*
G01*
X234870000Y-59772500D02*
X234395000Y-59772500D01*
G75*
G02*
X234157500Y-59535000I0J237500D01*
G01*
X234157500Y-58935000D01*
G75*
G02*
X234395000Y-58697500I237500J0D01*
G01*
X234870000Y-58697500D01*
G75*
G02*
X235107500Y-58935000I0J-237500D01*
G01*
X235107500Y-59535000D01*
G75*
G02*
X234870000Y-59772500I-237500J0D01*
G01*
G37*
G36*
G01*
X234870000Y-61497500D02*
X234395000Y-61497500D01*
G75*
G02*
X234157500Y-61260000I0J237500D01*
G01*
X234157500Y-60660000D01*
G75*
G02*
X234395000Y-60422500I237500J0D01*
G01*
X234870000Y-60422500D01*
G75*
G02*
X235107500Y-60660000I0J-237500D01*
G01*
X235107500Y-61260000D01*
G75*
G02*
X234870000Y-61497500I-237500J0D01*
G01*
G37*
G36*
G01*
X196770000Y-59719500D02*
X196295000Y-59719500D01*
G75*
G02*
X196057500Y-59482000I0J237500D01*
G01*
X196057500Y-58882000D01*
G75*
G02*
X196295000Y-58644500I237500J0D01*
G01*
X196770000Y-58644500D01*
G75*
G02*
X197007500Y-58882000I0J-237500D01*
G01*
X197007500Y-59482000D01*
G75*
G02*
X196770000Y-59719500I-237500J0D01*
G01*
G37*
G36*
G01*
X196770000Y-61444500D02*
X196295000Y-61444500D01*
G75*
G02*
X196057500Y-61207000I0J237500D01*
G01*
X196057500Y-60607000D01*
G75*
G02*
X196295000Y-60369500I237500J0D01*
G01*
X196770000Y-60369500D01*
G75*
G02*
X197007500Y-60607000I0J-237500D01*
G01*
X197007500Y-61207000D01*
G75*
G02*
X196770000Y-61444500I-237500J0D01*
G01*
G37*
G36*
G01*
X76564500Y-40696000D02*
X76089500Y-40696000D01*
G75*
G02*
X75852000Y-40458500I0J237500D01*
G01*
X75852000Y-39858500D01*
G75*
G02*
X76089500Y-39621000I237500J0D01*
G01*
X76564500Y-39621000D01*
G75*
G02*
X76802000Y-39858500I0J-237500D01*
G01*
X76802000Y-40458500D01*
G75*
G02*
X76564500Y-40696000I-237500J0D01*
G01*
G37*
G36*
G01*
X76564500Y-42421000D02*
X76089500Y-42421000D01*
G75*
G02*
X75852000Y-42183500I0J237500D01*
G01*
X75852000Y-41583500D01*
G75*
G02*
X76089500Y-41346000I237500J0D01*
G01*
X76564500Y-41346000D01*
G75*
G02*
X76802000Y-41583500I0J-237500D01*
G01*
X76802000Y-42183500D01*
G75*
G02*
X76564500Y-42421000I-237500J0D01*
G01*
G37*
G36*
G01*
X171814500Y-40696000D02*
X171339500Y-40696000D01*
G75*
G02*
X171102000Y-40458500I0J237500D01*
G01*
X171102000Y-39858500D01*
G75*
G02*
X171339500Y-39621000I237500J0D01*
G01*
X171814500Y-39621000D01*
G75*
G02*
X172052000Y-39858500I0J-237500D01*
G01*
X172052000Y-40458500D01*
G75*
G02*
X171814500Y-40696000I-237500J0D01*
G01*
G37*
G36*
G01*
X171814500Y-42421000D02*
X171339500Y-42421000D01*
G75*
G02*
X171102000Y-42183500I0J237500D01*
G01*
X171102000Y-41583500D01*
G75*
G02*
X171339500Y-41346000I237500J0D01*
G01*
X171814500Y-41346000D01*
G75*
G02*
X172052000Y-41583500I0J-237500D01*
G01*
X172052000Y-42183500D01*
G75*
G02*
X171814500Y-42421000I-237500J0D01*
G01*
G37*
G36*
G01*
X152637500Y-40733000D02*
X152162500Y-40733000D01*
G75*
G02*
X151925000Y-40495500I0J237500D01*
G01*
X151925000Y-39895500D01*
G75*
G02*
X152162500Y-39658000I237500J0D01*
G01*
X152637500Y-39658000D01*
G75*
G02*
X152875000Y-39895500I0J-237500D01*
G01*
X152875000Y-40495500D01*
G75*
G02*
X152637500Y-40733000I-237500J0D01*
G01*
G37*
G36*
G01*
X152637500Y-42458000D02*
X152162500Y-42458000D01*
G75*
G02*
X151925000Y-42220500I0J237500D01*
G01*
X151925000Y-41620500D01*
G75*
G02*
X152162500Y-41383000I237500J0D01*
G01*
X152637500Y-41383000D01*
G75*
G02*
X152875000Y-41620500I0J-237500D01*
G01*
X152875000Y-42220500D01*
G75*
G02*
X152637500Y-42458000I-237500J0D01*
G01*
G37*
G36*
G01*
X133397000Y-40733000D02*
X132922000Y-40733000D01*
G75*
G02*
X132684500Y-40495500I0J237500D01*
G01*
X132684500Y-39895500D01*
G75*
G02*
X132922000Y-39658000I237500J0D01*
G01*
X133397000Y-39658000D01*
G75*
G02*
X133634500Y-39895500I0J-237500D01*
G01*
X133634500Y-40495500D01*
G75*
G02*
X133397000Y-40733000I-237500J0D01*
G01*
G37*
G36*
G01*
X133397000Y-42458000D02*
X132922000Y-42458000D01*
G75*
G02*
X132684500Y-42220500I0J237500D01*
G01*
X132684500Y-41620500D01*
G75*
G02*
X132922000Y-41383000I237500J0D01*
G01*
X133397000Y-41383000D01*
G75*
G02*
X133634500Y-41620500I0J-237500D01*
G01*
X133634500Y-42220500D01*
G75*
G02*
X133397000Y-42458000I-237500J0D01*
G01*
G37*
G36*
G01*
X301545000Y-40722500D02*
X301070000Y-40722500D01*
G75*
G02*
X300832500Y-40485000I0J237500D01*
G01*
X300832500Y-39885000D01*
G75*
G02*
X301070000Y-39647500I237500J0D01*
G01*
X301545000Y-39647500D01*
G75*
G02*
X301782500Y-39885000I0J-237500D01*
G01*
X301782500Y-40485000D01*
G75*
G02*
X301545000Y-40722500I-237500J0D01*
G01*
G37*
G36*
G01*
X301545000Y-42447500D02*
X301070000Y-42447500D01*
G75*
G02*
X300832500Y-42210000I0J237500D01*
G01*
X300832500Y-41610000D01*
G75*
G02*
X301070000Y-41372500I237500J0D01*
G01*
X301545000Y-41372500D01*
G75*
G02*
X301782500Y-41610000I0J-237500D01*
G01*
X301782500Y-42210000D01*
G75*
G02*
X301545000Y-42447500I-237500J0D01*
G01*
G37*
G36*
G01*
X282622000Y-40669500D02*
X282147000Y-40669500D01*
G75*
G02*
X281909500Y-40432000I0J237500D01*
G01*
X281909500Y-39832000D01*
G75*
G02*
X282147000Y-39594500I237500J0D01*
G01*
X282622000Y-39594500D01*
G75*
G02*
X282859500Y-39832000I0J-237500D01*
G01*
X282859500Y-40432000D01*
G75*
G02*
X282622000Y-40669500I-237500J0D01*
G01*
G37*
G36*
G01*
X282622000Y-42394500D02*
X282147000Y-42394500D01*
G75*
G02*
X281909500Y-42157000I0J237500D01*
G01*
X281909500Y-41557000D01*
G75*
G02*
X282147000Y-41319500I237500J0D01*
G01*
X282622000Y-41319500D01*
G75*
G02*
X282859500Y-41557000I0J-237500D01*
G01*
X282859500Y-42157000D01*
G75*
G02*
X282622000Y-42394500I-237500J0D01*
G01*
G37*
G36*
G01*
X263445000Y-40722500D02*
X262970000Y-40722500D01*
G75*
G02*
X262732500Y-40485000I0J237500D01*
G01*
X262732500Y-39885000D01*
G75*
G02*
X262970000Y-39647500I237500J0D01*
G01*
X263445000Y-39647500D01*
G75*
G02*
X263682500Y-39885000I0J-237500D01*
G01*
X263682500Y-40485000D01*
G75*
G02*
X263445000Y-40722500I-237500J0D01*
G01*
G37*
G36*
G01*
X263445000Y-42447500D02*
X262970000Y-42447500D01*
G75*
G02*
X262732500Y-42210000I0J237500D01*
G01*
X262732500Y-41610000D01*
G75*
G02*
X262970000Y-41372500I237500J0D01*
G01*
X263445000Y-41372500D01*
G75*
G02*
X263682500Y-41610000I0J-237500D01*
G01*
X263682500Y-42210000D01*
G75*
G02*
X263445000Y-42447500I-237500J0D01*
G01*
G37*
G36*
G01*
X100313500Y-112223500D02*
X99838500Y-112223500D01*
G75*
G02*
X99601000Y-111986000I0J237500D01*
G01*
X99601000Y-111386000D01*
G75*
G02*
X99838500Y-111148500I237500J0D01*
G01*
X100313500Y-111148500D01*
G75*
G02*
X100551000Y-111386000I0J-237500D01*
G01*
X100551000Y-111986000D01*
G75*
G02*
X100313500Y-112223500I-237500J0D01*
G01*
G37*
G36*
G01*
X100313500Y-113948500D02*
X99838500Y-113948500D01*
G75*
G02*
X99601000Y-113711000I0J237500D01*
G01*
X99601000Y-113111000D01*
G75*
G02*
X99838500Y-112873500I237500J0D01*
G01*
X100313500Y-112873500D01*
G75*
G02*
X100551000Y-113111000I0J-237500D01*
G01*
X100551000Y-113711000D01*
G75*
G02*
X100313500Y-113948500I-237500J0D01*
G01*
G37*
G36*
G01*
X301832000Y-112746500D02*
X302307000Y-112746500D01*
G75*
G02*
X302544500Y-112984000I0J-237500D01*
G01*
X302544500Y-113584000D01*
G75*
G02*
X302307000Y-113821500I-237500J0D01*
G01*
X301832000Y-113821500D01*
G75*
G02*
X301594500Y-113584000I0J237500D01*
G01*
X301594500Y-112984000D01*
G75*
G02*
X301832000Y-112746500I237500J0D01*
G01*
G37*
G36*
G01*
X301832000Y-111021500D02*
X302307000Y-111021500D01*
G75*
G02*
X302544500Y-111259000I0J-237500D01*
G01*
X302544500Y-111859000D01*
G75*
G02*
X302307000Y-112096500I-237500J0D01*
G01*
X301832000Y-112096500D01*
G75*
G02*
X301594500Y-111859000I0J237500D01*
G01*
X301594500Y-111259000D01*
G75*
G02*
X301832000Y-111021500I237500J0D01*
G01*
G37*
G36*
G01*
X152002500Y-54639500D02*
X151527500Y-54639500D01*
G75*
G02*
X151290000Y-54402000I0J237500D01*
G01*
X151290000Y-53802000D01*
G75*
G02*
X151527500Y-53564500I237500J0D01*
G01*
X152002500Y-53564500D01*
G75*
G02*
X152240000Y-53802000I0J-237500D01*
G01*
X152240000Y-54402000D01*
G75*
G02*
X152002500Y-54639500I-237500J0D01*
G01*
G37*
G36*
G01*
X152002500Y-56364500D02*
X151527500Y-56364500D01*
G75*
G02*
X151290000Y-56127000I0J237500D01*
G01*
X151290000Y-55527000D01*
G75*
G02*
X151527500Y-55289500I237500J0D01*
G01*
X152002500Y-55289500D01*
G75*
G02*
X152240000Y-55527000I0J-237500D01*
G01*
X152240000Y-56127000D01*
G75*
G02*
X152002500Y-56364500I-237500J0D01*
G01*
G37*
G36*
G01*
X123300500Y-54946500D02*
X122825500Y-54946500D01*
G75*
G02*
X122588000Y-54709000I0J237500D01*
G01*
X122588000Y-54109000D01*
G75*
G02*
X122825500Y-53871500I237500J0D01*
G01*
X123300500Y-53871500D01*
G75*
G02*
X123538000Y-54109000I0J-237500D01*
G01*
X123538000Y-54709000D01*
G75*
G02*
X123300500Y-54946500I-237500J0D01*
G01*
G37*
G36*
G01*
X123300500Y-56671500D02*
X122825500Y-56671500D01*
G75*
G02*
X122588000Y-56434000I0J237500D01*
G01*
X122588000Y-55834000D01*
G75*
G02*
X122825500Y-55596500I237500J0D01*
G01*
X123300500Y-55596500D01*
G75*
G02*
X123538000Y-55834000I0J-237500D01*
G01*
X123538000Y-56434000D01*
G75*
G02*
X123300500Y-56671500I-237500J0D01*
G01*
G37*
G36*
G01*
X199470000Y-74593500D02*
X199945000Y-74593500D01*
G75*
G02*
X200182500Y-74831000I0J-237500D01*
G01*
X200182500Y-75431000D01*
G75*
G02*
X199945000Y-75668500I-237500J0D01*
G01*
X199470000Y-75668500D01*
G75*
G02*
X199232500Y-75431000I0J237500D01*
G01*
X199232500Y-74831000D01*
G75*
G02*
X199470000Y-74593500I237500J0D01*
G01*
G37*
G36*
G01*
X199470000Y-72868500D02*
X199945000Y-72868500D01*
G75*
G02*
X200182500Y-73106000I0J-237500D01*
G01*
X200182500Y-73706000D01*
G75*
G02*
X199945000Y-73943500I-237500J0D01*
G01*
X199470000Y-73943500D01*
G75*
G02*
X199232500Y-73706000I0J237500D01*
G01*
X199232500Y-73106000D01*
G75*
G02*
X199470000Y-72868500I237500J0D01*
G01*
G37*
D10*
X161246000Y-116521000D03*
X161246000Y-117921000D03*
X155746000Y-116521000D03*
X155746000Y-117921000D03*
X104096000Y-116394000D03*
X104096000Y-117794000D03*
X98596000Y-116394000D03*
X98596000Y-117794000D03*
X127972000Y-116521000D03*
X127972000Y-117921000D03*
X122472000Y-116521000D03*
X122472000Y-117921000D03*
X80347000Y-116521000D03*
X80347000Y-117921000D03*
X74847000Y-116521000D03*
X74847000Y-117921000D03*
X56471000Y-116521000D03*
X56471000Y-117921000D03*
X50971000Y-116521000D03*
X50971000Y-117921000D03*
X225317500Y-116521000D03*
X225317500Y-117921000D03*
X219817500Y-116521000D03*
X219817500Y-117921000D03*
X154134000Y-97471000D03*
X154134000Y-98871000D03*
X148634000Y-97471000D03*
X148634000Y-98871000D03*
X116034000Y-97471000D03*
X116034000Y-98871000D03*
X110534000Y-97471000D03*
X110534000Y-98871000D03*
X97111000Y-97471000D03*
X97111000Y-98871000D03*
X91611000Y-97471000D03*
X91611000Y-98871000D03*
X284753500Y-97344000D03*
X284753500Y-98744000D03*
X279253500Y-97344000D03*
X279253500Y-98744000D03*
X265830500Y-97344000D03*
X265830500Y-98744000D03*
X260330500Y-97344000D03*
X260330500Y-98744000D03*
X227603500Y-97344000D03*
X227603500Y-98744000D03*
X222103500Y-97344000D03*
X222103500Y-98744000D03*
X163532000Y-78421000D03*
X163532000Y-79821000D03*
X158032000Y-78421000D03*
X158032000Y-79821000D03*
X144736000Y-78421000D03*
X144736000Y-79821000D03*
X139236000Y-78421000D03*
X139236000Y-79821000D03*
X125559000Y-78421000D03*
X125559000Y-79821000D03*
X120059000Y-78421000D03*
X120059000Y-79821000D03*
X106509000Y-78421000D03*
X106509000Y-79821000D03*
X101009000Y-78421000D03*
X101009000Y-79821000D03*
X87459000Y-78421000D03*
X87459000Y-79821000D03*
X81959000Y-78421000D03*
X81959000Y-79821000D03*
X61297000Y-78421000D03*
X61297000Y-79821000D03*
X55797000Y-78421000D03*
X55797000Y-79821000D03*
X158833000Y-59371000D03*
X158833000Y-60771000D03*
X153333000Y-59371000D03*
X153333000Y-60771000D03*
X139910000Y-59371000D03*
X139910000Y-60771000D03*
X134410000Y-59371000D03*
X134410000Y-60771000D03*
X120733000Y-59371000D03*
X120733000Y-60771000D03*
X115233000Y-59371000D03*
X115233000Y-60771000D03*
X101810000Y-59371000D03*
X101810000Y-60771000D03*
X96310000Y-59371000D03*
X96310000Y-60771000D03*
X82633000Y-59371000D03*
X82633000Y-60771000D03*
X77133000Y-59371000D03*
X77133000Y-60771000D03*
X58884000Y-59371000D03*
X58884000Y-60771000D03*
X53384000Y-59371000D03*
X53384000Y-60771000D03*
X289706500Y-59244000D03*
X289706500Y-60644000D03*
X284206500Y-59244000D03*
X284206500Y-60644000D03*
X270529500Y-59371000D03*
X270529500Y-60771000D03*
X265029500Y-59371000D03*
X265029500Y-60771000D03*
X251479500Y-59371000D03*
X251479500Y-60771000D03*
X245979500Y-59371000D03*
X245979500Y-60771000D03*
X232429500Y-59371000D03*
X232429500Y-60771000D03*
X226929500Y-59371000D03*
X226929500Y-60771000D03*
X149308000Y-40321000D03*
X149308000Y-41721000D03*
X143808000Y-40321000D03*
X143808000Y-41721000D03*
X130258000Y-40321000D03*
X130258000Y-41721000D03*
X124758000Y-40321000D03*
X124758000Y-41721000D03*
X111208000Y-40321000D03*
X111208000Y-41721000D03*
X105708000Y-40321000D03*
X105708000Y-41721000D03*
X92158000Y-40321000D03*
X92158000Y-41721000D03*
X86658000Y-40321000D03*
X86658000Y-41721000D03*
X327679500Y-40321000D03*
X327679500Y-41721000D03*
X322179500Y-40321000D03*
X322179500Y-41721000D03*
X299104500Y-40321000D03*
X299104500Y-41721000D03*
X293604500Y-40321000D03*
X293604500Y-41721000D03*
X280181500Y-40321000D03*
X280181500Y-41721000D03*
X274681500Y-40321000D03*
X274681500Y-41721000D03*
X261004500Y-40321000D03*
X261004500Y-41721000D03*
X255504500Y-40321000D03*
X255504500Y-41721000D03*
X222904500Y-40321000D03*
X222904500Y-41721000D03*
X217404500Y-40321000D03*
X217404500Y-41721000D03*
D11*
X254889000Y-127000000D03*
X267816000Y-124460000D03*
X107505500Y-107950000D03*
X120432500Y-105410000D03*
X88455500Y-107950000D03*
X101382500Y-105410000D03*
X238220250Y-107950000D03*
X251147250Y-105410000D03*
X228695250Y-88900000D03*
X241622250Y-86360000D03*
X209645250Y-88900000D03*
X222572250Y-86360000D03*
X300132750Y-69850000D03*
X313059750Y-67310000D03*
X262032750Y-69850000D03*
X274959750Y-67310000D03*
X121793000Y-50800000D03*
X134720000Y-48260000D03*
X252507750Y-50800000D03*
X265434750Y-48260000D03*
X214407750Y-50800000D03*
X227334750Y-48260000D03*
D12*
X93853000Y-123692000D03*
X93853000Y-120142000D03*
X69850000Y-123692000D03*
X69850000Y-120142000D03*
X215074500Y-123692000D03*
X215074500Y-120142000D03*
X143843500Y-104637000D03*
X143843500Y-101087000D03*
X105743500Y-104637000D03*
X105743500Y-101087000D03*
X274510500Y-104648000D03*
X274510500Y-101098000D03*
X255460500Y-104648000D03*
X255460500Y-101098000D03*
X236410500Y-104645000D03*
X236410500Y-101095000D03*
X217360500Y-104648000D03*
X217360500Y-101098000D03*
X153368500Y-85587000D03*
X153368500Y-82037000D03*
X51054000Y-85595000D03*
X51054000Y-82045000D03*
X48641000Y-66545000D03*
X48641000Y-62995000D03*
X298370750Y-66537000D03*
X298370750Y-62987000D03*
X120031000Y-47487000D03*
X120031000Y-43937000D03*
X100981000Y-47487000D03*
X100981000Y-43937000D03*
M02*
