%FSLAX45Y45*%
G04 Gerber Fmt 4.5, Leading zero omitted, Abs format (unit mm)*
G04 Created by KiCad (PCBNEW (5.1.9)-1) date 2021-03-29 22:20:54*
%MOMM*%
%LPD*%
G01*
G04 APERTURE LIST*
%TA.AperFunction,Profile*%
%ADD10C,0.200000*%
%TD*%
%ADD11C,0.200000*%
%ADD12C,0.300000*%
G04 APERTURE END LIST*
D10*
X18351500Y-5524500D02*
X18415000Y-5524500D01*
X4711700Y-3073400D02*
X4711700Y-3505200D01*
X2108200Y-3073400D02*
X2108200Y-2324100D01*
X2108200Y-3073400D02*
X4203700Y-3073400D01*
X2108200Y-2324100D02*
X42678350Y-2324100D01*
X16916400Y-3073400D02*
X19672300Y-3073400D01*
X16408400Y-3505200D02*
X16408400Y-3073400D01*
X4203700Y-3505200D02*
X4203700Y-3073400D01*
X42678350Y-2324100D02*
X42678350Y-3073400D01*
X16916400Y-3073400D02*
X16916400Y-3505200D01*
X16408400Y-3073400D02*
X4711700Y-3073400D01*
X19672300Y-3505200D02*
X19672300Y-3073400D01*
X20180300Y-3073400D02*
X20180300Y-3505200D01*
X40601900Y-3073400D02*
X40601900Y-3505200D01*
X40601900Y-3073400D02*
X42678350Y-3073400D01*
X40093900Y-3073400D02*
X20180300Y-3073400D01*
X40093900Y-3505200D02*
X40093900Y-3073400D01*
X42684700Y-13652500D02*
X40589200Y-13652500D01*
X28384500Y-13665200D02*
X25120600Y-13665200D01*
X42684700Y-14401800D02*
X2108200Y-14401800D01*
X2108200Y-14401800D02*
X2108200Y-13652500D01*
X4191000Y-13652500D02*
X2108200Y-13652500D01*
X28384500Y-13665200D02*
X40081200Y-13665200D01*
X4699000Y-13652500D02*
X13195300Y-13652500D01*
X42684700Y-13652500D02*
X42684700Y-14401800D01*
X13703300Y-13665200D02*
X24612600Y-13665200D01*
X4699000Y-13220700D02*
X4699000Y-13652500D01*
X4191000Y-13652500D02*
X4191000Y-13220700D01*
X13703300Y-13220700D02*
X13703300Y-13665200D01*
X13195300Y-13652500D02*
X13195300Y-13220700D01*
X25120600Y-13220700D02*
X25120600Y-13665200D01*
X24612600Y-13665200D02*
X24612600Y-13220700D01*
X40081200Y-13665200D02*
X40081200Y-13220700D01*
X40589200Y-13220700D02*
X40589200Y-13652500D01*
X13703300Y-13220700D02*
X17856200Y-13220700D01*
X40589200Y-13220700D02*
X42538650Y-13220700D01*
X28384500Y-13220700D02*
X25120600Y-13220700D01*
X24612600Y-13220700D02*
X19786600Y-13220700D01*
X2247900Y-13220700D02*
X4191000Y-13220700D01*
X4699000Y-13220700D02*
X13195300Y-13220700D01*
X40601900Y-3505200D02*
X42538650Y-3505200D01*
X2247900Y-3505200D02*
X4203700Y-3505200D01*
X18554700Y-3505200D02*
X19672300Y-3505200D01*
X16916400Y-3505200D02*
X18110200Y-3505200D01*
X18211800Y-5664200D02*
G75*
G02*
X18351500Y-5524500I139700J0D01*
G01*
X18351500Y-7429500D02*
G75*
G02*
X18211800Y-7289800I0J139700D01*
G01*
X18554700Y-7429500D02*
G75*
G02*
X18694400Y-7569200I0J-139700D01*
G01*
X18834100Y-9334500D02*
G75*
G02*
X18694400Y-9194800I0J139700D01*
G01*
X19507200Y-9334500D02*
G75*
G02*
X19646900Y-9474200I0J-139700D01*
G01*
X19786600Y-13220700D02*
G75*
G02*
X19646900Y-13081000I0J139700D01*
G01*
X17995900Y-13081000D02*
G75*
G02*
X17856200Y-13220700I-139700J0D01*
G01*
X17856200Y-9334500D02*
G75*
G02*
X17995900Y-9474200I0J-139700D01*
G01*
X17183100Y-9334500D02*
G75*
G02*
X17043400Y-9194800I0J139700D01*
G01*
X16903700Y-7429500D02*
G75*
G02*
X17043400Y-7569200I0J-139700D01*
G01*
X16713200Y-7429500D02*
G75*
G02*
X16573500Y-7289800I0J139700D01*
G01*
X16573500Y-5664200D02*
G75*
G02*
X16713200Y-5524500I139700J0D01*
G01*
X18249900Y-5384800D02*
G75*
G02*
X18110200Y-5524500I-139700J0D01*
G01*
X18110200Y-3505200D02*
G75*
G02*
X18249900Y-3644900I0J-139700D01*
G01*
X18415000Y-3644900D02*
G75*
G02*
X18554700Y-3505200I139700J0D01*
G01*
X20180300Y-3505200D02*
X40093900Y-3505200D01*
X28384500Y-13220700D02*
X40081200Y-13220700D01*
X18415000Y-5524500D02*
X18415000Y-3644900D01*
X18211800Y-7289800D02*
X18211800Y-5664200D01*
X18554700Y-7429500D02*
X18351500Y-7429500D01*
X18694400Y-9194800D02*
X18694400Y-7569200D01*
X19507200Y-9334500D02*
X18834100Y-9334500D01*
X19646900Y-13081000D02*
X19646900Y-9474200D01*
X18249900Y-5384800D02*
X18249900Y-3644900D01*
X16713200Y-5524500D02*
X18110200Y-5524500D01*
X16573500Y-7289800D02*
X16573500Y-5664200D01*
X16903700Y-7429500D02*
X16713200Y-7429500D01*
X17043400Y-9194800D02*
X17043400Y-7569200D01*
X17856200Y-9334500D02*
X17183100Y-9334500D01*
X17995900Y-13081000D02*
X17995900Y-9474200D01*
X2108200Y-3644900D02*
G75*
G02*
X2247900Y-3505200I139700J0D01*
G01*
X42538650Y-3505200D02*
G75*
G02*
X42678350Y-3644900I0J-139700D01*
G01*
X42678488Y-13074650D02*
G75*
G02*
X42538650Y-13220700I-146188J0D01*
G01*
X2247900Y-13220700D02*
G75*
G02*
X2108200Y-13081000I0J139700D01*
G01*
X4711700Y-3505200D02*
X16408400Y-3505200D01*
X42678350Y-3644900D02*
X42678488Y-13074650D01*
X2108200Y-13081000D02*
X2108200Y-3644900D01*
D11*
X4187500Y-13205000D02*
X4217500Y-13235000D01*
X4217500Y-13205000D02*
X4187500Y-13235000D01*
X4197500Y-3495000D02*
X4227500Y-3525000D01*
X4227500Y-3495000D02*
X4197500Y-3525000D01*
X4246875Y-13205000D02*
X4276875Y-13235000D01*
X4276875Y-13205000D02*
X4246875Y-13235000D01*
X4256875Y-3495000D02*
X4286875Y-3525000D01*
X4286875Y-3495000D02*
X4256875Y-3525000D01*
X4306250Y-13205000D02*
X4336250Y-13235000D01*
X4336250Y-13205000D02*
X4306250Y-13235000D01*
X4316250Y-3495000D02*
X4346250Y-3525000D01*
X4346250Y-3495000D02*
X4316250Y-3525000D01*
X4365625Y-13205000D02*
X4395625Y-13235000D01*
X4395625Y-13205000D02*
X4365625Y-13235000D01*
X4375625Y-3495000D02*
X4405625Y-3525000D01*
X4405625Y-3495000D02*
X4375625Y-3525000D01*
X4425000Y-13205000D02*
X4455000Y-13235000D01*
X4455000Y-13205000D02*
X4425000Y-13235000D01*
X4435000Y-3495000D02*
X4465000Y-3525000D01*
X4465000Y-3495000D02*
X4435000Y-3525000D01*
X4484375Y-13205000D02*
X4514375Y-13235000D01*
X4514375Y-13205000D02*
X4484375Y-13235000D01*
X4494375Y-3495000D02*
X4524375Y-3525000D01*
X4524375Y-3495000D02*
X4494375Y-3525000D01*
X4543750Y-13205000D02*
X4573750Y-13235000D01*
X4573750Y-13205000D02*
X4543750Y-13235000D01*
X4553750Y-3495000D02*
X4583750Y-3525000D01*
X4583750Y-3495000D02*
X4553750Y-3525000D01*
X4603125Y-13205000D02*
X4633125Y-13235000D01*
X4633125Y-13205000D02*
X4603125Y-13235000D01*
X4613125Y-3495000D02*
X4643125Y-3525000D01*
X4643125Y-3495000D02*
X4613125Y-3525000D01*
X4662500Y-13205000D02*
X4692500Y-13235000D01*
X4692500Y-13205000D02*
X4662500Y-13235000D01*
X4672500Y-3495000D02*
X4702500Y-3525000D01*
X4702500Y-3495000D02*
X4672500Y-3525000D01*
X13197500Y-13205000D02*
X13227500Y-13235000D01*
X13227500Y-13205000D02*
X13197500Y-13235000D01*
X13256875Y-13205000D02*
X13286875Y-13235000D01*
X13286875Y-13205000D02*
X13256875Y-13235000D01*
X13316250Y-13205000D02*
X13346250Y-13235000D01*
X13346250Y-13205000D02*
X13316250Y-13235000D01*
X13375625Y-13205000D02*
X13405625Y-13235000D01*
X13405625Y-13205000D02*
X13375625Y-13235000D01*
X13435000Y-13205000D02*
X13465000Y-13235000D01*
X13465000Y-13205000D02*
X13435000Y-13235000D01*
X13494375Y-13205000D02*
X13524375Y-13235000D01*
X13524375Y-13205000D02*
X13494375Y-13235000D01*
X13553750Y-13205000D02*
X13583750Y-13235000D01*
X13583750Y-13205000D02*
X13553750Y-13235000D01*
X13613125Y-13205000D02*
X13643125Y-13235000D01*
X13643125Y-13205000D02*
X13613125Y-13235000D01*
X13672500Y-13205000D02*
X13702500Y-13235000D01*
X13702500Y-13205000D02*
X13672500Y-13235000D01*
X16407500Y-3495000D02*
X16437500Y-3525000D01*
X16437500Y-3495000D02*
X16407500Y-3525000D01*
X16466875Y-3495000D02*
X16496875Y-3525000D01*
X16496875Y-3495000D02*
X16466875Y-3525000D01*
X16526250Y-3495000D02*
X16556250Y-3525000D01*
X16556250Y-3495000D02*
X16526250Y-3525000D01*
X16585625Y-3495000D02*
X16615625Y-3525000D01*
X16615625Y-3495000D02*
X16585625Y-3525000D01*
X16645000Y-3495000D02*
X16675000Y-3525000D01*
X16675000Y-3495000D02*
X16645000Y-3525000D01*
X16704375Y-3495000D02*
X16734375Y-3525000D01*
X16734375Y-3495000D02*
X16704375Y-3525000D01*
X16763750Y-3495000D02*
X16793750Y-3525000D01*
X16793750Y-3495000D02*
X16763750Y-3525000D01*
X16823125Y-3495000D02*
X16853125Y-3525000D01*
X16853125Y-3495000D02*
X16823125Y-3525000D01*
X16882500Y-3495000D02*
X16912500Y-3525000D01*
X16912500Y-3495000D02*
X16882500Y-3525000D01*
X19677500Y-3495000D02*
X19707500Y-3525000D01*
X19707500Y-3495000D02*
X19677500Y-3525000D01*
X19736875Y-3495000D02*
X19766875Y-3525000D01*
X19766875Y-3495000D02*
X19736875Y-3525000D01*
X19796250Y-3495000D02*
X19826250Y-3525000D01*
X19826250Y-3495000D02*
X19796250Y-3525000D01*
X19855625Y-3495000D02*
X19885625Y-3525000D01*
X19885625Y-3495000D02*
X19855625Y-3525000D01*
X19915000Y-3495000D02*
X19945000Y-3525000D01*
X19945000Y-3495000D02*
X19915000Y-3525000D01*
X19974375Y-3495000D02*
X20004375Y-3525000D01*
X20004375Y-3495000D02*
X19974375Y-3525000D01*
X20033750Y-3495000D02*
X20063750Y-3525000D01*
X20063750Y-3495000D02*
X20033750Y-3525000D01*
X20093125Y-3495000D02*
X20123125Y-3525000D01*
X20123125Y-3495000D02*
X20093125Y-3525000D01*
X20152500Y-3495000D02*
X20182500Y-3525000D01*
X20182500Y-3495000D02*
X20152500Y-3525000D01*
X24617500Y-13215000D02*
X24647500Y-13245000D01*
X24647500Y-13215000D02*
X24617500Y-13245000D01*
X24676875Y-13215000D02*
X24706875Y-13245000D01*
X24706875Y-13215000D02*
X24676875Y-13245000D01*
X24736250Y-13215000D02*
X24766250Y-13245000D01*
X24766250Y-13215000D02*
X24736250Y-13245000D01*
X24795625Y-13215000D02*
X24825625Y-13245000D01*
X24825625Y-13215000D02*
X24795625Y-13245000D01*
X24855000Y-13215000D02*
X24885000Y-13245000D01*
X24885000Y-13215000D02*
X24855000Y-13245000D01*
X24914375Y-13215000D02*
X24944375Y-13245000D01*
X24944375Y-13215000D02*
X24914375Y-13245000D01*
X24973750Y-13215000D02*
X25003750Y-13245000D01*
X25003750Y-13215000D02*
X24973750Y-13245000D01*
X25033125Y-13215000D02*
X25063125Y-13245000D01*
X25063125Y-13215000D02*
X25033125Y-13245000D01*
X25092500Y-13215000D02*
X25122500Y-13245000D01*
X25122500Y-13215000D02*
X25092500Y-13245000D01*
X40077500Y-13205000D02*
X40107500Y-13235000D01*
X40107500Y-13205000D02*
X40077500Y-13235000D01*
X40097500Y-3495000D02*
X40127500Y-3525000D01*
X40127500Y-3495000D02*
X40097500Y-3525000D01*
X40136875Y-13205000D02*
X40166875Y-13235000D01*
X40166875Y-13205000D02*
X40136875Y-13235000D01*
X40156875Y-3495000D02*
X40186875Y-3525000D01*
X40186875Y-3495000D02*
X40156875Y-3525000D01*
X40196250Y-13205000D02*
X40226250Y-13235000D01*
X40226250Y-13205000D02*
X40196250Y-13235000D01*
X40216250Y-3495000D02*
X40246250Y-3525000D01*
X40246250Y-3495000D02*
X40216250Y-3525000D01*
X40255625Y-13205000D02*
X40285625Y-13235000D01*
X40285625Y-13205000D02*
X40255625Y-13235000D01*
X40275625Y-3495000D02*
X40305625Y-3525000D01*
X40305625Y-3495000D02*
X40275625Y-3525000D01*
X40315000Y-13205000D02*
X40345000Y-13235000D01*
X40345000Y-13205000D02*
X40315000Y-13235000D01*
X40335000Y-3495000D02*
X40365000Y-3525000D01*
X40365000Y-3495000D02*
X40335000Y-3525000D01*
X40374375Y-13205000D02*
X40404375Y-13235000D01*
X40404375Y-13205000D02*
X40374375Y-13235000D01*
X40394375Y-3495000D02*
X40424375Y-3525000D01*
X40424375Y-3495000D02*
X40394375Y-3525000D01*
X40433750Y-13205000D02*
X40463750Y-13235000D01*
X40463750Y-13205000D02*
X40433750Y-13235000D01*
X40453750Y-3495000D02*
X40483750Y-3525000D01*
X40483750Y-3495000D02*
X40453750Y-3525000D01*
X40493125Y-13205000D02*
X40523125Y-13235000D01*
X40523125Y-13205000D02*
X40493125Y-13235000D01*
X40513125Y-3495000D02*
X40543125Y-3525000D01*
X40543125Y-3495000D02*
X40513125Y-3525000D01*
X40552500Y-13205000D02*
X40582500Y-13235000D01*
X40582500Y-13205000D02*
X40552500Y-13235000D01*
X40572500Y-3495000D02*
X40602500Y-3525000D01*
X40602500Y-3495000D02*
X40572500Y-3525000D01*
X17955200Y-3863000D02*
G75*
G03*
X17955200Y-3863000I-60000J0D01*
G01*
X17955200Y-4563000D02*
G75*
G03*
X17955200Y-4563000I-60000J0D01*
G01*
X18862350Y-3850300D02*
G75*
G03*
X18862350Y-3850300I-60000J0D01*
G01*
X18862350Y-4550300D02*
G75*
G03*
X18862350Y-4550300I-60000J0D01*
G01*
X4873625Y-12104500D02*
X4873625Y-12279500D01*
X4786125Y-12192000D02*
X4961125Y-12192000D01*
X5349875Y-8294500D02*
X5349875Y-8469500D01*
X5262375Y-8382000D02*
X5437375Y-8382000D01*
X5826125Y-10199500D02*
X5826125Y-10374500D01*
X5738625Y-10287000D02*
X5913625Y-10287000D01*
X5889625Y-12104500D02*
X5889625Y-12279500D01*
X5802125Y-12192000D02*
X5977125Y-12192000D01*
X6365875Y-8294500D02*
X6365875Y-8469500D01*
X6278375Y-8382000D02*
X6453375Y-8382000D01*
X6842125Y-10199500D02*
X6842125Y-10374500D01*
X6754625Y-10287000D02*
X6929625Y-10287000D01*
X7254875Y-12104500D02*
X7254875Y-12279500D01*
X7167375Y-12192000D02*
X7342375Y-12192000D01*
X8270875Y-12104500D02*
X8270875Y-12279500D01*
X8183375Y-12192000D02*
X8358375Y-12192000D01*
X9642475Y-12104500D02*
X9642475Y-12279500D01*
X9554975Y-12192000D02*
X9729975Y-12192000D01*
X10658475Y-12104500D02*
X10658475Y-12279500D01*
X10570975Y-12192000D02*
X10745975Y-12192000D01*
X12023725Y-12104500D02*
X12023725Y-12279500D01*
X11936225Y-12192000D02*
X12111225Y-12192000D01*
X13039725Y-12104500D02*
X13039725Y-12279500D01*
X12952225Y-12192000D02*
X13127225Y-12192000D01*
X15351125Y-12104500D02*
X15351125Y-12279500D01*
X15263625Y-12192000D02*
X15438625Y-12192000D01*
X15351125Y-12104500D02*
X15351125Y-12279500D01*
X15263625Y-12192000D02*
X15438625Y-12192000D01*
X16367125Y-12104500D02*
X16367125Y-12279500D01*
X16279625Y-12192000D02*
X16454625Y-12192000D01*
X16367125Y-12104500D02*
X16367125Y-12279500D01*
X16279625Y-12192000D02*
X16454625Y-12192000D01*
X21755100Y-12104500D02*
X21755100Y-12279500D01*
X21667600Y-12192000D02*
X21842600Y-12192000D01*
X21755100Y-12104500D02*
X21755100Y-12279500D01*
X21667600Y-12192000D02*
X21842600Y-12192000D01*
X22771100Y-12104500D02*
X22771100Y-12279500D01*
X22683600Y-12192000D02*
X22858600Y-12192000D01*
X22771100Y-12104500D02*
X22771100Y-12279500D01*
X22683600Y-12192000D02*
X22858600Y-12192000D01*
X25565100Y-12104500D02*
X25565100Y-12279500D01*
X25477600Y-12192000D02*
X25652600Y-12192000D01*
X26581100Y-12104500D02*
X26581100Y-12279500D01*
X26493600Y-12192000D02*
X26668600Y-12192000D01*
X27946350Y-12104500D02*
X27946350Y-12279500D01*
X27858850Y-12192000D02*
X28033850Y-12192000D01*
X28962350Y-12104500D02*
X28962350Y-12279500D01*
X28874850Y-12192000D02*
X29049850Y-12192000D01*
X30327600Y-12104500D02*
X30327600Y-12279500D01*
X30240100Y-12192000D02*
X30415100Y-12192000D01*
X31280100Y-10199500D02*
X31280100Y-10374500D01*
X31192600Y-10287000D02*
X31367600Y-10287000D01*
X31343600Y-12104500D02*
X31343600Y-12279500D01*
X31256100Y-12192000D02*
X31431100Y-12192000D01*
X31756350Y-8294500D02*
X31756350Y-8469500D01*
X31668850Y-8382000D02*
X31843850Y-8382000D01*
X31994475Y-4484500D02*
X31994475Y-4659500D01*
X31906975Y-4572000D02*
X32081975Y-4572000D01*
X32296100Y-10199500D02*
X32296100Y-10374500D01*
X32208600Y-10287000D02*
X32383600Y-10287000D01*
X32708850Y-12104500D02*
X32708850Y-12279500D01*
X32621350Y-12192000D02*
X32796350Y-12192000D01*
X32772350Y-8294500D02*
X32772350Y-8469500D01*
X32684850Y-8382000D02*
X32859850Y-8382000D01*
X33010475Y-4484500D02*
X33010475Y-4659500D01*
X32922975Y-4572000D02*
X33097975Y-4572000D01*
X33724850Y-12104500D02*
X33724850Y-12279500D01*
X33637350Y-12192000D02*
X33812350Y-12192000D01*
X4702676Y-4639176D02*
X4702676Y-4504824D01*
X4568324Y-4504824D01*
X4568324Y-4639176D01*
X4702676Y-4639176D01*
X4940801Y-12259176D02*
X4940801Y-12124824D01*
X4806449Y-12124824D01*
X4806449Y-12259176D01*
X4940801Y-12259176D01*
X5178926Y-6544176D02*
X5178926Y-6409824D01*
X5044574Y-6409824D01*
X5044574Y-6544176D01*
X5178926Y-6544176D01*
X5417051Y-8449176D02*
X5417051Y-8314824D01*
X5282699Y-8314824D01*
X5282699Y-8449176D01*
X5417051Y-8449176D01*
X5718676Y-4639176D02*
X5718676Y-4504824D01*
X5584324Y-4504824D01*
X5584324Y-4639176D01*
X5718676Y-4639176D01*
X5893301Y-10354176D02*
X5893301Y-10219824D01*
X5758949Y-10219824D01*
X5758949Y-10354176D01*
X5893301Y-10354176D01*
X5956801Y-12259176D02*
X5956801Y-12124824D01*
X5822449Y-12124824D01*
X5822449Y-12259176D01*
X5956801Y-12259176D01*
X6194926Y-6544176D02*
X6194926Y-6409824D01*
X6060574Y-6409824D01*
X6060574Y-6544176D01*
X6194926Y-6544176D01*
X6433051Y-8449176D02*
X6433051Y-8314824D01*
X6298699Y-8314824D01*
X6298699Y-8449176D01*
X6433051Y-8449176D01*
X6607676Y-4639176D02*
X6607676Y-4504824D01*
X6473324Y-4504824D01*
X6473324Y-4639176D01*
X6607676Y-4639176D01*
X6909301Y-10354176D02*
X6909301Y-10219824D01*
X6774949Y-10219824D01*
X6774949Y-10354176D01*
X6909301Y-10354176D01*
X7322051Y-12259176D02*
X7322051Y-12124824D01*
X7187699Y-12124824D01*
X7187699Y-12259176D01*
X7322051Y-12259176D01*
X7560176Y-6544176D02*
X7560176Y-6409824D01*
X7425824Y-6409824D01*
X7425824Y-6544176D01*
X7560176Y-6544176D01*
X7623676Y-4639176D02*
X7623676Y-4504824D01*
X7489324Y-4504824D01*
X7489324Y-4639176D01*
X7623676Y-4639176D01*
X8036426Y-8449176D02*
X8036426Y-8314824D01*
X7902074Y-8314824D01*
X7902074Y-8449176D01*
X8036426Y-8449176D01*
X8338051Y-12259176D02*
X8338051Y-12124824D01*
X8203699Y-12124824D01*
X8203699Y-12259176D01*
X8338051Y-12259176D01*
X8512676Y-4639176D02*
X8512676Y-4504824D01*
X8378324Y-4504824D01*
X8378324Y-4639176D01*
X8512676Y-4639176D01*
X8576176Y-6544176D02*
X8576176Y-6409824D01*
X8441824Y-6409824D01*
X8441824Y-6544176D01*
X8576176Y-6544176D01*
X8988926Y-10354176D02*
X8988926Y-10219824D01*
X8854574Y-10219824D01*
X8854574Y-10354176D01*
X8988926Y-10354176D01*
X9052426Y-8449176D02*
X9052426Y-8314824D01*
X8918074Y-8314824D01*
X8918074Y-8449176D01*
X9052426Y-8449176D01*
X9465176Y-6544176D02*
X9465176Y-6409824D01*
X9330824Y-6409824D01*
X9330824Y-6544176D01*
X9465176Y-6544176D01*
X9528676Y-4639176D02*
X9528676Y-4504824D01*
X9394324Y-4504824D01*
X9394324Y-4639176D01*
X9528676Y-4639176D01*
X9709651Y-12259176D02*
X9709651Y-12124824D01*
X9575299Y-12124824D01*
X9575299Y-12259176D01*
X9709651Y-12259176D01*
X9941426Y-8449176D02*
X9941426Y-8314824D01*
X9807074Y-8314824D01*
X9807074Y-8449176D01*
X9941426Y-8449176D01*
X10004926Y-10354176D02*
X10004926Y-10219824D01*
X9870574Y-10219824D01*
X9870574Y-10354176D01*
X10004926Y-10354176D01*
X10417676Y-4639176D02*
X10417676Y-4504824D01*
X10283324Y-4504824D01*
X10283324Y-4639176D01*
X10417676Y-4639176D01*
X10481176Y-6544176D02*
X10481176Y-6409824D01*
X10346824Y-6409824D01*
X10346824Y-6544176D01*
X10481176Y-6544176D01*
X10725651Y-12259176D02*
X10725651Y-12124824D01*
X10591299Y-12124824D01*
X10591299Y-12259176D01*
X10725651Y-12259176D01*
X10893926Y-10354176D02*
X10893926Y-10219824D01*
X10759574Y-10219824D01*
X10759574Y-10354176D01*
X10893926Y-10354176D01*
X10957426Y-8449176D02*
X10957426Y-8314824D01*
X10823074Y-8314824D01*
X10823074Y-8449176D01*
X10957426Y-8449176D01*
X11370176Y-6544176D02*
X11370176Y-6409824D01*
X11235824Y-6409824D01*
X11235824Y-6544176D01*
X11370176Y-6544176D01*
X11433676Y-4639176D02*
X11433676Y-4504824D01*
X11299324Y-4504824D01*
X11299324Y-4639176D01*
X11433676Y-4639176D01*
X11846426Y-8449176D02*
X11846426Y-8314824D01*
X11712074Y-8314824D01*
X11712074Y-8449176D01*
X11846426Y-8449176D01*
X11909926Y-10354176D02*
X11909926Y-10219824D01*
X11775574Y-10219824D01*
X11775574Y-10354176D01*
X11909926Y-10354176D01*
X12090901Y-12259176D02*
X12090901Y-12124824D01*
X11956549Y-12124824D01*
X11956549Y-12259176D01*
X12090901Y-12259176D01*
X12322676Y-4639176D02*
X12322676Y-4504824D01*
X12188324Y-4504824D01*
X12188324Y-4639176D01*
X12322676Y-4639176D01*
X12386176Y-6544176D02*
X12386176Y-6409824D01*
X12251824Y-6409824D01*
X12251824Y-6544176D01*
X12386176Y-6544176D01*
X12798926Y-10354176D02*
X12798926Y-10219824D01*
X12664574Y-10219824D01*
X12664574Y-10354176D01*
X12798926Y-10354176D01*
X12862426Y-8449176D02*
X12862426Y-8314824D01*
X12728074Y-8314824D01*
X12728074Y-8449176D01*
X12862426Y-8449176D01*
X13106901Y-12259176D02*
X13106901Y-12124824D01*
X12972549Y-12124824D01*
X12972549Y-12259176D01*
X13106901Y-12259176D01*
X13275176Y-6544176D02*
X13275176Y-6409824D01*
X13140824Y-6409824D01*
X13140824Y-6544176D01*
X13275176Y-6544176D01*
X13338676Y-4639176D02*
X13338676Y-4504824D01*
X13204324Y-4504824D01*
X13204324Y-4639176D01*
X13338676Y-4639176D01*
X13751426Y-8449176D02*
X13751426Y-8314824D01*
X13617074Y-8314824D01*
X13617074Y-8449176D01*
X13751426Y-8449176D01*
X13814926Y-10354176D02*
X13814926Y-10219824D01*
X13680574Y-10219824D01*
X13680574Y-10354176D01*
X13814926Y-10354176D01*
X14227676Y-4639176D02*
X14227676Y-4504824D01*
X14093324Y-4504824D01*
X14093324Y-4639176D01*
X14227676Y-4639176D01*
X14291176Y-6544176D02*
X14291176Y-6409824D01*
X14156824Y-6409824D01*
X14156824Y-6544176D01*
X14291176Y-6544176D01*
X14703926Y-10354176D02*
X14703926Y-10219824D01*
X14569574Y-10219824D01*
X14569574Y-10354176D01*
X14703926Y-10354176D01*
X14767426Y-8449176D02*
X14767426Y-8314824D01*
X14633074Y-8314824D01*
X14633074Y-8449176D01*
X14767426Y-8449176D01*
X15180176Y-6544176D02*
X15180176Y-6409824D01*
X15045824Y-6409824D01*
X15045824Y-6544176D01*
X15180176Y-6544176D01*
X15243676Y-4639176D02*
X15243676Y-4504824D01*
X15109324Y-4504824D01*
X15109324Y-4639176D01*
X15243676Y-4639176D01*
X15418301Y-12259176D02*
X15418301Y-12124824D01*
X15283949Y-12124824D01*
X15283949Y-12259176D01*
X15418301Y-12259176D01*
X15656426Y-8449176D02*
X15656426Y-8314824D01*
X15522074Y-8314824D01*
X15522074Y-8449176D01*
X15656426Y-8449176D01*
X15719926Y-10354176D02*
X15719926Y-10219824D01*
X15585574Y-10219824D01*
X15585574Y-10354176D01*
X15719926Y-10354176D01*
X16132676Y-4639176D02*
X16132676Y-4504824D01*
X15998324Y-4504824D01*
X15998324Y-4639176D01*
X16132676Y-4639176D01*
X16196176Y-6544176D02*
X16196176Y-6409824D01*
X16061824Y-6409824D01*
X16061824Y-6544176D01*
X16196176Y-6544176D01*
X16434301Y-12259176D02*
X16434301Y-12124824D01*
X16299949Y-12124824D01*
X16299949Y-12259176D01*
X16434301Y-12259176D01*
X16608926Y-10354176D02*
X16608926Y-10219824D01*
X16474574Y-10219824D01*
X16474574Y-10354176D01*
X16608926Y-10354176D01*
X16672426Y-8449176D02*
X16672426Y-8314824D01*
X16538074Y-8314824D01*
X16538074Y-8449176D01*
X16672426Y-8449176D01*
X17148676Y-4639176D02*
X17148676Y-4504824D01*
X17014324Y-4504824D01*
X17014324Y-4639176D01*
X17148676Y-4639176D01*
X17624926Y-10354176D02*
X17624926Y-10219824D01*
X17490574Y-10219824D01*
X17490574Y-10354176D01*
X17624926Y-10354176D01*
X18726651Y-6544176D02*
X18726651Y-6409824D01*
X18592299Y-6409824D01*
X18592299Y-6544176D01*
X18726651Y-6544176D01*
X19202901Y-8449176D02*
X19202901Y-8314824D01*
X19068549Y-8314824D01*
X19068549Y-8449176D01*
X19202901Y-8449176D01*
X19679151Y-4639176D02*
X19679151Y-4504824D01*
X19544799Y-4504824D01*
X19544799Y-4639176D01*
X19679151Y-4639176D01*
X19742651Y-6544176D02*
X19742651Y-6409824D01*
X19608299Y-6409824D01*
X19608299Y-6544176D01*
X19742651Y-6544176D01*
X20155401Y-10354176D02*
X20155401Y-10219824D01*
X20021049Y-10219824D01*
X20021049Y-10354176D01*
X20155401Y-10354176D01*
X20218901Y-8449176D02*
X20218901Y-8314824D01*
X20084549Y-8314824D01*
X20084549Y-8449176D01*
X20218901Y-8449176D01*
X20631651Y-6544176D02*
X20631651Y-6409824D01*
X20497299Y-6409824D01*
X20497299Y-6544176D01*
X20631651Y-6544176D01*
X20695151Y-4639176D02*
X20695151Y-4504824D01*
X20560799Y-4504824D01*
X20560799Y-4639176D01*
X20695151Y-4639176D01*
X21107901Y-8449176D02*
X21107901Y-8314824D01*
X20973549Y-8314824D01*
X20973549Y-8449176D01*
X21107901Y-8449176D01*
X21171401Y-10354176D02*
X21171401Y-10219824D01*
X21037049Y-10219824D01*
X21037049Y-10354176D01*
X21171401Y-10354176D01*
X21584151Y-4639176D02*
X21584151Y-4504824D01*
X21449799Y-4504824D01*
X21449799Y-4639176D01*
X21584151Y-4639176D01*
X21647651Y-6544176D02*
X21647651Y-6409824D01*
X21513299Y-6409824D01*
X21513299Y-6544176D01*
X21647651Y-6544176D01*
X21822276Y-12259176D02*
X21822276Y-12124824D01*
X21687924Y-12124824D01*
X21687924Y-12259176D01*
X21822276Y-12259176D01*
X22060401Y-10354176D02*
X22060401Y-10219824D01*
X21926049Y-10219824D01*
X21926049Y-10354176D01*
X22060401Y-10354176D01*
X22123901Y-8449176D02*
X22123901Y-8314824D01*
X21989549Y-8314824D01*
X21989549Y-8449176D01*
X22123901Y-8449176D01*
X22536651Y-6544176D02*
X22536651Y-6409824D01*
X22402299Y-6409824D01*
X22402299Y-6544176D01*
X22536651Y-6544176D01*
X22600151Y-4639176D02*
X22600151Y-4504824D01*
X22465799Y-4504824D01*
X22465799Y-4639176D01*
X22600151Y-4639176D01*
X22838276Y-12259176D02*
X22838276Y-12124824D01*
X22703924Y-12124824D01*
X22703924Y-12259176D01*
X22838276Y-12259176D01*
X23012901Y-8449176D02*
X23012901Y-8314824D01*
X22878549Y-8314824D01*
X22878549Y-8449176D01*
X23012901Y-8449176D01*
X23076401Y-10354176D02*
X23076401Y-10219824D01*
X22942049Y-10219824D01*
X22942049Y-10354176D01*
X23076401Y-10354176D01*
X23489151Y-4639176D02*
X23489151Y-4504824D01*
X23354799Y-4504824D01*
X23354799Y-4639176D01*
X23489151Y-4639176D01*
X23552651Y-6544176D02*
X23552651Y-6409824D01*
X23418299Y-6409824D01*
X23418299Y-6544176D01*
X23552651Y-6544176D01*
X23965401Y-10354176D02*
X23965401Y-10219824D01*
X23831049Y-10219824D01*
X23831049Y-10354176D01*
X23965401Y-10354176D01*
X24028901Y-8449176D02*
X24028901Y-8314824D01*
X23894549Y-8314824D01*
X23894549Y-8449176D01*
X24028901Y-8449176D01*
X24441651Y-6544176D02*
X24441651Y-6409824D01*
X24307299Y-6409824D01*
X24307299Y-6544176D01*
X24441651Y-6544176D01*
X24505151Y-4639176D02*
X24505151Y-4504824D01*
X24370799Y-4504824D01*
X24370799Y-4639176D01*
X24505151Y-4639176D01*
X24917901Y-8449176D02*
X24917901Y-8314824D01*
X24783549Y-8314824D01*
X24783549Y-8449176D01*
X24917901Y-8449176D01*
X24981401Y-10354176D02*
X24981401Y-10219824D01*
X24847049Y-10219824D01*
X24847049Y-10354176D01*
X24981401Y-10354176D01*
X25394151Y-4639176D02*
X25394151Y-4504824D01*
X25259799Y-4504824D01*
X25259799Y-4639176D01*
X25394151Y-4639176D01*
X25457651Y-6544176D02*
X25457651Y-6409824D01*
X25323299Y-6409824D01*
X25323299Y-6544176D01*
X25457651Y-6544176D01*
X25632276Y-12259176D02*
X25632276Y-12124824D01*
X25497924Y-12124824D01*
X25497924Y-12259176D01*
X25632276Y-12259176D01*
X25870401Y-10354176D02*
X25870401Y-10219824D01*
X25736049Y-10219824D01*
X25736049Y-10354176D01*
X25870401Y-10354176D01*
X25933901Y-8449176D02*
X25933901Y-8314824D01*
X25799549Y-8314824D01*
X25799549Y-8449176D01*
X25933901Y-8449176D01*
X26346651Y-6544176D02*
X26346651Y-6409824D01*
X26212299Y-6409824D01*
X26212299Y-6544176D01*
X26346651Y-6544176D01*
X26410151Y-4639176D02*
X26410151Y-4504824D01*
X26275799Y-4504824D01*
X26275799Y-4639176D01*
X26410151Y-4639176D01*
X26648276Y-12259176D02*
X26648276Y-12124824D01*
X26513924Y-12124824D01*
X26513924Y-12259176D01*
X26648276Y-12259176D01*
X26822901Y-8449176D02*
X26822901Y-8314824D01*
X26688549Y-8314824D01*
X26688549Y-8449176D01*
X26822901Y-8449176D01*
X26886401Y-10354176D02*
X26886401Y-10219824D01*
X26752049Y-10219824D01*
X26752049Y-10354176D01*
X26886401Y-10354176D01*
X27299151Y-4639176D02*
X27299151Y-4504824D01*
X27164799Y-4504824D01*
X27164799Y-4639176D01*
X27299151Y-4639176D01*
X27362651Y-6544176D02*
X27362651Y-6409824D01*
X27228299Y-6409824D01*
X27228299Y-6544176D01*
X27362651Y-6544176D01*
X27775401Y-10354176D02*
X27775401Y-10219824D01*
X27641049Y-10219824D01*
X27641049Y-10354176D01*
X27775401Y-10354176D01*
X27838901Y-8449176D02*
X27838901Y-8314824D01*
X27704549Y-8314824D01*
X27704549Y-8449176D01*
X27838901Y-8449176D01*
X28013526Y-12259176D02*
X28013526Y-12124824D01*
X27879174Y-12124824D01*
X27879174Y-12259176D01*
X28013526Y-12259176D01*
X28251651Y-6544176D02*
X28251651Y-6409824D01*
X28117299Y-6409824D01*
X28117299Y-6544176D01*
X28251651Y-6544176D01*
X28315151Y-4639176D02*
X28315151Y-4504824D01*
X28180799Y-4504824D01*
X28180799Y-4639176D01*
X28315151Y-4639176D01*
X28727901Y-8449176D02*
X28727901Y-8314824D01*
X28593549Y-8314824D01*
X28593549Y-8449176D01*
X28727901Y-8449176D01*
X28791401Y-10354176D02*
X28791401Y-10219824D01*
X28657049Y-10219824D01*
X28657049Y-10354176D01*
X28791401Y-10354176D01*
X29029526Y-12259176D02*
X29029526Y-12124824D01*
X28895174Y-12124824D01*
X28895174Y-12259176D01*
X29029526Y-12259176D01*
X29204151Y-4639176D02*
X29204151Y-4504824D01*
X29069799Y-4504824D01*
X29069799Y-4639176D01*
X29204151Y-4639176D01*
X29267651Y-6544176D02*
X29267651Y-6409824D01*
X29133299Y-6409824D01*
X29133299Y-6544176D01*
X29267651Y-6544176D01*
X29743901Y-8449176D02*
X29743901Y-8314824D01*
X29609549Y-8314824D01*
X29609549Y-8449176D01*
X29743901Y-8449176D01*
X30156651Y-6544176D02*
X30156651Y-6409824D01*
X30022299Y-6409824D01*
X30022299Y-6544176D01*
X30156651Y-6544176D01*
X30220151Y-4639176D02*
X30220151Y-4504824D01*
X30085799Y-4504824D01*
X30085799Y-4639176D01*
X30220151Y-4639176D01*
X30394776Y-12259176D02*
X30394776Y-12124824D01*
X30260424Y-12124824D01*
X30260424Y-12259176D01*
X30394776Y-12259176D01*
X31172651Y-6544176D02*
X31172651Y-6409824D01*
X31038299Y-6409824D01*
X31038299Y-6544176D01*
X31172651Y-6544176D01*
X31347276Y-10354176D02*
X31347276Y-10219824D01*
X31212924Y-10219824D01*
X31212924Y-10354176D01*
X31347276Y-10354176D01*
X31410776Y-12259176D02*
X31410776Y-12124824D01*
X31276424Y-12124824D01*
X31276424Y-12259176D01*
X31410776Y-12259176D01*
X31823526Y-8449176D02*
X31823526Y-8314824D01*
X31689174Y-8314824D01*
X31689174Y-8449176D01*
X31823526Y-8449176D01*
X32061651Y-4639176D02*
X32061651Y-4504824D01*
X31927299Y-4504824D01*
X31927299Y-4639176D01*
X32061651Y-4639176D01*
X32363276Y-10354176D02*
X32363276Y-10219824D01*
X32228924Y-10219824D01*
X32228924Y-10354176D01*
X32363276Y-10354176D01*
X32537901Y-6544176D02*
X32537901Y-6409824D01*
X32403549Y-6409824D01*
X32403549Y-6544176D01*
X32537901Y-6544176D01*
X32776026Y-12259176D02*
X32776026Y-12124824D01*
X32641674Y-12124824D01*
X32641674Y-12259176D01*
X32776026Y-12259176D01*
X32839526Y-8449176D02*
X32839526Y-8314824D01*
X32705174Y-8314824D01*
X32705174Y-8449176D01*
X32839526Y-8449176D01*
X33077651Y-4639176D02*
X33077651Y-4504824D01*
X32943299Y-4504824D01*
X32943299Y-4639176D01*
X33077651Y-4639176D01*
X33553901Y-6544176D02*
X33553901Y-6409824D01*
X33419549Y-6409824D01*
X33419549Y-6544176D01*
X33553901Y-6544176D01*
X33792026Y-12259176D02*
X33792026Y-12124824D01*
X33657674Y-12124824D01*
X33657674Y-12259176D01*
X33792026Y-12259176D01*
X35395326Y-4639176D02*
X35395326Y-4504824D01*
X35260974Y-4504824D01*
X35260974Y-4639176D01*
X35395326Y-4639176D01*
X35395326Y-6544176D02*
X35395326Y-6409824D01*
X35260974Y-6409824D01*
X35260974Y-6544176D01*
X35395326Y-6544176D01*
X35395326Y-12259176D02*
X35395326Y-12124824D01*
X35260974Y-12124824D01*
X35260974Y-12259176D01*
X35395326Y-12259176D01*
X36411326Y-4639176D02*
X36411326Y-4504824D01*
X36276974Y-4504824D01*
X36276974Y-4639176D01*
X36411326Y-4639176D01*
X36411326Y-6544176D02*
X36411326Y-6409824D01*
X36276974Y-6409824D01*
X36276974Y-6544176D01*
X36411326Y-6544176D01*
X36411326Y-12259176D02*
X36411326Y-12124824D01*
X36276974Y-12124824D01*
X36276974Y-12259176D01*
X36411326Y-12259176D01*
X37297226Y-10354176D02*
X37297226Y-10219824D01*
X37162874Y-10219824D01*
X37162874Y-10354176D01*
X37297226Y-10354176D01*
X37297226Y-12259176D02*
X37297226Y-12124824D01*
X37162874Y-12124824D01*
X37162874Y-12259176D01*
X37297226Y-12259176D01*
X37303576Y-4639176D02*
X37303576Y-4504824D01*
X37169224Y-4504824D01*
X37169224Y-4639176D01*
X37303576Y-4639176D01*
X37303576Y-6544176D02*
X37303576Y-6409824D01*
X37169224Y-6409824D01*
X37169224Y-6544176D01*
X37303576Y-6544176D01*
X38313226Y-10354176D02*
X38313226Y-10219824D01*
X38178874Y-10219824D01*
X38178874Y-10354176D01*
X38313226Y-10354176D01*
X38313226Y-12259176D02*
X38313226Y-12124824D01*
X38178874Y-12124824D01*
X38178874Y-12259176D01*
X38313226Y-12259176D01*
X38319576Y-4639176D02*
X38319576Y-4504824D01*
X38185224Y-4504824D01*
X38185224Y-4639176D01*
X38319576Y-4639176D01*
X38319576Y-6544176D02*
X38319576Y-6409824D01*
X38185224Y-6409824D01*
X38185224Y-6544176D01*
X38319576Y-6544176D01*
X39202226Y-12259176D02*
X39202226Y-12124824D01*
X39067874Y-12124824D01*
X39067874Y-12259176D01*
X39202226Y-12259176D01*
X39208576Y-4639176D02*
X39208576Y-4504824D01*
X39074224Y-4504824D01*
X39074224Y-4639176D01*
X39208576Y-4639176D01*
X39208576Y-6544176D02*
X39208576Y-6409824D01*
X39074224Y-6409824D01*
X39074224Y-6544176D01*
X39208576Y-6544176D01*
X40218226Y-12259176D02*
X40218226Y-12124824D01*
X40083874Y-12124824D01*
X40083874Y-12259176D01*
X40218226Y-12259176D01*
X40224576Y-4639176D02*
X40224576Y-4504824D01*
X40090224Y-4504824D01*
X40090224Y-4639176D01*
X40224576Y-4639176D01*
X40224576Y-6544176D02*
X40224576Y-6409824D01*
X40090224Y-6409824D01*
X40090224Y-6544176D01*
X40224576Y-6544176D01*
X4889500Y-5230000D02*
X5039500Y-5080000D01*
X4889500Y-4930000D01*
X4739500Y-5080000D01*
X4889500Y-5230000D01*
X5127625Y-12850000D02*
X5277625Y-12700000D01*
X5127625Y-12550000D01*
X4977625Y-12700000D01*
X5127625Y-12850000D01*
X5365750Y-7135000D02*
X5515750Y-6985000D01*
X5365750Y-6835000D01*
X5215750Y-6985000D01*
X5365750Y-7135000D01*
X5524500Y-4976000D02*
X5674500Y-4826000D01*
X5524500Y-4676000D01*
X5374500Y-4826000D01*
X5524500Y-4976000D01*
X5603875Y-9040000D02*
X5753875Y-8890000D01*
X5603875Y-8740000D01*
X5453875Y-8890000D01*
X5603875Y-9040000D01*
X5762625Y-12596000D02*
X5912625Y-12446000D01*
X5762625Y-12296000D01*
X5612625Y-12446000D01*
X5762625Y-12596000D01*
X6000750Y-6881000D02*
X6150750Y-6731000D01*
X6000750Y-6581000D01*
X5850750Y-6731000D01*
X6000750Y-6881000D01*
X6080125Y-10945000D02*
X6230125Y-10795000D01*
X6080125Y-10645000D01*
X5930125Y-10795000D01*
X6080125Y-10945000D01*
X6238875Y-8786000D02*
X6388875Y-8636000D01*
X6238875Y-8486000D01*
X6088875Y-8636000D01*
X6238875Y-8786000D01*
X6715125Y-10691000D02*
X6865125Y-10541000D01*
X6715125Y-10391000D01*
X6565125Y-10541000D01*
X6715125Y-10691000D01*
X6794500Y-5230000D02*
X6944500Y-5080000D01*
X6794500Y-4930000D01*
X6644500Y-5080000D01*
X6794500Y-5230000D01*
X7429500Y-4976000D02*
X7579500Y-4826000D01*
X7429500Y-4676000D01*
X7279500Y-4826000D01*
X7429500Y-4976000D01*
X7508875Y-12850000D02*
X7658875Y-12700000D01*
X7508875Y-12550000D01*
X7358875Y-12700000D01*
X7508875Y-12850000D01*
X7747000Y-7135000D02*
X7897000Y-6985000D01*
X7747000Y-6835000D01*
X7597000Y-6985000D01*
X7747000Y-7135000D01*
X8143875Y-12596000D02*
X8293875Y-12446000D01*
X8143875Y-12296000D01*
X7993875Y-12446000D01*
X8143875Y-12596000D01*
X8223250Y-9040000D02*
X8373250Y-8890000D01*
X8223250Y-8740000D01*
X8073250Y-8890000D01*
X8223250Y-9040000D01*
X8382000Y-6881000D02*
X8532000Y-6731000D01*
X8382000Y-6581000D01*
X8232000Y-6731000D01*
X8382000Y-6881000D01*
X8699500Y-5230000D02*
X8849500Y-5080000D01*
X8699500Y-4930000D01*
X8549500Y-5080000D01*
X8699500Y-5230000D01*
X8858250Y-8786000D02*
X9008250Y-8636000D01*
X8858250Y-8486000D01*
X8708250Y-8636000D01*
X8858250Y-8786000D01*
X9175750Y-10945000D02*
X9325750Y-10795000D01*
X9175750Y-10645000D01*
X9025750Y-10795000D01*
X9175750Y-10945000D01*
X9334500Y-4976000D02*
X9484500Y-4826000D01*
X9334500Y-4676000D01*
X9184500Y-4826000D01*
X9334500Y-4976000D01*
X9652000Y-7135000D02*
X9802000Y-6985000D01*
X9652000Y-6835000D01*
X9502000Y-6985000D01*
X9652000Y-7135000D01*
X9810750Y-10691000D02*
X9960750Y-10541000D01*
X9810750Y-10391000D01*
X9660750Y-10541000D01*
X9810750Y-10691000D01*
X9896475Y-12850000D02*
X10046475Y-12700000D01*
X9896475Y-12550000D01*
X9746475Y-12700000D01*
X9896475Y-12850000D01*
X10128250Y-9040000D02*
X10278250Y-8890000D01*
X10128250Y-8740000D01*
X9978250Y-8890000D01*
X10128250Y-9040000D01*
X10287000Y-6881000D02*
X10437000Y-6731000D01*
X10287000Y-6581000D01*
X10137000Y-6731000D01*
X10287000Y-6881000D01*
X10531475Y-12596000D02*
X10681475Y-12446000D01*
X10531475Y-12296000D01*
X10381475Y-12446000D01*
X10531475Y-12596000D01*
X10604500Y-5230000D02*
X10754500Y-5080000D01*
X10604500Y-4930000D01*
X10454500Y-5080000D01*
X10604500Y-5230000D01*
X10763250Y-8786000D02*
X10913250Y-8636000D01*
X10763250Y-8486000D01*
X10613250Y-8636000D01*
X10763250Y-8786000D01*
X11080750Y-10945000D02*
X11230750Y-10795000D01*
X11080750Y-10645000D01*
X10930750Y-10795000D01*
X11080750Y-10945000D01*
X11239500Y-4976000D02*
X11389500Y-4826000D01*
X11239500Y-4676000D01*
X11089500Y-4826000D01*
X11239500Y-4976000D01*
X11557000Y-7135000D02*
X11707000Y-6985000D01*
X11557000Y-6835000D01*
X11407000Y-6985000D01*
X11557000Y-7135000D01*
X11715750Y-10691000D02*
X11865750Y-10541000D01*
X11715750Y-10391000D01*
X11565750Y-10541000D01*
X11715750Y-10691000D01*
X12033250Y-9040000D02*
X12183250Y-8890000D01*
X12033250Y-8740000D01*
X11883250Y-8890000D01*
X12033250Y-9040000D01*
X12192000Y-6881000D02*
X12342000Y-6731000D01*
X12192000Y-6581000D01*
X12042000Y-6731000D01*
X12192000Y-6881000D01*
X12277725Y-12850000D02*
X12427725Y-12700000D01*
X12277725Y-12550000D01*
X12127725Y-12700000D01*
X12277725Y-12850000D01*
X12509500Y-5230000D02*
X12659500Y-5080000D01*
X12509500Y-4930000D01*
X12359500Y-5080000D01*
X12509500Y-5230000D01*
X12668250Y-8786000D02*
X12818250Y-8636000D01*
X12668250Y-8486000D01*
X12518250Y-8636000D01*
X12668250Y-8786000D01*
X12912725Y-12596000D02*
X13062725Y-12446000D01*
X12912725Y-12296000D01*
X12762725Y-12446000D01*
X12912725Y-12596000D01*
X12985750Y-10945000D02*
X13135750Y-10795000D01*
X12985750Y-10645000D01*
X12835750Y-10795000D01*
X12985750Y-10945000D01*
X13144500Y-4976000D02*
X13294500Y-4826000D01*
X13144500Y-4676000D01*
X12994500Y-4826000D01*
X13144500Y-4976000D01*
X13462000Y-7135000D02*
X13612000Y-6985000D01*
X13462000Y-6835000D01*
X13312000Y-6985000D01*
X13462000Y-7135000D01*
X13620750Y-10691000D02*
X13770750Y-10541000D01*
X13620750Y-10391000D01*
X13470750Y-10541000D01*
X13620750Y-10691000D01*
X13938250Y-9040000D02*
X14088250Y-8890000D01*
X13938250Y-8740000D01*
X13788250Y-8890000D01*
X13938250Y-9040000D01*
X14097000Y-6881000D02*
X14247000Y-6731000D01*
X14097000Y-6581000D01*
X13947000Y-6731000D01*
X14097000Y-6881000D01*
X14414500Y-5230000D02*
X14564500Y-5080000D01*
X14414500Y-4930000D01*
X14264500Y-5080000D01*
X14414500Y-5230000D01*
X14573250Y-8786000D02*
X14723250Y-8636000D01*
X14573250Y-8486000D01*
X14423250Y-8636000D01*
X14573250Y-8786000D01*
X14890750Y-10945000D02*
X15040750Y-10795000D01*
X14890750Y-10645000D01*
X14740750Y-10795000D01*
X14890750Y-10945000D01*
X15049500Y-4976000D02*
X15199500Y-4826000D01*
X15049500Y-4676000D01*
X14899500Y-4826000D01*
X15049500Y-4976000D01*
X15367000Y-7135000D02*
X15517000Y-6985000D01*
X15367000Y-6835000D01*
X15217000Y-6985000D01*
X15367000Y-7135000D01*
X15525750Y-10691000D02*
X15675750Y-10541000D01*
X15525750Y-10391000D01*
X15375750Y-10541000D01*
X15525750Y-10691000D01*
X15605125Y-12850000D02*
X15755125Y-12700000D01*
X15605125Y-12550000D01*
X15455125Y-12700000D01*
X15605125Y-12850000D01*
X15843250Y-9040000D02*
X15993250Y-8890000D01*
X15843250Y-8740000D01*
X15693250Y-8890000D01*
X15843250Y-9040000D01*
X16002000Y-6881000D02*
X16152000Y-6731000D01*
X16002000Y-6581000D01*
X15852000Y-6731000D01*
X16002000Y-6881000D01*
X16240125Y-12596000D02*
X16390125Y-12446000D01*
X16240125Y-12296000D01*
X16090125Y-12446000D01*
X16240125Y-12596000D01*
X16319500Y-5230000D02*
X16469500Y-5080000D01*
X16319500Y-4930000D01*
X16169500Y-5080000D01*
X16319500Y-5230000D01*
X16478250Y-8786000D02*
X16628250Y-8636000D01*
X16478250Y-8486000D01*
X16328250Y-8636000D01*
X16478250Y-8786000D01*
X16795750Y-10945000D02*
X16945750Y-10795000D01*
X16795750Y-10645000D01*
X16645750Y-10795000D01*
X16795750Y-10945000D01*
X16954500Y-4976000D02*
X17104500Y-4826000D01*
X16954500Y-4676000D01*
X16804500Y-4826000D01*
X16954500Y-4976000D01*
X17430750Y-10691000D02*
X17580750Y-10541000D01*
X17430750Y-10391000D01*
X17280750Y-10541000D01*
X17430750Y-10691000D01*
X18913475Y-7135000D02*
X19063475Y-6985000D01*
X18913475Y-6835000D01*
X18763475Y-6985000D01*
X18913475Y-7135000D01*
X19389725Y-9040000D02*
X19539725Y-8890000D01*
X19389725Y-8740000D01*
X19239725Y-8890000D01*
X19389725Y-9040000D01*
X19548475Y-6881000D02*
X19698475Y-6731000D01*
X19548475Y-6581000D01*
X19398475Y-6731000D01*
X19548475Y-6881000D01*
X19865975Y-5230000D02*
X20015975Y-5080000D01*
X19865975Y-4930000D01*
X19715975Y-5080000D01*
X19865975Y-5230000D01*
X20024725Y-8786000D02*
X20174725Y-8636000D01*
X20024725Y-8486000D01*
X19874725Y-8636000D01*
X20024725Y-8786000D01*
X20342225Y-10945000D02*
X20492225Y-10795000D01*
X20342225Y-10645000D01*
X20192225Y-10795000D01*
X20342225Y-10945000D01*
X20500975Y-4976000D02*
X20650975Y-4826000D01*
X20500975Y-4676000D01*
X20350975Y-4826000D01*
X20500975Y-4976000D01*
X20818475Y-7135000D02*
X20968475Y-6985000D01*
X20818475Y-6835000D01*
X20668475Y-6985000D01*
X20818475Y-7135000D01*
X20977225Y-10691000D02*
X21127225Y-10541000D01*
X20977225Y-10391000D01*
X20827225Y-10541000D01*
X20977225Y-10691000D01*
X21294725Y-9040000D02*
X21444725Y-8890000D01*
X21294725Y-8740000D01*
X21144725Y-8890000D01*
X21294725Y-9040000D01*
X21453475Y-6881000D02*
X21603475Y-6731000D01*
X21453475Y-6581000D01*
X21303475Y-6731000D01*
X21453475Y-6881000D01*
X21770975Y-5230000D02*
X21920975Y-5080000D01*
X21770975Y-4930000D01*
X21620975Y-5080000D01*
X21770975Y-5230000D01*
X21929725Y-8786000D02*
X22079725Y-8636000D01*
X21929725Y-8486000D01*
X21779725Y-8636000D01*
X21929725Y-8786000D01*
X22009100Y-12850000D02*
X22159100Y-12700000D01*
X22009100Y-12550000D01*
X21859100Y-12700000D01*
X22009100Y-12850000D01*
X22247225Y-10945000D02*
X22397225Y-10795000D01*
X22247225Y-10645000D01*
X22097225Y-10795000D01*
X22247225Y-10945000D01*
X22405975Y-4976000D02*
X22555975Y-4826000D01*
X22405975Y-4676000D01*
X22255975Y-4826000D01*
X22405975Y-4976000D01*
X22644100Y-12596000D02*
X22794100Y-12446000D01*
X22644100Y-12296000D01*
X22494100Y-12446000D01*
X22644100Y-12596000D01*
X22723475Y-7135000D02*
X22873475Y-6985000D01*
X22723475Y-6835000D01*
X22573475Y-6985000D01*
X22723475Y-7135000D01*
X22882225Y-10691000D02*
X23032225Y-10541000D01*
X22882225Y-10391000D01*
X22732225Y-10541000D01*
X22882225Y-10691000D01*
X23199725Y-9040000D02*
X23349725Y-8890000D01*
X23199725Y-8740000D01*
X23049725Y-8890000D01*
X23199725Y-9040000D01*
X23358475Y-6881000D02*
X23508475Y-6731000D01*
X23358475Y-6581000D01*
X23208475Y-6731000D01*
X23358475Y-6881000D01*
X23675975Y-5230000D02*
X23825975Y-5080000D01*
X23675975Y-4930000D01*
X23525975Y-5080000D01*
X23675975Y-5230000D01*
X23834725Y-8786000D02*
X23984725Y-8636000D01*
X23834725Y-8486000D01*
X23684725Y-8636000D01*
X23834725Y-8786000D01*
X24152225Y-10945000D02*
X24302225Y-10795000D01*
X24152225Y-10645000D01*
X24002225Y-10795000D01*
X24152225Y-10945000D01*
X24310975Y-4976000D02*
X24460975Y-4826000D01*
X24310975Y-4676000D01*
X24160975Y-4826000D01*
X24310975Y-4976000D01*
X24628475Y-7135000D02*
X24778475Y-6985000D01*
X24628475Y-6835000D01*
X24478475Y-6985000D01*
X24628475Y-7135000D01*
X24787225Y-10691000D02*
X24937225Y-10541000D01*
X24787225Y-10391000D01*
X24637225Y-10541000D01*
X24787225Y-10691000D01*
X25104725Y-9040000D02*
X25254725Y-8890000D01*
X25104725Y-8740000D01*
X24954725Y-8890000D01*
X25104725Y-9040000D01*
X25263475Y-6881000D02*
X25413475Y-6731000D01*
X25263475Y-6581000D01*
X25113475Y-6731000D01*
X25263475Y-6881000D01*
X25580975Y-5230000D02*
X25730975Y-5080000D01*
X25580975Y-4930000D01*
X25430975Y-5080000D01*
X25580975Y-5230000D01*
X25739725Y-8786000D02*
X25889725Y-8636000D01*
X25739725Y-8486000D01*
X25589725Y-8636000D01*
X25739725Y-8786000D01*
X25819100Y-12850000D02*
X25969100Y-12700000D01*
X25819100Y-12550000D01*
X25669100Y-12700000D01*
X25819100Y-12850000D01*
X26057225Y-10945000D02*
X26207225Y-10795000D01*
X26057225Y-10645000D01*
X25907225Y-10795000D01*
X26057225Y-10945000D01*
X26215975Y-4976000D02*
X26365975Y-4826000D01*
X26215975Y-4676000D01*
X26065975Y-4826000D01*
X26215975Y-4976000D01*
X26454100Y-12596000D02*
X26604100Y-12446000D01*
X26454100Y-12296000D01*
X26304100Y-12446000D01*
X26454100Y-12596000D01*
X26533475Y-7135000D02*
X26683475Y-6985000D01*
X26533475Y-6835000D01*
X26383475Y-6985000D01*
X26533475Y-7135000D01*
X26692225Y-10691000D02*
X26842225Y-10541000D01*
X26692225Y-10391000D01*
X26542225Y-10541000D01*
X26692225Y-10691000D01*
X27009725Y-9040000D02*
X27159725Y-8890000D01*
X27009725Y-8740000D01*
X26859725Y-8890000D01*
X27009725Y-9040000D01*
X27168475Y-6881000D02*
X27318475Y-6731000D01*
X27168475Y-6581000D01*
X27018475Y-6731000D01*
X27168475Y-6881000D01*
X27485975Y-5230000D02*
X27635975Y-5080000D01*
X27485975Y-4930000D01*
X27335975Y-5080000D01*
X27485975Y-5230000D01*
X27644725Y-8786000D02*
X27794725Y-8636000D01*
X27644725Y-8486000D01*
X27494725Y-8636000D01*
X27644725Y-8786000D01*
X27962225Y-10945000D02*
X28112225Y-10795000D01*
X27962225Y-10645000D01*
X27812225Y-10795000D01*
X27962225Y-10945000D01*
X28120975Y-4976000D02*
X28270975Y-4826000D01*
X28120975Y-4676000D01*
X27970975Y-4826000D01*
X28120975Y-4976000D01*
X28200350Y-12850000D02*
X28350350Y-12700000D01*
X28200350Y-12550000D01*
X28050350Y-12700000D01*
X28200350Y-12850000D01*
X28438475Y-7135000D02*
X28588475Y-6985000D01*
X28438475Y-6835000D01*
X28288475Y-6985000D01*
X28438475Y-7135000D01*
X28597225Y-10691000D02*
X28747225Y-10541000D01*
X28597225Y-10391000D01*
X28447225Y-10541000D01*
X28597225Y-10691000D01*
X28835350Y-12596000D02*
X28985350Y-12446000D01*
X28835350Y-12296000D01*
X28685350Y-12446000D01*
X28835350Y-12596000D01*
X28914725Y-9040000D02*
X29064725Y-8890000D01*
X28914725Y-8740000D01*
X28764725Y-8890000D01*
X28914725Y-9040000D01*
X29073475Y-6881000D02*
X29223475Y-6731000D01*
X29073475Y-6581000D01*
X28923475Y-6731000D01*
X29073475Y-6881000D01*
X29390975Y-5230000D02*
X29540975Y-5080000D01*
X29390975Y-4930000D01*
X29240975Y-5080000D01*
X29390975Y-5230000D01*
X29549725Y-8786000D02*
X29699725Y-8636000D01*
X29549725Y-8486000D01*
X29399725Y-8636000D01*
X29549725Y-8786000D01*
X30025975Y-4976000D02*
X30175975Y-4826000D01*
X30025975Y-4676000D01*
X29875975Y-4826000D01*
X30025975Y-4976000D01*
X30343475Y-7135000D02*
X30493475Y-6985000D01*
X30343475Y-6835000D01*
X30193475Y-6985000D01*
X30343475Y-7135000D01*
X30581600Y-12850000D02*
X30731600Y-12700000D01*
X30581600Y-12550000D01*
X30431600Y-12700000D01*
X30581600Y-12850000D01*
X30978475Y-6881000D02*
X31128475Y-6731000D01*
X30978475Y-6581000D01*
X30828475Y-6731000D01*
X30978475Y-6881000D01*
X31216600Y-12596000D02*
X31366600Y-12446000D01*
X31216600Y-12296000D01*
X31066600Y-12446000D01*
X31216600Y-12596000D01*
X31534100Y-10945000D02*
X31684100Y-10795000D01*
X31534100Y-10645000D01*
X31384100Y-10795000D01*
X31534100Y-10945000D01*
X32010350Y-9040000D02*
X32160350Y-8890000D01*
X32010350Y-8740000D01*
X31860350Y-8890000D01*
X32010350Y-9040000D01*
X32169100Y-10691000D02*
X32319100Y-10541000D01*
X32169100Y-10391000D01*
X32019100Y-10541000D01*
X32169100Y-10691000D01*
X32248475Y-5230000D02*
X32398475Y-5080000D01*
X32248475Y-4930000D01*
X32098475Y-5080000D01*
X32248475Y-5230000D01*
X32645350Y-8786000D02*
X32795350Y-8636000D01*
X32645350Y-8486000D01*
X32495350Y-8636000D01*
X32645350Y-8786000D01*
X32724725Y-7135000D02*
X32874725Y-6985000D01*
X32724725Y-6835000D01*
X32574725Y-6985000D01*
X32724725Y-7135000D01*
X32883475Y-4976000D02*
X33033475Y-4826000D01*
X32883475Y-4676000D01*
X32733475Y-4826000D01*
X32883475Y-4976000D01*
X32962850Y-12850000D02*
X33112850Y-12700000D01*
X32962850Y-12550000D01*
X32812850Y-12700000D01*
X32962850Y-12850000D01*
X33359725Y-6881000D02*
X33509725Y-6731000D01*
X33359725Y-6581000D01*
X33209725Y-6731000D01*
X33359725Y-6881000D01*
X33597850Y-12596000D02*
X33747850Y-12446000D01*
X33597850Y-12296000D01*
X33447850Y-12446000D01*
X33597850Y-12596000D01*
X35582150Y-5230000D02*
X35732150Y-5080000D01*
X35582150Y-4930000D01*
X35432150Y-5080000D01*
X35582150Y-5230000D01*
X35582150Y-7135000D02*
X35732150Y-6985000D01*
X35582150Y-6835000D01*
X35432150Y-6985000D01*
X35582150Y-7135000D01*
X35582150Y-12850000D02*
X35732150Y-12700000D01*
X35582150Y-12550000D01*
X35432150Y-12700000D01*
X35582150Y-12850000D01*
X36217150Y-4976000D02*
X36367150Y-4826000D01*
X36217150Y-4676000D01*
X36067150Y-4826000D01*
X36217150Y-4976000D01*
X36217150Y-6881000D02*
X36367150Y-6731000D01*
X36217150Y-6581000D01*
X36067150Y-6731000D01*
X36217150Y-6881000D01*
X36217150Y-12596000D02*
X36367150Y-12446000D01*
X36217150Y-12296000D01*
X36067150Y-12446000D01*
X36217150Y-12596000D01*
X37484050Y-10945000D02*
X37634050Y-10795000D01*
X37484050Y-10645000D01*
X37334050Y-10795000D01*
X37484050Y-10945000D01*
X37484050Y-12850000D02*
X37634050Y-12700000D01*
X37484050Y-12550000D01*
X37334050Y-12700000D01*
X37484050Y-12850000D01*
X37490400Y-5230000D02*
X37640400Y-5080000D01*
X37490400Y-4930000D01*
X37340400Y-5080000D01*
X37490400Y-5230000D01*
X37490400Y-7135000D02*
X37640400Y-6985000D01*
X37490400Y-6835000D01*
X37340400Y-6985000D01*
X37490400Y-7135000D01*
X38119050Y-10691000D02*
X38269050Y-10541000D01*
X38119050Y-10391000D01*
X37969050Y-10541000D01*
X38119050Y-10691000D01*
X38119050Y-12596000D02*
X38269050Y-12446000D01*
X38119050Y-12296000D01*
X37969050Y-12446000D01*
X38119050Y-12596000D01*
X38125400Y-4976000D02*
X38275400Y-4826000D01*
X38125400Y-4676000D01*
X37975400Y-4826000D01*
X38125400Y-4976000D01*
X38125400Y-6881000D02*
X38275400Y-6731000D01*
X38125400Y-6581000D01*
X37975400Y-6731000D01*
X38125400Y-6881000D01*
X39389050Y-12850000D02*
X39539050Y-12700000D01*
X39389050Y-12550000D01*
X39239050Y-12700000D01*
X39389050Y-12850000D01*
X39395400Y-5230000D02*
X39545400Y-5080000D01*
X39395400Y-4930000D01*
X39245400Y-5080000D01*
X39395400Y-5230000D01*
X39395400Y-7135000D02*
X39545400Y-6985000D01*
X39395400Y-6835000D01*
X39245400Y-6985000D01*
X39395400Y-7135000D01*
X40024050Y-12596000D02*
X40174050Y-12446000D01*
X40024050Y-12296000D01*
X39874050Y-12446000D01*
X40024050Y-12596000D01*
X40030400Y-4976000D02*
X40180400Y-4826000D01*
X40030400Y-4676000D01*
X39880400Y-4826000D01*
X40030400Y-4976000D01*
X40030400Y-6881000D02*
X40180400Y-6731000D01*
X40030400Y-6581000D01*
X39880400Y-6731000D01*
X40030400Y-6881000D01*
X4987925Y-10833100D02*
X5292725Y-11137900D01*
X5292725Y-10833100D02*
X4987925Y-11137900D01*
X5292725Y-10985500D02*
G75*
G03*
X5292725Y-10985500I-152400J0D01*
G01*
X7375525Y-10833100D02*
X7680325Y-11137900D01*
X7680325Y-10833100D02*
X7375525Y-11137900D01*
X7680325Y-10985500D02*
G75*
G03*
X7680325Y-10985500I-152400J0D01*
G01*
X14512925Y-12738100D02*
X14817725Y-13042900D01*
X14817725Y-12738100D02*
X14512925Y-13042900D01*
X14817725Y-12890500D02*
G75*
G03*
X14817725Y-12890500I-152400J0D01*
G01*
X14512925Y-12738100D02*
X14817725Y-13042900D01*
X14817725Y-12738100D02*
X14512925Y-13042900D01*
X14817725Y-12890500D02*
G75*
G03*
X14817725Y-12890500I-152400J0D01*
G01*
X16900525Y-12738100D02*
X17205325Y-13042900D01*
X17205325Y-12738100D02*
X16900525Y-13042900D01*
X17205325Y-12890500D02*
G75*
G03*
X17205325Y-12890500I-152400J0D01*
G01*
X16900525Y-12738100D02*
X17205325Y-13042900D01*
X17205325Y-12738100D02*
X16900525Y-13042900D01*
X17205325Y-12890500D02*
G75*
G03*
X17205325Y-12890500I-152400J0D01*
G01*
X20916900Y-12738100D02*
X21221700Y-13042900D01*
X21221700Y-12738100D02*
X20916900Y-13042900D01*
X21221700Y-12890500D02*
G75*
G03*
X21221700Y-12890500I-152400J0D01*
G01*
X23304500Y-12738100D02*
X23609300Y-13042900D01*
X23609300Y-12738100D02*
X23304500Y-13042900D01*
X23609300Y-12890500D02*
G75*
G03*
X23609300Y-12890500I-152400J0D01*
G01*
X30441900Y-9436100D02*
X30746700Y-9740900D01*
X30746700Y-9436100D02*
X30441900Y-9740900D01*
X30746700Y-9588500D02*
G75*
G03*
X30746700Y-9588500I-152400J0D01*
G01*
X30918150Y-8928100D02*
X31222950Y-9232900D01*
X31222950Y-8928100D02*
X30918150Y-9232900D01*
X31222950Y-9080500D02*
G75*
G03*
X31222950Y-9080500I-152400J0D01*
G01*
X31156275Y-3721100D02*
X31461075Y-4025900D01*
X31461075Y-3721100D02*
X31156275Y-4025900D01*
X31461075Y-3873500D02*
G75*
G03*
X31461075Y-3873500I-152400J0D01*
G01*
X32829500Y-9436100D02*
X33134300Y-9740900D01*
X33134300Y-9436100D02*
X32829500Y-9740900D01*
X33134300Y-9588500D02*
G75*
G03*
X33134300Y-9588500I-152400J0D01*
G01*
X33305750Y-8928100D02*
X33610550Y-9232900D01*
X33610550Y-8928100D02*
X33305750Y-9232900D01*
X33610550Y-9080500D02*
G75*
G03*
X33610550Y-9080500I-152400J0D01*
G01*
X33543875Y-3721100D02*
X33848675Y-4025900D01*
X33848675Y-3721100D02*
X33543875Y-4025900D01*
X33848675Y-3873500D02*
G75*
G03*
X33848675Y-3873500I-152400J0D01*
G01*
X4940935Y-9262110D02*
X5339715Y-9660890D01*
X5339715Y-9262110D02*
X4940935Y-9660890D01*
X5140325Y-9262110D02*
X5140325Y-9660890D01*
X4940935Y-9461500D02*
X5339715Y-9461500D01*
X5182235Y-11992610D02*
X5581015Y-12391390D01*
X5581015Y-11992610D02*
X5182235Y-12391390D01*
X5381625Y-11992610D02*
X5381625Y-12391390D01*
X5182235Y-12192000D02*
X5581015Y-12192000D01*
X5658485Y-8182610D02*
X6057265Y-8581390D01*
X6057265Y-8182610D02*
X5658485Y-8581390D01*
X5857875Y-8182610D02*
X5857875Y-8581390D01*
X5658485Y-8382000D02*
X6057265Y-8382000D01*
X6134735Y-10087610D02*
X6533515Y-10486390D01*
X6533515Y-10087610D02*
X6134735Y-10486390D01*
X6334125Y-10087610D02*
X6334125Y-10486390D01*
X6134735Y-10287000D02*
X6533515Y-10287000D01*
X7328535Y-9262110D02*
X7727315Y-9660890D01*
X7727315Y-9262110D02*
X7328535Y-9660890D01*
X7527925Y-9262110D02*
X7527925Y-9660890D01*
X7328535Y-9461500D02*
X7727315Y-9461500D01*
X7563485Y-11992610D02*
X7962265Y-12391390D01*
X7962265Y-11992610D02*
X7563485Y-12391390D01*
X7762875Y-11992610D02*
X7762875Y-12391390D01*
X7563485Y-12192000D02*
X7962265Y-12192000D01*
X9951085Y-11992610D02*
X10349865Y-12391390D01*
X10349865Y-11992610D02*
X9951085Y-12391390D01*
X10150475Y-11992610D02*
X10150475Y-12391390D01*
X9951085Y-12192000D02*
X10349865Y-12192000D01*
X12332335Y-11992610D02*
X12731115Y-12391390D01*
X12731115Y-11992610D02*
X12332335Y-12391390D01*
X12531725Y-11992610D02*
X12531725Y-12391390D01*
X12332335Y-12192000D02*
X12731115Y-12192000D01*
X14465935Y-11167110D02*
X14864715Y-11565890D01*
X14864715Y-11167110D02*
X14465935Y-11565890D01*
X14665325Y-11167110D02*
X14665325Y-11565890D01*
X14465935Y-11366500D02*
X14864715Y-11366500D01*
X14465935Y-11167110D02*
X14864715Y-11565890D01*
X14864715Y-11167110D02*
X14465935Y-11565890D01*
X14665325Y-11167110D02*
X14665325Y-11565890D01*
X14465935Y-11366500D02*
X14864715Y-11366500D01*
X15659735Y-11992610D02*
X16058515Y-12391390D01*
X16058515Y-11992610D02*
X15659735Y-12391390D01*
X15859125Y-11992610D02*
X15859125Y-12391390D01*
X15659735Y-12192000D02*
X16058515Y-12192000D01*
X15659735Y-11992610D02*
X16058515Y-12391390D01*
X16058515Y-11992610D02*
X15659735Y-12391390D01*
X15859125Y-11992610D02*
X15859125Y-12391390D01*
X15659735Y-12192000D02*
X16058515Y-12192000D01*
X16853535Y-11167110D02*
X17252315Y-11565890D01*
X17252315Y-11167110D02*
X16853535Y-11565890D01*
X17052925Y-11167110D02*
X17052925Y-11565890D01*
X16853535Y-11366500D02*
X17252315Y-11366500D01*
X16853535Y-11167110D02*
X17252315Y-11565890D01*
X17252315Y-11167110D02*
X16853535Y-11565890D01*
X17052925Y-11167110D02*
X17052925Y-11565890D01*
X16853535Y-11366500D02*
X17252315Y-11366500D01*
X20869910Y-11167110D02*
X21268690Y-11565890D01*
X21268690Y-11167110D02*
X20869910Y-11565890D01*
X21069300Y-11167110D02*
X21069300Y-11565890D01*
X20869910Y-11366500D02*
X21268690Y-11366500D01*
X22063710Y-11992610D02*
X22462490Y-12391390D01*
X22462490Y-11992610D02*
X22063710Y-12391390D01*
X22263100Y-11992610D02*
X22263100Y-12391390D01*
X22063710Y-12192000D02*
X22462490Y-12192000D01*
X22063710Y-11992610D02*
X22462490Y-12391390D01*
X22462490Y-11992610D02*
X22063710Y-12391390D01*
X22263100Y-11992610D02*
X22263100Y-12391390D01*
X22063710Y-12192000D02*
X22462490Y-12192000D01*
X23257510Y-11167110D02*
X23656290Y-11565890D01*
X23656290Y-11167110D02*
X23257510Y-11565890D01*
X23456900Y-11167110D02*
X23456900Y-11565890D01*
X23257510Y-11366500D02*
X23656290Y-11366500D01*
X25873710Y-11992610D02*
X26272490Y-12391390D01*
X26272490Y-11992610D02*
X25873710Y-12391390D01*
X26073100Y-11992610D02*
X26073100Y-12391390D01*
X25873710Y-12192000D02*
X26272490Y-12192000D01*
X28254960Y-11992610D02*
X28653740Y-12391390D01*
X28653740Y-11992610D02*
X28254960Y-12391390D01*
X28454350Y-11992610D02*
X28454350Y-12391390D01*
X28254960Y-12192000D02*
X28653740Y-12192000D01*
X30394910Y-10913110D02*
X30793690Y-11311890D01*
X30793690Y-10913110D02*
X30394910Y-11311890D01*
X30594300Y-10913110D02*
X30594300Y-11311890D01*
X30394910Y-11112500D02*
X30793690Y-11112500D01*
X30636210Y-11992610D02*
X31034990Y-12391390D01*
X31034990Y-11992610D02*
X30636210Y-12391390D01*
X30835600Y-11992610D02*
X30835600Y-12391390D01*
X30636210Y-12192000D02*
X31034990Y-12192000D01*
X30871160Y-7357110D02*
X31269940Y-7755890D01*
X31269940Y-7357110D02*
X30871160Y-7755890D01*
X31070550Y-7357110D02*
X31070550Y-7755890D01*
X30871160Y-7556500D02*
X31269940Y-7556500D01*
X31109285Y-5198110D02*
X31508065Y-5596890D01*
X31508065Y-5198110D02*
X31109285Y-5596890D01*
X31308675Y-5198110D02*
X31308675Y-5596890D01*
X31109285Y-5397500D02*
X31508065Y-5397500D01*
X31588710Y-10087610D02*
X31987490Y-10486390D01*
X31987490Y-10087610D02*
X31588710Y-10486390D01*
X31788100Y-10087610D02*
X31788100Y-10486390D01*
X31588710Y-10287000D02*
X31987490Y-10287000D01*
X32064960Y-8182610D02*
X32463740Y-8581390D01*
X32463740Y-8182610D02*
X32064960Y-8581390D01*
X32264350Y-8182610D02*
X32264350Y-8581390D01*
X32064960Y-8382000D02*
X32463740Y-8382000D01*
X32303085Y-4372610D02*
X32701865Y-4771390D01*
X32701865Y-4372610D02*
X32303085Y-4771390D01*
X32502475Y-4372610D02*
X32502475Y-4771390D01*
X32303085Y-4572000D02*
X32701865Y-4572000D01*
X32782510Y-10913110D02*
X33181290Y-11311890D01*
X33181290Y-10913110D02*
X32782510Y-11311890D01*
X32981900Y-10913110D02*
X32981900Y-11311890D01*
X32782510Y-11112500D02*
X33181290Y-11112500D01*
X33017460Y-11992610D02*
X33416240Y-12391390D01*
X33416240Y-11992610D02*
X33017460Y-12391390D01*
X33216850Y-11992610D02*
X33216850Y-12391390D01*
X33017460Y-12192000D02*
X33416240Y-12192000D01*
X33258760Y-7357110D02*
X33657540Y-7755890D01*
X33657540Y-7357110D02*
X33258760Y-7755890D01*
X33458150Y-7357110D02*
X33458150Y-7755890D01*
X33258760Y-7556500D02*
X33657540Y-7556500D01*
X33496885Y-5198110D02*
X33895665Y-5596890D01*
X33895665Y-5198110D02*
X33496885Y-5596890D01*
X33696275Y-5198110D02*
X33696275Y-5596890D01*
X33496885Y-5397500D02*
X33895665Y-5397500D01*
X4938500Y-4367000D02*
X5348500Y-4777000D01*
X5348500Y-4367000D02*
X4938500Y-4777000D01*
X5288458Y-4716958D02*
X5288458Y-4427042D01*
X4998542Y-4427042D01*
X4998542Y-4716958D01*
X5288458Y-4716958D01*
X5176625Y-11987000D02*
X5586625Y-12397000D01*
X5586625Y-11987000D02*
X5176625Y-12397000D01*
X5526583Y-12336958D02*
X5526583Y-12047042D01*
X5236667Y-12047042D01*
X5236667Y-12336958D01*
X5526583Y-12336958D01*
X5414750Y-6272000D02*
X5824750Y-6682000D01*
X5824750Y-6272000D02*
X5414750Y-6682000D01*
X5764708Y-6621958D02*
X5764708Y-6332042D01*
X5474792Y-6332042D01*
X5474792Y-6621958D01*
X5764708Y-6621958D01*
X5652875Y-8177000D02*
X6062875Y-8587000D01*
X6062875Y-8177000D02*
X5652875Y-8587000D01*
X6002833Y-8526958D02*
X6002833Y-8237042D01*
X5712917Y-8237042D01*
X5712917Y-8526958D01*
X6002833Y-8526958D01*
X6129125Y-10082000D02*
X6539125Y-10492000D01*
X6539125Y-10082000D02*
X6129125Y-10492000D01*
X6479083Y-10431958D02*
X6479083Y-10142042D01*
X6189167Y-10142042D01*
X6189167Y-10431958D01*
X6479083Y-10431958D01*
X6843500Y-4367000D02*
X7253500Y-4777000D01*
X7253500Y-4367000D02*
X6843500Y-4777000D01*
X7193458Y-4716958D02*
X7193458Y-4427042D01*
X6903542Y-4427042D01*
X6903542Y-4716958D01*
X7193458Y-4716958D01*
X7557875Y-11987000D02*
X7967875Y-12397000D01*
X7967875Y-11987000D02*
X7557875Y-12397000D01*
X7907833Y-12336958D02*
X7907833Y-12047042D01*
X7617917Y-12047042D01*
X7617917Y-12336958D01*
X7907833Y-12336958D01*
X7796000Y-6272000D02*
X8206000Y-6682000D01*
X8206000Y-6272000D02*
X7796000Y-6682000D01*
X8145958Y-6621958D02*
X8145958Y-6332042D01*
X7856042Y-6332042D01*
X7856042Y-6621958D01*
X8145958Y-6621958D01*
X8272250Y-8177000D02*
X8682250Y-8587000D01*
X8682250Y-8177000D02*
X8272250Y-8587000D01*
X8622208Y-8526958D02*
X8622208Y-8237042D01*
X8332292Y-8237042D01*
X8332292Y-8526958D01*
X8622208Y-8526958D01*
X8748500Y-4367000D02*
X9158500Y-4777000D01*
X9158500Y-4367000D02*
X8748500Y-4777000D01*
X9098458Y-4716958D02*
X9098458Y-4427042D01*
X8808542Y-4427042D01*
X8808542Y-4716958D01*
X9098458Y-4716958D01*
X9224750Y-10082000D02*
X9634750Y-10492000D01*
X9634750Y-10082000D02*
X9224750Y-10492000D01*
X9574708Y-10431958D02*
X9574708Y-10142042D01*
X9284792Y-10142042D01*
X9284792Y-10431958D01*
X9574708Y-10431958D01*
X9701000Y-6272000D02*
X10111000Y-6682000D01*
X10111000Y-6272000D02*
X9701000Y-6682000D01*
X10050958Y-6621958D02*
X10050958Y-6332042D01*
X9761042Y-6332042D01*
X9761042Y-6621958D01*
X10050958Y-6621958D01*
X9945475Y-11987000D02*
X10355475Y-12397000D01*
X10355475Y-11987000D02*
X9945475Y-12397000D01*
X10295433Y-12336958D02*
X10295433Y-12047042D01*
X10005517Y-12047042D01*
X10005517Y-12336958D01*
X10295433Y-12336958D01*
X10177250Y-8177000D02*
X10587250Y-8587000D01*
X10587250Y-8177000D02*
X10177250Y-8587000D01*
X10527208Y-8526958D02*
X10527208Y-8237042D01*
X10237292Y-8237042D01*
X10237292Y-8526958D01*
X10527208Y-8526958D01*
X10653500Y-4367000D02*
X11063500Y-4777000D01*
X11063500Y-4367000D02*
X10653500Y-4777000D01*
X11003458Y-4716958D02*
X11003458Y-4427042D01*
X10713542Y-4427042D01*
X10713542Y-4716958D01*
X11003458Y-4716958D01*
X11129750Y-10082000D02*
X11539750Y-10492000D01*
X11539750Y-10082000D02*
X11129750Y-10492000D01*
X11479708Y-10431958D02*
X11479708Y-10142042D01*
X11189792Y-10142042D01*
X11189792Y-10431958D01*
X11479708Y-10431958D01*
X11606000Y-6272000D02*
X12016000Y-6682000D01*
X12016000Y-6272000D02*
X11606000Y-6682000D01*
X11955958Y-6621958D02*
X11955958Y-6332042D01*
X11666042Y-6332042D01*
X11666042Y-6621958D01*
X11955958Y-6621958D01*
X12082250Y-8177000D02*
X12492250Y-8587000D01*
X12492250Y-8177000D02*
X12082250Y-8587000D01*
X12432208Y-8526958D02*
X12432208Y-8237042D01*
X12142292Y-8237042D01*
X12142292Y-8526958D01*
X12432208Y-8526958D01*
X12326725Y-11987000D02*
X12736725Y-12397000D01*
X12736725Y-11987000D02*
X12326725Y-12397000D01*
X12676683Y-12336958D02*
X12676683Y-12047042D01*
X12386767Y-12047042D01*
X12386767Y-12336958D01*
X12676683Y-12336958D01*
X12558500Y-4367000D02*
X12968500Y-4777000D01*
X12968500Y-4367000D02*
X12558500Y-4777000D01*
X12908458Y-4716958D02*
X12908458Y-4427042D01*
X12618542Y-4427042D01*
X12618542Y-4716958D01*
X12908458Y-4716958D01*
X13034750Y-10082000D02*
X13444750Y-10492000D01*
X13444750Y-10082000D02*
X13034750Y-10492000D01*
X13384708Y-10431958D02*
X13384708Y-10142042D01*
X13094792Y-10142042D01*
X13094792Y-10431958D01*
X13384708Y-10431958D01*
X13511000Y-6272000D02*
X13921000Y-6682000D01*
X13921000Y-6272000D02*
X13511000Y-6682000D01*
X13860958Y-6621958D02*
X13860958Y-6332042D01*
X13571042Y-6332042D01*
X13571042Y-6621958D01*
X13860958Y-6621958D01*
X13987250Y-8177000D02*
X14397250Y-8587000D01*
X14397250Y-8177000D02*
X13987250Y-8587000D01*
X14337208Y-8526958D02*
X14337208Y-8237042D01*
X14047292Y-8237042D01*
X14047292Y-8526958D01*
X14337208Y-8526958D01*
X14463500Y-4367000D02*
X14873500Y-4777000D01*
X14873500Y-4367000D02*
X14463500Y-4777000D01*
X14813458Y-4716958D02*
X14813458Y-4427042D01*
X14523542Y-4427042D01*
X14523542Y-4716958D01*
X14813458Y-4716958D01*
X14939750Y-10082000D02*
X15349750Y-10492000D01*
X15349750Y-10082000D02*
X14939750Y-10492000D01*
X15289708Y-10431958D02*
X15289708Y-10142042D01*
X14999792Y-10142042D01*
X14999792Y-10431958D01*
X15289708Y-10431958D01*
X15416000Y-6272000D02*
X15826000Y-6682000D01*
X15826000Y-6272000D02*
X15416000Y-6682000D01*
X15765958Y-6621958D02*
X15765958Y-6332042D01*
X15476042Y-6332042D01*
X15476042Y-6621958D01*
X15765958Y-6621958D01*
X15654125Y-11987000D02*
X16064125Y-12397000D01*
X16064125Y-11987000D02*
X15654125Y-12397000D01*
X16004083Y-12336958D02*
X16004083Y-12047042D01*
X15714167Y-12047042D01*
X15714167Y-12336958D01*
X16004083Y-12336958D01*
X15892250Y-8177000D02*
X16302250Y-8587000D01*
X16302250Y-8177000D02*
X15892250Y-8587000D01*
X16242208Y-8526958D02*
X16242208Y-8237042D01*
X15952292Y-8237042D01*
X15952292Y-8526958D01*
X16242208Y-8526958D01*
X16368500Y-4367000D02*
X16778500Y-4777000D01*
X16778500Y-4367000D02*
X16368500Y-4777000D01*
X16718458Y-4716958D02*
X16718458Y-4427042D01*
X16428542Y-4427042D01*
X16428542Y-4716958D01*
X16718458Y-4716958D01*
X16844750Y-10082000D02*
X17254750Y-10492000D01*
X17254750Y-10082000D02*
X16844750Y-10492000D01*
X17194708Y-10431958D02*
X17194708Y-10142042D01*
X16904792Y-10142042D01*
X16904792Y-10431958D01*
X17194708Y-10431958D01*
X18962475Y-6272000D02*
X19372475Y-6682000D01*
X19372475Y-6272000D02*
X18962475Y-6682000D01*
X19312433Y-6621958D02*
X19312433Y-6332042D01*
X19022517Y-6332042D01*
X19022517Y-6621958D01*
X19312433Y-6621958D01*
X19438725Y-8177000D02*
X19848725Y-8587000D01*
X19848725Y-8177000D02*
X19438725Y-8587000D01*
X19788683Y-8526958D02*
X19788683Y-8237042D01*
X19498767Y-8237042D01*
X19498767Y-8526958D01*
X19788683Y-8526958D01*
X19914975Y-4367000D02*
X20324975Y-4777000D01*
X20324975Y-4367000D02*
X19914975Y-4777000D01*
X20264933Y-4716958D02*
X20264933Y-4427042D01*
X19975017Y-4427042D01*
X19975017Y-4716958D01*
X20264933Y-4716958D01*
X20391225Y-10082000D02*
X20801225Y-10492000D01*
X20801225Y-10082000D02*
X20391225Y-10492000D01*
X20741183Y-10431958D02*
X20741183Y-10142042D01*
X20451267Y-10142042D01*
X20451267Y-10431958D01*
X20741183Y-10431958D01*
X20867475Y-6272000D02*
X21277475Y-6682000D01*
X21277475Y-6272000D02*
X20867475Y-6682000D01*
X21217433Y-6621958D02*
X21217433Y-6332042D01*
X20927517Y-6332042D01*
X20927517Y-6621958D01*
X21217433Y-6621958D01*
X21343725Y-8177000D02*
X21753725Y-8587000D01*
X21753725Y-8177000D02*
X21343725Y-8587000D01*
X21693683Y-8526958D02*
X21693683Y-8237042D01*
X21403767Y-8237042D01*
X21403767Y-8526958D01*
X21693683Y-8526958D01*
X21819975Y-4367000D02*
X22229975Y-4777000D01*
X22229975Y-4367000D02*
X21819975Y-4777000D01*
X22169933Y-4716958D02*
X22169933Y-4427042D01*
X21880017Y-4427042D01*
X21880017Y-4716958D01*
X22169933Y-4716958D01*
X22058100Y-11987000D02*
X22468100Y-12397000D01*
X22468100Y-11987000D02*
X22058100Y-12397000D01*
X22408058Y-12336958D02*
X22408058Y-12047042D01*
X22118142Y-12047042D01*
X22118142Y-12336958D01*
X22408058Y-12336958D01*
X22296225Y-10082000D02*
X22706225Y-10492000D01*
X22706225Y-10082000D02*
X22296225Y-10492000D01*
X22646183Y-10431958D02*
X22646183Y-10142042D01*
X22356267Y-10142042D01*
X22356267Y-10431958D01*
X22646183Y-10431958D01*
X22772475Y-6272000D02*
X23182475Y-6682000D01*
X23182475Y-6272000D02*
X22772475Y-6682000D01*
X23122433Y-6621958D02*
X23122433Y-6332042D01*
X22832517Y-6332042D01*
X22832517Y-6621958D01*
X23122433Y-6621958D01*
X23248725Y-8177000D02*
X23658725Y-8587000D01*
X23658725Y-8177000D02*
X23248725Y-8587000D01*
X23598683Y-8526958D02*
X23598683Y-8237042D01*
X23308767Y-8237042D01*
X23308767Y-8526958D01*
X23598683Y-8526958D01*
X23724975Y-4367000D02*
X24134975Y-4777000D01*
X24134975Y-4367000D02*
X23724975Y-4777000D01*
X24074933Y-4716958D02*
X24074933Y-4427042D01*
X23785017Y-4427042D01*
X23785017Y-4716958D01*
X24074933Y-4716958D01*
X24201225Y-10082000D02*
X24611225Y-10492000D01*
X24611225Y-10082000D02*
X24201225Y-10492000D01*
X24551183Y-10431958D02*
X24551183Y-10142042D01*
X24261267Y-10142042D01*
X24261267Y-10431958D01*
X24551183Y-10431958D01*
X24677475Y-6272000D02*
X25087475Y-6682000D01*
X25087475Y-6272000D02*
X24677475Y-6682000D01*
X25027433Y-6621958D02*
X25027433Y-6332042D01*
X24737517Y-6332042D01*
X24737517Y-6621958D01*
X25027433Y-6621958D01*
X25153725Y-8177000D02*
X25563725Y-8587000D01*
X25563725Y-8177000D02*
X25153725Y-8587000D01*
X25503683Y-8526958D02*
X25503683Y-8237042D01*
X25213767Y-8237042D01*
X25213767Y-8526958D01*
X25503683Y-8526958D01*
X25629975Y-4367000D02*
X26039975Y-4777000D01*
X26039975Y-4367000D02*
X25629975Y-4777000D01*
X25979933Y-4716958D02*
X25979933Y-4427042D01*
X25690017Y-4427042D01*
X25690017Y-4716958D01*
X25979933Y-4716958D01*
X25868100Y-11987000D02*
X26278100Y-12397000D01*
X26278100Y-11987000D02*
X25868100Y-12397000D01*
X26218058Y-12336958D02*
X26218058Y-12047042D01*
X25928142Y-12047042D01*
X25928142Y-12336958D01*
X26218058Y-12336958D01*
X26106225Y-10082000D02*
X26516225Y-10492000D01*
X26516225Y-10082000D02*
X26106225Y-10492000D01*
X26456183Y-10431958D02*
X26456183Y-10142042D01*
X26166267Y-10142042D01*
X26166267Y-10431958D01*
X26456183Y-10431958D01*
X26582475Y-6272000D02*
X26992475Y-6682000D01*
X26992475Y-6272000D02*
X26582475Y-6682000D01*
X26932433Y-6621958D02*
X26932433Y-6332042D01*
X26642517Y-6332042D01*
X26642517Y-6621958D01*
X26932433Y-6621958D01*
X27058725Y-8177000D02*
X27468725Y-8587000D01*
X27468725Y-8177000D02*
X27058725Y-8587000D01*
X27408683Y-8526958D02*
X27408683Y-8237042D01*
X27118767Y-8237042D01*
X27118767Y-8526958D01*
X27408683Y-8526958D01*
X27534975Y-4367000D02*
X27944975Y-4777000D01*
X27944975Y-4367000D02*
X27534975Y-4777000D01*
X27884933Y-4716958D02*
X27884933Y-4427042D01*
X27595017Y-4427042D01*
X27595017Y-4716958D01*
X27884933Y-4716958D01*
X28011225Y-10082000D02*
X28421225Y-10492000D01*
X28421225Y-10082000D02*
X28011225Y-10492000D01*
X28361183Y-10431958D02*
X28361183Y-10142042D01*
X28071267Y-10142042D01*
X28071267Y-10431958D01*
X28361183Y-10431958D01*
X28249350Y-11987000D02*
X28659350Y-12397000D01*
X28659350Y-11987000D02*
X28249350Y-12397000D01*
X28599308Y-12336958D02*
X28599308Y-12047042D01*
X28309392Y-12047042D01*
X28309392Y-12336958D01*
X28599308Y-12336958D01*
X28487475Y-6272000D02*
X28897475Y-6682000D01*
X28897475Y-6272000D02*
X28487475Y-6682000D01*
X28837433Y-6621958D02*
X28837433Y-6332042D01*
X28547517Y-6332042D01*
X28547517Y-6621958D01*
X28837433Y-6621958D01*
X28963725Y-8177000D02*
X29373725Y-8587000D01*
X29373725Y-8177000D02*
X28963725Y-8587000D01*
X29313683Y-8526958D02*
X29313683Y-8237042D01*
X29023767Y-8237042D01*
X29023767Y-8526958D01*
X29313683Y-8526958D01*
X29439975Y-4367000D02*
X29849975Y-4777000D01*
X29849975Y-4367000D02*
X29439975Y-4777000D01*
X29789933Y-4716958D02*
X29789933Y-4427042D01*
X29500017Y-4427042D01*
X29500017Y-4716958D01*
X29789933Y-4716958D01*
X30392475Y-6272000D02*
X30802475Y-6682000D01*
X30802475Y-6272000D02*
X30392475Y-6682000D01*
X30742433Y-6621958D02*
X30742433Y-6332042D01*
X30452517Y-6332042D01*
X30452517Y-6621958D01*
X30742433Y-6621958D01*
X30630600Y-11987000D02*
X31040600Y-12397000D01*
X31040600Y-11987000D02*
X30630600Y-12397000D01*
X30980558Y-12336958D02*
X30980558Y-12047042D01*
X30690642Y-12047042D01*
X30690642Y-12336958D01*
X30980558Y-12336958D01*
X31583100Y-10082000D02*
X31993100Y-10492000D01*
X31993100Y-10082000D02*
X31583100Y-10492000D01*
X31933058Y-10431958D02*
X31933058Y-10142042D01*
X31643142Y-10142042D01*
X31643142Y-10431958D01*
X31933058Y-10431958D01*
X32059350Y-8177000D02*
X32469350Y-8587000D01*
X32469350Y-8177000D02*
X32059350Y-8587000D01*
X32409308Y-8526958D02*
X32409308Y-8237042D01*
X32119392Y-8237042D01*
X32119392Y-8526958D01*
X32409308Y-8526958D01*
X32297475Y-4367000D02*
X32707475Y-4777000D01*
X32707475Y-4367000D02*
X32297475Y-4777000D01*
X32647433Y-4716958D02*
X32647433Y-4427042D01*
X32357517Y-4427042D01*
X32357517Y-4716958D01*
X32647433Y-4716958D01*
X32773725Y-6272000D02*
X33183725Y-6682000D01*
X33183725Y-6272000D02*
X32773725Y-6682000D01*
X33123683Y-6621958D02*
X33123683Y-6332042D01*
X32833767Y-6332042D01*
X32833767Y-6621958D01*
X33123683Y-6621958D01*
X33011850Y-11987000D02*
X33421850Y-12397000D01*
X33421850Y-11987000D02*
X33011850Y-12397000D01*
X33361808Y-12336958D02*
X33361808Y-12047042D01*
X33071892Y-12047042D01*
X33071892Y-12336958D01*
X33361808Y-12336958D01*
X35631150Y-4367000D02*
X36041150Y-4777000D01*
X36041150Y-4367000D02*
X35631150Y-4777000D01*
X35981108Y-4716958D02*
X35981108Y-4427042D01*
X35691192Y-4427042D01*
X35691192Y-4716958D01*
X35981108Y-4716958D01*
X35631150Y-6272000D02*
X36041150Y-6682000D01*
X36041150Y-6272000D02*
X35631150Y-6682000D01*
X35981108Y-6621958D02*
X35981108Y-6332042D01*
X35691192Y-6332042D01*
X35691192Y-6621958D01*
X35981108Y-6621958D01*
X35631150Y-11987000D02*
X36041150Y-12397000D01*
X36041150Y-11987000D02*
X35631150Y-12397000D01*
X35981108Y-12336958D02*
X35981108Y-12047042D01*
X35691192Y-12047042D01*
X35691192Y-12336958D01*
X35981108Y-12336958D01*
X37533050Y-10082000D02*
X37943050Y-10492000D01*
X37943050Y-10082000D02*
X37533050Y-10492000D01*
X37883008Y-10431958D02*
X37883008Y-10142042D01*
X37593092Y-10142042D01*
X37593092Y-10431958D01*
X37883008Y-10431958D01*
X37533050Y-11987000D02*
X37943050Y-12397000D01*
X37943050Y-11987000D02*
X37533050Y-12397000D01*
X37883008Y-12336958D02*
X37883008Y-12047042D01*
X37593092Y-12047042D01*
X37593092Y-12336958D01*
X37883008Y-12336958D01*
X37539400Y-4367000D02*
X37949400Y-4777000D01*
X37949400Y-4367000D02*
X37539400Y-4777000D01*
X37889358Y-4716958D02*
X37889358Y-4427042D01*
X37599442Y-4427042D01*
X37599442Y-4716958D01*
X37889358Y-4716958D01*
X37539400Y-6272000D02*
X37949400Y-6682000D01*
X37949400Y-6272000D02*
X37539400Y-6682000D01*
X37889358Y-6621958D02*
X37889358Y-6332042D01*
X37599442Y-6332042D01*
X37599442Y-6621958D01*
X37889358Y-6621958D01*
X39438050Y-11987000D02*
X39848050Y-12397000D01*
X39848050Y-11987000D02*
X39438050Y-12397000D01*
X39788008Y-12336958D02*
X39788008Y-12047042D01*
X39498092Y-12047042D01*
X39498092Y-12336958D01*
X39788008Y-12336958D01*
X39444400Y-4367000D02*
X39854400Y-4777000D01*
X39854400Y-4367000D02*
X39444400Y-4777000D01*
X39794358Y-4716958D02*
X39794358Y-4427042D01*
X39504442Y-4427042D01*
X39504442Y-4716958D01*
X39794358Y-4716958D01*
X39444400Y-6272000D02*
X39854400Y-6682000D01*
X39854400Y-6272000D02*
X39444400Y-6682000D01*
X39794358Y-6621958D02*
X39794358Y-6332042D01*
X39504442Y-6332042D01*
X39504442Y-6621958D01*
X39794358Y-6621958D01*
D12*
X2144629Y-15117514D02*
X2144629Y-14817514D01*
X2216057Y-14817514D01*
X2258914Y-14831800D01*
X2287486Y-14860371D01*
X2301771Y-14888943D01*
X2316057Y-14946086D01*
X2316057Y-14988943D01*
X2301771Y-15046086D01*
X2287486Y-15074657D01*
X2258914Y-15103228D01*
X2216057Y-15117514D01*
X2144629Y-15117514D01*
X2444629Y-15117514D02*
X2444629Y-14917514D01*
X2444629Y-14974657D02*
X2458914Y-14946086D01*
X2473200Y-14931800D01*
X2501771Y-14917514D01*
X2530343Y-14917514D01*
X2630343Y-15117514D02*
X2630343Y-14917514D01*
X2630343Y-14817514D02*
X2616057Y-14831800D01*
X2630343Y-14846086D01*
X2644629Y-14831800D01*
X2630343Y-14817514D01*
X2630343Y-14846086D01*
X2816057Y-15117514D02*
X2787486Y-15103228D01*
X2773200Y-15074657D01*
X2773200Y-14817514D01*
X2973200Y-15117514D02*
X2944628Y-15103228D01*
X2930343Y-15074657D01*
X2930343Y-14817514D01*
X3316057Y-15117514D02*
X3316057Y-14817514D01*
X3416057Y-15031800D01*
X3516057Y-14817514D01*
X3516057Y-15117514D01*
X3787486Y-15117514D02*
X3787486Y-14960371D01*
X3773200Y-14931800D01*
X3744628Y-14917514D01*
X3687486Y-14917514D01*
X3658914Y-14931800D01*
X3787486Y-15103228D02*
X3758914Y-15117514D01*
X3687486Y-15117514D01*
X3658914Y-15103228D01*
X3644628Y-15074657D01*
X3644628Y-15046086D01*
X3658914Y-15017514D01*
X3687486Y-15003228D01*
X3758914Y-15003228D01*
X3787486Y-14988943D01*
X3930343Y-14917514D02*
X3930343Y-15217514D01*
X3930343Y-14931800D02*
X3958914Y-14917514D01*
X4016057Y-14917514D01*
X4044628Y-14931800D01*
X4058914Y-14946086D01*
X4073200Y-14974657D01*
X4073200Y-15060371D01*
X4058914Y-15088943D01*
X4044628Y-15103228D01*
X4016057Y-15117514D01*
X3958914Y-15117514D01*
X3930343Y-15103228D01*
X4201771Y-15088943D02*
X4216057Y-15103228D01*
X4201771Y-15117514D01*
X4187486Y-15103228D01*
X4201771Y-15088943D01*
X4201771Y-15117514D01*
X4201771Y-14931800D02*
X4216057Y-14946086D01*
X4201771Y-14960371D01*
X4187486Y-14946086D01*
X4201771Y-14931800D01*
X4201771Y-14960371D01*
X1828200Y-15596800D02*
X1858200Y-15626800D01*
X1858200Y-15596800D02*
X1828200Y-15626800D01*
X2201771Y-15447514D02*
X2230343Y-15447514D01*
X2258914Y-15461800D01*
X2273200Y-15476086D01*
X2287486Y-15504657D01*
X2301771Y-15561800D01*
X2301771Y-15633228D01*
X2287486Y-15690371D01*
X2273200Y-15718943D01*
X2258914Y-15733228D01*
X2230343Y-15747514D01*
X2201771Y-15747514D01*
X2173200Y-15733228D01*
X2158914Y-15718943D01*
X2144629Y-15690371D01*
X2130343Y-15633228D01*
X2130343Y-15561800D01*
X2144629Y-15504657D01*
X2158914Y-15476086D01*
X2173200Y-15461800D01*
X2201771Y-15447514D01*
X2430343Y-15718943D02*
X2444629Y-15733228D01*
X2430343Y-15747514D01*
X2416057Y-15733228D01*
X2430343Y-15718943D01*
X2430343Y-15747514D01*
X2544629Y-15447514D02*
X2730343Y-15447514D01*
X2630343Y-15561800D01*
X2673200Y-15561800D01*
X2701771Y-15576086D01*
X2716057Y-15590371D01*
X2730343Y-15618943D01*
X2730343Y-15690371D01*
X2716057Y-15718943D01*
X2701771Y-15733228D01*
X2673200Y-15747514D01*
X2587486Y-15747514D01*
X2558914Y-15733228D01*
X2544629Y-15718943D01*
X2916057Y-15447514D02*
X2944628Y-15447514D01*
X2973200Y-15461800D01*
X2987486Y-15476086D01*
X3001771Y-15504657D01*
X3016057Y-15561800D01*
X3016057Y-15633228D01*
X3001771Y-15690371D01*
X2987486Y-15718943D01*
X2973200Y-15733228D01*
X2944628Y-15747514D01*
X2916057Y-15747514D01*
X2887486Y-15733228D01*
X2873200Y-15718943D01*
X2858914Y-15690371D01*
X2844628Y-15633228D01*
X2844628Y-15561800D01*
X2858914Y-15504657D01*
X2873200Y-15476086D01*
X2887486Y-15461800D01*
X2916057Y-15447514D01*
X3144628Y-15747514D02*
X3144628Y-15547514D01*
X3144628Y-15576086D02*
X3158914Y-15561800D01*
X3187486Y-15547514D01*
X3230343Y-15547514D01*
X3258914Y-15561800D01*
X3273200Y-15590371D01*
X3273200Y-15747514D01*
X3273200Y-15590371D02*
X3287486Y-15561800D01*
X3316057Y-15547514D01*
X3358914Y-15547514D01*
X3387486Y-15561800D01*
X3401771Y-15590371D01*
X3401771Y-15747514D01*
X3544628Y-15747514D02*
X3544628Y-15547514D01*
X3544628Y-15576086D02*
X3558914Y-15561800D01*
X3587486Y-15547514D01*
X3630343Y-15547514D01*
X3658914Y-15561800D01*
X3673200Y-15590371D01*
X3673200Y-15747514D01*
X3673200Y-15590371D02*
X3687486Y-15561800D01*
X3716057Y-15547514D01*
X3758914Y-15547514D01*
X3787486Y-15561800D01*
X3801771Y-15590371D01*
X3801771Y-15747514D01*
X4387486Y-15433228D02*
X4130343Y-15818943D01*
X4773200Y-15447514D02*
X4801771Y-15447514D01*
X4830343Y-15461800D01*
X4844629Y-15476086D01*
X4858914Y-15504657D01*
X4873200Y-15561800D01*
X4873200Y-15633228D01*
X4858914Y-15690371D01*
X4844629Y-15718943D01*
X4830343Y-15733228D01*
X4801771Y-15747514D01*
X4773200Y-15747514D01*
X4744629Y-15733228D01*
X4730343Y-15718943D01*
X4716057Y-15690371D01*
X4701771Y-15633228D01*
X4701771Y-15561800D01*
X4716057Y-15504657D01*
X4730343Y-15476086D01*
X4744629Y-15461800D01*
X4773200Y-15447514D01*
X5001771Y-15718943D02*
X5016057Y-15733228D01*
X5001771Y-15747514D01*
X4987486Y-15733228D01*
X5001771Y-15718943D01*
X5001771Y-15747514D01*
X5201771Y-15447514D02*
X5230343Y-15447514D01*
X5258914Y-15461800D01*
X5273200Y-15476086D01*
X5287486Y-15504657D01*
X5301771Y-15561800D01*
X5301771Y-15633228D01*
X5287486Y-15690371D01*
X5273200Y-15718943D01*
X5258914Y-15733228D01*
X5230343Y-15747514D01*
X5201771Y-15747514D01*
X5173200Y-15733228D01*
X5158914Y-15718943D01*
X5144629Y-15690371D01*
X5130343Y-15633228D01*
X5130343Y-15561800D01*
X5144629Y-15504657D01*
X5158914Y-15476086D01*
X5173200Y-15461800D01*
X5201771Y-15447514D01*
X5587486Y-15747514D02*
X5416057Y-15747514D01*
X5501771Y-15747514D02*
X5501771Y-15447514D01*
X5473200Y-15490371D01*
X5444629Y-15518943D01*
X5416057Y-15533228D01*
X5701771Y-15476086D02*
X5716057Y-15461800D01*
X5744628Y-15447514D01*
X5816057Y-15447514D01*
X5844628Y-15461800D01*
X5858914Y-15476086D01*
X5873200Y-15504657D01*
X5873200Y-15533228D01*
X5858914Y-15576086D01*
X5687486Y-15747514D01*
X5873200Y-15747514D01*
X5987486Y-15447514D02*
X5987486Y-15504657D01*
X6101771Y-15447514D02*
X6101771Y-15504657D01*
X6544628Y-15861800D02*
X6530343Y-15847514D01*
X6501771Y-15804657D01*
X6487486Y-15776086D01*
X6473200Y-15733228D01*
X6458914Y-15661800D01*
X6458914Y-15604657D01*
X6473200Y-15533228D01*
X6487486Y-15490371D01*
X6501771Y-15461800D01*
X6530343Y-15418943D01*
X6544628Y-15404657D01*
X6630343Y-15447514D02*
X6830343Y-15447514D01*
X6701771Y-15747514D01*
X6930343Y-15476086D02*
X6944628Y-15461800D01*
X6973200Y-15447514D01*
X7044628Y-15447514D01*
X7073200Y-15461800D01*
X7087486Y-15476086D01*
X7101771Y-15504657D01*
X7101771Y-15533228D01*
X7087486Y-15576086D01*
X6916057Y-15747514D01*
X7101771Y-15747514D01*
X7458914Y-15747514D02*
X7458914Y-15447514D01*
X7587486Y-15747514D02*
X7587486Y-15590371D01*
X7573200Y-15561800D01*
X7544628Y-15547514D01*
X7501771Y-15547514D01*
X7473200Y-15561800D01*
X7458914Y-15576086D01*
X7773200Y-15747514D02*
X7744628Y-15733228D01*
X7730343Y-15718943D01*
X7716057Y-15690371D01*
X7716057Y-15604657D01*
X7730343Y-15576086D01*
X7744628Y-15561800D01*
X7773200Y-15547514D01*
X7816057Y-15547514D01*
X7844628Y-15561800D01*
X7858914Y-15576086D01*
X7873200Y-15604657D01*
X7873200Y-15690371D01*
X7858914Y-15718943D01*
X7844628Y-15733228D01*
X7816057Y-15747514D01*
X7773200Y-15747514D01*
X8044628Y-15747514D02*
X8016057Y-15733228D01*
X8001771Y-15704657D01*
X8001771Y-15447514D01*
X8273200Y-15733228D02*
X8244628Y-15747514D01*
X8187486Y-15747514D01*
X8158914Y-15733228D01*
X8144628Y-15704657D01*
X8144628Y-15590371D01*
X8158914Y-15561800D01*
X8187486Y-15547514D01*
X8244628Y-15547514D01*
X8273200Y-15561800D01*
X8287486Y-15590371D01*
X8287486Y-15618943D01*
X8144628Y-15647514D01*
X8401771Y-15733228D02*
X8430343Y-15747514D01*
X8487486Y-15747514D01*
X8516057Y-15733228D01*
X8530343Y-15704657D01*
X8530343Y-15690371D01*
X8516057Y-15661800D01*
X8487486Y-15647514D01*
X8444629Y-15647514D01*
X8416057Y-15633228D01*
X8401771Y-15604657D01*
X8401771Y-15590371D01*
X8416057Y-15561800D01*
X8444629Y-15547514D01*
X8487486Y-15547514D01*
X8516057Y-15561800D01*
X8630343Y-15861800D02*
X8644629Y-15847514D01*
X8673200Y-15804657D01*
X8687486Y-15776086D01*
X8701771Y-15733228D01*
X8716057Y-15661800D01*
X8716057Y-15604657D01*
X8701771Y-15533228D01*
X8687486Y-15490371D01*
X8673200Y-15461800D01*
X8644629Y-15418943D01*
X8630343Y-15404657D01*
X9173200Y-15861800D02*
X9158914Y-15847514D01*
X9130343Y-15804657D01*
X9116057Y-15776086D01*
X9101771Y-15733228D01*
X9087486Y-15661800D01*
X9087486Y-15604657D01*
X9101771Y-15533228D01*
X9116057Y-15490371D01*
X9130343Y-15461800D01*
X9158914Y-15418943D01*
X9173200Y-15404657D01*
X9287486Y-15547514D02*
X9287486Y-15747514D01*
X9287486Y-15576086D02*
X9301771Y-15561800D01*
X9330343Y-15547514D01*
X9373200Y-15547514D01*
X9401771Y-15561800D01*
X9416057Y-15590371D01*
X9416057Y-15747514D01*
X9601771Y-15747514D02*
X9573200Y-15733228D01*
X9558914Y-15718943D01*
X9544629Y-15690371D01*
X9544629Y-15604657D01*
X9558914Y-15576086D01*
X9573200Y-15561800D01*
X9601771Y-15547514D01*
X9644629Y-15547514D01*
X9673200Y-15561800D01*
X9687486Y-15576086D01*
X9701771Y-15604657D01*
X9701771Y-15690371D01*
X9687486Y-15718943D01*
X9673200Y-15733228D01*
X9644629Y-15747514D01*
X9601771Y-15747514D01*
X9787486Y-15547514D02*
X9901771Y-15547514D01*
X9830343Y-15447514D02*
X9830343Y-15704657D01*
X9844629Y-15733228D01*
X9873200Y-15747514D01*
X9901771Y-15747514D01*
X10230343Y-15547514D02*
X10230343Y-15847514D01*
X10230343Y-15561800D02*
X10258914Y-15547514D01*
X10316057Y-15547514D01*
X10344629Y-15561800D01*
X10358914Y-15576086D01*
X10373200Y-15604657D01*
X10373200Y-15690371D01*
X10358914Y-15718943D01*
X10344629Y-15733228D01*
X10316057Y-15747514D01*
X10258914Y-15747514D01*
X10230343Y-15733228D01*
X10544629Y-15747514D02*
X10516057Y-15733228D01*
X10501771Y-15704657D01*
X10501771Y-15447514D01*
X10787486Y-15747514D02*
X10787486Y-15590371D01*
X10773200Y-15561800D01*
X10744629Y-15547514D01*
X10687486Y-15547514D01*
X10658914Y-15561800D01*
X10787486Y-15733228D02*
X10758914Y-15747514D01*
X10687486Y-15747514D01*
X10658914Y-15733228D01*
X10644629Y-15704657D01*
X10644629Y-15676086D01*
X10658914Y-15647514D01*
X10687486Y-15633228D01*
X10758914Y-15633228D01*
X10787486Y-15618943D01*
X10887486Y-15547514D02*
X11001771Y-15547514D01*
X10930343Y-15447514D02*
X10930343Y-15704657D01*
X10944629Y-15733228D01*
X10973200Y-15747514D01*
X11001771Y-15747514D01*
X11216057Y-15733228D02*
X11187486Y-15747514D01*
X11130343Y-15747514D01*
X11101771Y-15733228D01*
X11087486Y-15704657D01*
X11087486Y-15590371D01*
X11101771Y-15561800D01*
X11130343Y-15547514D01*
X11187486Y-15547514D01*
X11216057Y-15561800D01*
X11230343Y-15590371D01*
X11230343Y-15618943D01*
X11087486Y-15647514D01*
X11487486Y-15747514D02*
X11487486Y-15447514D01*
X11487486Y-15733228D02*
X11458914Y-15747514D01*
X11401771Y-15747514D01*
X11373200Y-15733228D01*
X11358914Y-15718943D01*
X11344628Y-15690371D01*
X11344628Y-15604657D01*
X11358914Y-15576086D01*
X11373200Y-15561800D01*
X11401771Y-15547514D01*
X11458914Y-15547514D01*
X11487486Y-15561800D01*
X11601771Y-15861800D02*
X11616057Y-15847514D01*
X11644628Y-15804657D01*
X11658914Y-15776086D01*
X11673200Y-15733228D01*
X11687486Y-15661800D01*
X11687486Y-15604657D01*
X11673200Y-15533228D01*
X11658914Y-15490371D01*
X11644628Y-15461800D01*
X11616057Y-15418943D01*
X11601771Y-15404657D01*
X1858200Y-16007800D02*
G75*
G03*
X1858200Y-16007800I-60000J0D01*
G01*
X2301771Y-16143514D02*
X2130343Y-16143514D01*
X2216057Y-16143514D02*
X2216057Y-15843514D01*
X2187486Y-15886371D01*
X2158914Y-15914943D01*
X2130343Y-15929228D01*
X2430343Y-16114943D02*
X2444629Y-16129228D01*
X2430343Y-16143514D01*
X2416057Y-16129228D01*
X2430343Y-16114943D01*
X2430343Y-16143514D01*
X2558914Y-15872086D02*
X2573200Y-15857800D01*
X2601771Y-15843514D01*
X2673200Y-15843514D01*
X2701771Y-15857800D01*
X2716057Y-15872086D01*
X2730343Y-15900657D01*
X2730343Y-15929228D01*
X2716057Y-15972086D01*
X2544629Y-16143514D01*
X2730343Y-16143514D01*
X2916057Y-15843514D02*
X2944628Y-15843514D01*
X2973200Y-15857800D01*
X2987486Y-15872086D01*
X3001771Y-15900657D01*
X3016057Y-15957800D01*
X3016057Y-16029228D01*
X3001771Y-16086371D01*
X2987486Y-16114943D01*
X2973200Y-16129228D01*
X2944628Y-16143514D01*
X2916057Y-16143514D01*
X2887486Y-16129228D01*
X2873200Y-16114943D01*
X2858914Y-16086371D01*
X2844628Y-16029228D01*
X2844628Y-15957800D01*
X2858914Y-15900657D01*
X2873200Y-15872086D01*
X2887486Y-15857800D01*
X2916057Y-15843514D01*
X3144628Y-16143514D02*
X3144628Y-15943514D01*
X3144628Y-15972086D02*
X3158914Y-15957800D01*
X3187486Y-15943514D01*
X3230343Y-15943514D01*
X3258914Y-15957800D01*
X3273200Y-15986371D01*
X3273200Y-16143514D01*
X3273200Y-15986371D02*
X3287486Y-15957800D01*
X3316057Y-15943514D01*
X3358914Y-15943514D01*
X3387486Y-15957800D01*
X3401771Y-15986371D01*
X3401771Y-16143514D01*
X3544628Y-16143514D02*
X3544628Y-15943514D01*
X3544628Y-15972086D02*
X3558914Y-15957800D01*
X3587486Y-15943514D01*
X3630343Y-15943514D01*
X3658914Y-15957800D01*
X3673200Y-15986371D01*
X3673200Y-16143514D01*
X3673200Y-15986371D02*
X3687486Y-15957800D01*
X3716057Y-15943514D01*
X3758914Y-15943514D01*
X3787486Y-15957800D01*
X3801771Y-15986371D01*
X3801771Y-16143514D01*
X4387486Y-15829228D02*
X4130343Y-16214943D01*
X4773200Y-15843514D02*
X4801771Y-15843514D01*
X4830343Y-15857800D01*
X4844629Y-15872086D01*
X4858914Y-15900657D01*
X4873200Y-15957800D01*
X4873200Y-16029228D01*
X4858914Y-16086371D01*
X4844629Y-16114943D01*
X4830343Y-16129228D01*
X4801771Y-16143514D01*
X4773200Y-16143514D01*
X4744629Y-16129228D01*
X4730343Y-16114943D01*
X4716057Y-16086371D01*
X4701771Y-16029228D01*
X4701771Y-15957800D01*
X4716057Y-15900657D01*
X4730343Y-15872086D01*
X4744629Y-15857800D01*
X4773200Y-15843514D01*
X5001771Y-16114943D02*
X5016057Y-16129228D01*
X5001771Y-16143514D01*
X4987486Y-16129228D01*
X5001771Y-16114943D01*
X5001771Y-16143514D01*
X5201771Y-15843514D02*
X5230343Y-15843514D01*
X5258914Y-15857800D01*
X5273200Y-15872086D01*
X5287486Y-15900657D01*
X5301771Y-15957800D01*
X5301771Y-16029228D01*
X5287486Y-16086371D01*
X5273200Y-16114943D01*
X5258914Y-16129228D01*
X5230343Y-16143514D01*
X5201771Y-16143514D01*
X5173200Y-16129228D01*
X5158914Y-16114943D01*
X5144629Y-16086371D01*
X5130343Y-16029228D01*
X5130343Y-15957800D01*
X5144629Y-15900657D01*
X5158914Y-15872086D01*
X5173200Y-15857800D01*
X5201771Y-15843514D01*
X5558914Y-15943514D02*
X5558914Y-16143514D01*
X5487486Y-15829228D02*
X5416057Y-16043514D01*
X5601771Y-16043514D01*
X5687486Y-15843514D02*
X5887486Y-15843514D01*
X5758914Y-16143514D01*
X5987486Y-15843514D02*
X5987486Y-15900657D01*
X6101771Y-15843514D02*
X6101771Y-15900657D01*
X6544628Y-16257800D02*
X6530343Y-16243514D01*
X6501771Y-16200657D01*
X6487486Y-16172086D01*
X6473200Y-16129228D01*
X6458914Y-16057800D01*
X6458914Y-16000657D01*
X6473200Y-15929228D01*
X6487486Y-15886371D01*
X6501771Y-15857800D01*
X6530343Y-15814943D01*
X6544628Y-15800657D01*
X6787486Y-15943514D02*
X6787486Y-16143514D01*
X6716057Y-15829228D02*
X6644628Y-16043514D01*
X6830343Y-16043514D01*
X7173200Y-16143514D02*
X7173200Y-15843514D01*
X7301771Y-16143514D02*
X7301771Y-15986371D01*
X7287486Y-15957800D01*
X7258914Y-15943514D01*
X7216057Y-15943514D01*
X7187486Y-15957800D01*
X7173200Y-15972086D01*
X7487486Y-16143514D02*
X7458914Y-16129228D01*
X7444628Y-16114943D01*
X7430343Y-16086371D01*
X7430343Y-16000657D01*
X7444628Y-15972086D01*
X7458914Y-15957800D01*
X7487486Y-15943514D01*
X7530343Y-15943514D01*
X7558914Y-15957800D01*
X7573200Y-15972086D01*
X7587486Y-16000657D01*
X7587486Y-16086371D01*
X7573200Y-16114943D01*
X7558914Y-16129228D01*
X7530343Y-16143514D01*
X7487486Y-16143514D01*
X7758914Y-16143514D02*
X7730343Y-16129228D01*
X7716057Y-16100657D01*
X7716057Y-15843514D01*
X7987486Y-16129228D02*
X7958914Y-16143514D01*
X7901771Y-16143514D01*
X7873200Y-16129228D01*
X7858914Y-16100657D01*
X7858914Y-15986371D01*
X7873200Y-15957800D01*
X7901771Y-15943514D01*
X7958914Y-15943514D01*
X7987486Y-15957800D01*
X8001771Y-15986371D01*
X8001771Y-16014943D01*
X7858914Y-16043514D01*
X8116057Y-16129228D02*
X8144628Y-16143514D01*
X8201771Y-16143514D01*
X8230343Y-16129228D01*
X8244628Y-16100657D01*
X8244628Y-16086371D01*
X8230343Y-16057800D01*
X8201771Y-16043514D01*
X8158914Y-16043514D01*
X8130343Y-16029228D01*
X8116057Y-16000657D01*
X8116057Y-15986371D01*
X8130343Y-15957800D01*
X8158914Y-15943514D01*
X8201771Y-15943514D01*
X8230343Y-15957800D01*
X8344628Y-16257800D02*
X8358914Y-16243514D01*
X8387486Y-16200657D01*
X8401771Y-16172086D01*
X8416057Y-16129228D01*
X8430343Y-16057800D01*
X8430343Y-16000657D01*
X8416057Y-15929228D01*
X8401771Y-15886371D01*
X8387486Y-15857800D01*
X8358914Y-15814943D01*
X8344628Y-15800657D01*
X8887486Y-16257800D02*
X8873200Y-16243514D01*
X8844629Y-16200657D01*
X8830343Y-16172086D01*
X8816057Y-16129228D01*
X8801771Y-16057800D01*
X8801771Y-16000657D01*
X8816057Y-15929228D01*
X8830343Y-15886371D01*
X8844629Y-15857800D01*
X8873200Y-15814943D01*
X8887486Y-15800657D01*
X9001771Y-15943514D02*
X9001771Y-16143514D01*
X9001771Y-15972086D02*
X9016057Y-15957800D01*
X9044629Y-15943514D01*
X9087486Y-15943514D01*
X9116057Y-15957800D01*
X9130343Y-15986371D01*
X9130343Y-16143514D01*
X9316057Y-16143514D02*
X9287486Y-16129228D01*
X9273200Y-16114943D01*
X9258914Y-16086371D01*
X9258914Y-16000657D01*
X9273200Y-15972086D01*
X9287486Y-15957800D01*
X9316057Y-15943514D01*
X9358914Y-15943514D01*
X9387486Y-15957800D01*
X9401771Y-15972086D01*
X9416057Y-16000657D01*
X9416057Y-16086371D01*
X9401771Y-16114943D01*
X9387486Y-16129228D01*
X9358914Y-16143514D01*
X9316057Y-16143514D01*
X9501771Y-15943514D02*
X9616057Y-15943514D01*
X9544629Y-15843514D02*
X9544629Y-16100657D01*
X9558914Y-16129228D01*
X9587486Y-16143514D01*
X9616057Y-16143514D01*
X9944629Y-15943514D02*
X9944629Y-16243514D01*
X9944629Y-15957800D02*
X9973200Y-15943514D01*
X10030343Y-15943514D01*
X10058914Y-15957800D01*
X10073200Y-15972086D01*
X10087486Y-16000657D01*
X10087486Y-16086371D01*
X10073200Y-16114943D01*
X10058914Y-16129228D01*
X10030343Y-16143514D01*
X9973200Y-16143514D01*
X9944629Y-16129228D01*
X10258914Y-16143514D02*
X10230343Y-16129228D01*
X10216057Y-16100657D01*
X10216057Y-15843514D01*
X10501771Y-16143514D02*
X10501771Y-15986371D01*
X10487486Y-15957800D01*
X10458914Y-15943514D01*
X10401771Y-15943514D01*
X10373200Y-15957800D01*
X10501771Y-16129228D02*
X10473200Y-16143514D01*
X10401771Y-16143514D01*
X10373200Y-16129228D01*
X10358914Y-16100657D01*
X10358914Y-16072086D01*
X10373200Y-16043514D01*
X10401771Y-16029228D01*
X10473200Y-16029228D01*
X10501771Y-16014943D01*
X10601771Y-15943514D02*
X10716057Y-15943514D01*
X10644629Y-15843514D02*
X10644629Y-16100657D01*
X10658914Y-16129228D01*
X10687486Y-16143514D01*
X10716057Y-16143514D01*
X10930343Y-16129228D02*
X10901771Y-16143514D01*
X10844629Y-16143514D01*
X10816057Y-16129228D01*
X10801771Y-16100657D01*
X10801771Y-15986371D01*
X10816057Y-15957800D01*
X10844629Y-15943514D01*
X10901771Y-15943514D01*
X10930343Y-15957800D01*
X10944629Y-15986371D01*
X10944629Y-16014943D01*
X10801771Y-16043514D01*
X11201771Y-16143514D02*
X11201771Y-15843514D01*
X11201771Y-16129228D02*
X11173200Y-16143514D01*
X11116057Y-16143514D01*
X11087486Y-16129228D01*
X11073200Y-16114943D01*
X11058914Y-16086371D01*
X11058914Y-16000657D01*
X11073200Y-15972086D01*
X11087486Y-15957800D01*
X11116057Y-15943514D01*
X11173200Y-15943514D01*
X11201771Y-15957800D01*
X11316057Y-16257800D02*
X11330343Y-16243514D01*
X11358914Y-16200657D01*
X11373200Y-16172086D01*
X11387486Y-16129228D01*
X11401771Y-16057800D01*
X11401771Y-16000657D01*
X11387486Y-15929228D01*
X11373200Y-15886371D01*
X11358914Y-15857800D01*
X11330343Y-15814943D01*
X11316057Y-15800657D01*
X1770700Y-16316300D02*
X1770700Y-16491300D01*
X1683200Y-16403800D02*
X1858200Y-16403800D01*
X2301771Y-16539514D02*
X2130343Y-16539514D01*
X2216057Y-16539514D02*
X2216057Y-16239514D01*
X2187486Y-16282371D01*
X2158914Y-16310943D01*
X2130343Y-16325228D01*
X2430343Y-16510943D02*
X2444629Y-16525228D01*
X2430343Y-16539514D01*
X2416057Y-16525228D01*
X2430343Y-16510943D01*
X2430343Y-16539514D01*
X2544629Y-16239514D02*
X2744629Y-16239514D01*
X2616057Y-16539514D01*
X3001771Y-16239514D02*
X2858914Y-16239514D01*
X2844628Y-16382371D01*
X2858914Y-16368086D01*
X2887486Y-16353800D01*
X2958914Y-16353800D01*
X2987486Y-16368086D01*
X3001771Y-16382371D01*
X3016057Y-16410943D01*
X3016057Y-16482371D01*
X3001771Y-16510943D01*
X2987486Y-16525228D01*
X2958914Y-16539514D01*
X2887486Y-16539514D01*
X2858914Y-16525228D01*
X2844628Y-16510943D01*
X3144628Y-16539514D02*
X3144628Y-16339514D01*
X3144628Y-16368086D02*
X3158914Y-16353800D01*
X3187486Y-16339514D01*
X3230343Y-16339514D01*
X3258914Y-16353800D01*
X3273200Y-16382371D01*
X3273200Y-16539514D01*
X3273200Y-16382371D02*
X3287486Y-16353800D01*
X3316057Y-16339514D01*
X3358914Y-16339514D01*
X3387486Y-16353800D01*
X3401771Y-16382371D01*
X3401771Y-16539514D01*
X3544628Y-16539514D02*
X3544628Y-16339514D01*
X3544628Y-16368086D02*
X3558914Y-16353800D01*
X3587486Y-16339514D01*
X3630343Y-16339514D01*
X3658914Y-16353800D01*
X3673200Y-16382371D01*
X3673200Y-16539514D01*
X3673200Y-16382371D02*
X3687486Y-16353800D01*
X3716057Y-16339514D01*
X3758914Y-16339514D01*
X3787486Y-16353800D01*
X3801771Y-16382371D01*
X3801771Y-16539514D01*
X4387486Y-16225228D02*
X4130343Y-16610943D01*
X4773200Y-16239514D02*
X4801771Y-16239514D01*
X4830343Y-16253800D01*
X4844629Y-16268086D01*
X4858914Y-16296657D01*
X4873200Y-16353800D01*
X4873200Y-16425228D01*
X4858914Y-16482371D01*
X4844629Y-16510943D01*
X4830343Y-16525228D01*
X4801771Y-16539514D01*
X4773200Y-16539514D01*
X4744629Y-16525228D01*
X4730343Y-16510943D01*
X4716057Y-16482371D01*
X4701771Y-16425228D01*
X4701771Y-16353800D01*
X4716057Y-16296657D01*
X4730343Y-16268086D01*
X4744629Y-16253800D01*
X4773200Y-16239514D01*
X5001771Y-16510943D02*
X5016057Y-16525228D01*
X5001771Y-16539514D01*
X4987486Y-16525228D01*
X5001771Y-16510943D01*
X5001771Y-16539514D01*
X5201771Y-16239514D02*
X5230343Y-16239514D01*
X5258914Y-16253800D01*
X5273200Y-16268086D01*
X5287486Y-16296657D01*
X5301771Y-16353800D01*
X5301771Y-16425228D01*
X5287486Y-16482371D01*
X5273200Y-16510943D01*
X5258914Y-16525228D01*
X5230343Y-16539514D01*
X5201771Y-16539514D01*
X5173200Y-16525228D01*
X5158914Y-16510943D01*
X5144629Y-16482371D01*
X5130343Y-16425228D01*
X5130343Y-16353800D01*
X5144629Y-16296657D01*
X5158914Y-16268086D01*
X5173200Y-16253800D01*
X5201771Y-16239514D01*
X5558914Y-16239514D02*
X5501771Y-16239514D01*
X5473200Y-16253800D01*
X5458914Y-16268086D01*
X5430343Y-16310943D01*
X5416057Y-16368086D01*
X5416057Y-16482371D01*
X5430343Y-16510943D01*
X5444629Y-16525228D01*
X5473200Y-16539514D01*
X5530343Y-16539514D01*
X5558914Y-16525228D01*
X5573200Y-16510943D01*
X5587486Y-16482371D01*
X5587486Y-16410943D01*
X5573200Y-16382371D01*
X5558914Y-16368086D01*
X5530343Y-16353800D01*
X5473200Y-16353800D01*
X5444629Y-16368086D01*
X5430343Y-16382371D01*
X5416057Y-16410943D01*
X5730343Y-16539514D02*
X5787486Y-16539514D01*
X5816057Y-16525228D01*
X5830343Y-16510943D01*
X5858914Y-16468086D01*
X5873200Y-16410943D01*
X5873200Y-16296657D01*
X5858914Y-16268086D01*
X5844628Y-16253800D01*
X5816057Y-16239514D01*
X5758914Y-16239514D01*
X5730343Y-16253800D01*
X5716057Y-16268086D01*
X5701771Y-16296657D01*
X5701771Y-16368086D01*
X5716057Y-16396657D01*
X5730343Y-16410943D01*
X5758914Y-16425228D01*
X5816057Y-16425228D01*
X5844628Y-16410943D01*
X5858914Y-16396657D01*
X5873200Y-16368086D01*
X5987486Y-16239514D02*
X5987486Y-16296657D01*
X6101771Y-16239514D02*
X6101771Y-16296657D01*
X6544628Y-16653800D02*
X6530343Y-16639514D01*
X6501771Y-16596657D01*
X6487486Y-16568086D01*
X6473200Y-16525228D01*
X6458914Y-16453800D01*
X6458914Y-16396657D01*
X6473200Y-16325228D01*
X6487486Y-16282371D01*
X6501771Y-16253800D01*
X6530343Y-16210943D01*
X6544628Y-16196657D01*
X6630343Y-16239514D02*
X6816057Y-16239514D01*
X6716057Y-16353800D01*
X6758914Y-16353800D01*
X6787486Y-16368086D01*
X6801771Y-16382371D01*
X6816057Y-16410943D01*
X6816057Y-16482371D01*
X6801771Y-16510943D01*
X6787486Y-16525228D01*
X6758914Y-16539514D01*
X6673200Y-16539514D01*
X6644628Y-16525228D01*
X6630343Y-16510943D01*
X7073200Y-16339514D02*
X7073200Y-16539514D01*
X7001771Y-16225228D02*
X6930343Y-16439514D01*
X7116057Y-16439514D01*
X7458914Y-16539514D02*
X7458914Y-16239514D01*
X7587486Y-16539514D02*
X7587486Y-16382371D01*
X7573200Y-16353800D01*
X7544628Y-16339514D01*
X7501771Y-16339514D01*
X7473200Y-16353800D01*
X7458914Y-16368086D01*
X7773200Y-16539514D02*
X7744628Y-16525228D01*
X7730343Y-16510943D01*
X7716057Y-16482371D01*
X7716057Y-16396657D01*
X7730343Y-16368086D01*
X7744628Y-16353800D01*
X7773200Y-16339514D01*
X7816057Y-16339514D01*
X7844628Y-16353800D01*
X7858914Y-16368086D01*
X7873200Y-16396657D01*
X7873200Y-16482371D01*
X7858914Y-16510943D01*
X7844628Y-16525228D01*
X7816057Y-16539514D01*
X7773200Y-16539514D01*
X8044628Y-16539514D02*
X8016057Y-16525228D01*
X8001771Y-16496657D01*
X8001771Y-16239514D01*
X8273200Y-16525228D02*
X8244628Y-16539514D01*
X8187486Y-16539514D01*
X8158914Y-16525228D01*
X8144628Y-16496657D01*
X8144628Y-16382371D01*
X8158914Y-16353800D01*
X8187486Y-16339514D01*
X8244628Y-16339514D01*
X8273200Y-16353800D01*
X8287486Y-16382371D01*
X8287486Y-16410943D01*
X8144628Y-16439514D01*
X8401771Y-16525228D02*
X8430343Y-16539514D01*
X8487486Y-16539514D01*
X8516057Y-16525228D01*
X8530343Y-16496657D01*
X8530343Y-16482371D01*
X8516057Y-16453800D01*
X8487486Y-16439514D01*
X8444629Y-16439514D01*
X8416057Y-16425228D01*
X8401771Y-16396657D01*
X8401771Y-16382371D01*
X8416057Y-16353800D01*
X8444629Y-16339514D01*
X8487486Y-16339514D01*
X8516057Y-16353800D01*
X8630343Y-16653800D02*
X8644629Y-16639514D01*
X8673200Y-16596657D01*
X8687486Y-16568086D01*
X8701771Y-16525228D01*
X8716057Y-16453800D01*
X8716057Y-16396657D01*
X8701771Y-16325228D01*
X8687486Y-16282371D01*
X8673200Y-16253800D01*
X8644629Y-16210943D01*
X8630343Y-16196657D01*
X9173200Y-16653800D02*
X9158914Y-16639514D01*
X9130343Y-16596657D01*
X9116057Y-16568086D01*
X9101771Y-16525228D01*
X9087486Y-16453800D01*
X9087486Y-16396657D01*
X9101771Y-16325228D01*
X9116057Y-16282371D01*
X9130343Y-16253800D01*
X9158914Y-16210943D01*
X9173200Y-16196657D01*
X9287486Y-16339514D02*
X9287486Y-16539514D01*
X9287486Y-16368086D02*
X9301771Y-16353800D01*
X9330343Y-16339514D01*
X9373200Y-16339514D01*
X9401771Y-16353800D01*
X9416057Y-16382371D01*
X9416057Y-16539514D01*
X9601771Y-16539514D02*
X9573200Y-16525228D01*
X9558914Y-16510943D01*
X9544629Y-16482371D01*
X9544629Y-16396657D01*
X9558914Y-16368086D01*
X9573200Y-16353800D01*
X9601771Y-16339514D01*
X9644629Y-16339514D01*
X9673200Y-16353800D01*
X9687486Y-16368086D01*
X9701771Y-16396657D01*
X9701771Y-16482371D01*
X9687486Y-16510943D01*
X9673200Y-16525228D01*
X9644629Y-16539514D01*
X9601771Y-16539514D01*
X9787486Y-16339514D02*
X9901771Y-16339514D01*
X9830343Y-16239514D02*
X9830343Y-16496657D01*
X9844629Y-16525228D01*
X9873200Y-16539514D01*
X9901771Y-16539514D01*
X10230343Y-16339514D02*
X10230343Y-16639514D01*
X10230343Y-16353800D02*
X10258914Y-16339514D01*
X10316057Y-16339514D01*
X10344629Y-16353800D01*
X10358914Y-16368086D01*
X10373200Y-16396657D01*
X10373200Y-16482371D01*
X10358914Y-16510943D01*
X10344629Y-16525228D01*
X10316057Y-16539514D01*
X10258914Y-16539514D01*
X10230343Y-16525228D01*
X10544629Y-16539514D02*
X10516057Y-16525228D01*
X10501771Y-16496657D01*
X10501771Y-16239514D01*
X10787486Y-16539514D02*
X10787486Y-16382371D01*
X10773200Y-16353800D01*
X10744629Y-16339514D01*
X10687486Y-16339514D01*
X10658914Y-16353800D01*
X10787486Y-16525228D02*
X10758914Y-16539514D01*
X10687486Y-16539514D01*
X10658914Y-16525228D01*
X10644629Y-16496657D01*
X10644629Y-16468086D01*
X10658914Y-16439514D01*
X10687486Y-16425228D01*
X10758914Y-16425228D01*
X10787486Y-16410943D01*
X10887486Y-16339514D02*
X11001771Y-16339514D01*
X10930343Y-16239514D02*
X10930343Y-16496657D01*
X10944629Y-16525228D01*
X10973200Y-16539514D01*
X11001771Y-16539514D01*
X11216057Y-16525228D02*
X11187486Y-16539514D01*
X11130343Y-16539514D01*
X11101771Y-16525228D01*
X11087486Y-16496657D01*
X11087486Y-16382371D01*
X11101771Y-16353800D01*
X11130343Y-16339514D01*
X11187486Y-16339514D01*
X11216057Y-16353800D01*
X11230343Y-16382371D01*
X11230343Y-16410943D01*
X11087486Y-16439514D01*
X11487486Y-16539514D02*
X11487486Y-16239514D01*
X11487486Y-16525228D02*
X11458914Y-16539514D01*
X11401771Y-16539514D01*
X11373200Y-16525228D01*
X11358914Y-16510943D01*
X11344628Y-16482371D01*
X11344628Y-16396657D01*
X11358914Y-16368086D01*
X11373200Y-16353800D01*
X11401771Y-16339514D01*
X11458914Y-16339514D01*
X11487486Y-16353800D01*
X11601771Y-16653800D02*
X11616057Y-16639514D01*
X11644628Y-16596657D01*
X11658914Y-16568086D01*
X11673200Y-16525228D01*
X11687486Y-16453800D01*
X11687486Y-16396657D01*
X11673200Y-16325228D01*
X11658914Y-16282371D01*
X11644628Y-16253800D01*
X11616057Y-16210943D01*
X11601771Y-16196657D01*
X1830376Y-16866976D02*
X1830376Y-16732624D01*
X1696024Y-16732624D01*
X1696024Y-16866976D01*
X1830376Y-16866976D01*
X2301771Y-16935514D02*
X2130343Y-16935514D01*
X2216057Y-16935514D02*
X2216057Y-16635514D01*
X2187486Y-16678371D01*
X2158914Y-16706943D01*
X2130343Y-16721228D01*
X2430343Y-16906943D02*
X2444629Y-16921229D01*
X2430343Y-16935514D01*
X2416057Y-16921229D01*
X2430343Y-16906943D01*
X2430343Y-16935514D01*
X2587486Y-16935514D02*
X2644629Y-16935514D01*
X2673200Y-16921229D01*
X2687486Y-16906943D01*
X2716057Y-16864086D01*
X2730343Y-16806943D01*
X2730343Y-16692657D01*
X2716057Y-16664086D01*
X2701771Y-16649800D01*
X2673200Y-16635514D01*
X2616057Y-16635514D01*
X2587486Y-16649800D01*
X2573200Y-16664086D01*
X2558914Y-16692657D01*
X2558914Y-16764086D01*
X2573200Y-16792657D01*
X2587486Y-16806943D01*
X2616057Y-16821229D01*
X2673200Y-16821229D01*
X2701771Y-16806943D01*
X2716057Y-16792657D01*
X2730343Y-16764086D01*
X2916057Y-16635514D02*
X2944628Y-16635514D01*
X2973200Y-16649800D01*
X2987486Y-16664086D01*
X3001771Y-16692657D01*
X3016057Y-16749800D01*
X3016057Y-16821229D01*
X3001771Y-16878371D01*
X2987486Y-16906943D01*
X2973200Y-16921229D01*
X2944628Y-16935514D01*
X2916057Y-16935514D01*
X2887486Y-16921229D01*
X2873200Y-16906943D01*
X2858914Y-16878371D01*
X2844628Y-16821229D01*
X2844628Y-16749800D01*
X2858914Y-16692657D01*
X2873200Y-16664086D01*
X2887486Y-16649800D01*
X2916057Y-16635514D01*
X3144628Y-16935514D02*
X3144628Y-16735514D01*
X3144628Y-16764086D02*
X3158914Y-16749800D01*
X3187486Y-16735514D01*
X3230343Y-16735514D01*
X3258914Y-16749800D01*
X3273200Y-16778371D01*
X3273200Y-16935514D01*
X3273200Y-16778371D02*
X3287486Y-16749800D01*
X3316057Y-16735514D01*
X3358914Y-16735514D01*
X3387486Y-16749800D01*
X3401771Y-16778371D01*
X3401771Y-16935514D01*
X3544628Y-16935514D02*
X3544628Y-16735514D01*
X3544628Y-16764086D02*
X3558914Y-16749800D01*
X3587486Y-16735514D01*
X3630343Y-16735514D01*
X3658914Y-16749800D01*
X3673200Y-16778371D01*
X3673200Y-16935514D01*
X3673200Y-16778371D02*
X3687486Y-16749800D01*
X3716057Y-16735514D01*
X3758914Y-16735514D01*
X3787486Y-16749800D01*
X3801771Y-16778371D01*
X3801771Y-16935514D01*
X4387486Y-16621228D02*
X4130343Y-17006943D01*
X4773200Y-16635514D02*
X4801771Y-16635514D01*
X4830343Y-16649800D01*
X4844629Y-16664086D01*
X4858914Y-16692657D01*
X4873200Y-16749800D01*
X4873200Y-16821229D01*
X4858914Y-16878371D01*
X4844629Y-16906943D01*
X4830343Y-16921229D01*
X4801771Y-16935514D01*
X4773200Y-16935514D01*
X4744629Y-16921229D01*
X4730343Y-16906943D01*
X4716057Y-16878371D01*
X4701771Y-16821229D01*
X4701771Y-16749800D01*
X4716057Y-16692657D01*
X4730343Y-16664086D01*
X4744629Y-16649800D01*
X4773200Y-16635514D01*
X5001771Y-16906943D02*
X5016057Y-16921229D01*
X5001771Y-16935514D01*
X4987486Y-16921229D01*
X5001771Y-16906943D01*
X5001771Y-16935514D01*
X5201771Y-16635514D02*
X5230343Y-16635514D01*
X5258914Y-16649800D01*
X5273200Y-16664086D01*
X5287486Y-16692657D01*
X5301771Y-16749800D01*
X5301771Y-16821229D01*
X5287486Y-16878371D01*
X5273200Y-16906943D01*
X5258914Y-16921229D01*
X5230343Y-16935514D01*
X5201771Y-16935514D01*
X5173200Y-16921229D01*
X5158914Y-16906943D01*
X5144629Y-16878371D01*
X5130343Y-16821229D01*
X5130343Y-16749800D01*
X5144629Y-16692657D01*
X5158914Y-16664086D01*
X5173200Y-16649800D01*
X5201771Y-16635514D01*
X5401771Y-16635514D02*
X5601771Y-16635514D01*
X5473200Y-16935514D01*
X5858914Y-16635514D02*
X5716057Y-16635514D01*
X5701771Y-16778371D01*
X5716057Y-16764086D01*
X5744628Y-16749800D01*
X5816057Y-16749800D01*
X5844628Y-16764086D01*
X5858914Y-16778371D01*
X5873200Y-16806943D01*
X5873200Y-16878371D01*
X5858914Y-16906943D01*
X5844628Y-16921229D01*
X5816057Y-16935514D01*
X5744628Y-16935514D01*
X5716057Y-16921229D01*
X5701771Y-16906943D01*
X5987486Y-16635514D02*
X5987486Y-16692657D01*
X6101771Y-16635514D02*
X6101771Y-16692657D01*
X6544628Y-17049800D02*
X6530343Y-17035514D01*
X6501771Y-16992657D01*
X6487486Y-16964086D01*
X6473200Y-16921229D01*
X6458914Y-16849800D01*
X6458914Y-16792657D01*
X6473200Y-16721228D01*
X6487486Y-16678371D01*
X6501771Y-16649800D01*
X6530343Y-16606943D01*
X6544628Y-16592657D01*
X6816057Y-16935514D02*
X6644628Y-16935514D01*
X6730343Y-16935514D02*
X6730343Y-16635514D01*
X6701771Y-16678371D01*
X6673200Y-16706943D01*
X6644628Y-16721228D01*
X7073200Y-16735514D02*
X7073200Y-16935514D01*
X7001771Y-16621228D02*
X6930343Y-16835514D01*
X7116057Y-16835514D01*
X7358914Y-16635514D02*
X7301771Y-16635514D01*
X7273200Y-16649800D01*
X7258914Y-16664086D01*
X7230343Y-16706943D01*
X7216057Y-16764086D01*
X7216057Y-16878371D01*
X7230343Y-16906943D01*
X7244628Y-16921229D01*
X7273200Y-16935514D01*
X7330343Y-16935514D01*
X7358914Y-16921229D01*
X7373200Y-16906943D01*
X7387486Y-16878371D01*
X7387486Y-16806943D01*
X7373200Y-16778371D01*
X7358914Y-16764086D01*
X7330343Y-16749800D01*
X7273200Y-16749800D01*
X7244628Y-16764086D01*
X7230343Y-16778371D01*
X7216057Y-16806943D01*
X7744628Y-16935514D02*
X7744628Y-16635514D01*
X7873200Y-16935514D02*
X7873200Y-16778371D01*
X7858914Y-16749800D01*
X7830343Y-16735514D01*
X7787486Y-16735514D01*
X7758914Y-16749800D01*
X7744628Y-16764086D01*
X8058914Y-16935514D02*
X8030343Y-16921229D01*
X8016057Y-16906943D01*
X8001771Y-16878371D01*
X8001771Y-16792657D01*
X8016057Y-16764086D01*
X8030343Y-16749800D01*
X8058914Y-16735514D01*
X8101771Y-16735514D01*
X8130343Y-16749800D01*
X8144628Y-16764086D01*
X8158914Y-16792657D01*
X8158914Y-16878371D01*
X8144628Y-16906943D01*
X8130343Y-16921229D01*
X8101771Y-16935514D01*
X8058914Y-16935514D01*
X8330343Y-16935514D02*
X8301771Y-16921229D01*
X8287486Y-16892657D01*
X8287486Y-16635514D01*
X8558914Y-16921229D02*
X8530343Y-16935514D01*
X8473200Y-16935514D01*
X8444629Y-16921229D01*
X8430343Y-16892657D01*
X8430343Y-16778371D01*
X8444629Y-16749800D01*
X8473200Y-16735514D01*
X8530343Y-16735514D01*
X8558914Y-16749800D01*
X8573200Y-16778371D01*
X8573200Y-16806943D01*
X8430343Y-16835514D01*
X8687486Y-16921229D02*
X8716057Y-16935514D01*
X8773200Y-16935514D01*
X8801771Y-16921229D01*
X8816057Y-16892657D01*
X8816057Y-16878371D01*
X8801771Y-16849800D01*
X8773200Y-16835514D01*
X8730343Y-16835514D01*
X8701771Y-16821229D01*
X8687486Y-16792657D01*
X8687486Y-16778371D01*
X8701771Y-16749800D01*
X8730343Y-16735514D01*
X8773200Y-16735514D01*
X8801771Y-16749800D01*
X8916057Y-17049800D02*
X8930343Y-17035514D01*
X8958914Y-16992657D01*
X8973200Y-16964086D01*
X8987486Y-16921229D01*
X9001771Y-16849800D01*
X9001771Y-16792657D01*
X8987486Y-16721228D01*
X8973200Y-16678371D01*
X8958914Y-16649800D01*
X8930343Y-16606943D01*
X8916057Y-16592657D01*
X9458914Y-17049800D02*
X9444629Y-17035514D01*
X9416057Y-16992657D01*
X9401771Y-16964086D01*
X9387486Y-16921229D01*
X9373200Y-16849800D01*
X9373200Y-16792657D01*
X9387486Y-16721228D01*
X9401771Y-16678371D01*
X9416057Y-16649800D01*
X9444629Y-16606943D01*
X9458914Y-16592657D01*
X9573200Y-16735514D02*
X9573200Y-16935514D01*
X9573200Y-16764086D02*
X9587486Y-16749800D01*
X9616057Y-16735514D01*
X9658914Y-16735514D01*
X9687486Y-16749800D01*
X9701771Y-16778371D01*
X9701771Y-16935514D01*
X9887486Y-16935514D02*
X9858914Y-16921229D01*
X9844629Y-16906943D01*
X9830343Y-16878371D01*
X9830343Y-16792657D01*
X9844629Y-16764086D01*
X9858914Y-16749800D01*
X9887486Y-16735514D01*
X9930343Y-16735514D01*
X9958914Y-16749800D01*
X9973200Y-16764086D01*
X9987486Y-16792657D01*
X9987486Y-16878371D01*
X9973200Y-16906943D01*
X9958914Y-16921229D01*
X9930343Y-16935514D01*
X9887486Y-16935514D01*
X10073200Y-16735514D02*
X10187486Y-16735514D01*
X10116057Y-16635514D02*
X10116057Y-16892657D01*
X10130343Y-16921229D01*
X10158914Y-16935514D01*
X10187486Y-16935514D01*
X10516057Y-16735514D02*
X10516057Y-17035514D01*
X10516057Y-16749800D02*
X10544629Y-16735514D01*
X10601771Y-16735514D01*
X10630343Y-16749800D01*
X10644629Y-16764086D01*
X10658914Y-16792657D01*
X10658914Y-16878371D01*
X10644629Y-16906943D01*
X10630343Y-16921229D01*
X10601771Y-16935514D01*
X10544629Y-16935514D01*
X10516057Y-16921229D01*
X10830343Y-16935514D02*
X10801771Y-16921229D01*
X10787486Y-16892657D01*
X10787486Y-16635514D01*
X11073200Y-16935514D02*
X11073200Y-16778371D01*
X11058914Y-16749800D01*
X11030343Y-16735514D01*
X10973200Y-16735514D01*
X10944629Y-16749800D01*
X11073200Y-16921229D02*
X11044629Y-16935514D01*
X10973200Y-16935514D01*
X10944629Y-16921229D01*
X10930343Y-16892657D01*
X10930343Y-16864086D01*
X10944629Y-16835514D01*
X10973200Y-16821229D01*
X11044629Y-16821229D01*
X11073200Y-16806943D01*
X11173200Y-16735514D02*
X11287486Y-16735514D01*
X11216057Y-16635514D02*
X11216057Y-16892657D01*
X11230343Y-16921229D01*
X11258914Y-16935514D01*
X11287486Y-16935514D01*
X11501771Y-16921229D02*
X11473200Y-16935514D01*
X11416057Y-16935514D01*
X11387486Y-16921229D01*
X11373200Y-16892657D01*
X11373200Y-16778371D01*
X11387486Y-16749800D01*
X11416057Y-16735514D01*
X11473200Y-16735514D01*
X11501771Y-16749800D01*
X11516057Y-16778371D01*
X11516057Y-16806943D01*
X11373200Y-16835514D01*
X11773200Y-16935514D02*
X11773200Y-16635514D01*
X11773200Y-16921229D02*
X11744628Y-16935514D01*
X11687486Y-16935514D01*
X11658914Y-16921229D01*
X11644628Y-16906943D01*
X11630343Y-16878371D01*
X11630343Y-16792657D01*
X11644628Y-16764086D01*
X11658914Y-16749800D01*
X11687486Y-16735514D01*
X11744628Y-16735514D01*
X11773200Y-16749800D01*
X11887486Y-17049800D02*
X11901771Y-17035514D01*
X11930343Y-16992657D01*
X11944628Y-16964086D01*
X11958914Y-16921229D01*
X11973200Y-16849800D01*
X11973200Y-16792657D01*
X11958914Y-16721228D01*
X11944628Y-16678371D01*
X11930343Y-16649800D01*
X11901771Y-16606943D01*
X11887486Y-16592657D01*
X1708200Y-17345800D02*
X1858200Y-17195800D01*
X1708200Y-17045800D01*
X1558200Y-17195800D01*
X1708200Y-17345800D01*
X2116057Y-17031514D02*
X2301771Y-17031514D01*
X2201771Y-17145800D01*
X2244629Y-17145800D01*
X2273200Y-17160086D01*
X2287486Y-17174371D01*
X2301771Y-17202943D01*
X2301771Y-17274371D01*
X2287486Y-17302943D01*
X2273200Y-17317229D01*
X2244629Y-17331514D01*
X2158914Y-17331514D01*
X2130343Y-17317229D01*
X2116057Y-17302943D01*
X2430343Y-17302943D02*
X2444629Y-17317229D01*
X2430343Y-17331514D01*
X2416057Y-17317229D01*
X2430343Y-17302943D01*
X2430343Y-17331514D01*
X2630343Y-17031514D02*
X2658914Y-17031514D01*
X2687486Y-17045800D01*
X2701771Y-17060086D01*
X2716057Y-17088657D01*
X2730343Y-17145800D01*
X2730343Y-17217229D01*
X2716057Y-17274371D01*
X2701771Y-17302943D01*
X2687486Y-17317229D01*
X2658914Y-17331514D01*
X2630343Y-17331514D01*
X2601771Y-17317229D01*
X2587486Y-17302943D01*
X2573200Y-17274371D01*
X2558914Y-17217229D01*
X2558914Y-17145800D01*
X2573200Y-17088657D01*
X2587486Y-17060086D01*
X2601771Y-17045800D01*
X2630343Y-17031514D01*
X2916057Y-17031514D02*
X2944628Y-17031514D01*
X2973200Y-17045800D01*
X2987486Y-17060086D01*
X3001771Y-17088657D01*
X3016057Y-17145800D01*
X3016057Y-17217229D01*
X3001771Y-17274371D01*
X2987486Y-17302943D01*
X2973200Y-17317229D01*
X2944628Y-17331514D01*
X2916057Y-17331514D01*
X2887486Y-17317229D01*
X2873200Y-17302943D01*
X2858914Y-17274371D01*
X2844628Y-17217229D01*
X2844628Y-17145800D01*
X2858914Y-17088657D01*
X2873200Y-17060086D01*
X2887486Y-17045800D01*
X2916057Y-17031514D01*
X3144628Y-17331514D02*
X3144628Y-17131514D01*
X3144628Y-17160086D02*
X3158914Y-17145800D01*
X3187486Y-17131514D01*
X3230343Y-17131514D01*
X3258914Y-17145800D01*
X3273200Y-17174371D01*
X3273200Y-17331514D01*
X3273200Y-17174371D02*
X3287486Y-17145800D01*
X3316057Y-17131514D01*
X3358914Y-17131514D01*
X3387486Y-17145800D01*
X3401771Y-17174371D01*
X3401771Y-17331514D01*
X3544628Y-17331514D02*
X3544628Y-17131514D01*
X3544628Y-17160086D02*
X3558914Y-17145800D01*
X3587486Y-17131514D01*
X3630343Y-17131514D01*
X3658914Y-17145800D01*
X3673200Y-17174371D01*
X3673200Y-17331514D01*
X3673200Y-17174371D02*
X3687486Y-17145800D01*
X3716057Y-17131514D01*
X3758914Y-17131514D01*
X3787486Y-17145800D01*
X3801771Y-17174371D01*
X3801771Y-17331514D01*
X4387486Y-17017229D02*
X4130343Y-17402943D01*
X4773200Y-17031514D02*
X4801771Y-17031514D01*
X4830343Y-17045800D01*
X4844629Y-17060086D01*
X4858914Y-17088657D01*
X4873200Y-17145800D01*
X4873200Y-17217229D01*
X4858914Y-17274371D01*
X4844629Y-17302943D01*
X4830343Y-17317229D01*
X4801771Y-17331514D01*
X4773200Y-17331514D01*
X4744629Y-17317229D01*
X4730343Y-17302943D01*
X4716057Y-17274371D01*
X4701771Y-17217229D01*
X4701771Y-17145800D01*
X4716057Y-17088657D01*
X4730343Y-17060086D01*
X4744629Y-17045800D01*
X4773200Y-17031514D01*
X5001771Y-17302943D02*
X5016057Y-17317229D01*
X5001771Y-17331514D01*
X4987486Y-17317229D01*
X5001771Y-17302943D01*
X5001771Y-17331514D01*
X5301771Y-17331514D02*
X5130343Y-17331514D01*
X5216057Y-17331514D02*
X5216057Y-17031514D01*
X5187486Y-17074371D01*
X5158914Y-17102943D01*
X5130343Y-17117229D01*
X5587486Y-17331514D02*
X5416057Y-17331514D01*
X5501771Y-17331514D02*
X5501771Y-17031514D01*
X5473200Y-17074371D01*
X5444629Y-17102943D01*
X5416057Y-17117229D01*
X5758914Y-17160086D02*
X5730343Y-17145800D01*
X5716057Y-17131514D01*
X5701771Y-17102943D01*
X5701771Y-17088657D01*
X5716057Y-17060086D01*
X5730343Y-17045800D01*
X5758914Y-17031514D01*
X5816057Y-17031514D01*
X5844628Y-17045800D01*
X5858914Y-17060086D01*
X5873200Y-17088657D01*
X5873200Y-17102943D01*
X5858914Y-17131514D01*
X5844628Y-17145800D01*
X5816057Y-17160086D01*
X5758914Y-17160086D01*
X5730343Y-17174371D01*
X5716057Y-17188657D01*
X5701771Y-17217229D01*
X5701771Y-17274371D01*
X5716057Y-17302943D01*
X5730343Y-17317229D01*
X5758914Y-17331514D01*
X5816057Y-17331514D01*
X5844628Y-17317229D01*
X5858914Y-17302943D01*
X5873200Y-17274371D01*
X5873200Y-17217229D01*
X5858914Y-17188657D01*
X5844628Y-17174371D01*
X5816057Y-17160086D01*
X5987486Y-17031514D02*
X5987486Y-17088657D01*
X6101771Y-17031514D02*
X6101771Y-17088657D01*
X6544628Y-17445800D02*
X6530343Y-17431514D01*
X6501771Y-17388657D01*
X6487486Y-17360086D01*
X6473200Y-17317229D01*
X6458914Y-17245800D01*
X6458914Y-17188657D01*
X6473200Y-17117229D01*
X6487486Y-17074371D01*
X6501771Y-17045800D01*
X6530343Y-17002943D01*
X6544628Y-16988657D01*
X6816057Y-17331514D02*
X6644628Y-17331514D01*
X6730343Y-17331514D02*
X6730343Y-17031514D01*
X6701771Y-17074371D01*
X6673200Y-17102943D01*
X6644628Y-17117229D01*
X7073200Y-17131514D02*
X7073200Y-17331514D01*
X7001771Y-17017229D02*
X6930343Y-17231514D01*
X7116057Y-17231514D01*
X7358914Y-17031514D02*
X7301771Y-17031514D01*
X7273200Y-17045800D01*
X7258914Y-17060086D01*
X7230343Y-17102943D01*
X7216057Y-17160086D01*
X7216057Y-17274371D01*
X7230343Y-17302943D01*
X7244628Y-17317229D01*
X7273200Y-17331514D01*
X7330343Y-17331514D01*
X7358914Y-17317229D01*
X7373200Y-17302943D01*
X7387486Y-17274371D01*
X7387486Y-17202943D01*
X7373200Y-17174371D01*
X7358914Y-17160086D01*
X7330343Y-17145800D01*
X7273200Y-17145800D01*
X7244628Y-17160086D01*
X7230343Y-17174371D01*
X7216057Y-17202943D01*
X7744628Y-17331514D02*
X7744628Y-17031514D01*
X7873200Y-17331514D02*
X7873200Y-17174371D01*
X7858914Y-17145800D01*
X7830343Y-17131514D01*
X7787486Y-17131514D01*
X7758914Y-17145800D01*
X7744628Y-17160086D01*
X8058914Y-17331514D02*
X8030343Y-17317229D01*
X8016057Y-17302943D01*
X8001771Y-17274371D01*
X8001771Y-17188657D01*
X8016057Y-17160086D01*
X8030343Y-17145800D01*
X8058914Y-17131514D01*
X8101771Y-17131514D01*
X8130343Y-17145800D01*
X8144628Y-17160086D01*
X8158914Y-17188657D01*
X8158914Y-17274371D01*
X8144628Y-17302943D01*
X8130343Y-17317229D01*
X8101771Y-17331514D01*
X8058914Y-17331514D01*
X8330343Y-17331514D02*
X8301771Y-17317229D01*
X8287486Y-17288657D01*
X8287486Y-17031514D01*
X8558914Y-17317229D02*
X8530343Y-17331514D01*
X8473200Y-17331514D01*
X8444629Y-17317229D01*
X8430343Y-17288657D01*
X8430343Y-17174371D01*
X8444629Y-17145800D01*
X8473200Y-17131514D01*
X8530343Y-17131514D01*
X8558914Y-17145800D01*
X8573200Y-17174371D01*
X8573200Y-17202943D01*
X8430343Y-17231514D01*
X8687486Y-17317229D02*
X8716057Y-17331514D01*
X8773200Y-17331514D01*
X8801771Y-17317229D01*
X8816057Y-17288657D01*
X8816057Y-17274371D01*
X8801771Y-17245800D01*
X8773200Y-17231514D01*
X8730343Y-17231514D01*
X8701771Y-17217229D01*
X8687486Y-17188657D01*
X8687486Y-17174371D01*
X8701771Y-17145800D01*
X8730343Y-17131514D01*
X8773200Y-17131514D01*
X8801771Y-17145800D01*
X8916057Y-17445800D02*
X8930343Y-17431514D01*
X8958914Y-17388657D01*
X8973200Y-17360086D01*
X8987486Y-17317229D01*
X9001771Y-17245800D01*
X9001771Y-17188657D01*
X8987486Y-17117229D01*
X8973200Y-17074371D01*
X8958914Y-17045800D01*
X8930343Y-17002943D01*
X8916057Y-16988657D01*
X9458914Y-17445800D02*
X9444629Y-17431514D01*
X9416057Y-17388657D01*
X9401771Y-17360086D01*
X9387486Y-17317229D01*
X9373200Y-17245800D01*
X9373200Y-17188657D01*
X9387486Y-17117229D01*
X9401771Y-17074371D01*
X9416057Y-17045800D01*
X9444629Y-17002943D01*
X9458914Y-16988657D01*
X9573200Y-17131514D02*
X9573200Y-17331514D01*
X9573200Y-17160086D02*
X9587486Y-17145800D01*
X9616057Y-17131514D01*
X9658914Y-17131514D01*
X9687486Y-17145800D01*
X9701771Y-17174371D01*
X9701771Y-17331514D01*
X9887486Y-17331514D02*
X9858914Y-17317229D01*
X9844629Y-17302943D01*
X9830343Y-17274371D01*
X9830343Y-17188657D01*
X9844629Y-17160086D01*
X9858914Y-17145800D01*
X9887486Y-17131514D01*
X9930343Y-17131514D01*
X9958914Y-17145800D01*
X9973200Y-17160086D01*
X9987486Y-17188657D01*
X9987486Y-17274371D01*
X9973200Y-17302943D01*
X9958914Y-17317229D01*
X9930343Y-17331514D01*
X9887486Y-17331514D01*
X10073200Y-17131514D02*
X10187486Y-17131514D01*
X10116057Y-17031514D02*
X10116057Y-17288657D01*
X10130343Y-17317229D01*
X10158914Y-17331514D01*
X10187486Y-17331514D01*
X10516057Y-17131514D02*
X10516057Y-17431514D01*
X10516057Y-17145800D02*
X10544629Y-17131514D01*
X10601771Y-17131514D01*
X10630343Y-17145800D01*
X10644629Y-17160086D01*
X10658914Y-17188657D01*
X10658914Y-17274371D01*
X10644629Y-17302943D01*
X10630343Y-17317229D01*
X10601771Y-17331514D01*
X10544629Y-17331514D01*
X10516057Y-17317229D01*
X10830343Y-17331514D02*
X10801771Y-17317229D01*
X10787486Y-17288657D01*
X10787486Y-17031514D01*
X11073200Y-17331514D02*
X11073200Y-17174371D01*
X11058914Y-17145800D01*
X11030343Y-17131514D01*
X10973200Y-17131514D01*
X10944629Y-17145800D01*
X11073200Y-17317229D02*
X11044629Y-17331514D01*
X10973200Y-17331514D01*
X10944629Y-17317229D01*
X10930343Y-17288657D01*
X10930343Y-17260086D01*
X10944629Y-17231514D01*
X10973200Y-17217229D01*
X11044629Y-17217229D01*
X11073200Y-17202943D01*
X11173200Y-17131514D02*
X11287486Y-17131514D01*
X11216057Y-17031514D02*
X11216057Y-17288657D01*
X11230343Y-17317229D01*
X11258914Y-17331514D01*
X11287486Y-17331514D01*
X11501771Y-17317229D02*
X11473200Y-17331514D01*
X11416057Y-17331514D01*
X11387486Y-17317229D01*
X11373200Y-17288657D01*
X11373200Y-17174371D01*
X11387486Y-17145800D01*
X11416057Y-17131514D01*
X11473200Y-17131514D01*
X11501771Y-17145800D01*
X11516057Y-17174371D01*
X11516057Y-17202943D01*
X11373200Y-17231514D01*
X11773200Y-17331514D02*
X11773200Y-17031514D01*
X11773200Y-17317229D02*
X11744628Y-17331514D01*
X11687486Y-17331514D01*
X11658914Y-17317229D01*
X11644628Y-17302943D01*
X11630343Y-17274371D01*
X11630343Y-17188657D01*
X11644628Y-17160086D01*
X11658914Y-17145800D01*
X11687486Y-17131514D01*
X11744628Y-17131514D01*
X11773200Y-17145800D01*
X11887486Y-17445800D02*
X11901771Y-17431514D01*
X11930343Y-17388657D01*
X11944628Y-17360086D01*
X11958914Y-17317229D01*
X11973200Y-17245800D01*
X11973200Y-17188657D01*
X11958914Y-17117229D01*
X11944628Y-17074371D01*
X11930343Y-17045800D01*
X11901771Y-17002943D01*
X11887486Y-16988657D01*
X1553400Y-17473400D02*
X1858200Y-17778200D01*
X1858200Y-17473400D02*
X1553400Y-17778200D01*
X1858200Y-17625800D02*
G75*
G03*
X1858200Y-17625800I-152400J0D01*
G01*
X2116057Y-17461514D02*
X2301771Y-17461514D01*
X2201771Y-17575800D01*
X2244629Y-17575800D01*
X2273200Y-17590086D01*
X2287486Y-17604371D01*
X2301771Y-17632943D01*
X2301771Y-17704371D01*
X2287486Y-17732943D01*
X2273200Y-17747229D01*
X2244629Y-17761514D01*
X2158914Y-17761514D01*
X2130343Y-17747229D01*
X2116057Y-17732943D01*
X2430343Y-17732943D02*
X2444629Y-17747229D01*
X2430343Y-17761514D01*
X2416057Y-17747229D01*
X2430343Y-17732943D01*
X2430343Y-17761514D01*
X2630343Y-17461514D02*
X2658914Y-17461514D01*
X2687486Y-17475800D01*
X2701771Y-17490086D01*
X2716057Y-17518657D01*
X2730343Y-17575800D01*
X2730343Y-17647229D01*
X2716057Y-17704371D01*
X2701771Y-17732943D01*
X2687486Y-17747229D01*
X2658914Y-17761514D01*
X2630343Y-17761514D01*
X2601771Y-17747229D01*
X2587486Y-17732943D01*
X2573200Y-17704371D01*
X2558914Y-17647229D01*
X2558914Y-17575800D01*
X2573200Y-17518657D01*
X2587486Y-17490086D01*
X2601771Y-17475800D01*
X2630343Y-17461514D01*
X3001771Y-17461514D02*
X2858914Y-17461514D01*
X2844628Y-17604371D01*
X2858914Y-17590086D01*
X2887486Y-17575800D01*
X2958914Y-17575800D01*
X2987486Y-17590086D01*
X3001771Y-17604371D01*
X3016057Y-17632943D01*
X3016057Y-17704371D01*
X3001771Y-17732943D01*
X2987486Y-17747229D01*
X2958914Y-17761514D01*
X2887486Y-17761514D01*
X2858914Y-17747229D01*
X2844628Y-17732943D01*
X3144628Y-17761514D02*
X3144628Y-17561514D01*
X3144628Y-17590086D02*
X3158914Y-17575800D01*
X3187486Y-17561514D01*
X3230343Y-17561514D01*
X3258914Y-17575800D01*
X3273200Y-17604371D01*
X3273200Y-17761514D01*
X3273200Y-17604371D02*
X3287486Y-17575800D01*
X3316057Y-17561514D01*
X3358914Y-17561514D01*
X3387486Y-17575800D01*
X3401771Y-17604371D01*
X3401771Y-17761514D01*
X3544628Y-17761514D02*
X3544628Y-17561514D01*
X3544628Y-17590086D02*
X3558914Y-17575800D01*
X3587486Y-17561514D01*
X3630343Y-17561514D01*
X3658914Y-17575800D01*
X3673200Y-17604371D01*
X3673200Y-17761514D01*
X3673200Y-17604371D02*
X3687486Y-17575800D01*
X3716057Y-17561514D01*
X3758914Y-17561514D01*
X3787486Y-17575800D01*
X3801771Y-17604371D01*
X3801771Y-17761514D01*
X4387486Y-17447229D02*
X4130343Y-17832943D01*
X4773200Y-17461514D02*
X4801771Y-17461514D01*
X4830343Y-17475800D01*
X4844629Y-17490086D01*
X4858914Y-17518657D01*
X4873200Y-17575800D01*
X4873200Y-17647229D01*
X4858914Y-17704371D01*
X4844629Y-17732943D01*
X4830343Y-17747229D01*
X4801771Y-17761514D01*
X4773200Y-17761514D01*
X4744629Y-17747229D01*
X4730343Y-17732943D01*
X4716057Y-17704371D01*
X4701771Y-17647229D01*
X4701771Y-17575800D01*
X4716057Y-17518657D01*
X4730343Y-17490086D01*
X4744629Y-17475800D01*
X4773200Y-17461514D01*
X5001771Y-17732943D02*
X5016057Y-17747229D01*
X5001771Y-17761514D01*
X4987486Y-17747229D01*
X5001771Y-17732943D01*
X5001771Y-17761514D01*
X5301771Y-17761514D02*
X5130343Y-17761514D01*
X5216057Y-17761514D02*
X5216057Y-17461514D01*
X5187486Y-17504371D01*
X5158914Y-17532943D01*
X5130343Y-17547229D01*
X5416057Y-17490086D02*
X5430343Y-17475800D01*
X5458914Y-17461514D01*
X5530343Y-17461514D01*
X5558914Y-17475800D01*
X5573200Y-17490086D01*
X5587486Y-17518657D01*
X5587486Y-17547229D01*
X5573200Y-17590086D01*
X5401771Y-17761514D01*
X5587486Y-17761514D01*
X5773200Y-17461514D02*
X5801771Y-17461514D01*
X5830343Y-17475800D01*
X5844628Y-17490086D01*
X5858914Y-17518657D01*
X5873200Y-17575800D01*
X5873200Y-17647229D01*
X5858914Y-17704371D01*
X5844628Y-17732943D01*
X5830343Y-17747229D01*
X5801771Y-17761514D01*
X5773200Y-17761514D01*
X5744628Y-17747229D01*
X5730343Y-17732943D01*
X5716057Y-17704371D01*
X5701771Y-17647229D01*
X5701771Y-17575800D01*
X5716057Y-17518657D01*
X5730343Y-17490086D01*
X5744628Y-17475800D01*
X5773200Y-17461514D01*
X5987486Y-17461514D02*
X5987486Y-17518657D01*
X6101771Y-17461514D02*
X6101771Y-17518657D01*
X6544628Y-17875800D02*
X6530343Y-17861514D01*
X6501771Y-17818657D01*
X6487486Y-17790086D01*
X6473200Y-17747229D01*
X6458914Y-17675800D01*
X6458914Y-17618657D01*
X6473200Y-17547229D01*
X6487486Y-17504371D01*
X6501771Y-17475800D01*
X6530343Y-17432943D01*
X6544628Y-17418657D01*
X6816057Y-17761514D02*
X6644628Y-17761514D01*
X6730343Y-17761514D02*
X6730343Y-17461514D01*
X6701771Y-17504371D01*
X6673200Y-17532943D01*
X6644628Y-17547229D01*
X7073200Y-17561514D02*
X7073200Y-17761514D01*
X7001771Y-17447229D02*
X6930343Y-17661514D01*
X7116057Y-17661514D01*
X7458914Y-17761514D02*
X7458914Y-17461514D01*
X7587486Y-17761514D02*
X7587486Y-17604371D01*
X7573200Y-17575800D01*
X7544628Y-17561514D01*
X7501771Y-17561514D01*
X7473200Y-17575800D01*
X7458914Y-17590086D01*
X7773200Y-17761514D02*
X7744628Y-17747229D01*
X7730343Y-17732943D01*
X7716057Y-17704371D01*
X7716057Y-17618657D01*
X7730343Y-17590086D01*
X7744628Y-17575800D01*
X7773200Y-17561514D01*
X7816057Y-17561514D01*
X7844628Y-17575800D01*
X7858914Y-17590086D01*
X7873200Y-17618657D01*
X7873200Y-17704371D01*
X7858914Y-17732943D01*
X7844628Y-17747229D01*
X7816057Y-17761514D01*
X7773200Y-17761514D01*
X8044628Y-17761514D02*
X8016057Y-17747229D01*
X8001771Y-17718657D01*
X8001771Y-17461514D01*
X8273200Y-17747229D02*
X8244628Y-17761514D01*
X8187486Y-17761514D01*
X8158914Y-17747229D01*
X8144628Y-17718657D01*
X8144628Y-17604371D01*
X8158914Y-17575800D01*
X8187486Y-17561514D01*
X8244628Y-17561514D01*
X8273200Y-17575800D01*
X8287486Y-17604371D01*
X8287486Y-17632943D01*
X8144628Y-17661514D01*
X8401771Y-17747229D02*
X8430343Y-17761514D01*
X8487486Y-17761514D01*
X8516057Y-17747229D01*
X8530343Y-17718657D01*
X8530343Y-17704371D01*
X8516057Y-17675800D01*
X8487486Y-17661514D01*
X8444629Y-17661514D01*
X8416057Y-17647229D01*
X8401771Y-17618657D01*
X8401771Y-17604371D01*
X8416057Y-17575800D01*
X8444629Y-17561514D01*
X8487486Y-17561514D01*
X8516057Y-17575800D01*
X8630343Y-17875800D02*
X8644629Y-17861514D01*
X8673200Y-17818657D01*
X8687486Y-17790086D01*
X8701771Y-17747229D01*
X8716057Y-17675800D01*
X8716057Y-17618657D01*
X8701771Y-17547229D01*
X8687486Y-17504371D01*
X8673200Y-17475800D01*
X8644629Y-17432943D01*
X8630343Y-17418657D01*
X9173200Y-17875800D02*
X9158914Y-17861514D01*
X9130343Y-17818657D01*
X9116057Y-17790086D01*
X9101771Y-17747229D01*
X9087486Y-17675800D01*
X9087486Y-17618657D01*
X9101771Y-17547229D01*
X9116057Y-17504371D01*
X9130343Y-17475800D01*
X9158914Y-17432943D01*
X9173200Y-17418657D01*
X9287486Y-17561514D02*
X9287486Y-17761514D01*
X9287486Y-17590086D02*
X9301771Y-17575800D01*
X9330343Y-17561514D01*
X9373200Y-17561514D01*
X9401771Y-17575800D01*
X9416057Y-17604371D01*
X9416057Y-17761514D01*
X9601771Y-17761514D02*
X9573200Y-17747229D01*
X9558914Y-17732943D01*
X9544629Y-17704371D01*
X9544629Y-17618657D01*
X9558914Y-17590086D01*
X9573200Y-17575800D01*
X9601771Y-17561514D01*
X9644629Y-17561514D01*
X9673200Y-17575800D01*
X9687486Y-17590086D01*
X9701771Y-17618657D01*
X9701771Y-17704371D01*
X9687486Y-17732943D01*
X9673200Y-17747229D01*
X9644629Y-17761514D01*
X9601771Y-17761514D01*
X9787486Y-17561514D02*
X9901771Y-17561514D01*
X9830343Y-17461514D02*
X9830343Y-17718657D01*
X9844629Y-17747229D01*
X9873200Y-17761514D01*
X9901771Y-17761514D01*
X10230343Y-17561514D02*
X10230343Y-17861514D01*
X10230343Y-17575800D02*
X10258914Y-17561514D01*
X10316057Y-17561514D01*
X10344629Y-17575800D01*
X10358914Y-17590086D01*
X10373200Y-17618657D01*
X10373200Y-17704371D01*
X10358914Y-17732943D01*
X10344629Y-17747229D01*
X10316057Y-17761514D01*
X10258914Y-17761514D01*
X10230343Y-17747229D01*
X10544629Y-17761514D02*
X10516057Y-17747229D01*
X10501771Y-17718657D01*
X10501771Y-17461514D01*
X10787486Y-17761514D02*
X10787486Y-17604371D01*
X10773200Y-17575800D01*
X10744629Y-17561514D01*
X10687486Y-17561514D01*
X10658914Y-17575800D01*
X10787486Y-17747229D02*
X10758914Y-17761514D01*
X10687486Y-17761514D01*
X10658914Y-17747229D01*
X10644629Y-17718657D01*
X10644629Y-17690086D01*
X10658914Y-17661514D01*
X10687486Y-17647229D01*
X10758914Y-17647229D01*
X10787486Y-17632943D01*
X10887486Y-17561514D02*
X11001771Y-17561514D01*
X10930343Y-17461514D02*
X10930343Y-17718657D01*
X10944629Y-17747229D01*
X10973200Y-17761514D01*
X11001771Y-17761514D01*
X11216057Y-17747229D02*
X11187486Y-17761514D01*
X11130343Y-17761514D01*
X11101771Y-17747229D01*
X11087486Y-17718657D01*
X11087486Y-17604371D01*
X11101771Y-17575800D01*
X11130343Y-17561514D01*
X11187486Y-17561514D01*
X11216057Y-17575800D01*
X11230343Y-17604371D01*
X11230343Y-17632943D01*
X11087486Y-17661514D01*
X11487486Y-17761514D02*
X11487486Y-17461514D01*
X11487486Y-17747229D02*
X11458914Y-17761514D01*
X11401771Y-17761514D01*
X11373200Y-17747229D01*
X11358914Y-17732943D01*
X11344628Y-17704371D01*
X11344628Y-17618657D01*
X11358914Y-17590086D01*
X11373200Y-17575800D01*
X11401771Y-17561514D01*
X11458914Y-17561514D01*
X11487486Y-17575800D01*
X11601771Y-17875800D02*
X11616057Y-17861514D01*
X11644628Y-17818657D01*
X11658914Y-17790086D01*
X11673200Y-17747229D01*
X11687486Y-17675800D01*
X11687486Y-17618657D01*
X11673200Y-17547229D01*
X11658914Y-17504371D01*
X11644628Y-17475800D01*
X11616057Y-17432943D01*
X11601771Y-17418657D01*
X1459420Y-17861210D02*
X1858200Y-18259990D01*
X1858200Y-17861210D02*
X1459420Y-18259990D01*
X1658810Y-17861210D02*
X1658810Y-18259990D01*
X1459420Y-18060600D02*
X1858200Y-18060600D01*
X2116057Y-17896314D02*
X2301771Y-17896314D01*
X2201771Y-18010600D01*
X2244629Y-18010600D01*
X2273200Y-18024886D01*
X2287486Y-18039171D01*
X2301771Y-18067743D01*
X2301771Y-18139171D01*
X2287486Y-18167743D01*
X2273200Y-18182029D01*
X2244629Y-18196314D01*
X2158914Y-18196314D01*
X2130343Y-18182029D01*
X2116057Y-18167743D01*
X2430343Y-18167743D02*
X2444629Y-18182029D01*
X2430343Y-18196314D01*
X2416057Y-18182029D01*
X2430343Y-18167743D01*
X2430343Y-18196314D01*
X2587486Y-18196314D02*
X2644629Y-18196314D01*
X2673200Y-18182029D01*
X2687486Y-18167743D01*
X2716057Y-18124886D01*
X2730343Y-18067743D01*
X2730343Y-17953457D01*
X2716057Y-17924886D01*
X2701771Y-17910600D01*
X2673200Y-17896314D01*
X2616057Y-17896314D01*
X2587486Y-17910600D01*
X2573200Y-17924886D01*
X2558914Y-17953457D01*
X2558914Y-18024886D01*
X2573200Y-18053457D01*
X2587486Y-18067743D01*
X2616057Y-18082029D01*
X2673200Y-18082029D01*
X2701771Y-18067743D01*
X2716057Y-18053457D01*
X2730343Y-18024886D01*
X2873200Y-18196314D02*
X2930343Y-18196314D01*
X2958914Y-18182029D01*
X2973200Y-18167743D01*
X3001771Y-18124886D01*
X3016057Y-18067743D01*
X3016057Y-17953457D01*
X3001771Y-17924886D01*
X2987486Y-17910600D01*
X2958914Y-17896314D01*
X2901771Y-17896314D01*
X2873200Y-17910600D01*
X2858914Y-17924886D01*
X2844628Y-17953457D01*
X2844628Y-18024886D01*
X2858914Y-18053457D01*
X2873200Y-18067743D01*
X2901771Y-18082029D01*
X2958914Y-18082029D01*
X2987486Y-18067743D01*
X3001771Y-18053457D01*
X3016057Y-18024886D01*
X3144628Y-18196314D02*
X3144628Y-17996314D01*
X3144628Y-18024886D02*
X3158914Y-18010600D01*
X3187486Y-17996314D01*
X3230343Y-17996314D01*
X3258914Y-18010600D01*
X3273200Y-18039171D01*
X3273200Y-18196314D01*
X3273200Y-18039171D02*
X3287486Y-18010600D01*
X3316057Y-17996314D01*
X3358914Y-17996314D01*
X3387486Y-18010600D01*
X3401771Y-18039171D01*
X3401771Y-18196314D01*
X3544628Y-18196314D02*
X3544628Y-17996314D01*
X3544628Y-18024886D02*
X3558914Y-18010600D01*
X3587486Y-17996314D01*
X3630343Y-17996314D01*
X3658914Y-18010600D01*
X3673200Y-18039171D01*
X3673200Y-18196314D01*
X3673200Y-18039171D02*
X3687486Y-18010600D01*
X3716057Y-17996314D01*
X3758914Y-17996314D01*
X3787486Y-18010600D01*
X3801771Y-18039171D01*
X3801771Y-18196314D01*
X4387486Y-17882029D02*
X4130343Y-18267743D01*
X4773200Y-17896314D02*
X4801771Y-17896314D01*
X4830343Y-17910600D01*
X4844629Y-17924886D01*
X4858914Y-17953457D01*
X4873200Y-18010600D01*
X4873200Y-18082029D01*
X4858914Y-18139171D01*
X4844629Y-18167743D01*
X4830343Y-18182029D01*
X4801771Y-18196314D01*
X4773200Y-18196314D01*
X4744629Y-18182029D01*
X4730343Y-18167743D01*
X4716057Y-18139171D01*
X4701771Y-18082029D01*
X4701771Y-18010600D01*
X4716057Y-17953457D01*
X4730343Y-17924886D01*
X4744629Y-17910600D01*
X4773200Y-17896314D01*
X5001771Y-18167743D02*
X5016057Y-18182029D01*
X5001771Y-18196314D01*
X4987486Y-18182029D01*
X5001771Y-18167743D01*
X5001771Y-18196314D01*
X5301771Y-18196314D02*
X5130343Y-18196314D01*
X5216057Y-18196314D02*
X5216057Y-17896314D01*
X5187486Y-17939171D01*
X5158914Y-17967743D01*
X5130343Y-17982029D01*
X5573200Y-17896314D02*
X5430343Y-17896314D01*
X5416057Y-18039171D01*
X5430343Y-18024886D01*
X5458914Y-18010600D01*
X5530343Y-18010600D01*
X5558914Y-18024886D01*
X5573200Y-18039171D01*
X5587486Y-18067743D01*
X5587486Y-18139171D01*
X5573200Y-18167743D01*
X5558914Y-18182029D01*
X5530343Y-18196314D01*
X5458914Y-18196314D01*
X5430343Y-18182029D01*
X5416057Y-18167743D01*
X5687486Y-17896314D02*
X5887486Y-17896314D01*
X5758914Y-18196314D01*
X5987486Y-17896314D02*
X5987486Y-17953457D01*
X6101771Y-17896314D02*
X6101771Y-17953457D01*
X6544628Y-18310600D02*
X6530343Y-18296314D01*
X6501771Y-18253457D01*
X6487486Y-18224886D01*
X6473200Y-18182029D01*
X6458914Y-18110600D01*
X6458914Y-18053457D01*
X6473200Y-17982029D01*
X6487486Y-17939171D01*
X6501771Y-17910600D01*
X6530343Y-17867743D01*
X6544628Y-17853457D01*
X6630343Y-17896314D02*
X6816057Y-17896314D01*
X6716057Y-18010600D01*
X6758914Y-18010600D01*
X6787486Y-18024886D01*
X6801771Y-18039171D01*
X6816057Y-18067743D01*
X6816057Y-18139171D01*
X6801771Y-18167743D01*
X6787486Y-18182029D01*
X6758914Y-18196314D01*
X6673200Y-18196314D01*
X6644628Y-18182029D01*
X6630343Y-18167743D01*
X7101771Y-18196314D02*
X6930343Y-18196314D01*
X7016057Y-18196314D02*
X7016057Y-17896314D01*
X6987486Y-17939171D01*
X6958914Y-17967743D01*
X6930343Y-17982029D01*
X7458914Y-18196314D02*
X7458914Y-17896314D01*
X7587486Y-18196314D02*
X7587486Y-18039171D01*
X7573200Y-18010600D01*
X7544628Y-17996314D01*
X7501771Y-17996314D01*
X7473200Y-18010600D01*
X7458914Y-18024886D01*
X7773200Y-18196314D02*
X7744628Y-18182029D01*
X7730343Y-18167743D01*
X7716057Y-18139171D01*
X7716057Y-18053457D01*
X7730343Y-18024886D01*
X7744628Y-18010600D01*
X7773200Y-17996314D01*
X7816057Y-17996314D01*
X7844628Y-18010600D01*
X7858914Y-18024886D01*
X7873200Y-18053457D01*
X7873200Y-18139171D01*
X7858914Y-18167743D01*
X7844628Y-18182029D01*
X7816057Y-18196314D01*
X7773200Y-18196314D01*
X8044628Y-18196314D02*
X8016057Y-18182029D01*
X8001771Y-18153457D01*
X8001771Y-17896314D01*
X8273200Y-18182029D02*
X8244628Y-18196314D01*
X8187486Y-18196314D01*
X8158914Y-18182029D01*
X8144628Y-18153457D01*
X8144628Y-18039171D01*
X8158914Y-18010600D01*
X8187486Y-17996314D01*
X8244628Y-17996314D01*
X8273200Y-18010600D01*
X8287486Y-18039171D01*
X8287486Y-18067743D01*
X8144628Y-18096314D01*
X8401771Y-18182029D02*
X8430343Y-18196314D01*
X8487486Y-18196314D01*
X8516057Y-18182029D01*
X8530343Y-18153457D01*
X8530343Y-18139171D01*
X8516057Y-18110600D01*
X8487486Y-18096314D01*
X8444629Y-18096314D01*
X8416057Y-18082029D01*
X8401771Y-18053457D01*
X8401771Y-18039171D01*
X8416057Y-18010600D01*
X8444629Y-17996314D01*
X8487486Y-17996314D01*
X8516057Y-18010600D01*
X8630343Y-18310600D02*
X8644629Y-18296314D01*
X8673200Y-18253457D01*
X8687486Y-18224886D01*
X8701771Y-18182029D01*
X8716057Y-18110600D01*
X8716057Y-18053457D01*
X8701771Y-17982029D01*
X8687486Y-17939171D01*
X8673200Y-17910600D01*
X8644629Y-17867743D01*
X8630343Y-17853457D01*
X9173200Y-18310600D02*
X9158914Y-18296314D01*
X9130343Y-18253457D01*
X9116057Y-18224886D01*
X9101771Y-18182029D01*
X9087486Y-18110600D01*
X9087486Y-18053457D01*
X9101771Y-17982029D01*
X9116057Y-17939171D01*
X9130343Y-17910600D01*
X9158914Y-17867743D01*
X9173200Y-17853457D01*
X9287486Y-17996314D02*
X9287486Y-18196314D01*
X9287486Y-18024886D02*
X9301771Y-18010600D01*
X9330343Y-17996314D01*
X9373200Y-17996314D01*
X9401771Y-18010600D01*
X9416057Y-18039171D01*
X9416057Y-18196314D01*
X9601771Y-18196314D02*
X9573200Y-18182029D01*
X9558914Y-18167743D01*
X9544629Y-18139171D01*
X9544629Y-18053457D01*
X9558914Y-18024886D01*
X9573200Y-18010600D01*
X9601771Y-17996314D01*
X9644629Y-17996314D01*
X9673200Y-18010600D01*
X9687486Y-18024886D01*
X9701771Y-18053457D01*
X9701771Y-18139171D01*
X9687486Y-18167743D01*
X9673200Y-18182029D01*
X9644629Y-18196314D01*
X9601771Y-18196314D01*
X9787486Y-17996314D02*
X9901771Y-17996314D01*
X9830343Y-17896314D02*
X9830343Y-18153457D01*
X9844629Y-18182029D01*
X9873200Y-18196314D01*
X9901771Y-18196314D01*
X10230343Y-17996314D02*
X10230343Y-18296314D01*
X10230343Y-18010600D02*
X10258914Y-17996314D01*
X10316057Y-17996314D01*
X10344629Y-18010600D01*
X10358914Y-18024886D01*
X10373200Y-18053457D01*
X10373200Y-18139171D01*
X10358914Y-18167743D01*
X10344629Y-18182029D01*
X10316057Y-18196314D01*
X10258914Y-18196314D01*
X10230343Y-18182029D01*
X10544629Y-18196314D02*
X10516057Y-18182029D01*
X10501771Y-18153457D01*
X10501771Y-17896314D01*
X10787486Y-18196314D02*
X10787486Y-18039171D01*
X10773200Y-18010600D01*
X10744629Y-17996314D01*
X10687486Y-17996314D01*
X10658914Y-18010600D01*
X10787486Y-18182029D02*
X10758914Y-18196314D01*
X10687486Y-18196314D01*
X10658914Y-18182029D01*
X10644629Y-18153457D01*
X10644629Y-18124886D01*
X10658914Y-18096314D01*
X10687486Y-18082029D01*
X10758914Y-18082029D01*
X10787486Y-18067743D01*
X10887486Y-17996314D02*
X11001771Y-17996314D01*
X10930343Y-17896314D02*
X10930343Y-18153457D01*
X10944629Y-18182029D01*
X10973200Y-18196314D01*
X11001771Y-18196314D01*
X11216057Y-18182029D02*
X11187486Y-18196314D01*
X11130343Y-18196314D01*
X11101771Y-18182029D01*
X11087486Y-18153457D01*
X11087486Y-18039171D01*
X11101771Y-18010600D01*
X11130343Y-17996314D01*
X11187486Y-17996314D01*
X11216057Y-18010600D01*
X11230343Y-18039171D01*
X11230343Y-18067743D01*
X11087486Y-18096314D01*
X11487486Y-18196314D02*
X11487486Y-17896314D01*
X11487486Y-18182029D02*
X11458914Y-18196314D01*
X11401771Y-18196314D01*
X11373200Y-18182029D01*
X11358914Y-18167743D01*
X11344628Y-18139171D01*
X11344628Y-18053457D01*
X11358914Y-18024886D01*
X11373200Y-18010600D01*
X11401771Y-17996314D01*
X11458914Y-17996314D01*
X11487486Y-18010600D01*
X11601771Y-18310600D02*
X11616057Y-18296314D01*
X11644628Y-18253457D01*
X11658914Y-18224886D01*
X11673200Y-18182029D01*
X11687486Y-18110600D01*
X11687486Y-18053457D01*
X11673200Y-17982029D01*
X11658914Y-17939171D01*
X11644628Y-17910600D01*
X11616057Y-17867743D01*
X11601771Y-17853457D01*
X1448200Y-18384380D02*
X1858200Y-18794380D01*
X1858200Y-18384380D02*
X1448200Y-18794380D01*
X1798158Y-18734338D02*
X1798158Y-18444422D01*
X1508242Y-18444422D01*
X1508242Y-18734338D01*
X1798158Y-18734338D01*
X2273200Y-18525094D02*
X2273200Y-18725094D01*
X2201771Y-18410809D02*
X2130343Y-18625094D01*
X2316057Y-18625094D01*
X2430343Y-18696523D02*
X2444629Y-18710809D01*
X2430343Y-18725094D01*
X2416057Y-18710809D01*
X2430343Y-18696523D01*
X2430343Y-18725094D01*
X2730343Y-18725094D02*
X2558914Y-18725094D01*
X2644629Y-18725094D02*
X2644629Y-18425094D01*
X2616057Y-18467951D01*
X2587486Y-18496523D01*
X2558914Y-18510809D01*
X2916057Y-18425094D02*
X2944628Y-18425094D01*
X2973200Y-18439380D01*
X2987486Y-18453666D01*
X3001771Y-18482237D01*
X3016057Y-18539380D01*
X3016057Y-18610809D01*
X3001771Y-18667951D01*
X2987486Y-18696523D01*
X2973200Y-18710809D01*
X2944628Y-18725094D01*
X2916057Y-18725094D01*
X2887486Y-18710809D01*
X2873200Y-18696523D01*
X2858914Y-18667951D01*
X2844628Y-18610809D01*
X2844628Y-18539380D01*
X2858914Y-18482237D01*
X2873200Y-18453666D01*
X2887486Y-18439380D01*
X2916057Y-18425094D01*
X3144628Y-18725094D02*
X3144628Y-18525094D01*
X3144628Y-18553666D02*
X3158914Y-18539380D01*
X3187486Y-18525094D01*
X3230343Y-18525094D01*
X3258914Y-18539380D01*
X3273200Y-18567951D01*
X3273200Y-18725094D01*
X3273200Y-18567951D02*
X3287486Y-18539380D01*
X3316057Y-18525094D01*
X3358914Y-18525094D01*
X3387486Y-18539380D01*
X3401771Y-18567951D01*
X3401771Y-18725094D01*
X3544628Y-18725094D02*
X3544628Y-18525094D01*
X3544628Y-18553666D02*
X3558914Y-18539380D01*
X3587486Y-18525094D01*
X3630343Y-18525094D01*
X3658914Y-18539380D01*
X3673200Y-18567951D01*
X3673200Y-18725094D01*
X3673200Y-18567951D02*
X3687486Y-18539380D01*
X3716057Y-18525094D01*
X3758914Y-18525094D01*
X3787486Y-18539380D01*
X3801771Y-18567951D01*
X3801771Y-18725094D01*
X4387486Y-18410809D02*
X4130343Y-18796523D01*
X4773200Y-18425094D02*
X4801771Y-18425094D01*
X4830343Y-18439380D01*
X4844629Y-18453666D01*
X4858914Y-18482237D01*
X4873200Y-18539380D01*
X4873200Y-18610809D01*
X4858914Y-18667951D01*
X4844629Y-18696523D01*
X4830343Y-18710809D01*
X4801771Y-18725094D01*
X4773200Y-18725094D01*
X4744629Y-18710809D01*
X4730343Y-18696523D01*
X4716057Y-18667951D01*
X4701771Y-18610809D01*
X4701771Y-18539380D01*
X4716057Y-18482237D01*
X4730343Y-18453666D01*
X4744629Y-18439380D01*
X4773200Y-18425094D01*
X5001771Y-18696523D02*
X5016057Y-18710809D01*
X5001771Y-18725094D01*
X4987486Y-18710809D01*
X5001771Y-18696523D01*
X5001771Y-18725094D01*
X5301771Y-18725094D02*
X5130343Y-18725094D01*
X5216057Y-18725094D02*
X5216057Y-18425094D01*
X5187486Y-18467951D01*
X5158914Y-18496523D01*
X5130343Y-18510809D01*
X5558914Y-18425094D02*
X5501771Y-18425094D01*
X5473200Y-18439380D01*
X5458914Y-18453666D01*
X5430343Y-18496523D01*
X5416057Y-18553666D01*
X5416057Y-18667951D01*
X5430343Y-18696523D01*
X5444629Y-18710809D01*
X5473200Y-18725094D01*
X5530343Y-18725094D01*
X5558914Y-18710809D01*
X5573200Y-18696523D01*
X5587486Y-18667951D01*
X5587486Y-18596523D01*
X5573200Y-18567951D01*
X5558914Y-18553666D01*
X5530343Y-18539380D01*
X5473200Y-18539380D01*
X5444629Y-18553666D01*
X5430343Y-18567951D01*
X5416057Y-18596523D01*
X5873200Y-18725094D02*
X5701771Y-18725094D01*
X5787486Y-18725094D02*
X5787486Y-18425094D01*
X5758914Y-18467951D01*
X5730343Y-18496523D01*
X5701771Y-18510809D01*
X5987486Y-18425094D02*
X5987486Y-18482237D01*
X6101771Y-18425094D02*
X6101771Y-18482237D01*
X6544628Y-18839380D02*
X6530343Y-18825094D01*
X6501771Y-18782237D01*
X6487486Y-18753666D01*
X6473200Y-18710809D01*
X6458914Y-18639380D01*
X6458914Y-18582237D01*
X6473200Y-18510809D01*
X6487486Y-18467951D01*
X6501771Y-18439380D01*
X6530343Y-18396523D01*
X6544628Y-18382237D01*
X6630343Y-18425094D02*
X6830343Y-18425094D01*
X6701771Y-18725094D01*
X6916057Y-18425094D02*
X7101771Y-18425094D01*
X7001771Y-18539380D01*
X7044628Y-18539380D01*
X7073200Y-18553666D01*
X7087486Y-18567951D01*
X7101771Y-18596523D01*
X7101771Y-18667951D01*
X7087486Y-18696523D01*
X7073200Y-18710809D01*
X7044628Y-18725094D01*
X6958914Y-18725094D01*
X6930343Y-18710809D01*
X6916057Y-18696523D01*
X7458914Y-18725094D02*
X7458914Y-18425094D01*
X7587486Y-18725094D02*
X7587486Y-18567951D01*
X7573200Y-18539380D01*
X7544628Y-18525094D01*
X7501771Y-18525094D01*
X7473200Y-18539380D01*
X7458914Y-18553666D01*
X7773200Y-18725094D02*
X7744628Y-18710809D01*
X7730343Y-18696523D01*
X7716057Y-18667951D01*
X7716057Y-18582237D01*
X7730343Y-18553666D01*
X7744628Y-18539380D01*
X7773200Y-18525094D01*
X7816057Y-18525094D01*
X7844628Y-18539380D01*
X7858914Y-18553666D01*
X7873200Y-18582237D01*
X7873200Y-18667951D01*
X7858914Y-18696523D01*
X7844628Y-18710809D01*
X7816057Y-18725094D01*
X7773200Y-18725094D01*
X8044628Y-18725094D02*
X8016057Y-18710809D01*
X8001771Y-18682237D01*
X8001771Y-18425094D01*
X8273200Y-18710809D02*
X8244628Y-18725094D01*
X8187486Y-18725094D01*
X8158914Y-18710809D01*
X8144628Y-18682237D01*
X8144628Y-18567951D01*
X8158914Y-18539380D01*
X8187486Y-18525094D01*
X8244628Y-18525094D01*
X8273200Y-18539380D01*
X8287486Y-18567951D01*
X8287486Y-18596523D01*
X8144628Y-18625094D01*
X8401771Y-18710809D02*
X8430343Y-18725094D01*
X8487486Y-18725094D01*
X8516057Y-18710809D01*
X8530343Y-18682237D01*
X8530343Y-18667951D01*
X8516057Y-18639380D01*
X8487486Y-18625094D01*
X8444629Y-18625094D01*
X8416057Y-18610809D01*
X8401771Y-18582237D01*
X8401771Y-18567951D01*
X8416057Y-18539380D01*
X8444629Y-18525094D01*
X8487486Y-18525094D01*
X8516057Y-18539380D01*
X8630343Y-18839380D02*
X8644629Y-18825094D01*
X8673200Y-18782237D01*
X8687486Y-18753666D01*
X8701771Y-18710809D01*
X8716057Y-18639380D01*
X8716057Y-18582237D01*
X8701771Y-18510809D01*
X8687486Y-18467951D01*
X8673200Y-18439380D01*
X8644629Y-18396523D01*
X8630343Y-18382237D01*
X9173200Y-18839380D02*
X9158914Y-18825094D01*
X9130343Y-18782237D01*
X9116057Y-18753666D01*
X9101771Y-18710809D01*
X9087486Y-18639380D01*
X9087486Y-18582237D01*
X9101771Y-18510809D01*
X9116057Y-18467951D01*
X9130343Y-18439380D01*
X9158914Y-18396523D01*
X9173200Y-18382237D01*
X9287486Y-18525094D02*
X9287486Y-18725094D01*
X9287486Y-18553666D02*
X9301771Y-18539380D01*
X9330343Y-18525094D01*
X9373200Y-18525094D01*
X9401771Y-18539380D01*
X9416057Y-18567951D01*
X9416057Y-18725094D01*
X9601771Y-18725094D02*
X9573200Y-18710809D01*
X9558914Y-18696523D01*
X9544629Y-18667951D01*
X9544629Y-18582237D01*
X9558914Y-18553666D01*
X9573200Y-18539380D01*
X9601771Y-18525094D01*
X9644629Y-18525094D01*
X9673200Y-18539380D01*
X9687486Y-18553666D01*
X9701771Y-18582237D01*
X9701771Y-18667951D01*
X9687486Y-18696523D01*
X9673200Y-18710809D01*
X9644629Y-18725094D01*
X9601771Y-18725094D01*
X9787486Y-18525094D02*
X9901771Y-18525094D01*
X9830343Y-18425094D02*
X9830343Y-18682237D01*
X9844629Y-18710809D01*
X9873200Y-18725094D01*
X9901771Y-18725094D01*
X10230343Y-18525094D02*
X10230343Y-18825094D01*
X10230343Y-18539380D02*
X10258914Y-18525094D01*
X10316057Y-18525094D01*
X10344629Y-18539380D01*
X10358914Y-18553666D01*
X10373200Y-18582237D01*
X10373200Y-18667951D01*
X10358914Y-18696523D01*
X10344629Y-18710809D01*
X10316057Y-18725094D01*
X10258914Y-18725094D01*
X10230343Y-18710809D01*
X10544629Y-18725094D02*
X10516057Y-18710809D01*
X10501771Y-18682237D01*
X10501771Y-18425094D01*
X10787486Y-18725094D02*
X10787486Y-18567951D01*
X10773200Y-18539380D01*
X10744629Y-18525094D01*
X10687486Y-18525094D01*
X10658914Y-18539380D01*
X10787486Y-18710809D02*
X10758914Y-18725094D01*
X10687486Y-18725094D01*
X10658914Y-18710809D01*
X10644629Y-18682237D01*
X10644629Y-18653666D01*
X10658914Y-18625094D01*
X10687486Y-18610809D01*
X10758914Y-18610809D01*
X10787486Y-18596523D01*
X10887486Y-18525094D02*
X11001771Y-18525094D01*
X10930343Y-18425094D02*
X10930343Y-18682237D01*
X10944629Y-18710809D01*
X10973200Y-18725094D01*
X11001771Y-18725094D01*
X11216057Y-18710809D02*
X11187486Y-18725094D01*
X11130343Y-18725094D01*
X11101771Y-18710809D01*
X11087486Y-18682237D01*
X11087486Y-18567951D01*
X11101771Y-18539380D01*
X11130343Y-18525094D01*
X11187486Y-18525094D01*
X11216057Y-18539380D01*
X11230343Y-18567951D01*
X11230343Y-18596523D01*
X11087486Y-18625094D01*
X11487486Y-18725094D02*
X11487486Y-18425094D01*
X11487486Y-18710809D02*
X11458914Y-18725094D01*
X11401771Y-18725094D01*
X11373200Y-18710809D01*
X11358914Y-18696523D01*
X11344628Y-18667951D01*
X11344628Y-18582237D01*
X11358914Y-18553666D01*
X11373200Y-18539380D01*
X11401771Y-18525094D01*
X11458914Y-18525094D01*
X11487486Y-18539380D01*
X11601771Y-18839380D02*
X11616057Y-18825094D01*
X11644628Y-18782237D01*
X11658914Y-18753666D01*
X11673200Y-18710809D01*
X11687486Y-18639380D01*
X11687486Y-18582237D01*
X11673200Y-18510809D01*
X11658914Y-18467951D01*
X11644628Y-18439380D01*
X11616057Y-18396523D01*
X11601771Y-18382237D01*
M02*
