G04 #@! TF.GenerationSoftware,KiCad,Pcbnew,(5.1.9)-1*
G04 #@! TF.CreationDate,2021-02-18T22:07:17-08:00*
G04 #@! TF.ProjectId,kujira,6b756a69-7261-42e6-9b69-6361645f7063,rev?*
G04 #@! TF.SameCoordinates,Original*
G04 #@! TF.FileFunction,Legend,Top*
G04 #@! TF.FilePolarity,Positive*
%FSLAX46Y46*%
G04 Gerber Fmt 4.6, Leading zero omitted, Abs format (unit mm)*
G04 Created by KiCad (PCBNEW (5.1.9)-1) date 2021-02-18 22:07:17*
%MOMM*%
%LPD*%
G01*
G04 APERTURE LIST*
%ADD10C,0.150000*%
%ADD11C,0.120000*%
%ADD12C,0.381000*%
G04 APERTURE END LIST*
D10*
X181452000Y-35130000D02*
X176452000Y-35130000D01*
X176452000Y-35130000D02*
X176452000Y-37130000D01*
X181452000Y-35130000D02*
X181452000Y-37130000D01*
X181952000Y-49230000D02*
X175952000Y-49230000D01*
X175952000Y-49230000D02*
X175952000Y-37130000D01*
X175952000Y-37130000D02*
X181952000Y-37130000D01*
X181952000Y-37130000D02*
X181952000Y-49230000D01*
X190523500Y-35003000D02*
X185523500Y-35003000D01*
X185523500Y-35003000D02*
X185523500Y-37003000D01*
X190523500Y-35003000D02*
X190523500Y-37003000D01*
X191023500Y-49103000D02*
X185023500Y-49103000D01*
X185023500Y-49103000D02*
X185023500Y-37003000D01*
X185023500Y-37003000D02*
X191023500Y-37003000D01*
X191023500Y-37003000D02*
X191023500Y-49103000D01*
D11*
X33105000Y-74662000D02*
X32655000Y-74212000D01*
X29705000Y-74662000D02*
X30155000Y-74212000D01*
X29705000Y-79262000D02*
X30155000Y-79712000D01*
X33105000Y-79262000D02*
X32655000Y-79712000D01*
X28655000Y-77962000D02*
X28655000Y-75962000D01*
X32655000Y-74212000D02*
X30155000Y-74212000D01*
X34155000Y-77962000D02*
X34155000Y-75962000D01*
X32655000Y-79712000D02*
X30155000Y-79712000D01*
X414744500Y-79262000D02*
X415194500Y-79712000D01*
X418144500Y-79262000D02*
X417694500Y-79712000D01*
X418144500Y-74662000D02*
X417694500Y-74212000D01*
X414744500Y-74662000D02*
X415194500Y-74212000D01*
X419194500Y-75962000D02*
X419194500Y-77962000D01*
X415194500Y-79712000D02*
X417694500Y-79712000D01*
X413694500Y-75962000D02*
X413694500Y-77962000D01*
X415194500Y-74212000D02*
X417694500Y-74212000D01*
X61803000Y-114307000D02*
X69603000Y-114307000D01*
X69603000Y-110607000D02*
X61803000Y-110607000D01*
X61803000Y-112707000D02*
X61803000Y-114307000D01*
X52278000Y-57160000D02*
X60078000Y-57160000D01*
X60078000Y-53460000D02*
X52278000Y-53460000D01*
X52278000Y-55560000D02*
X52278000Y-57160000D01*
X388973500Y-74563000D02*
X388973500Y-76163000D01*
X396773500Y-72463000D02*
X388973500Y-72463000D01*
X388973500Y-76163000D02*
X396773500Y-76163000D01*
X367891500Y-112663000D02*
X367891500Y-114263000D01*
X375691500Y-110563000D02*
X367891500Y-110563000D01*
X367891500Y-114263000D02*
X375691500Y-114263000D01*
X344949500Y-112707000D02*
X344949500Y-114307000D01*
X352749500Y-110607000D02*
X344949500Y-110607000D01*
X344949500Y-114307000D02*
X352749500Y-114307000D01*
X388973500Y-105722000D02*
X388973500Y-107322000D01*
X396773500Y-103622000D02*
X388973500Y-103622000D01*
X388973500Y-107322000D02*
X396773500Y-107322000D01*
X388973500Y-88834000D02*
X388973500Y-90434000D01*
X396773500Y-86734000D02*
X388973500Y-86734000D01*
X388973500Y-90434000D02*
X396773500Y-90434000D01*
X316710500Y-112645000D02*
X316710500Y-114245000D01*
X324510500Y-110545000D02*
X316710500Y-110545000D01*
X316710500Y-114245000D02*
X324510500Y-114245000D01*
D12*
X22515000Y-39083000D02*
X22515000Y-69563000D01*
X22515000Y-69563000D02*
X40295000Y-69563000D01*
X40295000Y-69563000D02*
X40295000Y-39083000D01*
X25055000Y-39083000D02*
X25055000Y-41623000D01*
X25055000Y-41623000D02*
X22515000Y-41623000D01*
D10*
G36*
X36336568Y-44962360D02*
G01*
X36336568Y-45262360D01*
X36236568Y-45262360D01*
X36236568Y-44962360D01*
X36336568Y-44962360D01*
G37*
X36336568Y-44962360D02*
X36336568Y-45262360D01*
X36236568Y-45262360D01*
X36236568Y-44962360D01*
X36336568Y-44962360D01*
G36*
X36136568Y-45362360D02*
G01*
X36136568Y-45462360D01*
X36036568Y-45462360D01*
X36036568Y-45362360D01*
X36136568Y-45362360D01*
G37*
X36136568Y-45362360D02*
X36136568Y-45462360D01*
X36036568Y-45462360D01*
X36036568Y-45362360D01*
X36136568Y-45362360D01*
G36*
X36336568Y-44962360D02*
G01*
X36336568Y-45062360D01*
X35836568Y-45062360D01*
X35836568Y-44962360D01*
X36336568Y-44962360D01*
G37*
X36336568Y-44962360D02*
X36336568Y-45062360D01*
X35836568Y-45062360D01*
X35836568Y-44962360D01*
X36336568Y-44962360D01*
G36*
X35936568Y-44962360D02*
G01*
X35936568Y-45762360D01*
X35836568Y-45762360D01*
X35836568Y-44962360D01*
X35936568Y-44962360D01*
G37*
X35936568Y-44962360D02*
X35936568Y-45762360D01*
X35836568Y-45762360D01*
X35836568Y-44962360D01*
X35936568Y-44962360D01*
G36*
X36336568Y-45562360D02*
G01*
X36336568Y-45762360D01*
X36236568Y-45762360D01*
X36236568Y-45562360D01*
X36336568Y-45562360D01*
G37*
X36336568Y-45562360D02*
X36336568Y-45762360D01*
X36236568Y-45762360D01*
X36236568Y-45562360D01*
X36336568Y-45562360D01*
D12*
X40295000Y-39083000D02*
X40295000Y-36543000D01*
X40295000Y-36543000D02*
X22515000Y-36543000D01*
X22515000Y-36543000D02*
X22515000Y-39083000D01*
X25055000Y-39083000D02*
X22515000Y-39083000D01*
D11*
X114083000Y-55495000D02*
X114083000Y-57095000D01*
X121883000Y-53395000D02*
X114083000Y-53395000D01*
X114083000Y-57095000D02*
X121883000Y-57095000D01*
X129831000Y-112772000D02*
X129831000Y-114372000D01*
X137631000Y-110672000D02*
X129831000Y-110672000D01*
X129831000Y-114372000D02*
X137631000Y-114372000D01*
X342492500Y-55495000D02*
X342492500Y-57095000D01*
X350292500Y-53395000D02*
X342492500Y-53395000D01*
X342492500Y-57095000D02*
X350292500Y-57095000D01*
X157136000Y-112645000D02*
X157136000Y-114245000D01*
X164936000Y-110545000D02*
X157136000Y-110545000D01*
X157136000Y-114245000D02*
X164936000Y-114245000D01*
X202030500Y-93595000D02*
X202030500Y-95195000D01*
X209830500Y-91495000D02*
X202030500Y-91495000D01*
X202030500Y-95195000D02*
X209830500Y-95195000D01*
X142912000Y-55241000D02*
X142912000Y-56841000D01*
X150712000Y-53141000D02*
X142912000Y-53141000D01*
X142912000Y-56841000D02*
X150712000Y-56841000D01*
X283056500Y-55495000D02*
X283056500Y-57095000D01*
X290856500Y-53395000D02*
X283056500Y-53395000D01*
X283056500Y-57095000D02*
X290856500Y-57095000D01*
X244956500Y-55495000D02*
X244956500Y-57095000D01*
X252756500Y-53395000D02*
X244956500Y-53395000D01*
X244956500Y-57095000D02*
X252756500Y-57095000D01*
X206856500Y-55495000D02*
X206856500Y-57095000D01*
X214656500Y-53395000D02*
X206856500Y-53395000D01*
X206856500Y-57095000D02*
X214656500Y-57095000D01*
X91223000Y-112772000D02*
X91223000Y-114372000D01*
X99023000Y-110672000D02*
X91223000Y-110672000D01*
X91223000Y-114372000D02*
X99023000Y-114372000D01*
X293216500Y-112645000D02*
X293216500Y-114245000D01*
X301016500Y-110545000D02*
X293216500Y-110545000D01*
X293216500Y-114245000D02*
X301016500Y-114245000D01*
X268705500Y-112645000D02*
X268705500Y-114245000D01*
X276505500Y-110545000D02*
X268705500Y-110545000D01*
X268705500Y-114245000D02*
X276505500Y-114245000D01*
X54647000Y-74480000D02*
X54647000Y-76080000D01*
X62447000Y-72380000D02*
X54647000Y-72380000D01*
X54647000Y-76080000D02*
X62447000Y-76080000D01*
X202030500Y-74545000D02*
X202030500Y-76145000D01*
X209830500Y-72445000D02*
X202030500Y-72445000D01*
X202030500Y-76145000D02*
X209830500Y-76145000D01*
X147611000Y-93595000D02*
X147611000Y-95195000D01*
X155411000Y-91495000D02*
X147611000Y-91495000D01*
X147611000Y-95195000D02*
X155411000Y-95195000D01*
X54647000Y-93595000D02*
X54647000Y-95195000D01*
X62447000Y-91495000D02*
X54647000Y-91495000D01*
X54647000Y-95195000D02*
X62447000Y-95195000D01*
X241781500Y-112645000D02*
X241781500Y-114245000D01*
X249581500Y-110545000D02*
X241781500Y-110545000D01*
X241781500Y-114245000D02*
X249581500Y-114245000D01*
X211555500Y-112518000D02*
X211555500Y-114118000D01*
X219355500Y-110418000D02*
X211555500Y-110418000D01*
X211555500Y-114118000D02*
X219355500Y-114118000D01*
X370178500Y-55495000D02*
X370178500Y-57095000D01*
X377978500Y-53395000D02*
X370178500Y-53395000D01*
X370178500Y-57095000D02*
X377978500Y-57095000D01*
X142785000Y-74545000D02*
X142785000Y-76145000D01*
X150585000Y-72445000D02*
X142785000Y-72445000D01*
X142785000Y-76145000D02*
X150585000Y-76145000D01*
X85762000Y-55622000D02*
X85762000Y-57222000D01*
X93562000Y-53522000D02*
X85762000Y-53522000D01*
X85762000Y-57222000D02*
X93562000Y-57222000D01*
X316330500Y-55495000D02*
X316330500Y-57095000D01*
X324130500Y-53395000D02*
X316330500Y-53395000D01*
X316330500Y-57095000D02*
X324130500Y-57095000D01*
D12*
X407887500Y-39083000D02*
X407887500Y-69563000D01*
X407887500Y-69563000D02*
X425667500Y-69563000D01*
X425667500Y-69563000D02*
X425667500Y-39083000D01*
X410427500Y-39083000D02*
X410427500Y-41623000D01*
X410427500Y-41623000D02*
X407887500Y-41623000D01*
D10*
G36*
X421709068Y-44962360D02*
G01*
X421709068Y-45262360D01*
X421609068Y-45262360D01*
X421609068Y-44962360D01*
X421709068Y-44962360D01*
G37*
X421709068Y-44962360D02*
X421709068Y-45262360D01*
X421609068Y-45262360D01*
X421609068Y-44962360D01*
X421709068Y-44962360D01*
G36*
X421509068Y-45362360D02*
G01*
X421509068Y-45462360D01*
X421409068Y-45462360D01*
X421409068Y-45362360D01*
X421509068Y-45362360D01*
G37*
X421509068Y-45362360D02*
X421509068Y-45462360D01*
X421409068Y-45462360D01*
X421409068Y-45362360D01*
X421509068Y-45362360D01*
G36*
X421709068Y-44962360D02*
G01*
X421709068Y-45062360D01*
X421209068Y-45062360D01*
X421209068Y-44962360D01*
X421709068Y-44962360D01*
G37*
X421709068Y-44962360D02*
X421709068Y-45062360D01*
X421209068Y-45062360D01*
X421209068Y-44962360D01*
X421709068Y-44962360D01*
G36*
X421309068Y-44962360D02*
G01*
X421309068Y-45762360D01*
X421209068Y-45762360D01*
X421209068Y-44962360D01*
X421309068Y-44962360D01*
G37*
X421309068Y-44962360D02*
X421309068Y-45762360D01*
X421209068Y-45762360D01*
X421209068Y-44962360D01*
X421309068Y-44962360D01*
G36*
X421709068Y-45562360D02*
G01*
X421709068Y-45762360D01*
X421609068Y-45762360D01*
X421609068Y-45562360D01*
X421709068Y-45562360D01*
G37*
X421709068Y-45562360D02*
X421709068Y-45762360D01*
X421609068Y-45762360D01*
X421609068Y-45562360D01*
X421709068Y-45562360D01*
D12*
X425667500Y-39083000D02*
X425667500Y-36543000D01*
X425667500Y-36543000D02*
X407887500Y-36543000D01*
X407887500Y-36543000D02*
X407887500Y-39083000D01*
X410427500Y-39083000D02*
X407887500Y-39083000D01*
D10*
X176346180Y-43513333D02*
X177060466Y-43513333D01*
X177203323Y-43560952D01*
X177298561Y-43656190D01*
X177346180Y-43799047D01*
X177346180Y-43894285D01*
X176441419Y-43084761D02*
X176393800Y-43037142D01*
X176346180Y-42941904D01*
X176346180Y-42703809D01*
X176393800Y-42608571D01*
X176441419Y-42560952D01*
X176536657Y-42513333D01*
X176631895Y-42513333D01*
X176774752Y-42560952D01*
X177346180Y-43132380D01*
X177346180Y-42513333D01*
X185417680Y-43386333D02*
X186131966Y-43386333D01*
X186274823Y-43433952D01*
X186370061Y-43529190D01*
X186417680Y-43672047D01*
X186417680Y-43767285D01*
X186417680Y-42386333D02*
X186417680Y-42957761D01*
X186417680Y-42672047D02*
X185417680Y-42672047D01*
X185560538Y-42767285D01*
X185655776Y-42862523D01*
X185703395Y-42957761D01*
X30190714Y-81164380D02*
X29857380Y-80688190D01*
X29619285Y-81164380D02*
X29619285Y-80164380D01*
X30000238Y-80164380D01*
X30095476Y-80212000D01*
X30143095Y-80259619D01*
X30190714Y-80354857D01*
X30190714Y-80497714D01*
X30143095Y-80592952D01*
X30095476Y-80640571D01*
X30000238Y-80688190D01*
X29619285Y-80688190D01*
X30571666Y-81116761D02*
X30714523Y-81164380D01*
X30952619Y-81164380D01*
X31047857Y-81116761D01*
X31095476Y-81069142D01*
X31143095Y-80973904D01*
X31143095Y-80878666D01*
X31095476Y-80783428D01*
X31047857Y-80735809D01*
X30952619Y-80688190D01*
X30762142Y-80640571D01*
X30666904Y-80592952D01*
X30619285Y-80545333D01*
X30571666Y-80450095D01*
X30571666Y-80354857D01*
X30619285Y-80259619D01*
X30666904Y-80212000D01*
X30762142Y-80164380D01*
X31000238Y-80164380D01*
X31143095Y-80212000D01*
X31476428Y-80164380D02*
X31714523Y-81164380D01*
X31905000Y-80450095D01*
X32095476Y-81164380D01*
X32333571Y-80164380D01*
X32666904Y-80259619D02*
X32714523Y-80212000D01*
X32809761Y-80164380D01*
X33047857Y-80164380D01*
X33143095Y-80212000D01*
X33190714Y-80259619D01*
X33238333Y-80354857D01*
X33238333Y-80450095D01*
X33190714Y-80592952D01*
X32619285Y-81164380D01*
X33238333Y-81164380D01*
X415230214Y-73664380D02*
X414896880Y-73188190D01*
X414658785Y-73664380D02*
X414658785Y-72664380D01*
X415039738Y-72664380D01*
X415134976Y-72712000D01*
X415182595Y-72759619D01*
X415230214Y-72854857D01*
X415230214Y-72997714D01*
X415182595Y-73092952D01*
X415134976Y-73140571D01*
X415039738Y-73188190D01*
X414658785Y-73188190D01*
X415611166Y-73616761D02*
X415754023Y-73664380D01*
X415992119Y-73664380D01*
X416087357Y-73616761D01*
X416134976Y-73569142D01*
X416182595Y-73473904D01*
X416182595Y-73378666D01*
X416134976Y-73283428D01*
X416087357Y-73235809D01*
X415992119Y-73188190D01*
X415801642Y-73140571D01*
X415706404Y-73092952D01*
X415658785Y-73045333D01*
X415611166Y-72950095D01*
X415611166Y-72854857D01*
X415658785Y-72759619D01*
X415706404Y-72712000D01*
X415801642Y-72664380D01*
X416039738Y-72664380D01*
X416182595Y-72712000D01*
X416515928Y-72664380D02*
X416754023Y-73664380D01*
X416944500Y-72950095D01*
X417134976Y-73664380D01*
X417373071Y-72664380D01*
X418277833Y-73664380D02*
X417706404Y-73664380D01*
X417992119Y-73664380D02*
X417992119Y-72664380D01*
X417896880Y-72807238D01*
X417801642Y-72902476D01*
X417706404Y-72950095D01*
X28274523Y-67084904D02*
X28274523Y-66284904D01*
X28465000Y-66284904D01*
X28579285Y-66323000D01*
X28655476Y-66399190D01*
X28693571Y-66475380D01*
X28731666Y-66627761D01*
X28731666Y-66742047D01*
X28693571Y-66894428D01*
X28655476Y-66970619D01*
X28579285Y-67046809D01*
X28465000Y-67084904D01*
X28274523Y-67084904D01*
X29455476Y-66284904D02*
X29074523Y-66284904D01*
X29036428Y-66665857D01*
X29074523Y-66627761D01*
X29150714Y-66589666D01*
X29341190Y-66589666D01*
X29417380Y-66627761D01*
X29455476Y-66665857D01*
X29493571Y-66742047D01*
X29493571Y-66932523D01*
X29455476Y-67008714D01*
X29417380Y-67046809D01*
X29341190Y-67084904D01*
X29150714Y-67084904D01*
X29074523Y-67046809D01*
X29036428Y-67008714D01*
X33678333Y-66665857D02*
X33411666Y-66665857D01*
X33411666Y-67084904D02*
X33411666Y-66284904D01*
X33792619Y-66284904D01*
X34516428Y-67084904D02*
X34059285Y-67084904D01*
X34287857Y-67084904D02*
X34287857Y-66284904D01*
X34211666Y-66399190D01*
X34135476Y-66475380D01*
X34059285Y-66513476D01*
X31271666Y-67008714D02*
X31233571Y-67046809D01*
X31119285Y-67084904D01*
X31043095Y-67084904D01*
X30928809Y-67046809D01*
X30852619Y-66970619D01*
X30814523Y-66894428D01*
X30776428Y-66742047D01*
X30776428Y-66627761D01*
X30814523Y-66475380D01*
X30852619Y-66399190D01*
X30928809Y-66323000D01*
X31043095Y-66284904D01*
X31119285Y-66284904D01*
X31233571Y-66323000D01*
X31271666Y-66361095D01*
X31538333Y-66284904D02*
X32071666Y-66284904D01*
X31728809Y-67084904D01*
X37569297Y-67187991D02*
X37663578Y-67140851D01*
X37710719Y-67140851D01*
X37781429Y-67164421D01*
X37852140Y-67235132D01*
X37875710Y-67305842D01*
X37875710Y-67352983D01*
X37852140Y-67423693D01*
X37663578Y-67612255D01*
X37168603Y-67117280D01*
X37333595Y-66952289D01*
X37404306Y-66928719D01*
X37451446Y-66928719D01*
X37522157Y-66952289D01*
X37569297Y-66999429D01*
X37592867Y-67070140D01*
X37592867Y-67117280D01*
X37569297Y-67187991D01*
X37404306Y-67352983D01*
X37875710Y-66410174D02*
X37781429Y-66504455D01*
X37757859Y-66575165D01*
X37757859Y-66622306D01*
X37781429Y-66740157D01*
X37852140Y-66858008D01*
X38040702Y-67046570D01*
X38111412Y-67070140D01*
X38158553Y-67070140D01*
X38229264Y-67046570D01*
X38323544Y-66952289D01*
X38347115Y-66881578D01*
X38347115Y-66834438D01*
X38323544Y-66763727D01*
X38205693Y-66645876D01*
X38134983Y-66622306D01*
X38087842Y-66622306D01*
X38017132Y-66645876D01*
X37922851Y-66740157D01*
X37899280Y-66810867D01*
X37899280Y-66858008D01*
X37922851Y-66928719D01*
X35671666Y-66873000D02*
X35438333Y-66873000D01*
X35438333Y-67239666D02*
X35438333Y-66539666D01*
X35771666Y-66539666D01*
X36171666Y-66539666D02*
X36238333Y-66539666D01*
X36305000Y-66573000D01*
X36338333Y-66606333D01*
X36371666Y-66673000D01*
X36405000Y-66806333D01*
X36405000Y-66973000D01*
X36371666Y-67106333D01*
X36338333Y-67173000D01*
X36305000Y-67206333D01*
X36238333Y-67239666D01*
X36171666Y-67239666D01*
X36105000Y-67206333D01*
X36071666Y-67173000D01*
X36038333Y-67106333D01*
X36005000Y-66973000D01*
X36005000Y-66806333D01*
X36038333Y-66673000D01*
X36071666Y-66606333D01*
X36105000Y-66573000D01*
X36171666Y-66539666D01*
X26621666Y-66873000D02*
X26721666Y-66906333D01*
X26755000Y-66939666D01*
X26788333Y-67006333D01*
X26788333Y-67106333D01*
X26755000Y-67173000D01*
X26721666Y-67206333D01*
X26655000Y-67239666D01*
X26388333Y-67239666D01*
X26388333Y-66539666D01*
X26621666Y-66539666D01*
X26688333Y-66573000D01*
X26721666Y-66606333D01*
X26755000Y-66673000D01*
X26755000Y-66739666D01*
X26721666Y-66806333D01*
X26688333Y-66839666D01*
X26621666Y-66873000D01*
X26388333Y-66873000D01*
X27021666Y-66539666D02*
X27488333Y-66539666D01*
X27188333Y-67239666D01*
X25642651Y-39914904D02*
X26099794Y-39914904D01*
X25871223Y-40714904D02*
X25871223Y-39914904D01*
X26290270Y-39914904D02*
X26823604Y-40714904D01*
X26823604Y-39914904D02*
X26290270Y-40714904D01*
X27280747Y-39914904D02*
X27356937Y-39914904D01*
X27433128Y-39953000D01*
X27471223Y-39991095D01*
X27509318Y-40067285D01*
X27547413Y-40219666D01*
X27547413Y-40410142D01*
X27509318Y-40562523D01*
X27471223Y-40638714D01*
X27433128Y-40676809D01*
X27356937Y-40714904D01*
X27280747Y-40714904D01*
X27204556Y-40676809D01*
X27166461Y-40638714D01*
X27128366Y-40562523D01*
X27090270Y-40410142D01*
X27090270Y-40219666D01*
X27128366Y-40067285D01*
X27166461Y-39991095D01*
X27204556Y-39953000D01*
X27280747Y-39914904D01*
X28461699Y-39876809D02*
X27775985Y-40905380D01*
X28728366Y-40714904D02*
X28728366Y-39914904D01*
X28918842Y-39914904D01*
X29033128Y-39953000D01*
X29109318Y-40029190D01*
X29147413Y-40105380D01*
X29185508Y-40257761D01*
X29185508Y-40372047D01*
X29147413Y-40524428D01*
X29109318Y-40600619D01*
X29033128Y-40676809D01*
X28918842Y-40714904D01*
X28728366Y-40714904D01*
X29452175Y-39914904D02*
X29947413Y-39914904D01*
X29680747Y-40219666D01*
X29795032Y-40219666D01*
X29871223Y-40257761D01*
X29909318Y-40295857D01*
X29947413Y-40372047D01*
X29947413Y-40562523D01*
X29909318Y-40638714D01*
X29871223Y-40676809D01*
X29795032Y-40714904D01*
X29566461Y-40714904D01*
X29490270Y-40676809D01*
X29452175Y-40638714D01*
X25353523Y-43254904D02*
X25353523Y-42454904D01*
X25544000Y-42454904D01*
X25658285Y-42493000D01*
X25734476Y-42569190D01*
X25772571Y-42645380D01*
X25810666Y-42797761D01*
X25810666Y-42912047D01*
X25772571Y-43064428D01*
X25734476Y-43140619D01*
X25658285Y-43216809D01*
X25544000Y-43254904D01*
X25353523Y-43254904D01*
X26115428Y-42531095D02*
X26153523Y-42493000D01*
X26229714Y-42454904D01*
X26420190Y-42454904D01*
X26496380Y-42493000D01*
X26534476Y-42531095D01*
X26572571Y-42607285D01*
X26572571Y-42683476D01*
X26534476Y-42797761D01*
X26077333Y-43254904D01*
X26572571Y-43254904D01*
X25353523Y-53414904D02*
X25353523Y-52614904D01*
X25544000Y-52614904D01*
X25658285Y-52653000D01*
X25734476Y-52729190D01*
X25772571Y-52805380D01*
X25810666Y-52957761D01*
X25810666Y-53072047D01*
X25772571Y-53224428D01*
X25734476Y-53300619D01*
X25658285Y-53376809D01*
X25544000Y-53414904D01*
X25353523Y-53414904D01*
X26305904Y-52614904D02*
X26382095Y-52614904D01*
X26458285Y-52653000D01*
X26496380Y-52691095D01*
X26534476Y-52767285D01*
X26572571Y-52919666D01*
X26572571Y-53110142D01*
X26534476Y-53262523D01*
X26496380Y-53338714D01*
X26458285Y-53376809D01*
X26382095Y-53414904D01*
X26305904Y-53414904D01*
X26229714Y-53376809D01*
X26191619Y-53338714D01*
X26153523Y-53262523D01*
X26115428Y-53110142D01*
X26115428Y-52919666D01*
X26153523Y-52767285D01*
X26191619Y-52691095D01*
X26229714Y-52653000D01*
X26305904Y-52614904D01*
X25353523Y-50874904D02*
X25353523Y-50074904D01*
X25544000Y-50074904D01*
X25658285Y-50113000D01*
X25734476Y-50189190D01*
X25772571Y-50265380D01*
X25810666Y-50417761D01*
X25810666Y-50532047D01*
X25772571Y-50684428D01*
X25734476Y-50760619D01*
X25658285Y-50836809D01*
X25544000Y-50874904D01*
X25353523Y-50874904D01*
X26572571Y-50874904D02*
X26115428Y-50874904D01*
X26344000Y-50874904D02*
X26344000Y-50074904D01*
X26267809Y-50189190D01*
X26191619Y-50265380D01*
X26115428Y-50303476D01*
X25334476Y-47573000D02*
X25258285Y-47534904D01*
X25144000Y-47534904D01*
X25029714Y-47573000D01*
X24953523Y-47649190D01*
X24915428Y-47725380D01*
X24877333Y-47877761D01*
X24877333Y-47992047D01*
X24915428Y-48144428D01*
X24953523Y-48220619D01*
X25029714Y-48296809D01*
X25144000Y-48334904D01*
X25220190Y-48334904D01*
X25334476Y-48296809D01*
X25372571Y-48258714D01*
X25372571Y-47992047D01*
X25220190Y-47992047D01*
X25715428Y-48334904D02*
X25715428Y-47534904D01*
X26172571Y-48334904D01*
X26172571Y-47534904D01*
X26553523Y-48334904D02*
X26553523Y-47534904D01*
X26744000Y-47534904D01*
X26858285Y-47573000D01*
X26934476Y-47649190D01*
X26972571Y-47725380D01*
X27010666Y-47877761D01*
X27010666Y-47992047D01*
X26972571Y-48144428D01*
X26934476Y-48220619D01*
X26858285Y-48296809D01*
X26744000Y-48334904D01*
X26553523Y-48334904D01*
X25334476Y-45033000D02*
X25258285Y-44994904D01*
X25144000Y-44994904D01*
X25029714Y-45033000D01*
X24953523Y-45109190D01*
X24915428Y-45185380D01*
X24877333Y-45337761D01*
X24877333Y-45452047D01*
X24915428Y-45604428D01*
X24953523Y-45680619D01*
X25029714Y-45756809D01*
X25144000Y-45794904D01*
X25220190Y-45794904D01*
X25334476Y-45756809D01*
X25372571Y-45718714D01*
X25372571Y-45452047D01*
X25220190Y-45452047D01*
X25715428Y-45794904D02*
X25715428Y-44994904D01*
X26172571Y-45794904D01*
X26172571Y-44994904D01*
X26553523Y-45794904D02*
X26553523Y-44994904D01*
X26744000Y-44994904D01*
X26858285Y-45033000D01*
X26934476Y-45109190D01*
X26972571Y-45185380D01*
X27010666Y-45337761D01*
X27010666Y-45452047D01*
X26972571Y-45604428D01*
X26934476Y-45680619D01*
X26858285Y-45756809D01*
X26744000Y-45794904D01*
X26553523Y-45794904D01*
X25353523Y-55954904D02*
X25353523Y-55154904D01*
X25544000Y-55154904D01*
X25658285Y-55193000D01*
X25734476Y-55269190D01*
X25772571Y-55345380D01*
X25810666Y-55497761D01*
X25810666Y-55612047D01*
X25772571Y-55764428D01*
X25734476Y-55840619D01*
X25658285Y-55916809D01*
X25544000Y-55954904D01*
X25353523Y-55954904D01*
X26496380Y-55421571D02*
X26496380Y-55954904D01*
X26305904Y-55116809D02*
X26115428Y-55688238D01*
X26610666Y-55688238D01*
X25810666Y-58418714D02*
X25772571Y-58456809D01*
X25658285Y-58494904D01*
X25582095Y-58494904D01*
X25467809Y-58456809D01*
X25391619Y-58380619D01*
X25353523Y-58304428D01*
X25315428Y-58152047D01*
X25315428Y-58037761D01*
X25353523Y-57885380D01*
X25391619Y-57809190D01*
X25467809Y-57733000D01*
X25582095Y-57694904D01*
X25658285Y-57694904D01*
X25772571Y-57733000D01*
X25810666Y-57771095D01*
X26496380Y-57694904D02*
X26344000Y-57694904D01*
X26267809Y-57733000D01*
X26229714Y-57771095D01*
X26153523Y-57885380D01*
X26115428Y-58037761D01*
X26115428Y-58342523D01*
X26153523Y-58418714D01*
X26191619Y-58456809D01*
X26267809Y-58494904D01*
X26420190Y-58494904D01*
X26496380Y-58456809D01*
X26534476Y-58418714D01*
X26572571Y-58342523D01*
X26572571Y-58152047D01*
X26534476Y-58075857D01*
X26496380Y-58037761D01*
X26420190Y-57999666D01*
X26267809Y-57999666D01*
X26191619Y-58037761D01*
X26153523Y-58075857D01*
X26115428Y-58152047D01*
X25353523Y-61034904D02*
X25353523Y-60234904D01*
X25544000Y-60234904D01*
X25658285Y-60273000D01*
X25734476Y-60349190D01*
X25772571Y-60425380D01*
X25810666Y-60577761D01*
X25810666Y-60692047D01*
X25772571Y-60844428D01*
X25734476Y-60920619D01*
X25658285Y-60996809D01*
X25544000Y-61034904D01*
X25353523Y-61034904D01*
X26077333Y-60234904D02*
X26610666Y-60234904D01*
X26267809Y-61034904D01*
X25391619Y-63155857D02*
X25658285Y-63155857D01*
X25772571Y-63574904D02*
X25391619Y-63574904D01*
X25391619Y-62774904D01*
X25772571Y-62774904D01*
X26458285Y-62774904D02*
X26305904Y-62774904D01*
X26229714Y-62813000D01*
X26191619Y-62851095D01*
X26115428Y-62965380D01*
X26077333Y-63117761D01*
X26077333Y-63422523D01*
X26115428Y-63498714D01*
X26153523Y-63536809D01*
X26229714Y-63574904D01*
X26382095Y-63574904D01*
X26458285Y-63536809D01*
X26496380Y-63498714D01*
X26534476Y-63422523D01*
X26534476Y-63232047D01*
X26496380Y-63155857D01*
X26458285Y-63117761D01*
X26382095Y-63079666D01*
X26229714Y-63079666D01*
X26153523Y-63117761D01*
X26115428Y-63155857D01*
X26077333Y-63232047D01*
X25620190Y-65695857D02*
X25734476Y-65733952D01*
X25772571Y-65772047D01*
X25810666Y-65848238D01*
X25810666Y-65962523D01*
X25772571Y-66038714D01*
X25734476Y-66076809D01*
X25658285Y-66114904D01*
X25353523Y-66114904D01*
X25353523Y-65314904D01*
X25620190Y-65314904D01*
X25696380Y-65353000D01*
X25734476Y-65391095D01*
X25772571Y-65467285D01*
X25772571Y-65543476D01*
X25734476Y-65619666D01*
X25696380Y-65657761D01*
X25620190Y-65695857D01*
X25353523Y-65695857D01*
X26496380Y-65581571D02*
X26496380Y-66114904D01*
X26305904Y-65276809D02*
X26115428Y-65848238D01*
X26610666Y-65848238D01*
X24840008Y-66787297D02*
X24887148Y-66881578D01*
X24887148Y-66928719D01*
X24863578Y-66999429D01*
X24792867Y-67070140D01*
X24722157Y-67093710D01*
X24675016Y-67093710D01*
X24604306Y-67070140D01*
X24415744Y-66881578D01*
X24910719Y-66386603D01*
X25075710Y-66551595D01*
X25099280Y-66622306D01*
X25099280Y-66669446D01*
X25075710Y-66740157D01*
X25028570Y-66787297D01*
X24957859Y-66810867D01*
X24910719Y-66810867D01*
X24840008Y-66787297D01*
X24675016Y-66622306D01*
X25641396Y-67117280D02*
X25405693Y-66881578D01*
X25146421Y-67093710D01*
X25193561Y-67093710D01*
X25264272Y-67117280D01*
X25382123Y-67235132D01*
X25405693Y-67305842D01*
X25405693Y-67352983D01*
X25382123Y-67423693D01*
X25264272Y-67541544D01*
X25193561Y-67565115D01*
X25146421Y-67565115D01*
X25075710Y-67541544D01*
X24957859Y-67423693D01*
X24934289Y-67352983D01*
X24934289Y-67305842D01*
X36542190Y-63155857D02*
X36656476Y-63193952D01*
X36694571Y-63232047D01*
X36732666Y-63308238D01*
X36732666Y-63422523D01*
X36694571Y-63498714D01*
X36656476Y-63536809D01*
X36580285Y-63574904D01*
X36275523Y-63574904D01*
X36275523Y-62774904D01*
X36542190Y-62774904D01*
X36618380Y-62813000D01*
X36656476Y-62851095D01*
X36694571Y-62927285D01*
X36694571Y-63003476D01*
X36656476Y-63079666D01*
X36618380Y-63117761D01*
X36542190Y-63155857D01*
X36275523Y-63155857D01*
X36999333Y-62774904D02*
X37494571Y-62774904D01*
X37227904Y-63079666D01*
X37342190Y-63079666D01*
X37418380Y-63117761D01*
X37456476Y-63155857D01*
X37494571Y-63232047D01*
X37494571Y-63422523D01*
X37456476Y-63498714D01*
X37418380Y-63536809D01*
X37342190Y-63574904D01*
X37113619Y-63574904D01*
X37037428Y-63536809D01*
X36999333Y-63498714D01*
X36542190Y-60615857D02*
X36656476Y-60653952D01*
X36694571Y-60692047D01*
X36732666Y-60768238D01*
X36732666Y-60882523D01*
X36694571Y-60958714D01*
X36656476Y-60996809D01*
X36580285Y-61034904D01*
X36275523Y-61034904D01*
X36275523Y-60234904D01*
X36542190Y-60234904D01*
X36618380Y-60273000D01*
X36656476Y-60311095D01*
X36694571Y-60387285D01*
X36694571Y-60463476D01*
X36656476Y-60539666D01*
X36618380Y-60577761D01*
X36542190Y-60615857D01*
X36275523Y-60615857D01*
X37494571Y-61034904D02*
X37037428Y-61034904D01*
X37266000Y-61034904D02*
X37266000Y-60234904D01*
X37189809Y-60349190D01*
X37113619Y-60425380D01*
X37037428Y-60463476D01*
X36599333Y-50455857D02*
X36332666Y-50455857D01*
X36332666Y-50874904D02*
X36332666Y-50074904D01*
X36713619Y-50074904D01*
X37361238Y-50341571D02*
X37361238Y-50874904D01*
X37170761Y-50036809D02*
X36980285Y-50608238D01*
X37475523Y-50608238D01*
X35799333Y-47534904D02*
X36066000Y-48334904D01*
X36332666Y-47534904D01*
X37056476Y-48258714D02*
X37018380Y-48296809D01*
X36904095Y-48334904D01*
X36827904Y-48334904D01*
X36713619Y-48296809D01*
X36637428Y-48220619D01*
X36599333Y-48144428D01*
X36561238Y-47992047D01*
X36561238Y-47877761D01*
X36599333Y-47725380D01*
X36637428Y-47649190D01*
X36713619Y-47573000D01*
X36827904Y-47534904D01*
X36904095Y-47534904D01*
X37018380Y-47573000D01*
X37056476Y-47611095D01*
X37856476Y-48258714D02*
X37818380Y-48296809D01*
X37704095Y-48334904D01*
X37627904Y-48334904D01*
X37513619Y-48296809D01*
X37437428Y-48220619D01*
X37399333Y-48144428D01*
X37361238Y-47992047D01*
X37361238Y-47877761D01*
X37399333Y-47725380D01*
X37437428Y-47649190D01*
X37513619Y-47573000D01*
X37627904Y-47534904D01*
X37704095Y-47534904D01*
X37818380Y-47573000D01*
X37856476Y-47611095D01*
X36604786Y-45726809D02*
X36719072Y-45764904D01*
X36909548Y-45764904D01*
X36985739Y-45726809D01*
X37023834Y-45688714D01*
X37061929Y-45612523D01*
X37061929Y-45536333D01*
X37023834Y-45460142D01*
X36985739Y-45422047D01*
X36909548Y-45383952D01*
X36757167Y-45345857D01*
X36680977Y-45307761D01*
X36642881Y-45269666D01*
X36604786Y-45193476D01*
X36604786Y-45117285D01*
X36642881Y-45041095D01*
X36680977Y-45003000D01*
X36757167Y-44964904D01*
X36947643Y-44964904D01*
X37061929Y-45003000D01*
X37290500Y-44964904D02*
X37747643Y-44964904D01*
X37519072Y-45764904D02*
X37519072Y-44964904D01*
X36256476Y-42493000D02*
X36180285Y-42454904D01*
X36066000Y-42454904D01*
X35951714Y-42493000D01*
X35875523Y-42569190D01*
X35837428Y-42645380D01*
X35799333Y-42797761D01*
X35799333Y-42912047D01*
X35837428Y-43064428D01*
X35875523Y-43140619D01*
X35951714Y-43216809D01*
X36066000Y-43254904D01*
X36142190Y-43254904D01*
X36256476Y-43216809D01*
X36294571Y-43178714D01*
X36294571Y-42912047D01*
X36142190Y-42912047D01*
X36637428Y-43254904D02*
X36637428Y-42454904D01*
X37094571Y-43254904D01*
X37094571Y-42454904D01*
X37475523Y-43254904D02*
X37475523Y-42454904D01*
X37666000Y-42454904D01*
X37780285Y-42493000D01*
X37856476Y-42569190D01*
X37894571Y-42645380D01*
X37932666Y-42797761D01*
X37932666Y-42912047D01*
X37894571Y-43064428D01*
X37856476Y-43140619D01*
X37780285Y-43216809D01*
X37666000Y-43254904D01*
X37475523Y-43254904D01*
X36542190Y-40295857D02*
X36656476Y-40333952D01*
X36694571Y-40372047D01*
X36732666Y-40448238D01*
X36732666Y-40562523D01*
X36694571Y-40638714D01*
X36656476Y-40676809D01*
X36580285Y-40714904D01*
X36275523Y-40714904D01*
X36275523Y-39914904D01*
X36542190Y-39914904D01*
X36618380Y-39953000D01*
X36656476Y-39991095D01*
X36694571Y-40067285D01*
X36694571Y-40143476D01*
X36656476Y-40219666D01*
X36618380Y-40257761D01*
X36542190Y-40295857D01*
X36275523Y-40295857D01*
X37227904Y-39914904D02*
X37304095Y-39914904D01*
X37380285Y-39953000D01*
X37418380Y-39991095D01*
X37456476Y-40067285D01*
X37494571Y-40219666D01*
X37494571Y-40410142D01*
X37456476Y-40562523D01*
X37418380Y-40638714D01*
X37380285Y-40676809D01*
X37304095Y-40714904D01*
X37227904Y-40714904D01*
X37151714Y-40676809D01*
X37113619Y-40638714D01*
X37075523Y-40562523D01*
X37037428Y-40410142D01*
X37037428Y-40219666D01*
X37075523Y-40067285D01*
X37113619Y-39991095D01*
X37151714Y-39953000D01*
X37227904Y-39914904D01*
X36599333Y-52995857D02*
X36332666Y-52995857D01*
X36332666Y-53414904D02*
X36332666Y-52614904D01*
X36713619Y-52614904D01*
X37399333Y-52614904D02*
X37018380Y-52614904D01*
X36980285Y-52995857D01*
X37018380Y-52957761D01*
X37094571Y-52919666D01*
X37285047Y-52919666D01*
X37361238Y-52957761D01*
X37399333Y-52995857D01*
X37437428Y-53072047D01*
X37437428Y-53262523D01*
X37399333Y-53338714D01*
X37361238Y-53376809D01*
X37285047Y-53414904D01*
X37094571Y-53414904D01*
X37018380Y-53376809D01*
X36980285Y-53338714D01*
X36599333Y-55535857D02*
X36332666Y-55535857D01*
X36332666Y-55954904D02*
X36332666Y-55154904D01*
X36713619Y-55154904D01*
X37361238Y-55154904D02*
X37208857Y-55154904D01*
X37132666Y-55193000D01*
X37094571Y-55231095D01*
X37018380Y-55345380D01*
X36980285Y-55497761D01*
X36980285Y-55802523D01*
X37018380Y-55878714D01*
X37056476Y-55916809D01*
X37132666Y-55954904D01*
X37285047Y-55954904D01*
X37361238Y-55916809D01*
X37399333Y-55878714D01*
X37437428Y-55802523D01*
X37437428Y-55612047D01*
X37399333Y-55535857D01*
X37361238Y-55497761D01*
X37285047Y-55459666D01*
X37132666Y-55459666D01*
X37056476Y-55497761D01*
X37018380Y-55535857D01*
X36980285Y-55612047D01*
X36599333Y-58075857D02*
X36332666Y-58075857D01*
X36332666Y-58494904D02*
X36332666Y-57694904D01*
X36713619Y-57694904D01*
X36942190Y-57694904D02*
X37475523Y-57694904D01*
X37132666Y-58494904D01*
X36542190Y-65695857D02*
X36656476Y-65733952D01*
X36694571Y-65772047D01*
X36732666Y-65848238D01*
X36732666Y-65962523D01*
X36694571Y-66038714D01*
X36656476Y-66076809D01*
X36580285Y-66114904D01*
X36275523Y-66114904D01*
X36275523Y-65314904D01*
X36542190Y-65314904D01*
X36618380Y-65353000D01*
X36656476Y-65391095D01*
X36694571Y-65467285D01*
X36694571Y-65543476D01*
X36656476Y-65619666D01*
X36618380Y-65657761D01*
X36542190Y-65695857D01*
X36275523Y-65695857D01*
X37037428Y-65391095D02*
X37075523Y-65353000D01*
X37151714Y-65314904D01*
X37342190Y-65314904D01*
X37418380Y-65353000D01*
X37456476Y-65391095D01*
X37494571Y-65467285D01*
X37494571Y-65543476D01*
X37456476Y-65657761D01*
X36999333Y-66114904D01*
X37494571Y-66114904D01*
X29916619Y-90918380D02*
X30107095Y-90918380D01*
X30202333Y-90966000D01*
X30297571Y-91061238D01*
X30345190Y-91251714D01*
X30345190Y-91585047D01*
X30297571Y-91775523D01*
X30202333Y-91870761D01*
X30107095Y-91918380D01*
X29916619Y-91918380D01*
X29821380Y-91870761D01*
X29726142Y-91775523D01*
X29678523Y-91585047D01*
X29678523Y-91251714D01*
X29726142Y-91061238D01*
X29821380Y-90966000D01*
X29916619Y-90918380D01*
X31249952Y-91918380D02*
X30773761Y-91918380D01*
X30773761Y-90918380D01*
X31583285Y-91394571D02*
X31916619Y-91394571D01*
X32059476Y-91918380D02*
X31583285Y-91918380D01*
X31583285Y-90918380D01*
X32059476Y-90918380D01*
X32488047Y-91918380D02*
X32488047Y-90918380D01*
X32726142Y-90918380D01*
X32869000Y-90966000D01*
X32964238Y-91061238D01*
X33011857Y-91156476D01*
X33059476Y-91346952D01*
X33059476Y-91489809D01*
X33011857Y-91680285D01*
X32964238Y-91775523D01*
X32869000Y-91870761D01*
X32726142Y-91918380D01*
X32488047Y-91918380D01*
X414992119Y-90918380D02*
X415182595Y-90918380D01*
X415277833Y-90966000D01*
X415373071Y-91061238D01*
X415420690Y-91251714D01*
X415420690Y-91585047D01*
X415373071Y-91775523D01*
X415277833Y-91870761D01*
X415182595Y-91918380D01*
X414992119Y-91918380D01*
X414896880Y-91870761D01*
X414801642Y-91775523D01*
X414754023Y-91585047D01*
X414754023Y-91251714D01*
X414801642Y-91061238D01*
X414896880Y-90966000D01*
X414992119Y-90918380D01*
X416325452Y-91918380D02*
X415849261Y-91918380D01*
X415849261Y-90918380D01*
X416658785Y-91394571D02*
X416992119Y-91394571D01*
X417134976Y-91918380D02*
X416658785Y-91918380D01*
X416658785Y-90918380D01*
X417134976Y-90918380D01*
X417563547Y-91918380D02*
X417563547Y-90918380D01*
X417801642Y-90918380D01*
X417944500Y-90966000D01*
X418039738Y-91061238D01*
X418087357Y-91156476D01*
X418134976Y-91346952D01*
X418134976Y-91489809D01*
X418087357Y-91680285D01*
X418039738Y-91775523D01*
X417944500Y-91870761D01*
X417801642Y-91918380D01*
X417563547Y-91918380D01*
X413647023Y-67084904D02*
X413647023Y-66284904D01*
X413837500Y-66284904D01*
X413951785Y-66323000D01*
X414027976Y-66399190D01*
X414066071Y-66475380D01*
X414104166Y-66627761D01*
X414104166Y-66742047D01*
X414066071Y-66894428D01*
X414027976Y-66970619D01*
X413951785Y-67046809D01*
X413837500Y-67084904D01*
X413647023Y-67084904D01*
X414827976Y-66284904D02*
X414447023Y-66284904D01*
X414408928Y-66665857D01*
X414447023Y-66627761D01*
X414523214Y-66589666D01*
X414713690Y-66589666D01*
X414789880Y-66627761D01*
X414827976Y-66665857D01*
X414866071Y-66742047D01*
X414866071Y-66932523D01*
X414827976Y-67008714D01*
X414789880Y-67046809D01*
X414713690Y-67084904D01*
X414523214Y-67084904D01*
X414447023Y-67046809D01*
X414408928Y-67008714D01*
X419050833Y-66665857D02*
X418784166Y-66665857D01*
X418784166Y-67084904D02*
X418784166Y-66284904D01*
X419165119Y-66284904D01*
X419888928Y-67084904D02*
X419431785Y-67084904D01*
X419660357Y-67084904D02*
X419660357Y-66284904D01*
X419584166Y-66399190D01*
X419507976Y-66475380D01*
X419431785Y-66513476D01*
X416644166Y-67008714D02*
X416606071Y-67046809D01*
X416491785Y-67084904D01*
X416415595Y-67084904D01*
X416301309Y-67046809D01*
X416225119Y-66970619D01*
X416187023Y-66894428D01*
X416148928Y-66742047D01*
X416148928Y-66627761D01*
X416187023Y-66475380D01*
X416225119Y-66399190D01*
X416301309Y-66323000D01*
X416415595Y-66284904D01*
X416491785Y-66284904D01*
X416606071Y-66323000D01*
X416644166Y-66361095D01*
X416910833Y-66284904D02*
X417444166Y-66284904D01*
X417101309Y-67084904D01*
X422941797Y-67187991D02*
X423036078Y-67140851D01*
X423083219Y-67140851D01*
X423153929Y-67164421D01*
X423224640Y-67235132D01*
X423248210Y-67305842D01*
X423248210Y-67352983D01*
X423224640Y-67423693D01*
X423036078Y-67612255D01*
X422541103Y-67117280D01*
X422706095Y-66952289D01*
X422776806Y-66928719D01*
X422823946Y-66928719D01*
X422894657Y-66952289D01*
X422941797Y-66999429D01*
X422965367Y-67070140D01*
X422965367Y-67117280D01*
X422941797Y-67187991D01*
X422776806Y-67352983D01*
X423248210Y-66410174D02*
X423153929Y-66504455D01*
X423130359Y-66575165D01*
X423130359Y-66622306D01*
X423153929Y-66740157D01*
X423224640Y-66858008D01*
X423413202Y-67046570D01*
X423483912Y-67070140D01*
X423531053Y-67070140D01*
X423601764Y-67046570D01*
X423696044Y-66952289D01*
X423719615Y-66881578D01*
X423719615Y-66834438D01*
X423696044Y-66763727D01*
X423578193Y-66645876D01*
X423507483Y-66622306D01*
X423460342Y-66622306D01*
X423389632Y-66645876D01*
X423295351Y-66740157D01*
X423271780Y-66810867D01*
X423271780Y-66858008D01*
X423295351Y-66928719D01*
X421044166Y-66873000D02*
X420810833Y-66873000D01*
X420810833Y-67239666D02*
X420810833Y-66539666D01*
X421144166Y-66539666D01*
X421544166Y-66539666D02*
X421610833Y-66539666D01*
X421677500Y-66573000D01*
X421710833Y-66606333D01*
X421744166Y-66673000D01*
X421777500Y-66806333D01*
X421777500Y-66973000D01*
X421744166Y-67106333D01*
X421710833Y-67173000D01*
X421677500Y-67206333D01*
X421610833Y-67239666D01*
X421544166Y-67239666D01*
X421477500Y-67206333D01*
X421444166Y-67173000D01*
X421410833Y-67106333D01*
X421377500Y-66973000D01*
X421377500Y-66806333D01*
X421410833Y-66673000D01*
X421444166Y-66606333D01*
X421477500Y-66573000D01*
X421544166Y-66539666D01*
X411994166Y-66873000D02*
X412094166Y-66906333D01*
X412127500Y-66939666D01*
X412160833Y-67006333D01*
X412160833Y-67106333D01*
X412127500Y-67173000D01*
X412094166Y-67206333D01*
X412027500Y-67239666D01*
X411760833Y-67239666D01*
X411760833Y-66539666D01*
X411994166Y-66539666D01*
X412060833Y-66573000D01*
X412094166Y-66606333D01*
X412127500Y-66673000D01*
X412127500Y-66739666D01*
X412094166Y-66806333D01*
X412060833Y-66839666D01*
X411994166Y-66873000D01*
X411760833Y-66873000D01*
X412394166Y-66539666D02*
X412860833Y-66539666D01*
X412560833Y-67239666D01*
X411015151Y-39914904D02*
X411472294Y-39914904D01*
X411243723Y-40714904D02*
X411243723Y-39914904D01*
X411662770Y-39914904D02*
X412196104Y-40714904D01*
X412196104Y-39914904D02*
X411662770Y-40714904D01*
X412653247Y-39914904D02*
X412729437Y-39914904D01*
X412805628Y-39953000D01*
X412843723Y-39991095D01*
X412881818Y-40067285D01*
X412919913Y-40219666D01*
X412919913Y-40410142D01*
X412881818Y-40562523D01*
X412843723Y-40638714D01*
X412805628Y-40676809D01*
X412729437Y-40714904D01*
X412653247Y-40714904D01*
X412577056Y-40676809D01*
X412538961Y-40638714D01*
X412500866Y-40562523D01*
X412462770Y-40410142D01*
X412462770Y-40219666D01*
X412500866Y-40067285D01*
X412538961Y-39991095D01*
X412577056Y-39953000D01*
X412653247Y-39914904D01*
X413834199Y-39876809D02*
X413148485Y-40905380D01*
X414100866Y-40714904D02*
X414100866Y-39914904D01*
X414291342Y-39914904D01*
X414405628Y-39953000D01*
X414481818Y-40029190D01*
X414519913Y-40105380D01*
X414558008Y-40257761D01*
X414558008Y-40372047D01*
X414519913Y-40524428D01*
X414481818Y-40600619D01*
X414405628Y-40676809D01*
X414291342Y-40714904D01*
X414100866Y-40714904D01*
X414824675Y-39914904D02*
X415319913Y-39914904D01*
X415053247Y-40219666D01*
X415167532Y-40219666D01*
X415243723Y-40257761D01*
X415281818Y-40295857D01*
X415319913Y-40372047D01*
X415319913Y-40562523D01*
X415281818Y-40638714D01*
X415243723Y-40676809D01*
X415167532Y-40714904D01*
X414938961Y-40714904D01*
X414862770Y-40676809D01*
X414824675Y-40638714D01*
X410726023Y-43254904D02*
X410726023Y-42454904D01*
X410916500Y-42454904D01*
X411030785Y-42493000D01*
X411106976Y-42569190D01*
X411145071Y-42645380D01*
X411183166Y-42797761D01*
X411183166Y-42912047D01*
X411145071Y-43064428D01*
X411106976Y-43140619D01*
X411030785Y-43216809D01*
X410916500Y-43254904D01*
X410726023Y-43254904D01*
X411487928Y-42531095D02*
X411526023Y-42493000D01*
X411602214Y-42454904D01*
X411792690Y-42454904D01*
X411868880Y-42493000D01*
X411906976Y-42531095D01*
X411945071Y-42607285D01*
X411945071Y-42683476D01*
X411906976Y-42797761D01*
X411449833Y-43254904D01*
X411945071Y-43254904D01*
X410726023Y-53414904D02*
X410726023Y-52614904D01*
X410916500Y-52614904D01*
X411030785Y-52653000D01*
X411106976Y-52729190D01*
X411145071Y-52805380D01*
X411183166Y-52957761D01*
X411183166Y-53072047D01*
X411145071Y-53224428D01*
X411106976Y-53300619D01*
X411030785Y-53376809D01*
X410916500Y-53414904D01*
X410726023Y-53414904D01*
X411678404Y-52614904D02*
X411754595Y-52614904D01*
X411830785Y-52653000D01*
X411868880Y-52691095D01*
X411906976Y-52767285D01*
X411945071Y-52919666D01*
X411945071Y-53110142D01*
X411906976Y-53262523D01*
X411868880Y-53338714D01*
X411830785Y-53376809D01*
X411754595Y-53414904D01*
X411678404Y-53414904D01*
X411602214Y-53376809D01*
X411564119Y-53338714D01*
X411526023Y-53262523D01*
X411487928Y-53110142D01*
X411487928Y-52919666D01*
X411526023Y-52767285D01*
X411564119Y-52691095D01*
X411602214Y-52653000D01*
X411678404Y-52614904D01*
X410726023Y-50874904D02*
X410726023Y-50074904D01*
X410916500Y-50074904D01*
X411030785Y-50113000D01*
X411106976Y-50189190D01*
X411145071Y-50265380D01*
X411183166Y-50417761D01*
X411183166Y-50532047D01*
X411145071Y-50684428D01*
X411106976Y-50760619D01*
X411030785Y-50836809D01*
X410916500Y-50874904D01*
X410726023Y-50874904D01*
X411945071Y-50874904D02*
X411487928Y-50874904D01*
X411716500Y-50874904D02*
X411716500Y-50074904D01*
X411640309Y-50189190D01*
X411564119Y-50265380D01*
X411487928Y-50303476D01*
X410706976Y-47573000D02*
X410630785Y-47534904D01*
X410516500Y-47534904D01*
X410402214Y-47573000D01*
X410326023Y-47649190D01*
X410287928Y-47725380D01*
X410249833Y-47877761D01*
X410249833Y-47992047D01*
X410287928Y-48144428D01*
X410326023Y-48220619D01*
X410402214Y-48296809D01*
X410516500Y-48334904D01*
X410592690Y-48334904D01*
X410706976Y-48296809D01*
X410745071Y-48258714D01*
X410745071Y-47992047D01*
X410592690Y-47992047D01*
X411087928Y-48334904D02*
X411087928Y-47534904D01*
X411545071Y-48334904D01*
X411545071Y-47534904D01*
X411926023Y-48334904D02*
X411926023Y-47534904D01*
X412116500Y-47534904D01*
X412230785Y-47573000D01*
X412306976Y-47649190D01*
X412345071Y-47725380D01*
X412383166Y-47877761D01*
X412383166Y-47992047D01*
X412345071Y-48144428D01*
X412306976Y-48220619D01*
X412230785Y-48296809D01*
X412116500Y-48334904D01*
X411926023Y-48334904D01*
X410706976Y-45033000D02*
X410630785Y-44994904D01*
X410516500Y-44994904D01*
X410402214Y-45033000D01*
X410326023Y-45109190D01*
X410287928Y-45185380D01*
X410249833Y-45337761D01*
X410249833Y-45452047D01*
X410287928Y-45604428D01*
X410326023Y-45680619D01*
X410402214Y-45756809D01*
X410516500Y-45794904D01*
X410592690Y-45794904D01*
X410706976Y-45756809D01*
X410745071Y-45718714D01*
X410745071Y-45452047D01*
X410592690Y-45452047D01*
X411087928Y-45794904D02*
X411087928Y-44994904D01*
X411545071Y-45794904D01*
X411545071Y-44994904D01*
X411926023Y-45794904D02*
X411926023Y-44994904D01*
X412116500Y-44994904D01*
X412230785Y-45033000D01*
X412306976Y-45109190D01*
X412345071Y-45185380D01*
X412383166Y-45337761D01*
X412383166Y-45452047D01*
X412345071Y-45604428D01*
X412306976Y-45680619D01*
X412230785Y-45756809D01*
X412116500Y-45794904D01*
X411926023Y-45794904D01*
X410726023Y-55954904D02*
X410726023Y-55154904D01*
X410916500Y-55154904D01*
X411030785Y-55193000D01*
X411106976Y-55269190D01*
X411145071Y-55345380D01*
X411183166Y-55497761D01*
X411183166Y-55612047D01*
X411145071Y-55764428D01*
X411106976Y-55840619D01*
X411030785Y-55916809D01*
X410916500Y-55954904D01*
X410726023Y-55954904D01*
X411868880Y-55421571D02*
X411868880Y-55954904D01*
X411678404Y-55116809D02*
X411487928Y-55688238D01*
X411983166Y-55688238D01*
X411183166Y-58418714D02*
X411145071Y-58456809D01*
X411030785Y-58494904D01*
X410954595Y-58494904D01*
X410840309Y-58456809D01*
X410764119Y-58380619D01*
X410726023Y-58304428D01*
X410687928Y-58152047D01*
X410687928Y-58037761D01*
X410726023Y-57885380D01*
X410764119Y-57809190D01*
X410840309Y-57733000D01*
X410954595Y-57694904D01*
X411030785Y-57694904D01*
X411145071Y-57733000D01*
X411183166Y-57771095D01*
X411868880Y-57694904D02*
X411716500Y-57694904D01*
X411640309Y-57733000D01*
X411602214Y-57771095D01*
X411526023Y-57885380D01*
X411487928Y-58037761D01*
X411487928Y-58342523D01*
X411526023Y-58418714D01*
X411564119Y-58456809D01*
X411640309Y-58494904D01*
X411792690Y-58494904D01*
X411868880Y-58456809D01*
X411906976Y-58418714D01*
X411945071Y-58342523D01*
X411945071Y-58152047D01*
X411906976Y-58075857D01*
X411868880Y-58037761D01*
X411792690Y-57999666D01*
X411640309Y-57999666D01*
X411564119Y-58037761D01*
X411526023Y-58075857D01*
X411487928Y-58152047D01*
X410726023Y-61034904D02*
X410726023Y-60234904D01*
X410916500Y-60234904D01*
X411030785Y-60273000D01*
X411106976Y-60349190D01*
X411145071Y-60425380D01*
X411183166Y-60577761D01*
X411183166Y-60692047D01*
X411145071Y-60844428D01*
X411106976Y-60920619D01*
X411030785Y-60996809D01*
X410916500Y-61034904D01*
X410726023Y-61034904D01*
X411449833Y-60234904D02*
X411983166Y-60234904D01*
X411640309Y-61034904D01*
X410764119Y-63155857D02*
X411030785Y-63155857D01*
X411145071Y-63574904D02*
X410764119Y-63574904D01*
X410764119Y-62774904D01*
X411145071Y-62774904D01*
X411830785Y-62774904D02*
X411678404Y-62774904D01*
X411602214Y-62813000D01*
X411564119Y-62851095D01*
X411487928Y-62965380D01*
X411449833Y-63117761D01*
X411449833Y-63422523D01*
X411487928Y-63498714D01*
X411526023Y-63536809D01*
X411602214Y-63574904D01*
X411754595Y-63574904D01*
X411830785Y-63536809D01*
X411868880Y-63498714D01*
X411906976Y-63422523D01*
X411906976Y-63232047D01*
X411868880Y-63155857D01*
X411830785Y-63117761D01*
X411754595Y-63079666D01*
X411602214Y-63079666D01*
X411526023Y-63117761D01*
X411487928Y-63155857D01*
X411449833Y-63232047D01*
X410992690Y-65695857D02*
X411106976Y-65733952D01*
X411145071Y-65772047D01*
X411183166Y-65848238D01*
X411183166Y-65962523D01*
X411145071Y-66038714D01*
X411106976Y-66076809D01*
X411030785Y-66114904D01*
X410726023Y-66114904D01*
X410726023Y-65314904D01*
X410992690Y-65314904D01*
X411068880Y-65353000D01*
X411106976Y-65391095D01*
X411145071Y-65467285D01*
X411145071Y-65543476D01*
X411106976Y-65619666D01*
X411068880Y-65657761D01*
X410992690Y-65695857D01*
X410726023Y-65695857D01*
X411868880Y-65581571D02*
X411868880Y-66114904D01*
X411678404Y-65276809D02*
X411487928Y-65848238D01*
X411983166Y-65848238D01*
X410212508Y-66787297D02*
X410259648Y-66881578D01*
X410259648Y-66928719D01*
X410236078Y-66999429D01*
X410165367Y-67070140D01*
X410094657Y-67093710D01*
X410047516Y-67093710D01*
X409976806Y-67070140D01*
X409788244Y-66881578D01*
X410283219Y-66386603D01*
X410448210Y-66551595D01*
X410471780Y-66622306D01*
X410471780Y-66669446D01*
X410448210Y-66740157D01*
X410401070Y-66787297D01*
X410330359Y-66810867D01*
X410283219Y-66810867D01*
X410212508Y-66787297D01*
X410047516Y-66622306D01*
X411013896Y-67117280D02*
X410778193Y-66881578D01*
X410518921Y-67093710D01*
X410566061Y-67093710D01*
X410636772Y-67117280D01*
X410754623Y-67235132D01*
X410778193Y-67305842D01*
X410778193Y-67352983D01*
X410754623Y-67423693D01*
X410636772Y-67541544D01*
X410566061Y-67565115D01*
X410518921Y-67565115D01*
X410448210Y-67541544D01*
X410330359Y-67423693D01*
X410306789Y-67352983D01*
X410306789Y-67305842D01*
X421914690Y-63155857D02*
X422028976Y-63193952D01*
X422067071Y-63232047D01*
X422105166Y-63308238D01*
X422105166Y-63422523D01*
X422067071Y-63498714D01*
X422028976Y-63536809D01*
X421952785Y-63574904D01*
X421648023Y-63574904D01*
X421648023Y-62774904D01*
X421914690Y-62774904D01*
X421990880Y-62813000D01*
X422028976Y-62851095D01*
X422067071Y-62927285D01*
X422067071Y-63003476D01*
X422028976Y-63079666D01*
X421990880Y-63117761D01*
X421914690Y-63155857D01*
X421648023Y-63155857D01*
X422371833Y-62774904D02*
X422867071Y-62774904D01*
X422600404Y-63079666D01*
X422714690Y-63079666D01*
X422790880Y-63117761D01*
X422828976Y-63155857D01*
X422867071Y-63232047D01*
X422867071Y-63422523D01*
X422828976Y-63498714D01*
X422790880Y-63536809D01*
X422714690Y-63574904D01*
X422486119Y-63574904D01*
X422409928Y-63536809D01*
X422371833Y-63498714D01*
X421914690Y-60615857D02*
X422028976Y-60653952D01*
X422067071Y-60692047D01*
X422105166Y-60768238D01*
X422105166Y-60882523D01*
X422067071Y-60958714D01*
X422028976Y-60996809D01*
X421952785Y-61034904D01*
X421648023Y-61034904D01*
X421648023Y-60234904D01*
X421914690Y-60234904D01*
X421990880Y-60273000D01*
X422028976Y-60311095D01*
X422067071Y-60387285D01*
X422067071Y-60463476D01*
X422028976Y-60539666D01*
X421990880Y-60577761D01*
X421914690Y-60615857D01*
X421648023Y-60615857D01*
X422867071Y-61034904D02*
X422409928Y-61034904D01*
X422638500Y-61034904D02*
X422638500Y-60234904D01*
X422562309Y-60349190D01*
X422486119Y-60425380D01*
X422409928Y-60463476D01*
X421971833Y-50455857D02*
X421705166Y-50455857D01*
X421705166Y-50874904D02*
X421705166Y-50074904D01*
X422086119Y-50074904D01*
X422733738Y-50341571D02*
X422733738Y-50874904D01*
X422543261Y-50036809D02*
X422352785Y-50608238D01*
X422848023Y-50608238D01*
X421171833Y-47534904D02*
X421438500Y-48334904D01*
X421705166Y-47534904D01*
X422428976Y-48258714D02*
X422390880Y-48296809D01*
X422276595Y-48334904D01*
X422200404Y-48334904D01*
X422086119Y-48296809D01*
X422009928Y-48220619D01*
X421971833Y-48144428D01*
X421933738Y-47992047D01*
X421933738Y-47877761D01*
X421971833Y-47725380D01*
X422009928Y-47649190D01*
X422086119Y-47573000D01*
X422200404Y-47534904D01*
X422276595Y-47534904D01*
X422390880Y-47573000D01*
X422428976Y-47611095D01*
X423228976Y-48258714D02*
X423190880Y-48296809D01*
X423076595Y-48334904D01*
X423000404Y-48334904D01*
X422886119Y-48296809D01*
X422809928Y-48220619D01*
X422771833Y-48144428D01*
X422733738Y-47992047D01*
X422733738Y-47877761D01*
X422771833Y-47725380D01*
X422809928Y-47649190D01*
X422886119Y-47573000D01*
X423000404Y-47534904D01*
X423076595Y-47534904D01*
X423190880Y-47573000D01*
X423228976Y-47611095D01*
X421977286Y-45726809D02*
X422091572Y-45764904D01*
X422282048Y-45764904D01*
X422358239Y-45726809D01*
X422396334Y-45688714D01*
X422434429Y-45612523D01*
X422434429Y-45536333D01*
X422396334Y-45460142D01*
X422358239Y-45422047D01*
X422282048Y-45383952D01*
X422129667Y-45345857D01*
X422053477Y-45307761D01*
X422015381Y-45269666D01*
X421977286Y-45193476D01*
X421977286Y-45117285D01*
X422015381Y-45041095D01*
X422053477Y-45003000D01*
X422129667Y-44964904D01*
X422320143Y-44964904D01*
X422434429Y-45003000D01*
X422663000Y-44964904D02*
X423120143Y-44964904D01*
X422891572Y-45764904D02*
X422891572Y-44964904D01*
X421628976Y-42493000D02*
X421552785Y-42454904D01*
X421438500Y-42454904D01*
X421324214Y-42493000D01*
X421248023Y-42569190D01*
X421209928Y-42645380D01*
X421171833Y-42797761D01*
X421171833Y-42912047D01*
X421209928Y-43064428D01*
X421248023Y-43140619D01*
X421324214Y-43216809D01*
X421438500Y-43254904D01*
X421514690Y-43254904D01*
X421628976Y-43216809D01*
X421667071Y-43178714D01*
X421667071Y-42912047D01*
X421514690Y-42912047D01*
X422009928Y-43254904D02*
X422009928Y-42454904D01*
X422467071Y-43254904D01*
X422467071Y-42454904D01*
X422848023Y-43254904D02*
X422848023Y-42454904D01*
X423038500Y-42454904D01*
X423152785Y-42493000D01*
X423228976Y-42569190D01*
X423267071Y-42645380D01*
X423305166Y-42797761D01*
X423305166Y-42912047D01*
X423267071Y-43064428D01*
X423228976Y-43140619D01*
X423152785Y-43216809D01*
X423038500Y-43254904D01*
X422848023Y-43254904D01*
X421914690Y-40295857D02*
X422028976Y-40333952D01*
X422067071Y-40372047D01*
X422105166Y-40448238D01*
X422105166Y-40562523D01*
X422067071Y-40638714D01*
X422028976Y-40676809D01*
X421952785Y-40714904D01*
X421648023Y-40714904D01*
X421648023Y-39914904D01*
X421914690Y-39914904D01*
X421990880Y-39953000D01*
X422028976Y-39991095D01*
X422067071Y-40067285D01*
X422067071Y-40143476D01*
X422028976Y-40219666D01*
X421990880Y-40257761D01*
X421914690Y-40295857D01*
X421648023Y-40295857D01*
X422600404Y-39914904D02*
X422676595Y-39914904D01*
X422752785Y-39953000D01*
X422790880Y-39991095D01*
X422828976Y-40067285D01*
X422867071Y-40219666D01*
X422867071Y-40410142D01*
X422828976Y-40562523D01*
X422790880Y-40638714D01*
X422752785Y-40676809D01*
X422676595Y-40714904D01*
X422600404Y-40714904D01*
X422524214Y-40676809D01*
X422486119Y-40638714D01*
X422448023Y-40562523D01*
X422409928Y-40410142D01*
X422409928Y-40219666D01*
X422448023Y-40067285D01*
X422486119Y-39991095D01*
X422524214Y-39953000D01*
X422600404Y-39914904D01*
X421971833Y-52995857D02*
X421705166Y-52995857D01*
X421705166Y-53414904D02*
X421705166Y-52614904D01*
X422086119Y-52614904D01*
X422771833Y-52614904D02*
X422390880Y-52614904D01*
X422352785Y-52995857D01*
X422390880Y-52957761D01*
X422467071Y-52919666D01*
X422657547Y-52919666D01*
X422733738Y-52957761D01*
X422771833Y-52995857D01*
X422809928Y-53072047D01*
X422809928Y-53262523D01*
X422771833Y-53338714D01*
X422733738Y-53376809D01*
X422657547Y-53414904D01*
X422467071Y-53414904D01*
X422390880Y-53376809D01*
X422352785Y-53338714D01*
X421971833Y-55535857D02*
X421705166Y-55535857D01*
X421705166Y-55954904D02*
X421705166Y-55154904D01*
X422086119Y-55154904D01*
X422733738Y-55154904D02*
X422581357Y-55154904D01*
X422505166Y-55193000D01*
X422467071Y-55231095D01*
X422390880Y-55345380D01*
X422352785Y-55497761D01*
X422352785Y-55802523D01*
X422390880Y-55878714D01*
X422428976Y-55916809D01*
X422505166Y-55954904D01*
X422657547Y-55954904D01*
X422733738Y-55916809D01*
X422771833Y-55878714D01*
X422809928Y-55802523D01*
X422809928Y-55612047D01*
X422771833Y-55535857D01*
X422733738Y-55497761D01*
X422657547Y-55459666D01*
X422505166Y-55459666D01*
X422428976Y-55497761D01*
X422390880Y-55535857D01*
X422352785Y-55612047D01*
X421971833Y-58075857D02*
X421705166Y-58075857D01*
X421705166Y-58494904D02*
X421705166Y-57694904D01*
X422086119Y-57694904D01*
X422314690Y-57694904D02*
X422848023Y-57694904D01*
X422505166Y-58494904D01*
X421914690Y-65695857D02*
X422028976Y-65733952D01*
X422067071Y-65772047D01*
X422105166Y-65848238D01*
X422105166Y-65962523D01*
X422067071Y-66038714D01*
X422028976Y-66076809D01*
X421952785Y-66114904D01*
X421648023Y-66114904D01*
X421648023Y-65314904D01*
X421914690Y-65314904D01*
X421990880Y-65353000D01*
X422028976Y-65391095D01*
X422067071Y-65467285D01*
X422067071Y-65543476D01*
X422028976Y-65619666D01*
X421990880Y-65657761D01*
X421914690Y-65695857D01*
X421648023Y-65695857D01*
X422409928Y-65391095D02*
X422448023Y-65353000D01*
X422524214Y-65314904D01*
X422714690Y-65314904D01*
X422790880Y-65353000D01*
X422828976Y-65391095D01*
X422867071Y-65467285D01*
X422867071Y-65543476D01*
X422828976Y-65657761D01*
X422371833Y-66114904D01*
X422867071Y-66114904D01*
M02*
