G04 #@! TF.GenerationSoftware,KiCad,Pcbnew,(5.1.9)-1*
G04 #@! TF.CreationDate,2021-02-18T22:07:16-08:00*
G04 #@! TF.ProjectId,kujira,6b756a69-7261-42e6-9b69-6361645f7063,rev?*
G04 #@! TF.SameCoordinates,Original*
G04 #@! TF.FileFunction,Copper,L1,Top*
G04 #@! TF.FilePolarity,Positive*
%FSLAX46Y46*%
G04 Gerber Fmt 4.6, Leading zero omitted, Abs format (unit mm)*
G04 Created by KiCad (PCBNEW (5.1.9)-1) date 2021-02-18 22:07:16*
%MOMM*%
%LPD*%
G01*
G04 APERTURE LIST*
G04 #@! TA.AperFunction,ComponentPad*
%ADD10O,1.500000X2.300000*%
G04 #@! TD*
G04 #@! TA.AperFunction,SMDPad,CuDef*
%ADD11R,1.700000X1.000000*%
G04 #@! TD*
G04 #@! TA.AperFunction,ComponentPad*
%ADD12C,1.752600*%
G04 #@! TD*
G04 #@! TA.AperFunction,ComponentPad*
%ADD13R,1.752600X1.752600*%
G04 #@! TD*
G04 #@! TA.AperFunction,ComponentPad*
%ADD14C,1.397000*%
G04 #@! TD*
G04 #@! TA.AperFunction,ViaPad*
%ADD15C,0.800000*%
G04 #@! TD*
G04 #@! TA.AperFunction,Conductor*
%ADD16C,0.381000*%
G04 #@! TD*
G04 #@! TA.AperFunction,Conductor*
%ADD17C,0.254000*%
G04 #@! TD*
G04 APERTURE END LIST*
D10*
X181102000Y-40430000D03*
X181102000Y-43430000D03*
X181102000Y-47430000D03*
X176802000Y-48930000D03*
X190173500Y-40303000D03*
X190173500Y-43303000D03*
X190173500Y-47303000D03*
X185873500Y-48803000D03*
D11*
X28255000Y-75062000D03*
X34555000Y-75062000D03*
X28255000Y-78862000D03*
X34555000Y-78862000D03*
X419594500Y-78862000D03*
X413294500Y-78862000D03*
X419594500Y-75062000D03*
X413294500Y-75062000D03*
D12*
X26325000Y-68293000D03*
X28865000Y-68293000D03*
X31405000Y-68293000D03*
X33945000Y-68293000D03*
X36485000Y-68293000D03*
X39025000Y-40353000D03*
X24013600Y-68293000D03*
X39025000Y-42893000D03*
X39025000Y-45433000D03*
X39025000Y-47973000D03*
X39025000Y-50513000D03*
X39025000Y-53053000D03*
X39025000Y-55593000D03*
X39025000Y-58133000D03*
X39025000Y-60673000D03*
X39025000Y-63213000D03*
X39025000Y-65753000D03*
X39025000Y-68293000D03*
X23785000Y-65753000D03*
X23785000Y-63213000D03*
X23785000Y-60673000D03*
X23785000Y-58133000D03*
X23785000Y-55593000D03*
X23785000Y-53053000D03*
X23785000Y-50513000D03*
X23785000Y-47973000D03*
X23785000Y-45433000D03*
X23785000Y-42893000D03*
D13*
X23785000Y-40353000D03*
D14*
X27559000Y-89916000D03*
X30099000Y-89916000D03*
X32639000Y-89916000D03*
X35179000Y-89916000D03*
X412634500Y-89916000D03*
X415174500Y-89916000D03*
X417714500Y-89916000D03*
X420254500Y-89916000D03*
D12*
X411697500Y-68293000D03*
X414237500Y-68293000D03*
X416777500Y-68293000D03*
X419317500Y-68293000D03*
X421857500Y-68293000D03*
X424397500Y-40353000D03*
X409386100Y-68293000D03*
X424397500Y-42893000D03*
X424397500Y-45433000D03*
X424397500Y-47973000D03*
X424397500Y-50513000D03*
X424397500Y-53053000D03*
X424397500Y-55593000D03*
X424397500Y-58133000D03*
X424397500Y-60673000D03*
X424397500Y-63213000D03*
X424397500Y-65753000D03*
X424397500Y-68293000D03*
X409157500Y-65753000D03*
X409157500Y-63213000D03*
X409157500Y-60673000D03*
X409157500Y-58133000D03*
X409157500Y-55593000D03*
X409157500Y-53053000D03*
X409157500Y-50513000D03*
X409157500Y-47973000D03*
X409157500Y-45433000D03*
X409157500Y-42893000D03*
D13*
X409157500Y-40353000D03*
D15*
X47342490Y-116586000D03*
X40894000Y-59182000D03*
X40894004Y-44196010D03*
X41148000Y-38115991D03*
X45215052Y-77597000D03*
X34544000Y-77216000D03*
X47498000Y-88900000D03*
X43815000Y-45212000D03*
X46212032Y-70739000D03*
X399732500Y-50800000D03*
X399986500Y-56388000D03*
X208216500Y-50673000D03*
X198818500Y-64770000D03*
X198818500Y-69850000D03*
X203517500Y-83693000D03*
X203517500Y-88900000D03*
X229679500Y-121158000D03*
X213515510Y-102235000D03*
X213571569Y-107547940D03*
X208343500Y-45720000D03*
X208470500Y-39497000D03*
X420624002Y-38862000D03*
X47244000Y-63119000D03*
X46228000Y-71755000D03*
X43942000Y-82042000D03*
X40640000Y-70485000D03*
X406517926Y-64824426D03*
X401291490Y-79771969D03*
X43561000Y-100711000D03*
X40640000Y-71501000D03*
X401961489Y-109230974D03*
X406971500Y-66929000D03*
X43179994Y-119888000D03*
X40640000Y-72644000D03*
X175641000Y-37846000D03*
X175810475Y-46820525D03*
X249815067Y-55556433D03*
X255206500Y-55626000D03*
X292036500Y-42037000D03*
X289623500Y-58038998D03*
X262826500Y-59944000D03*
X280352500Y-39154021D03*
X251396500Y-58166000D03*
X253682500Y-41783000D03*
X260921500Y-38862000D03*
X234759500Y-41529000D03*
X196659500Y-41402000D03*
X222948500Y-38890510D03*
X147701000Y-90995500D03*
X149479000Y-76200000D03*
X149592032Y-56882032D03*
X142113000Y-73406000D03*
X201231500Y-92710000D03*
X214947500Y-112903000D03*
X346900500Y-55880000D03*
X353123500Y-55880000D03*
X221805500Y-112522000D03*
X216344500Y-111887000D03*
X187261500Y-60706000D03*
X204025500Y-39144510D03*
X213550500Y-58166000D03*
X215455500Y-41910000D03*
X225234500Y-60325000D03*
X241871500Y-39154021D03*
X272796000Y-40640000D03*
X299212000Y-39116000D03*
X74676000Y-40259000D03*
X84963000Y-41783000D03*
X208432225Y-96167500D03*
X217868500Y-117729000D03*
X420497000Y-45847000D03*
X65659000Y-83820000D03*
X58547000Y-50419000D03*
X63246000Y-65151000D03*
X65659000Y-88392000D03*
X61087000Y-122301000D03*
X60833000Y-51435000D03*
X63274361Y-68903959D03*
X77470000Y-50800000D03*
X70485000Y-102870000D03*
X84709000Y-121793000D03*
X72276000Y-52095489D03*
X70485000Y-107276979D03*
X96647000Y-50800000D03*
X86995000Y-70104000D03*
X91948000Y-83439000D03*
X92075000Y-89154000D03*
X101473000Y-102616000D03*
X108585000Y-122047000D03*
X87122000Y-65151000D03*
X91059000Y-52422490D03*
X101473000Y-107657979D03*
X106172000Y-69596000D03*
X110871000Y-83185000D03*
X110998000Y-88519000D03*
X120523000Y-102616000D03*
X132461000Y-121920000D03*
X106045000Y-65024000D03*
X115697000Y-50453990D03*
X120396000Y-107784979D03*
X108013500Y-71408990D03*
X125222000Y-69342000D03*
X130048000Y-83947000D03*
X129921000Y-88773000D03*
X125222000Y-65278000D03*
X134747000Y-50291992D03*
X139446000Y-101219000D03*
X125095000Y-71374000D03*
X139446000Y-107784979D03*
X153797000Y-50482500D03*
X145923000Y-65151000D03*
X148774430Y-88830421D03*
X150495000Y-83947000D03*
X146177000Y-68199000D03*
X158496000Y-101600000D03*
X160528000Y-107568996D03*
X45396011Y-108458000D03*
X172847000Y-50800000D03*
X163322000Y-64389000D03*
X163322000Y-69850000D03*
X168275000Y-83820000D03*
X168021000Y-89281000D03*
X177673000Y-103378000D03*
X177546000Y-107823000D03*
X169418000Y-124587000D03*
X44704000Y-130429000D03*
X217868500Y-64643000D03*
X226123500Y-51054000D03*
X217741500Y-69596000D03*
X222567500Y-83693000D03*
X222567500Y-88773000D03*
X232092500Y-102997000D03*
X227647500Y-38100000D03*
X227647500Y-45974000D03*
X420543303Y-40130051D03*
X246443500Y-51054000D03*
X241617500Y-83058000D03*
X241617500Y-88900000D03*
X251142500Y-101854000D03*
X236791500Y-69342006D03*
X236918500Y-65024000D03*
X246443500Y-45974000D03*
X246443500Y-38325490D03*
X420497000Y-41402000D03*
X260667500Y-83693000D03*
X260667500Y-89154000D03*
X270192500Y-102870000D03*
X270192500Y-107950000D03*
X270192500Y-121285000D03*
X265468100Y-50469800D03*
X255714500Y-69342000D03*
X255841500Y-64770000D03*
X264604510Y-93091000D03*
X404558500Y-81026006D03*
X421259018Y-60452000D03*
X294449500Y-122047000D03*
X289242500Y-107823000D03*
X284543500Y-50292000D03*
X275018500Y-65151000D03*
X275018500Y-69596000D03*
X279844500Y-88646000D03*
X280098500Y-83820000D03*
X281432000Y-92011500D03*
X289242500Y-103378000D03*
X405574500Y-79883000D03*
X421258996Y-62992000D03*
X294068500Y-69723000D03*
X298767500Y-83566000D03*
X294068500Y-62230000D03*
X303466500Y-50800000D03*
X300916892Y-89144392D03*
X406273000Y-78930500D03*
X421259000Y-64770000D03*
X339661500Y-121412000D03*
X336994500Y-69723000D03*
X336994500Y-65024000D03*
X332168500Y-50199990D03*
X339661500Y-77724000D03*
X407733500Y-77470000D03*
X420624000Y-71501000D03*
X315658500Y-121920000D03*
X324929500Y-107569000D03*
X325183500Y-103124000D03*
X314134500Y-69596000D03*
X329882500Y-84201000D03*
X329501500Y-89281000D03*
X407006497Y-78232007D03*
X421258998Y-66421002D03*
X191452500Y-37719000D03*
X406971500Y-36410979D03*
X211778567Y-55365933D03*
X217614500Y-55753000D03*
X287629318Y-55969182D03*
X293560500Y-55880000D03*
X95885000Y-56134000D03*
X90424000Y-56007000D03*
X251904500Y-112903000D03*
X244919500Y-111760000D03*
X278828500Y-112649000D03*
X271716500Y-111760000D03*
X303593500Y-113284000D03*
X296227500Y-112014000D03*
X301434500Y-60452000D03*
X327596500Y-39100032D03*
X112649000Y-40259000D03*
X123063000Y-41529000D03*
X161290000Y-41783000D03*
X150749000Y-40259000D03*
X218122500Y-77216000D03*
X206057500Y-61087000D03*
X270700500Y-57912000D03*
X267906500Y-79121000D03*
X308800500Y-57658000D03*
X317944500Y-79657521D03*
X325183500Y-60833000D03*
X334962500Y-115189000D03*
X246570500Y-96139000D03*
X220027500Y-98933000D03*
X258635500Y-98806000D03*
X263461500Y-115189000D03*
X284600933Y-96208567D03*
X279717500Y-117094000D03*
X425548500Y-54356000D03*
X426083478Y-52705000D03*
X25668441Y-90663559D03*
X24638000Y-90678000D03*
X320611500Y-56007000D03*
X326453500Y-56007000D03*
X125476000Y-54356000D03*
X118491000Y-55753000D03*
X208724500Y-76171500D03*
X205676500Y-54610000D03*
X403415500Y-120650000D03*
X406971504Y-68326000D03*
X332549500Y-58039000D03*
X320412029Y-42192510D03*
X55880000Y-40259000D03*
X51816000Y-60325000D03*
X194373500Y-58039000D03*
X192087500Y-79375000D03*
X199199500Y-77216000D03*
X200215500Y-98679000D03*
X210883500Y-79756000D03*
X227266500Y-96012000D03*
X237045500Y-76835000D03*
X238950500Y-98298000D03*
X248729500Y-80010000D03*
X265711309Y-96138999D03*
X275272500Y-76835000D03*
X277177500Y-98806000D03*
X286829500Y-79756000D03*
X311086500Y-114300000D03*
X325056500Y-77244500D03*
X312991500Y-98044000D03*
X320484500Y-96294500D03*
X303593500Y-116713000D03*
X287083500Y-115443000D03*
X286194500Y-119431000D03*
X406844500Y-42926000D03*
X37084000Y-39243000D03*
X149352000Y-72263000D03*
X148669501Y-80946499D03*
X154590490Y-100171510D03*
X154305000Y-91532000D03*
X69797501Y-100001499D03*
X69723000Y-91059000D03*
X48641000Y-119380000D03*
X162284490Y-119221510D03*
X162306000Y-110236000D03*
X115824004Y-119126000D03*
X42418000Y-61849000D03*
X42037000Y-42672000D03*
X41684510Y-49149000D03*
X46228000Y-79375000D03*
X62357000Y-62230000D03*
X59182000Y-53339988D03*
X106426000Y-61849000D03*
X105918000Y-53340000D03*
X66854490Y-118438510D03*
X66802000Y-111633000D03*
X115062000Y-111633000D03*
X144272000Y-119253000D03*
X143764000Y-110963000D03*
X65532000Y-81026000D03*
X65452522Y-73025000D03*
X48133004Y-97536000D03*
X48533003Y-91420997D03*
X130079490Y-52990490D03*
X130048000Y-61214000D03*
X93726000Y-40386000D03*
X75438000Y-60071000D03*
X131826000Y-40259000D03*
X113665000Y-60579000D03*
X169890249Y-40478685D03*
X151765000Y-60579000D03*
X361124500Y-115316000D03*
X355790500Y-120523000D03*
X403542500Y-110490000D03*
X27305000Y-72644002D03*
X201358500Y-73533000D03*
X206946500Y-93980000D03*
X377126500Y-57121500D03*
X375983500Y-87884000D03*
X59309000Y-94107000D03*
X54102000Y-74168000D03*
X155448000Y-95123000D03*
X158278114Y-110568737D03*
X134966000Y-112811000D03*
X132807000Y-110652000D03*
X54229000Y-79248000D03*
X58928000Y-58166000D03*
X106553000Y-77089000D03*
X94488000Y-60833000D03*
X132588000Y-60833000D03*
X144653000Y-77216000D03*
X61214000Y-77089000D03*
X49276000Y-117729000D03*
X87503000Y-77216000D03*
X89789000Y-98679000D03*
X125476000Y-77117500D03*
X127889000Y-98551994D03*
X163576000Y-77089000D03*
X165862000Y-98615502D03*
X80137000Y-115062000D03*
X58674000Y-98679000D03*
X72009000Y-109728000D03*
X64498566Y-109299485D03*
X127762000Y-115316000D03*
X108839000Y-98806000D03*
X56515000Y-115316000D03*
X60325000Y-117475000D03*
X107696000Y-117221000D03*
X103999032Y-115075968D03*
X365188500Y-50165000D03*
X365823500Y-65024000D03*
X365188500Y-69250000D03*
X366204500Y-122301000D03*
X366204501Y-72389999D03*
X384238500Y-50546000D03*
X385000500Y-64897000D03*
X384492500Y-69123000D03*
X385000500Y-103124000D03*
X384873500Y-108077000D03*
X385254500Y-122301000D03*
X385000500Y-71628000D03*
X403542500Y-50165000D03*
X403387000Y-65024000D03*
X403542500Y-69469000D03*
X403450490Y-122047000D03*
X354012500Y-60198000D03*
X361505500Y-39116000D03*
X354012506Y-41275000D03*
X380055327Y-39084032D03*
X373062500Y-41783000D03*
X380366624Y-58409327D03*
X392112500Y-40132000D03*
X403796500Y-40005000D03*
X361124500Y-58039000D03*
X353631500Y-117094000D03*
X398970500Y-115189000D03*
X398843500Y-119507000D03*
X66040000Y-41656000D03*
X66445261Y-96139000D03*
X104140000Y-41783000D03*
X101854000Y-58039000D03*
X142240000Y-41783000D03*
X139954000Y-58166000D03*
X82612782Y-58103218D03*
X79248000Y-79375000D03*
X120650000Y-58194500D03*
X118364000Y-79248000D03*
X158750000Y-58194500D03*
X156337000Y-79502000D03*
X99187000Y-79756000D03*
X116078000Y-96266000D03*
X137715692Y-79284986D03*
X154048795Y-96274322D03*
X97027282Y-96167500D03*
X96520000Y-117728996D03*
X134747000Y-96393000D03*
X138557000Y-99314000D03*
X172986532Y-96167500D03*
X154051000Y-117094000D03*
X245706900Y-62001400D03*
X256222500Y-77089000D03*
X282384500Y-60706000D03*
X294195500Y-77088999D03*
X392112500Y-60706000D03*
X399351500Y-39081010D03*
X380301500Y-95885000D03*
X374840500Y-61976000D03*
X399224500Y-58166000D03*
X391985500Y-117729000D03*
X380174500Y-115189000D03*
X374840500Y-100330000D03*
X327774468Y-113995032D03*
X319722500Y-111633000D03*
X388556500Y-104394002D03*
X393128500Y-89535000D03*
X355409500Y-113030000D03*
X344106500Y-111633000D03*
X378142500Y-112522000D03*
X367220500Y-111760000D03*
X388175500Y-73660000D03*
X394017500Y-105537000D03*
X232473500Y-58194500D03*
X229933500Y-79375000D03*
X62611000Y-56007000D03*
X57023000Y-56007000D03*
X95123000Y-113157000D03*
X94107000Y-110871000D03*
X49403000Y-73406000D03*
X49530000Y-55245000D03*
X67437000Y-90170000D03*
X68326000Y-114300000D03*
X405942029Y-44971471D03*
X405955500Y-58420000D03*
X401256500Y-106630823D03*
X401383494Y-114173000D03*
X401291490Y-92202000D03*
X400773979Y-76682521D03*
X416623500Y-78867000D03*
X256476500Y-53340000D03*
X404939500Y-50673000D03*
X404939494Y-45847000D03*
X404177500Y-60706000D03*
X402653500Y-119761000D03*
X230568500Y-111633000D03*
X230695500Y-118618000D03*
X383857500Y-118110000D03*
X383603500Y-110617000D03*
X365315500Y-109855000D03*
X365061500Y-119507000D03*
X338645500Y-108712000D03*
X338391500Y-118364000D03*
X315150500Y-110109000D03*
X291401500Y-119761000D03*
X267398508Y-118872000D03*
X214439500Y-100076000D03*
X214185500Y-91440000D03*
X222440500Y-80899000D03*
X220027500Y-73660000D03*
X384273500Y-61087000D03*
X383857500Y-52959000D03*
X340423500Y-61976000D03*
X340423497Y-53340003D03*
X295211500Y-60833000D03*
X295211500Y-52959000D03*
X256349500Y-61341000D03*
X218757500Y-60960000D03*
X217942500Y-54282000D03*
X314896500Y-118872000D03*
X291655500Y-110362996D03*
X267398500Y-109855000D03*
X400592990Y-86487000D03*
X400621500Y-95250000D03*
X400882815Y-72482010D03*
X400592990Y-110490000D03*
X399983469Y-78613000D03*
D16*
X40894000Y-44196014D02*
X40894004Y-44196010D01*
X40894000Y-59182000D02*
X40894000Y-44196014D01*
X28255000Y-75062000D02*
X34555000Y-75062000D01*
X40894004Y-38369987D02*
X41148000Y-38115991D01*
X40894004Y-44196010D02*
X40894004Y-38369987D01*
X44834052Y-69490181D02*
X44834052Y-73537909D01*
X40894000Y-59182000D02*
X40894000Y-65550129D01*
X40894000Y-65550129D02*
X44834052Y-69490181D01*
X44834052Y-73537909D02*
X45215052Y-73918909D01*
X45215052Y-73918909D02*
X45215052Y-77597000D01*
X34555000Y-77205000D02*
X34544000Y-77216000D01*
X34555000Y-75062000D02*
X34555000Y-77205000D01*
X47498000Y-81915000D02*
X47498000Y-88900000D01*
X47342490Y-116586000D02*
X47342490Y-89055510D01*
X47342490Y-89055510D02*
X47498000Y-88900000D01*
X45215052Y-79632052D02*
X47498000Y-81915000D01*
X45215052Y-77597000D02*
X45215052Y-79632052D01*
D17*
X43815000Y-45212000D02*
X46212032Y-47609032D01*
X46212032Y-47609032D02*
X46212032Y-70739000D01*
X399732500Y-56134000D02*
X399986500Y-56388000D01*
X399732500Y-50800000D02*
X399732500Y-56134000D01*
X198818500Y-60071000D02*
X198818500Y-64770000D01*
X208216500Y-50673000D02*
X198818500Y-60071000D01*
X203517500Y-78359000D02*
X203517500Y-83693000D01*
X201104500Y-75946000D02*
X203517500Y-78359000D01*
X199326500Y-75946000D02*
X201104500Y-75946000D01*
X198818500Y-75438000D02*
X199326500Y-75946000D01*
X198818500Y-69850000D02*
X198818500Y-75438000D01*
X229679500Y-121158000D02*
X229679500Y-113665000D01*
X229679500Y-113665000D02*
X225996500Y-109982000D01*
X225996500Y-109982000D02*
X216005629Y-109982000D01*
X216005629Y-109982000D02*
X213571569Y-107547940D01*
X213515510Y-99914010D02*
X213515510Y-102235000D01*
X208851500Y-95250000D02*
X213515510Y-99914010D01*
X206946500Y-95250000D02*
X208851500Y-95250000D01*
X203517500Y-91821000D02*
X206946500Y-95250000D01*
X203517500Y-88900000D02*
X203517500Y-91821000D01*
X208343500Y-45720000D02*
X208343500Y-39624000D01*
X208343500Y-39624000D02*
X208470500Y-39497000D01*
X422132021Y-40370019D02*
X420624002Y-38862000D01*
X422132021Y-48247521D02*
X422132021Y-40370019D01*
X424397500Y-50513000D02*
X422132021Y-48247521D01*
X47244000Y-63119000D02*
X46990000Y-63373000D01*
X46990000Y-70993000D02*
X46228000Y-71755000D01*
X46990000Y-63373000D02*
X46990000Y-70993000D01*
X42799000Y-72078315D02*
X41205685Y-70485000D01*
X41205685Y-70485000D02*
X40640000Y-70485000D01*
X43326020Y-72605335D02*
X41205685Y-70485000D01*
X43580020Y-81680020D02*
X43580020Y-74299884D01*
X43942000Y-82042000D02*
X43580020Y-81680020D01*
X43580020Y-74299884D02*
X43326022Y-74045886D01*
X43326022Y-74045886D02*
X43326020Y-72605335D01*
X405701500Y-73864524D02*
X401291490Y-78274534D01*
X406517926Y-64824426D02*
X405701500Y-65640852D01*
X405701500Y-65640852D02*
X405701500Y-73864524D01*
X401291490Y-78274534D02*
X401291490Y-79771969D01*
X42872011Y-73098011D02*
X41275000Y-71501000D01*
X42872011Y-74233943D02*
X42872011Y-73098011D01*
X43126010Y-74487942D02*
X42872011Y-74233943D01*
X41275000Y-71501000D02*
X40640000Y-71501000D01*
X43126011Y-100276011D02*
X43126010Y-74487942D01*
X43561000Y-100711000D02*
X43126011Y-100276011D01*
X406244495Y-67656005D02*
X406971500Y-66929000D01*
X406244495Y-73963597D02*
X406244495Y-67656005D01*
X402018500Y-78189592D02*
X406244495Y-73963597D01*
X402018500Y-109173963D02*
X402018500Y-78189592D01*
X401961489Y-109230974D02*
X402018500Y-109173963D01*
X42672000Y-119380006D02*
X42672000Y-74676000D01*
X43179994Y-119888000D02*
X42672000Y-119380006D01*
X42672000Y-74676000D02*
X40640000Y-72644000D01*
X175641000Y-46651050D02*
X175810475Y-46820525D01*
X175641000Y-37846000D02*
X175641000Y-46651050D01*
X255136933Y-55556433D02*
X255206500Y-55626000D01*
X249815067Y-55556433D02*
X255136933Y-55556433D01*
X288948812Y-58038998D02*
X289623500Y-58038998D01*
X288916804Y-58006990D02*
X288948812Y-58038998D01*
X288638991Y-58006990D02*
X288916804Y-58006990D01*
X286829500Y-56197499D02*
X288638991Y-58006990D01*
X286829500Y-47244000D02*
X286829500Y-56197499D01*
X292036500Y-42037000D02*
X286829500Y-47244000D01*
X280314479Y-39116000D02*
X280352500Y-39154021D01*
X279391804Y-39083990D02*
X279423814Y-39116000D01*
X275471196Y-39083990D02*
X279391804Y-39083990D01*
X271042749Y-51727751D02*
X271042749Y-43512437D01*
X279423814Y-39116000D02*
X280314479Y-39116000D01*
X271042749Y-43512437D02*
X275471196Y-39083990D01*
X262826500Y-59944000D02*
X271042749Y-51727751D01*
X248221500Y-47244000D02*
X253682500Y-41783000D01*
X248221500Y-54991000D02*
X248221500Y-47244000D01*
X251396500Y-58166000D02*
X248221500Y-54991000D01*
X238690011Y-37598489D02*
X234759500Y-41529000D01*
X260921500Y-38862000D02*
X259657989Y-37598489D01*
X259657989Y-37598489D02*
X238690011Y-37598489D01*
X196659500Y-41402000D02*
X199707500Y-38354000D01*
X199707500Y-38354000D02*
X222411990Y-38354000D01*
X222411990Y-38354000D02*
X222948500Y-38890510D01*
X149479000Y-83233462D02*
X149479000Y-76200000D01*
X147701000Y-85011462D02*
X149479000Y-83233462D01*
X147701000Y-90995500D02*
X147701000Y-85011462D01*
X143528999Y-62945065D02*
X143528999Y-71990001D01*
X149592032Y-56882032D02*
X143528999Y-62945065D01*
X143528999Y-71990001D02*
X142113000Y-73406000D01*
X202882500Y-103181685D02*
X212603815Y-112903000D01*
X212603815Y-112903000D02*
X214947500Y-112903000D01*
X202882500Y-94361000D02*
X202882500Y-103181685D01*
X201231500Y-92710000D02*
X202882500Y-94361000D01*
X346900500Y-55880000D02*
X353123500Y-55880000D01*
X216979500Y-112522000D02*
X216344500Y-111887000D01*
X221805500Y-112522000D02*
X216979500Y-112522000D01*
X204025500Y-42124314D02*
X204025500Y-39144510D01*
X202806815Y-43342999D02*
X204025500Y-42124314D01*
X199798501Y-43342999D02*
X202806815Y-43342999D01*
X187261500Y-60706000D02*
X187261500Y-60452000D01*
X197396751Y-46332961D02*
X197396751Y-45744749D01*
X192514510Y-51215202D02*
X197396751Y-46332961D01*
X197396751Y-45744749D02*
X199798501Y-43342999D01*
X192514510Y-55198990D02*
X192514510Y-51215202D01*
X187261500Y-60452000D02*
X192514510Y-55198990D01*
X210502500Y-46863000D02*
X215455500Y-41910000D01*
X210502500Y-55118000D02*
X210502500Y-46863000D01*
X213550500Y-58166000D02*
X210502500Y-55118000D01*
X235496751Y-45138249D02*
X237676990Y-42958010D01*
X225234500Y-60325000D02*
X225234500Y-59621288D01*
X237676990Y-42958010D02*
X241164804Y-42958010D01*
X225234500Y-59621288D02*
X235496751Y-49359037D01*
X241164804Y-42958010D02*
X241871500Y-42251314D01*
X235496751Y-49359037D02*
X235496751Y-45138249D01*
X241871500Y-42251314D02*
X241871500Y-39154021D01*
X272796000Y-40640000D02*
X275008980Y-38427020D01*
X298523020Y-38427020D02*
X299212000Y-39116000D01*
X275008980Y-38427020D02*
X298523020Y-38427020D01*
X83439000Y-40259000D02*
X84963000Y-41783000D01*
X74676000Y-40259000D02*
X83439000Y-40259000D01*
X208432225Y-96167500D02*
X212788500Y-100523775D01*
X212788500Y-100523775D02*
X212788500Y-109541038D01*
X212788500Y-109541038D02*
X217868500Y-114621038D01*
X217868500Y-114621038D02*
X217868500Y-117729000D01*
X28255000Y-78862000D02*
X34555000Y-78862000D01*
X35941000Y-77476000D02*
X34555000Y-78862000D01*
X35148301Y-50509699D02*
X35148301Y-73375301D01*
X37084000Y-48574000D02*
X35148301Y-50509699D01*
X37084000Y-47244000D02*
X37084000Y-48574000D01*
X35941000Y-74168000D02*
X35941000Y-77476000D01*
X38895000Y-45433000D02*
X37084000Y-47244000D01*
X35148301Y-73375301D02*
X35941000Y-74168000D01*
X39025000Y-45433000D02*
X38895000Y-45433000D01*
X419594500Y-75062000D02*
X413294500Y-75062000D01*
X423060801Y-55522801D02*
X420497000Y-52959000D01*
X420497000Y-52959000D02*
X420497000Y-45847000D01*
X423060801Y-71595699D02*
X423060801Y-55522801D01*
X419594500Y-75062000D02*
X423060801Y-71595699D01*
X65324249Y-118063751D02*
X61087000Y-122301000D01*
X65324249Y-104533039D02*
X65324249Y-118063751D01*
X65718251Y-104139037D02*
X65324249Y-104533039D01*
X65718251Y-88451251D02*
X65718251Y-104139037D01*
X65659000Y-88392000D02*
X65718251Y-88451251D01*
X59817000Y-50419000D02*
X60833000Y-51435000D01*
X58547000Y-50419000D02*
X59817000Y-50419000D01*
X61183871Y-51435000D02*
X60833000Y-51435000D01*
X64271511Y-54522640D02*
X61183871Y-51435000D01*
X63246000Y-65151000D02*
X64271511Y-64125489D01*
X64271511Y-64125489D02*
X64271511Y-54522640D01*
X63274361Y-81435361D02*
X63274361Y-68903959D01*
X65659000Y-83820000D02*
X63274361Y-81435361D01*
X70485000Y-102870000D02*
X72424999Y-100930001D01*
X72424999Y-100930001D02*
X72424999Y-55845001D01*
X72377511Y-52197000D02*
X72276000Y-52095489D01*
X76073000Y-52197000D02*
X72377511Y-52197000D01*
X72424999Y-55845001D02*
X76073000Y-52197000D01*
X76073000Y-52197000D02*
X77470000Y-50800000D01*
X84709000Y-116078000D02*
X75907979Y-107276979D01*
X75907979Y-107276979D02*
X70485000Y-107276979D01*
X84709000Y-121793000D02*
X84709000Y-116078000D01*
X92075000Y-89154000D02*
X96393000Y-93472000D01*
X96393000Y-93472000D02*
X98806000Y-93472000D01*
X101473000Y-96139000D02*
X101473000Y-102616000D01*
X98806000Y-93472000D02*
X101473000Y-96139000D01*
X89823999Y-73945461D02*
X91948000Y-76069462D01*
X89823999Y-72932999D02*
X89823999Y-73945461D01*
X91948000Y-76069462D02*
X91948000Y-83439000D01*
X86995000Y-70104000D02*
X88392000Y-71501000D01*
X88392000Y-71501000D02*
X89823999Y-72932999D01*
X87122000Y-56359490D02*
X91059000Y-52422490D01*
X87122000Y-65151000D02*
X87122000Y-56359490D01*
X95024510Y-52422490D02*
X91059000Y-52422490D01*
X96647000Y-50800000D02*
X95024510Y-52422490D01*
X108585000Y-122047000D02*
X108585000Y-114769979D01*
X108585000Y-114769979D02*
X101473000Y-107657979D01*
X110998000Y-88519000D02*
X113665000Y-91186000D01*
X113665000Y-91186000D02*
X119380000Y-91186000D01*
X120523000Y-92329000D02*
X120523000Y-102616000D01*
X119380000Y-91186000D02*
X120523000Y-92329000D01*
X132461000Y-121920000D02*
X132461000Y-113919000D01*
X132461000Y-113919000D02*
X126326979Y-107784979D01*
X126326979Y-107784979D02*
X120396000Y-107784979D01*
X108204000Y-57946990D02*
X115697000Y-50453990D01*
X108204000Y-62865000D02*
X108204000Y-57946990D01*
X106045000Y-65024000D02*
X108204000Y-62865000D01*
X106172000Y-69596000D02*
X107984990Y-71408990D01*
X110871000Y-83185000D02*
X108013500Y-80327500D01*
X107984990Y-71408990D02*
X108013500Y-71408990D01*
X108013500Y-80327500D02*
X108013500Y-71408990D01*
X129540000Y-83439000D02*
X130048000Y-83947000D01*
X129540000Y-73660000D02*
X129540000Y-83439000D01*
X125222000Y-69342000D02*
X129540000Y-73660000D01*
X129921000Y-88773000D02*
X130944068Y-88773000D01*
X139446000Y-97274932D02*
X139446000Y-101219000D01*
X133353534Y-91182466D02*
X139446000Y-97274932D01*
X130944068Y-88773000D02*
X133353534Y-91182466D01*
X125222000Y-69342000D02*
X125222000Y-71247000D01*
X125222000Y-71247000D02*
X125095000Y-71374000D01*
X131445008Y-50291992D02*
X134747000Y-50291992D01*
X126047500Y-55689500D02*
X131445008Y-50291992D01*
X126047500Y-64452500D02*
X126047500Y-55689500D01*
X125222000Y-65278000D02*
X126047500Y-64452500D01*
X150558500Y-60515500D02*
X145923000Y-65151000D01*
X153797000Y-50482500D02*
X150558500Y-53721000D01*
X150558500Y-53721000D02*
X150558500Y-60515500D01*
X152968957Y-88830421D02*
X158496000Y-94357464D01*
X158496000Y-94357464D02*
X158496000Y-101600000D01*
X148774430Y-88830421D02*
X152968957Y-88830421D01*
X150495000Y-83947000D02*
X150495000Y-71824315D01*
X150495000Y-71824315D02*
X149155685Y-70485000D01*
X149155685Y-70485000D02*
X148209000Y-70485000D01*
X148209000Y-70231000D02*
X148209000Y-70485000D01*
X146177000Y-68199000D02*
X148209000Y-70231000D01*
X158496000Y-101600000D02*
X160528000Y-103632000D01*
X160528000Y-103632000D02*
X160528000Y-107568996D01*
X45396011Y-81777979D02*
X45396011Y-108458000D01*
X44488042Y-80870010D02*
X45396011Y-81777979D01*
X44488042Y-73923770D02*
X44488042Y-80870010D01*
X44234042Y-73669770D02*
X44488042Y-73923770D01*
X44234042Y-69622042D02*
X44234042Y-73669770D01*
X40228301Y-65616301D02*
X44234042Y-69622042D01*
X40228301Y-65175415D02*
X40228301Y-65616301D01*
X39025000Y-63972114D02*
X40228301Y-65175415D01*
X39025000Y-63213000D02*
X39025000Y-63972114D01*
X163322000Y-56134000D02*
X163322000Y-64389000D01*
X165481000Y-53975000D02*
X163322000Y-56134000D01*
X169672000Y-53975000D02*
X165481000Y-53975000D01*
X172847000Y-50800000D02*
X169672000Y-53975000D01*
X168275000Y-78867000D02*
X168275000Y-83820000D01*
X163322000Y-73914000D02*
X168275000Y-78867000D01*
X163322000Y-69850000D02*
X163322000Y-73914000D01*
X177546000Y-107823000D02*
X177546000Y-118491000D01*
X171450000Y-124587000D02*
X169418000Y-124587000D01*
X177546000Y-118491000D02*
X171450000Y-124587000D01*
X177419000Y-95123000D02*
X177673000Y-95377000D01*
X177673000Y-95377000D02*
X177673000Y-103378000D01*
X171577000Y-95123000D02*
X177419000Y-95123000D01*
X168021000Y-91567000D02*
X171577000Y-95123000D01*
X168021000Y-89281000D02*
X168021000Y-91567000D01*
X44669002Y-130394002D02*
X44704000Y-130429000D01*
X43780031Y-70508031D02*
X43780031Y-73857827D01*
X39025000Y-65753000D02*
X43780031Y-70508031D01*
X43780031Y-73857827D02*
X44034031Y-74111827D01*
X44034031Y-81058067D02*
X44669002Y-81693038D01*
X44669002Y-81693038D02*
X44669002Y-130394002D01*
X44034031Y-74111827D02*
X44034031Y-81058067D01*
X222567500Y-88773000D02*
X227139500Y-93345000D01*
X227139500Y-93345000D02*
X229806500Y-93345000D01*
X229806500Y-93345000D02*
X232092500Y-95631000D01*
X232092500Y-95631000D02*
X232092500Y-102997000D01*
X223964500Y-82296000D02*
X222567500Y-83693000D01*
X223964500Y-75819000D02*
X223964500Y-82296000D01*
X217741500Y-69596000D02*
X223964500Y-75819000D01*
X222634536Y-51054000D02*
X226123500Y-51054000D01*
X220789500Y-52899036D02*
X222634536Y-51054000D01*
X220789500Y-61722000D02*
X220789500Y-52899036D01*
X217868500Y-64643000D02*
X220789500Y-61722000D01*
X227647500Y-38100000D02*
X227647500Y-45974000D01*
X424397500Y-53053000D02*
X421678011Y-50333511D01*
X421678011Y-41264759D02*
X420543303Y-40130051D01*
X421678011Y-50333511D02*
X421678011Y-41264759D01*
X241617500Y-88900000D02*
X246570500Y-93853000D01*
X246570500Y-93853000D02*
X249110500Y-93853000D01*
X251142500Y-95885000D02*
X251142500Y-101854000D01*
X249110500Y-93853000D02*
X251142500Y-95885000D01*
X241617500Y-83058000D02*
X241617500Y-74168006D01*
X241617500Y-74168006D02*
X236791500Y-69342006D01*
X246443500Y-51054000D02*
X246443500Y-55499000D01*
X246443500Y-55499000D02*
X236918500Y-65024000D01*
X246443500Y-45974000D02*
X246443500Y-38325490D01*
X421224001Y-42129001D02*
X420497000Y-41402000D01*
X424397500Y-55593000D02*
X421224001Y-52419501D01*
X421224001Y-52419501D02*
X421224001Y-42129001D01*
X270192500Y-107950000D02*
X270192500Y-121285000D01*
X260667500Y-83693000D02*
X260667500Y-74295000D01*
X260667500Y-74295000D02*
X255714500Y-69342000D01*
X265468100Y-50469800D02*
X265468100Y-55143400D01*
X265468100Y-55143400D02*
X255841500Y-64770000D01*
X260667500Y-89154000D02*
X264604500Y-93091000D01*
X264604500Y-93091000D02*
X264604510Y-93091000D01*
X270192500Y-102870000D02*
X270192500Y-98678990D01*
X270192500Y-98678990D02*
X264604510Y-93091000D01*
X404558500Y-81026006D02*
X404558500Y-77642832D01*
X413034199Y-67715415D02*
X420297614Y-60452000D01*
X404558500Y-77642832D02*
X413034199Y-69167133D01*
X420297614Y-60452000D02*
X421259018Y-60452000D01*
X413034199Y-69167133D02*
X413034199Y-67715415D01*
X284543500Y-50292000D02*
X284543500Y-55626000D01*
X284543500Y-55626000D02*
X275018500Y-65151000D01*
X279844500Y-90424000D02*
X279844500Y-88646000D01*
X280098500Y-74676000D02*
X280098500Y-83820000D01*
X275018500Y-69596000D02*
X280098500Y-74676000D01*
X291401500Y-107823000D02*
X289242500Y-107823000D01*
X293306500Y-109728000D02*
X291401500Y-107823000D01*
X293306500Y-120904000D02*
X293306500Y-109728000D01*
X294449500Y-122047000D02*
X293306500Y-120904000D01*
X281432000Y-92011500D02*
X279844500Y-90424000D01*
X289242500Y-99822000D02*
X289242500Y-103378000D01*
X281432000Y-92011500D02*
X289242500Y-99822000D01*
X415574199Y-68737187D02*
X415574199Y-67660801D01*
X415574199Y-67660801D02*
X420243000Y-62992000D01*
X405574500Y-79883000D02*
X405174501Y-79483001D01*
X405174501Y-79483001D02*
X405174501Y-77668899D01*
X405174501Y-77668899D02*
X413347099Y-69496301D01*
X413347099Y-69496301D02*
X414815085Y-69496301D01*
X414815085Y-69496301D02*
X415574199Y-68737187D01*
X420243000Y-62992000D02*
X421258996Y-62992000D01*
X294068500Y-69723000D02*
X294068500Y-72517000D01*
X298767500Y-77216000D02*
X298767500Y-83566000D01*
X294068500Y-72517000D02*
X298767500Y-77216000D01*
X294068500Y-62230000D02*
X295211500Y-62230000D01*
X295211500Y-62230000D02*
X303466500Y-53975000D01*
X303466500Y-53975000D02*
X303466500Y-50800000D01*
X300916892Y-85715392D02*
X300916892Y-89144392D01*
X298767500Y-83566000D02*
X300916892Y-85715392D01*
X414739934Y-72170998D02*
X418114199Y-68796733D01*
X418114199Y-68796733D02*
X418114199Y-67349116D01*
X420693315Y-64770000D02*
X421259000Y-64770000D01*
X406273000Y-77212468D02*
X411314470Y-72170998D01*
X418114199Y-67349116D02*
X420693315Y-64770000D01*
X406273000Y-78930500D02*
X406273000Y-77212468D01*
X411314470Y-72170998D02*
X414739934Y-72170998D01*
X339661500Y-72390000D02*
X336994500Y-69723000D01*
X336994500Y-65024000D02*
X336994500Y-57441684D01*
X336994500Y-57441684D02*
X332168500Y-52615684D01*
X332168500Y-52615684D02*
X332168500Y-50199990D01*
X339661500Y-77724000D02*
X339661500Y-72390000D01*
X339661500Y-121412000D02*
X339661500Y-77724000D01*
X407733500Y-77470000D02*
X411924500Y-73279000D01*
X411924500Y-73279000D02*
X418846000Y-73279000D01*
X418846000Y-73279000D02*
X420624000Y-71501000D01*
X329882500Y-80994538D02*
X329882500Y-84201000D01*
X318483962Y-69596000D02*
X329882500Y-80994538D01*
X314134500Y-69596000D02*
X318483962Y-69596000D01*
X315658500Y-121920000D02*
X315658500Y-112014000D01*
X322135500Y-110363000D02*
X324929500Y-107569000D01*
X315658500Y-112014000D02*
X317309500Y-110363000D01*
X317309500Y-110363000D02*
X322135500Y-110363000D01*
X325183500Y-103124000D02*
X325183500Y-93599000D01*
X325183500Y-93599000D02*
X329501500Y-89281000D01*
X407006497Y-78232007D02*
X407006497Y-77121039D01*
X407006497Y-77121039D02*
X411356536Y-72771000D01*
X411356536Y-72771000D02*
X416620386Y-72771000D01*
X416620386Y-72771000D02*
X420605001Y-68786385D01*
X420605001Y-68786385D02*
X420605001Y-67074999D01*
X420605001Y-67074999D02*
X421258998Y-66421002D01*
X191452500Y-38284685D02*
X191452500Y-37719000D01*
X191452500Y-45875000D02*
X191452500Y-38284685D01*
X190173500Y-47154000D02*
X191452500Y-45875000D01*
X409157500Y-42893000D02*
X406971500Y-40707000D01*
X406971500Y-40707000D02*
X406971500Y-36410979D01*
X217227433Y-55365933D02*
X217614500Y-55753000D01*
X211778567Y-55365933D02*
X217227433Y-55365933D01*
X293471318Y-55969182D02*
X293560500Y-55880000D01*
X287629318Y-55969182D02*
X293471318Y-55969182D01*
X90551000Y-56134000D02*
X90424000Y-56007000D01*
X95885000Y-56134000D02*
X90551000Y-56134000D01*
X250761500Y-111760000D02*
X244919500Y-111760000D01*
X251904500Y-112903000D02*
X250761500Y-111760000D01*
X272605500Y-112649000D02*
X271716500Y-111760000D01*
X278828500Y-112649000D02*
X272605500Y-112649000D01*
X297497500Y-113284000D02*
X296227500Y-112014000D01*
X303593500Y-113284000D02*
X297497500Y-113284000D01*
X327196501Y-38700033D02*
X327596500Y-39100032D01*
X319630467Y-38700033D02*
X327196501Y-38700033D01*
X301434500Y-56896000D02*
X319630467Y-38700033D01*
X301434500Y-60452000D02*
X301434500Y-56896000D01*
X123063000Y-41402000D02*
X123063000Y-41529000D01*
X121920000Y-40259000D02*
X123063000Y-41402000D01*
X112649000Y-40259000D02*
X121920000Y-40259000D01*
X161290000Y-41529000D02*
X161290000Y-41783000D01*
X160020000Y-40259000D02*
X161290000Y-41529000D01*
X150749000Y-40259000D02*
X160020000Y-40259000D01*
X206921751Y-61951251D02*
X206057500Y-61087000D01*
X206921751Y-65382961D02*
X206921751Y-61951251D01*
X218122500Y-76583710D02*
X206921751Y-65382961D01*
X218122500Y-77216000D02*
X218122500Y-76583710D01*
X267906500Y-68256212D02*
X267906500Y-79121000D01*
X270700500Y-65462212D02*
X267906500Y-68256212D01*
X270700500Y-57912000D02*
X270700500Y-65462212D01*
X312483500Y-74196521D02*
X317944500Y-79657521D01*
X312483500Y-61341000D02*
X312483500Y-74196521D01*
X308800500Y-57658000D02*
X312483500Y-61341000D01*
X332139901Y-112366401D02*
X334962500Y-115189000D01*
X325420249Y-68973039D02*
X325420249Y-70726961D01*
X332139901Y-77446613D02*
X332139901Y-112366401D01*
X325420249Y-70726961D02*
X332139901Y-77446613D01*
X325984251Y-68409037D02*
X325420249Y-68973039D01*
X325984251Y-61633751D02*
X325984251Y-68409037D01*
X325183500Y-60833000D02*
X325984251Y-61633751D01*
X221678500Y-104394000D02*
X221678500Y-100584000D01*
X221678500Y-100584000D02*
X220027500Y-98933000D01*
X228028500Y-110744000D02*
X221678500Y-104394000D01*
X242887500Y-110744000D02*
X228028500Y-110744000D01*
X245046500Y-108585000D02*
X242887500Y-110744000D01*
X245046500Y-105531788D02*
X245046500Y-108585000D01*
X246570500Y-104007788D02*
X245046500Y-105531788D01*
X246570500Y-96139000D02*
X246570500Y-104007788D01*
X263461500Y-106737212D02*
X263461500Y-115189000D01*
X260735249Y-104010961D02*
X263461500Y-106737212D01*
X260735249Y-100905749D02*
X260735249Y-104010961D01*
X258635500Y-98806000D02*
X260735249Y-100905749D01*
X281449251Y-115362249D02*
X279717500Y-117094000D01*
X281449251Y-107073039D02*
X281449251Y-115362249D01*
X284600933Y-103921357D02*
X281449251Y-107073039D01*
X284600933Y-96208567D02*
X284600933Y-103921357D01*
X419798500Y-87832000D02*
X417714500Y-89916000D01*
X419798500Y-81526932D02*
X419798500Y-87832000D01*
X425767500Y-75557932D02*
X419798500Y-81526932D01*
X425767500Y-54575000D02*
X425767500Y-75557932D01*
X425548500Y-54356000D02*
X425767500Y-54575000D01*
X426275500Y-75692000D02*
X426275500Y-52897022D01*
X420254500Y-81713000D02*
X426275500Y-75692000D01*
X420254500Y-89916000D02*
X420254500Y-81713000D01*
X426275500Y-52897022D02*
X426083478Y-52705000D01*
X22298011Y-87293129D02*
X25668441Y-90663559D01*
X23785000Y-53053000D02*
X22298011Y-54539989D01*
X22298011Y-54539989D02*
X22298011Y-87293129D01*
X21844000Y-87884000D02*
X24638000Y-90678000D01*
X23785000Y-50513000D02*
X21844000Y-52454000D01*
X21844000Y-52454000D02*
X21844000Y-87884000D01*
X320611500Y-56007000D02*
X326453500Y-56007000D01*
X125476000Y-54356000D02*
X124079000Y-55753000D01*
X124079000Y-55753000D02*
X118491000Y-55753000D01*
X203743490Y-76005304D02*
X203743490Y-56543010D01*
X204309685Y-76571499D02*
X203743490Y-76005304D01*
X208324501Y-76571499D02*
X204309685Y-76571499D01*
X203743490Y-56543010D02*
X205676500Y-54610000D01*
X208724500Y-76171500D02*
X208324501Y-76571499D01*
X406971504Y-73878656D02*
X406971504Y-68326000D01*
X402745166Y-118776704D02*
X402745166Y-78104994D01*
X402745166Y-78104994D02*
X406971504Y-73878656D01*
X403415500Y-120650000D02*
X403415500Y-119447038D01*
X403415500Y-119447038D02*
X402745166Y-118776704D01*
X332549500Y-58039000D02*
X322647749Y-48137249D01*
X322647749Y-48137249D02*
X322647749Y-44428230D01*
X322647749Y-44428230D02*
X320412029Y-42192510D01*
X51816000Y-48856962D02*
X51816000Y-60325000D01*
X53812001Y-46860961D02*
X51816000Y-48856962D01*
X53812001Y-42326999D02*
X53812001Y-46860961D01*
X55880000Y-40259000D02*
X53812001Y-42326999D01*
X194373500Y-65589212D02*
X192087500Y-67875212D01*
X192087500Y-67875212D02*
X192087500Y-79375000D01*
X194373500Y-58039000D02*
X194373500Y-65589212D01*
X199199500Y-77216000D02*
X199199500Y-84703788D01*
X199199500Y-84703788D02*
X198420249Y-85483039D01*
X198420249Y-85483039D02*
X198420249Y-96883749D01*
X198420249Y-96883749D02*
X200215500Y-98679000D01*
X220259287Y-92109999D02*
X223364499Y-92109999D01*
X210883500Y-79756000D02*
X213110249Y-81982749D01*
X213110249Y-81982749D02*
X213110249Y-84960961D01*
X223364499Y-92109999D02*
X227266500Y-96012000D01*
X213110249Y-84960961D02*
X220259287Y-92109999D01*
X236518501Y-95866001D02*
X238950500Y-98298000D01*
X236518501Y-85484787D02*
X236518501Y-95866001D01*
X237045500Y-84957788D02*
X236518501Y-85484787D01*
X237045500Y-76835000D02*
X237045500Y-84957788D01*
X263552310Y-93980000D02*
X265711309Y-96138999D01*
X260229288Y-93980000D02*
X263552310Y-93980000D01*
X251210249Y-82490749D02*
X251210249Y-84960961D01*
X251210249Y-84960961D02*
X260229288Y-93980000D01*
X248729500Y-80010000D02*
X251210249Y-82490749D01*
X274620249Y-96248749D02*
X277177500Y-98806000D01*
X276029288Y-84074000D02*
X274620249Y-85483039D01*
X276034500Y-81915000D02*
X276034500Y-84074000D01*
X276034500Y-84074000D02*
X276029288Y-84074000D01*
X275653500Y-81534000D02*
X276034500Y-81915000D01*
X275653500Y-77216000D02*
X275653500Y-81534000D01*
X274620249Y-85483039D02*
X274620249Y-96248749D01*
X275272500Y-76835000D02*
X275653500Y-77216000D01*
X289310249Y-84960961D02*
X311086500Y-106737212D01*
X311086500Y-106737212D02*
X311086500Y-114300000D01*
X286829500Y-79756000D02*
X289310249Y-82236749D01*
X289310249Y-82236749D02*
X289310249Y-84960961D01*
X312991500Y-93223934D02*
X312991500Y-98044000D01*
X318840501Y-83460499D02*
X318840501Y-87374933D01*
X318840501Y-87374933D02*
X312991500Y-93223934D01*
X321242990Y-81058010D02*
X318840501Y-83460499D01*
X324476804Y-81058010D02*
X321242990Y-81058010D01*
X325056500Y-80478314D02*
X324476804Y-81058010D01*
X325056500Y-77244500D02*
X325056500Y-80478314D01*
X320484500Y-96294500D02*
X320484500Y-99822000D01*
X315503999Y-104010961D02*
X311813501Y-107701459D01*
X316740039Y-100492999D02*
X315503999Y-101729039D01*
X320484500Y-99822000D02*
X319813501Y-100492999D01*
X315503999Y-101729039D02*
X315503999Y-104010961D01*
X311813501Y-107701459D02*
X311813501Y-114648961D01*
X305117500Y-115189000D02*
X303593500Y-116713000D01*
X311273462Y-115189000D02*
X305117500Y-115189000D01*
X319813501Y-100492999D02*
X316740039Y-100492999D01*
X311813501Y-114648961D02*
X311273462Y-115189000D01*
X287083500Y-118542000D02*
X286194500Y-119431000D01*
X287083500Y-115443000D02*
X287083500Y-118542000D01*
X409819491Y-67859609D02*
X409386100Y-68293000D01*
X409819491Y-67248943D02*
X409819491Y-67859609D01*
X410360801Y-66707633D02*
X409819491Y-67248943D01*
X410360801Y-44855415D02*
X410360801Y-66707633D01*
X409735085Y-44229699D02*
X410360801Y-44855415D01*
X408579915Y-44229699D02*
X409735085Y-44229699D01*
X407276216Y-42926000D02*
X408579915Y-44229699D01*
X406844500Y-42926000D02*
X407276216Y-42926000D01*
X25121699Y-51205301D02*
X37084000Y-39243000D01*
X25121699Y-67184901D02*
X25121699Y-51205301D01*
X24013600Y-68293000D02*
X25121699Y-67184901D01*
D16*
X148669501Y-72945499D02*
X148669501Y-80946499D01*
X149352000Y-72263000D02*
X148669501Y-72945499D01*
X154839296Y-99922704D02*
X154590490Y-100171510D01*
X154305000Y-91532000D02*
X154305000Y-95360585D01*
X154305000Y-95360585D02*
X154839296Y-95894881D01*
X154839296Y-95894881D02*
X154839296Y-99922704D01*
X69797501Y-91133501D02*
X69723000Y-91059000D01*
X69797501Y-100001499D02*
X69797501Y-91133501D01*
X162284490Y-110257510D02*
X162306000Y-110236000D01*
X162284490Y-119221510D02*
X162284490Y-110257510D01*
X42418000Y-61849000D02*
X42418000Y-49882490D01*
X42418000Y-49882490D02*
X41684510Y-49149000D01*
X42037000Y-42672000D02*
X42037000Y-48796510D01*
X42037000Y-48796510D02*
X41684510Y-49149000D01*
X106426000Y-53848000D02*
X105918000Y-53340000D01*
X106426000Y-61849000D02*
X106426000Y-53848000D01*
X62356988Y-53339988D02*
X59182000Y-53339988D01*
X63754000Y-60833000D02*
X63754000Y-54737000D01*
X62357000Y-62230000D02*
X63754000Y-60833000D01*
X63754000Y-54737000D02*
X62356988Y-53339988D01*
X66854490Y-111685490D02*
X66802000Y-111633000D01*
X66854490Y-118438510D02*
X66854490Y-111685490D01*
X115824004Y-112395004D02*
X115062000Y-111633000D01*
X115824004Y-119126000D02*
X115824004Y-112395004D01*
X144272000Y-111471000D02*
X143764000Y-110963000D01*
X144272000Y-119253000D02*
X144272000Y-111471000D01*
X65532000Y-73104478D02*
X65452522Y-73025000D01*
X65532000Y-81026000D02*
X65532000Y-73104478D01*
X46228000Y-74110184D02*
X46228000Y-79375000D01*
X45421522Y-73303706D02*
X46228000Y-74110184D01*
X45421522Y-64852522D02*
X45421522Y-73303706D01*
X42418000Y-61849000D02*
X45421522Y-64852522D01*
X48133004Y-97536000D02*
X48533003Y-97136001D01*
X48533003Y-81680003D02*
X46228000Y-79375000D01*
X48133004Y-118872004D02*
X48133004Y-97536000D01*
X48641000Y-119380000D02*
X48133004Y-118872004D01*
X48533003Y-91420997D02*
X48533003Y-81680003D01*
X48533003Y-97136001D02*
X48533003Y-91420997D01*
X130079490Y-52990490D02*
X130079490Y-61182510D01*
X130079490Y-61182510D02*
X130048000Y-61214000D01*
D17*
X75438000Y-58420000D02*
X75438000Y-60071000D01*
X76708000Y-57150000D02*
X75438000Y-58420000D01*
X90551000Y-50800000D02*
X84201000Y-57150000D01*
X84201000Y-57150000D02*
X76708000Y-57150000D01*
X90551000Y-48350038D02*
X90551000Y-50800000D01*
X93326001Y-45575037D02*
X90551000Y-48350038D01*
X93326001Y-40785999D02*
X93326001Y-45575037D01*
X93726000Y-40386000D02*
X93326001Y-40785999D01*
X113665000Y-54610000D02*
X113665000Y-60579000D01*
X124218039Y-48972999D02*
X123267999Y-49923039D01*
X124890001Y-48972999D02*
X124218039Y-48972999D01*
X118351961Y-49923039D02*
X113665000Y-54610000D01*
X125257999Y-48605001D02*
X124890001Y-48972999D01*
X126494039Y-43342999D02*
X125257999Y-44579039D01*
X129307686Y-43342999D02*
X126494039Y-43342999D01*
X131826000Y-40824685D02*
X129307686Y-43342999D01*
X131826000Y-40259000D02*
X131826000Y-40824685D01*
X125257999Y-44579039D02*
X125257999Y-48605001D01*
X123267999Y-49923039D02*
X118351961Y-49923039D01*
X151765000Y-58603934D02*
X151765000Y-60579000D01*
X162560000Y-47808934D02*
X151765000Y-58603934D01*
X162560000Y-45377038D02*
X162560000Y-47808934D01*
X164594039Y-43342999D02*
X162560000Y-45377038D01*
X169890249Y-42707751D02*
X169255001Y-43342999D01*
X169255001Y-43342999D02*
X164594039Y-43342999D01*
X169890249Y-40478685D02*
X169890249Y-42707751D01*
X360417804Y-119158010D02*
X357155490Y-119158010D01*
X361124500Y-118451314D02*
X360417804Y-119158010D01*
X357155490Y-119158010D02*
X355790500Y-120523000D01*
X361124500Y-115316000D02*
X361124500Y-118451314D01*
X403199176Y-110146676D02*
X403199176Y-78293052D01*
X403542500Y-110490000D02*
X403199176Y-110146676D01*
X403199176Y-78293052D02*
X407476456Y-74015772D01*
X407476456Y-72514044D02*
X411697500Y-68293000D01*
X407476456Y-74015772D02*
X407476456Y-72514044D01*
X26325000Y-71664002D02*
X27305000Y-72644002D01*
X26325000Y-68293000D02*
X26325000Y-71664002D01*
X201358500Y-74262380D02*
X201358500Y-73533000D01*
X206946500Y-79850380D02*
X201358500Y-74262380D01*
X206946500Y-93980000D02*
X206946500Y-79850380D01*
X373076999Y-68973039D02*
X373076999Y-84977499D01*
X374027039Y-68022999D02*
X373076999Y-68973039D01*
X376559686Y-57121500D02*
X374027039Y-59654147D01*
X373076999Y-84977499D02*
X375983500Y-87884000D01*
X374027039Y-59654147D02*
X374027039Y-68022999D01*
X377126500Y-57121500D02*
X376559686Y-57121500D01*
X53501999Y-74768001D02*
X54102000Y-74168000D01*
X53501999Y-79596961D02*
X53501999Y-74768001D01*
X54775751Y-80870713D02*
X53501999Y-79596961D01*
X54775751Y-84432961D02*
X54775751Y-80870713D01*
X59309000Y-88966210D02*
X54775751Y-84432961D01*
X59309000Y-94107000D02*
X59309000Y-88966210D01*
X158278114Y-102712078D02*
X158278114Y-110568737D01*
X155448000Y-95123000D02*
X155448000Y-99881964D01*
X155448000Y-99881964D02*
X158278114Y-102712078D01*
X132807000Y-110652000D02*
X134966000Y-112811000D01*
X58928000Y-65659000D02*
X58928000Y-58166000D01*
X56261000Y-68326000D02*
X58928000Y-65659000D01*
X56261000Y-77216000D02*
X56261000Y-68326000D01*
X54229000Y-79248000D02*
X56261000Y-77216000D01*
X106553000Y-77089000D02*
X95257001Y-65793001D01*
X95257001Y-61602001D02*
X94488000Y-60833000D01*
X95257001Y-65793001D02*
X95257001Y-61602001D01*
X144087315Y-77216000D02*
X144653000Y-77216000D01*
X141385999Y-74514684D02*
X144087315Y-77216000D01*
X133357001Y-61602001D02*
X133357001Y-65979963D01*
X132588000Y-60833000D02*
X133357001Y-61602001D01*
X133357001Y-65979963D02*
X141385999Y-74008961D01*
X141385999Y-74008961D02*
X141385999Y-74514684D01*
X49082349Y-117535349D02*
X49276000Y-117729000D01*
X49082349Y-103247084D02*
X49082349Y-117535349D01*
X57333433Y-94996000D02*
X49082349Y-103247084D01*
X59690000Y-94996000D02*
X57333433Y-94996000D01*
X60561749Y-94124251D02*
X59690000Y-94996000D01*
X60561749Y-85483039D02*
X60561749Y-94124251D01*
X61214000Y-84830788D02*
X60561749Y-85483039D01*
X61214000Y-77089000D02*
X61214000Y-84830788D01*
X86755499Y-95645499D02*
X89789000Y-98679000D01*
X87503000Y-84735538D02*
X86755499Y-85483039D01*
X87503000Y-77216000D02*
X87503000Y-84735538D01*
X86755499Y-85483039D02*
X86755499Y-95645499D01*
X125476000Y-77117500D02*
X125476000Y-84862538D01*
X125476000Y-84862538D02*
X124855499Y-85483039D01*
X124855499Y-85483039D02*
X124855499Y-95518493D01*
X124855499Y-95518493D02*
X127889000Y-98551994D01*
X165862000Y-87984462D02*
X165862000Y-98615502D01*
X167329501Y-86516961D02*
X165862000Y-87984462D01*
X167329501Y-80842501D02*
X167329501Y-86516961D01*
X163576000Y-77089000D02*
X167329501Y-80842501D01*
X72009000Y-111690685D02*
X72009000Y-109728000D01*
X80137000Y-115062000D02*
X75380315Y-115062000D01*
X75380315Y-115062000D02*
X72009000Y-111690685D01*
X64498566Y-108733800D02*
X64498566Y-109299485D01*
X59538251Y-103773485D02*
X64498566Y-108733800D01*
X59538251Y-99543251D02*
X59538251Y-103773485D01*
X58674000Y-98679000D02*
X59538251Y-99543251D01*
X111760000Y-105283000D02*
X109728000Y-103251000D01*
X112014000Y-105283000D02*
X111760000Y-105283000D01*
X109728000Y-103251000D02*
X109728000Y-99695000D01*
X114391001Y-105247001D02*
X112049999Y-105247001D01*
X123517010Y-114373010D02*
X114391001Y-105247001D01*
X112049999Y-105247001D02*
X112014000Y-105283000D01*
X126819010Y-114373010D02*
X123517010Y-114373010D01*
X109728000Y-99695000D02*
X108839000Y-98806000D01*
X127762000Y-115316000D02*
X126819010Y-114373010D01*
X58674000Y-117475000D02*
X60325000Y-117475000D01*
X56515000Y-115316000D02*
X58674000Y-117475000D01*
X106144064Y-117221000D02*
X107696000Y-117221000D01*
X103999032Y-115075968D02*
X106144064Y-117221000D01*
X365823500Y-50800000D02*
X365823500Y-65024000D01*
X365188500Y-50165000D02*
X365823500Y-50800000D01*
X365188500Y-69250000D02*
X366204501Y-70266001D01*
X366204501Y-121735314D02*
X366204501Y-80933990D01*
X366204500Y-122301000D02*
X366204501Y-121735314D01*
X421857500Y-68293000D02*
X421857500Y-69128038D01*
X366204501Y-72389999D02*
X366204501Y-80933990D01*
X366204501Y-70266001D02*
X366204501Y-72389999D01*
X385000500Y-51308000D02*
X385000500Y-64897000D01*
X384238500Y-50546000D02*
X385000500Y-51308000D01*
X384492500Y-69123000D02*
X385000500Y-69631000D01*
X384873500Y-121920000D02*
X385254500Y-122301000D01*
X384873500Y-108077000D02*
X384873500Y-121920000D01*
X385000500Y-71628000D02*
X385000500Y-103124000D01*
X385000500Y-69631000D02*
X385000500Y-71628000D01*
X403387000Y-50320500D02*
X403387000Y-65024000D01*
X403542500Y-50165000D02*
X403387000Y-50320500D01*
X399722989Y-81285364D02*
X399722989Y-118319499D01*
X399722989Y-118319499D02*
X403450490Y-122047000D01*
X399256467Y-80818842D02*
X399722989Y-81285364D01*
X403542500Y-69469000D02*
X402720536Y-69469000D01*
X402720536Y-69469000D02*
X399256467Y-72933069D01*
X399256467Y-72933069D02*
X399256467Y-80818842D01*
X353994499Y-60179999D02*
X353994499Y-49923039D01*
X354558501Y-49359037D02*
X354558501Y-45554999D01*
X354558501Y-45554999D02*
X357155490Y-42958010D01*
X361505500Y-41870314D02*
X361505500Y-39116000D01*
X360417804Y-42958010D02*
X361505500Y-41870314D01*
X357155490Y-42958010D02*
X360417804Y-42958010D01*
X353994499Y-49923039D02*
X354558501Y-49359037D01*
X354012500Y-60198000D02*
X353994499Y-60179999D01*
X354139500Y-41148006D02*
X354012506Y-41275000D01*
X356898507Y-38388999D02*
X379360294Y-38388999D01*
X379360294Y-38388999D02*
X380055327Y-39084032D01*
X354012506Y-41275000D02*
X356898507Y-38388999D01*
X373716499Y-42436999D02*
X373716499Y-46500999D01*
X373062500Y-41783000D02*
X373716499Y-42436999D01*
X380366624Y-53151124D02*
X380366624Y-58409327D01*
X373716499Y-46500999D02*
X380366624Y-53151124D01*
X393890500Y-38354000D02*
X392112500Y-40132000D01*
X402145500Y-38354000D02*
X393890500Y-38354000D01*
X403796500Y-40005000D02*
X402145500Y-38354000D01*
X356933500Y-113792000D02*
X353631500Y-117094000D01*
X357648501Y-70726961D02*
X356933500Y-71441962D01*
X356933500Y-71441962D02*
X356933500Y-113792000D01*
X357648501Y-68973039D02*
X357648501Y-70726961D01*
X355219000Y-63944500D02*
X355219000Y-66043460D01*
X357155490Y-62008010D02*
X355219000Y-63944500D01*
X356933500Y-68258038D02*
X357648501Y-68973039D01*
X360417804Y-62008010D02*
X357155490Y-62008010D01*
X356933500Y-67757960D02*
X356933500Y-68258038D01*
X355219000Y-66043460D02*
X356933500Y-67757960D01*
X361124500Y-61301314D02*
X360417804Y-62008010D01*
X361124500Y-58039000D02*
X361124500Y-61301314D01*
X398970500Y-119380000D02*
X398843500Y-119507000D01*
X398970500Y-115189000D02*
X398970500Y-119380000D01*
X66445261Y-83530299D02*
X66445261Y-96139000D01*
X64090522Y-53699583D02*
X64725522Y-54334583D01*
X64725522Y-54334583D02*
X64725522Y-81810560D01*
X64090522Y-43605478D02*
X64090522Y-53699583D01*
X66040000Y-41656000D02*
X64090522Y-43605478D01*
X64725522Y-81810560D02*
X66445261Y-83530299D01*
X101854000Y-44069000D02*
X101854000Y-58039000D01*
X104140000Y-41783000D02*
X101854000Y-44069000D01*
X139954000Y-44069000D02*
X139954000Y-58166000D01*
X142240000Y-41783000D02*
X139954000Y-44069000D01*
X79121000Y-79248000D02*
X79248000Y-79375000D01*
X79121000Y-70902962D02*
X79121000Y-79248000D01*
X79297001Y-70726961D02*
X79121000Y-70902962D01*
X79297001Y-69129037D02*
X79297001Y-70726961D01*
X82612782Y-65813256D02*
X79297001Y-69129037D01*
X82612782Y-58103218D02*
X82612782Y-65813256D01*
X120650000Y-65747962D02*
X118364000Y-68033962D01*
X120650000Y-58194500D02*
X120650000Y-65747962D01*
X118364000Y-68033962D02*
X118364000Y-79248000D01*
X156337000Y-68160962D02*
X156337000Y-79502000D01*
X158750000Y-65747962D02*
X156337000Y-68160962D01*
X158750000Y-58194500D02*
X158750000Y-65747962D01*
X115678001Y-95866001D02*
X116078000Y-96266000D01*
X104485001Y-86197001D02*
X114154001Y-95866001D01*
X114154001Y-95866001D02*
X115678001Y-95866001D01*
X102681539Y-86197001D02*
X104485001Y-86197001D01*
X101445499Y-84960961D02*
X102681539Y-86197001D01*
X101445499Y-82014499D02*
X101445499Y-84960961D01*
X99187000Y-79756000D02*
X101445499Y-82014499D01*
X153913473Y-96139000D02*
X154048795Y-96274322D01*
X150723538Y-96139000D02*
X153913473Y-96139000D01*
X138557000Y-83972462D02*
X150723538Y-96139000D01*
X138557000Y-80126294D02*
X138557000Y-83972462D01*
X137715692Y-79284986D02*
X138557000Y-80126294D01*
X96120001Y-117328997D02*
X96520000Y-117728996D01*
X97027282Y-103786256D02*
X96120001Y-104693537D01*
X96120001Y-104693537D02*
X96120001Y-117328997D01*
X97027282Y-96167500D02*
X97027282Y-103786256D01*
X138557000Y-97028000D02*
X138557000Y-99314000D01*
X137922000Y-96393000D02*
X138557000Y-97028000D01*
X134747000Y-96393000D02*
X137922000Y-96393000D01*
X154051000Y-115824000D02*
X154051000Y-117094000D01*
X165727999Y-104147001D02*
X154051000Y-115824000D01*
X172986532Y-99388782D02*
X172267304Y-100108010D01*
X172986532Y-96167500D02*
X172986532Y-99388782D01*
X172267304Y-100108010D02*
X169046022Y-100108010D01*
X166694501Y-103482961D02*
X166030461Y-104147001D01*
X169046022Y-100108010D02*
X166694501Y-102459531D01*
X166030461Y-104147001D02*
X165727999Y-104147001D01*
X166694501Y-102459531D02*
X166694501Y-103482961D01*
X245706900Y-62001400D02*
X245706900Y-66573400D01*
X245706900Y-66573400D02*
X256222500Y-77089000D01*
X294195500Y-76956788D02*
X294195500Y-77088999D01*
X284547749Y-67309037D02*
X294195500Y-76956788D01*
X284547749Y-62869249D02*
X284547749Y-67309037D01*
X282384500Y-60706000D02*
X284547749Y-62869249D01*
X395781001Y-55132499D02*
X395781001Y-49950961D01*
X399351500Y-46380462D02*
X399351500Y-39081010D01*
X395781001Y-49950961D02*
X399351500Y-46380462D01*
X392112500Y-60706000D02*
X392112500Y-58801000D01*
X392112500Y-58801000D02*
X395781001Y-55132499D01*
X374840500Y-66929000D02*
X374840500Y-61976000D01*
X376999500Y-69088000D02*
X374840500Y-66929000D01*
X376999500Y-92583000D02*
X376999500Y-69088000D01*
X380301500Y-95885000D02*
X376999500Y-92583000D01*
X391985500Y-114490500D02*
X391985500Y-117729000D01*
X398335500Y-108140500D02*
X391985500Y-114490500D01*
X398335500Y-66574538D02*
X398335500Y-108140500D01*
X399224500Y-65685538D02*
X398335500Y-66574538D01*
X399224500Y-58166000D02*
X399224500Y-65685538D01*
X374840500Y-105246038D02*
X374840500Y-100330000D01*
X380174500Y-110580038D02*
X374840500Y-105246038D01*
X380174500Y-115189000D02*
X380174500Y-110580038D01*
X322084532Y-113995032D02*
X327774468Y-113995032D01*
X319722500Y-111633000D02*
X322084532Y-113995032D01*
X388556500Y-94107000D02*
X393128500Y-89535000D01*
X388556500Y-104394002D02*
X388556500Y-94107000D01*
X354012500Y-111633000D02*
X344106500Y-111633000D01*
X355409500Y-113030000D02*
X354012500Y-111633000D01*
X367982500Y-112522000D02*
X367220500Y-111760000D01*
X378142500Y-112522000D02*
X367982500Y-112522000D01*
X394017500Y-79502000D02*
X394017500Y-105537000D01*
X388175500Y-73660000D02*
X394017500Y-79502000D01*
X229933500Y-68257288D02*
X229933500Y-79375000D01*
X232981500Y-65209288D02*
X229933500Y-68257288D01*
X232981500Y-58702500D02*
X232981500Y-65209288D01*
X232473500Y-58194500D02*
X232981500Y-58702500D01*
X62611000Y-56007000D02*
X57023000Y-56007000D01*
X95123000Y-113157000D02*
X94107000Y-112141000D01*
X94107000Y-112141000D02*
X94107000Y-110871000D01*
X49403000Y-55372000D02*
X49530000Y-55245000D01*
X49403000Y-73406000D02*
X49403000Y-55372000D01*
X67437000Y-91059000D02*
X67437000Y-91059000D01*
X69698251Y-102257039D02*
X67437000Y-99995788D01*
X67437000Y-99995788D02*
X67437000Y-90170000D01*
X69698251Y-112927749D02*
X69698251Y-102257039D01*
X68326000Y-114300000D02*
X69698251Y-112927749D01*
D16*
X405942029Y-58406529D02*
X405955500Y-58420000D01*
X405942029Y-44971471D02*
X405942029Y-58406529D01*
X405955500Y-58420000D02*
X405183990Y-59191510D01*
X405183990Y-59191510D02*
X405183990Y-70983490D01*
X401256500Y-106630823D02*
X401418490Y-106468833D01*
X401418490Y-106468833D02*
X401418490Y-92329000D01*
X401418490Y-92329000D02*
X401291490Y-92202000D01*
X401170987Y-109669431D02*
X401383494Y-109881938D01*
X401383494Y-109881938D02*
X401383494Y-114173000D01*
X401170987Y-106716336D02*
X401170987Y-109669431D01*
X401256500Y-106630823D02*
X401170987Y-106716336D01*
X405183990Y-70983490D02*
X400773979Y-75393501D01*
X400773979Y-75393501D02*
X400773979Y-76682521D01*
X413299500Y-78867000D02*
X413294500Y-78862000D01*
X416623500Y-78867000D02*
X413299500Y-78867000D01*
X419589500Y-78867000D02*
X419594500Y-78862000D01*
X416623500Y-78867000D02*
X419589500Y-78867000D01*
X401418490Y-81427322D02*
X401418490Y-92075000D01*
X400500988Y-80509820D02*
X401418490Y-81427322D01*
X400500988Y-79392527D02*
X400500988Y-80509820D01*
X400773979Y-75393501D02*
X400773979Y-79119536D01*
X400773979Y-79119536D02*
X400500988Y-79392527D01*
X401418490Y-92075000D02*
X401291490Y-92202000D01*
X404939500Y-50673000D02*
X404939500Y-45847006D01*
X404939500Y-45847006D02*
X404939494Y-45847000D01*
X404939500Y-50673000D02*
X404939500Y-56261000D01*
X404939500Y-56261000D02*
X404177500Y-57023000D01*
X404177500Y-57023000D02*
X404177500Y-60706000D01*
X230568500Y-118491000D02*
X230695500Y-118618000D01*
X230568500Y-111633000D02*
X230568500Y-118491000D01*
X383857500Y-110871000D02*
X383603500Y-110617000D01*
X383857500Y-118110000D02*
X383857500Y-110871000D01*
X365315500Y-119253000D02*
X365061500Y-119507000D01*
X365315500Y-109855000D02*
X365315500Y-119253000D01*
X338645500Y-118110000D02*
X338391500Y-118364000D01*
X338645500Y-108712000D02*
X338645500Y-118110000D01*
X214439500Y-91694000D02*
X214185500Y-91440000D01*
X214439500Y-100076000D02*
X214439500Y-91694000D01*
X222440500Y-76073000D02*
X220027500Y-73660000D01*
X222440500Y-80899000D02*
X222440500Y-76073000D01*
X384273500Y-53375000D02*
X383857500Y-52959000D01*
X384273500Y-61087000D02*
X384273500Y-53375000D01*
X340423500Y-61976000D02*
X340423500Y-53340006D01*
X340423500Y-53340006D02*
X340423497Y-53340003D01*
X295211500Y-60833000D02*
X295211500Y-52959000D01*
X256349500Y-53467000D02*
X256476500Y-53340000D01*
X256349500Y-61341000D02*
X256349500Y-53467000D01*
X218757500Y-55097000D02*
X217942500Y-54282000D01*
X218757500Y-60960000D02*
X218757500Y-55097000D01*
X315150500Y-110109000D02*
X314896500Y-110363000D01*
X314896500Y-110363000D02*
X314896500Y-118872000D01*
X291401500Y-110616996D02*
X291655500Y-110362996D01*
X291401500Y-119761000D02*
X291401500Y-110616996D01*
X267398508Y-118872000D02*
X267398508Y-109855008D01*
X267398508Y-109855008D02*
X267398500Y-109855000D01*
X402207432Y-72482010D02*
X400882815Y-72482010D01*
X404577499Y-70111943D02*
X402207432Y-72482010D01*
X404577499Y-61105999D02*
X404577499Y-70111943D01*
X404177500Y-60706000D02*
X404577499Y-61105999D01*
X400621500Y-95250000D02*
X400465998Y-95405502D01*
X400465998Y-95405502D02*
X400465998Y-110363008D01*
X400465998Y-110363008D02*
X400592990Y-110490000D01*
X402653500Y-119761000D02*
X400338999Y-117446499D01*
X400338999Y-117446499D02*
X400338999Y-110743991D01*
X400338999Y-110743991D02*
X400592990Y-110490000D01*
X400500988Y-86579002D02*
X400500988Y-95129488D01*
X400500988Y-95129488D02*
X400621500Y-95250000D01*
X400592990Y-86487000D02*
X400500988Y-86579002D01*
X400592990Y-86487000D02*
X400592990Y-81423495D01*
X399919977Y-80750482D02*
X399919977Y-78676492D01*
X400592990Y-81423495D02*
X399919977Y-80750482D01*
X399919977Y-78676492D02*
X399983469Y-78613000D01*
X400882815Y-72482010D02*
X399983469Y-73381356D01*
X399983469Y-73381356D02*
X399983469Y-78613000D01*
M02*
