M48
; DRILL file {KiCad (5.1.9)-1} date 02/17/21 22:07:50
; FORMAT={-:-/ absolute / inch / decimal}
; #@! TF.CreationDate,2021-02-17T22:07:50-08:00
; #@! TF.GenerationSoftware,Kicad,Pcbnew,(5.1.9)-1
; #@! TF.FileFunction,Plated,1,2,PTH
FMAT,2
INCH
T1C0.0157
T2C0.0320
T3C0.0394
T4C0.0430
%
G90
G05
T1
X0.62Y-2.935
X0.6606Y-2.9344
X0.725Y-2.225
X1.01Y-2.405
X1.11Y-0.91
X1.25Y-2.14
X1.25Y-2.18
X1.25Y-2.225
X1.26Y-1.695
X1.26Y-1.105
X1.27Y-0.8656
X1.2911Y-1.3
X1.305Y-1.045
X1.32Y-1.8
X1.35Y-4.085
X1.365Y-3.33
X1.375Y-1.145
X1.38Y-2.595
X1.41Y-4.5
X1.4301Y-2.42
X1.4372Y-3.635
X1.4694Y-2.15
X1.47Y-2.19
X1.47Y-2.49
X1.51Y-1.85
X1.5139Y-3.955
X1.52Y-2.865
X1.545Y-3.205
X1.5607Y-2.9643
X1.565Y-4.065
X1.59Y-4.0
X1.595Y-2.255
X1.6Y-1.54
X1.69Y-1.74
X1.78Y-2.285
X1.785Y-2.485
X1.85Y-0.95
X1.875Y-3.905
X1.895Y-1.57
X1.955Y-1.35
X1.96Y-3.25
X1.97Y-1.655
X1.98Y-1.465
X1.985Y-3.07
X2.025Y-3.99
X2.045Y-1.39
X2.055Y-4.18
X2.06Y-2.4
X2.105Y-1.815
X2.115Y-1.57
X2.14Y-1.93
X2.1411Y-2.0778
X2.1893Y-3.6681
X2.2269Y-2.24
X2.23Y-2.555
X2.235Y-2.665
X2.235Y-2.845
X2.25Y-1.005
X2.266Y-3.15
X2.28Y-3.76
X2.2821Y-4.0279
X2.305Y-2.915
X2.34Y-3.865
X2.395Y-2.95
X2.3979Y-3.3021
X2.425Y-3.415
X2.425Y-3.5885
X2.485Y-3.685
X2.4955Y-1.416
X2.59Y-0.95
X2.62Y-1.73
X2.7Y-1.365
X2.77Y-2.49
X2.805Y-3.895
X2.9025Y-1.6525
X2.985Y-4.16
X2.995Y-1.01
X3.075Y-2.125
X3.08Y-1.93
X3.095Y-2.405
X3.185Y-3.25
X3.21Y-1.57
X3.235Y-1.4289
X3.27Y-2.65
X3.275Y-2.875
X3.34Y-0.955
X3.355Y-3.73
X3.37Y-1.76
X3.395Y-3.82
X3.425Y-1.575
X3.45Y-4.0
X3.455Y-1.365
X3.47Y-3.1511
X3.555Y-2.505
X3.645Y-3.405
X3.645Y-3.6035
X3.66Y-1.65
X3.7445Y-3.8955
X3.75Y-1.01
X3.82Y-1.465
X3.825Y-1.925
X3.83Y-2.105
X3.84Y-1.8
X3.845Y-2.4
X3.89Y-3.98
X3.9025Y-2.1764
X3.925Y-4.17
X3.935Y-3.255
X4.015Y-2.64
X4.02Y-2.85
X4.085Y-0.95
X4.125Y-1.75
X4.18Y-3.76
X4.205Y-1.3514
X4.21Y-4.055
X4.22Y-3.155
X4.31Y-2.485
X4.315Y-1.56
X4.39Y-3.6085
X4.395Y-3.405
X4.4Y-1.6561
X4.495Y-1.0
X4.575Y-2.175
X4.58Y-1.935
X4.58Y-2.095
X4.59Y-1.505
X4.59Y-2.4011
X4.68Y-3.905
X4.685Y-3.245
X4.765Y-2.86
X4.77Y-1.775
X4.77Y-2.67
X4.7712Y-1.4512
X4.84Y-0.95
X4.865Y-4.165
X4.87Y-1.76
X4.8786Y-3.7214
X4.955Y-1.345
X4.955Y-3.16
X4.9636Y-3.8064
X5.0719Y-2.4865
X5.105Y-3.275
X5.14Y-3.35
X5.14Y-3.6085
X5.16Y-1.655
X5.245Y-2.255
X5.25Y-1.01
X5.31Y-3.7336
X5.33Y-4.06
X5.345Y-2.405
X5.395Y-1.93
X5.405Y-2.05
X5.465Y-2.9475
X5.5031Y-2.5519
X5.5073Y-2.8623
X5.53Y-2.21
X5.535Y-2.365
X5.5395Y-1.6045
X5.575Y-2.67
X5.585Y-0.95
X5.625Y-1.75
X5.705Y-1.3525
X5.7149Y-3.1553
X5.715Y-3.975
X5.725Y-2.9686
X5.7362Y-3.3088
X5.77Y-3.11
X5.805Y-2.495
X5.8814Y-3.7181
X5.89Y-3.365
X5.9Y-1.6561
X5.97Y-3.6
X6.0Y-1.01
X6.0392Y-4.0588
X6.04Y-3.705
X6.08Y-1.9
X6.08Y-2.115
X6.09Y-2.4
X6.18Y-3.2475
X6.265Y-2.88
X6.275Y-2.665
X6.32Y-4.27
X6.3386Y-0.9586
X6.455Y-1.365
X6.4605Y-3.1511
X6.565Y-0.855
X6.5717Y-1.2083
X6.64Y-3.61
X6.645Y-3.435
X7.0225Y-1.755
X7.1875Y-0.85
X7.2125Y-2.49
X7.3025Y-1.65
X7.3925Y-0.995
X7.4775Y-1.915
X7.4775Y-2.115
X7.4925Y-2.405
X7.5325Y-3.25
X7.5725Y-3.015
X7.5775Y-2.26
X7.6625Y-2.66
X7.6625Y-2.865
X7.6825Y-0.9061
X7.7475Y-1.515
X7.7625Y-1.77
X7.7975Y-3.065
X7.8475Y-1.36
X7.8525Y-1.165
X7.856Y-3.1511
X7.8575Y-0.92
X7.8675Y-2.3639
X7.9525Y-2.505
X7.9877Y-1.5448
X8.0561Y-3.39
X8.0575Y-1.655
X8.0583Y-3.5992
X8.0825Y-2.965
X8.0925Y-3.305
X8.1125Y-3.81
X8.1325Y-1.015
X8.1675Y-3.77
X8.2175Y-1.56
X8.2225Y-2.105
X8.2275Y-1.91
X8.2275Y-4.0
X8.2304Y-1.5021
X8.2375Y-2.405
X8.2625Y-1.765
X8.3125Y-2.265
X8.3125Y-3.26
X8.3825Y-3.795
X8.4075Y-2.55
X8.4125Y-2.66
X8.4125Y-2.86
X8.4275Y-0.8961
X8.5175Y-1.74
X8.5525Y-1.375
X8.5975Y-3.145
X8.6125Y-0.865
X8.6125Y-1.175
X8.6925Y-4.135
X8.7025Y-2.49
X8.7275Y-3.76
X8.7325Y-4.035
X8.7875Y-3.42
X8.8025Y-1.6561
X8.8925Y-1.0
X8.9725Y-2.095
X8.9775Y-1.925
X8.9825Y-2.39
X9.0575Y-3.235
X9.1625Y-2.635
X9.1625Y-2.865
X9.1725Y-0.9065
X9.2925Y-3.765
X9.3235Y-1.806
X9.3525Y-0.8739
X9.3525Y-1.175
X9.3525Y-1.375
X9.3575Y-3.15
X9.4425Y-2.515
X9.4852Y-1.5523
X9.5375Y-3.375
X9.5475Y-1.655
X9.5675Y-3.81
X9.6375Y-1.01
X9.6975Y-1.555
X9.7175Y-2.095
X9.7225Y-1.915
X9.7375Y-2.4
X9.7425Y-1.78
X9.7475Y-1.465
X9.8325Y-3.255
X9.9125Y-2.66
X9.9125Y-2.875
X9.9225Y-0.895
X9.9975Y-1.725
X10.0225Y-3.9
X10.0675Y-3.03
X10.1015Y-1.352
X10.1111Y-3.15
X10.1775Y-3.69
X10.1775Y-4.045
X10.1975Y-2.48
X10.2875Y-3.415
X10.2875Y-3.615
X10.2875Y-4.14
X10.3075Y-1.645
X10.3475Y-3.765
X10.39Y-0.965
X10.4775Y-1.93
X10.4775Y-2.105
X10.4875Y-2.39
X10.5625Y-3.255
X10.6275Y-3.8
X10.6625Y-3.975
X10.6675Y-2.855
X10.6775Y-2.665
X10.6875Y-0.9065
X10.73Y-2.9875
X10.7675Y-1.755
X10.8525Y-1.345
X10.8548Y-3.1527
X10.9175Y-4.067
X10.9425Y-2.505
X10.9525Y-3.91
X10.974Y-1.5685
X11.0375Y-3.435
X11.0375Y-3.61
X11.0525Y-1.65
X11.1225Y-4.08
X11.1325Y-3.71
X11.1475Y-1.02
X11.2075Y-1.565
X11.2275Y-1.815
X11.2275Y-2.11
X11.2325Y-2.4
X11.2425Y-4.17
X11.2725Y-1.45
X11.2725Y-1.76
X11.3125Y-3.775
X11.4125Y-2.655
X11.43Y-0.905
X11.4971Y-2.8746
X11.5175Y-1.745
X11.5975Y-1.365
X11.6025Y-3.825
X11.6025Y-3.96
X11.8075Y-1.635
X11.8975Y-3.865
X11.9725Y-3.225
X12.0175Y-2.105
X12.0475Y-4.045
X12.0575Y-3.7
X12.0775Y-4.165
X12.1675Y-2.5011
X12.2375Y-3.76
X12.2646Y-1.0261
X12.2675Y-3.1561
X12.2725Y-1.57
X12.4425Y-3.6
X12.4475Y-2.4061
X12.4525Y-1.76
X12.4525Y-3.425
X12.5025Y-1.57
X12.5475Y-0.9044
X12.5545Y-3.853
X12.6225Y-2.88
X12.6375Y-2.68
X12.7275Y-1.3414
X12.7425Y-1.65
X12.8375Y-3.9
X12.9175Y-1.925
X12.9175Y-2.11
X12.9725Y-4.025
X12.9825Y-3.645
X13.0225Y-2.425
X13.0225Y-4.145
X13.0525Y-1.465
X13.0525Y-1.805
X13.1975Y-3.76
X13.3075Y-1.565
X13.5525Y-1.565
X13.5725Y-3.975
X13.5875Y-1.735
X13.5875Y-0.99
X13.6425Y-3.815
X13.6575Y-4.11
X13.8675Y-1.65
X13.8675Y-3.905
X13.8825Y-0.905
X14.0225Y-4.07
X14.0275Y-1.34
X14.0275Y-2.0914
X14.0325Y-3.69
X14.0525Y-1.925
X14.0675Y-4.18
X14.0675Y-2.215
X14.1075Y-3.765
X14.3375Y-1.01
X14.4075Y-1.805
X14.4075Y-3.315
X14.4525Y-2.825
X14.4975Y-1.6139
X14.5375Y-3.795
X14.6128Y-0.9037
X14.6175Y-3.9
X14.6225Y-3.14
X14.6251Y-1.6646
X14.7525Y-3.72
X14.7625Y-1.45
X14.7625Y-4.015
X14.7775Y-1.355
X14.7789Y-1.77
X14.7875Y-2.0864
X14.8025Y-3.62
X14.8075Y-1.92
X14.8075Y-2.185
X14.8075Y-3.425
X14.8175Y-4.18
X14.9325Y-2.265
X14.9475Y-3.475
X15.0825Y-4.0
X15.0875Y-0.945
X15.0875Y-1.755
X15.1275Y-2.89
X15.1625Y-3.52
X15.3525Y-4.07
X15.3575Y-3.9
X15.3675Y-1.655
X15.3725Y-0.9036
X15.3875Y-1.365
X15.3974Y-2.46
X15.3975Y-1.585
X15.4214Y-2.77
X15.4214Y-3.715
X15.4225Y-3.115
X15.4285Y-2.384
X15.4328Y-2.2186
X15.4475Y-3.5631
X15.4489Y-2.5056
X15.4489Y-2.995
X15.4525Y-3.86
X15.4753Y-3.6654
X15.5025Y-4.08
X15.5314Y-1.925
X15.5325Y-4.115
X15.5339Y-4.17
X15.5375Y-1.34
X15.5375Y-2.1
X15.5375Y-3.715
X15.5475Y-0.94
X15.5625Y-1.755
X15.5775Y-2.555
X15.5925Y-1.17
X15.5925Y-1.36
X15.6175Y-2.51
X15.632Y-1.1355
X15.6325Y-1.665
X15.645Y-2.4725
X15.6546Y-1.9171
X15.6675Y-1.055
X15.6725Y-0.7985
X15.6725Y-2.0
X15.6725Y-2.055
X15.6739Y-2.445
X15.7025Y-2.415
X16.0525Y-2.47
X16.1718Y-0.9603
X16.205Y-1.17
X16.2075Y-0.9436
X16.21Y-2.18
X16.235Y-1.845
X16.235Y-1.98
X16.235Y-1.915
X16.235Y-1.745
X16.2625Y-0.935
X16.4039Y-1.505
X16.4249Y-1.44
T2
X0.735Y-2.905
X0.835Y-2.905
X0.935Y-2.905
X1.035Y-2.905
X15.8955Y-2.905
X15.9955Y-2.905
X16.0955Y-2.905
X16.1955Y-2.905
T4
X0.5864Y-0.9537
X0.5864Y-1.0537
X0.5864Y-1.1537
X0.5864Y-1.2537
X0.5864Y-1.3537
X0.5864Y-1.4537
X0.5864Y-1.5537
X0.5864Y-1.6537
X0.5864Y-1.7537
X0.5864Y-1.8537
X0.5864Y-1.9537
X0.5954Y-2.0537
X0.6864Y-2.0537
X0.7864Y-2.0537
X0.8864Y-2.0537
X0.9864Y-2.0537
X1.0864Y-2.0537
X1.1864Y-0.9537
X1.1864Y-1.0537
X1.1864Y-1.1537
X1.1864Y-1.2537
X1.1864Y-1.3537
X1.1864Y-1.4537
X1.1864Y-1.5537
X1.1864Y-1.6537
X1.1864Y-1.7537
X1.1864Y-1.8537
X1.1864Y-1.9537
X1.1864Y-2.0537
X15.7586Y-0.9537
X15.7586Y-1.0537
X15.7586Y-1.1537
X15.7586Y-1.2537
X15.7586Y-1.3537
X15.7586Y-1.4537
X15.7586Y-1.5537
X15.7586Y-1.6537
X15.7586Y-1.7537
X15.7586Y-1.8537
X15.7586Y-1.9537
X15.7676Y-2.0537
X15.8586Y-2.0537
X15.9586Y-2.0537
X16.0586Y-2.0537
X16.1586Y-2.0537
X16.2586Y-2.0537
X16.3586Y-0.9537
X16.3586Y-1.0537
X16.3586Y-1.1537
X16.3586Y-1.2537
X16.3586Y-1.3537
X16.3586Y-1.4537
X16.3586Y-1.5537
X16.3586Y-1.6537
X16.3586Y-1.7537
X16.3586Y-1.8537
X16.3586Y-1.9537
X16.3586Y-2.0537
T3
G00X6.6107Y-1.2815
M15
G01X6.6107Y-1.3012
M16
G05
G00X6.78Y-0.9469
M15
G01X6.78Y-0.9666
M16
G05
G00X6.78Y-1.065
M15
G01X6.78Y-1.0847
M16
G05
G00X6.78Y-1.2225
M15
G01X6.78Y-1.2422
M16
G05
G00X6.9679Y-1.2765
M15
G01X6.9679Y-1.2962
M16
G05
G00X7.1371Y-0.9419
M15
G01X7.1371Y-0.9616
M16
G05
G00X7.1371Y-1.06
M15
G01X7.1371Y-1.0797
M16
G05
G00X7.1371Y-1.2175
M15
G01X7.1371Y-1.2372
M16
G05
T0
M30
