G04 #@! TF.GenerationSoftware,KiCad,Pcbnew,(5.1.9)-1*
G04 #@! TF.CreationDate,2021-02-17T22:07:48-08:00*
G04 #@! TF.ProjectId,onigaku,6f6e6967-616b-4752-9e6b-696361645f70,rev?*
G04 #@! TF.SameCoordinates,Original*
G04 #@! TF.FileFunction,Profile,NP*
%FSLAX46Y46*%
G04 Gerber Fmt 4.6, Leading zero omitted, Abs format (unit mm)*
G04 Created by KiCad (PCBNEW (5.1.9)-1) date 2021-02-17 22:07:48*
%MOMM*%
%LPD*%
G01*
G04 APERTURE LIST*
G04 #@! TA.AperFunction,Profile*
%ADD10C,0.200000*%
G04 #@! TD*
G04 #@! TA.AperFunction,Profile*
%ADD11C,0.100000*%
G04 #@! TD*
G04 #@! TA.AperFunction,Profile*
%ADD12C,0.120000*%
G04 #@! TD*
G04 APERTURE END LIST*
D10*
X38227000Y-15875000D02*
X38227000Y-18923000D01*
X12192000Y-16002000D02*
X12192000Y-12192000D01*
X12192000Y-16002000D02*
X33147000Y-16002000D01*
X12192000Y-12192000D02*
X417893500Y-12192000D01*
X160274000Y-15875000D02*
X187833000Y-15875000D01*
X155194000Y-18923000D02*
X155194000Y-15875000D01*
X33147000Y-18923000D02*
X33147000Y-16002000D01*
X417893500Y-12192000D02*
X417893500Y-16002000D01*
X160274000Y-15875000D02*
X160274000Y-18923000D01*
X155194000Y-15875000D02*
X38227000Y-15875000D01*
X187833000Y-18923000D02*
X187833000Y-15875000D01*
X192913000Y-15875000D02*
X192913000Y-18923000D01*
X397129000Y-16002000D02*
X397129000Y-18923000D01*
X397129000Y-16002000D02*
X417893500Y-16002000D01*
X392049000Y-16002000D02*
X192913000Y-15875000D01*
X392049000Y-18923000D02*
X392049000Y-16002000D01*
X417957000Y-120015000D02*
X397002000Y-120015000D01*
X274955000Y-120142000D02*
X242316000Y-120142000D01*
X417957000Y-123825000D02*
X12192000Y-123825000D01*
X12192000Y-123825000D02*
X12192000Y-120015000D01*
X33020000Y-120015000D02*
X12192000Y-120015000D01*
X274955000Y-120142000D02*
X391922000Y-120142000D01*
X38100000Y-120015000D02*
X146431000Y-120015000D01*
X417957000Y-120015000D02*
X417957000Y-123825000D01*
X151511000Y-120142000D02*
X237236000Y-120142000D01*
X38100000Y-117094000D02*
X38100000Y-120015000D01*
X33020000Y-120015000D02*
X33020000Y-117094000D01*
X151511000Y-117094000D02*
X151511000Y-120142000D01*
X146431000Y-120015000D02*
X146431000Y-117094000D01*
X242316000Y-117094000D02*
X242316000Y-120142000D01*
X237236000Y-120142000D02*
X237236000Y-117094000D01*
X391922000Y-120142000D02*
X391922000Y-117094000D01*
X397002000Y-117094000D02*
X397002000Y-120015000D01*
X151511000Y-117094000D02*
X169291000Y-117094000D01*
D11*
X397002000Y-117094000D02*
X416496500Y-117094000D01*
D10*
X274955000Y-117094000D02*
X242316000Y-117094000D01*
X237236000Y-117094000D02*
X189420500Y-117094000D01*
X13589000Y-117094000D02*
X33020000Y-117094000D01*
X38100000Y-117094000D02*
X146431000Y-117094000D01*
X397129000Y-18923000D02*
X416496500Y-18923000D01*
X13589000Y-18923000D02*
X33147000Y-18923000D01*
X176466500Y-18923000D02*
X187833000Y-18923000D01*
X160274000Y-18923000D02*
X172212000Y-18923000D01*
X173672500Y-40894000D02*
G75*
G02*
X175069500Y-39497000I1397000J0D01*
G01*
X175069500Y-57785000D02*
G75*
G02*
X173672500Y-56388000I0J1397000D01*
G01*
X176974500Y-57785000D02*
G75*
G02*
X178371500Y-59182000I0J-1397000D01*
G01*
X179768500Y-76835000D02*
G75*
G02*
X178371500Y-75438000I0J1397000D01*
G01*
X186626500Y-76835000D02*
G75*
G02*
X188023500Y-78232000I0J-1397000D01*
G01*
X189420500Y-117094000D02*
G75*
G02*
X188023500Y-115697000I0J1397000D01*
G01*
X170688000Y-115697000D02*
G75*
G02*
X169291000Y-117094000I-1397000J0D01*
G01*
X169291000Y-77597000D02*
G75*
G02*
X170688000Y-78994000I0J-1397000D01*
G01*
X162687000Y-77597000D02*
G75*
G02*
X161290000Y-76200000I0J1397000D01*
G01*
X159893000Y-58547000D02*
G75*
G02*
X161290000Y-59944000I0J-1397000D01*
G01*
X157861000Y-58547000D02*
G75*
G02*
X156464000Y-57150000I0J1397000D01*
G01*
X156464000Y-40132000D02*
G75*
G02*
X157861000Y-38735000I1397000J0D01*
G01*
X173609000Y-37338000D02*
G75*
G02*
X172212000Y-38735000I-1397000J0D01*
G01*
X172212000Y-18923000D02*
G75*
G02*
X173609000Y-20320000I0J-1397000D01*
G01*
X175069500Y-20320000D02*
G75*
G02*
X176466500Y-18923000I1397000J0D01*
G01*
X192913000Y-18923000D02*
X392049000Y-18923000D01*
X274955000Y-117094000D02*
X391922000Y-117094000D01*
X175069500Y-39497000D02*
X175069500Y-20320000D01*
X173672500Y-56388000D02*
X173672500Y-40894000D01*
X176974500Y-57785000D02*
X175069500Y-57785000D01*
X178371500Y-75438000D02*
X178371500Y-59182000D01*
X186626500Y-76835000D02*
X179768500Y-76835000D01*
X188023500Y-115697000D02*
X188023500Y-78232000D01*
X173609000Y-37338000D02*
X173609000Y-20320000D01*
X157861000Y-38735000D02*
X172212000Y-38735000D01*
X156464000Y-57150000D02*
X156464000Y-40132000D01*
X159893000Y-58547000D02*
X157861000Y-58547000D01*
X161290000Y-76200000D02*
X161290000Y-59944000D01*
X169291000Y-77597000D02*
X162687000Y-77597000D01*
X170688000Y-115697000D02*
X170688000Y-78994000D01*
X12192000Y-20320000D02*
G75*
G02*
X13589000Y-18923000I1397000J0D01*
G01*
X416496500Y-18923000D02*
G75*
G02*
X417893500Y-20320000I0J-1397000D01*
G01*
X417894880Y-115633500D02*
G75*
G02*
X416496500Y-117094000I-1461880J0D01*
G01*
X13589000Y-117094000D02*
G75*
G02*
X12192000Y-115697000I0J1397000D01*
G01*
X38227000Y-18923000D02*
X155194000Y-18923000D01*
X417893500Y-20320000D02*
X417893500Y-115633500D01*
X12192000Y-115697000D02*
X12192000Y-20320000D01*
D12*
X389340500Y-102642000D02*
X385740500Y-102642000D01*
X389340500Y-99542000D02*
X389340500Y-102642000D01*
X385740500Y-99542000D02*
X389340500Y-99542000D01*
X385740500Y-102642000D02*
X385740500Y-99542000D01*
X370417500Y-102642000D02*
X366817500Y-102642000D01*
X370417500Y-99542000D02*
X370417500Y-102642000D01*
X366817500Y-99542000D02*
X370417500Y-99542000D01*
X366817500Y-102642000D02*
X366817500Y-99542000D01*
X351367500Y-102642000D02*
X347767500Y-102642000D01*
X351367500Y-99542000D02*
X351367500Y-102642000D01*
X347767500Y-99542000D02*
X351367500Y-99542000D01*
X347767500Y-102642000D02*
X347767500Y-99542000D01*
X370417500Y-83592000D02*
X366817500Y-83592000D01*
X370417500Y-80492000D02*
X370417500Y-83592000D01*
X366817500Y-80492000D02*
X370417500Y-80492000D01*
X366817500Y-83592000D02*
X366817500Y-80492000D01*
X389423500Y-45492000D02*
X385823500Y-45492000D01*
X389423500Y-42392000D02*
X389423500Y-45492000D01*
X385823500Y-42392000D02*
X389423500Y-42392000D01*
X385823500Y-45492000D02*
X385823500Y-42392000D01*
X370417500Y-45492000D02*
X366817500Y-45492000D01*
X370417500Y-42392000D02*
X370417500Y-45492000D01*
X366817500Y-42392000D02*
X370417500Y-42392000D01*
X366817500Y-45492000D02*
X366817500Y-42392000D01*
X351367500Y-45492000D02*
X347767500Y-45492000D01*
X351367500Y-42392000D02*
X351367500Y-45492000D01*
X347767500Y-42392000D02*
X351367500Y-42392000D01*
X347767500Y-45492000D02*
X347767500Y-42392000D01*
X389467500Y-26442000D02*
X385867500Y-26442000D01*
X389467500Y-23342000D02*
X389467500Y-26442000D01*
X385867500Y-23342000D02*
X389467500Y-23342000D01*
X385867500Y-26442000D02*
X385867500Y-23342000D01*
X370334500Y-26377000D02*
X366734500Y-26377000D01*
X370334500Y-23277000D02*
X370334500Y-26377000D01*
X366734500Y-23277000D02*
X370334500Y-23277000D01*
X366734500Y-26377000D02*
X366734500Y-23277000D01*
X351367500Y-26442000D02*
X347767500Y-26442000D01*
X351367500Y-23342000D02*
X351367500Y-26442000D01*
X347767500Y-23342000D02*
X351367500Y-23342000D01*
X347767500Y-26442000D02*
X347767500Y-23342000D01*
X321478500Y-102642000D02*
X321478500Y-99542000D01*
X321478500Y-99542000D02*
X325078500Y-99542000D01*
X325078500Y-99542000D02*
X325078500Y-102642000D01*
X325078500Y-102642000D02*
X321478500Y-102642000D01*
X297602500Y-102642000D02*
X297602500Y-99542000D01*
X297602500Y-99542000D02*
X301202500Y-99542000D01*
X301202500Y-99542000D02*
X301202500Y-102642000D01*
X301202500Y-102642000D02*
X297602500Y-102642000D01*
X273726500Y-102642000D02*
X273726500Y-99542000D01*
X273726500Y-99542000D02*
X277326500Y-99542000D01*
X277326500Y-99542000D02*
X277326500Y-102642000D01*
X277326500Y-102642000D02*
X273726500Y-102642000D01*
X249977500Y-102642000D02*
X249977500Y-99542000D01*
X249977500Y-99542000D02*
X253577500Y-99542000D01*
X253577500Y-99542000D02*
X253577500Y-102642000D01*
X253577500Y-102642000D02*
X249977500Y-102642000D01*
X159617000Y-83592000D02*
X159617000Y-80492000D01*
X159617000Y-80492000D02*
X163217000Y-80492000D01*
X163217000Y-80492000D02*
X163217000Y-83592000D01*
X163217000Y-83592000D02*
X159617000Y-83592000D01*
X121517000Y-83592000D02*
X121517000Y-80492000D01*
X121517000Y-80492000D02*
X125117000Y-80492000D01*
X125117000Y-80492000D02*
X125117000Y-83592000D01*
X125117000Y-83592000D02*
X121517000Y-83592000D01*
X52683000Y-83592000D02*
X52683000Y-80492000D01*
X52683000Y-80492000D02*
X56283000Y-80492000D01*
X56283000Y-80492000D02*
X56283000Y-83592000D01*
X56283000Y-83592000D02*
X52683000Y-83592000D01*
X307127500Y-83592000D02*
X307127500Y-80492000D01*
X307127500Y-80492000D02*
X310727500Y-80492000D01*
X310727500Y-80492000D02*
X310727500Y-83592000D01*
X310727500Y-83592000D02*
X307127500Y-83592000D01*
X233213500Y-83592000D02*
X233213500Y-80492000D01*
X233213500Y-80492000D02*
X236813500Y-80492000D01*
X236813500Y-80492000D02*
X236813500Y-83592000D01*
X236813500Y-83592000D02*
X233213500Y-83592000D01*
X195113500Y-83465000D02*
X195113500Y-80365000D01*
X195113500Y-80365000D02*
X198713500Y-80365000D01*
X198713500Y-80365000D02*
X198713500Y-83465000D01*
X198713500Y-83465000D02*
X195113500Y-83465000D01*
X311826500Y-64542000D02*
X311826500Y-61442000D01*
X311826500Y-61442000D02*
X315426500Y-61442000D01*
X315426500Y-61442000D02*
X315426500Y-64542000D01*
X315426500Y-64542000D02*
X311826500Y-64542000D01*
X280838500Y-64542000D02*
X280838500Y-61442000D01*
X280838500Y-61442000D02*
X284438500Y-61442000D01*
X284438500Y-61442000D02*
X284438500Y-64542000D01*
X284438500Y-64542000D02*
X280838500Y-64542000D01*
X261788500Y-64542000D02*
X261788500Y-61442000D01*
X261788500Y-61442000D02*
X265388500Y-61442000D01*
X265388500Y-61442000D02*
X265388500Y-64542000D01*
X265388500Y-64542000D02*
X261788500Y-64542000D01*
X242865500Y-64542000D02*
X242865500Y-61442000D01*
X242865500Y-61442000D02*
X246465500Y-61442000D01*
X246465500Y-61442000D02*
X246465500Y-64542000D01*
X246465500Y-64542000D02*
X242865500Y-64542000D01*
X223688500Y-64542000D02*
X223688500Y-61442000D01*
X223688500Y-61442000D02*
X227288500Y-61442000D01*
X227288500Y-61442000D02*
X227288500Y-64542000D01*
X227288500Y-64542000D02*
X223688500Y-64542000D01*
X204765500Y-64542000D02*
X204765500Y-61442000D01*
X204765500Y-61442000D02*
X208365500Y-61442000D01*
X208365500Y-61442000D02*
X208365500Y-64542000D01*
X208365500Y-64542000D02*
X204765500Y-64542000D01*
X185842500Y-64542000D02*
X185842500Y-61442000D01*
X185842500Y-61442000D02*
X189442500Y-61442000D01*
X189442500Y-61442000D02*
X189442500Y-64542000D01*
X189442500Y-64542000D02*
X185842500Y-64542000D01*
X319065500Y-45365000D02*
X319065500Y-42265000D01*
X319065500Y-42265000D02*
X322665500Y-42265000D01*
X322665500Y-42265000D02*
X322665500Y-45365000D01*
X322665500Y-45365000D02*
X319065500Y-45365000D01*
X295316500Y-45365000D02*
X295316500Y-42265000D01*
X295316500Y-42265000D02*
X298916500Y-42265000D01*
X298916500Y-42265000D02*
X298916500Y-45365000D01*
X298916500Y-45365000D02*
X295316500Y-45365000D01*
X199939500Y-45492000D02*
X199939500Y-42392000D01*
X199939500Y-42392000D02*
X203539500Y-42392000D01*
X203539500Y-42392000D02*
X203539500Y-45492000D01*
X203539500Y-45492000D02*
X199939500Y-45492000D01*
X180889500Y-45492000D02*
X180889500Y-42392000D01*
X180889500Y-42392000D02*
X184489500Y-42392000D01*
X184489500Y-42392000D02*
X184489500Y-45492000D01*
X184489500Y-45492000D02*
X180889500Y-45492000D01*
X155045000Y-26442000D02*
X155045000Y-23342000D01*
X155045000Y-23342000D02*
X158645000Y-23342000D01*
X158645000Y-23342000D02*
X158645000Y-26442000D01*
X158645000Y-26442000D02*
X155045000Y-26442000D01*
X59795000Y-26442000D02*
X59795000Y-23342000D01*
X59795000Y-23342000D02*
X63395000Y-23342000D01*
X63395000Y-23342000D02*
X63395000Y-26442000D01*
X63395000Y-26442000D02*
X59795000Y-26442000D01*
X40745000Y-26442000D02*
X40745000Y-23342000D01*
X40745000Y-23342000D02*
X44345000Y-23342000D01*
X44345000Y-23342000D02*
X44345000Y-26442000D01*
X44345000Y-26442000D02*
X40745000Y-26442000D01*
X228514500Y-26442000D02*
X228514500Y-23342000D01*
X228514500Y-23342000D02*
X232114500Y-23342000D01*
X232114500Y-23342000D02*
X232114500Y-26442000D01*
X232114500Y-26442000D02*
X228514500Y-26442000D01*
X190541500Y-26442000D02*
X190541500Y-23342000D01*
X190541500Y-23342000D02*
X194141500Y-23342000D01*
X194141500Y-23342000D02*
X194141500Y-26442000D01*
X194141500Y-26442000D02*
X190541500Y-26442000D01*
X147806000Y-102642000D02*
X147806000Y-99542000D01*
X147806000Y-99542000D02*
X151406000Y-99542000D01*
X151406000Y-99542000D02*
X151406000Y-102642000D01*
X151406000Y-102642000D02*
X147806000Y-102642000D01*
X90656000Y-102515000D02*
X90656000Y-99415000D01*
X90656000Y-99415000D02*
X94256000Y-99415000D01*
X94256000Y-99415000D02*
X94256000Y-102515000D01*
X94256000Y-102515000D02*
X90656000Y-102515000D01*
X114532000Y-102642000D02*
X114532000Y-99542000D01*
X114532000Y-99542000D02*
X118132000Y-99542000D01*
X118132000Y-99542000D02*
X118132000Y-102642000D01*
X118132000Y-102642000D02*
X114532000Y-102642000D01*
X66907000Y-102642000D02*
X66907000Y-99542000D01*
X66907000Y-99542000D02*
X70507000Y-99542000D01*
X70507000Y-99542000D02*
X70507000Y-102642000D01*
X70507000Y-102642000D02*
X66907000Y-102642000D01*
X43031000Y-102642000D02*
X43031000Y-99542000D01*
X43031000Y-99542000D02*
X46631000Y-99542000D01*
X46631000Y-99542000D02*
X46631000Y-102642000D01*
X46631000Y-102642000D02*
X43031000Y-102642000D01*
X211877500Y-102642000D02*
X211877500Y-99542000D01*
X211877500Y-99542000D02*
X215477500Y-99542000D01*
X215477500Y-99542000D02*
X215477500Y-102642000D01*
X215477500Y-102642000D02*
X211877500Y-102642000D01*
X140694000Y-83592000D02*
X140694000Y-80492000D01*
X140694000Y-80492000D02*
X144294000Y-80492000D01*
X144294000Y-80492000D02*
X144294000Y-83592000D01*
X144294000Y-83592000D02*
X140694000Y-83592000D01*
X102594000Y-83592000D02*
X102594000Y-80492000D01*
X102594000Y-80492000D02*
X106194000Y-80492000D01*
X106194000Y-80492000D02*
X106194000Y-83592000D01*
X106194000Y-83592000D02*
X102594000Y-83592000D01*
X83671000Y-83592000D02*
X83671000Y-80492000D01*
X83671000Y-80492000D02*
X87271000Y-80492000D01*
X87271000Y-80492000D02*
X87271000Y-83592000D01*
X87271000Y-83592000D02*
X83671000Y-83592000D01*
X271313500Y-83465000D02*
X271313500Y-80365000D01*
X271313500Y-80365000D02*
X274913500Y-80365000D01*
X274913500Y-80365000D02*
X274913500Y-83465000D01*
X274913500Y-83465000D02*
X271313500Y-83465000D01*
X252390500Y-83465000D02*
X252390500Y-80365000D01*
X252390500Y-80365000D02*
X255990500Y-80365000D01*
X255990500Y-80365000D02*
X255990500Y-83465000D01*
X255990500Y-83465000D02*
X252390500Y-83465000D01*
X214163500Y-83465000D02*
X214163500Y-80365000D01*
X214163500Y-80365000D02*
X217763500Y-80365000D01*
X217763500Y-80365000D02*
X217763500Y-83465000D01*
X217763500Y-83465000D02*
X214163500Y-83465000D01*
X150092000Y-64542000D02*
X150092000Y-61442000D01*
X150092000Y-61442000D02*
X153692000Y-61442000D01*
X153692000Y-61442000D02*
X153692000Y-64542000D01*
X153692000Y-64542000D02*
X150092000Y-64542000D01*
X131296000Y-64542000D02*
X131296000Y-61442000D01*
X131296000Y-61442000D02*
X134896000Y-61442000D01*
X134896000Y-61442000D02*
X134896000Y-64542000D01*
X134896000Y-64542000D02*
X131296000Y-64542000D01*
X112119000Y-64542000D02*
X112119000Y-61442000D01*
X112119000Y-61442000D02*
X115719000Y-61442000D01*
X115719000Y-61442000D02*
X115719000Y-64542000D01*
X115719000Y-64542000D02*
X112119000Y-64542000D01*
X93069000Y-64542000D02*
X93069000Y-61442000D01*
X93069000Y-61442000D02*
X96669000Y-61442000D01*
X96669000Y-61442000D02*
X96669000Y-64542000D01*
X96669000Y-64542000D02*
X93069000Y-64542000D01*
X74019000Y-64542000D02*
X74019000Y-61442000D01*
X74019000Y-61442000D02*
X77619000Y-61442000D01*
X77619000Y-61442000D02*
X77619000Y-64542000D01*
X77619000Y-64542000D02*
X74019000Y-64542000D01*
X47857000Y-64542000D02*
X47857000Y-61442000D01*
X47857000Y-61442000D02*
X51457000Y-61442000D01*
X51457000Y-61442000D02*
X51457000Y-64542000D01*
X51457000Y-64542000D02*
X47857000Y-64542000D01*
X145393000Y-45492000D02*
X145393000Y-42392000D01*
X145393000Y-42392000D02*
X148993000Y-42392000D01*
X148993000Y-42392000D02*
X148993000Y-45492000D01*
X148993000Y-45492000D02*
X145393000Y-45492000D01*
X126470000Y-45492000D02*
X126470000Y-42392000D01*
X126470000Y-42392000D02*
X130070000Y-42392000D01*
X130070000Y-42392000D02*
X130070000Y-45492000D01*
X130070000Y-45492000D02*
X126470000Y-45492000D01*
X107293000Y-45492000D02*
X107293000Y-42392000D01*
X107293000Y-42392000D02*
X110893000Y-42392000D01*
X110893000Y-42392000D02*
X110893000Y-45492000D01*
X110893000Y-45492000D02*
X107293000Y-45492000D01*
X88370000Y-45492000D02*
X88370000Y-42392000D01*
X88370000Y-42392000D02*
X91970000Y-42392000D01*
X91970000Y-42392000D02*
X91970000Y-45492000D01*
X91970000Y-45492000D02*
X88370000Y-45492000D01*
X69193000Y-45492000D02*
X69193000Y-42392000D01*
X69193000Y-42392000D02*
X72793000Y-42392000D01*
X72793000Y-42392000D02*
X72793000Y-45492000D01*
X72793000Y-45492000D02*
X69193000Y-45492000D01*
X45444000Y-45492000D02*
X45444000Y-42392000D01*
X45444000Y-42392000D02*
X49044000Y-42392000D01*
X49044000Y-42392000D02*
X49044000Y-45492000D01*
X49044000Y-45492000D02*
X45444000Y-45492000D01*
X276266500Y-45365000D02*
X276266500Y-42265000D01*
X276266500Y-42265000D02*
X279866500Y-42265000D01*
X279866500Y-42265000D02*
X279866500Y-45365000D01*
X279866500Y-45365000D02*
X276266500Y-45365000D01*
X257089500Y-45492000D02*
X257089500Y-42392000D01*
X257089500Y-42392000D02*
X260689500Y-42392000D01*
X260689500Y-42392000D02*
X260689500Y-45492000D01*
X260689500Y-45492000D02*
X257089500Y-45492000D01*
X238039500Y-45492000D02*
X238039500Y-42392000D01*
X238039500Y-42392000D02*
X241639500Y-42392000D01*
X241639500Y-42392000D02*
X241639500Y-45492000D01*
X241639500Y-45492000D02*
X238039500Y-45492000D01*
X218989500Y-45492000D02*
X218989500Y-42392000D01*
X218989500Y-42392000D02*
X222589500Y-42392000D01*
X222589500Y-42392000D02*
X222589500Y-45492000D01*
X222589500Y-45492000D02*
X218989500Y-45492000D01*
X135868000Y-26442000D02*
X135868000Y-23342000D01*
X135868000Y-23342000D02*
X139468000Y-23342000D01*
X139468000Y-23342000D02*
X139468000Y-26442000D01*
X139468000Y-26442000D02*
X135868000Y-26442000D01*
X116818000Y-26442000D02*
X116818000Y-23342000D01*
X116818000Y-23342000D02*
X120418000Y-23342000D01*
X120418000Y-23342000D02*
X120418000Y-26442000D01*
X120418000Y-26442000D02*
X116818000Y-26442000D01*
X97768000Y-26442000D02*
X97768000Y-23342000D01*
X97768000Y-23342000D02*
X101368000Y-23342000D01*
X101368000Y-23342000D02*
X101368000Y-26442000D01*
X101368000Y-26442000D02*
X97768000Y-26442000D01*
X78718000Y-26442000D02*
X78718000Y-23342000D01*
X78718000Y-23342000D02*
X82318000Y-23342000D01*
X82318000Y-23342000D02*
X82318000Y-26442000D01*
X82318000Y-26442000D02*
X78718000Y-26442000D01*
X314239500Y-26442000D02*
X314239500Y-23342000D01*
X314239500Y-23342000D02*
X317839500Y-23342000D01*
X317839500Y-23342000D02*
X317839500Y-26442000D01*
X317839500Y-26442000D02*
X314239500Y-26442000D01*
X285664500Y-26442000D02*
X285664500Y-23342000D01*
X285664500Y-23342000D02*
X289264500Y-23342000D01*
X289264500Y-23342000D02*
X289264500Y-26442000D01*
X289264500Y-26442000D02*
X285664500Y-26442000D01*
X266741500Y-26442000D02*
X266741500Y-23342000D01*
X266741500Y-23342000D02*
X270341500Y-23342000D01*
X270341500Y-23342000D02*
X270341500Y-26442000D01*
X270341500Y-26442000D02*
X266741500Y-26442000D01*
X247564500Y-26442000D02*
X247564500Y-23342000D01*
X247564500Y-23342000D02*
X251164500Y-23342000D01*
X251164500Y-23342000D02*
X251164500Y-26442000D01*
X251164500Y-26442000D02*
X247564500Y-26442000D01*
X209464500Y-26442000D02*
X209464500Y-23342000D01*
X209464500Y-23342000D02*
X213064500Y-23342000D01*
X213064500Y-23342000D02*
X213064500Y-26442000D01*
X213064500Y-26442000D02*
X209464500Y-26442000D01*
M02*
