G04 #@! TF.GenerationSoftware,KiCad,Pcbnew,(5.1.9)-1*
G04 #@! TF.CreationDate,2021-02-17T22:07:48-08:00*
G04 #@! TF.ProjectId,onigaku,6f6e6967-616b-4752-9e6b-696361645f70,rev?*
G04 #@! TF.SameCoordinates,Original*
G04 #@! TF.FileFunction,Copper,L1,Top*
G04 #@! TF.FilePolarity,Positive*
%FSLAX46Y46*%
G04 Gerber Fmt 4.6, Leading zero omitted, Abs format (unit mm)*
G04 Created by KiCad (PCBNEW (5.1.9)-1) date 2021-02-17 22:07:48*
%MOMM*%
%LPD*%
G01*
G04 APERTURE LIST*
G04 #@! TA.AperFunction,ComponentPad*
%ADD10O,1.500000X2.300000*%
G04 #@! TD*
G04 #@! TA.AperFunction,SMDPad,CuDef*
%ADD11R,1.700000X1.000000*%
G04 #@! TD*
G04 #@! TA.AperFunction,ComponentPad*
%ADD12C,1.752600*%
G04 #@! TD*
G04 #@! TA.AperFunction,ComponentPad*
%ADD13R,1.752600X1.752600*%
G04 #@! TD*
G04 #@! TA.AperFunction,ComponentPad*
%ADD14C,1.397000*%
G04 #@! TD*
G04 #@! TA.AperFunction,ViaPad*
%ADD15C,0.800000*%
G04 #@! TD*
G04 #@! TA.AperFunction,Conductor*
%ADD16C,0.381000*%
G04 #@! TD*
G04 #@! TA.AperFunction,Conductor*
%ADD17C,0.254000*%
G04 #@! TD*
G04 APERTURE END LIST*
D10*
X172212000Y-24301000D03*
X172212000Y-27301000D03*
X172212000Y-31301000D03*
X167912000Y-32801000D03*
X181283500Y-24174000D03*
X181283500Y-27174000D03*
X181283500Y-31174000D03*
X176983500Y-32674000D03*
D11*
X19365000Y-58933000D03*
X25665000Y-58933000D03*
X19365000Y-62733000D03*
X25665000Y-62733000D03*
X410704500Y-62733000D03*
X404404500Y-62733000D03*
X410704500Y-58933000D03*
X404404500Y-58933000D03*
D12*
X17435000Y-52164000D03*
X19975000Y-52164000D03*
X22515000Y-52164000D03*
X25055000Y-52164000D03*
X27595000Y-52164000D03*
X30135000Y-24224000D03*
X15123600Y-52164000D03*
X30135000Y-26764000D03*
X30135000Y-29304000D03*
X30135000Y-31844000D03*
X30135000Y-34384000D03*
X30135000Y-36924000D03*
X30135000Y-39464000D03*
X30135000Y-42004000D03*
X30135000Y-44544000D03*
X30135000Y-47084000D03*
X30135000Y-49624000D03*
X30135000Y-52164000D03*
X14895000Y-49624000D03*
X14895000Y-47084000D03*
X14895000Y-44544000D03*
X14895000Y-42004000D03*
X14895000Y-39464000D03*
X14895000Y-36924000D03*
X14895000Y-34384000D03*
X14895000Y-31844000D03*
X14895000Y-29304000D03*
X14895000Y-26764000D03*
D13*
X14895000Y-24224000D03*
D14*
X18669000Y-73787000D03*
X21209000Y-73787000D03*
X23749000Y-73787000D03*
X26289000Y-73787000D03*
X403744500Y-73787000D03*
X406284500Y-73787000D03*
X408824500Y-73787000D03*
X411364500Y-73787000D03*
D12*
X402807500Y-52164000D03*
X405347500Y-52164000D03*
X407887500Y-52164000D03*
X410427500Y-52164000D03*
X412967500Y-52164000D03*
X415507500Y-24224000D03*
X400496100Y-52164000D03*
X415507500Y-26764000D03*
X415507500Y-29304000D03*
X415507500Y-31844000D03*
X415507500Y-34384000D03*
X415507500Y-36924000D03*
X415507500Y-39464000D03*
X415507500Y-42004000D03*
X415507500Y-44544000D03*
X415507500Y-47084000D03*
X415507500Y-49624000D03*
X415507500Y-52164000D03*
X400267500Y-49624000D03*
X400267500Y-47084000D03*
X400267500Y-44544000D03*
X400267500Y-42004000D03*
X400267500Y-39464000D03*
X400267500Y-36924000D03*
X400267500Y-34384000D03*
X400267500Y-31844000D03*
X400267500Y-29304000D03*
X400267500Y-26764000D03*
D13*
X400267500Y-24224000D03*
D15*
X38452490Y-100457000D03*
X32004000Y-43053000D03*
X32004004Y-28067010D03*
X397052029Y-28842471D03*
X397065500Y-42291000D03*
X392366500Y-90501823D03*
X392493494Y-98044000D03*
X392401490Y-76073000D03*
X391883979Y-60553521D03*
X407733500Y-62738000D03*
X32258000Y-21986991D03*
X36325052Y-61468000D03*
X25654000Y-61087000D03*
X38608000Y-72771000D03*
X34925000Y-29083000D03*
X37322032Y-54610000D03*
X390842500Y-34671000D03*
X391096500Y-40259000D03*
X199326500Y-34544000D03*
X189928500Y-48641000D03*
X189928500Y-53721000D03*
X194627500Y-67564000D03*
X194627500Y-72771000D03*
X220789500Y-105029000D03*
X204625510Y-86106000D03*
X204681569Y-91418940D03*
X199453500Y-29591000D03*
X199580500Y-23368000D03*
X413067500Y-23749000D03*
X38354000Y-46990000D03*
X37338000Y-55626000D03*
X35052000Y-65913000D03*
X31750000Y-54356000D03*
X397627926Y-48695426D03*
X392401490Y-63642969D03*
X34671000Y-84582000D03*
X31750000Y-55372000D03*
X393071489Y-93101974D03*
X398081500Y-50800000D03*
X34289994Y-103759000D03*
X31750000Y-56515000D03*
X166751000Y-21717000D03*
X166920475Y-30691525D03*
X240925067Y-39427433D03*
X246316500Y-39497000D03*
X283146500Y-25908000D03*
X280733500Y-41909998D03*
X253936500Y-43815000D03*
X271462500Y-23025021D03*
X242506500Y-42037000D03*
X244792500Y-25654000D03*
X252031500Y-22733000D03*
X225869500Y-25400000D03*
X187769500Y-25273000D03*
X214058500Y-22761510D03*
X138811000Y-74866500D03*
X140589000Y-60071000D03*
X140702032Y-40753032D03*
X133223000Y-57277000D03*
X192341500Y-76581000D03*
X206057500Y-96774000D03*
X338010500Y-39751000D03*
X344233500Y-39751000D03*
X212915500Y-96393000D03*
X207454500Y-95758000D03*
X178371500Y-44577000D03*
X195135500Y-23015510D03*
X204660500Y-42037000D03*
X206565500Y-25781000D03*
X216344500Y-44196000D03*
X232981500Y-23025021D03*
X263906000Y-24511000D03*
X290322000Y-22987000D03*
X65786000Y-24130000D03*
X76073000Y-25654000D03*
X199542225Y-80038500D03*
X208978500Y-101600000D03*
X411607000Y-29718000D03*
X56769000Y-67691000D03*
X49657000Y-34290000D03*
X54356000Y-49022000D03*
X56769000Y-72263000D03*
X52197000Y-106172000D03*
X51943000Y-35306000D03*
X54384361Y-52774959D03*
X68580000Y-34671000D03*
X61595000Y-86741000D03*
X75819000Y-105664000D03*
X63386000Y-35966489D03*
X61595000Y-91147979D03*
X87757000Y-34671000D03*
X78105000Y-53975000D03*
X83058000Y-67310000D03*
X83185000Y-73025000D03*
X92583000Y-86487000D03*
X99695000Y-105918000D03*
X78232000Y-49022000D03*
X82169000Y-36293490D03*
X92583000Y-91528979D03*
X97282000Y-53467000D03*
X101981000Y-67056000D03*
X102108000Y-72390000D03*
X111633000Y-86487000D03*
X123571000Y-105791000D03*
X97155000Y-48895000D03*
X106807000Y-34324990D03*
X111506000Y-91655979D03*
X99123500Y-55279990D03*
X116332000Y-53213000D03*
X121158000Y-67818000D03*
X121031000Y-72644000D03*
X116332000Y-49149000D03*
X125857000Y-34162992D03*
X130556000Y-85090000D03*
X116205000Y-55245000D03*
X130556000Y-91655979D03*
X144907000Y-34353500D03*
X137033000Y-49022000D03*
X139884430Y-72701421D03*
X141605000Y-67818000D03*
X137287000Y-52070000D03*
X149606000Y-85471000D03*
X151638000Y-91439996D03*
X36506011Y-92329000D03*
X163957000Y-34671000D03*
X154432000Y-48260000D03*
X154432000Y-53721000D03*
X159385000Y-67691000D03*
X159131000Y-73152000D03*
X168783000Y-87249000D03*
X168656000Y-91694000D03*
X160528000Y-108458000D03*
X35814000Y-114300000D03*
X208978500Y-48514000D03*
X217233500Y-34925000D03*
X208851500Y-53467000D03*
X213677500Y-67564000D03*
X213677500Y-72644000D03*
X223202500Y-86868000D03*
X218757500Y-21971000D03*
X218757500Y-29845000D03*
X411670500Y-23968010D03*
X237553500Y-34925000D03*
X232727500Y-66929000D03*
X232727500Y-72771000D03*
X242252500Y-85725000D03*
X227901500Y-53213006D03*
X228028500Y-48895000D03*
X410764754Y-24391836D03*
X237553500Y-29845000D03*
X237553500Y-22196490D03*
X251777500Y-67564000D03*
X251777500Y-73025000D03*
X261302500Y-86741000D03*
X261302500Y-91821000D03*
X261302500Y-105156000D03*
X256578100Y-34340800D03*
X246824500Y-53213000D03*
X246951500Y-48641000D03*
X255714510Y-76962000D03*
X395668500Y-64897006D03*
X412369018Y-44323000D03*
X285559500Y-105918000D03*
X280352500Y-91694000D03*
X275653500Y-34163000D03*
X266128500Y-49022000D03*
X266128500Y-53467000D03*
X270954500Y-72517000D03*
X271208500Y-67691000D03*
X272542000Y-75882500D03*
X280352500Y-87249000D03*
X396684500Y-63754000D03*
X412368996Y-46863000D03*
X285178500Y-53594000D03*
X289877500Y-67437000D03*
X285178500Y-46101000D03*
X294576500Y-34671000D03*
X292026892Y-73015392D03*
X397383000Y-62801500D03*
X412369000Y-48641000D03*
X330771500Y-105283000D03*
X328104500Y-53594000D03*
X328104500Y-48895000D03*
X323278500Y-34070990D03*
X330771500Y-61595000D03*
X398843500Y-61341000D03*
X411734000Y-55372000D03*
X306768500Y-105791000D03*
X316039500Y-91440000D03*
X316293500Y-86995000D03*
X305244500Y-53467000D03*
X320992500Y-68072000D03*
X320611500Y-73152000D03*
X398116497Y-62103007D03*
X412368998Y-50292002D03*
X182562500Y-21590000D03*
X398081500Y-20281979D03*
X202888567Y-39236933D03*
X208724500Y-39624000D03*
X278739318Y-39840182D03*
X284670500Y-39751000D03*
X86995000Y-40005000D03*
X81534000Y-39878000D03*
X243014500Y-96774000D03*
X236029500Y-95631000D03*
X269938500Y-96520000D03*
X262826500Y-95631000D03*
X294703500Y-97155000D03*
X287337500Y-95885000D03*
X292544500Y-44323000D03*
X318706500Y-22971032D03*
X103759000Y-24130000D03*
X114173000Y-25400000D03*
X152400000Y-25654000D03*
X141859000Y-24130000D03*
X209232500Y-61087000D03*
X197167500Y-44958000D03*
X261810500Y-41783000D03*
X259016500Y-62992000D03*
X299910500Y-41529000D03*
X309054500Y-63528521D03*
X316293500Y-44704000D03*
X326072500Y-99060000D03*
X237680500Y-80010000D03*
X211137500Y-82804000D03*
X249745500Y-82677000D03*
X254571500Y-99060000D03*
X275710933Y-80079567D03*
X270827500Y-100965000D03*
X416658500Y-38227000D03*
X417193478Y-36576000D03*
X16778441Y-74534559D03*
X15748000Y-74549000D03*
X311721500Y-39878000D03*
X317563500Y-39878000D03*
X116586000Y-38227000D03*
X109601000Y-39624000D03*
X199834500Y-60042500D03*
X196786500Y-38481000D03*
X394525500Y-104521000D03*
X398081504Y-52197000D03*
X323659500Y-41910000D03*
X311522029Y-26063510D03*
X46990000Y-24130000D03*
X42926000Y-44196000D03*
X185483500Y-41910000D03*
X183197500Y-63246000D03*
X190309500Y-61087000D03*
X191325500Y-82550000D03*
X201993500Y-63627000D03*
X218376500Y-79883000D03*
X228155500Y-60706000D03*
X230060500Y-82169000D03*
X239839500Y-63881000D03*
X256821309Y-80009999D03*
X266382500Y-60706000D03*
X268287500Y-82677000D03*
X277939500Y-63627000D03*
X302196500Y-98171000D03*
X316166500Y-61115500D03*
X304101500Y-81915000D03*
X311594500Y-80165500D03*
X294703500Y-100584000D03*
X278193500Y-99314000D03*
X277304500Y-103302000D03*
X397954500Y-26797000D03*
X28194000Y-23114000D03*
X247586500Y-37211000D03*
X140462000Y-56134000D03*
X139779501Y-64817499D03*
X145700490Y-84042510D03*
X145415000Y-75403000D03*
X60907501Y-83872499D03*
X60833000Y-74930000D03*
X39751000Y-103251000D03*
X153394490Y-103092510D03*
X153416000Y-94107000D03*
X106934004Y-102997000D03*
X33528000Y-45720000D03*
X33147000Y-26543000D03*
X32794510Y-33020000D03*
X37338000Y-63246000D03*
X396049500Y-34544000D03*
X396049494Y-29718000D03*
X395287500Y-44577000D03*
X53467000Y-46101000D03*
X50292000Y-37210988D03*
X97536000Y-45720000D03*
X97028000Y-37211000D03*
X57964490Y-102309510D03*
X57912000Y-95504000D03*
X106172000Y-95504000D03*
X135382000Y-103124000D03*
X134874000Y-94834000D03*
X56642000Y-64897000D03*
X56562522Y-56896000D03*
X393763500Y-103632000D03*
X221678500Y-95504000D03*
X221805500Y-102489000D03*
X374967500Y-101981000D03*
X374713500Y-94488000D03*
X356425500Y-93726000D03*
X356171500Y-103378000D03*
X329755500Y-92583000D03*
X329501500Y-102235000D03*
X306260500Y-93980000D03*
X282511500Y-103632000D03*
X258508508Y-102743000D03*
X205549500Y-83947000D03*
X205295500Y-75311000D03*
X213550500Y-64770000D03*
X211137500Y-57531000D03*
X375383500Y-44958000D03*
X374967500Y-36830000D03*
X331533500Y-45847000D03*
X331533497Y-37211003D03*
X286321500Y-44704000D03*
X286321500Y-36830000D03*
X247459500Y-45212000D03*
X209867500Y-44831000D03*
X209052500Y-38153000D03*
X306006500Y-102743000D03*
X282765500Y-94233996D03*
X258508500Y-93726000D03*
X391702990Y-70358000D03*
X391731500Y-79121000D03*
X391992815Y-56353010D03*
X391702990Y-94361000D03*
X39243004Y-81407000D03*
X39643003Y-75291997D03*
X391093469Y-62484000D03*
X121189490Y-36861490D03*
X121158000Y-45085000D03*
X84836000Y-24257000D03*
X66548000Y-43942000D03*
X122936000Y-24130000D03*
X104775000Y-44450000D03*
X161000249Y-24349685D03*
X142875000Y-44450000D03*
X352234500Y-99187000D03*
X346900500Y-104394000D03*
X394652500Y-94361000D03*
X18415000Y-56515002D03*
X192468500Y-57404000D03*
X198056500Y-77851000D03*
X368236500Y-40992500D03*
X367093500Y-71755000D03*
X50419000Y-77978000D03*
X45212000Y-58039000D03*
X146558000Y-78994000D03*
X149388114Y-94439737D03*
X126076000Y-96682000D03*
X123917000Y-94523000D03*
X45339000Y-63119000D03*
X50038000Y-42037000D03*
X97663000Y-60960000D03*
X85598000Y-44704000D03*
X123698000Y-44704000D03*
X135763000Y-61087000D03*
X52324000Y-60960000D03*
X40386000Y-101600000D03*
X78613000Y-61087000D03*
X80899000Y-82550000D03*
X116586000Y-60988500D03*
X118999000Y-82422994D03*
X154686000Y-60960000D03*
X156972000Y-82486502D03*
X71247000Y-98933000D03*
X49784000Y-82550000D03*
X63119000Y-93599000D03*
X55608566Y-93170485D03*
X118872000Y-99187000D03*
X99949000Y-82677000D03*
X47625000Y-99187000D03*
X51435000Y-101346000D03*
X98806000Y-101092000D03*
X95109032Y-98946968D03*
X356298500Y-34036000D03*
X356933500Y-48895000D03*
X356298500Y-53121000D03*
X357314500Y-106172000D03*
X357314501Y-56260999D03*
X375348500Y-34417000D03*
X376110500Y-48768000D03*
X375602500Y-52994000D03*
X376110500Y-86995000D03*
X375983500Y-91948000D03*
X376364500Y-106172000D03*
X376110500Y-55499000D03*
X394652500Y-34036000D03*
X394497000Y-48895000D03*
X394652500Y-53340000D03*
X394560490Y-105918000D03*
X345122500Y-44069000D03*
X352615500Y-22987000D03*
X345122506Y-25146000D03*
X371165327Y-22955032D03*
X364172500Y-25654000D03*
X371476624Y-42280327D03*
X383222500Y-24003000D03*
X394906500Y-23876000D03*
X352234500Y-41910000D03*
X344741500Y-100965000D03*
X390080500Y-99060000D03*
X389953500Y-103378000D03*
X57150000Y-25527000D03*
X57555261Y-80010000D03*
X95250000Y-25654000D03*
X92964000Y-41910000D03*
X133350000Y-25654000D03*
X131064000Y-42037000D03*
X73722782Y-41974218D03*
X70358000Y-63246000D03*
X111760000Y-42065500D03*
X109474000Y-63119000D03*
X149860000Y-42065500D03*
X147447000Y-63373000D03*
X90297000Y-63627000D03*
X107188000Y-80137000D03*
X128825692Y-63155986D03*
X145158795Y-80145322D03*
X88137282Y-80038500D03*
X87630000Y-101599996D03*
X125857000Y-80264000D03*
X129667000Y-83185000D03*
X164096532Y-80038500D03*
X145161000Y-100965000D03*
X236816900Y-45872400D03*
X247332500Y-60960000D03*
X273494500Y-44577000D03*
X285305500Y-60959999D03*
X383222500Y-44577000D03*
X390461500Y-22952010D03*
X371411500Y-79756000D03*
X365950500Y-45847000D03*
X390334500Y-42037000D03*
X383095500Y-101600000D03*
X371284500Y-99060000D03*
X365950500Y-84201000D03*
X318884468Y-97866032D03*
X310832500Y-95504000D03*
X379666500Y-88265002D03*
X384238500Y-73406000D03*
X346519500Y-96901000D03*
X335216500Y-95504000D03*
X369252500Y-96393000D03*
X358330500Y-95631000D03*
X379285500Y-57531000D03*
X385127500Y-89408000D03*
X223583500Y-42065500D03*
X221043500Y-63246000D03*
X53721000Y-39878000D03*
X48133000Y-39878000D03*
X86233000Y-97028000D03*
X85217000Y-94742000D03*
X40513000Y-57277000D03*
X40640000Y-39116000D03*
X58547000Y-74041000D03*
X59436000Y-98171000D03*
D16*
X32004000Y-28067014D02*
X32004004Y-28067010D01*
X32004000Y-43053000D02*
X32004000Y-28067014D01*
X397052029Y-42277529D02*
X397065500Y-42291000D01*
X397052029Y-28842471D02*
X397052029Y-42277529D01*
X397065500Y-42291000D02*
X396293990Y-43062510D01*
X396293990Y-43062510D02*
X396293990Y-54854490D01*
X392366500Y-90501823D02*
X392528490Y-90339833D01*
X392528490Y-90339833D02*
X392528490Y-76200000D01*
X392528490Y-76200000D02*
X392401490Y-76073000D01*
X392280987Y-93540431D02*
X392493494Y-93752938D01*
X392493494Y-93752938D02*
X392493494Y-98044000D01*
X392280987Y-90587336D02*
X392280987Y-93540431D01*
X392366500Y-90501823D02*
X392280987Y-90587336D01*
X396293990Y-54854490D02*
X391883979Y-59264501D01*
X391883979Y-59264501D02*
X391883979Y-60553521D01*
X19365000Y-58933000D02*
X25665000Y-58933000D01*
X404409500Y-62738000D02*
X404404500Y-62733000D01*
X407733500Y-62738000D02*
X404409500Y-62738000D01*
X410699500Y-62738000D02*
X410704500Y-62733000D01*
X407733500Y-62738000D02*
X410699500Y-62738000D01*
X32004004Y-22240987D02*
X32258000Y-21986991D01*
X32004004Y-28067010D02*
X32004004Y-22240987D01*
X35944052Y-53361181D02*
X35944052Y-57408909D01*
X32004000Y-43053000D02*
X32004000Y-49421129D01*
X32004000Y-49421129D02*
X35944052Y-53361181D01*
X35944052Y-57408909D02*
X36325052Y-57789909D01*
X36325052Y-57789909D02*
X36325052Y-61468000D01*
X25665000Y-61076000D02*
X25654000Y-61087000D01*
X25665000Y-58933000D02*
X25665000Y-61076000D01*
X38608000Y-65786000D02*
X38608000Y-72771000D01*
X38452490Y-100457000D02*
X38452490Y-72926510D01*
X38452490Y-72926510D02*
X38608000Y-72771000D01*
X36325052Y-63503052D02*
X38608000Y-65786000D01*
X36325052Y-61468000D02*
X36325052Y-63503052D01*
X392528490Y-65298322D02*
X392528490Y-75946000D01*
X391610988Y-64380820D02*
X392528490Y-65298322D01*
X391610988Y-63263527D02*
X391610988Y-64380820D01*
X391883979Y-59264501D02*
X391883979Y-62990536D01*
X391883979Y-62990536D02*
X391610988Y-63263527D01*
X392528490Y-75946000D02*
X392401490Y-76073000D01*
D17*
X34925000Y-29083000D02*
X37322032Y-31480032D01*
X37322032Y-31480032D02*
X37322032Y-54610000D01*
X390842500Y-40005000D02*
X391096500Y-40259000D01*
X390842500Y-34671000D02*
X390842500Y-40005000D01*
X189928500Y-43942000D02*
X189928500Y-48641000D01*
X199326500Y-34544000D02*
X189928500Y-43942000D01*
X194627500Y-62230000D02*
X194627500Y-67564000D01*
X192214500Y-59817000D02*
X194627500Y-62230000D01*
X190436500Y-59817000D02*
X192214500Y-59817000D01*
X189928500Y-59309000D02*
X190436500Y-59817000D01*
X189928500Y-53721000D02*
X189928500Y-59309000D01*
X220789500Y-105029000D02*
X220789500Y-97536000D01*
X220789500Y-97536000D02*
X217106500Y-93853000D01*
X217106500Y-93853000D02*
X207115629Y-93853000D01*
X207115629Y-93853000D02*
X204681569Y-91418940D01*
X204625510Y-83785010D02*
X204625510Y-86106000D01*
X199961500Y-79121000D02*
X204625510Y-83785010D01*
X198056500Y-79121000D02*
X199961500Y-79121000D01*
X194627500Y-75692000D02*
X198056500Y-79121000D01*
X194627500Y-72771000D02*
X194627500Y-75692000D01*
X199453500Y-29591000D02*
X199453500Y-23495000D01*
X199453500Y-23495000D02*
X199580500Y-23368000D01*
X413242021Y-32118521D02*
X413242021Y-23923521D01*
X413242021Y-23923521D02*
X413067500Y-23749000D01*
X415507500Y-34384000D02*
X413242021Y-32118521D01*
X38354000Y-46990000D02*
X38100000Y-47244000D01*
X38100000Y-54864000D02*
X37338000Y-55626000D01*
X38100000Y-47244000D02*
X38100000Y-54864000D01*
X33909000Y-55949315D02*
X32315685Y-54356000D01*
X32315685Y-54356000D02*
X31750000Y-54356000D01*
X34436020Y-56476335D02*
X32315685Y-54356000D01*
X34690020Y-65551020D02*
X34690020Y-58170884D01*
X35052000Y-65913000D02*
X34690020Y-65551020D01*
X34690020Y-58170884D02*
X34436022Y-57916886D01*
X34436022Y-57916886D02*
X34436020Y-56476335D01*
X396811500Y-57735524D02*
X392401490Y-62145534D01*
X397627926Y-48695426D02*
X396811500Y-49511852D01*
X396811500Y-49511852D02*
X396811500Y-57735524D01*
X392401490Y-62145534D02*
X392401490Y-63642969D01*
X33982011Y-56969011D02*
X32385000Y-55372000D01*
X33982011Y-58104943D02*
X33982011Y-56969011D01*
X34236010Y-58358942D02*
X33982011Y-58104943D01*
X32385000Y-55372000D02*
X31750000Y-55372000D01*
X34236011Y-84147011D02*
X34236010Y-58358942D01*
X34671000Y-84582000D02*
X34236011Y-84147011D01*
X397354495Y-51527005D02*
X398081500Y-50800000D01*
X397354495Y-57834597D02*
X397354495Y-51527005D01*
X393128500Y-62060592D02*
X397354495Y-57834597D01*
X393128500Y-93044963D02*
X393128500Y-62060592D01*
X393071489Y-93101974D02*
X393128500Y-93044963D01*
X33782000Y-103251006D02*
X33782000Y-58547000D01*
X34289994Y-103759000D02*
X33782000Y-103251006D01*
X33782000Y-58547000D02*
X31750000Y-56515000D01*
X166751000Y-30522050D02*
X166920475Y-30691525D01*
X166751000Y-21717000D02*
X166751000Y-30522050D01*
X246246933Y-39427433D02*
X246316500Y-39497000D01*
X240925067Y-39427433D02*
X246246933Y-39427433D01*
X280058812Y-41909998D02*
X280733500Y-41909998D01*
X280026804Y-41877990D02*
X280058812Y-41909998D01*
X279748991Y-41877990D02*
X280026804Y-41877990D01*
X277939500Y-40068499D02*
X279748991Y-41877990D01*
X277939500Y-31115000D02*
X277939500Y-40068499D01*
X283146500Y-25908000D02*
X277939500Y-31115000D01*
X271424479Y-22987000D02*
X271462500Y-23025021D01*
X270501804Y-22954990D02*
X270533814Y-22987000D01*
X266581196Y-22954990D02*
X270501804Y-22954990D01*
X262152749Y-35598751D02*
X262152749Y-27383437D01*
X270533814Y-22987000D02*
X271424479Y-22987000D01*
X262152749Y-27383437D02*
X266581196Y-22954990D01*
X253936500Y-43815000D02*
X262152749Y-35598751D01*
X239331500Y-31115000D02*
X244792500Y-25654000D01*
X239331500Y-38862000D02*
X239331500Y-31115000D01*
X242506500Y-42037000D02*
X239331500Y-38862000D01*
X229800011Y-21469489D02*
X225869500Y-25400000D01*
X252031500Y-22733000D02*
X250767989Y-21469489D01*
X250767989Y-21469489D02*
X229800011Y-21469489D01*
X187769500Y-25273000D02*
X190817500Y-22225000D01*
X190817500Y-22225000D02*
X213521990Y-22225000D01*
X213521990Y-22225000D02*
X214058500Y-22761510D01*
X140589000Y-67104462D02*
X140589000Y-60071000D01*
X138811000Y-68882462D02*
X140589000Y-67104462D01*
X138811000Y-74866500D02*
X138811000Y-68882462D01*
X134638999Y-46816065D02*
X134638999Y-55861001D01*
X140702032Y-40753032D02*
X134638999Y-46816065D01*
X134638999Y-55861001D02*
X133223000Y-57277000D01*
X193992500Y-87052685D02*
X203713815Y-96774000D01*
X203713815Y-96774000D02*
X206057500Y-96774000D01*
X193992500Y-78232000D02*
X193992500Y-87052685D01*
X192341500Y-76581000D02*
X193992500Y-78232000D01*
X338010500Y-39751000D02*
X344233500Y-39751000D01*
X208089500Y-96393000D02*
X207454500Y-95758000D01*
X212915500Y-96393000D02*
X208089500Y-96393000D01*
X195135500Y-25995314D02*
X195135500Y-23015510D01*
X193916815Y-27213999D02*
X195135500Y-25995314D01*
X190908501Y-27213999D02*
X193916815Y-27213999D01*
X178371500Y-44577000D02*
X178371500Y-44323000D01*
X188506751Y-30203961D02*
X188506751Y-29615749D01*
X183624510Y-35086202D02*
X188506751Y-30203961D01*
X188506751Y-29615749D02*
X190908501Y-27213999D01*
X183624510Y-39069990D02*
X183624510Y-35086202D01*
X178371500Y-44323000D02*
X183624510Y-39069990D01*
X201612500Y-30734000D02*
X206565500Y-25781000D01*
X201612500Y-38989000D02*
X201612500Y-30734000D01*
X204660500Y-42037000D02*
X201612500Y-38989000D01*
X226606751Y-29009249D02*
X228786990Y-26829010D01*
X216344500Y-44196000D02*
X216344500Y-43492288D01*
X228786990Y-26829010D02*
X232274804Y-26829010D01*
X216344500Y-43492288D02*
X226606751Y-33230037D01*
X232274804Y-26829010D02*
X232981500Y-26122314D01*
X226606751Y-33230037D02*
X226606751Y-29009249D01*
X232981500Y-26122314D02*
X232981500Y-23025021D01*
X263906000Y-24511000D02*
X266118980Y-22298020D01*
X289633020Y-22298020D02*
X290322000Y-22987000D01*
X266118980Y-22298020D02*
X289633020Y-22298020D01*
X74549000Y-24130000D02*
X76073000Y-25654000D01*
X65786000Y-24130000D02*
X74549000Y-24130000D01*
X199542225Y-80038500D02*
X203898500Y-84394775D01*
X203898500Y-84394775D02*
X203898500Y-93412038D01*
X203898500Y-93412038D02*
X208978500Y-98492038D01*
X208978500Y-98492038D02*
X208978500Y-101600000D01*
X19365000Y-62733000D02*
X25665000Y-62733000D01*
X27051000Y-61347000D02*
X25665000Y-62733000D01*
X26258301Y-34380699D02*
X26258301Y-57246301D01*
X28194000Y-32445000D02*
X26258301Y-34380699D01*
X28194000Y-31115000D02*
X28194000Y-32445000D01*
X27051000Y-58039000D02*
X27051000Y-61347000D01*
X30005000Y-29304000D02*
X28194000Y-31115000D01*
X26258301Y-57246301D02*
X27051000Y-58039000D01*
X30135000Y-29304000D02*
X30005000Y-29304000D01*
X410704500Y-58933000D02*
X404404500Y-58933000D01*
X414170801Y-39393801D02*
X411607000Y-36830000D01*
X411607000Y-36830000D02*
X411607000Y-29718000D01*
X414170801Y-55466699D02*
X414170801Y-39393801D01*
X410704500Y-58933000D02*
X414170801Y-55466699D01*
X56434249Y-101934751D02*
X52197000Y-106172000D01*
X56434249Y-88404039D02*
X56434249Y-101934751D01*
X56828251Y-88010037D02*
X56434249Y-88404039D01*
X56828251Y-72322251D02*
X56828251Y-88010037D01*
X56769000Y-72263000D02*
X56828251Y-72322251D01*
X50927000Y-34290000D02*
X51943000Y-35306000D01*
X49657000Y-34290000D02*
X50927000Y-34290000D01*
X52293871Y-35306000D02*
X51943000Y-35306000D01*
X55381511Y-38393640D02*
X52293871Y-35306000D01*
X54356000Y-49022000D02*
X55381511Y-47996489D01*
X55381511Y-47996489D02*
X55381511Y-38393640D01*
X54384361Y-65306361D02*
X54384361Y-52774959D01*
X56769000Y-67691000D02*
X54384361Y-65306361D01*
X61595000Y-86741000D02*
X63534999Y-84801001D01*
X63534999Y-84801001D02*
X63534999Y-39716001D01*
X63487511Y-36068000D02*
X63386000Y-35966489D01*
X67183000Y-36068000D02*
X63487511Y-36068000D01*
X63534999Y-39716001D02*
X67183000Y-36068000D01*
X67183000Y-36068000D02*
X68580000Y-34671000D01*
X75819000Y-99949000D02*
X67017979Y-91147979D01*
X67017979Y-91147979D02*
X61595000Y-91147979D01*
X75819000Y-105664000D02*
X75819000Y-99949000D01*
X83185000Y-73025000D02*
X87503000Y-77343000D01*
X87503000Y-77343000D02*
X89916000Y-77343000D01*
X92583000Y-80010000D02*
X92583000Y-86487000D01*
X89916000Y-77343000D02*
X92583000Y-80010000D01*
X80933999Y-57816461D02*
X83058000Y-59940462D01*
X80933999Y-56803999D02*
X80933999Y-57816461D01*
X83058000Y-59940462D02*
X83058000Y-67310000D01*
X78105000Y-53975000D02*
X79502000Y-55372000D01*
X79502000Y-55372000D02*
X80933999Y-56803999D01*
X78232000Y-40230490D02*
X82169000Y-36293490D01*
X78232000Y-49022000D02*
X78232000Y-40230490D01*
X86134510Y-36293490D02*
X82169000Y-36293490D01*
X87757000Y-34671000D02*
X86134510Y-36293490D01*
X99695000Y-105918000D02*
X99695000Y-98640979D01*
X99695000Y-98640979D02*
X92583000Y-91528979D01*
X102108000Y-72390000D02*
X104775000Y-75057000D01*
X104775000Y-75057000D02*
X110490000Y-75057000D01*
X111633000Y-76200000D02*
X111633000Y-86487000D01*
X110490000Y-75057000D02*
X111633000Y-76200000D01*
X123571000Y-105791000D02*
X123571000Y-97790000D01*
X123571000Y-97790000D02*
X117436979Y-91655979D01*
X117436979Y-91655979D02*
X111506000Y-91655979D01*
X99314000Y-41817990D02*
X106807000Y-34324990D01*
X99314000Y-46736000D02*
X99314000Y-41817990D01*
X97155000Y-48895000D02*
X99314000Y-46736000D01*
X97282000Y-53467000D02*
X99094990Y-55279990D01*
X101981000Y-67056000D02*
X99123500Y-64198500D01*
X99094990Y-55279990D02*
X99123500Y-55279990D01*
X99123500Y-64198500D02*
X99123500Y-55279990D01*
X120650000Y-67310000D02*
X121158000Y-67818000D01*
X120650000Y-57531000D02*
X120650000Y-67310000D01*
X116332000Y-53213000D02*
X120650000Y-57531000D01*
X121031000Y-72644000D02*
X122054068Y-72644000D01*
X130556000Y-81145932D02*
X130556000Y-85090000D01*
X124463534Y-75053466D02*
X130556000Y-81145932D01*
X122054068Y-72644000D02*
X124463534Y-75053466D01*
X116332000Y-53213000D02*
X116332000Y-55118000D01*
X116332000Y-55118000D02*
X116205000Y-55245000D01*
X122555008Y-34162992D02*
X125857000Y-34162992D01*
X117157500Y-39560500D02*
X122555008Y-34162992D01*
X117157500Y-48323500D02*
X117157500Y-39560500D01*
X116332000Y-49149000D02*
X117157500Y-48323500D01*
X141668500Y-44386500D02*
X137033000Y-49022000D01*
X144907000Y-34353500D02*
X141668500Y-37592000D01*
X141668500Y-37592000D02*
X141668500Y-44386500D01*
X144078957Y-72701421D02*
X149606000Y-78228464D01*
X149606000Y-78228464D02*
X149606000Y-85471000D01*
X139884430Y-72701421D02*
X144078957Y-72701421D01*
X141605000Y-67818000D02*
X141605000Y-55695315D01*
X141605000Y-55695315D02*
X140265685Y-54356000D01*
X140265685Y-54356000D02*
X139319000Y-54356000D01*
X139319000Y-54102000D02*
X139319000Y-54356000D01*
X137287000Y-52070000D02*
X139319000Y-54102000D01*
X149606000Y-85471000D02*
X151638000Y-87503000D01*
X151638000Y-87503000D02*
X151638000Y-91439996D01*
X36506011Y-65648979D02*
X36506011Y-92329000D01*
X35598042Y-64741010D02*
X36506011Y-65648979D01*
X35598042Y-57794770D02*
X35598042Y-64741010D01*
X35344042Y-57540770D02*
X35598042Y-57794770D01*
X35344042Y-53493042D02*
X35344042Y-57540770D01*
X31338301Y-49487301D02*
X35344042Y-53493042D01*
X31338301Y-49046415D02*
X31338301Y-49487301D01*
X30135000Y-47843114D02*
X31338301Y-49046415D01*
X30135000Y-47084000D02*
X30135000Y-47843114D01*
X154432000Y-40005000D02*
X154432000Y-48260000D01*
X156591000Y-37846000D02*
X154432000Y-40005000D01*
X160782000Y-37846000D02*
X156591000Y-37846000D01*
X163957000Y-34671000D02*
X160782000Y-37846000D01*
X159385000Y-62738000D02*
X159385000Y-67691000D01*
X154432000Y-57785000D02*
X159385000Y-62738000D01*
X154432000Y-53721000D02*
X154432000Y-57785000D01*
X168656000Y-91694000D02*
X168656000Y-102362000D01*
X162560000Y-108458000D02*
X160528000Y-108458000D01*
X168656000Y-102362000D02*
X162560000Y-108458000D01*
X168529000Y-78994000D02*
X168783000Y-79248000D01*
X168783000Y-79248000D02*
X168783000Y-87249000D01*
X162687000Y-78994000D02*
X168529000Y-78994000D01*
X159131000Y-75438000D02*
X162687000Y-78994000D01*
X159131000Y-73152000D02*
X159131000Y-75438000D01*
X35779002Y-114265002D02*
X35814000Y-114300000D01*
X34890031Y-54379031D02*
X34890031Y-57728827D01*
X30135000Y-49624000D02*
X34890031Y-54379031D01*
X34890031Y-57728827D02*
X35144031Y-57982827D01*
X35144031Y-64929067D02*
X35779002Y-65564038D01*
X35779002Y-65564038D02*
X35779002Y-114265002D01*
X35144031Y-57982827D02*
X35144031Y-64929067D01*
X213677500Y-72644000D02*
X218249500Y-77216000D01*
X218249500Y-77216000D02*
X220916500Y-77216000D01*
X220916500Y-77216000D02*
X223202500Y-79502000D01*
X223202500Y-79502000D02*
X223202500Y-86868000D01*
X215074500Y-66167000D02*
X213677500Y-67564000D01*
X215074500Y-59690000D02*
X215074500Y-66167000D01*
X208851500Y-53467000D02*
X215074500Y-59690000D01*
X213744536Y-34925000D02*
X217233500Y-34925000D01*
X211899500Y-36770036D02*
X213744536Y-34925000D01*
X211899500Y-45593000D02*
X211899500Y-36770036D01*
X208978500Y-48514000D02*
X211899500Y-45593000D01*
X218757500Y-21971000D02*
X218757500Y-29845000D01*
X412788011Y-34204511D02*
X412788011Y-25085521D01*
X412788011Y-25085521D02*
X411670500Y-23968010D01*
X415507500Y-36924000D02*
X412788011Y-34204511D01*
X232727500Y-72771000D02*
X237680500Y-77724000D01*
X237680500Y-77724000D02*
X240220500Y-77724000D01*
X242252500Y-79756000D02*
X242252500Y-85725000D01*
X240220500Y-77724000D02*
X242252500Y-79756000D01*
X232727500Y-66929000D02*
X232727500Y-58039006D01*
X232727500Y-58039006D02*
X227901500Y-53213006D01*
X237553500Y-34925000D02*
X237553500Y-39370000D01*
X237553500Y-39370000D02*
X228028500Y-48895000D01*
X412334001Y-25961083D02*
X410764754Y-24391836D01*
X415507500Y-39464000D02*
X412334001Y-36290501D01*
X412334001Y-36290501D02*
X412334001Y-25961083D01*
X237553500Y-29845000D02*
X237553500Y-22196490D01*
X261302500Y-91821000D02*
X261302500Y-105156000D01*
X251777500Y-67564000D02*
X251777500Y-58166000D01*
X251777500Y-58166000D02*
X246824500Y-53213000D01*
X256578100Y-34340800D02*
X256578100Y-39014400D01*
X256578100Y-39014400D02*
X246951500Y-48641000D01*
X251777500Y-73025000D02*
X255714500Y-76962000D01*
X255714500Y-76962000D02*
X255714510Y-76962000D01*
X261302500Y-86741000D02*
X261302500Y-82549990D01*
X261302500Y-82549990D02*
X255714510Y-76962000D01*
X395668500Y-64897006D02*
X395668500Y-61513832D01*
X404144199Y-51586415D02*
X411407614Y-44323000D01*
X395668500Y-61513832D02*
X404144199Y-53038133D01*
X411407614Y-44323000D02*
X412369018Y-44323000D01*
X404144199Y-53038133D02*
X404144199Y-51586415D01*
X275653500Y-34163000D02*
X275653500Y-39497000D01*
X275653500Y-39497000D02*
X266128500Y-49022000D01*
X270954500Y-74295000D02*
X270954500Y-72517000D01*
X271208500Y-58547000D02*
X271208500Y-67691000D01*
X266128500Y-53467000D02*
X271208500Y-58547000D01*
X282511500Y-91694000D02*
X280352500Y-91694000D01*
X284416500Y-93599000D02*
X282511500Y-91694000D01*
X284416500Y-104775000D02*
X284416500Y-93599000D01*
X285559500Y-105918000D02*
X284416500Y-104775000D01*
X272542000Y-75882500D02*
X270954500Y-74295000D01*
X280352500Y-83693000D02*
X280352500Y-87249000D01*
X272542000Y-75882500D02*
X280352500Y-83693000D01*
X406684199Y-52608187D02*
X406684199Y-51531801D01*
X406684199Y-51531801D02*
X411353000Y-46863000D01*
X396684500Y-63754000D02*
X396284501Y-63354001D01*
X396284501Y-63354001D02*
X396284501Y-61539899D01*
X396284501Y-61539899D02*
X404457099Y-53367301D01*
X404457099Y-53367301D02*
X405925085Y-53367301D01*
X405925085Y-53367301D02*
X406684199Y-52608187D01*
X411353000Y-46863000D02*
X412368996Y-46863000D01*
X285178500Y-53594000D02*
X285178500Y-56388000D01*
X289877500Y-61087000D02*
X289877500Y-67437000D01*
X285178500Y-56388000D02*
X289877500Y-61087000D01*
X285178500Y-46101000D02*
X286321500Y-46101000D01*
X286321500Y-46101000D02*
X294576500Y-37846000D01*
X294576500Y-37846000D02*
X294576500Y-34671000D01*
X292026892Y-69586392D02*
X292026892Y-73015392D01*
X289877500Y-67437000D02*
X292026892Y-69586392D01*
X405849934Y-56041998D02*
X409224199Y-52667733D01*
X409224199Y-52667733D02*
X409224199Y-51220116D01*
X411803315Y-48641000D02*
X412369000Y-48641000D01*
X397383000Y-61083468D02*
X402424470Y-56041998D01*
X409224199Y-51220116D02*
X411803315Y-48641000D01*
X397383000Y-62801500D02*
X397383000Y-61083468D01*
X402424470Y-56041998D02*
X405849934Y-56041998D01*
X330771500Y-56261000D02*
X328104500Y-53594000D01*
X328104500Y-48895000D02*
X328104500Y-41312684D01*
X328104500Y-41312684D02*
X323278500Y-36486684D01*
X323278500Y-36486684D02*
X323278500Y-34070990D01*
X330771500Y-61595000D02*
X330771500Y-56261000D01*
X330771500Y-105283000D02*
X330771500Y-61595000D01*
X398843500Y-61341000D02*
X403034500Y-57150000D01*
X403034500Y-57150000D02*
X409956000Y-57150000D01*
X409956000Y-57150000D02*
X411734000Y-55372000D01*
X320992500Y-64865538D02*
X320992500Y-68072000D01*
X309593962Y-53467000D02*
X320992500Y-64865538D01*
X305244500Y-53467000D02*
X309593962Y-53467000D01*
X306768500Y-105791000D02*
X306768500Y-95885000D01*
X313245500Y-94234000D02*
X316039500Y-91440000D01*
X306768500Y-95885000D02*
X308419500Y-94234000D01*
X308419500Y-94234000D02*
X313245500Y-94234000D01*
X316293500Y-86995000D02*
X316293500Y-77470000D01*
X316293500Y-77470000D02*
X320611500Y-73152000D01*
X398116497Y-62103007D02*
X398116497Y-60992039D01*
X398116497Y-60992039D02*
X402466536Y-56642000D01*
X402466536Y-56642000D02*
X407730386Y-56642000D01*
X407730386Y-56642000D02*
X411715001Y-52657385D01*
X411715001Y-52657385D02*
X411715001Y-50945999D01*
X411715001Y-50945999D02*
X412368998Y-50292002D01*
X182562500Y-22155685D02*
X182562500Y-21590000D01*
X182562500Y-29746000D02*
X182562500Y-22155685D01*
X181283500Y-31025000D02*
X182562500Y-29746000D01*
X400267500Y-26764000D02*
X398081500Y-24578000D01*
X398081500Y-24578000D02*
X398081500Y-20281979D01*
X208337433Y-39236933D02*
X208724500Y-39624000D01*
X202888567Y-39236933D02*
X208337433Y-39236933D01*
X284581318Y-39840182D02*
X284670500Y-39751000D01*
X278739318Y-39840182D02*
X284581318Y-39840182D01*
X81661000Y-40005000D02*
X81534000Y-39878000D01*
X86995000Y-40005000D02*
X81661000Y-40005000D01*
X241871500Y-95631000D02*
X236029500Y-95631000D01*
X243014500Y-96774000D02*
X241871500Y-95631000D01*
X263715500Y-96520000D02*
X262826500Y-95631000D01*
X269938500Y-96520000D02*
X263715500Y-96520000D01*
X288607500Y-97155000D02*
X287337500Y-95885000D01*
X294703500Y-97155000D02*
X288607500Y-97155000D01*
X318306501Y-22571033D02*
X318706500Y-22971032D01*
X310740467Y-22571033D02*
X318306501Y-22571033D01*
X292544500Y-40767000D02*
X310740467Y-22571033D01*
X292544500Y-44323000D02*
X292544500Y-40767000D01*
X114173000Y-25273000D02*
X114173000Y-25400000D01*
X113030000Y-24130000D02*
X114173000Y-25273000D01*
X103759000Y-24130000D02*
X113030000Y-24130000D01*
X152400000Y-25400000D02*
X152400000Y-25654000D01*
X151130000Y-24130000D02*
X152400000Y-25400000D01*
X141859000Y-24130000D02*
X151130000Y-24130000D01*
X198031751Y-45822251D02*
X197167500Y-44958000D01*
X198031751Y-49253961D02*
X198031751Y-45822251D01*
X209232500Y-60454710D02*
X198031751Y-49253961D01*
X209232500Y-61087000D02*
X209232500Y-60454710D01*
X259016500Y-52127212D02*
X259016500Y-62992000D01*
X261810500Y-49333212D02*
X259016500Y-52127212D01*
X261810500Y-41783000D02*
X261810500Y-49333212D01*
X303593500Y-58067521D02*
X309054500Y-63528521D01*
X303593500Y-45212000D02*
X303593500Y-58067521D01*
X299910500Y-41529000D02*
X303593500Y-45212000D01*
X323249901Y-96237401D02*
X326072500Y-99060000D01*
X316530249Y-52844039D02*
X316530249Y-54597961D01*
X323249901Y-61317613D02*
X323249901Y-96237401D01*
X316530249Y-54597961D02*
X323249901Y-61317613D01*
X317094251Y-52280037D02*
X316530249Y-52844039D01*
X317094251Y-45504751D02*
X317094251Y-52280037D01*
X316293500Y-44704000D02*
X317094251Y-45504751D01*
X212788500Y-88265000D02*
X212788500Y-84455000D01*
X212788500Y-84455000D02*
X211137500Y-82804000D01*
X219138500Y-94615000D02*
X212788500Y-88265000D01*
X233997500Y-94615000D02*
X219138500Y-94615000D01*
X236156500Y-92456000D02*
X233997500Y-94615000D01*
X236156500Y-89402788D02*
X236156500Y-92456000D01*
X237680500Y-87878788D02*
X236156500Y-89402788D01*
X237680500Y-80010000D02*
X237680500Y-87878788D01*
X254571500Y-90608212D02*
X254571500Y-99060000D01*
X251845249Y-87881961D02*
X254571500Y-90608212D01*
X251845249Y-84776749D02*
X251845249Y-87881961D01*
X249745500Y-82677000D02*
X251845249Y-84776749D01*
X272559251Y-99233249D02*
X270827500Y-100965000D01*
X272559251Y-90944039D02*
X272559251Y-99233249D01*
X275710933Y-87792357D02*
X272559251Y-90944039D01*
X275710933Y-80079567D02*
X275710933Y-87792357D01*
X410908500Y-71703000D02*
X408824500Y-73787000D01*
X410908500Y-65397932D02*
X410908500Y-71703000D01*
X416877500Y-59428932D02*
X410908500Y-65397932D01*
X416877500Y-38446000D02*
X416877500Y-59428932D01*
X416658500Y-38227000D02*
X416877500Y-38446000D01*
X417385500Y-59563000D02*
X417385500Y-36768022D01*
X411364500Y-65584000D02*
X417385500Y-59563000D01*
X411364500Y-73787000D02*
X411364500Y-65584000D01*
X417385500Y-36768022D02*
X417193478Y-36576000D01*
X13408011Y-71164129D02*
X16778441Y-74534559D01*
X14895000Y-36924000D02*
X13408011Y-38410989D01*
X13408011Y-38410989D02*
X13408011Y-71164129D01*
X12954000Y-71755000D02*
X15748000Y-74549000D01*
X14895000Y-34384000D02*
X12954000Y-36325000D01*
X12954000Y-36325000D02*
X12954000Y-71755000D01*
X311721500Y-39878000D02*
X317563500Y-39878000D01*
X116586000Y-38227000D02*
X115189000Y-39624000D01*
X115189000Y-39624000D02*
X109601000Y-39624000D01*
X194853490Y-59876304D02*
X194853490Y-40414010D01*
X195419685Y-60442499D02*
X194853490Y-59876304D01*
X199434501Y-60442499D02*
X195419685Y-60442499D01*
X194853490Y-40414010D02*
X196786500Y-38481000D01*
X199834500Y-60042500D02*
X199434501Y-60442499D01*
X398081504Y-57749656D02*
X398081504Y-52197000D01*
X393855166Y-102647704D02*
X393855166Y-61975994D01*
X393855166Y-61975994D02*
X398081504Y-57749656D01*
X394525500Y-104521000D02*
X394525500Y-103318038D01*
X394525500Y-103318038D02*
X393855166Y-102647704D01*
X323659500Y-41910000D02*
X313757749Y-32008249D01*
X313757749Y-32008249D02*
X313757749Y-28299230D01*
X313757749Y-28299230D02*
X311522029Y-26063510D01*
X42926000Y-32727962D02*
X42926000Y-44196000D01*
X44922001Y-30731961D02*
X42926000Y-32727962D01*
X44922001Y-26197999D02*
X44922001Y-30731961D01*
X46990000Y-24130000D02*
X44922001Y-26197999D01*
X185483500Y-49460212D02*
X183197500Y-51746212D01*
X183197500Y-51746212D02*
X183197500Y-63246000D01*
X185483500Y-41910000D02*
X185483500Y-49460212D01*
X190309500Y-61087000D02*
X190309500Y-68574788D01*
X190309500Y-68574788D02*
X189530249Y-69354039D01*
X189530249Y-69354039D02*
X189530249Y-80754749D01*
X189530249Y-80754749D02*
X191325500Y-82550000D01*
X211369287Y-75980999D02*
X214474499Y-75980999D01*
X201993500Y-63627000D02*
X204220249Y-65853749D01*
X204220249Y-65853749D02*
X204220249Y-68831961D01*
X214474499Y-75980999D02*
X218376500Y-79883000D01*
X204220249Y-68831961D02*
X211369287Y-75980999D01*
X227628501Y-79737001D02*
X230060500Y-82169000D01*
X227628501Y-69355787D02*
X227628501Y-79737001D01*
X228155500Y-68828788D02*
X227628501Y-69355787D01*
X228155500Y-60706000D02*
X228155500Y-68828788D01*
X254662310Y-77851000D02*
X256821309Y-80009999D01*
X251339288Y-77851000D02*
X254662310Y-77851000D01*
X242320249Y-66361749D02*
X242320249Y-68831961D01*
X242320249Y-68831961D02*
X251339288Y-77851000D01*
X239839500Y-63881000D02*
X242320249Y-66361749D01*
X265730249Y-80119749D02*
X268287500Y-82677000D01*
X267139288Y-67945000D02*
X265730249Y-69354039D01*
X267144500Y-65786000D02*
X267144500Y-67945000D01*
X267144500Y-67945000D02*
X267139288Y-67945000D01*
X266763500Y-65405000D02*
X267144500Y-65786000D01*
X266763500Y-61087000D02*
X266763500Y-65405000D01*
X265730249Y-69354039D02*
X265730249Y-80119749D01*
X266382500Y-60706000D02*
X266763500Y-61087000D01*
X280420249Y-68831961D02*
X302196500Y-90608212D01*
X302196500Y-90608212D02*
X302196500Y-98171000D01*
X277939500Y-63627000D02*
X280420249Y-66107749D01*
X280420249Y-66107749D02*
X280420249Y-68831961D01*
X304101500Y-77094934D02*
X304101500Y-81915000D01*
X309950501Y-67331499D02*
X309950501Y-71245933D01*
X309950501Y-71245933D02*
X304101500Y-77094934D01*
X312352990Y-64929010D02*
X309950501Y-67331499D01*
X315586804Y-64929010D02*
X312352990Y-64929010D01*
X316166500Y-64349314D02*
X315586804Y-64929010D01*
X316166500Y-61115500D02*
X316166500Y-64349314D01*
X311594500Y-80165500D02*
X311594500Y-83693000D01*
X306613999Y-87881961D02*
X302923501Y-91572459D01*
X307850039Y-84363999D02*
X306613999Y-85600039D01*
X311594500Y-83693000D02*
X310923501Y-84363999D01*
X306613999Y-85600039D02*
X306613999Y-87881961D01*
X302923501Y-91572459D02*
X302923501Y-98519961D01*
X296227500Y-99060000D02*
X294703500Y-100584000D01*
X302383462Y-99060000D02*
X296227500Y-99060000D01*
X310923501Y-84363999D02*
X307850039Y-84363999D01*
X302923501Y-98519961D02*
X302383462Y-99060000D01*
X278193500Y-102413000D02*
X277304500Y-103302000D01*
X278193500Y-99314000D02*
X278193500Y-102413000D01*
X400929491Y-51730609D02*
X400496100Y-52164000D01*
X400929491Y-51119943D02*
X400929491Y-51730609D01*
X401470801Y-50578633D02*
X400929491Y-51119943D01*
X401470801Y-28726415D02*
X401470801Y-50578633D01*
X400845085Y-28100699D02*
X401470801Y-28726415D01*
X399689915Y-28100699D02*
X400845085Y-28100699D01*
X398386216Y-26797000D02*
X399689915Y-28100699D01*
X397954500Y-26797000D02*
X398386216Y-26797000D01*
X16231699Y-35076301D02*
X28194000Y-23114000D01*
X16231699Y-51055901D02*
X16231699Y-35076301D01*
X15123600Y-52164000D02*
X16231699Y-51055901D01*
D16*
X139779501Y-56816499D02*
X139779501Y-64817499D01*
X140462000Y-56134000D02*
X139779501Y-56816499D01*
X145949296Y-83793704D02*
X145700490Y-84042510D01*
X145415000Y-75403000D02*
X145415000Y-79231585D01*
X145415000Y-79231585D02*
X145949296Y-79765881D01*
X145949296Y-79765881D02*
X145949296Y-83793704D01*
X60907501Y-75004501D02*
X60833000Y-74930000D01*
X60907501Y-83872499D02*
X60907501Y-75004501D01*
X153394490Y-94128510D02*
X153416000Y-94107000D01*
X153394490Y-103092510D02*
X153394490Y-94128510D01*
X33528000Y-45720000D02*
X33528000Y-33753490D01*
X33528000Y-33753490D02*
X32794510Y-33020000D01*
X33147000Y-26543000D02*
X33147000Y-32667510D01*
X33147000Y-32667510D02*
X32794510Y-33020000D01*
X396049500Y-34544000D02*
X396049500Y-29718006D01*
X396049500Y-29718006D02*
X396049494Y-29718000D01*
X396049500Y-34544000D02*
X396049500Y-40132000D01*
X396049500Y-40132000D02*
X395287500Y-40894000D01*
X395287500Y-40894000D02*
X395287500Y-44577000D01*
X97536000Y-37719000D02*
X97028000Y-37211000D01*
X97536000Y-45720000D02*
X97536000Y-37719000D01*
X53466988Y-37210988D02*
X50292000Y-37210988D01*
X54864000Y-44704000D02*
X54864000Y-38608000D01*
X53467000Y-46101000D02*
X54864000Y-44704000D01*
X54864000Y-38608000D02*
X53466988Y-37210988D01*
X57964490Y-95556490D02*
X57912000Y-95504000D01*
X57964490Y-102309510D02*
X57964490Y-95556490D01*
X106934004Y-96266004D02*
X106172000Y-95504000D01*
X106934004Y-102997000D02*
X106934004Y-96266004D01*
X135382000Y-95342000D02*
X134874000Y-94834000D01*
X135382000Y-103124000D02*
X135382000Y-95342000D01*
X56642000Y-56975478D02*
X56562522Y-56896000D01*
X56642000Y-64897000D02*
X56642000Y-56975478D01*
X221678500Y-102362000D02*
X221805500Y-102489000D01*
X221678500Y-95504000D02*
X221678500Y-102362000D01*
X374967500Y-94742000D02*
X374713500Y-94488000D01*
X374967500Y-101981000D02*
X374967500Y-94742000D01*
X356425500Y-103124000D02*
X356171500Y-103378000D01*
X356425500Y-93726000D02*
X356425500Y-103124000D01*
X329755500Y-101981000D02*
X329501500Y-102235000D01*
X329755500Y-92583000D02*
X329755500Y-101981000D01*
X205549500Y-75565000D02*
X205295500Y-75311000D01*
X205549500Y-83947000D02*
X205549500Y-75565000D01*
X213550500Y-59944000D02*
X211137500Y-57531000D01*
X213550500Y-64770000D02*
X213550500Y-59944000D01*
X375383500Y-37246000D02*
X374967500Y-36830000D01*
X375383500Y-44958000D02*
X375383500Y-37246000D01*
X331533500Y-45847000D02*
X331533500Y-37211006D01*
X331533500Y-37211006D02*
X331533497Y-37211003D01*
X286321500Y-44704000D02*
X286321500Y-36830000D01*
X247459500Y-37338000D02*
X247586500Y-37211000D01*
X247459500Y-45212000D02*
X247459500Y-37338000D01*
X209867500Y-38968000D02*
X209052500Y-38153000D01*
X209867500Y-44831000D02*
X209867500Y-38968000D01*
X306260500Y-93980000D02*
X306006500Y-94234000D01*
X306006500Y-94234000D02*
X306006500Y-102743000D01*
X282511500Y-94487996D02*
X282765500Y-94233996D01*
X282511500Y-103632000D02*
X282511500Y-94487996D01*
X258508508Y-102743000D02*
X258508508Y-93726008D01*
X258508508Y-93726008D02*
X258508500Y-93726000D01*
X393317432Y-56353010D02*
X391992815Y-56353010D01*
X395687499Y-53982943D02*
X393317432Y-56353010D01*
X395687499Y-44976999D02*
X395687499Y-53982943D01*
X395287500Y-44577000D02*
X395687499Y-44976999D01*
X391731500Y-79121000D02*
X391575998Y-79276502D01*
X391575998Y-79276502D02*
X391575998Y-94234008D01*
X391575998Y-94234008D02*
X391702990Y-94361000D01*
X393763500Y-103632000D02*
X391448999Y-101317499D01*
X391448999Y-101317499D02*
X391448999Y-94614991D01*
X391448999Y-94614991D02*
X391702990Y-94361000D01*
X391610988Y-70450002D02*
X391610988Y-79000488D01*
X391610988Y-79000488D02*
X391731500Y-79121000D01*
X391702990Y-70358000D02*
X391610988Y-70450002D01*
X37338000Y-57981184D02*
X37338000Y-63246000D01*
X36531522Y-57174706D02*
X37338000Y-57981184D01*
X36531522Y-48723522D02*
X36531522Y-57174706D01*
X33528000Y-45720000D02*
X36531522Y-48723522D01*
X39243004Y-81407000D02*
X39643003Y-81007001D01*
X39643003Y-65551003D02*
X37338000Y-63246000D01*
X39243004Y-102743004D02*
X39243004Y-81407000D01*
X39751000Y-103251000D02*
X39243004Y-102743004D01*
X39643003Y-75291997D02*
X39643003Y-65551003D01*
X39643003Y-81007001D02*
X39643003Y-75291997D01*
X391702990Y-70358000D02*
X391702990Y-65294495D01*
X391029977Y-64621482D02*
X391029977Y-62547492D01*
X391702990Y-65294495D02*
X391029977Y-64621482D01*
X391029977Y-62547492D02*
X391093469Y-62484000D01*
X391992815Y-56353010D02*
X391093469Y-57252356D01*
X391093469Y-57252356D02*
X391093469Y-62484000D01*
X121189490Y-36861490D02*
X121189490Y-45053510D01*
X121189490Y-45053510D02*
X121158000Y-45085000D01*
D17*
X66548000Y-42291000D02*
X66548000Y-43942000D01*
X67818000Y-41021000D02*
X66548000Y-42291000D01*
X81661000Y-34671000D02*
X75311000Y-41021000D01*
X75311000Y-41021000D02*
X67818000Y-41021000D01*
X81661000Y-32221038D02*
X81661000Y-34671000D01*
X84436001Y-29446037D02*
X81661000Y-32221038D01*
X84436001Y-24656999D02*
X84436001Y-29446037D01*
X84836000Y-24257000D02*
X84436001Y-24656999D01*
X104775000Y-38481000D02*
X104775000Y-44450000D01*
X115328039Y-32843999D02*
X114377999Y-33794039D01*
X116000001Y-32843999D02*
X115328039Y-32843999D01*
X109461961Y-33794039D02*
X104775000Y-38481000D01*
X116367999Y-32476001D02*
X116000001Y-32843999D01*
X117604039Y-27213999D02*
X116367999Y-28450039D01*
X120417686Y-27213999D02*
X117604039Y-27213999D01*
X122936000Y-24695685D02*
X120417686Y-27213999D01*
X122936000Y-24130000D02*
X122936000Y-24695685D01*
X116367999Y-28450039D02*
X116367999Y-32476001D01*
X114377999Y-33794039D02*
X109461961Y-33794039D01*
X142875000Y-42474934D02*
X142875000Y-44450000D01*
X153670000Y-31679934D02*
X142875000Y-42474934D01*
X153670000Y-29248038D02*
X153670000Y-31679934D01*
X155704039Y-27213999D02*
X153670000Y-29248038D01*
X161000249Y-26578751D02*
X160365001Y-27213999D01*
X160365001Y-27213999D02*
X155704039Y-27213999D01*
X161000249Y-24349685D02*
X161000249Y-26578751D01*
X351527804Y-103029010D02*
X348265490Y-103029010D01*
X352234500Y-102322314D02*
X351527804Y-103029010D01*
X348265490Y-103029010D02*
X346900500Y-104394000D01*
X352234500Y-99187000D02*
X352234500Y-102322314D01*
X394309176Y-94017676D02*
X394309176Y-62164052D01*
X394652500Y-94361000D02*
X394309176Y-94017676D01*
X394309176Y-62164052D02*
X398586456Y-57886772D01*
X398586456Y-56385044D02*
X402807500Y-52164000D01*
X398586456Y-57886772D02*
X398586456Y-56385044D01*
X17435000Y-55535002D02*
X18415000Y-56515002D01*
X17435000Y-52164000D02*
X17435000Y-55535002D01*
X192468500Y-58133380D02*
X192468500Y-57404000D01*
X198056500Y-63721380D02*
X192468500Y-58133380D01*
X198056500Y-77851000D02*
X198056500Y-63721380D01*
X364186999Y-52844039D02*
X364186999Y-68848499D01*
X365137039Y-51893999D02*
X364186999Y-52844039D01*
X367669686Y-40992500D02*
X365137039Y-43525147D01*
X364186999Y-68848499D02*
X367093500Y-71755000D01*
X365137039Y-43525147D02*
X365137039Y-51893999D01*
X368236500Y-40992500D02*
X367669686Y-40992500D01*
X44611999Y-58639001D02*
X45212000Y-58039000D01*
X44611999Y-63467961D02*
X44611999Y-58639001D01*
X45885751Y-64741713D02*
X44611999Y-63467961D01*
X45885751Y-68303961D02*
X45885751Y-64741713D01*
X50419000Y-72837210D02*
X45885751Y-68303961D01*
X50419000Y-77978000D02*
X50419000Y-72837210D01*
X149388114Y-86583078D02*
X149388114Y-94439737D01*
X146558000Y-78994000D02*
X146558000Y-83752964D01*
X146558000Y-83752964D02*
X149388114Y-86583078D01*
X123917000Y-94523000D02*
X126076000Y-96682000D01*
X50038000Y-49530000D02*
X50038000Y-42037000D01*
X47371000Y-52197000D02*
X50038000Y-49530000D01*
X47371000Y-61087000D02*
X47371000Y-52197000D01*
X45339000Y-63119000D02*
X47371000Y-61087000D01*
X97663000Y-60960000D02*
X86367001Y-49664001D01*
X86367001Y-45473001D02*
X85598000Y-44704000D01*
X86367001Y-49664001D02*
X86367001Y-45473001D01*
X135197315Y-61087000D02*
X135763000Y-61087000D01*
X132495999Y-58385684D02*
X135197315Y-61087000D01*
X124467001Y-45473001D02*
X124467001Y-49850963D01*
X123698000Y-44704000D02*
X124467001Y-45473001D01*
X124467001Y-49850963D02*
X132495999Y-57879961D01*
X132495999Y-57879961D02*
X132495999Y-58385684D01*
X40192349Y-101406349D02*
X40386000Y-101600000D01*
X40192349Y-87118084D02*
X40192349Y-101406349D01*
X48443433Y-78867000D02*
X40192349Y-87118084D01*
X50800000Y-78867000D02*
X48443433Y-78867000D01*
X51671749Y-77995251D02*
X50800000Y-78867000D01*
X51671749Y-69354039D02*
X51671749Y-77995251D01*
X52324000Y-68701788D02*
X51671749Y-69354039D01*
X52324000Y-60960000D02*
X52324000Y-68701788D01*
X77865499Y-79516499D02*
X80899000Y-82550000D01*
X78613000Y-68606538D02*
X77865499Y-69354039D01*
X78613000Y-61087000D02*
X78613000Y-68606538D01*
X77865499Y-69354039D02*
X77865499Y-79516499D01*
X116586000Y-60988500D02*
X116586000Y-68733538D01*
X116586000Y-68733538D02*
X115965499Y-69354039D01*
X115965499Y-69354039D02*
X115965499Y-79389493D01*
X115965499Y-79389493D02*
X118999000Y-82422994D01*
X156972000Y-71855462D02*
X156972000Y-82486502D01*
X158439501Y-70387961D02*
X156972000Y-71855462D01*
X158439501Y-64713501D02*
X158439501Y-70387961D01*
X154686000Y-60960000D02*
X158439501Y-64713501D01*
X63119000Y-95561685D02*
X63119000Y-93599000D01*
X71247000Y-98933000D02*
X66490315Y-98933000D01*
X66490315Y-98933000D02*
X63119000Y-95561685D01*
X55608566Y-92604800D02*
X55608566Y-93170485D01*
X50648251Y-87644485D02*
X55608566Y-92604800D01*
X50648251Y-83414251D02*
X50648251Y-87644485D01*
X49784000Y-82550000D02*
X50648251Y-83414251D01*
X102870000Y-89154000D02*
X100838000Y-87122000D01*
X103124000Y-89154000D02*
X102870000Y-89154000D01*
X100838000Y-87122000D02*
X100838000Y-83566000D01*
X105501001Y-89118001D02*
X103159999Y-89118001D01*
X114627010Y-98244010D02*
X105501001Y-89118001D01*
X103159999Y-89118001D02*
X103124000Y-89154000D01*
X117929010Y-98244010D02*
X114627010Y-98244010D01*
X100838000Y-83566000D02*
X99949000Y-82677000D01*
X118872000Y-99187000D02*
X117929010Y-98244010D01*
X49784000Y-101346000D02*
X51435000Y-101346000D01*
X47625000Y-99187000D02*
X49784000Y-101346000D01*
X97254064Y-101092000D02*
X98806000Y-101092000D01*
X95109032Y-98946968D02*
X97254064Y-101092000D01*
X356933500Y-34671000D02*
X356933500Y-48895000D01*
X356298500Y-34036000D02*
X356933500Y-34671000D01*
X356298500Y-53121000D02*
X357314501Y-54137001D01*
X357314501Y-105606314D02*
X357314501Y-64804990D01*
X357314500Y-106172000D02*
X357314501Y-105606314D01*
X412967500Y-52164000D02*
X412967500Y-52999038D01*
X357314501Y-56260999D02*
X357314501Y-64804990D01*
X357314501Y-54137001D02*
X357314501Y-56260999D01*
X376110500Y-35179000D02*
X376110500Y-48768000D01*
X375348500Y-34417000D02*
X376110500Y-35179000D01*
X375602500Y-52994000D02*
X376110500Y-53502000D01*
X375983500Y-105791000D02*
X376364500Y-106172000D01*
X375983500Y-91948000D02*
X375983500Y-105791000D01*
X376110500Y-55499000D02*
X376110500Y-86995000D01*
X376110500Y-53502000D02*
X376110500Y-55499000D01*
X394497000Y-34191500D02*
X394497000Y-48895000D01*
X394652500Y-34036000D02*
X394497000Y-34191500D01*
X390832989Y-65156364D02*
X390832989Y-102190499D01*
X390832989Y-102190499D02*
X394560490Y-105918000D01*
X390366467Y-64689842D02*
X390832989Y-65156364D01*
X394652500Y-53340000D02*
X393830536Y-53340000D01*
X393830536Y-53340000D02*
X390366467Y-56804069D01*
X390366467Y-56804069D02*
X390366467Y-64689842D01*
X345104499Y-44050999D02*
X345104499Y-33794039D01*
X345668501Y-33230037D02*
X345668501Y-29425999D01*
X345668501Y-29425999D02*
X348265490Y-26829010D01*
X352615500Y-25741314D02*
X352615500Y-22987000D01*
X351527804Y-26829010D02*
X352615500Y-25741314D01*
X348265490Y-26829010D02*
X351527804Y-26829010D01*
X345104499Y-33794039D02*
X345668501Y-33230037D01*
X345122500Y-44069000D02*
X345104499Y-44050999D01*
X345249500Y-25019006D02*
X345122506Y-25146000D01*
X348008507Y-22259999D02*
X370470294Y-22259999D01*
X370470294Y-22259999D02*
X371165327Y-22955032D01*
X345122506Y-25146000D02*
X348008507Y-22259999D01*
X364826499Y-26307999D02*
X364826499Y-30371999D01*
X364172500Y-25654000D02*
X364826499Y-26307999D01*
X371476624Y-37022124D02*
X371476624Y-42280327D01*
X364826499Y-30371999D02*
X371476624Y-37022124D01*
X385000500Y-22225000D02*
X383222500Y-24003000D01*
X393255500Y-22225000D02*
X385000500Y-22225000D01*
X394906500Y-23876000D02*
X393255500Y-22225000D01*
X348043500Y-52129038D02*
X348758501Y-52844039D01*
X345668501Y-48475999D02*
X345668501Y-49253961D01*
X348043500Y-55312962D02*
X348043500Y-97663000D01*
X348265490Y-45879010D02*
X345668501Y-48475999D01*
X348758501Y-54597961D02*
X348043500Y-55312962D01*
X348043500Y-51628960D02*
X348043500Y-52129038D01*
X351527804Y-45879010D02*
X348265490Y-45879010D01*
X345668501Y-49253961D02*
X348043500Y-51628960D01*
X352234500Y-45172314D02*
X351527804Y-45879010D01*
X348043500Y-97663000D02*
X344741500Y-100965000D01*
X348758501Y-52844039D02*
X348758501Y-54597961D01*
X352234500Y-41910000D02*
X352234500Y-45172314D01*
X390080500Y-103251000D02*
X389953500Y-103378000D01*
X390080500Y-99060000D02*
X390080500Y-103251000D01*
X57555261Y-67401299D02*
X57555261Y-80010000D01*
X55200522Y-37570583D02*
X55835522Y-38205583D01*
X55835522Y-38205583D02*
X55835522Y-65681560D01*
X55200522Y-27476478D02*
X55200522Y-37570583D01*
X57150000Y-25527000D02*
X55200522Y-27476478D01*
X55835522Y-65681560D02*
X57555261Y-67401299D01*
X92964000Y-27940000D02*
X92964000Y-41910000D01*
X95250000Y-25654000D02*
X92964000Y-27940000D01*
X131064000Y-27940000D02*
X131064000Y-42037000D01*
X133350000Y-25654000D02*
X131064000Y-27940000D01*
X70231000Y-63119000D02*
X70358000Y-63246000D01*
X70231000Y-54773962D02*
X70231000Y-63119000D01*
X70407001Y-54597961D02*
X70231000Y-54773962D01*
X70407001Y-53000037D02*
X70407001Y-54597961D01*
X73722782Y-49684256D02*
X70407001Y-53000037D01*
X73722782Y-41974218D02*
X73722782Y-49684256D01*
X111760000Y-49618962D02*
X109474000Y-51904962D01*
X111760000Y-42065500D02*
X111760000Y-49618962D01*
X109474000Y-51904962D02*
X109474000Y-63119000D01*
X147447000Y-52031962D02*
X147447000Y-63373000D01*
X149860000Y-49618962D02*
X147447000Y-52031962D01*
X149860000Y-42065500D02*
X149860000Y-49618962D01*
X106788001Y-79737001D02*
X107188000Y-80137000D01*
X95595001Y-70068001D02*
X105264001Y-79737001D01*
X105264001Y-79737001D02*
X106788001Y-79737001D01*
X93791539Y-70068001D02*
X95595001Y-70068001D01*
X92555499Y-68831961D02*
X93791539Y-70068001D01*
X92555499Y-65885499D02*
X92555499Y-68831961D01*
X90297000Y-63627000D02*
X92555499Y-65885499D01*
X145023473Y-80010000D02*
X145158795Y-80145322D01*
X141833538Y-80010000D02*
X145023473Y-80010000D01*
X129667000Y-67843462D02*
X141833538Y-80010000D01*
X129667000Y-63997294D02*
X129667000Y-67843462D01*
X128825692Y-63155986D02*
X129667000Y-63997294D01*
X87230001Y-101199997D02*
X87630000Y-101599996D01*
X88137282Y-87657256D02*
X87230001Y-88564537D01*
X87230001Y-88564537D02*
X87230001Y-101199997D01*
X88137282Y-80038500D02*
X88137282Y-87657256D01*
X129667000Y-80899000D02*
X129667000Y-83185000D01*
X129032000Y-80264000D02*
X129667000Y-80899000D01*
X125857000Y-80264000D02*
X129032000Y-80264000D01*
X145161000Y-99695000D02*
X145161000Y-100965000D01*
X156837999Y-88018001D02*
X145161000Y-99695000D01*
X164096532Y-83259782D02*
X163377304Y-83979010D01*
X164096532Y-80038500D02*
X164096532Y-83259782D01*
X163377304Y-83979010D02*
X160156022Y-83979010D01*
X157804501Y-87353961D02*
X157140461Y-88018001D01*
X160156022Y-83979010D02*
X157804501Y-86330531D01*
X157140461Y-88018001D02*
X156837999Y-88018001D01*
X157804501Y-86330531D02*
X157804501Y-87353961D01*
X236816900Y-45872400D02*
X236816900Y-50444400D01*
X236816900Y-50444400D02*
X247332500Y-60960000D01*
X285305500Y-60827788D02*
X285305500Y-60959999D01*
X275657749Y-51180037D02*
X285305500Y-60827788D01*
X275657749Y-46740249D02*
X275657749Y-51180037D01*
X273494500Y-44577000D02*
X275657749Y-46740249D01*
X386891001Y-39003499D02*
X386891001Y-33821961D01*
X390461500Y-30251462D02*
X390461500Y-22952010D01*
X386891001Y-33821961D02*
X390461500Y-30251462D01*
X383222500Y-44577000D02*
X383222500Y-42672000D01*
X383222500Y-42672000D02*
X386891001Y-39003499D01*
X365950500Y-50800000D02*
X365950500Y-45847000D01*
X368109500Y-52959000D02*
X365950500Y-50800000D01*
X368109500Y-76454000D02*
X368109500Y-52959000D01*
X371411500Y-79756000D02*
X368109500Y-76454000D01*
X383095500Y-98361500D02*
X383095500Y-101600000D01*
X389445500Y-92011500D02*
X383095500Y-98361500D01*
X389445500Y-50445538D02*
X389445500Y-92011500D01*
X390334500Y-49556538D02*
X389445500Y-50445538D01*
X390334500Y-42037000D02*
X390334500Y-49556538D01*
X365950500Y-89117038D02*
X365950500Y-84201000D01*
X371284500Y-94451038D02*
X365950500Y-89117038D01*
X371284500Y-99060000D02*
X371284500Y-94451038D01*
X313194532Y-97866032D02*
X318884468Y-97866032D01*
X310832500Y-95504000D02*
X313194532Y-97866032D01*
X379666500Y-77978000D02*
X384238500Y-73406000D01*
X379666500Y-88265002D02*
X379666500Y-77978000D01*
X345122500Y-95504000D02*
X335216500Y-95504000D01*
X346519500Y-96901000D02*
X345122500Y-95504000D01*
X359092500Y-96393000D02*
X358330500Y-95631000D01*
X369252500Y-96393000D02*
X359092500Y-96393000D01*
X385127500Y-63373000D02*
X385127500Y-89408000D01*
X379285500Y-57531000D02*
X385127500Y-63373000D01*
X221043500Y-52128288D02*
X221043500Y-63246000D01*
X224091500Y-49080288D02*
X221043500Y-52128288D01*
X224091500Y-42573500D02*
X224091500Y-49080288D01*
X223583500Y-42065500D02*
X224091500Y-42573500D01*
X53721000Y-39878000D02*
X48133000Y-39878000D01*
X86233000Y-97028000D02*
X85217000Y-96012000D01*
X85217000Y-96012000D02*
X85217000Y-94742000D01*
X40513000Y-39243000D02*
X40640000Y-39116000D01*
X40513000Y-57277000D02*
X40513000Y-39243000D01*
X58547000Y-74930000D02*
X58547000Y-74930000D01*
X60808251Y-86128039D02*
X58547000Y-83866788D01*
X58547000Y-83866788D02*
X58547000Y-74041000D01*
X60808251Y-96798749D02*
X60808251Y-86128039D01*
X59436000Y-98171000D02*
X60808251Y-96798749D01*
M02*
