G04 #@! TF.GenerationSoftware,KiCad,Pcbnew,(5.1.9)-1*
G04 #@! TF.CreationDate,2021-02-17T22:07:48-08:00*
G04 #@! TF.ProjectId,onigaku,6f6e6967-616b-4752-9e6b-696361645f70,rev?*
G04 #@! TF.SameCoordinates,Original*
G04 #@! TF.FileFunction,Legend,Top*
G04 #@! TF.FilePolarity,Positive*
%FSLAX46Y46*%
G04 Gerber Fmt 4.6, Leading zero omitted, Abs format (unit mm)*
G04 Created by KiCad (PCBNEW (5.1.9)-1) date 2021-02-17 22:07:48*
%MOMM*%
%LPD*%
G01*
G04 APERTURE LIST*
%ADD10C,0.150000*%
%ADD11C,0.120000*%
%ADD12C,0.381000*%
G04 APERTURE END LIST*
D10*
X173062000Y-21001000D02*
X173062000Y-33101000D01*
X167062000Y-21001000D02*
X173062000Y-21001000D01*
X167062000Y-33101000D02*
X167062000Y-21001000D01*
X173062000Y-33101000D02*
X167062000Y-33101000D01*
X172562000Y-19001000D02*
X172562000Y-21001000D01*
X167562000Y-19001000D02*
X167562000Y-21001000D01*
X172562000Y-19001000D02*
X167562000Y-19001000D01*
X182133500Y-20874000D02*
X182133500Y-32974000D01*
X176133500Y-20874000D02*
X182133500Y-20874000D01*
X176133500Y-32974000D02*
X176133500Y-20874000D01*
X182133500Y-32974000D02*
X176133500Y-32974000D01*
X181633500Y-18874000D02*
X181633500Y-20874000D01*
X176633500Y-18874000D02*
X176633500Y-20874000D01*
X181633500Y-18874000D02*
X176633500Y-18874000D01*
D11*
X23765000Y-63583000D02*
X21265000Y-63583000D01*
X25265000Y-61833000D02*
X25265000Y-59833000D01*
X23765000Y-58083000D02*
X21265000Y-58083000D01*
X19765000Y-61833000D02*
X19765000Y-59833000D01*
X24215000Y-63133000D02*
X23765000Y-63583000D01*
X20815000Y-63133000D02*
X21265000Y-63583000D01*
X20815000Y-58533000D02*
X21265000Y-58083000D01*
X24215000Y-58533000D02*
X23765000Y-58083000D01*
X406304500Y-58083000D02*
X408804500Y-58083000D01*
X404804500Y-59833000D02*
X404804500Y-61833000D01*
X406304500Y-63583000D02*
X408804500Y-63583000D01*
X410304500Y-59833000D02*
X410304500Y-61833000D01*
X405854500Y-58533000D02*
X406304500Y-58083000D01*
X409254500Y-58533000D02*
X408804500Y-58083000D01*
X409254500Y-63133000D02*
X408804500Y-63583000D01*
X405854500Y-63133000D02*
X406304500Y-63583000D01*
X52913000Y-96578000D02*
X52913000Y-98178000D01*
X60713000Y-94478000D02*
X52913000Y-94478000D01*
X52913000Y-98178000D02*
X60713000Y-98178000D01*
X43388000Y-39431000D02*
X43388000Y-41031000D01*
X51188000Y-37331000D02*
X43388000Y-37331000D01*
X43388000Y-41031000D02*
X51188000Y-41031000D01*
X380083500Y-60034000D02*
X387883500Y-60034000D01*
X387883500Y-56334000D02*
X380083500Y-56334000D01*
X380083500Y-58434000D02*
X380083500Y-60034000D01*
X359001500Y-98134000D02*
X366801500Y-98134000D01*
X366801500Y-94434000D02*
X359001500Y-94434000D01*
X359001500Y-96534000D02*
X359001500Y-98134000D01*
X336059500Y-98178000D02*
X343859500Y-98178000D01*
X343859500Y-94478000D02*
X336059500Y-94478000D01*
X336059500Y-96578000D02*
X336059500Y-98178000D01*
X380083500Y-91193000D02*
X387883500Y-91193000D01*
X387883500Y-87493000D02*
X380083500Y-87493000D01*
X380083500Y-89593000D02*
X380083500Y-91193000D01*
X380083500Y-74305000D02*
X387883500Y-74305000D01*
X387883500Y-70605000D02*
X380083500Y-70605000D01*
X380083500Y-72705000D02*
X380083500Y-74305000D01*
X307820500Y-98116000D02*
X315620500Y-98116000D01*
X315620500Y-94416000D02*
X307820500Y-94416000D01*
X307820500Y-96516000D02*
X307820500Y-98116000D01*
D12*
X16165000Y-22954000D02*
X13625000Y-22954000D01*
X13625000Y-20414000D02*
X13625000Y-22954000D01*
X31405000Y-20414000D02*
X13625000Y-20414000D01*
X31405000Y-22954000D02*
X31405000Y-20414000D01*
D10*
G36*
X27446568Y-29433360D02*
G01*
X27446568Y-29633360D01*
X27346568Y-29633360D01*
X27346568Y-29433360D01*
X27446568Y-29433360D01*
G37*
X27446568Y-29433360D02*
X27446568Y-29633360D01*
X27346568Y-29633360D01*
X27346568Y-29433360D01*
X27446568Y-29433360D01*
G36*
X27046568Y-28833360D02*
G01*
X27046568Y-29633360D01*
X26946568Y-29633360D01*
X26946568Y-28833360D01*
X27046568Y-28833360D01*
G37*
X27046568Y-28833360D02*
X27046568Y-29633360D01*
X26946568Y-29633360D01*
X26946568Y-28833360D01*
X27046568Y-28833360D01*
G36*
X27446568Y-28833360D02*
G01*
X27446568Y-28933360D01*
X26946568Y-28933360D01*
X26946568Y-28833360D01*
X27446568Y-28833360D01*
G37*
X27446568Y-28833360D02*
X27446568Y-28933360D01*
X26946568Y-28933360D01*
X26946568Y-28833360D01*
X27446568Y-28833360D01*
G36*
X27246568Y-29233360D02*
G01*
X27246568Y-29333360D01*
X27146568Y-29333360D01*
X27146568Y-29233360D01*
X27246568Y-29233360D01*
G37*
X27246568Y-29233360D02*
X27246568Y-29333360D01*
X27146568Y-29333360D01*
X27146568Y-29233360D01*
X27246568Y-29233360D01*
G36*
X27446568Y-28833360D02*
G01*
X27446568Y-29133360D01*
X27346568Y-29133360D01*
X27346568Y-28833360D01*
X27446568Y-28833360D01*
G37*
X27446568Y-28833360D02*
X27446568Y-29133360D01*
X27346568Y-29133360D01*
X27346568Y-28833360D01*
X27446568Y-28833360D01*
D12*
X16165000Y-25494000D02*
X13625000Y-25494000D01*
X16165000Y-22954000D02*
X16165000Y-25494000D01*
X31405000Y-53434000D02*
X31405000Y-22954000D01*
X13625000Y-53434000D02*
X31405000Y-53434000D01*
X13625000Y-22954000D02*
X13625000Y-53434000D01*
D11*
X105193000Y-40966000D02*
X112993000Y-40966000D01*
X112993000Y-37266000D02*
X105193000Y-37266000D01*
X105193000Y-39366000D02*
X105193000Y-40966000D01*
X120941000Y-98243000D02*
X128741000Y-98243000D01*
X128741000Y-94543000D02*
X120941000Y-94543000D01*
X120941000Y-96643000D02*
X120941000Y-98243000D01*
X333602500Y-40966000D02*
X341402500Y-40966000D01*
X341402500Y-37266000D02*
X333602500Y-37266000D01*
X333602500Y-39366000D02*
X333602500Y-40966000D01*
X148246000Y-98116000D02*
X156046000Y-98116000D01*
X156046000Y-94416000D02*
X148246000Y-94416000D01*
X148246000Y-96516000D02*
X148246000Y-98116000D01*
X193140500Y-79066000D02*
X200940500Y-79066000D01*
X200940500Y-75366000D02*
X193140500Y-75366000D01*
X193140500Y-77466000D02*
X193140500Y-79066000D01*
X134022000Y-40712000D02*
X141822000Y-40712000D01*
X141822000Y-37012000D02*
X134022000Y-37012000D01*
X134022000Y-39112000D02*
X134022000Y-40712000D01*
X274166500Y-40966000D02*
X281966500Y-40966000D01*
X281966500Y-37266000D02*
X274166500Y-37266000D01*
X274166500Y-39366000D02*
X274166500Y-40966000D01*
X236066500Y-40966000D02*
X243866500Y-40966000D01*
X243866500Y-37266000D02*
X236066500Y-37266000D01*
X236066500Y-39366000D02*
X236066500Y-40966000D01*
X197966500Y-40966000D02*
X205766500Y-40966000D01*
X205766500Y-37266000D02*
X197966500Y-37266000D01*
X197966500Y-39366000D02*
X197966500Y-40966000D01*
X82333000Y-98243000D02*
X90133000Y-98243000D01*
X90133000Y-94543000D02*
X82333000Y-94543000D01*
X82333000Y-96643000D02*
X82333000Y-98243000D01*
X284326500Y-98116000D02*
X292126500Y-98116000D01*
X292126500Y-94416000D02*
X284326500Y-94416000D01*
X284326500Y-96516000D02*
X284326500Y-98116000D01*
X259815500Y-98116000D02*
X267615500Y-98116000D01*
X267615500Y-94416000D02*
X259815500Y-94416000D01*
X259815500Y-96516000D02*
X259815500Y-98116000D01*
X45757000Y-59951000D02*
X53557000Y-59951000D01*
X53557000Y-56251000D02*
X45757000Y-56251000D01*
X45757000Y-58351000D02*
X45757000Y-59951000D01*
X193140500Y-60016000D02*
X200940500Y-60016000D01*
X200940500Y-56316000D02*
X193140500Y-56316000D01*
X193140500Y-58416000D02*
X193140500Y-60016000D01*
X138721000Y-79066000D02*
X146521000Y-79066000D01*
X146521000Y-75366000D02*
X138721000Y-75366000D01*
X138721000Y-77466000D02*
X138721000Y-79066000D01*
X45757000Y-79066000D02*
X53557000Y-79066000D01*
X53557000Y-75366000D02*
X45757000Y-75366000D01*
X45757000Y-77466000D02*
X45757000Y-79066000D01*
X232891500Y-98116000D02*
X240691500Y-98116000D01*
X240691500Y-94416000D02*
X232891500Y-94416000D01*
X232891500Y-96516000D02*
X232891500Y-98116000D01*
X202665500Y-97989000D02*
X210465500Y-97989000D01*
X210465500Y-94289000D02*
X202665500Y-94289000D01*
X202665500Y-96389000D02*
X202665500Y-97989000D01*
X361288500Y-40966000D02*
X369088500Y-40966000D01*
X369088500Y-37266000D02*
X361288500Y-37266000D01*
X361288500Y-39366000D02*
X361288500Y-40966000D01*
X133895000Y-60016000D02*
X141695000Y-60016000D01*
X141695000Y-56316000D02*
X133895000Y-56316000D01*
X133895000Y-58416000D02*
X133895000Y-60016000D01*
X76872000Y-41093000D02*
X84672000Y-41093000D01*
X84672000Y-37393000D02*
X76872000Y-37393000D01*
X76872000Y-39493000D02*
X76872000Y-41093000D01*
X307440500Y-40966000D02*
X315240500Y-40966000D01*
X315240500Y-37266000D02*
X307440500Y-37266000D01*
X307440500Y-39366000D02*
X307440500Y-40966000D01*
D12*
X401537500Y-22954000D02*
X398997500Y-22954000D01*
X398997500Y-20414000D02*
X398997500Y-22954000D01*
X416777500Y-20414000D02*
X398997500Y-20414000D01*
X416777500Y-22954000D02*
X416777500Y-20414000D01*
D10*
G36*
X412819068Y-29433360D02*
G01*
X412819068Y-29633360D01*
X412719068Y-29633360D01*
X412719068Y-29433360D01*
X412819068Y-29433360D01*
G37*
X412819068Y-29433360D02*
X412819068Y-29633360D01*
X412719068Y-29633360D01*
X412719068Y-29433360D01*
X412819068Y-29433360D01*
G36*
X412419068Y-28833360D02*
G01*
X412419068Y-29633360D01*
X412319068Y-29633360D01*
X412319068Y-28833360D01*
X412419068Y-28833360D01*
G37*
X412419068Y-28833360D02*
X412419068Y-29633360D01*
X412319068Y-29633360D01*
X412319068Y-28833360D01*
X412419068Y-28833360D01*
G36*
X412819068Y-28833360D02*
G01*
X412819068Y-28933360D01*
X412319068Y-28933360D01*
X412319068Y-28833360D01*
X412819068Y-28833360D01*
G37*
X412819068Y-28833360D02*
X412819068Y-28933360D01*
X412319068Y-28933360D01*
X412319068Y-28833360D01*
X412819068Y-28833360D01*
G36*
X412619068Y-29233360D02*
G01*
X412619068Y-29333360D01*
X412519068Y-29333360D01*
X412519068Y-29233360D01*
X412619068Y-29233360D01*
G37*
X412619068Y-29233360D02*
X412619068Y-29333360D01*
X412519068Y-29333360D01*
X412519068Y-29233360D01*
X412619068Y-29233360D01*
G36*
X412819068Y-28833360D02*
G01*
X412819068Y-29133360D01*
X412719068Y-29133360D01*
X412719068Y-28833360D01*
X412819068Y-28833360D01*
G37*
X412819068Y-28833360D02*
X412819068Y-29133360D01*
X412719068Y-29133360D01*
X412719068Y-28833360D01*
X412819068Y-28833360D01*
D12*
X401537500Y-25494000D02*
X398997500Y-25494000D01*
X401537500Y-22954000D02*
X401537500Y-25494000D01*
X416777500Y-53434000D02*
X416777500Y-22954000D01*
X398997500Y-53434000D02*
X416777500Y-53434000D01*
X398997500Y-22954000D02*
X398997500Y-53434000D01*
D10*
X167456180Y-27384333D02*
X168170466Y-27384333D01*
X168313323Y-27431952D01*
X168408561Y-27527190D01*
X168456180Y-27670047D01*
X168456180Y-27765285D01*
X167551419Y-26955761D02*
X167503800Y-26908142D01*
X167456180Y-26812904D01*
X167456180Y-26574809D01*
X167503800Y-26479571D01*
X167551419Y-26431952D01*
X167646657Y-26384333D01*
X167741895Y-26384333D01*
X167884752Y-26431952D01*
X168456180Y-27003380D01*
X168456180Y-26384333D01*
X176527680Y-27257333D02*
X177241966Y-27257333D01*
X177384823Y-27304952D01*
X177480061Y-27400190D01*
X177527680Y-27543047D01*
X177527680Y-27638285D01*
X177527680Y-26257333D02*
X177527680Y-26828761D01*
X177527680Y-26543047D02*
X176527680Y-26543047D01*
X176670538Y-26638285D01*
X176765776Y-26733523D01*
X176813395Y-26828761D01*
X21300714Y-65035380D02*
X20967380Y-64559190D01*
X20729285Y-65035380D02*
X20729285Y-64035380D01*
X21110238Y-64035380D01*
X21205476Y-64083000D01*
X21253095Y-64130619D01*
X21300714Y-64225857D01*
X21300714Y-64368714D01*
X21253095Y-64463952D01*
X21205476Y-64511571D01*
X21110238Y-64559190D01*
X20729285Y-64559190D01*
X21681666Y-64987761D02*
X21824523Y-65035380D01*
X22062619Y-65035380D01*
X22157857Y-64987761D01*
X22205476Y-64940142D01*
X22253095Y-64844904D01*
X22253095Y-64749666D01*
X22205476Y-64654428D01*
X22157857Y-64606809D01*
X22062619Y-64559190D01*
X21872142Y-64511571D01*
X21776904Y-64463952D01*
X21729285Y-64416333D01*
X21681666Y-64321095D01*
X21681666Y-64225857D01*
X21729285Y-64130619D01*
X21776904Y-64083000D01*
X21872142Y-64035380D01*
X22110238Y-64035380D01*
X22253095Y-64083000D01*
X22586428Y-64035380D02*
X22824523Y-65035380D01*
X23015000Y-64321095D01*
X23205476Y-65035380D01*
X23443571Y-64035380D01*
X23776904Y-64130619D02*
X23824523Y-64083000D01*
X23919761Y-64035380D01*
X24157857Y-64035380D01*
X24253095Y-64083000D01*
X24300714Y-64130619D01*
X24348333Y-64225857D01*
X24348333Y-64321095D01*
X24300714Y-64463952D01*
X23729285Y-65035380D01*
X24348333Y-65035380D01*
X406340214Y-57535380D02*
X406006880Y-57059190D01*
X405768785Y-57535380D02*
X405768785Y-56535380D01*
X406149738Y-56535380D01*
X406244976Y-56583000D01*
X406292595Y-56630619D01*
X406340214Y-56725857D01*
X406340214Y-56868714D01*
X406292595Y-56963952D01*
X406244976Y-57011571D01*
X406149738Y-57059190D01*
X405768785Y-57059190D01*
X406721166Y-57487761D02*
X406864023Y-57535380D01*
X407102119Y-57535380D01*
X407197357Y-57487761D01*
X407244976Y-57440142D01*
X407292595Y-57344904D01*
X407292595Y-57249666D01*
X407244976Y-57154428D01*
X407197357Y-57106809D01*
X407102119Y-57059190D01*
X406911642Y-57011571D01*
X406816404Y-56963952D01*
X406768785Y-56916333D01*
X406721166Y-56821095D01*
X406721166Y-56725857D01*
X406768785Y-56630619D01*
X406816404Y-56583000D01*
X406911642Y-56535380D01*
X407149738Y-56535380D01*
X407292595Y-56583000D01*
X407625928Y-56535380D02*
X407864023Y-57535380D01*
X408054500Y-56821095D01*
X408244976Y-57535380D01*
X408483071Y-56535380D01*
X409387833Y-57535380D02*
X408816404Y-57535380D01*
X409102119Y-57535380D02*
X409102119Y-56535380D01*
X409006880Y-56678238D01*
X408911642Y-56773476D01*
X408816404Y-56821095D01*
X19384523Y-50955904D02*
X19384523Y-50155904D01*
X19575000Y-50155904D01*
X19689285Y-50194000D01*
X19765476Y-50270190D01*
X19803571Y-50346380D01*
X19841666Y-50498761D01*
X19841666Y-50613047D01*
X19803571Y-50765428D01*
X19765476Y-50841619D01*
X19689285Y-50917809D01*
X19575000Y-50955904D01*
X19384523Y-50955904D01*
X20565476Y-50155904D02*
X20184523Y-50155904D01*
X20146428Y-50536857D01*
X20184523Y-50498761D01*
X20260714Y-50460666D01*
X20451190Y-50460666D01*
X20527380Y-50498761D01*
X20565476Y-50536857D01*
X20603571Y-50613047D01*
X20603571Y-50803523D01*
X20565476Y-50879714D01*
X20527380Y-50917809D01*
X20451190Y-50955904D01*
X20260714Y-50955904D01*
X20184523Y-50917809D01*
X20146428Y-50879714D01*
X24788333Y-50536857D02*
X24521666Y-50536857D01*
X24521666Y-50955904D02*
X24521666Y-50155904D01*
X24902619Y-50155904D01*
X25626428Y-50955904D02*
X25169285Y-50955904D01*
X25397857Y-50955904D02*
X25397857Y-50155904D01*
X25321666Y-50270190D01*
X25245476Y-50346380D01*
X25169285Y-50384476D01*
X22381666Y-50879714D02*
X22343571Y-50917809D01*
X22229285Y-50955904D01*
X22153095Y-50955904D01*
X22038809Y-50917809D01*
X21962619Y-50841619D01*
X21924523Y-50765428D01*
X21886428Y-50613047D01*
X21886428Y-50498761D01*
X21924523Y-50346380D01*
X21962619Y-50270190D01*
X22038809Y-50194000D01*
X22153095Y-50155904D01*
X22229285Y-50155904D01*
X22343571Y-50194000D01*
X22381666Y-50232095D01*
X22648333Y-50155904D02*
X23181666Y-50155904D01*
X22838809Y-50955904D01*
X28679297Y-51058991D02*
X28773578Y-51011851D01*
X28820719Y-51011851D01*
X28891429Y-51035421D01*
X28962140Y-51106132D01*
X28985710Y-51176842D01*
X28985710Y-51223983D01*
X28962140Y-51294693D01*
X28773578Y-51483255D01*
X28278603Y-50988280D01*
X28443595Y-50823289D01*
X28514306Y-50799719D01*
X28561446Y-50799719D01*
X28632157Y-50823289D01*
X28679297Y-50870429D01*
X28702867Y-50941140D01*
X28702867Y-50988280D01*
X28679297Y-51058991D01*
X28514306Y-51223983D01*
X28985710Y-50281174D02*
X28891429Y-50375455D01*
X28867859Y-50446165D01*
X28867859Y-50493306D01*
X28891429Y-50611157D01*
X28962140Y-50729008D01*
X29150702Y-50917570D01*
X29221412Y-50941140D01*
X29268553Y-50941140D01*
X29339264Y-50917570D01*
X29433544Y-50823289D01*
X29457115Y-50752578D01*
X29457115Y-50705438D01*
X29433544Y-50634727D01*
X29315693Y-50516876D01*
X29244983Y-50493306D01*
X29197842Y-50493306D01*
X29127132Y-50516876D01*
X29032851Y-50611157D01*
X29009280Y-50681867D01*
X29009280Y-50729008D01*
X29032851Y-50799719D01*
X26781666Y-50744000D02*
X26548333Y-50744000D01*
X26548333Y-51110666D02*
X26548333Y-50410666D01*
X26881666Y-50410666D01*
X27281666Y-50410666D02*
X27348333Y-50410666D01*
X27415000Y-50444000D01*
X27448333Y-50477333D01*
X27481666Y-50544000D01*
X27515000Y-50677333D01*
X27515000Y-50844000D01*
X27481666Y-50977333D01*
X27448333Y-51044000D01*
X27415000Y-51077333D01*
X27348333Y-51110666D01*
X27281666Y-51110666D01*
X27215000Y-51077333D01*
X27181666Y-51044000D01*
X27148333Y-50977333D01*
X27115000Y-50844000D01*
X27115000Y-50677333D01*
X27148333Y-50544000D01*
X27181666Y-50477333D01*
X27215000Y-50444000D01*
X27281666Y-50410666D01*
X17731666Y-50744000D02*
X17831666Y-50777333D01*
X17865000Y-50810666D01*
X17898333Y-50877333D01*
X17898333Y-50977333D01*
X17865000Y-51044000D01*
X17831666Y-51077333D01*
X17765000Y-51110666D01*
X17498333Y-51110666D01*
X17498333Y-50410666D01*
X17731666Y-50410666D01*
X17798333Y-50444000D01*
X17831666Y-50477333D01*
X17865000Y-50544000D01*
X17865000Y-50610666D01*
X17831666Y-50677333D01*
X17798333Y-50710666D01*
X17731666Y-50744000D01*
X17498333Y-50744000D01*
X18131666Y-50410666D02*
X18598333Y-50410666D01*
X18298333Y-51110666D01*
X16752651Y-23785904D02*
X17209794Y-23785904D01*
X16981223Y-24585904D02*
X16981223Y-23785904D01*
X17400270Y-23785904D02*
X17933604Y-24585904D01*
X17933604Y-23785904D02*
X17400270Y-24585904D01*
X18390747Y-23785904D02*
X18466937Y-23785904D01*
X18543128Y-23824000D01*
X18581223Y-23862095D01*
X18619318Y-23938285D01*
X18657413Y-24090666D01*
X18657413Y-24281142D01*
X18619318Y-24433523D01*
X18581223Y-24509714D01*
X18543128Y-24547809D01*
X18466937Y-24585904D01*
X18390747Y-24585904D01*
X18314556Y-24547809D01*
X18276461Y-24509714D01*
X18238366Y-24433523D01*
X18200270Y-24281142D01*
X18200270Y-24090666D01*
X18238366Y-23938285D01*
X18276461Y-23862095D01*
X18314556Y-23824000D01*
X18390747Y-23785904D01*
X19571699Y-23747809D02*
X18885985Y-24776380D01*
X19838366Y-24585904D02*
X19838366Y-23785904D01*
X20028842Y-23785904D01*
X20143128Y-23824000D01*
X20219318Y-23900190D01*
X20257413Y-23976380D01*
X20295508Y-24128761D01*
X20295508Y-24243047D01*
X20257413Y-24395428D01*
X20219318Y-24471619D01*
X20143128Y-24547809D01*
X20028842Y-24585904D01*
X19838366Y-24585904D01*
X20562175Y-23785904D02*
X21057413Y-23785904D01*
X20790747Y-24090666D01*
X20905032Y-24090666D01*
X20981223Y-24128761D01*
X21019318Y-24166857D01*
X21057413Y-24243047D01*
X21057413Y-24433523D01*
X21019318Y-24509714D01*
X20981223Y-24547809D01*
X20905032Y-24585904D01*
X20676461Y-24585904D01*
X20600270Y-24547809D01*
X20562175Y-24509714D01*
X16463523Y-27125904D02*
X16463523Y-26325904D01*
X16654000Y-26325904D01*
X16768285Y-26364000D01*
X16844476Y-26440190D01*
X16882571Y-26516380D01*
X16920666Y-26668761D01*
X16920666Y-26783047D01*
X16882571Y-26935428D01*
X16844476Y-27011619D01*
X16768285Y-27087809D01*
X16654000Y-27125904D01*
X16463523Y-27125904D01*
X17225428Y-26402095D02*
X17263523Y-26364000D01*
X17339714Y-26325904D01*
X17530190Y-26325904D01*
X17606380Y-26364000D01*
X17644476Y-26402095D01*
X17682571Y-26478285D01*
X17682571Y-26554476D01*
X17644476Y-26668761D01*
X17187333Y-27125904D01*
X17682571Y-27125904D01*
X16463523Y-37285904D02*
X16463523Y-36485904D01*
X16654000Y-36485904D01*
X16768285Y-36524000D01*
X16844476Y-36600190D01*
X16882571Y-36676380D01*
X16920666Y-36828761D01*
X16920666Y-36943047D01*
X16882571Y-37095428D01*
X16844476Y-37171619D01*
X16768285Y-37247809D01*
X16654000Y-37285904D01*
X16463523Y-37285904D01*
X17415904Y-36485904D02*
X17492095Y-36485904D01*
X17568285Y-36524000D01*
X17606380Y-36562095D01*
X17644476Y-36638285D01*
X17682571Y-36790666D01*
X17682571Y-36981142D01*
X17644476Y-37133523D01*
X17606380Y-37209714D01*
X17568285Y-37247809D01*
X17492095Y-37285904D01*
X17415904Y-37285904D01*
X17339714Y-37247809D01*
X17301619Y-37209714D01*
X17263523Y-37133523D01*
X17225428Y-36981142D01*
X17225428Y-36790666D01*
X17263523Y-36638285D01*
X17301619Y-36562095D01*
X17339714Y-36524000D01*
X17415904Y-36485904D01*
X16463523Y-34745904D02*
X16463523Y-33945904D01*
X16654000Y-33945904D01*
X16768285Y-33984000D01*
X16844476Y-34060190D01*
X16882571Y-34136380D01*
X16920666Y-34288761D01*
X16920666Y-34403047D01*
X16882571Y-34555428D01*
X16844476Y-34631619D01*
X16768285Y-34707809D01*
X16654000Y-34745904D01*
X16463523Y-34745904D01*
X17682571Y-34745904D02*
X17225428Y-34745904D01*
X17454000Y-34745904D02*
X17454000Y-33945904D01*
X17377809Y-34060190D01*
X17301619Y-34136380D01*
X17225428Y-34174476D01*
X16444476Y-31444000D02*
X16368285Y-31405904D01*
X16254000Y-31405904D01*
X16139714Y-31444000D01*
X16063523Y-31520190D01*
X16025428Y-31596380D01*
X15987333Y-31748761D01*
X15987333Y-31863047D01*
X16025428Y-32015428D01*
X16063523Y-32091619D01*
X16139714Y-32167809D01*
X16254000Y-32205904D01*
X16330190Y-32205904D01*
X16444476Y-32167809D01*
X16482571Y-32129714D01*
X16482571Y-31863047D01*
X16330190Y-31863047D01*
X16825428Y-32205904D02*
X16825428Y-31405904D01*
X17282571Y-32205904D01*
X17282571Y-31405904D01*
X17663523Y-32205904D02*
X17663523Y-31405904D01*
X17854000Y-31405904D01*
X17968285Y-31444000D01*
X18044476Y-31520190D01*
X18082571Y-31596380D01*
X18120666Y-31748761D01*
X18120666Y-31863047D01*
X18082571Y-32015428D01*
X18044476Y-32091619D01*
X17968285Y-32167809D01*
X17854000Y-32205904D01*
X17663523Y-32205904D01*
X16444476Y-28904000D02*
X16368285Y-28865904D01*
X16254000Y-28865904D01*
X16139714Y-28904000D01*
X16063523Y-28980190D01*
X16025428Y-29056380D01*
X15987333Y-29208761D01*
X15987333Y-29323047D01*
X16025428Y-29475428D01*
X16063523Y-29551619D01*
X16139714Y-29627809D01*
X16254000Y-29665904D01*
X16330190Y-29665904D01*
X16444476Y-29627809D01*
X16482571Y-29589714D01*
X16482571Y-29323047D01*
X16330190Y-29323047D01*
X16825428Y-29665904D02*
X16825428Y-28865904D01*
X17282571Y-29665904D01*
X17282571Y-28865904D01*
X17663523Y-29665904D02*
X17663523Y-28865904D01*
X17854000Y-28865904D01*
X17968285Y-28904000D01*
X18044476Y-28980190D01*
X18082571Y-29056380D01*
X18120666Y-29208761D01*
X18120666Y-29323047D01*
X18082571Y-29475428D01*
X18044476Y-29551619D01*
X17968285Y-29627809D01*
X17854000Y-29665904D01*
X17663523Y-29665904D01*
X16463523Y-39825904D02*
X16463523Y-39025904D01*
X16654000Y-39025904D01*
X16768285Y-39064000D01*
X16844476Y-39140190D01*
X16882571Y-39216380D01*
X16920666Y-39368761D01*
X16920666Y-39483047D01*
X16882571Y-39635428D01*
X16844476Y-39711619D01*
X16768285Y-39787809D01*
X16654000Y-39825904D01*
X16463523Y-39825904D01*
X17606380Y-39292571D02*
X17606380Y-39825904D01*
X17415904Y-38987809D02*
X17225428Y-39559238D01*
X17720666Y-39559238D01*
X16920666Y-42289714D02*
X16882571Y-42327809D01*
X16768285Y-42365904D01*
X16692095Y-42365904D01*
X16577809Y-42327809D01*
X16501619Y-42251619D01*
X16463523Y-42175428D01*
X16425428Y-42023047D01*
X16425428Y-41908761D01*
X16463523Y-41756380D01*
X16501619Y-41680190D01*
X16577809Y-41604000D01*
X16692095Y-41565904D01*
X16768285Y-41565904D01*
X16882571Y-41604000D01*
X16920666Y-41642095D01*
X17606380Y-41565904D02*
X17454000Y-41565904D01*
X17377809Y-41604000D01*
X17339714Y-41642095D01*
X17263523Y-41756380D01*
X17225428Y-41908761D01*
X17225428Y-42213523D01*
X17263523Y-42289714D01*
X17301619Y-42327809D01*
X17377809Y-42365904D01*
X17530190Y-42365904D01*
X17606380Y-42327809D01*
X17644476Y-42289714D01*
X17682571Y-42213523D01*
X17682571Y-42023047D01*
X17644476Y-41946857D01*
X17606380Y-41908761D01*
X17530190Y-41870666D01*
X17377809Y-41870666D01*
X17301619Y-41908761D01*
X17263523Y-41946857D01*
X17225428Y-42023047D01*
X16463523Y-44905904D02*
X16463523Y-44105904D01*
X16654000Y-44105904D01*
X16768285Y-44144000D01*
X16844476Y-44220190D01*
X16882571Y-44296380D01*
X16920666Y-44448761D01*
X16920666Y-44563047D01*
X16882571Y-44715428D01*
X16844476Y-44791619D01*
X16768285Y-44867809D01*
X16654000Y-44905904D01*
X16463523Y-44905904D01*
X17187333Y-44105904D02*
X17720666Y-44105904D01*
X17377809Y-44905904D01*
X16501619Y-47026857D02*
X16768285Y-47026857D01*
X16882571Y-47445904D02*
X16501619Y-47445904D01*
X16501619Y-46645904D01*
X16882571Y-46645904D01*
X17568285Y-46645904D02*
X17415904Y-46645904D01*
X17339714Y-46684000D01*
X17301619Y-46722095D01*
X17225428Y-46836380D01*
X17187333Y-46988761D01*
X17187333Y-47293523D01*
X17225428Y-47369714D01*
X17263523Y-47407809D01*
X17339714Y-47445904D01*
X17492095Y-47445904D01*
X17568285Y-47407809D01*
X17606380Y-47369714D01*
X17644476Y-47293523D01*
X17644476Y-47103047D01*
X17606380Y-47026857D01*
X17568285Y-46988761D01*
X17492095Y-46950666D01*
X17339714Y-46950666D01*
X17263523Y-46988761D01*
X17225428Y-47026857D01*
X17187333Y-47103047D01*
X16730190Y-49566857D02*
X16844476Y-49604952D01*
X16882571Y-49643047D01*
X16920666Y-49719238D01*
X16920666Y-49833523D01*
X16882571Y-49909714D01*
X16844476Y-49947809D01*
X16768285Y-49985904D01*
X16463523Y-49985904D01*
X16463523Y-49185904D01*
X16730190Y-49185904D01*
X16806380Y-49224000D01*
X16844476Y-49262095D01*
X16882571Y-49338285D01*
X16882571Y-49414476D01*
X16844476Y-49490666D01*
X16806380Y-49528761D01*
X16730190Y-49566857D01*
X16463523Y-49566857D01*
X17606380Y-49452571D02*
X17606380Y-49985904D01*
X17415904Y-49147809D02*
X17225428Y-49719238D01*
X17720666Y-49719238D01*
X15950008Y-50658297D02*
X15997148Y-50752578D01*
X15997148Y-50799719D01*
X15973578Y-50870429D01*
X15902867Y-50941140D01*
X15832157Y-50964710D01*
X15785016Y-50964710D01*
X15714306Y-50941140D01*
X15525744Y-50752578D01*
X16020719Y-50257603D01*
X16185710Y-50422595D01*
X16209280Y-50493306D01*
X16209280Y-50540446D01*
X16185710Y-50611157D01*
X16138570Y-50658297D01*
X16067859Y-50681867D01*
X16020719Y-50681867D01*
X15950008Y-50658297D01*
X15785016Y-50493306D01*
X16751396Y-50988280D02*
X16515693Y-50752578D01*
X16256421Y-50964710D01*
X16303561Y-50964710D01*
X16374272Y-50988280D01*
X16492123Y-51106132D01*
X16515693Y-51176842D01*
X16515693Y-51223983D01*
X16492123Y-51294693D01*
X16374272Y-51412544D01*
X16303561Y-51436115D01*
X16256421Y-51436115D01*
X16185710Y-51412544D01*
X16067859Y-51294693D01*
X16044289Y-51223983D01*
X16044289Y-51176842D01*
X27652190Y-47026857D02*
X27766476Y-47064952D01*
X27804571Y-47103047D01*
X27842666Y-47179238D01*
X27842666Y-47293523D01*
X27804571Y-47369714D01*
X27766476Y-47407809D01*
X27690285Y-47445904D01*
X27385523Y-47445904D01*
X27385523Y-46645904D01*
X27652190Y-46645904D01*
X27728380Y-46684000D01*
X27766476Y-46722095D01*
X27804571Y-46798285D01*
X27804571Y-46874476D01*
X27766476Y-46950666D01*
X27728380Y-46988761D01*
X27652190Y-47026857D01*
X27385523Y-47026857D01*
X28109333Y-46645904D02*
X28604571Y-46645904D01*
X28337904Y-46950666D01*
X28452190Y-46950666D01*
X28528380Y-46988761D01*
X28566476Y-47026857D01*
X28604571Y-47103047D01*
X28604571Y-47293523D01*
X28566476Y-47369714D01*
X28528380Y-47407809D01*
X28452190Y-47445904D01*
X28223619Y-47445904D01*
X28147428Y-47407809D01*
X28109333Y-47369714D01*
X27652190Y-44486857D02*
X27766476Y-44524952D01*
X27804571Y-44563047D01*
X27842666Y-44639238D01*
X27842666Y-44753523D01*
X27804571Y-44829714D01*
X27766476Y-44867809D01*
X27690285Y-44905904D01*
X27385523Y-44905904D01*
X27385523Y-44105904D01*
X27652190Y-44105904D01*
X27728380Y-44144000D01*
X27766476Y-44182095D01*
X27804571Y-44258285D01*
X27804571Y-44334476D01*
X27766476Y-44410666D01*
X27728380Y-44448761D01*
X27652190Y-44486857D01*
X27385523Y-44486857D01*
X28604571Y-44905904D02*
X28147428Y-44905904D01*
X28376000Y-44905904D02*
X28376000Y-44105904D01*
X28299809Y-44220190D01*
X28223619Y-44296380D01*
X28147428Y-44334476D01*
X27709333Y-34326857D02*
X27442666Y-34326857D01*
X27442666Y-34745904D02*
X27442666Y-33945904D01*
X27823619Y-33945904D01*
X28471238Y-34212571D02*
X28471238Y-34745904D01*
X28280761Y-33907809D02*
X28090285Y-34479238D01*
X28585523Y-34479238D01*
X26909333Y-31405904D02*
X27176000Y-32205904D01*
X27442666Y-31405904D01*
X28166476Y-32129714D02*
X28128380Y-32167809D01*
X28014095Y-32205904D01*
X27937904Y-32205904D01*
X27823619Y-32167809D01*
X27747428Y-32091619D01*
X27709333Y-32015428D01*
X27671238Y-31863047D01*
X27671238Y-31748761D01*
X27709333Y-31596380D01*
X27747428Y-31520190D01*
X27823619Y-31444000D01*
X27937904Y-31405904D01*
X28014095Y-31405904D01*
X28128380Y-31444000D01*
X28166476Y-31482095D01*
X28966476Y-32129714D02*
X28928380Y-32167809D01*
X28814095Y-32205904D01*
X28737904Y-32205904D01*
X28623619Y-32167809D01*
X28547428Y-32091619D01*
X28509333Y-32015428D01*
X28471238Y-31863047D01*
X28471238Y-31748761D01*
X28509333Y-31596380D01*
X28547428Y-31520190D01*
X28623619Y-31444000D01*
X28737904Y-31405904D01*
X28814095Y-31405904D01*
X28928380Y-31444000D01*
X28966476Y-31482095D01*
X27714786Y-29597809D02*
X27829072Y-29635904D01*
X28019548Y-29635904D01*
X28095739Y-29597809D01*
X28133834Y-29559714D01*
X28171929Y-29483523D01*
X28171929Y-29407333D01*
X28133834Y-29331142D01*
X28095739Y-29293047D01*
X28019548Y-29254952D01*
X27867167Y-29216857D01*
X27790977Y-29178761D01*
X27752881Y-29140666D01*
X27714786Y-29064476D01*
X27714786Y-28988285D01*
X27752881Y-28912095D01*
X27790977Y-28874000D01*
X27867167Y-28835904D01*
X28057643Y-28835904D01*
X28171929Y-28874000D01*
X28400500Y-28835904D02*
X28857643Y-28835904D01*
X28629072Y-29635904D02*
X28629072Y-28835904D01*
X27366476Y-26364000D02*
X27290285Y-26325904D01*
X27176000Y-26325904D01*
X27061714Y-26364000D01*
X26985523Y-26440190D01*
X26947428Y-26516380D01*
X26909333Y-26668761D01*
X26909333Y-26783047D01*
X26947428Y-26935428D01*
X26985523Y-27011619D01*
X27061714Y-27087809D01*
X27176000Y-27125904D01*
X27252190Y-27125904D01*
X27366476Y-27087809D01*
X27404571Y-27049714D01*
X27404571Y-26783047D01*
X27252190Y-26783047D01*
X27747428Y-27125904D02*
X27747428Y-26325904D01*
X28204571Y-27125904D01*
X28204571Y-26325904D01*
X28585523Y-27125904D02*
X28585523Y-26325904D01*
X28776000Y-26325904D01*
X28890285Y-26364000D01*
X28966476Y-26440190D01*
X29004571Y-26516380D01*
X29042666Y-26668761D01*
X29042666Y-26783047D01*
X29004571Y-26935428D01*
X28966476Y-27011619D01*
X28890285Y-27087809D01*
X28776000Y-27125904D01*
X28585523Y-27125904D01*
X27652190Y-24166857D02*
X27766476Y-24204952D01*
X27804571Y-24243047D01*
X27842666Y-24319238D01*
X27842666Y-24433523D01*
X27804571Y-24509714D01*
X27766476Y-24547809D01*
X27690285Y-24585904D01*
X27385523Y-24585904D01*
X27385523Y-23785904D01*
X27652190Y-23785904D01*
X27728380Y-23824000D01*
X27766476Y-23862095D01*
X27804571Y-23938285D01*
X27804571Y-24014476D01*
X27766476Y-24090666D01*
X27728380Y-24128761D01*
X27652190Y-24166857D01*
X27385523Y-24166857D01*
X28337904Y-23785904D02*
X28414095Y-23785904D01*
X28490285Y-23824000D01*
X28528380Y-23862095D01*
X28566476Y-23938285D01*
X28604571Y-24090666D01*
X28604571Y-24281142D01*
X28566476Y-24433523D01*
X28528380Y-24509714D01*
X28490285Y-24547809D01*
X28414095Y-24585904D01*
X28337904Y-24585904D01*
X28261714Y-24547809D01*
X28223619Y-24509714D01*
X28185523Y-24433523D01*
X28147428Y-24281142D01*
X28147428Y-24090666D01*
X28185523Y-23938285D01*
X28223619Y-23862095D01*
X28261714Y-23824000D01*
X28337904Y-23785904D01*
X27709333Y-36866857D02*
X27442666Y-36866857D01*
X27442666Y-37285904D02*
X27442666Y-36485904D01*
X27823619Y-36485904D01*
X28509333Y-36485904D02*
X28128380Y-36485904D01*
X28090285Y-36866857D01*
X28128380Y-36828761D01*
X28204571Y-36790666D01*
X28395047Y-36790666D01*
X28471238Y-36828761D01*
X28509333Y-36866857D01*
X28547428Y-36943047D01*
X28547428Y-37133523D01*
X28509333Y-37209714D01*
X28471238Y-37247809D01*
X28395047Y-37285904D01*
X28204571Y-37285904D01*
X28128380Y-37247809D01*
X28090285Y-37209714D01*
X27709333Y-39406857D02*
X27442666Y-39406857D01*
X27442666Y-39825904D02*
X27442666Y-39025904D01*
X27823619Y-39025904D01*
X28471238Y-39025904D02*
X28318857Y-39025904D01*
X28242666Y-39064000D01*
X28204571Y-39102095D01*
X28128380Y-39216380D01*
X28090285Y-39368761D01*
X28090285Y-39673523D01*
X28128380Y-39749714D01*
X28166476Y-39787809D01*
X28242666Y-39825904D01*
X28395047Y-39825904D01*
X28471238Y-39787809D01*
X28509333Y-39749714D01*
X28547428Y-39673523D01*
X28547428Y-39483047D01*
X28509333Y-39406857D01*
X28471238Y-39368761D01*
X28395047Y-39330666D01*
X28242666Y-39330666D01*
X28166476Y-39368761D01*
X28128380Y-39406857D01*
X28090285Y-39483047D01*
X27709333Y-41946857D02*
X27442666Y-41946857D01*
X27442666Y-42365904D02*
X27442666Y-41565904D01*
X27823619Y-41565904D01*
X28052190Y-41565904D02*
X28585523Y-41565904D01*
X28242666Y-42365904D01*
X27652190Y-49566857D02*
X27766476Y-49604952D01*
X27804571Y-49643047D01*
X27842666Y-49719238D01*
X27842666Y-49833523D01*
X27804571Y-49909714D01*
X27766476Y-49947809D01*
X27690285Y-49985904D01*
X27385523Y-49985904D01*
X27385523Y-49185904D01*
X27652190Y-49185904D01*
X27728380Y-49224000D01*
X27766476Y-49262095D01*
X27804571Y-49338285D01*
X27804571Y-49414476D01*
X27766476Y-49490666D01*
X27728380Y-49528761D01*
X27652190Y-49566857D01*
X27385523Y-49566857D01*
X28147428Y-49262095D02*
X28185523Y-49224000D01*
X28261714Y-49185904D01*
X28452190Y-49185904D01*
X28528380Y-49224000D01*
X28566476Y-49262095D01*
X28604571Y-49338285D01*
X28604571Y-49414476D01*
X28566476Y-49528761D01*
X28109333Y-49985904D01*
X28604571Y-49985904D01*
X21026619Y-74789380D02*
X21217095Y-74789380D01*
X21312333Y-74837000D01*
X21407571Y-74932238D01*
X21455190Y-75122714D01*
X21455190Y-75456047D01*
X21407571Y-75646523D01*
X21312333Y-75741761D01*
X21217095Y-75789380D01*
X21026619Y-75789380D01*
X20931380Y-75741761D01*
X20836142Y-75646523D01*
X20788523Y-75456047D01*
X20788523Y-75122714D01*
X20836142Y-74932238D01*
X20931380Y-74837000D01*
X21026619Y-74789380D01*
X22359952Y-75789380D02*
X21883761Y-75789380D01*
X21883761Y-74789380D01*
X22693285Y-75265571D02*
X23026619Y-75265571D01*
X23169476Y-75789380D02*
X22693285Y-75789380D01*
X22693285Y-74789380D01*
X23169476Y-74789380D01*
X23598047Y-75789380D02*
X23598047Y-74789380D01*
X23836142Y-74789380D01*
X23979000Y-74837000D01*
X24074238Y-74932238D01*
X24121857Y-75027476D01*
X24169476Y-75217952D01*
X24169476Y-75360809D01*
X24121857Y-75551285D01*
X24074238Y-75646523D01*
X23979000Y-75741761D01*
X23836142Y-75789380D01*
X23598047Y-75789380D01*
X406102119Y-74789380D02*
X406292595Y-74789380D01*
X406387833Y-74837000D01*
X406483071Y-74932238D01*
X406530690Y-75122714D01*
X406530690Y-75456047D01*
X406483071Y-75646523D01*
X406387833Y-75741761D01*
X406292595Y-75789380D01*
X406102119Y-75789380D01*
X406006880Y-75741761D01*
X405911642Y-75646523D01*
X405864023Y-75456047D01*
X405864023Y-75122714D01*
X405911642Y-74932238D01*
X406006880Y-74837000D01*
X406102119Y-74789380D01*
X407435452Y-75789380D02*
X406959261Y-75789380D01*
X406959261Y-74789380D01*
X407768785Y-75265571D02*
X408102119Y-75265571D01*
X408244976Y-75789380D02*
X407768785Y-75789380D01*
X407768785Y-74789380D01*
X408244976Y-74789380D01*
X408673547Y-75789380D02*
X408673547Y-74789380D01*
X408911642Y-74789380D01*
X409054500Y-74837000D01*
X409149738Y-74932238D01*
X409197357Y-75027476D01*
X409244976Y-75217952D01*
X409244976Y-75360809D01*
X409197357Y-75551285D01*
X409149738Y-75646523D01*
X409054500Y-75741761D01*
X408911642Y-75789380D01*
X408673547Y-75789380D01*
X404757023Y-50955904D02*
X404757023Y-50155904D01*
X404947500Y-50155904D01*
X405061785Y-50194000D01*
X405137976Y-50270190D01*
X405176071Y-50346380D01*
X405214166Y-50498761D01*
X405214166Y-50613047D01*
X405176071Y-50765428D01*
X405137976Y-50841619D01*
X405061785Y-50917809D01*
X404947500Y-50955904D01*
X404757023Y-50955904D01*
X405937976Y-50155904D02*
X405557023Y-50155904D01*
X405518928Y-50536857D01*
X405557023Y-50498761D01*
X405633214Y-50460666D01*
X405823690Y-50460666D01*
X405899880Y-50498761D01*
X405937976Y-50536857D01*
X405976071Y-50613047D01*
X405976071Y-50803523D01*
X405937976Y-50879714D01*
X405899880Y-50917809D01*
X405823690Y-50955904D01*
X405633214Y-50955904D01*
X405557023Y-50917809D01*
X405518928Y-50879714D01*
X410160833Y-50536857D02*
X409894166Y-50536857D01*
X409894166Y-50955904D02*
X409894166Y-50155904D01*
X410275119Y-50155904D01*
X410998928Y-50955904D02*
X410541785Y-50955904D01*
X410770357Y-50955904D02*
X410770357Y-50155904D01*
X410694166Y-50270190D01*
X410617976Y-50346380D01*
X410541785Y-50384476D01*
X407754166Y-50879714D02*
X407716071Y-50917809D01*
X407601785Y-50955904D01*
X407525595Y-50955904D01*
X407411309Y-50917809D01*
X407335119Y-50841619D01*
X407297023Y-50765428D01*
X407258928Y-50613047D01*
X407258928Y-50498761D01*
X407297023Y-50346380D01*
X407335119Y-50270190D01*
X407411309Y-50194000D01*
X407525595Y-50155904D01*
X407601785Y-50155904D01*
X407716071Y-50194000D01*
X407754166Y-50232095D01*
X408020833Y-50155904D02*
X408554166Y-50155904D01*
X408211309Y-50955904D01*
X414051797Y-51058991D02*
X414146078Y-51011851D01*
X414193219Y-51011851D01*
X414263929Y-51035421D01*
X414334640Y-51106132D01*
X414358210Y-51176842D01*
X414358210Y-51223983D01*
X414334640Y-51294693D01*
X414146078Y-51483255D01*
X413651103Y-50988280D01*
X413816095Y-50823289D01*
X413886806Y-50799719D01*
X413933946Y-50799719D01*
X414004657Y-50823289D01*
X414051797Y-50870429D01*
X414075367Y-50941140D01*
X414075367Y-50988280D01*
X414051797Y-51058991D01*
X413886806Y-51223983D01*
X414358210Y-50281174D02*
X414263929Y-50375455D01*
X414240359Y-50446165D01*
X414240359Y-50493306D01*
X414263929Y-50611157D01*
X414334640Y-50729008D01*
X414523202Y-50917570D01*
X414593912Y-50941140D01*
X414641053Y-50941140D01*
X414711764Y-50917570D01*
X414806044Y-50823289D01*
X414829615Y-50752578D01*
X414829615Y-50705438D01*
X414806044Y-50634727D01*
X414688193Y-50516876D01*
X414617483Y-50493306D01*
X414570342Y-50493306D01*
X414499632Y-50516876D01*
X414405351Y-50611157D01*
X414381780Y-50681867D01*
X414381780Y-50729008D01*
X414405351Y-50799719D01*
X412154166Y-50744000D02*
X411920833Y-50744000D01*
X411920833Y-51110666D02*
X411920833Y-50410666D01*
X412254166Y-50410666D01*
X412654166Y-50410666D02*
X412720833Y-50410666D01*
X412787500Y-50444000D01*
X412820833Y-50477333D01*
X412854166Y-50544000D01*
X412887500Y-50677333D01*
X412887500Y-50844000D01*
X412854166Y-50977333D01*
X412820833Y-51044000D01*
X412787500Y-51077333D01*
X412720833Y-51110666D01*
X412654166Y-51110666D01*
X412587500Y-51077333D01*
X412554166Y-51044000D01*
X412520833Y-50977333D01*
X412487500Y-50844000D01*
X412487500Y-50677333D01*
X412520833Y-50544000D01*
X412554166Y-50477333D01*
X412587500Y-50444000D01*
X412654166Y-50410666D01*
X403104166Y-50744000D02*
X403204166Y-50777333D01*
X403237500Y-50810666D01*
X403270833Y-50877333D01*
X403270833Y-50977333D01*
X403237500Y-51044000D01*
X403204166Y-51077333D01*
X403137500Y-51110666D01*
X402870833Y-51110666D01*
X402870833Y-50410666D01*
X403104166Y-50410666D01*
X403170833Y-50444000D01*
X403204166Y-50477333D01*
X403237500Y-50544000D01*
X403237500Y-50610666D01*
X403204166Y-50677333D01*
X403170833Y-50710666D01*
X403104166Y-50744000D01*
X402870833Y-50744000D01*
X403504166Y-50410666D02*
X403970833Y-50410666D01*
X403670833Y-51110666D01*
X402125151Y-23785904D02*
X402582294Y-23785904D01*
X402353723Y-24585904D02*
X402353723Y-23785904D01*
X402772770Y-23785904D02*
X403306104Y-24585904D01*
X403306104Y-23785904D02*
X402772770Y-24585904D01*
X403763247Y-23785904D02*
X403839437Y-23785904D01*
X403915628Y-23824000D01*
X403953723Y-23862095D01*
X403991818Y-23938285D01*
X404029913Y-24090666D01*
X404029913Y-24281142D01*
X403991818Y-24433523D01*
X403953723Y-24509714D01*
X403915628Y-24547809D01*
X403839437Y-24585904D01*
X403763247Y-24585904D01*
X403687056Y-24547809D01*
X403648961Y-24509714D01*
X403610866Y-24433523D01*
X403572770Y-24281142D01*
X403572770Y-24090666D01*
X403610866Y-23938285D01*
X403648961Y-23862095D01*
X403687056Y-23824000D01*
X403763247Y-23785904D01*
X404944199Y-23747809D02*
X404258485Y-24776380D01*
X405210866Y-24585904D02*
X405210866Y-23785904D01*
X405401342Y-23785904D01*
X405515628Y-23824000D01*
X405591818Y-23900190D01*
X405629913Y-23976380D01*
X405668008Y-24128761D01*
X405668008Y-24243047D01*
X405629913Y-24395428D01*
X405591818Y-24471619D01*
X405515628Y-24547809D01*
X405401342Y-24585904D01*
X405210866Y-24585904D01*
X405934675Y-23785904D02*
X406429913Y-23785904D01*
X406163247Y-24090666D01*
X406277532Y-24090666D01*
X406353723Y-24128761D01*
X406391818Y-24166857D01*
X406429913Y-24243047D01*
X406429913Y-24433523D01*
X406391818Y-24509714D01*
X406353723Y-24547809D01*
X406277532Y-24585904D01*
X406048961Y-24585904D01*
X405972770Y-24547809D01*
X405934675Y-24509714D01*
X401836023Y-27125904D02*
X401836023Y-26325904D01*
X402026500Y-26325904D01*
X402140785Y-26364000D01*
X402216976Y-26440190D01*
X402255071Y-26516380D01*
X402293166Y-26668761D01*
X402293166Y-26783047D01*
X402255071Y-26935428D01*
X402216976Y-27011619D01*
X402140785Y-27087809D01*
X402026500Y-27125904D01*
X401836023Y-27125904D01*
X402597928Y-26402095D02*
X402636023Y-26364000D01*
X402712214Y-26325904D01*
X402902690Y-26325904D01*
X402978880Y-26364000D01*
X403016976Y-26402095D01*
X403055071Y-26478285D01*
X403055071Y-26554476D01*
X403016976Y-26668761D01*
X402559833Y-27125904D01*
X403055071Y-27125904D01*
X401836023Y-37285904D02*
X401836023Y-36485904D01*
X402026500Y-36485904D01*
X402140785Y-36524000D01*
X402216976Y-36600190D01*
X402255071Y-36676380D01*
X402293166Y-36828761D01*
X402293166Y-36943047D01*
X402255071Y-37095428D01*
X402216976Y-37171619D01*
X402140785Y-37247809D01*
X402026500Y-37285904D01*
X401836023Y-37285904D01*
X402788404Y-36485904D02*
X402864595Y-36485904D01*
X402940785Y-36524000D01*
X402978880Y-36562095D01*
X403016976Y-36638285D01*
X403055071Y-36790666D01*
X403055071Y-36981142D01*
X403016976Y-37133523D01*
X402978880Y-37209714D01*
X402940785Y-37247809D01*
X402864595Y-37285904D01*
X402788404Y-37285904D01*
X402712214Y-37247809D01*
X402674119Y-37209714D01*
X402636023Y-37133523D01*
X402597928Y-36981142D01*
X402597928Y-36790666D01*
X402636023Y-36638285D01*
X402674119Y-36562095D01*
X402712214Y-36524000D01*
X402788404Y-36485904D01*
X401836023Y-34745904D02*
X401836023Y-33945904D01*
X402026500Y-33945904D01*
X402140785Y-33984000D01*
X402216976Y-34060190D01*
X402255071Y-34136380D01*
X402293166Y-34288761D01*
X402293166Y-34403047D01*
X402255071Y-34555428D01*
X402216976Y-34631619D01*
X402140785Y-34707809D01*
X402026500Y-34745904D01*
X401836023Y-34745904D01*
X403055071Y-34745904D02*
X402597928Y-34745904D01*
X402826500Y-34745904D02*
X402826500Y-33945904D01*
X402750309Y-34060190D01*
X402674119Y-34136380D01*
X402597928Y-34174476D01*
X401816976Y-31444000D02*
X401740785Y-31405904D01*
X401626500Y-31405904D01*
X401512214Y-31444000D01*
X401436023Y-31520190D01*
X401397928Y-31596380D01*
X401359833Y-31748761D01*
X401359833Y-31863047D01*
X401397928Y-32015428D01*
X401436023Y-32091619D01*
X401512214Y-32167809D01*
X401626500Y-32205904D01*
X401702690Y-32205904D01*
X401816976Y-32167809D01*
X401855071Y-32129714D01*
X401855071Y-31863047D01*
X401702690Y-31863047D01*
X402197928Y-32205904D02*
X402197928Y-31405904D01*
X402655071Y-32205904D01*
X402655071Y-31405904D01*
X403036023Y-32205904D02*
X403036023Y-31405904D01*
X403226500Y-31405904D01*
X403340785Y-31444000D01*
X403416976Y-31520190D01*
X403455071Y-31596380D01*
X403493166Y-31748761D01*
X403493166Y-31863047D01*
X403455071Y-32015428D01*
X403416976Y-32091619D01*
X403340785Y-32167809D01*
X403226500Y-32205904D01*
X403036023Y-32205904D01*
X401816976Y-28904000D02*
X401740785Y-28865904D01*
X401626500Y-28865904D01*
X401512214Y-28904000D01*
X401436023Y-28980190D01*
X401397928Y-29056380D01*
X401359833Y-29208761D01*
X401359833Y-29323047D01*
X401397928Y-29475428D01*
X401436023Y-29551619D01*
X401512214Y-29627809D01*
X401626500Y-29665904D01*
X401702690Y-29665904D01*
X401816976Y-29627809D01*
X401855071Y-29589714D01*
X401855071Y-29323047D01*
X401702690Y-29323047D01*
X402197928Y-29665904D02*
X402197928Y-28865904D01*
X402655071Y-29665904D01*
X402655071Y-28865904D01*
X403036023Y-29665904D02*
X403036023Y-28865904D01*
X403226500Y-28865904D01*
X403340785Y-28904000D01*
X403416976Y-28980190D01*
X403455071Y-29056380D01*
X403493166Y-29208761D01*
X403493166Y-29323047D01*
X403455071Y-29475428D01*
X403416976Y-29551619D01*
X403340785Y-29627809D01*
X403226500Y-29665904D01*
X403036023Y-29665904D01*
X401836023Y-39825904D02*
X401836023Y-39025904D01*
X402026500Y-39025904D01*
X402140785Y-39064000D01*
X402216976Y-39140190D01*
X402255071Y-39216380D01*
X402293166Y-39368761D01*
X402293166Y-39483047D01*
X402255071Y-39635428D01*
X402216976Y-39711619D01*
X402140785Y-39787809D01*
X402026500Y-39825904D01*
X401836023Y-39825904D01*
X402978880Y-39292571D02*
X402978880Y-39825904D01*
X402788404Y-38987809D02*
X402597928Y-39559238D01*
X403093166Y-39559238D01*
X402293166Y-42289714D02*
X402255071Y-42327809D01*
X402140785Y-42365904D01*
X402064595Y-42365904D01*
X401950309Y-42327809D01*
X401874119Y-42251619D01*
X401836023Y-42175428D01*
X401797928Y-42023047D01*
X401797928Y-41908761D01*
X401836023Y-41756380D01*
X401874119Y-41680190D01*
X401950309Y-41604000D01*
X402064595Y-41565904D01*
X402140785Y-41565904D01*
X402255071Y-41604000D01*
X402293166Y-41642095D01*
X402978880Y-41565904D02*
X402826500Y-41565904D01*
X402750309Y-41604000D01*
X402712214Y-41642095D01*
X402636023Y-41756380D01*
X402597928Y-41908761D01*
X402597928Y-42213523D01*
X402636023Y-42289714D01*
X402674119Y-42327809D01*
X402750309Y-42365904D01*
X402902690Y-42365904D01*
X402978880Y-42327809D01*
X403016976Y-42289714D01*
X403055071Y-42213523D01*
X403055071Y-42023047D01*
X403016976Y-41946857D01*
X402978880Y-41908761D01*
X402902690Y-41870666D01*
X402750309Y-41870666D01*
X402674119Y-41908761D01*
X402636023Y-41946857D01*
X402597928Y-42023047D01*
X401836023Y-44905904D02*
X401836023Y-44105904D01*
X402026500Y-44105904D01*
X402140785Y-44144000D01*
X402216976Y-44220190D01*
X402255071Y-44296380D01*
X402293166Y-44448761D01*
X402293166Y-44563047D01*
X402255071Y-44715428D01*
X402216976Y-44791619D01*
X402140785Y-44867809D01*
X402026500Y-44905904D01*
X401836023Y-44905904D01*
X402559833Y-44105904D02*
X403093166Y-44105904D01*
X402750309Y-44905904D01*
X401874119Y-47026857D02*
X402140785Y-47026857D01*
X402255071Y-47445904D02*
X401874119Y-47445904D01*
X401874119Y-46645904D01*
X402255071Y-46645904D01*
X402940785Y-46645904D02*
X402788404Y-46645904D01*
X402712214Y-46684000D01*
X402674119Y-46722095D01*
X402597928Y-46836380D01*
X402559833Y-46988761D01*
X402559833Y-47293523D01*
X402597928Y-47369714D01*
X402636023Y-47407809D01*
X402712214Y-47445904D01*
X402864595Y-47445904D01*
X402940785Y-47407809D01*
X402978880Y-47369714D01*
X403016976Y-47293523D01*
X403016976Y-47103047D01*
X402978880Y-47026857D01*
X402940785Y-46988761D01*
X402864595Y-46950666D01*
X402712214Y-46950666D01*
X402636023Y-46988761D01*
X402597928Y-47026857D01*
X402559833Y-47103047D01*
X402102690Y-49566857D02*
X402216976Y-49604952D01*
X402255071Y-49643047D01*
X402293166Y-49719238D01*
X402293166Y-49833523D01*
X402255071Y-49909714D01*
X402216976Y-49947809D01*
X402140785Y-49985904D01*
X401836023Y-49985904D01*
X401836023Y-49185904D01*
X402102690Y-49185904D01*
X402178880Y-49224000D01*
X402216976Y-49262095D01*
X402255071Y-49338285D01*
X402255071Y-49414476D01*
X402216976Y-49490666D01*
X402178880Y-49528761D01*
X402102690Y-49566857D01*
X401836023Y-49566857D01*
X402978880Y-49452571D02*
X402978880Y-49985904D01*
X402788404Y-49147809D02*
X402597928Y-49719238D01*
X403093166Y-49719238D01*
X401322508Y-50658297D02*
X401369648Y-50752578D01*
X401369648Y-50799719D01*
X401346078Y-50870429D01*
X401275367Y-50941140D01*
X401204657Y-50964710D01*
X401157516Y-50964710D01*
X401086806Y-50941140D01*
X400898244Y-50752578D01*
X401393219Y-50257603D01*
X401558210Y-50422595D01*
X401581780Y-50493306D01*
X401581780Y-50540446D01*
X401558210Y-50611157D01*
X401511070Y-50658297D01*
X401440359Y-50681867D01*
X401393219Y-50681867D01*
X401322508Y-50658297D01*
X401157516Y-50493306D01*
X402123896Y-50988280D02*
X401888193Y-50752578D01*
X401628921Y-50964710D01*
X401676061Y-50964710D01*
X401746772Y-50988280D01*
X401864623Y-51106132D01*
X401888193Y-51176842D01*
X401888193Y-51223983D01*
X401864623Y-51294693D01*
X401746772Y-51412544D01*
X401676061Y-51436115D01*
X401628921Y-51436115D01*
X401558210Y-51412544D01*
X401440359Y-51294693D01*
X401416789Y-51223983D01*
X401416789Y-51176842D01*
X413024690Y-47026857D02*
X413138976Y-47064952D01*
X413177071Y-47103047D01*
X413215166Y-47179238D01*
X413215166Y-47293523D01*
X413177071Y-47369714D01*
X413138976Y-47407809D01*
X413062785Y-47445904D01*
X412758023Y-47445904D01*
X412758023Y-46645904D01*
X413024690Y-46645904D01*
X413100880Y-46684000D01*
X413138976Y-46722095D01*
X413177071Y-46798285D01*
X413177071Y-46874476D01*
X413138976Y-46950666D01*
X413100880Y-46988761D01*
X413024690Y-47026857D01*
X412758023Y-47026857D01*
X413481833Y-46645904D02*
X413977071Y-46645904D01*
X413710404Y-46950666D01*
X413824690Y-46950666D01*
X413900880Y-46988761D01*
X413938976Y-47026857D01*
X413977071Y-47103047D01*
X413977071Y-47293523D01*
X413938976Y-47369714D01*
X413900880Y-47407809D01*
X413824690Y-47445904D01*
X413596119Y-47445904D01*
X413519928Y-47407809D01*
X413481833Y-47369714D01*
X413024690Y-44486857D02*
X413138976Y-44524952D01*
X413177071Y-44563047D01*
X413215166Y-44639238D01*
X413215166Y-44753523D01*
X413177071Y-44829714D01*
X413138976Y-44867809D01*
X413062785Y-44905904D01*
X412758023Y-44905904D01*
X412758023Y-44105904D01*
X413024690Y-44105904D01*
X413100880Y-44144000D01*
X413138976Y-44182095D01*
X413177071Y-44258285D01*
X413177071Y-44334476D01*
X413138976Y-44410666D01*
X413100880Y-44448761D01*
X413024690Y-44486857D01*
X412758023Y-44486857D01*
X413977071Y-44905904D02*
X413519928Y-44905904D01*
X413748500Y-44905904D02*
X413748500Y-44105904D01*
X413672309Y-44220190D01*
X413596119Y-44296380D01*
X413519928Y-44334476D01*
X413081833Y-34326857D02*
X412815166Y-34326857D01*
X412815166Y-34745904D02*
X412815166Y-33945904D01*
X413196119Y-33945904D01*
X413843738Y-34212571D02*
X413843738Y-34745904D01*
X413653261Y-33907809D02*
X413462785Y-34479238D01*
X413958023Y-34479238D01*
X412281833Y-31405904D02*
X412548500Y-32205904D01*
X412815166Y-31405904D01*
X413538976Y-32129714D02*
X413500880Y-32167809D01*
X413386595Y-32205904D01*
X413310404Y-32205904D01*
X413196119Y-32167809D01*
X413119928Y-32091619D01*
X413081833Y-32015428D01*
X413043738Y-31863047D01*
X413043738Y-31748761D01*
X413081833Y-31596380D01*
X413119928Y-31520190D01*
X413196119Y-31444000D01*
X413310404Y-31405904D01*
X413386595Y-31405904D01*
X413500880Y-31444000D01*
X413538976Y-31482095D01*
X414338976Y-32129714D02*
X414300880Y-32167809D01*
X414186595Y-32205904D01*
X414110404Y-32205904D01*
X413996119Y-32167809D01*
X413919928Y-32091619D01*
X413881833Y-32015428D01*
X413843738Y-31863047D01*
X413843738Y-31748761D01*
X413881833Y-31596380D01*
X413919928Y-31520190D01*
X413996119Y-31444000D01*
X414110404Y-31405904D01*
X414186595Y-31405904D01*
X414300880Y-31444000D01*
X414338976Y-31482095D01*
X413087286Y-29597809D02*
X413201572Y-29635904D01*
X413392048Y-29635904D01*
X413468239Y-29597809D01*
X413506334Y-29559714D01*
X413544429Y-29483523D01*
X413544429Y-29407333D01*
X413506334Y-29331142D01*
X413468239Y-29293047D01*
X413392048Y-29254952D01*
X413239667Y-29216857D01*
X413163477Y-29178761D01*
X413125381Y-29140666D01*
X413087286Y-29064476D01*
X413087286Y-28988285D01*
X413125381Y-28912095D01*
X413163477Y-28874000D01*
X413239667Y-28835904D01*
X413430143Y-28835904D01*
X413544429Y-28874000D01*
X413773000Y-28835904D02*
X414230143Y-28835904D01*
X414001572Y-29635904D02*
X414001572Y-28835904D01*
X412738976Y-26364000D02*
X412662785Y-26325904D01*
X412548500Y-26325904D01*
X412434214Y-26364000D01*
X412358023Y-26440190D01*
X412319928Y-26516380D01*
X412281833Y-26668761D01*
X412281833Y-26783047D01*
X412319928Y-26935428D01*
X412358023Y-27011619D01*
X412434214Y-27087809D01*
X412548500Y-27125904D01*
X412624690Y-27125904D01*
X412738976Y-27087809D01*
X412777071Y-27049714D01*
X412777071Y-26783047D01*
X412624690Y-26783047D01*
X413119928Y-27125904D02*
X413119928Y-26325904D01*
X413577071Y-27125904D01*
X413577071Y-26325904D01*
X413958023Y-27125904D02*
X413958023Y-26325904D01*
X414148500Y-26325904D01*
X414262785Y-26364000D01*
X414338976Y-26440190D01*
X414377071Y-26516380D01*
X414415166Y-26668761D01*
X414415166Y-26783047D01*
X414377071Y-26935428D01*
X414338976Y-27011619D01*
X414262785Y-27087809D01*
X414148500Y-27125904D01*
X413958023Y-27125904D01*
X413024690Y-24166857D02*
X413138976Y-24204952D01*
X413177071Y-24243047D01*
X413215166Y-24319238D01*
X413215166Y-24433523D01*
X413177071Y-24509714D01*
X413138976Y-24547809D01*
X413062785Y-24585904D01*
X412758023Y-24585904D01*
X412758023Y-23785904D01*
X413024690Y-23785904D01*
X413100880Y-23824000D01*
X413138976Y-23862095D01*
X413177071Y-23938285D01*
X413177071Y-24014476D01*
X413138976Y-24090666D01*
X413100880Y-24128761D01*
X413024690Y-24166857D01*
X412758023Y-24166857D01*
X413710404Y-23785904D02*
X413786595Y-23785904D01*
X413862785Y-23824000D01*
X413900880Y-23862095D01*
X413938976Y-23938285D01*
X413977071Y-24090666D01*
X413977071Y-24281142D01*
X413938976Y-24433523D01*
X413900880Y-24509714D01*
X413862785Y-24547809D01*
X413786595Y-24585904D01*
X413710404Y-24585904D01*
X413634214Y-24547809D01*
X413596119Y-24509714D01*
X413558023Y-24433523D01*
X413519928Y-24281142D01*
X413519928Y-24090666D01*
X413558023Y-23938285D01*
X413596119Y-23862095D01*
X413634214Y-23824000D01*
X413710404Y-23785904D01*
X413081833Y-36866857D02*
X412815166Y-36866857D01*
X412815166Y-37285904D02*
X412815166Y-36485904D01*
X413196119Y-36485904D01*
X413881833Y-36485904D02*
X413500880Y-36485904D01*
X413462785Y-36866857D01*
X413500880Y-36828761D01*
X413577071Y-36790666D01*
X413767547Y-36790666D01*
X413843738Y-36828761D01*
X413881833Y-36866857D01*
X413919928Y-36943047D01*
X413919928Y-37133523D01*
X413881833Y-37209714D01*
X413843738Y-37247809D01*
X413767547Y-37285904D01*
X413577071Y-37285904D01*
X413500880Y-37247809D01*
X413462785Y-37209714D01*
X413081833Y-39406857D02*
X412815166Y-39406857D01*
X412815166Y-39825904D02*
X412815166Y-39025904D01*
X413196119Y-39025904D01*
X413843738Y-39025904D02*
X413691357Y-39025904D01*
X413615166Y-39064000D01*
X413577071Y-39102095D01*
X413500880Y-39216380D01*
X413462785Y-39368761D01*
X413462785Y-39673523D01*
X413500880Y-39749714D01*
X413538976Y-39787809D01*
X413615166Y-39825904D01*
X413767547Y-39825904D01*
X413843738Y-39787809D01*
X413881833Y-39749714D01*
X413919928Y-39673523D01*
X413919928Y-39483047D01*
X413881833Y-39406857D01*
X413843738Y-39368761D01*
X413767547Y-39330666D01*
X413615166Y-39330666D01*
X413538976Y-39368761D01*
X413500880Y-39406857D01*
X413462785Y-39483047D01*
X413081833Y-41946857D02*
X412815166Y-41946857D01*
X412815166Y-42365904D02*
X412815166Y-41565904D01*
X413196119Y-41565904D01*
X413424690Y-41565904D02*
X413958023Y-41565904D01*
X413615166Y-42365904D01*
X413024690Y-49566857D02*
X413138976Y-49604952D01*
X413177071Y-49643047D01*
X413215166Y-49719238D01*
X413215166Y-49833523D01*
X413177071Y-49909714D01*
X413138976Y-49947809D01*
X413062785Y-49985904D01*
X412758023Y-49985904D01*
X412758023Y-49185904D01*
X413024690Y-49185904D01*
X413100880Y-49224000D01*
X413138976Y-49262095D01*
X413177071Y-49338285D01*
X413177071Y-49414476D01*
X413138976Y-49490666D01*
X413100880Y-49528761D01*
X413024690Y-49566857D01*
X412758023Y-49566857D01*
X413519928Y-49262095D02*
X413558023Y-49224000D01*
X413634214Y-49185904D01*
X413824690Y-49185904D01*
X413900880Y-49224000D01*
X413938976Y-49262095D01*
X413977071Y-49338285D01*
X413977071Y-49414476D01*
X413938976Y-49528761D01*
X413481833Y-49985904D01*
X413977071Y-49985904D01*
M02*
