G04 #@! TF.GenerationSoftware,KiCad,Pcbnew,(5.1.9)-1*
G04 #@! TF.CreationDate,2021-02-17T22:07:48-08:00*
G04 #@! TF.ProjectId,onigaku,6f6e6967-616b-4752-9e6b-696361645f70,rev?*
G04 #@! TF.SameCoordinates,Original*
G04 #@! TF.FileFunction,Soldermask,Bot*
G04 #@! TF.FilePolarity,Negative*
%FSLAX46Y46*%
G04 Gerber Fmt 4.6, Leading zero omitted, Abs format (unit mm)*
G04 Created by KiCad (PCBNEW (5.1.9)-1) date 2021-02-17 22:07:48*
%MOMM*%
%LPD*%
G01*
G04 APERTURE LIST*
%ADD10C,1.200000*%
%ADD11O,1.500000X2.300000*%
%ADD12R,1.700000X1.000000*%
%ADD13C,1.752600*%
%ADD14R,1.752600X1.752600*%
%ADD15R,2.550000X2.500000*%
%ADD16C,4.100000*%
%ADD17C,1.900000*%
%ADD18C,3.000000*%
%ADD19C,3.987800*%
%ADD20C,1.750000*%
%ADD21R,1.000000X1.400000*%
%ADD22C,1.397000*%
%ADD23C,3.048000*%
G04 APERTURE END LIST*
D10*
X170062000Y-22501000D03*
X170062000Y-29501000D03*
D11*
X172212000Y-24301000D03*
X172212000Y-27301000D03*
X172212000Y-31301000D03*
X167912000Y-32801000D03*
D10*
X179133500Y-22374000D03*
X179133500Y-29374000D03*
D11*
X181283500Y-24174000D03*
X181283500Y-27174000D03*
X181283500Y-31174000D03*
X176983500Y-32674000D03*
D12*
X59563000Y-95628000D03*
X59563000Y-97028000D03*
X54063000Y-95628000D03*
X54063000Y-97028000D03*
X50038000Y-38481000D03*
X50038000Y-39881000D03*
X44538000Y-38481000D03*
X44538000Y-39881000D03*
G36*
G01*
X61611500Y-96744500D02*
X62086500Y-96744500D01*
G75*
G02*
X62324000Y-96982000I0J-237500D01*
G01*
X62324000Y-97582000D01*
G75*
G02*
X62086500Y-97819500I-237500J0D01*
G01*
X61611500Y-97819500D01*
G75*
G02*
X61374000Y-97582000I0J237500D01*
G01*
X61374000Y-96982000D01*
G75*
G02*
X61611500Y-96744500I237500J0D01*
G01*
G37*
G36*
G01*
X61611500Y-95019500D02*
X62086500Y-95019500D01*
G75*
G02*
X62324000Y-95257000I0J-237500D01*
G01*
X62324000Y-95857000D01*
G75*
G02*
X62086500Y-96094500I-237500J0D01*
G01*
X61611500Y-96094500D01*
G75*
G02*
X61374000Y-95857000I0J237500D01*
G01*
X61374000Y-95257000D01*
G75*
G02*
X61611500Y-95019500I237500J0D01*
G01*
G37*
G36*
G01*
X52086500Y-39467500D02*
X52561500Y-39467500D01*
G75*
G02*
X52799000Y-39705000I0J-237500D01*
G01*
X52799000Y-40305000D01*
G75*
G02*
X52561500Y-40542500I-237500J0D01*
G01*
X52086500Y-40542500D01*
G75*
G02*
X51849000Y-40305000I0J237500D01*
G01*
X51849000Y-39705000D01*
G75*
G02*
X52086500Y-39467500I237500J0D01*
G01*
G37*
G36*
G01*
X52086500Y-37742500D02*
X52561500Y-37742500D01*
G75*
G02*
X52799000Y-37980000I0J-237500D01*
G01*
X52799000Y-38580000D01*
G75*
G02*
X52561500Y-38817500I-237500J0D01*
G01*
X52086500Y-38817500D01*
G75*
G02*
X51849000Y-38580000I0J237500D01*
G01*
X51849000Y-37980000D01*
G75*
G02*
X52086500Y-37742500I237500J0D01*
G01*
G37*
X386733500Y-57484000D03*
X386733500Y-58884000D03*
X381233500Y-57484000D03*
X381233500Y-58884000D03*
G36*
G01*
X388954000Y-58491000D02*
X389429000Y-58491000D01*
G75*
G02*
X389666500Y-58728500I0J-237500D01*
G01*
X389666500Y-59328500D01*
G75*
G02*
X389429000Y-59566000I-237500J0D01*
G01*
X388954000Y-59566000D01*
G75*
G02*
X388716500Y-59328500I0J237500D01*
G01*
X388716500Y-58728500D01*
G75*
G02*
X388954000Y-58491000I237500J0D01*
G01*
G37*
G36*
G01*
X388954000Y-56766000D02*
X389429000Y-56766000D01*
G75*
G02*
X389666500Y-57003500I0J-237500D01*
G01*
X389666500Y-57603500D01*
G75*
G02*
X389429000Y-57841000I-237500J0D01*
G01*
X388954000Y-57841000D01*
G75*
G02*
X388716500Y-57603500I0J237500D01*
G01*
X388716500Y-57003500D01*
G75*
G02*
X388954000Y-56766000I237500J0D01*
G01*
G37*
X365651500Y-95584000D03*
X365651500Y-96984000D03*
X360151500Y-95584000D03*
X360151500Y-96984000D03*
G36*
G01*
X367745000Y-96591000D02*
X368220000Y-96591000D01*
G75*
G02*
X368457500Y-96828500I0J-237500D01*
G01*
X368457500Y-97428500D01*
G75*
G02*
X368220000Y-97666000I-237500J0D01*
G01*
X367745000Y-97666000D01*
G75*
G02*
X367507500Y-97428500I0J237500D01*
G01*
X367507500Y-96828500D01*
G75*
G02*
X367745000Y-96591000I237500J0D01*
G01*
G37*
G36*
G01*
X367745000Y-94866000D02*
X368220000Y-94866000D01*
G75*
G02*
X368457500Y-95103500I0J-237500D01*
G01*
X368457500Y-95703500D01*
G75*
G02*
X368220000Y-95941000I-237500J0D01*
G01*
X367745000Y-95941000D01*
G75*
G02*
X367507500Y-95703500I0J237500D01*
G01*
X367507500Y-95103500D01*
G75*
G02*
X367745000Y-94866000I237500J0D01*
G01*
G37*
X342709500Y-95628000D03*
X342709500Y-97028000D03*
X337209500Y-95628000D03*
X337209500Y-97028000D03*
X386733500Y-88643000D03*
X386733500Y-90043000D03*
X381233500Y-88643000D03*
X381233500Y-90043000D03*
X386733500Y-71755000D03*
X386733500Y-73155000D03*
X381233500Y-71755000D03*
X381233500Y-73155000D03*
G36*
G01*
X344758000Y-96617500D02*
X345233000Y-96617500D01*
G75*
G02*
X345470500Y-96855000I0J-237500D01*
G01*
X345470500Y-97455000D01*
G75*
G02*
X345233000Y-97692500I-237500J0D01*
G01*
X344758000Y-97692500D01*
G75*
G02*
X344520500Y-97455000I0J237500D01*
G01*
X344520500Y-96855000D01*
G75*
G02*
X344758000Y-96617500I237500J0D01*
G01*
G37*
G36*
G01*
X344758000Y-94892500D02*
X345233000Y-94892500D01*
G75*
G02*
X345470500Y-95130000I0J-237500D01*
G01*
X345470500Y-95730000D01*
G75*
G02*
X345233000Y-95967500I-237500J0D01*
G01*
X344758000Y-95967500D01*
G75*
G02*
X344520500Y-95730000I0J237500D01*
G01*
X344520500Y-95130000D01*
G75*
G02*
X344758000Y-94892500I237500J0D01*
G01*
G37*
G36*
G01*
X388954000Y-89632500D02*
X389429000Y-89632500D01*
G75*
G02*
X389666500Y-89870000I0J-237500D01*
G01*
X389666500Y-90470000D01*
G75*
G02*
X389429000Y-90707500I-237500J0D01*
G01*
X388954000Y-90707500D01*
G75*
G02*
X388716500Y-90470000I0J237500D01*
G01*
X388716500Y-89870000D01*
G75*
G02*
X388954000Y-89632500I237500J0D01*
G01*
G37*
G36*
G01*
X388954000Y-87907500D02*
X389429000Y-87907500D01*
G75*
G02*
X389666500Y-88145000I0J-237500D01*
G01*
X389666500Y-88745000D01*
G75*
G02*
X389429000Y-88982500I-237500J0D01*
G01*
X388954000Y-88982500D01*
G75*
G02*
X388716500Y-88745000I0J237500D01*
G01*
X388716500Y-88145000D01*
G75*
G02*
X388954000Y-87907500I237500J0D01*
G01*
G37*
G36*
G01*
X388827000Y-72741500D02*
X389302000Y-72741500D01*
G75*
G02*
X389539500Y-72979000I0J-237500D01*
G01*
X389539500Y-73579000D01*
G75*
G02*
X389302000Y-73816500I-237500J0D01*
G01*
X388827000Y-73816500D01*
G75*
G02*
X388589500Y-73579000I0J237500D01*
G01*
X388589500Y-72979000D01*
G75*
G02*
X388827000Y-72741500I237500J0D01*
G01*
G37*
G36*
G01*
X388827000Y-71016500D02*
X389302000Y-71016500D01*
G75*
G02*
X389539500Y-71254000I0J-237500D01*
G01*
X389539500Y-71854000D01*
G75*
G02*
X389302000Y-72091500I-237500J0D01*
G01*
X388827000Y-72091500D01*
G75*
G02*
X388589500Y-71854000I0J237500D01*
G01*
X388589500Y-71254000D01*
G75*
G02*
X388827000Y-71016500I237500J0D01*
G01*
G37*
X314470500Y-95566000D03*
X314470500Y-96966000D03*
X308970500Y-95566000D03*
X308970500Y-96966000D03*
G36*
G01*
X316691000Y-96564500D02*
X317166000Y-96564500D01*
G75*
G02*
X317403500Y-96802000I0J-237500D01*
G01*
X317403500Y-97402000D01*
G75*
G02*
X317166000Y-97639500I-237500J0D01*
G01*
X316691000Y-97639500D01*
G75*
G02*
X316453500Y-97402000I0J237500D01*
G01*
X316453500Y-96802000D01*
G75*
G02*
X316691000Y-96564500I237500J0D01*
G01*
G37*
G36*
G01*
X316691000Y-94839500D02*
X317166000Y-94839500D01*
G75*
G02*
X317403500Y-95077000I0J-237500D01*
G01*
X317403500Y-95677000D01*
G75*
G02*
X317166000Y-95914500I-237500J0D01*
G01*
X316691000Y-95914500D01*
G75*
G02*
X316453500Y-95677000I0J237500D01*
G01*
X316453500Y-95077000D01*
G75*
G02*
X316691000Y-94839500I237500J0D01*
G01*
G37*
D13*
X17435000Y-52164000D03*
X19975000Y-52164000D03*
X22515000Y-52164000D03*
X25055000Y-52164000D03*
X27595000Y-52164000D03*
X30135000Y-24224000D03*
X15123600Y-52164000D03*
X30135000Y-26764000D03*
X30135000Y-29304000D03*
X30135000Y-31844000D03*
X30135000Y-34384000D03*
X30135000Y-36924000D03*
X30135000Y-39464000D03*
X30135000Y-42004000D03*
X30135000Y-44544000D03*
X30135000Y-47084000D03*
X30135000Y-49624000D03*
X30135000Y-52164000D03*
X14895000Y-49624000D03*
X14895000Y-47084000D03*
X14895000Y-44544000D03*
X14895000Y-42004000D03*
X14895000Y-39464000D03*
X14895000Y-36924000D03*
X14895000Y-34384000D03*
X14895000Y-31844000D03*
X14895000Y-29304000D03*
X14895000Y-26764000D03*
D14*
X14895000Y-24224000D03*
D15*
X130592500Y-89281000D03*
D16*
X123507500Y-86741000D03*
D17*
X118427500Y-86741000D03*
X128587500Y-86741000D03*
D15*
X117665500Y-91821000D03*
D18*
X127317500Y-89281000D03*
X120967500Y-91821000D03*
D19*
X49688750Y-67691000D03*
D20*
X54768750Y-67691000D03*
X44608750Y-67691000D03*
D15*
X56773750Y-70231000D03*
D16*
X49688750Y-67691000D03*
D17*
X44608750Y-67691000D03*
X54768750Y-67691000D03*
D15*
X43846750Y-72771000D03*
D18*
X53498750Y-70231000D03*
X47148750Y-72771000D03*
D15*
X54392500Y-51181000D03*
D16*
X47307500Y-48641000D03*
D17*
X42227500Y-48641000D03*
X52387500Y-48641000D03*
D15*
X41465500Y-53721000D03*
D18*
X51117500Y-51181000D03*
X44767500Y-53721000D03*
D12*
X111843000Y-38416000D03*
X111843000Y-39816000D03*
X106343000Y-38416000D03*
X106343000Y-39816000D03*
X127591000Y-95693000D03*
X127591000Y-97093000D03*
X122091000Y-95693000D03*
X122091000Y-97093000D03*
X340252500Y-38416000D03*
X340252500Y-39816000D03*
X334752500Y-38416000D03*
X334752500Y-39816000D03*
X154896000Y-95566000D03*
X154896000Y-96966000D03*
X149396000Y-95566000D03*
X149396000Y-96966000D03*
X199790500Y-76516000D03*
X199790500Y-77916000D03*
X194290500Y-76516000D03*
X194290500Y-77916000D03*
X140672000Y-38162000D03*
X140672000Y-39562000D03*
X135172000Y-38162000D03*
X135172000Y-39562000D03*
X280816500Y-38416000D03*
X280816500Y-39816000D03*
X275316500Y-38416000D03*
X275316500Y-39816000D03*
X242716500Y-38416000D03*
X242716500Y-39816000D03*
X237216500Y-38416000D03*
X237216500Y-39816000D03*
X204616500Y-38416000D03*
X204616500Y-39816000D03*
X199116500Y-38416000D03*
X199116500Y-39816000D03*
X88983000Y-95693000D03*
X88983000Y-97093000D03*
X83483000Y-95693000D03*
X83483000Y-97093000D03*
X290976500Y-95566000D03*
X290976500Y-96966000D03*
X285476500Y-95566000D03*
X285476500Y-96966000D03*
X266465500Y-95566000D03*
X266465500Y-96966000D03*
X260965500Y-95566000D03*
X260965500Y-96966000D03*
X52407000Y-57401000D03*
X52407000Y-58801000D03*
X46907000Y-57401000D03*
X46907000Y-58801000D03*
X199790500Y-57466000D03*
X199790500Y-58866000D03*
X194290500Y-57466000D03*
X194290500Y-58866000D03*
X145371000Y-76516000D03*
X145371000Y-77916000D03*
X139871000Y-76516000D03*
X139871000Y-77916000D03*
X52407000Y-76516000D03*
X52407000Y-77916000D03*
X46907000Y-76516000D03*
X46907000Y-77916000D03*
X239541500Y-95566000D03*
X239541500Y-96966000D03*
X234041500Y-95566000D03*
X234041500Y-96966000D03*
X209315500Y-95439000D03*
X209315500Y-96839000D03*
X203815500Y-95439000D03*
X203815500Y-96839000D03*
X367938500Y-38416000D03*
X367938500Y-39816000D03*
X362438500Y-38416000D03*
X362438500Y-39816000D03*
X140545000Y-57466000D03*
X140545000Y-58866000D03*
X135045000Y-57466000D03*
X135045000Y-58866000D03*
X83522000Y-38543000D03*
X83522000Y-39943000D03*
X78022000Y-38543000D03*
X78022000Y-39943000D03*
X314090500Y-38416000D03*
X314090500Y-39816000D03*
X308590500Y-38416000D03*
X308590500Y-39816000D03*
D21*
X379920500Y-107696000D03*
X379920500Y-104146000D03*
X360997500Y-107569000D03*
X360997500Y-104019000D03*
X341947500Y-107823000D03*
X341947500Y-104273000D03*
X360997500Y-88519000D03*
X360997500Y-84969000D03*
X380047500Y-50546000D03*
X380047500Y-46996000D03*
X360997500Y-50546000D03*
X360997500Y-46996000D03*
X341947500Y-50546000D03*
X341947500Y-46996000D03*
X380047500Y-31623000D03*
X380047500Y-28073000D03*
X360870500Y-31623000D03*
X360870500Y-28073000D03*
X341820500Y-31623000D03*
X341820500Y-28073000D03*
G36*
G01*
X354283000Y-101443500D02*
X354758000Y-101443500D01*
G75*
G02*
X354995500Y-101681000I0J-237500D01*
G01*
X354995500Y-102281000D01*
G75*
G02*
X354758000Y-102518500I-237500J0D01*
G01*
X354283000Y-102518500D01*
G75*
G02*
X354045500Y-102281000I0J237500D01*
G01*
X354045500Y-101681000D01*
G75*
G02*
X354283000Y-101443500I237500J0D01*
G01*
G37*
G36*
G01*
X354283000Y-99718500D02*
X354758000Y-99718500D01*
G75*
G02*
X354995500Y-99956000I0J-237500D01*
G01*
X354995500Y-100556000D01*
G75*
G02*
X354758000Y-100793500I-237500J0D01*
G01*
X354283000Y-100793500D01*
G75*
G02*
X354045500Y-100556000I0J237500D01*
G01*
X354045500Y-99956000D01*
G75*
G02*
X354283000Y-99718500I237500J0D01*
G01*
G37*
G36*
G01*
X373333000Y-82367000D02*
X373808000Y-82367000D01*
G75*
G02*
X374045500Y-82604500I0J-237500D01*
G01*
X374045500Y-83204500D01*
G75*
G02*
X373808000Y-83442000I-237500J0D01*
G01*
X373333000Y-83442000D01*
G75*
G02*
X373095500Y-83204500I0J237500D01*
G01*
X373095500Y-82604500D01*
G75*
G02*
X373333000Y-82367000I237500J0D01*
G01*
G37*
G36*
G01*
X373333000Y-80642000D02*
X373808000Y-80642000D01*
G75*
G02*
X374045500Y-80879500I0J-237500D01*
G01*
X374045500Y-81479500D01*
G75*
G02*
X373808000Y-81717000I-237500J0D01*
G01*
X373333000Y-81717000D01*
G75*
G02*
X373095500Y-81479500I0J237500D01*
G01*
X373095500Y-80879500D01*
G75*
G02*
X373333000Y-80642000I237500J0D01*
G01*
G37*
G36*
G01*
X392383000Y-44166500D02*
X392858000Y-44166500D01*
G75*
G02*
X393095500Y-44404000I0J-237500D01*
G01*
X393095500Y-45004000D01*
G75*
G02*
X392858000Y-45241500I-237500J0D01*
G01*
X392383000Y-45241500D01*
G75*
G02*
X392145500Y-45004000I0J237500D01*
G01*
X392145500Y-44404000D01*
G75*
G02*
X392383000Y-44166500I237500J0D01*
G01*
G37*
G36*
G01*
X392383000Y-42441500D02*
X392858000Y-42441500D01*
G75*
G02*
X393095500Y-42679000I0J-237500D01*
G01*
X393095500Y-43279000D01*
G75*
G02*
X392858000Y-43516500I-237500J0D01*
G01*
X392383000Y-43516500D01*
G75*
G02*
X392145500Y-43279000I0J237500D01*
G01*
X392145500Y-42679000D01*
G75*
G02*
X392383000Y-42441500I237500J0D01*
G01*
G37*
G36*
G01*
X373460000Y-44267000D02*
X373935000Y-44267000D01*
G75*
G02*
X374172500Y-44504500I0J-237500D01*
G01*
X374172500Y-45104500D01*
G75*
G02*
X373935000Y-45342000I-237500J0D01*
G01*
X373460000Y-45342000D01*
G75*
G02*
X373222500Y-45104500I0J237500D01*
G01*
X373222500Y-44504500D01*
G75*
G02*
X373460000Y-44267000I237500J0D01*
G01*
G37*
G36*
G01*
X373460000Y-42542000D02*
X373935000Y-42542000D01*
G75*
G02*
X374172500Y-42779500I0J-237500D01*
G01*
X374172500Y-43379500D01*
G75*
G02*
X373935000Y-43617000I-237500J0D01*
G01*
X373460000Y-43617000D01*
G75*
G02*
X373222500Y-43379500I0J237500D01*
G01*
X373222500Y-42779500D01*
G75*
G02*
X373460000Y-42542000I237500J0D01*
G01*
G37*
G36*
G01*
X354283000Y-44293500D02*
X354758000Y-44293500D01*
G75*
G02*
X354995500Y-44531000I0J-237500D01*
G01*
X354995500Y-45131000D01*
G75*
G02*
X354758000Y-45368500I-237500J0D01*
G01*
X354283000Y-45368500D01*
G75*
G02*
X354045500Y-45131000I0J237500D01*
G01*
X354045500Y-44531000D01*
G75*
G02*
X354283000Y-44293500I237500J0D01*
G01*
G37*
G36*
G01*
X354283000Y-42568500D02*
X354758000Y-42568500D01*
G75*
G02*
X354995500Y-42806000I0J-237500D01*
G01*
X354995500Y-43406000D01*
G75*
G02*
X354758000Y-43643500I-237500J0D01*
G01*
X354283000Y-43643500D01*
G75*
G02*
X354045500Y-43406000I0J237500D01*
G01*
X354045500Y-42806000D01*
G75*
G02*
X354283000Y-42568500I237500J0D01*
G01*
G37*
G36*
G01*
X392383000Y-25243500D02*
X392858000Y-25243500D01*
G75*
G02*
X393095500Y-25481000I0J-237500D01*
G01*
X393095500Y-26081000D01*
G75*
G02*
X392858000Y-26318500I-237500J0D01*
G01*
X392383000Y-26318500D01*
G75*
G02*
X392145500Y-26081000I0J237500D01*
G01*
X392145500Y-25481000D01*
G75*
G02*
X392383000Y-25243500I237500J0D01*
G01*
G37*
G36*
G01*
X392383000Y-23518500D02*
X392858000Y-23518500D01*
G75*
G02*
X393095500Y-23756000I0J-237500D01*
G01*
X393095500Y-24356000D01*
G75*
G02*
X392858000Y-24593500I-237500J0D01*
G01*
X392383000Y-24593500D01*
G75*
G02*
X392145500Y-24356000I0J237500D01*
G01*
X392145500Y-23756000D01*
G75*
G02*
X392383000Y-23518500I237500J0D01*
G01*
G37*
G36*
G01*
X373333000Y-25116500D02*
X373808000Y-25116500D01*
G75*
G02*
X374045500Y-25354000I0J-237500D01*
G01*
X374045500Y-25954000D01*
G75*
G02*
X373808000Y-26191500I-237500J0D01*
G01*
X373333000Y-26191500D01*
G75*
G02*
X373095500Y-25954000I0J237500D01*
G01*
X373095500Y-25354000D01*
G75*
G02*
X373333000Y-25116500I237500J0D01*
G01*
G37*
G36*
G01*
X373333000Y-23391500D02*
X373808000Y-23391500D01*
G75*
G02*
X374045500Y-23629000I0J-237500D01*
G01*
X374045500Y-24229000D01*
G75*
G02*
X373808000Y-24466500I-237500J0D01*
G01*
X373333000Y-24466500D01*
G75*
G02*
X373095500Y-24229000I0J237500D01*
G01*
X373095500Y-23629000D01*
G75*
G02*
X373333000Y-23391500I237500J0D01*
G01*
G37*
G36*
G01*
X354283000Y-25116500D02*
X354758000Y-25116500D01*
G75*
G02*
X354995500Y-25354000I0J-237500D01*
G01*
X354995500Y-25954000D01*
G75*
G02*
X354758000Y-26191500I-237500J0D01*
G01*
X354283000Y-26191500D01*
G75*
G02*
X354045500Y-25954000I0J237500D01*
G01*
X354045500Y-25354000D01*
G75*
G02*
X354283000Y-25116500I237500J0D01*
G01*
G37*
G36*
G01*
X354283000Y-23391500D02*
X354758000Y-23391500D01*
G75*
G02*
X354995500Y-23629000I0J-237500D01*
G01*
X354995500Y-24229000D01*
G75*
G02*
X354758000Y-24466500I-237500J0D01*
G01*
X354283000Y-24466500D01*
G75*
G02*
X354045500Y-24229000I0J237500D01*
G01*
X354045500Y-23629000D01*
G75*
G02*
X354283000Y-23391500I237500J0D01*
G01*
G37*
D12*
X390290500Y-100392000D03*
X390290500Y-101792000D03*
X384790500Y-100392000D03*
X384790500Y-101792000D03*
X371367500Y-100392000D03*
X371367500Y-101792000D03*
X365867500Y-100392000D03*
X365867500Y-101792000D03*
X352317500Y-100392000D03*
X352317500Y-101792000D03*
X346817500Y-100392000D03*
X346817500Y-101792000D03*
X371367500Y-81342000D03*
X371367500Y-82742000D03*
X365867500Y-81342000D03*
X365867500Y-82742000D03*
X390373500Y-43242000D03*
X390373500Y-44642000D03*
X384873500Y-43242000D03*
X384873500Y-44642000D03*
X371367500Y-43242000D03*
X371367500Y-44642000D03*
X365867500Y-43242000D03*
X365867500Y-44642000D03*
X352317500Y-43242000D03*
X352317500Y-44642000D03*
X346817500Y-43242000D03*
X346817500Y-44642000D03*
X390417500Y-24192000D03*
X390417500Y-25592000D03*
X384917500Y-24192000D03*
X384917500Y-25592000D03*
X371284500Y-24127000D03*
X371284500Y-25527000D03*
X365784500Y-24127000D03*
X365784500Y-25527000D03*
X352317500Y-24192000D03*
X352317500Y-25592000D03*
X346817500Y-24192000D03*
X346817500Y-25592000D03*
D15*
X394625500Y-108331000D03*
D16*
X387540500Y-105791000D03*
D17*
X382460500Y-105791000D03*
X392620500Y-105791000D03*
D15*
X381698500Y-110871000D03*
D18*
X391350500Y-108331000D03*
X385000500Y-110871000D03*
D15*
X375575500Y-108331000D03*
D16*
X368490500Y-105791000D03*
D17*
X363410500Y-105791000D03*
X373570500Y-105791000D03*
D15*
X362648500Y-110871000D03*
D18*
X372300500Y-108331000D03*
X365950500Y-110871000D03*
D15*
X356556500Y-108331000D03*
D16*
X349471500Y-105791000D03*
D17*
X344391500Y-105791000D03*
X354551500Y-105791000D03*
D15*
X343629500Y-110871000D03*
D18*
X353281500Y-108331000D03*
X346931500Y-110871000D03*
D15*
X375575500Y-89281000D03*
D16*
X368490500Y-86741000D03*
D17*
X363410500Y-86741000D03*
X373570500Y-86741000D03*
D15*
X362648500Y-91821000D03*
D18*
X372300500Y-89281000D03*
X365950500Y-91821000D03*
D15*
X394689000Y-51181000D03*
D16*
X387604000Y-48641000D03*
D17*
X382524000Y-48641000D03*
X392684000Y-48641000D03*
D15*
X381762000Y-53721000D03*
D18*
X391414000Y-51181000D03*
X385064000Y-53721000D03*
D15*
X375639000Y-51181000D03*
D16*
X368554000Y-48641000D03*
D17*
X363474000Y-48641000D03*
X373634000Y-48641000D03*
D15*
X362712000Y-53721000D03*
D18*
X372364000Y-51181000D03*
X366014000Y-53721000D03*
D15*
X356556500Y-51181000D03*
D16*
X349471500Y-48641000D03*
D17*
X344391500Y-48641000D03*
X354551500Y-48641000D03*
D15*
X343629500Y-53721000D03*
D18*
X353281500Y-51181000D03*
X346931500Y-53721000D03*
D15*
X394689000Y-32131000D03*
D16*
X387604000Y-29591000D03*
D17*
X382524000Y-29591000D03*
X392684000Y-29591000D03*
D15*
X381762000Y-34671000D03*
D18*
X391414000Y-32131000D03*
X385064000Y-34671000D03*
D15*
X375639000Y-32131000D03*
D16*
X368554000Y-29591000D03*
D17*
X363474000Y-29591000D03*
X373634000Y-29591000D03*
D15*
X362712000Y-34671000D03*
D18*
X372364000Y-32131000D03*
X366014000Y-34671000D03*
D15*
X356556500Y-32131000D03*
D16*
X349471500Y-29591000D03*
D17*
X344391500Y-29591000D03*
X354551500Y-29591000D03*
D15*
X343629500Y-34671000D03*
D18*
X353281500Y-32131000D03*
X346931500Y-34671000D03*
G36*
G01*
X392256000Y-101390500D02*
X392731000Y-101390500D01*
G75*
G02*
X392968500Y-101628000I0J-237500D01*
G01*
X392968500Y-102228000D01*
G75*
G02*
X392731000Y-102465500I-237500J0D01*
G01*
X392256000Y-102465500D01*
G75*
G02*
X392018500Y-102228000I0J237500D01*
G01*
X392018500Y-101628000D01*
G75*
G02*
X392256000Y-101390500I237500J0D01*
G01*
G37*
G36*
G01*
X392256000Y-99665500D02*
X392731000Y-99665500D01*
G75*
G02*
X392968500Y-99903000I0J-237500D01*
G01*
X392968500Y-100503000D01*
G75*
G02*
X392731000Y-100740500I-237500J0D01*
G01*
X392256000Y-100740500D01*
G75*
G02*
X392018500Y-100503000I0J237500D01*
G01*
X392018500Y-99903000D01*
G75*
G02*
X392256000Y-99665500I237500J0D01*
G01*
G37*
G36*
G01*
X373333000Y-101443500D02*
X373808000Y-101443500D01*
G75*
G02*
X374045500Y-101681000I0J-237500D01*
G01*
X374045500Y-102281000D01*
G75*
G02*
X373808000Y-102518500I-237500J0D01*
G01*
X373333000Y-102518500D01*
G75*
G02*
X373095500Y-102281000I0J237500D01*
G01*
X373095500Y-101681000D01*
G75*
G02*
X373333000Y-101443500I237500J0D01*
G01*
G37*
G36*
G01*
X373333000Y-99718500D02*
X373808000Y-99718500D01*
G75*
G02*
X374045500Y-99956000I0J-237500D01*
G01*
X374045500Y-100556000D01*
G75*
G02*
X373808000Y-100793500I-237500J0D01*
G01*
X373333000Y-100793500D01*
G75*
G02*
X373095500Y-100556000I0J237500D01*
G01*
X373095500Y-99956000D01*
G75*
G02*
X373333000Y-99718500I237500J0D01*
G01*
G37*
D15*
X121067500Y-70231000D03*
D16*
X113982500Y-67691000D03*
D17*
X108902500Y-67691000D03*
X119062500Y-67691000D03*
D15*
X108140500Y-72771000D03*
D18*
X117792500Y-70231000D03*
X111442500Y-72771000D03*
D22*
X18669000Y-73787000D03*
X21209000Y-73787000D03*
X23749000Y-73787000D03*
X26289000Y-73787000D03*
D19*
X54451250Y-86741000D03*
D20*
X49371250Y-86741000D03*
X59531250Y-86741000D03*
D23*
X42513250Y-79756000D03*
X66389250Y-79756000D03*
D19*
X42513250Y-94996000D03*
X66389250Y-94996000D03*
D15*
X61536250Y-89281000D03*
D16*
X54451250Y-86741000D03*
D17*
X49371250Y-86741000D03*
X59531250Y-86741000D03*
D15*
X48609250Y-91821000D03*
D18*
X58261250Y-89281000D03*
X51911250Y-91821000D03*
D15*
X49630000Y-32131000D03*
D16*
X42545000Y-29591000D03*
D17*
X37465000Y-29591000D03*
X47625000Y-29591000D03*
D15*
X36703000Y-34671000D03*
D18*
X46355000Y-32131000D03*
X40005000Y-34671000D03*
D19*
X275653500Y-105791000D03*
D20*
X270573500Y-105791000D03*
X280733500Y-105791000D03*
D15*
X282738500Y-108331000D03*
D16*
X275653500Y-105791000D03*
D17*
X270573500Y-105791000D03*
X280733500Y-105791000D03*
D15*
X269811500Y-110871000D03*
D18*
X279463500Y-108331000D03*
X273113500Y-110871000D03*
D15*
X270832250Y-70231000D03*
D16*
X263747250Y-67691000D03*
D17*
X258667250Y-67691000D03*
X268827250Y-67691000D03*
D15*
X257905250Y-72771000D03*
D18*
X267557250Y-70231000D03*
X261207250Y-72771000D03*
D15*
X199394750Y-32131000D03*
D16*
X192309750Y-29591000D03*
D17*
X187229750Y-29591000D03*
X197389750Y-29591000D03*
D15*
X186467750Y-34671000D03*
D18*
X196119750Y-32131000D03*
X189769750Y-34671000D03*
D19*
X316134750Y-29591000D03*
D20*
X311054750Y-29591000D03*
X321214750Y-29591000D03*
D23*
X304196750Y-22606000D03*
X328072750Y-22606000D03*
D19*
X304196750Y-37846000D03*
X328072750Y-37846000D03*
D15*
X323219750Y-32131000D03*
D16*
X316134750Y-29591000D03*
D17*
X311054750Y-29591000D03*
X321214750Y-29591000D03*
D15*
X310292750Y-34671000D03*
D18*
X319944750Y-32131000D03*
X313594750Y-34671000D03*
G36*
G01*
X31372000Y-60267001D02*
X31372000Y-59366999D01*
G75*
G02*
X31621999Y-59117000I249999J0D01*
G01*
X32322001Y-59117000D01*
G75*
G02*
X32572000Y-59366999I0J-249999D01*
G01*
X32572000Y-60267001D01*
G75*
G02*
X32322001Y-60517000I-249999J0D01*
G01*
X31621999Y-60517000D01*
G75*
G02*
X31372000Y-60267001I0J249999D01*
G01*
G37*
G36*
G01*
X29372000Y-60267001D02*
X29372000Y-59366999D01*
G75*
G02*
X29621999Y-59117000I249999J0D01*
G01*
X30322001Y-59117000D01*
G75*
G02*
X30572000Y-59366999I0J-249999D01*
G01*
X30572000Y-60267001D01*
G75*
G02*
X30322001Y-60517000I-249999J0D01*
G01*
X29621999Y-60517000D01*
G75*
G02*
X29372000Y-60267001I0J249999D01*
G01*
G37*
G36*
G01*
X206582000Y-39340500D02*
X207057000Y-39340500D01*
G75*
G02*
X207294500Y-39578000I0J-237500D01*
G01*
X207294500Y-40178000D01*
G75*
G02*
X207057000Y-40415500I-237500J0D01*
G01*
X206582000Y-40415500D01*
G75*
G02*
X206344500Y-40178000I0J237500D01*
G01*
X206344500Y-39578000D01*
G75*
G02*
X206582000Y-39340500I237500J0D01*
G01*
G37*
G36*
G01*
X206582000Y-37615500D02*
X207057000Y-37615500D01*
G75*
G02*
X207294500Y-37853000I0J-237500D01*
G01*
X207294500Y-38453000D01*
G75*
G02*
X207057000Y-38690500I-237500J0D01*
G01*
X206582000Y-38690500D01*
G75*
G02*
X206344500Y-38453000I0J237500D01*
G01*
X206344500Y-37853000D01*
G75*
G02*
X206582000Y-37615500I237500J0D01*
G01*
G37*
G36*
G01*
X128507500Y-81717000D02*
X128032500Y-81717000D01*
G75*
G02*
X127795000Y-81479500I0J237500D01*
G01*
X127795000Y-80879500D01*
G75*
G02*
X128032500Y-80642000I237500J0D01*
G01*
X128507500Y-80642000D01*
G75*
G02*
X128745000Y-80879500I0J-237500D01*
G01*
X128745000Y-81479500D01*
G75*
G02*
X128507500Y-81717000I-237500J0D01*
G01*
G37*
G36*
G01*
X128507500Y-83442000D02*
X128032500Y-83442000D01*
G75*
G02*
X127795000Y-83204500I0J237500D01*
G01*
X127795000Y-82604500D01*
G75*
G02*
X128032500Y-82367000I237500J0D01*
G01*
X128507500Y-82367000D01*
G75*
G02*
X128745000Y-82604500I0J-237500D01*
G01*
X128745000Y-83204500D01*
G75*
G02*
X128507500Y-83442000I-237500J0D01*
G01*
G37*
G36*
G01*
X119109500Y-62667000D02*
X118634500Y-62667000D01*
G75*
G02*
X118397000Y-62429500I0J237500D01*
G01*
X118397000Y-61829500D01*
G75*
G02*
X118634500Y-61592000I237500J0D01*
G01*
X119109500Y-61592000D01*
G75*
G02*
X119347000Y-61829500I0J-237500D01*
G01*
X119347000Y-62429500D01*
G75*
G02*
X119109500Y-62667000I-237500J0D01*
G01*
G37*
G36*
G01*
X119109500Y-64392000D02*
X118634500Y-64392000D01*
G75*
G02*
X118397000Y-64154500I0J237500D01*
G01*
X118397000Y-63554500D01*
G75*
G02*
X118634500Y-63317000I237500J0D01*
G01*
X119109500Y-63317000D01*
G75*
G02*
X119347000Y-63554500I0J-237500D01*
G01*
X119347000Y-64154500D01*
G75*
G02*
X119109500Y-64392000I-237500J0D01*
G01*
G37*
G36*
G01*
X301832000Y-44166500D02*
X302307000Y-44166500D01*
G75*
G02*
X302544500Y-44404000I0J-237500D01*
G01*
X302544500Y-45004000D01*
G75*
G02*
X302307000Y-45241500I-237500J0D01*
G01*
X301832000Y-45241500D01*
G75*
G02*
X301594500Y-45004000I0J237500D01*
G01*
X301594500Y-44404000D01*
G75*
G02*
X301832000Y-44166500I237500J0D01*
G01*
G37*
G36*
G01*
X301832000Y-42441500D02*
X302307000Y-42441500D01*
G75*
G02*
X302544500Y-42679000I0J-237500D01*
G01*
X302544500Y-43279000D01*
G75*
G02*
X302307000Y-43516500I-237500J0D01*
G01*
X301832000Y-43516500D01*
G75*
G02*
X301594500Y-43279000I0J237500D01*
G01*
X301594500Y-42679000D01*
G75*
G02*
X301832000Y-42441500I237500J0D01*
G01*
G37*
G36*
G01*
X97646500Y-100666500D02*
X97171500Y-100666500D01*
G75*
G02*
X96934000Y-100429000I0J237500D01*
G01*
X96934000Y-99829000D01*
G75*
G02*
X97171500Y-99591500I237500J0D01*
G01*
X97646500Y-99591500D01*
G75*
G02*
X97884000Y-99829000I0J-237500D01*
G01*
X97884000Y-100429000D01*
G75*
G02*
X97646500Y-100666500I-237500J0D01*
G01*
G37*
G36*
G01*
X97646500Y-102391500D02*
X97171500Y-102391500D01*
G75*
G02*
X96934000Y-102154000I0J237500D01*
G01*
X96934000Y-101554000D01*
G75*
G02*
X97171500Y-101316500I237500J0D01*
G01*
X97646500Y-101316500D01*
G75*
G02*
X97884000Y-101554000I0J-237500D01*
G01*
X97884000Y-102154000D01*
G75*
G02*
X97646500Y-102391500I-237500J0D01*
G01*
G37*
G36*
G01*
X154321500Y-101390500D02*
X154796500Y-101390500D01*
G75*
G02*
X155034000Y-101628000I0J-237500D01*
G01*
X155034000Y-102228000D01*
G75*
G02*
X154796500Y-102465500I-237500J0D01*
G01*
X154321500Y-102465500D01*
G75*
G02*
X154084000Y-102228000I0J237500D01*
G01*
X154084000Y-101628000D01*
G75*
G02*
X154321500Y-101390500I237500J0D01*
G01*
G37*
G36*
G01*
X154321500Y-99665500D02*
X154796500Y-99665500D01*
G75*
G02*
X155034000Y-99903000I0J-237500D01*
G01*
X155034000Y-100503000D01*
G75*
G02*
X154796500Y-100740500I-237500J0D01*
G01*
X154321500Y-100740500D01*
G75*
G02*
X154084000Y-100503000I0J237500D01*
G01*
X154084000Y-99903000D01*
G75*
G02*
X154321500Y-99665500I237500J0D01*
G01*
G37*
G36*
G01*
X121522500Y-100740500D02*
X121047500Y-100740500D01*
G75*
G02*
X120810000Y-100503000I0J237500D01*
G01*
X120810000Y-99903000D01*
G75*
G02*
X121047500Y-99665500I237500J0D01*
G01*
X121522500Y-99665500D01*
G75*
G02*
X121760000Y-99903000I0J-237500D01*
G01*
X121760000Y-100503000D01*
G75*
G02*
X121522500Y-100740500I-237500J0D01*
G01*
G37*
G36*
G01*
X121522500Y-102465500D02*
X121047500Y-102465500D01*
G75*
G02*
X120810000Y-102228000I0J237500D01*
G01*
X120810000Y-101628000D01*
G75*
G02*
X121047500Y-101390500I237500J0D01*
G01*
X121522500Y-101390500D01*
G75*
G02*
X121760000Y-101628000I0J-237500D01*
G01*
X121760000Y-102228000D01*
G75*
G02*
X121522500Y-102465500I-237500J0D01*
G01*
G37*
G36*
G01*
X73897500Y-100740500D02*
X73422500Y-100740500D01*
G75*
G02*
X73185000Y-100503000I0J237500D01*
G01*
X73185000Y-99903000D01*
G75*
G02*
X73422500Y-99665500I237500J0D01*
G01*
X73897500Y-99665500D01*
G75*
G02*
X74135000Y-99903000I0J-237500D01*
G01*
X74135000Y-100503000D01*
G75*
G02*
X73897500Y-100740500I-237500J0D01*
G01*
G37*
G36*
G01*
X73897500Y-102465500D02*
X73422500Y-102465500D01*
G75*
G02*
X73185000Y-102228000I0J237500D01*
G01*
X73185000Y-101628000D01*
G75*
G02*
X73422500Y-101390500I237500J0D01*
G01*
X73897500Y-101390500D01*
G75*
G02*
X74135000Y-101628000I0J-237500D01*
G01*
X74135000Y-102228000D01*
G75*
G02*
X73897500Y-102465500I-237500J0D01*
G01*
G37*
G36*
G01*
X218393000Y-101390500D02*
X218868000Y-101390500D01*
G75*
G02*
X219105500Y-101628000I0J-237500D01*
G01*
X219105500Y-102228000D01*
G75*
G02*
X218868000Y-102465500I-237500J0D01*
G01*
X218393000Y-102465500D01*
G75*
G02*
X218155500Y-102228000I0J237500D01*
G01*
X218155500Y-101628000D01*
G75*
G02*
X218393000Y-101390500I237500J0D01*
G01*
G37*
G36*
G01*
X218393000Y-99665500D02*
X218868000Y-99665500D01*
G75*
G02*
X219105500Y-99903000I0J-237500D01*
G01*
X219105500Y-100503000D01*
G75*
G02*
X218868000Y-100740500I-237500J0D01*
G01*
X218393000Y-100740500D01*
G75*
G02*
X218155500Y-100503000I0J237500D01*
G01*
X218155500Y-99903000D01*
G75*
G02*
X218393000Y-99665500I237500J0D01*
G01*
G37*
G36*
G01*
X109584500Y-81717000D02*
X109109500Y-81717000D01*
G75*
G02*
X108872000Y-81479500I0J237500D01*
G01*
X108872000Y-80879500D01*
G75*
G02*
X109109500Y-80642000I237500J0D01*
G01*
X109584500Y-80642000D01*
G75*
G02*
X109822000Y-80879500I0J-237500D01*
G01*
X109822000Y-81479500D01*
G75*
G02*
X109584500Y-81717000I-237500J0D01*
G01*
G37*
G36*
G01*
X109584500Y-83442000D02*
X109109500Y-83442000D01*
G75*
G02*
X108872000Y-83204500I0J237500D01*
G01*
X108872000Y-82604500D01*
G75*
G02*
X109109500Y-82367000I237500J0D01*
G01*
X109584500Y-82367000D01*
G75*
G02*
X109822000Y-82604500I0J-237500D01*
G01*
X109822000Y-83204500D01*
G75*
G02*
X109584500Y-83442000I-237500J0D01*
G01*
G37*
G36*
G01*
X147684500Y-81717000D02*
X147209500Y-81717000D01*
G75*
G02*
X146972000Y-81479500I0J237500D01*
G01*
X146972000Y-80879500D01*
G75*
G02*
X147209500Y-80642000I237500J0D01*
G01*
X147684500Y-80642000D01*
G75*
G02*
X147922000Y-80879500I0J-237500D01*
G01*
X147922000Y-81479500D01*
G75*
G02*
X147684500Y-81717000I-237500J0D01*
G01*
G37*
G36*
G01*
X147684500Y-83442000D02*
X147209500Y-83442000D01*
G75*
G02*
X146972000Y-83204500I0J237500D01*
G01*
X146972000Y-82604500D01*
G75*
G02*
X147209500Y-82367000I237500J0D01*
G01*
X147684500Y-82367000D01*
G75*
G02*
X147922000Y-82604500I0J-237500D01*
G01*
X147922000Y-83204500D01*
G75*
G02*
X147684500Y-83442000I-237500J0D01*
G01*
G37*
G36*
G01*
X278304000Y-81590000D02*
X277829000Y-81590000D01*
G75*
G02*
X277591500Y-81352500I0J237500D01*
G01*
X277591500Y-80752500D01*
G75*
G02*
X277829000Y-80515000I237500J0D01*
G01*
X278304000Y-80515000D01*
G75*
G02*
X278541500Y-80752500I0J-237500D01*
G01*
X278541500Y-81352500D01*
G75*
G02*
X278304000Y-81590000I-237500J0D01*
G01*
G37*
G36*
G01*
X278304000Y-83315000D02*
X277829000Y-83315000D01*
G75*
G02*
X277591500Y-83077500I0J237500D01*
G01*
X277591500Y-82477500D01*
G75*
G02*
X277829000Y-82240000I237500J0D01*
G01*
X278304000Y-82240000D01*
G75*
G02*
X278541500Y-82477500I0J-237500D01*
G01*
X278541500Y-83077500D01*
G75*
G02*
X278304000Y-83315000I-237500J0D01*
G01*
G37*
G36*
G01*
X239729000Y-82340500D02*
X240204000Y-82340500D01*
G75*
G02*
X240441500Y-82578000I0J-237500D01*
G01*
X240441500Y-83178000D01*
G75*
G02*
X240204000Y-83415500I-237500J0D01*
G01*
X239729000Y-83415500D01*
G75*
G02*
X239491500Y-83178000I0J237500D01*
G01*
X239491500Y-82578000D01*
G75*
G02*
X239729000Y-82340500I237500J0D01*
G01*
G37*
G36*
G01*
X239729000Y-80615500D02*
X240204000Y-80615500D01*
G75*
G02*
X240441500Y-80853000I0J-237500D01*
G01*
X240441500Y-81453000D01*
G75*
G02*
X240204000Y-81690500I-237500J0D01*
G01*
X239729000Y-81690500D01*
G75*
G02*
X239491500Y-81453000I0J237500D01*
G01*
X239491500Y-80853000D01*
G75*
G02*
X239729000Y-80615500I237500J0D01*
G01*
G37*
G36*
G01*
X201629000Y-82266500D02*
X202104000Y-82266500D01*
G75*
G02*
X202341500Y-82504000I0J-237500D01*
G01*
X202341500Y-83104000D01*
G75*
G02*
X202104000Y-83341500I-237500J0D01*
G01*
X201629000Y-83341500D01*
G75*
G02*
X201391500Y-83104000I0J237500D01*
G01*
X201391500Y-82504000D01*
G75*
G02*
X201629000Y-82266500I237500J0D01*
G01*
G37*
G36*
G01*
X201629000Y-80541500D02*
X202104000Y-80541500D01*
G75*
G02*
X202341500Y-80779000I0J-237500D01*
G01*
X202341500Y-81379000D01*
G75*
G02*
X202104000Y-81616500I-237500J0D01*
G01*
X201629000Y-81616500D01*
G75*
G02*
X201391500Y-81379000I0J237500D01*
G01*
X201391500Y-80779000D01*
G75*
G02*
X201629000Y-80541500I237500J0D01*
G01*
G37*
G36*
G01*
X138286500Y-62640500D02*
X137811500Y-62640500D01*
G75*
G02*
X137574000Y-62403000I0J237500D01*
G01*
X137574000Y-61803000D01*
G75*
G02*
X137811500Y-61565500I237500J0D01*
G01*
X138286500Y-61565500D01*
G75*
G02*
X138524000Y-61803000I0J-237500D01*
G01*
X138524000Y-62403000D01*
G75*
G02*
X138286500Y-62640500I-237500J0D01*
G01*
G37*
G36*
G01*
X138286500Y-64365500D02*
X137811500Y-64365500D01*
G75*
G02*
X137574000Y-64128000I0J237500D01*
G01*
X137574000Y-63528000D01*
G75*
G02*
X137811500Y-63290500I237500J0D01*
G01*
X138286500Y-63290500D01*
G75*
G02*
X138524000Y-63528000I0J-237500D01*
G01*
X138524000Y-64128000D01*
G75*
G02*
X138286500Y-64365500I-237500J0D01*
G01*
G37*
G36*
G01*
X100059500Y-62667000D02*
X99584500Y-62667000D01*
G75*
G02*
X99347000Y-62429500I0J237500D01*
G01*
X99347000Y-61829500D01*
G75*
G02*
X99584500Y-61592000I237500J0D01*
G01*
X100059500Y-61592000D01*
G75*
G02*
X100297000Y-61829500I0J-237500D01*
G01*
X100297000Y-62429500D01*
G75*
G02*
X100059500Y-62667000I-237500J0D01*
G01*
G37*
G36*
G01*
X100059500Y-64392000D02*
X99584500Y-64392000D01*
G75*
G02*
X99347000Y-64154500I0J237500D01*
G01*
X99347000Y-63554500D01*
G75*
G02*
X99584500Y-63317000I237500J0D01*
G01*
X100059500Y-63317000D01*
G75*
G02*
X100297000Y-63554500I0J-237500D01*
G01*
X100297000Y-64154500D01*
G75*
G02*
X100059500Y-64392000I-237500J0D01*
G01*
G37*
G36*
G01*
X54847500Y-62667000D02*
X54372500Y-62667000D01*
G75*
G02*
X54135000Y-62429500I0J237500D01*
G01*
X54135000Y-61829500D01*
G75*
G02*
X54372500Y-61592000I237500J0D01*
G01*
X54847500Y-61592000D01*
G75*
G02*
X55085000Y-61829500I0J-237500D01*
G01*
X55085000Y-62429500D01*
G75*
G02*
X54847500Y-62667000I-237500J0D01*
G01*
G37*
G36*
G01*
X54847500Y-64392000D02*
X54372500Y-64392000D01*
G75*
G02*
X54135000Y-64154500I0J237500D01*
G01*
X54135000Y-63554500D01*
G75*
G02*
X54372500Y-63317000I237500J0D01*
G01*
X54847500Y-63317000D01*
G75*
G02*
X55085000Y-63554500I0J-237500D01*
G01*
X55085000Y-64154500D01*
G75*
G02*
X54847500Y-64392000I-237500J0D01*
G01*
G37*
G36*
G01*
X268779000Y-62693500D02*
X268304000Y-62693500D01*
G75*
G02*
X268066500Y-62456000I0J237500D01*
G01*
X268066500Y-61856000D01*
G75*
G02*
X268304000Y-61618500I237500J0D01*
G01*
X268779000Y-61618500D01*
G75*
G02*
X269016500Y-61856000I0J-237500D01*
G01*
X269016500Y-62456000D01*
G75*
G02*
X268779000Y-62693500I-237500J0D01*
G01*
G37*
G36*
G01*
X268779000Y-64418500D02*
X268304000Y-64418500D01*
G75*
G02*
X268066500Y-64181000I0J237500D01*
G01*
X268066500Y-63581000D01*
G75*
G02*
X268304000Y-63343500I237500J0D01*
G01*
X268779000Y-63343500D01*
G75*
G02*
X269016500Y-63581000I0J-237500D01*
G01*
X269016500Y-64181000D01*
G75*
G02*
X268779000Y-64418500I-237500J0D01*
G01*
G37*
G36*
G01*
X249856000Y-62693500D02*
X249381000Y-62693500D01*
G75*
G02*
X249143500Y-62456000I0J237500D01*
G01*
X249143500Y-61856000D01*
G75*
G02*
X249381000Y-61618500I237500J0D01*
G01*
X249856000Y-61618500D01*
G75*
G02*
X250093500Y-61856000I0J-237500D01*
G01*
X250093500Y-62456000D01*
G75*
G02*
X249856000Y-62693500I-237500J0D01*
G01*
G37*
G36*
G01*
X249856000Y-64418500D02*
X249381000Y-64418500D01*
G75*
G02*
X249143500Y-64181000I0J237500D01*
G01*
X249143500Y-63581000D01*
G75*
G02*
X249381000Y-63343500I237500J0D01*
G01*
X249856000Y-63343500D01*
G75*
G02*
X250093500Y-63581000I0J-237500D01*
G01*
X250093500Y-64181000D01*
G75*
G02*
X249856000Y-64418500I-237500J0D01*
G01*
G37*
G36*
G01*
X230204000Y-63290500D02*
X230679000Y-63290500D01*
G75*
G02*
X230916500Y-63528000I0J-237500D01*
G01*
X230916500Y-64128000D01*
G75*
G02*
X230679000Y-64365500I-237500J0D01*
G01*
X230204000Y-64365500D01*
G75*
G02*
X229966500Y-64128000I0J237500D01*
G01*
X229966500Y-63528000D01*
G75*
G02*
X230204000Y-63290500I237500J0D01*
G01*
G37*
G36*
G01*
X230204000Y-61565500D02*
X230679000Y-61565500D01*
G75*
G02*
X230916500Y-61803000I0J-237500D01*
G01*
X230916500Y-62403000D01*
G75*
G02*
X230679000Y-62640500I-237500J0D01*
G01*
X230204000Y-62640500D01*
G75*
G02*
X229966500Y-62403000I0J237500D01*
G01*
X229966500Y-61803000D01*
G75*
G02*
X230204000Y-61565500I237500J0D01*
G01*
G37*
G36*
G01*
X192358000Y-63343500D02*
X192833000Y-63343500D01*
G75*
G02*
X193070500Y-63581000I0J-237500D01*
G01*
X193070500Y-64181000D01*
G75*
G02*
X192833000Y-64418500I-237500J0D01*
G01*
X192358000Y-64418500D01*
G75*
G02*
X192120500Y-64181000I0J237500D01*
G01*
X192120500Y-63581000D01*
G75*
G02*
X192358000Y-63343500I237500J0D01*
G01*
G37*
G36*
G01*
X192358000Y-61618500D02*
X192833000Y-61618500D01*
G75*
G02*
X193070500Y-61856000I0J-237500D01*
G01*
X193070500Y-62456000D01*
G75*
G02*
X192833000Y-62693500I-237500J0D01*
G01*
X192358000Y-62693500D01*
G75*
G02*
X192120500Y-62456000I0J237500D01*
G01*
X192120500Y-61856000D01*
G75*
G02*
X192358000Y-61618500I237500J0D01*
G01*
G37*
G36*
G01*
X133112500Y-44293500D02*
X133587500Y-44293500D01*
G75*
G02*
X133825000Y-44531000I0J-237500D01*
G01*
X133825000Y-45131000D01*
G75*
G02*
X133587500Y-45368500I-237500J0D01*
G01*
X133112500Y-45368500D01*
G75*
G02*
X132875000Y-45131000I0J237500D01*
G01*
X132875000Y-44531000D01*
G75*
G02*
X133112500Y-44293500I237500J0D01*
G01*
G37*
G36*
G01*
X133112500Y-42568500D02*
X133587500Y-42568500D01*
G75*
G02*
X133825000Y-42806000I0J-237500D01*
G01*
X133825000Y-43406000D01*
G75*
G02*
X133587500Y-43643500I-237500J0D01*
G01*
X133112500Y-43643500D01*
G75*
G02*
X132875000Y-43406000I0J237500D01*
G01*
X132875000Y-42806000D01*
G75*
G02*
X133112500Y-42568500I237500J0D01*
G01*
G37*
G36*
G01*
X151908500Y-44267000D02*
X152383500Y-44267000D01*
G75*
G02*
X152621000Y-44504500I0J-237500D01*
G01*
X152621000Y-45104500D01*
G75*
G02*
X152383500Y-45342000I-237500J0D01*
G01*
X151908500Y-45342000D01*
G75*
G02*
X151671000Y-45104500I0J237500D01*
G01*
X151671000Y-44504500D01*
G75*
G02*
X151908500Y-44267000I237500J0D01*
G01*
G37*
G36*
G01*
X151908500Y-42542000D02*
X152383500Y-42542000D01*
G75*
G02*
X152621000Y-42779500I0J-237500D01*
G01*
X152621000Y-43379500D01*
G75*
G02*
X152383500Y-43617000I-237500J0D01*
G01*
X151908500Y-43617000D01*
G75*
G02*
X151671000Y-43379500I0J237500D01*
G01*
X151671000Y-42779500D01*
G75*
G02*
X151908500Y-42542000I237500J0D01*
G01*
G37*
G36*
G01*
X283257000Y-43490000D02*
X282782000Y-43490000D01*
G75*
G02*
X282544500Y-43252500I0J237500D01*
G01*
X282544500Y-42652500D01*
G75*
G02*
X282782000Y-42415000I237500J0D01*
G01*
X283257000Y-42415000D01*
G75*
G02*
X283494500Y-42652500I0J-237500D01*
G01*
X283494500Y-43252500D01*
G75*
G02*
X283257000Y-43490000I-237500J0D01*
G01*
G37*
G36*
G01*
X283257000Y-45215000D02*
X282782000Y-45215000D01*
G75*
G02*
X282544500Y-44977500I0J237500D01*
G01*
X282544500Y-44377500D01*
G75*
G02*
X282782000Y-44140000I237500J0D01*
G01*
X283257000Y-44140000D01*
G75*
G02*
X283494500Y-44377500I0J-237500D01*
G01*
X283494500Y-44977500D01*
G75*
G02*
X283257000Y-45215000I-237500J0D01*
G01*
G37*
G36*
G01*
X263605000Y-44293500D02*
X264080000Y-44293500D01*
G75*
G02*
X264317500Y-44531000I0J-237500D01*
G01*
X264317500Y-45131000D01*
G75*
G02*
X264080000Y-45368500I-237500J0D01*
G01*
X263605000Y-45368500D01*
G75*
G02*
X263367500Y-45131000I0J237500D01*
G01*
X263367500Y-44531000D01*
G75*
G02*
X263605000Y-44293500I237500J0D01*
G01*
G37*
G36*
G01*
X263605000Y-42568500D02*
X264080000Y-42568500D01*
G75*
G02*
X264317500Y-42806000I0J-237500D01*
G01*
X264317500Y-43406000D01*
G75*
G02*
X264080000Y-43643500I-237500J0D01*
G01*
X263605000Y-43643500D01*
G75*
G02*
X263367500Y-43406000I0J237500D01*
G01*
X263367500Y-42806000D01*
G75*
G02*
X263605000Y-42568500I237500J0D01*
G01*
G37*
G36*
G01*
X206930000Y-43643500D02*
X206455000Y-43643500D01*
G75*
G02*
X206217500Y-43406000I0J237500D01*
G01*
X206217500Y-42806000D01*
G75*
G02*
X206455000Y-42568500I237500J0D01*
G01*
X206930000Y-42568500D01*
G75*
G02*
X207167500Y-42806000I0J-237500D01*
G01*
X207167500Y-43406000D01*
G75*
G02*
X206930000Y-43643500I-237500J0D01*
G01*
G37*
G36*
G01*
X206930000Y-45368500D02*
X206455000Y-45368500D01*
G75*
G02*
X206217500Y-45131000I0J237500D01*
G01*
X206217500Y-44531000D01*
G75*
G02*
X206455000Y-44293500I237500J0D01*
G01*
X206930000Y-44293500D01*
G75*
G02*
X207167500Y-44531000I0J-237500D01*
G01*
X207167500Y-45131000D01*
G75*
G02*
X206930000Y-45368500I-237500J0D01*
G01*
G37*
G36*
G01*
X86724500Y-24567000D02*
X86249500Y-24567000D01*
G75*
G02*
X86012000Y-24329500I0J237500D01*
G01*
X86012000Y-23729500D01*
G75*
G02*
X86249500Y-23492000I237500J0D01*
G01*
X86724500Y-23492000D01*
G75*
G02*
X86962000Y-23729500I0J-237500D01*
G01*
X86962000Y-24329500D01*
G75*
G02*
X86724500Y-24567000I-237500J0D01*
G01*
G37*
G36*
G01*
X86724500Y-26292000D02*
X86249500Y-26292000D01*
G75*
G02*
X86012000Y-26054500I0J237500D01*
G01*
X86012000Y-25454500D01*
G75*
G02*
X86249500Y-25217000I237500J0D01*
G01*
X86724500Y-25217000D01*
G75*
G02*
X86962000Y-25454500I0J-237500D01*
G01*
X86962000Y-26054500D01*
G75*
G02*
X86724500Y-26292000I-237500J0D01*
G01*
G37*
G36*
G01*
X105838000Y-24593500D02*
X105363000Y-24593500D01*
G75*
G02*
X105125500Y-24356000I0J237500D01*
G01*
X105125500Y-23756000D01*
G75*
G02*
X105363000Y-23518500I237500J0D01*
G01*
X105838000Y-23518500D01*
G75*
G02*
X106075500Y-23756000I0J-237500D01*
G01*
X106075500Y-24356000D01*
G75*
G02*
X105838000Y-24593500I-237500J0D01*
G01*
G37*
G36*
G01*
X105838000Y-26318500D02*
X105363000Y-26318500D01*
G75*
G02*
X105125500Y-26081000I0J237500D01*
G01*
X105125500Y-25481000D01*
G75*
G02*
X105363000Y-25243500I237500J0D01*
G01*
X105838000Y-25243500D01*
G75*
G02*
X106075500Y-25481000I0J-237500D01*
G01*
X106075500Y-26081000D01*
G75*
G02*
X105838000Y-26318500I-237500J0D01*
G01*
G37*
G36*
G01*
X216455000Y-24567000D02*
X215980000Y-24567000D01*
G75*
G02*
X215742500Y-24329500I0J237500D01*
G01*
X215742500Y-23729500D01*
G75*
G02*
X215980000Y-23492000I237500J0D01*
G01*
X216455000Y-23492000D01*
G75*
G02*
X216692500Y-23729500I0J-237500D01*
G01*
X216692500Y-24329500D01*
G75*
G02*
X216455000Y-24567000I-237500J0D01*
G01*
G37*
G36*
G01*
X216455000Y-26292000D02*
X215980000Y-26292000D01*
G75*
G02*
X215742500Y-26054500I0J237500D01*
G01*
X215742500Y-25454500D01*
G75*
G02*
X215980000Y-25217000I237500J0D01*
G01*
X216455000Y-25217000D01*
G75*
G02*
X216692500Y-25454500I0J-237500D01*
G01*
X216692500Y-26054500D01*
G75*
G02*
X216455000Y-26292000I-237500J0D01*
G01*
G37*
G36*
G01*
X197532000Y-24540500D02*
X197057000Y-24540500D01*
G75*
G02*
X196819500Y-24303000I0J237500D01*
G01*
X196819500Y-23703000D01*
G75*
G02*
X197057000Y-23465500I237500J0D01*
G01*
X197532000Y-23465500D01*
G75*
G02*
X197769500Y-23703000I0J-237500D01*
G01*
X197769500Y-24303000D01*
G75*
G02*
X197532000Y-24540500I-237500J0D01*
G01*
G37*
G36*
G01*
X197532000Y-26265500D02*
X197057000Y-26265500D01*
G75*
G02*
X196819500Y-26028000I0J237500D01*
G01*
X196819500Y-25428000D01*
G75*
G02*
X197057000Y-25190500I237500J0D01*
G01*
X197532000Y-25190500D01*
G75*
G02*
X197769500Y-25428000I0J-237500D01*
G01*
X197769500Y-26028000D01*
G75*
G02*
X197532000Y-26265500I-237500J0D01*
G01*
G37*
G36*
G01*
X129556500Y-96691500D02*
X130031500Y-96691500D01*
G75*
G02*
X130269000Y-96929000I0J-237500D01*
G01*
X130269000Y-97529000D01*
G75*
G02*
X130031500Y-97766500I-237500J0D01*
G01*
X129556500Y-97766500D01*
G75*
G02*
X129319000Y-97529000I0J237500D01*
G01*
X129319000Y-96929000D01*
G75*
G02*
X129556500Y-96691500I237500J0D01*
G01*
G37*
G36*
G01*
X129556500Y-94966500D02*
X130031500Y-94966500D01*
G75*
G02*
X130269000Y-95204000I0J-237500D01*
G01*
X130269000Y-95804000D01*
G75*
G02*
X130031500Y-96041500I-237500J0D01*
G01*
X129556500Y-96041500D01*
G75*
G02*
X129319000Y-95804000I0J237500D01*
G01*
X129319000Y-95204000D01*
G75*
G02*
X129556500Y-94966500I237500J0D01*
G01*
G37*
G36*
G01*
X157814000Y-96617500D02*
X158289000Y-96617500D01*
G75*
G02*
X158526500Y-96855000I0J-237500D01*
G01*
X158526500Y-97455000D01*
G75*
G02*
X158289000Y-97692500I-237500J0D01*
G01*
X157814000Y-97692500D01*
G75*
G02*
X157576500Y-97455000I0J237500D01*
G01*
X157576500Y-96855000D01*
G75*
G02*
X157814000Y-96617500I237500J0D01*
G01*
G37*
G36*
G01*
X157814000Y-94892500D02*
X158289000Y-94892500D01*
G75*
G02*
X158526500Y-95130000I0J-237500D01*
G01*
X158526500Y-95730000D01*
G75*
G02*
X158289000Y-95967500I-237500J0D01*
G01*
X157814000Y-95967500D01*
G75*
G02*
X157576500Y-95730000I0J237500D01*
G01*
X157576500Y-95130000D01*
G75*
G02*
X157814000Y-94892500I237500J0D01*
G01*
G37*
G36*
G01*
X147336500Y-77514500D02*
X147811500Y-77514500D01*
G75*
G02*
X148049000Y-77752000I0J-237500D01*
G01*
X148049000Y-78352000D01*
G75*
G02*
X147811500Y-78589500I-237500J0D01*
G01*
X147336500Y-78589500D01*
G75*
G02*
X147099000Y-78352000I0J237500D01*
G01*
X147099000Y-77752000D01*
G75*
G02*
X147336500Y-77514500I237500J0D01*
G01*
G37*
G36*
G01*
X147336500Y-75789500D02*
X147811500Y-75789500D01*
G75*
G02*
X148049000Y-76027000I0J-237500D01*
G01*
X148049000Y-76627000D01*
G75*
G02*
X147811500Y-76864500I-237500J0D01*
G01*
X147336500Y-76864500D01*
G75*
G02*
X147099000Y-76627000I0J237500D01*
G01*
X147099000Y-76027000D01*
G75*
G02*
X147336500Y-75789500I237500J0D01*
G01*
G37*
G36*
G01*
X54626500Y-77541000D02*
X55101500Y-77541000D01*
G75*
G02*
X55339000Y-77778500I0J-237500D01*
G01*
X55339000Y-78378500D01*
G75*
G02*
X55101500Y-78616000I-237500J0D01*
G01*
X54626500Y-78616000D01*
G75*
G02*
X54389000Y-78378500I0J237500D01*
G01*
X54389000Y-77778500D01*
G75*
G02*
X54626500Y-77541000I237500J0D01*
G01*
G37*
G36*
G01*
X54626500Y-75816000D02*
X55101500Y-75816000D01*
G75*
G02*
X55339000Y-76053500I0J-237500D01*
G01*
X55339000Y-76653500D01*
G75*
G02*
X55101500Y-76891000I-237500J0D01*
G01*
X54626500Y-76891000D01*
G75*
G02*
X54389000Y-76653500I0J237500D01*
G01*
X54389000Y-76053500D01*
G75*
G02*
X54626500Y-75816000I237500J0D01*
G01*
G37*
G36*
G01*
X54372500Y-58517500D02*
X54847500Y-58517500D01*
G75*
G02*
X55085000Y-58755000I0J-237500D01*
G01*
X55085000Y-59355000D01*
G75*
G02*
X54847500Y-59592500I-237500J0D01*
G01*
X54372500Y-59592500D01*
G75*
G02*
X54135000Y-59355000I0J237500D01*
G01*
X54135000Y-58755000D01*
G75*
G02*
X54372500Y-58517500I237500J0D01*
G01*
G37*
G36*
G01*
X54372500Y-56792500D02*
X54847500Y-56792500D01*
G75*
G02*
X55085000Y-57030000I0J-237500D01*
G01*
X55085000Y-57630000D01*
G75*
G02*
X54847500Y-57867500I-237500J0D01*
G01*
X54372500Y-57867500D01*
G75*
G02*
X54135000Y-57630000I0J237500D01*
G01*
X54135000Y-57030000D01*
G75*
G02*
X54372500Y-56792500I237500J0D01*
G01*
G37*
G36*
G01*
X142510500Y-58464500D02*
X142985500Y-58464500D01*
G75*
G02*
X143223000Y-58702000I0J-237500D01*
G01*
X143223000Y-59302000D01*
G75*
G02*
X142985500Y-59539500I-237500J0D01*
G01*
X142510500Y-59539500D01*
G75*
G02*
X142273000Y-59302000I0J237500D01*
G01*
X142273000Y-58702000D01*
G75*
G02*
X142510500Y-58464500I237500J0D01*
G01*
G37*
G36*
G01*
X142510500Y-56739500D02*
X142985500Y-56739500D01*
G75*
G02*
X143223000Y-56977000I0J-237500D01*
G01*
X143223000Y-57577000D01*
G75*
G02*
X142985500Y-57814500I-237500J0D01*
G01*
X142510500Y-57814500D01*
G75*
G02*
X142273000Y-57577000I0J237500D01*
G01*
X142273000Y-56977000D01*
G75*
G02*
X142510500Y-56739500I237500J0D01*
G01*
G37*
G36*
G01*
X342218000Y-39467500D02*
X342693000Y-39467500D01*
G75*
G02*
X342930500Y-39705000I0J-237500D01*
G01*
X342930500Y-40305000D01*
G75*
G02*
X342693000Y-40542500I-237500J0D01*
G01*
X342218000Y-40542500D01*
G75*
G02*
X341980500Y-40305000I0J237500D01*
G01*
X341980500Y-39705000D01*
G75*
G02*
X342218000Y-39467500I237500J0D01*
G01*
G37*
G36*
G01*
X342218000Y-37742500D02*
X342693000Y-37742500D01*
G75*
G02*
X342930500Y-37980000I0J-237500D01*
G01*
X342930500Y-38580000D01*
G75*
G02*
X342693000Y-38817500I-237500J0D01*
G01*
X342218000Y-38817500D01*
G75*
G02*
X341980500Y-38580000I0J237500D01*
G01*
X341980500Y-37980000D01*
G75*
G02*
X342218000Y-37742500I237500J0D01*
G01*
G37*
G36*
G01*
X316056000Y-39414500D02*
X316531000Y-39414500D01*
G75*
G02*
X316768500Y-39652000I0J-237500D01*
G01*
X316768500Y-40252000D01*
G75*
G02*
X316531000Y-40489500I-237500J0D01*
G01*
X316056000Y-40489500D01*
G75*
G02*
X315818500Y-40252000I0J237500D01*
G01*
X315818500Y-39652000D01*
G75*
G02*
X316056000Y-39414500I237500J0D01*
G01*
G37*
G36*
G01*
X316056000Y-37689500D02*
X316531000Y-37689500D01*
G75*
G02*
X316768500Y-37927000I0J-237500D01*
G01*
X316768500Y-38527000D01*
G75*
G02*
X316531000Y-38764500I-237500J0D01*
G01*
X316056000Y-38764500D01*
G75*
G02*
X315818500Y-38527000I0J237500D01*
G01*
X315818500Y-37927000D01*
G75*
G02*
X316056000Y-37689500I237500J0D01*
G01*
G37*
G36*
G01*
X282782000Y-39340500D02*
X283257000Y-39340500D01*
G75*
G02*
X283494500Y-39578000I0J-237500D01*
G01*
X283494500Y-40178000D01*
G75*
G02*
X283257000Y-40415500I-237500J0D01*
G01*
X282782000Y-40415500D01*
G75*
G02*
X282544500Y-40178000I0J237500D01*
G01*
X282544500Y-39578000D01*
G75*
G02*
X282782000Y-39340500I237500J0D01*
G01*
G37*
G36*
G01*
X282782000Y-37615500D02*
X283257000Y-37615500D01*
G75*
G02*
X283494500Y-37853000I0J-237500D01*
G01*
X283494500Y-38453000D01*
G75*
G02*
X283257000Y-38690500I-237500J0D01*
G01*
X282782000Y-38690500D01*
G75*
G02*
X282544500Y-38453000I0J237500D01*
G01*
X282544500Y-37853000D01*
G75*
G02*
X282782000Y-37615500I237500J0D01*
G01*
G37*
G36*
G01*
X244682000Y-39467500D02*
X245157000Y-39467500D01*
G75*
G02*
X245394500Y-39705000I0J-237500D01*
G01*
X245394500Y-40305000D01*
G75*
G02*
X245157000Y-40542500I-237500J0D01*
G01*
X244682000Y-40542500D01*
G75*
G02*
X244444500Y-40305000I0J237500D01*
G01*
X244444500Y-39705000D01*
G75*
G02*
X244682000Y-39467500I237500J0D01*
G01*
G37*
G36*
G01*
X244682000Y-37742500D02*
X245157000Y-37742500D01*
G75*
G02*
X245394500Y-37980000I0J-237500D01*
G01*
X245394500Y-38580000D01*
G75*
G02*
X245157000Y-38817500I-237500J0D01*
G01*
X244682000Y-38817500D01*
G75*
G02*
X244444500Y-38580000I0J237500D01*
G01*
X244444500Y-37980000D01*
G75*
G02*
X244682000Y-37742500I237500J0D01*
G01*
G37*
D19*
X313753500Y-67691000D03*
D20*
X308673500Y-67691000D03*
X318833500Y-67691000D03*
D23*
X301815500Y-60706000D03*
X325691500Y-60706000D03*
D19*
X301815500Y-75946000D03*
X325691500Y-75946000D03*
D15*
X320838500Y-70231000D03*
D16*
X313753500Y-67691000D03*
D17*
X308673500Y-67691000D03*
X318833500Y-67691000D03*
D15*
X307911500Y-72771000D03*
D18*
X317563500Y-70231000D03*
X311213500Y-72771000D03*
D15*
X327982250Y-51181000D03*
D16*
X320897250Y-48641000D03*
D17*
X315817250Y-48641000D03*
X325977250Y-48641000D03*
D15*
X315055250Y-53721000D03*
D18*
X324707250Y-51181000D03*
X318357250Y-53721000D03*
D19*
X149701250Y-105791000D03*
D20*
X144621250Y-105791000D03*
X154781250Y-105791000D03*
D23*
X137763250Y-98806000D03*
X161639250Y-98806000D03*
D19*
X137763250Y-114046000D03*
X161639250Y-114046000D03*
D15*
X156786250Y-108331000D03*
D16*
X149701250Y-105791000D03*
D17*
X144621250Y-105791000D03*
X154781250Y-105791000D03*
D15*
X143859250Y-110871000D03*
D18*
X153511250Y-108331000D03*
X147161250Y-110871000D03*
D22*
X403744500Y-73787000D03*
X406284500Y-73787000D03*
X408824500Y-73787000D03*
X411364500Y-73787000D03*
D12*
X326028500Y-100392000D03*
X326028500Y-101792000D03*
X320528500Y-100392000D03*
X320528500Y-101792000D03*
X302152500Y-100392000D03*
X302152500Y-101792000D03*
X296652500Y-100392000D03*
X296652500Y-101792000D03*
X278276500Y-100392000D03*
X278276500Y-101792000D03*
X272776500Y-100392000D03*
X272776500Y-101792000D03*
X254527500Y-100392000D03*
X254527500Y-101792000D03*
X249027500Y-100392000D03*
X249027500Y-101792000D03*
X164167000Y-81342000D03*
X164167000Y-82742000D03*
X158667000Y-81342000D03*
X158667000Y-82742000D03*
X126067000Y-81342000D03*
X126067000Y-82742000D03*
X120567000Y-81342000D03*
X120567000Y-82742000D03*
X57233000Y-81342000D03*
X57233000Y-82742000D03*
X51733000Y-81342000D03*
X51733000Y-82742000D03*
X311677500Y-81342000D03*
X311677500Y-82742000D03*
X306177500Y-81342000D03*
X306177500Y-82742000D03*
X237763500Y-81342000D03*
X237763500Y-82742000D03*
X232263500Y-81342000D03*
X232263500Y-82742000D03*
X199663500Y-81215000D03*
X199663500Y-82615000D03*
X194163500Y-81215000D03*
X194163500Y-82615000D03*
X316376500Y-62292000D03*
X316376500Y-63692000D03*
X310876500Y-62292000D03*
X310876500Y-63692000D03*
X285388500Y-62292000D03*
X285388500Y-63692000D03*
X279888500Y-62292000D03*
X279888500Y-63692000D03*
X266338500Y-62292000D03*
X266338500Y-63692000D03*
X260838500Y-62292000D03*
X260838500Y-63692000D03*
X247415500Y-62292000D03*
X247415500Y-63692000D03*
X241915500Y-62292000D03*
X241915500Y-63692000D03*
X228238500Y-62292000D03*
X228238500Y-63692000D03*
X222738500Y-62292000D03*
X222738500Y-63692000D03*
X209315500Y-62292000D03*
X209315500Y-63692000D03*
X203815500Y-62292000D03*
X203815500Y-63692000D03*
X190392500Y-62292000D03*
X190392500Y-63692000D03*
X184892500Y-62292000D03*
X184892500Y-63692000D03*
X323615500Y-43115000D03*
X323615500Y-44515000D03*
X318115500Y-43115000D03*
X318115500Y-44515000D03*
X299866500Y-43115000D03*
X299866500Y-44515000D03*
X294366500Y-43115000D03*
X294366500Y-44515000D03*
X204489500Y-43242000D03*
X204489500Y-44642000D03*
X198989500Y-43242000D03*
X198989500Y-44642000D03*
X185439500Y-43242000D03*
X185439500Y-44642000D03*
X179939500Y-43242000D03*
X179939500Y-44642000D03*
X159595000Y-24192000D03*
X159595000Y-25592000D03*
X154095000Y-24192000D03*
X154095000Y-25592000D03*
X64345000Y-24192000D03*
X64345000Y-25592000D03*
X58845000Y-24192000D03*
X58845000Y-25592000D03*
X45295000Y-24192000D03*
X45295000Y-25592000D03*
X39795000Y-24192000D03*
X39795000Y-25592000D03*
X233064500Y-24192000D03*
X233064500Y-25592000D03*
X227564500Y-24192000D03*
X227564500Y-25592000D03*
X195091500Y-24192000D03*
X195091500Y-25592000D03*
X189591500Y-24192000D03*
X189591500Y-25592000D03*
D19*
X116427250Y-105791000D03*
D20*
X111347250Y-105791000D03*
X121507250Y-105791000D03*
D15*
X123512250Y-108331000D03*
D16*
X116427250Y-105791000D03*
D17*
X111347250Y-105791000D03*
X121507250Y-105791000D03*
D15*
X110585250Y-110871000D03*
D18*
X120237250Y-108331000D03*
X113887250Y-110871000D03*
D19*
X92614750Y-105791000D03*
D20*
X87534750Y-105791000D03*
X97694750Y-105791000D03*
D15*
X99699750Y-108331000D03*
D16*
X92614750Y-105791000D03*
D17*
X87534750Y-105791000D03*
X97694750Y-105791000D03*
D15*
X86772750Y-110871000D03*
D18*
X96424750Y-108331000D03*
X90074750Y-110871000D03*
D19*
X68738750Y-105791000D03*
D20*
X63658750Y-105791000D03*
X73818750Y-105791000D03*
D15*
X75823750Y-108331000D03*
D16*
X68738750Y-105791000D03*
D17*
X63658750Y-105791000D03*
X73818750Y-105791000D03*
D15*
X62896750Y-110871000D03*
D18*
X72548750Y-108331000D03*
X66198750Y-110871000D03*
D19*
X44926250Y-105791000D03*
D20*
X39846250Y-105791000D03*
X50006250Y-105791000D03*
D15*
X52011250Y-108331000D03*
D16*
X44926250Y-105791000D03*
D17*
X39846250Y-105791000D03*
X50006250Y-105791000D03*
D15*
X39084250Y-110871000D03*
D18*
X48736250Y-108331000D03*
X42386250Y-110871000D03*
D19*
X323278500Y-105791000D03*
D20*
X318198500Y-105791000D03*
X328358500Y-105791000D03*
D15*
X330363500Y-108331000D03*
D16*
X323278500Y-105791000D03*
D17*
X318198500Y-105791000D03*
X328358500Y-105791000D03*
D15*
X317436500Y-110871000D03*
D18*
X327088500Y-108331000D03*
X320738500Y-110871000D03*
D19*
X299466000Y-105791000D03*
D20*
X294386000Y-105791000D03*
X304546000Y-105791000D03*
D15*
X306551000Y-108331000D03*
D16*
X299466000Y-105791000D03*
D17*
X294386000Y-105791000D03*
X304546000Y-105791000D03*
D15*
X293624000Y-110871000D03*
D18*
X303276000Y-108331000D03*
X296926000Y-110871000D03*
D15*
X168692500Y-89281000D03*
D16*
X161607500Y-86741000D03*
D17*
X156527500Y-86741000D03*
X166687500Y-86741000D03*
D15*
X155765500Y-91821000D03*
D18*
X165417500Y-89281000D03*
X159067500Y-91821000D03*
D15*
X149642500Y-89281000D03*
D16*
X142557500Y-86741000D03*
D17*
X137477500Y-86741000D03*
X147637500Y-86741000D03*
D15*
X136715500Y-91821000D03*
D18*
X146367500Y-89281000D03*
X140017500Y-91821000D03*
D15*
X280357250Y-89281000D03*
D16*
X273272250Y-86741000D03*
D17*
X268192250Y-86741000D03*
X278352250Y-86741000D03*
D15*
X267430250Y-91821000D03*
D18*
X277082250Y-89281000D03*
X270732250Y-91821000D03*
D15*
X261307250Y-89281000D03*
D16*
X254222250Y-86741000D03*
D17*
X249142250Y-86741000D03*
X259302250Y-86741000D03*
D15*
X248380250Y-91821000D03*
D18*
X258032250Y-89281000D03*
X251682250Y-91821000D03*
D15*
X223207250Y-89281000D03*
D16*
X216122250Y-86741000D03*
D17*
X211042250Y-86741000D03*
X221202250Y-86741000D03*
D15*
X210280250Y-91821000D03*
D18*
X219932250Y-89281000D03*
X213582250Y-91821000D03*
D15*
X204157250Y-89281000D03*
D16*
X197072250Y-86741000D03*
D17*
X191992250Y-86741000D03*
X202152250Y-86741000D03*
D15*
X191230250Y-91821000D03*
D18*
X200882250Y-89281000D03*
X194532250Y-91821000D03*
D15*
X159167500Y-70231000D03*
D16*
X152082500Y-67691000D03*
D17*
X147002500Y-67691000D03*
X157162500Y-67691000D03*
D15*
X146240500Y-72771000D03*
D18*
X155892500Y-70231000D03*
X149542500Y-72771000D03*
D15*
X140117500Y-70231000D03*
D16*
X133032500Y-67691000D03*
D17*
X127952500Y-67691000D03*
X138112500Y-67691000D03*
D15*
X127190500Y-72771000D03*
D18*
X136842500Y-70231000D03*
X130492500Y-72771000D03*
D15*
X102017500Y-70231000D03*
D16*
X94932500Y-67691000D03*
D17*
X89852500Y-67691000D03*
X100012500Y-67691000D03*
D15*
X89090500Y-72771000D03*
D18*
X98742500Y-70231000D03*
X92392500Y-72771000D03*
D15*
X82967500Y-70231000D03*
D16*
X75882500Y-67691000D03*
D17*
X70802500Y-67691000D03*
X80962500Y-67691000D03*
D15*
X70040500Y-72771000D03*
D18*
X79692500Y-70231000D03*
X73342500Y-72771000D03*
D15*
X289882250Y-70231000D03*
D16*
X282797250Y-67691000D03*
D17*
X277717250Y-67691000D03*
X287877250Y-67691000D03*
D15*
X276955250Y-72771000D03*
D18*
X286607250Y-70231000D03*
X280257250Y-72771000D03*
D15*
X251782250Y-70231000D03*
D16*
X244697250Y-67691000D03*
D17*
X239617250Y-67691000D03*
X249777250Y-67691000D03*
D15*
X238855250Y-72771000D03*
D18*
X248507250Y-70231000D03*
X242157250Y-72771000D03*
D15*
X194632250Y-70231000D03*
D16*
X187547250Y-67691000D03*
D17*
X182467250Y-67691000D03*
X192627250Y-67691000D03*
D15*
X181705250Y-72771000D03*
D18*
X191357250Y-70231000D03*
X185007250Y-72771000D03*
D15*
X154405000Y-51181000D03*
D16*
X147320000Y-48641000D03*
D17*
X142240000Y-48641000D03*
X152400000Y-48641000D03*
D15*
X141478000Y-53721000D03*
D18*
X151130000Y-51181000D03*
X144780000Y-53721000D03*
D15*
X135355000Y-51181000D03*
D16*
X128270000Y-48641000D03*
D17*
X123190000Y-48641000D03*
X133350000Y-48641000D03*
D15*
X122428000Y-53721000D03*
D18*
X132080000Y-51181000D03*
X125730000Y-53721000D03*
D15*
X116305000Y-51181000D03*
D16*
X109220000Y-48641000D03*
D17*
X104140000Y-48641000D03*
X114300000Y-48641000D03*
D15*
X103378000Y-53721000D03*
D18*
X113030000Y-51181000D03*
X106680000Y-53721000D03*
D15*
X97255000Y-51181000D03*
D16*
X90170000Y-48641000D03*
D17*
X85090000Y-48641000D03*
X95250000Y-48641000D03*
D15*
X84328000Y-53721000D03*
D18*
X93980000Y-51181000D03*
X87630000Y-53721000D03*
D15*
X78205000Y-51181000D03*
D16*
X71120000Y-48641000D03*
D17*
X66040000Y-48641000D03*
X76200000Y-48641000D03*
D15*
X65278000Y-53721000D03*
D18*
X74930000Y-51181000D03*
X68580000Y-53721000D03*
D15*
X285119750Y-51181000D03*
D16*
X278034750Y-48641000D03*
D17*
X272954750Y-48641000D03*
X283114750Y-48641000D03*
D15*
X272192750Y-53721000D03*
D18*
X281844750Y-51181000D03*
X275494750Y-53721000D03*
D15*
X247019750Y-51181000D03*
D16*
X239934750Y-48641000D03*
D17*
X234854750Y-48641000D03*
X245014750Y-48641000D03*
D15*
X234092750Y-53721000D03*
D18*
X243744750Y-51181000D03*
X237394750Y-53721000D03*
D15*
X227969750Y-51181000D03*
D16*
X220884750Y-48641000D03*
D17*
X215804750Y-48641000D03*
X225964750Y-48641000D03*
D15*
X215042750Y-53721000D03*
D18*
X224694750Y-51181000D03*
X218344750Y-53721000D03*
D15*
X208919750Y-51181000D03*
D16*
X201834750Y-48641000D03*
D17*
X196754750Y-48641000D03*
X206914750Y-48641000D03*
D15*
X195992750Y-53721000D03*
D18*
X205644750Y-51181000D03*
X199294750Y-53721000D03*
D15*
X189869750Y-51181000D03*
D16*
X182784750Y-48641000D03*
D17*
X177704750Y-48641000D03*
X187864750Y-48641000D03*
D15*
X176942750Y-53721000D03*
D18*
X186594750Y-51181000D03*
X180244750Y-53721000D03*
D15*
X106780000Y-32131000D03*
D16*
X99695000Y-29591000D03*
D17*
X94615000Y-29591000D03*
X104775000Y-29591000D03*
D15*
X93853000Y-34671000D03*
D18*
X103505000Y-32131000D03*
X97155000Y-34671000D03*
D15*
X87730000Y-32131000D03*
D16*
X80645000Y-29591000D03*
D17*
X75565000Y-29591000D03*
X85725000Y-29591000D03*
D15*
X74803000Y-34671000D03*
D18*
X84455000Y-32131000D03*
X78105000Y-34671000D03*
D15*
X68680000Y-32131000D03*
D16*
X61595000Y-29591000D03*
D17*
X56515000Y-29591000D03*
X66675000Y-29591000D03*
D15*
X55753000Y-34671000D03*
D18*
X65405000Y-32131000D03*
X59055000Y-34671000D03*
D15*
X294644750Y-32131000D03*
D16*
X287559750Y-29591000D03*
D17*
X282479750Y-29591000D03*
X292639750Y-29591000D03*
D15*
X281717750Y-34671000D03*
D18*
X291369750Y-32131000D03*
X285019750Y-34671000D03*
D15*
X275594750Y-32131000D03*
D16*
X268509750Y-29591000D03*
D17*
X263429750Y-29591000D03*
X273589750Y-29591000D03*
D15*
X262667750Y-34671000D03*
D18*
X272319750Y-32131000D03*
X265969750Y-34671000D03*
D15*
X237494750Y-32131000D03*
D16*
X230409750Y-29591000D03*
D17*
X225329750Y-29591000D03*
X235489750Y-29591000D03*
D15*
X224567750Y-34671000D03*
D18*
X234219750Y-32131000D03*
X227869750Y-34671000D03*
D21*
X142113000Y-107569000D03*
X142113000Y-104019000D03*
X108839000Y-107566000D03*
X108839000Y-104016000D03*
X37338000Y-107566000D03*
X37338000Y-104016000D03*
X315642750Y-107558000D03*
X315642750Y-104008000D03*
X291830250Y-107558000D03*
X291830250Y-104008000D03*
X268017750Y-107558000D03*
X268017750Y-104008000D03*
X244284500Y-107558000D03*
X244284500Y-104008000D03*
X154051000Y-88513000D03*
X154051000Y-84963000D03*
X115903500Y-88508000D03*
X115903500Y-84958000D03*
X77803500Y-88513000D03*
X77803500Y-84963000D03*
X46863000Y-88519000D03*
X46863000Y-84969000D03*
X301180500Y-88513000D03*
X301180500Y-84963000D03*
X189420500Y-88519000D03*
X189420500Y-84969000D03*
X125428500Y-69458000D03*
X125428500Y-65908000D03*
X106378500Y-69458000D03*
X106378500Y-65908000D03*
X87328500Y-69458000D03*
X87328500Y-65908000D03*
X68278500Y-69458000D03*
X68278500Y-65908000D03*
X306133500Y-69463000D03*
X306133500Y-65913000D03*
X275145500Y-69463000D03*
X275145500Y-65913000D03*
X256270250Y-69458000D03*
X256270250Y-65908000D03*
X237220250Y-69458000D03*
X237220250Y-65908000D03*
X218170250Y-69458000D03*
X218170250Y-65908000D03*
X199120250Y-69458000D03*
X199120250Y-65908000D03*
X180070250Y-69458000D03*
X180070250Y-65908000D03*
X139716000Y-50408000D03*
X139716000Y-46858000D03*
X120666000Y-50408000D03*
X120666000Y-46858000D03*
X101616000Y-50408000D03*
X101616000Y-46858000D03*
X82566000Y-50408000D03*
X82566000Y-46858000D03*
X63516000Y-50408000D03*
X63516000Y-46858000D03*
X313356750Y-50408000D03*
X313356750Y-46858000D03*
X270430750Y-50408000D03*
X270430750Y-46858000D03*
X251380750Y-50408000D03*
X251380750Y-46858000D03*
X232330750Y-50408000D03*
X232330750Y-46858000D03*
X213280750Y-50408000D03*
X213280750Y-46858000D03*
X194230750Y-50408000D03*
X194230750Y-46858000D03*
X175180750Y-50408000D03*
X175180750Y-46858000D03*
X149241000Y-31358000D03*
X149241000Y-27808000D03*
X130191000Y-31358000D03*
X130191000Y-27808000D03*
X73041000Y-31358000D03*
X73041000Y-27808000D03*
X53991000Y-31358000D03*
X53991000Y-27808000D03*
X34941000Y-31358000D03*
X34941000Y-27808000D03*
X308514750Y-31358000D03*
X308514750Y-27808000D03*
X279939750Y-31358000D03*
X279939750Y-27808000D03*
X260889750Y-31366000D03*
X260889750Y-27816000D03*
X241839750Y-31366000D03*
X241839750Y-27816000D03*
X222805750Y-31358000D03*
X222805750Y-27808000D03*
X203755750Y-31358000D03*
X203755750Y-27808000D03*
X184705750Y-31358000D03*
X184705750Y-27808000D03*
D15*
X163930000Y-32131000D03*
D16*
X156845000Y-29591000D03*
D17*
X151765000Y-29591000D03*
X161925000Y-29591000D03*
D15*
X151003000Y-34671000D03*
D18*
X160655000Y-32131000D03*
X154305000Y-34671000D03*
D19*
X308991000Y-86741000D03*
D20*
X303911000Y-86741000D03*
X314071000Y-86741000D03*
D23*
X297053000Y-79756000D03*
X320929000Y-79756000D03*
D19*
X297053000Y-94996000D03*
X320929000Y-94996000D03*
D15*
X316076000Y-89281000D03*
D16*
X308991000Y-86741000D03*
D17*
X303911000Y-86741000D03*
X314071000Y-86741000D03*
D15*
X303149000Y-91821000D03*
D18*
X312801000Y-89281000D03*
X306451000Y-91821000D03*
G36*
G01*
X35375001Y-23333000D02*
X34474999Y-23333000D01*
G75*
G02*
X34225000Y-23083001I0J249999D01*
G01*
X34225000Y-22382999D01*
G75*
G02*
X34474999Y-22133000I249999J0D01*
G01*
X35375001Y-22133000D01*
G75*
G02*
X35625000Y-22382999I0J-249999D01*
G01*
X35625000Y-23083001D01*
G75*
G02*
X35375001Y-23333000I-249999J0D01*
G01*
G37*
G36*
G01*
X35375001Y-25333000D02*
X34474999Y-25333000D01*
G75*
G02*
X34225000Y-25083001I0J249999D01*
G01*
X34225000Y-24382999D01*
G75*
G02*
X34474999Y-24133000I249999J0D01*
G01*
X35375001Y-24133000D01*
G75*
G02*
X35625000Y-24382999I0J-249999D01*
G01*
X35625000Y-25083001D01*
G75*
G02*
X35375001Y-25333000I-249999J0D01*
G01*
G37*
G36*
G01*
X396107499Y-25308000D02*
X397007501Y-25308000D01*
G75*
G02*
X397257500Y-25557999I0J-249999D01*
G01*
X397257500Y-26258001D01*
G75*
G02*
X397007501Y-26508000I-249999J0D01*
G01*
X396107499Y-26508000D01*
G75*
G02*
X395857500Y-26258001I0J249999D01*
G01*
X395857500Y-25557999D01*
G75*
G02*
X396107499Y-25308000I249999J0D01*
G01*
G37*
G36*
G01*
X396107499Y-23308000D02*
X397007501Y-23308000D01*
G75*
G02*
X397257500Y-23557999I0J-249999D01*
G01*
X397257500Y-24258001D01*
G75*
G02*
X397007501Y-24508000I-249999J0D01*
G01*
X396107499Y-24508000D01*
G75*
G02*
X395857500Y-24258001I0J249999D01*
G01*
X395857500Y-23557999D01*
G75*
G02*
X396107499Y-23308000I249999J0D01*
G01*
G37*
G36*
G01*
X393821499Y-97317000D02*
X394721501Y-97317000D01*
G75*
G02*
X394971500Y-97566999I0J-249999D01*
G01*
X394971500Y-98267001D01*
G75*
G02*
X394721501Y-98517000I-249999J0D01*
G01*
X393821499Y-98517000D01*
G75*
G02*
X393571500Y-98267001I0J249999D01*
G01*
X393571500Y-97566999D01*
G75*
G02*
X393821499Y-97317000I249999J0D01*
G01*
G37*
G36*
G01*
X393821499Y-95317000D02*
X394721501Y-95317000D01*
G75*
G02*
X394971500Y-95566999I0J-249999D01*
G01*
X394971500Y-96267001D01*
G75*
G02*
X394721501Y-96517000I-249999J0D01*
G01*
X393821499Y-96517000D01*
G75*
G02*
X393571500Y-96267001I0J249999D01*
G01*
X393571500Y-95566999D01*
G75*
G02*
X393821499Y-95317000I249999J0D01*
G01*
G37*
G36*
G01*
X85487500Y-39541500D02*
X85962500Y-39541500D01*
G75*
G02*
X86200000Y-39779000I0J-237500D01*
G01*
X86200000Y-40379000D01*
G75*
G02*
X85962500Y-40616500I-237500J0D01*
G01*
X85487500Y-40616500D01*
G75*
G02*
X85250000Y-40379000I0J237500D01*
G01*
X85250000Y-39779000D01*
G75*
G02*
X85487500Y-39541500I237500J0D01*
G01*
G37*
G36*
G01*
X85487500Y-37816500D02*
X85962500Y-37816500D01*
G75*
G02*
X86200000Y-38054000I0J-237500D01*
G01*
X86200000Y-38654000D01*
G75*
G02*
X85962500Y-38891500I-237500J0D01*
G01*
X85487500Y-38891500D01*
G75*
G02*
X85250000Y-38654000I0J237500D01*
G01*
X85250000Y-38054000D01*
G75*
G02*
X85487500Y-37816500I237500J0D01*
G01*
G37*
G36*
G01*
X113935500Y-44267000D02*
X114410500Y-44267000D01*
G75*
G02*
X114648000Y-44504500I0J-237500D01*
G01*
X114648000Y-45104500D01*
G75*
G02*
X114410500Y-45342000I-237500J0D01*
G01*
X113935500Y-45342000D01*
G75*
G02*
X113698000Y-45104500I0J237500D01*
G01*
X113698000Y-44504500D01*
G75*
G02*
X113935500Y-44267000I237500J0D01*
G01*
G37*
G36*
G01*
X113935500Y-42542000D02*
X114410500Y-42542000D01*
G75*
G02*
X114648000Y-42779500I0J-237500D01*
G01*
X114648000Y-43379500D01*
G75*
G02*
X114410500Y-43617000I-237500J0D01*
G01*
X113935500Y-43617000D01*
G75*
G02*
X113698000Y-43379500I0J237500D01*
G01*
X113698000Y-42779500D01*
G75*
G02*
X113935500Y-42542000I237500J0D01*
G01*
G37*
G36*
G01*
X48624500Y-24604000D02*
X48149500Y-24604000D01*
G75*
G02*
X47912000Y-24366500I0J237500D01*
G01*
X47912000Y-23766500D01*
G75*
G02*
X48149500Y-23529000I237500J0D01*
G01*
X48624500Y-23529000D01*
G75*
G02*
X48862000Y-23766500I0J-237500D01*
G01*
X48862000Y-24366500D01*
G75*
G02*
X48624500Y-24604000I-237500J0D01*
G01*
G37*
G36*
G01*
X48624500Y-26329000D02*
X48149500Y-26329000D01*
G75*
G02*
X47912000Y-26091500I0J237500D01*
G01*
X47912000Y-25491500D01*
G75*
G02*
X48149500Y-25254000I237500J0D01*
G01*
X48624500Y-25254000D01*
G75*
G02*
X48862000Y-25491500I0J-237500D01*
G01*
X48862000Y-26091500D01*
G75*
G02*
X48624500Y-26329000I-237500J0D01*
G01*
G37*
G36*
G01*
X321230000Y-24540500D02*
X320755000Y-24540500D01*
G75*
G02*
X320517500Y-24303000I0J237500D01*
G01*
X320517500Y-23703000D01*
G75*
G02*
X320755000Y-23465500I237500J0D01*
G01*
X321230000Y-23465500D01*
G75*
G02*
X321467500Y-23703000I0J-237500D01*
G01*
X321467500Y-24303000D01*
G75*
G02*
X321230000Y-24540500I-237500J0D01*
G01*
G37*
G36*
G01*
X321230000Y-26265500D02*
X320755000Y-26265500D01*
G75*
G02*
X320517500Y-26028000I0J237500D01*
G01*
X320517500Y-25428000D01*
G75*
G02*
X320755000Y-25190500I237500J0D01*
G01*
X321230000Y-25190500D01*
G75*
G02*
X321467500Y-25428000I0J-237500D01*
G01*
X321467500Y-26028000D01*
G75*
G02*
X321230000Y-26265500I-237500J0D01*
G01*
G37*
G36*
G01*
X235030000Y-25217000D02*
X235505000Y-25217000D01*
G75*
G02*
X235742500Y-25454500I0J-237500D01*
G01*
X235742500Y-26054500D01*
G75*
G02*
X235505000Y-26292000I-237500J0D01*
G01*
X235030000Y-26292000D01*
G75*
G02*
X234792500Y-26054500I0J237500D01*
G01*
X234792500Y-25454500D01*
G75*
G02*
X235030000Y-25217000I237500J0D01*
G01*
G37*
G36*
G01*
X235030000Y-23492000D02*
X235505000Y-23492000D01*
G75*
G02*
X235742500Y-23729500I0J-237500D01*
G01*
X235742500Y-24329500D01*
G75*
G02*
X235505000Y-24567000I-237500J0D01*
G01*
X235030000Y-24567000D01*
G75*
G02*
X234792500Y-24329500I0J237500D01*
G01*
X234792500Y-23729500D01*
G75*
G02*
X235030000Y-23492000I237500J0D01*
G01*
G37*
G36*
G01*
X327994000Y-101390500D02*
X328469000Y-101390500D01*
G75*
G02*
X328706500Y-101628000I0J-237500D01*
G01*
X328706500Y-102228000D01*
G75*
G02*
X328469000Y-102465500I-237500J0D01*
G01*
X327994000Y-102465500D01*
G75*
G02*
X327756500Y-102228000I0J237500D01*
G01*
X327756500Y-101628000D01*
G75*
G02*
X327994000Y-101390500I237500J0D01*
G01*
G37*
G36*
G01*
X327994000Y-99665500D02*
X328469000Y-99665500D01*
G75*
G02*
X328706500Y-99903000I0J-237500D01*
G01*
X328706500Y-100503000D01*
G75*
G02*
X328469000Y-100740500I-237500J0D01*
G01*
X327994000Y-100740500D01*
G75*
G02*
X327756500Y-100503000I0J237500D01*
G01*
X327756500Y-99903000D01*
G75*
G02*
X327994000Y-99665500I237500J0D01*
G01*
G37*
G36*
G01*
X304118000Y-101390500D02*
X304593000Y-101390500D01*
G75*
G02*
X304830500Y-101628000I0J-237500D01*
G01*
X304830500Y-102228000D01*
G75*
G02*
X304593000Y-102465500I-237500J0D01*
G01*
X304118000Y-102465500D01*
G75*
G02*
X303880500Y-102228000I0J237500D01*
G01*
X303880500Y-101628000D01*
G75*
G02*
X304118000Y-101390500I237500J0D01*
G01*
G37*
G36*
G01*
X304118000Y-99665500D02*
X304593000Y-99665500D01*
G75*
G02*
X304830500Y-99903000I0J-237500D01*
G01*
X304830500Y-100503000D01*
G75*
G02*
X304593000Y-100740500I-237500J0D01*
G01*
X304118000Y-100740500D01*
G75*
G02*
X303880500Y-100503000I0J237500D01*
G01*
X303880500Y-99903000D01*
G75*
G02*
X304118000Y-99665500I237500J0D01*
G01*
G37*
G36*
G01*
X313643000Y-82393500D02*
X314118000Y-82393500D01*
G75*
G02*
X314355500Y-82631000I0J-237500D01*
G01*
X314355500Y-83231000D01*
G75*
G02*
X314118000Y-83468500I-237500J0D01*
G01*
X313643000Y-83468500D01*
G75*
G02*
X313405500Y-83231000I0J237500D01*
G01*
X313405500Y-82631000D01*
G75*
G02*
X313643000Y-82393500I237500J0D01*
G01*
G37*
G36*
G01*
X313643000Y-80668500D02*
X314118000Y-80668500D01*
G75*
G02*
X314355500Y-80906000I0J-237500D01*
G01*
X314355500Y-81506000D01*
G75*
G02*
X314118000Y-81743500I-237500J0D01*
G01*
X313643000Y-81743500D01*
G75*
G02*
X313405500Y-81506000I0J237500D01*
G01*
X313405500Y-80906000D01*
G75*
G02*
X313643000Y-80668500I237500J0D01*
G01*
G37*
G36*
G01*
X318817000Y-62693500D02*
X318342000Y-62693500D01*
G75*
G02*
X318104500Y-62456000I0J237500D01*
G01*
X318104500Y-61856000D01*
G75*
G02*
X318342000Y-61618500I237500J0D01*
G01*
X318817000Y-61618500D01*
G75*
G02*
X319054500Y-61856000I0J-237500D01*
G01*
X319054500Y-62456000D01*
G75*
G02*
X318817000Y-62693500I-237500J0D01*
G01*
G37*
G36*
G01*
X318817000Y-64418500D02*
X318342000Y-64418500D01*
G75*
G02*
X318104500Y-64181000I0J237500D01*
G01*
X318104500Y-63581000D01*
G75*
G02*
X318342000Y-63343500I237500J0D01*
G01*
X318817000Y-63343500D01*
G75*
G02*
X319054500Y-63581000I0J-237500D01*
G01*
X319054500Y-64181000D01*
G75*
G02*
X318817000Y-64418500I-237500J0D01*
G01*
G37*
G36*
G01*
X325581000Y-44113500D02*
X326056000Y-44113500D01*
G75*
G02*
X326293500Y-44351000I0J-237500D01*
G01*
X326293500Y-44951000D01*
G75*
G02*
X326056000Y-45188500I-237500J0D01*
G01*
X325581000Y-45188500D01*
G75*
G02*
X325343500Y-44951000I0J237500D01*
G01*
X325343500Y-44351000D01*
G75*
G02*
X325581000Y-44113500I237500J0D01*
G01*
G37*
G36*
G01*
X325581000Y-42388500D02*
X326056000Y-42388500D01*
G75*
G02*
X326293500Y-42626000I0J-237500D01*
G01*
X326293500Y-43226000D01*
G75*
G02*
X326056000Y-43463500I-237500J0D01*
G01*
X325581000Y-43463500D01*
G75*
G02*
X325343500Y-43226000I0J237500D01*
G01*
X325343500Y-42626000D01*
G75*
G02*
X325581000Y-42388500I237500J0D01*
G01*
G37*
G36*
G01*
X268431000Y-96564500D02*
X268906000Y-96564500D01*
G75*
G02*
X269143500Y-96802000I0J-237500D01*
G01*
X269143500Y-97402000D01*
G75*
G02*
X268906000Y-97639500I-237500J0D01*
G01*
X268431000Y-97639500D01*
G75*
G02*
X268193500Y-97402000I0J237500D01*
G01*
X268193500Y-96802000D01*
G75*
G02*
X268431000Y-96564500I237500J0D01*
G01*
G37*
G36*
G01*
X268431000Y-94839500D02*
X268906000Y-94839500D01*
G75*
G02*
X269143500Y-95077000I0J-237500D01*
G01*
X269143500Y-95677000D01*
G75*
G02*
X268906000Y-95914500I-237500J0D01*
G01*
X268431000Y-95914500D01*
G75*
G02*
X268193500Y-95677000I0J237500D01*
G01*
X268193500Y-95077000D01*
G75*
G02*
X268431000Y-94839500I237500J0D01*
G01*
G37*
G36*
G01*
X241507000Y-96564500D02*
X241982000Y-96564500D01*
G75*
G02*
X242219500Y-96802000I0J-237500D01*
G01*
X242219500Y-97402000D01*
G75*
G02*
X241982000Y-97639500I-237500J0D01*
G01*
X241507000Y-97639500D01*
G75*
G02*
X241269500Y-97402000I0J237500D01*
G01*
X241269500Y-96802000D01*
G75*
G02*
X241507000Y-96564500I237500J0D01*
G01*
G37*
G36*
G01*
X241507000Y-94839500D02*
X241982000Y-94839500D01*
G75*
G02*
X242219500Y-95077000I0J-237500D01*
G01*
X242219500Y-95677000D01*
G75*
G02*
X241982000Y-95914500I-237500J0D01*
G01*
X241507000Y-95914500D01*
G75*
G02*
X241269500Y-95677000I0J237500D01*
G01*
X241269500Y-95077000D01*
G75*
G02*
X241507000Y-94839500I237500J0D01*
G01*
G37*
G36*
G01*
X211281000Y-96437500D02*
X211756000Y-96437500D01*
G75*
G02*
X211993500Y-96675000I0J-237500D01*
G01*
X211993500Y-97275000D01*
G75*
G02*
X211756000Y-97512500I-237500J0D01*
G01*
X211281000Y-97512500D01*
G75*
G02*
X211043500Y-97275000I0J237500D01*
G01*
X211043500Y-96675000D01*
G75*
G02*
X211281000Y-96437500I237500J0D01*
G01*
G37*
G36*
G01*
X211281000Y-94712500D02*
X211756000Y-94712500D01*
G75*
G02*
X211993500Y-94950000I0J-237500D01*
G01*
X211993500Y-95550000D01*
G75*
G02*
X211756000Y-95787500I-237500J0D01*
G01*
X211281000Y-95787500D01*
G75*
G02*
X211043500Y-95550000I0J237500D01*
G01*
X211043500Y-94950000D01*
G75*
G02*
X211281000Y-94712500I237500J0D01*
G01*
G37*
G36*
G01*
X369904000Y-39414500D02*
X370379000Y-39414500D01*
G75*
G02*
X370616500Y-39652000I0J-237500D01*
G01*
X370616500Y-40252000D01*
G75*
G02*
X370379000Y-40489500I-237500J0D01*
G01*
X369904000Y-40489500D01*
G75*
G02*
X369666500Y-40252000I0J237500D01*
G01*
X369666500Y-39652000D01*
G75*
G02*
X369904000Y-39414500I237500J0D01*
G01*
G37*
G36*
G01*
X369904000Y-37689500D02*
X370379000Y-37689500D01*
G75*
G02*
X370616500Y-37927000I0J-237500D01*
G01*
X370616500Y-38527000D01*
G75*
G02*
X370379000Y-38764500I-237500J0D01*
G01*
X369904000Y-38764500D01*
G75*
G02*
X369666500Y-38527000I0J237500D01*
G01*
X369666500Y-37927000D01*
G75*
G02*
X369904000Y-37689500I237500J0D01*
G01*
G37*
G36*
G01*
X201756000Y-77514500D02*
X202231000Y-77514500D01*
G75*
G02*
X202468500Y-77752000I0J-237500D01*
G01*
X202468500Y-78352000D01*
G75*
G02*
X202231000Y-78589500I-237500J0D01*
G01*
X201756000Y-78589500D01*
G75*
G02*
X201518500Y-78352000I0J237500D01*
G01*
X201518500Y-77752000D01*
G75*
G02*
X201756000Y-77514500I237500J0D01*
G01*
G37*
G36*
G01*
X201756000Y-75789500D02*
X202231000Y-75789500D01*
G75*
G02*
X202468500Y-76027000I0J-237500D01*
G01*
X202468500Y-76627000D01*
G75*
G02*
X202231000Y-76864500I-237500J0D01*
G01*
X201756000Y-76864500D01*
G75*
G02*
X201518500Y-76627000I0J237500D01*
G01*
X201518500Y-76027000D01*
G75*
G02*
X201756000Y-75789500I237500J0D01*
G01*
G37*
G36*
G01*
X49546500Y-101417000D02*
X50021500Y-101417000D01*
G75*
G02*
X50259000Y-101654500I0J-237500D01*
G01*
X50259000Y-102254500D01*
G75*
G02*
X50021500Y-102492000I-237500J0D01*
G01*
X49546500Y-102492000D01*
G75*
G02*
X49309000Y-102254500I0J237500D01*
G01*
X49309000Y-101654500D01*
G75*
G02*
X49546500Y-101417000I237500J0D01*
G01*
G37*
G36*
G01*
X49546500Y-99692000D02*
X50021500Y-99692000D01*
G75*
G02*
X50259000Y-99929500I0J-237500D01*
G01*
X50259000Y-100529500D01*
G75*
G02*
X50021500Y-100767000I-237500J0D01*
G01*
X49546500Y-100767000D01*
G75*
G02*
X49309000Y-100529500I0J237500D01*
G01*
X49309000Y-99929500D01*
G75*
G02*
X49546500Y-99692000I237500J0D01*
G01*
G37*
G36*
G01*
X280717000Y-100740500D02*
X280242000Y-100740500D01*
G75*
G02*
X280004500Y-100503000I0J237500D01*
G01*
X280004500Y-99903000D01*
G75*
G02*
X280242000Y-99665500I237500J0D01*
G01*
X280717000Y-99665500D01*
G75*
G02*
X280954500Y-99903000I0J-237500D01*
G01*
X280954500Y-100503000D01*
G75*
G02*
X280717000Y-100740500I-237500J0D01*
G01*
G37*
G36*
G01*
X280717000Y-102465500D02*
X280242000Y-102465500D01*
G75*
G02*
X280004500Y-102228000I0J237500D01*
G01*
X280004500Y-101628000D01*
G75*
G02*
X280242000Y-101390500I237500J0D01*
G01*
X280717000Y-101390500D01*
G75*
G02*
X280954500Y-101628000I0J-237500D01*
G01*
X280954500Y-102228000D01*
G75*
G02*
X280717000Y-102465500I-237500J0D01*
G01*
G37*
G36*
G01*
X256493000Y-101390500D02*
X256968000Y-101390500D01*
G75*
G02*
X257205500Y-101628000I0J-237500D01*
G01*
X257205500Y-102228000D01*
G75*
G02*
X256968000Y-102465500I-237500J0D01*
G01*
X256493000Y-102465500D01*
G75*
G02*
X256255500Y-102228000I0J237500D01*
G01*
X256255500Y-101628000D01*
G75*
G02*
X256493000Y-101390500I237500J0D01*
G01*
G37*
G36*
G01*
X256493000Y-99665500D02*
X256968000Y-99665500D01*
G75*
G02*
X257205500Y-99903000I0J-237500D01*
G01*
X257205500Y-100503000D01*
G75*
G02*
X256968000Y-100740500I-237500J0D01*
G01*
X256493000Y-100740500D01*
G75*
G02*
X256255500Y-100503000I0J237500D01*
G01*
X256255500Y-99903000D01*
G75*
G02*
X256493000Y-99665500I237500J0D01*
G01*
G37*
G36*
G01*
X166607500Y-81690500D02*
X166132500Y-81690500D01*
G75*
G02*
X165895000Y-81453000I0J237500D01*
G01*
X165895000Y-80853000D01*
G75*
G02*
X166132500Y-80615500I237500J0D01*
G01*
X166607500Y-80615500D01*
G75*
G02*
X166845000Y-80853000I0J-237500D01*
G01*
X166845000Y-81453000D01*
G75*
G02*
X166607500Y-81690500I-237500J0D01*
G01*
G37*
G36*
G01*
X166607500Y-83415500D02*
X166132500Y-83415500D01*
G75*
G02*
X165895000Y-83178000I0J237500D01*
G01*
X165895000Y-82578000D01*
G75*
G02*
X166132500Y-82340500I237500J0D01*
G01*
X166607500Y-82340500D01*
G75*
G02*
X166845000Y-82578000I0J-237500D01*
G01*
X166845000Y-83178000D01*
G75*
G02*
X166607500Y-83415500I-237500J0D01*
G01*
G37*
G36*
G01*
X90661500Y-81717000D02*
X90186500Y-81717000D01*
G75*
G02*
X89949000Y-81479500I0J237500D01*
G01*
X89949000Y-80879500D01*
G75*
G02*
X90186500Y-80642000I237500J0D01*
G01*
X90661500Y-80642000D01*
G75*
G02*
X90899000Y-80879500I0J-237500D01*
G01*
X90899000Y-81479500D01*
G75*
G02*
X90661500Y-81717000I-237500J0D01*
G01*
G37*
G36*
G01*
X90661500Y-83442000D02*
X90186500Y-83442000D01*
G75*
G02*
X89949000Y-83204500I0J237500D01*
G01*
X89949000Y-82604500D01*
G75*
G02*
X90186500Y-82367000I237500J0D01*
G01*
X90661500Y-82367000D01*
G75*
G02*
X90899000Y-82604500I0J-237500D01*
G01*
X90899000Y-83204500D01*
G75*
G02*
X90661500Y-83442000I-237500J0D01*
G01*
G37*
G36*
G01*
X59673500Y-81690500D02*
X59198500Y-81690500D01*
G75*
G02*
X58961000Y-81453000I0J237500D01*
G01*
X58961000Y-80853000D01*
G75*
G02*
X59198500Y-80615500I237500J0D01*
G01*
X59673500Y-80615500D01*
G75*
G02*
X59911000Y-80853000I0J-237500D01*
G01*
X59911000Y-81453000D01*
G75*
G02*
X59673500Y-81690500I-237500J0D01*
G01*
G37*
G36*
G01*
X59673500Y-83415500D02*
X59198500Y-83415500D01*
G75*
G02*
X58961000Y-83178000I0J237500D01*
G01*
X58961000Y-82578000D01*
G75*
G02*
X59198500Y-82340500I237500J0D01*
G01*
X59673500Y-82340500D01*
G75*
G02*
X59911000Y-82578000I0J-237500D01*
G01*
X59911000Y-83178000D01*
G75*
G02*
X59673500Y-83415500I-237500J0D01*
G01*
G37*
G36*
G01*
X221154000Y-81616500D02*
X220679000Y-81616500D01*
G75*
G02*
X220441500Y-81379000I0J237500D01*
G01*
X220441500Y-80779000D01*
G75*
G02*
X220679000Y-80541500I237500J0D01*
G01*
X221154000Y-80541500D01*
G75*
G02*
X221391500Y-80779000I0J-237500D01*
G01*
X221391500Y-81379000D01*
G75*
G02*
X221154000Y-81616500I-237500J0D01*
G01*
G37*
G36*
G01*
X221154000Y-83341500D02*
X220679000Y-83341500D01*
G75*
G02*
X220441500Y-83104000I0J237500D01*
G01*
X220441500Y-82504000D01*
G75*
G02*
X220679000Y-82266500I237500J0D01*
G01*
X221154000Y-82266500D01*
G75*
G02*
X221391500Y-82504000I0J-237500D01*
G01*
X221391500Y-83104000D01*
G75*
G02*
X221154000Y-83341500I-237500J0D01*
G01*
G37*
G36*
G01*
X259381000Y-81616500D02*
X258906000Y-81616500D01*
G75*
G02*
X258668500Y-81379000I0J237500D01*
G01*
X258668500Y-80779000D01*
G75*
G02*
X258906000Y-80541500I237500J0D01*
G01*
X259381000Y-80541500D01*
G75*
G02*
X259618500Y-80779000I0J-237500D01*
G01*
X259618500Y-81379000D01*
G75*
G02*
X259381000Y-81616500I-237500J0D01*
G01*
G37*
G36*
G01*
X259381000Y-83341500D02*
X258906000Y-83341500D01*
G75*
G02*
X258668500Y-83104000I0J237500D01*
G01*
X258668500Y-82504000D01*
G75*
G02*
X258906000Y-82266500I237500J0D01*
G01*
X259381000Y-82266500D01*
G75*
G02*
X259618500Y-82504000I0J-237500D01*
G01*
X259618500Y-83104000D01*
G75*
G02*
X259381000Y-83341500I-237500J0D01*
G01*
G37*
G36*
G01*
X157082500Y-62640500D02*
X156607500Y-62640500D01*
G75*
G02*
X156370000Y-62403000I0J237500D01*
G01*
X156370000Y-61803000D01*
G75*
G02*
X156607500Y-61565500I237500J0D01*
G01*
X157082500Y-61565500D01*
G75*
G02*
X157320000Y-61803000I0J-237500D01*
G01*
X157320000Y-62403000D01*
G75*
G02*
X157082500Y-62640500I-237500J0D01*
G01*
G37*
G36*
G01*
X157082500Y-64365500D02*
X156607500Y-64365500D01*
G75*
G02*
X156370000Y-64128000I0J237500D01*
G01*
X156370000Y-63528000D01*
G75*
G02*
X156607500Y-63290500I237500J0D01*
G01*
X157082500Y-63290500D01*
G75*
G02*
X157320000Y-63528000I0J-237500D01*
G01*
X157320000Y-64128000D01*
G75*
G02*
X157082500Y-64365500I-237500J0D01*
G01*
G37*
G36*
G01*
X81136500Y-62667000D02*
X80661500Y-62667000D01*
G75*
G02*
X80424000Y-62429500I0J237500D01*
G01*
X80424000Y-61829500D01*
G75*
G02*
X80661500Y-61592000I237500J0D01*
G01*
X81136500Y-61592000D01*
G75*
G02*
X81374000Y-61829500I0J-237500D01*
G01*
X81374000Y-62429500D01*
G75*
G02*
X81136500Y-62667000I-237500J0D01*
G01*
G37*
G36*
G01*
X81136500Y-64392000D02*
X80661500Y-64392000D01*
G75*
G02*
X80424000Y-64154500I0J237500D01*
G01*
X80424000Y-63554500D01*
G75*
G02*
X80661500Y-63317000I237500J0D01*
G01*
X81136500Y-63317000D01*
G75*
G02*
X81374000Y-63554500I0J-237500D01*
G01*
X81374000Y-64154500D01*
G75*
G02*
X81136500Y-64392000I-237500J0D01*
G01*
G37*
G36*
G01*
X287354000Y-63290500D02*
X287829000Y-63290500D01*
G75*
G02*
X288066500Y-63528000I0J-237500D01*
G01*
X288066500Y-64128000D01*
G75*
G02*
X287829000Y-64365500I-237500J0D01*
G01*
X287354000Y-64365500D01*
G75*
G02*
X287116500Y-64128000I0J237500D01*
G01*
X287116500Y-63528000D01*
G75*
G02*
X287354000Y-63290500I237500J0D01*
G01*
G37*
G36*
G01*
X287354000Y-61565500D02*
X287829000Y-61565500D01*
G75*
G02*
X288066500Y-61803000I0J-237500D01*
G01*
X288066500Y-62403000D01*
G75*
G02*
X287829000Y-62640500I-237500J0D01*
G01*
X287354000Y-62640500D01*
G75*
G02*
X287116500Y-62403000I0J237500D01*
G01*
X287116500Y-61803000D01*
G75*
G02*
X287354000Y-61565500I237500J0D01*
G01*
G37*
G36*
G01*
X211756000Y-62693500D02*
X211281000Y-62693500D01*
G75*
G02*
X211043500Y-62456000I0J237500D01*
G01*
X211043500Y-61856000D01*
G75*
G02*
X211281000Y-61618500I237500J0D01*
G01*
X211756000Y-61618500D01*
G75*
G02*
X211993500Y-61856000I0J-237500D01*
G01*
X211993500Y-62456000D01*
G75*
G02*
X211756000Y-62693500I-237500J0D01*
G01*
G37*
G36*
G01*
X211756000Y-64418500D02*
X211281000Y-64418500D01*
G75*
G02*
X211043500Y-64181000I0J237500D01*
G01*
X211043500Y-63581000D01*
G75*
G02*
X211281000Y-63343500I237500J0D01*
G01*
X211756000Y-63343500D01*
G75*
G02*
X211993500Y-63581000I0J-237500D01*
G01*
X211993500Y-64181000D01*
G75*
G02*
X211756000Y-64418500I-237500J0D01*
G01*
G37*
G36*
G01*
X95012500Y-44293500D02*
X95487500Y-44293500D01*
G75*
G02*
X95725000Y-44531000I0J-237500D01*
G01*
X95725000Y-45131000D01*
G75*
G02*
X95487500Y-45368500I-237500J0D01*
G01*
X95012500Y-45368500D01*
G75*
G02*
X94775000Y-45131000I0J237500D01*
G01*
X94775000Y-44531000D01*
G75*
G02*
X95012500Y-44293500I237500J0D01*
G01*
G37*
G36*
G01*
X95012500Y-42568500D02*
X95487500Y-42568500D01*
G75*
G02*
X95725000Y-42806000I0J-237500D01*
G01*
X95725000Y-43406000D01*
G75*
G02*
X95487500Y-43643500I-237500J0D01*
G01*
X95012500Y-43643500D01*
G75*
G02*
X94775000Y-43406000I0J237500D01*
G01*
X94775000Y-42806000D01*
G75*
G02*
X95012500Y-42568500I237500J0D01*
G01*
G37*
G36*
G01*
X75708500Y-44267000D02*
X76183500Y-44267000D01*
G75*
G02*
X76421000Y-44504500I0J-237500D01*
G01*
X76421000Y-45104500D01*
G75*
G02*
X76183500Y-45342000I-237500J0D01*
G01*
X75708500Y-45342000D01*
G75*
G02*
X75471000Y-45104500I0J237500D01*
G01*
X75471000Y-44504500D01*
G75*
G02*
X75708500Y-44267000I237500J0D01*
G01*
G37*
G36*
G01*
X75708500Y-42542000D02*
X76183500Y-42542000D01*
G75*
G02*
X76421000Y-42779500I0J-237500D01*
G01*
X76421000Y-43379500D01*
G75*
G02*
X76183500Y-43617000I-237500J0D01*
G01*
X75708500Y-43617000D01*
G75*
G02*
X75471000Y-43379500I0J237500D01*
G01*
X75471000Y-42779500D01*
G75*
G02*
X75708500Y-42542000I237500J0D01*
G01*
G37*
G36*
G01*
X51959500Y-44267000D02*
X52434500Y-44267000D01*
G75*
G02*
X52672000Y-44504500I0J-237500D01*
G01*
X52672000Y-45104500D01*
G75*
G02*
X52434500Y-45342000I-237500J0D01*
G01*
X51959500Y-45342000D01*
G75*
G02*
X51722000Y-45104500I0J237500D01*
G01*
X51722000Y-44504500D01*
G75*
G02*
X51959500Y-44267000I237500J0D01*
G01*
G37*
G36*
G01*
X51959500Y-42542000D02*
X52434500Y-42542000D01*
G75*
G02*
X52672000Y-42779500I0J-237500D01*
G01*
X52672000Y-43379500D01*
G75*
G02*
X52434500Y-43617000I-237500J0D01*
G01*
X51959500Y-43617000D01*
G75*
G02*
X51722000Y-43379500I0J237500D01*
G01*
X51722000Y-42779500D01*
G75*
G02*
X51959500Y-42542000I237500J0D01*
G01*
G37*
G36*
G01*
X245030000Y-43590500D02*
X244555000Y-43590500D01*
G75*
G02*
X244317500Y-43353000I0J237500D01*
G01*
X244317500Y-42753000D01*
G75*
G02*
X244555000Y-42515500I237500J0D01*
G01*
X245030000Y-42515500D01*
G75*
G02*
X245267500Y-42753000I0J-237500D01*
G01*
X245267500Y-43353000D01*
G75*
G02*
X245030000Y-43590500I-237500J0D01*
G01*
G37*
G36*
G01*
X245030000Y-45315500D02*
X244555000Y-45315500D01*
G75*
G02*
X244317500Y-45078000I0J237500D01*
G01*
X244317500Y-44478000D01*
G75*
G02*
X244555000Y-44240500I237500J0D01*
G01*
X245030000Y-44240500D01*
G75*
G02*
X245267500Y-44478000I0J-237500D01*
G01*
X245267500Y-45078000D01*
G75*
G02*
X245030000Y-45315500I-237500J0D01*
G01*
G37*
G36*
G01*
X225505000Y-44293500D02*
X225980000Y-44293500D01*
G75*
G02*
X226217500Y-44531000I0J-237500D01*
G01*
X226217500Y-45131000D01*
G75*
G02*
X225980000Y-45368500I-237500J0D01*
G01*
X225505000Y-45368500D01*
G75*
G02*
X225267500Y-45131000I0J237500D01*
G01*
X225267500Y-44531000D01*
G75*
G02*
X225505000Y-44293500I237500J0D01*
G01*
G37*
G36*
G01*
X225505000Y-42568500D02*
X225980000Y-42568500D01*
G75*
G02*
X226217500Y-42806000I0J-237500D01*
G01*
X226217500Y-43406000D01*
G75*
G02*
X225980000Y-43643500I-237500J0D01*
G01*
X225505000Y-43643500D01*
G75*
G02*
X225267500Y-43406000I0J237500D01*
G01*
X225267500Y-42806000D01*
G75*
G02*
X225505000Y-42568500I237500J0D01*
G01*
G37*
G36*
G01*
X187405000Y-44240500D02*
X187880000Y-44240500D01*
G75*
G02*
X188117500Y-44478000I0J-237500D01*
G01*
X188117500Y-45078000D01*
G75*
G02*
X187880000Y-45315500I-237500J0D01*
G01*
X187405000Y-45315500D01*
G75*
G02*
X187167500Y-45078000I0J237500D01*
G01*
X187167500Y-44478000D01*
G75*
G02*
X187405000Y-44240500I237500J0D01*
G01*
G37*
G36*
G01*
X187405000Y-42515500D02*
X187880000Y-42515500D01*
G75*
G02*
X188117500Y-42753000I0J-237500D01*
G01*
X188117500Y-43353000D01*
G75*
G02*
X187880000Y-43590500I-237500J0D01*
G01*
X187405000Y-43590500D01*
G75*
G02*
X187167500Y-43353000I0J237500D01*
G01*
X187167500Y-42753000D01*
G75*
G02*
X187405000Y-42515500I237500J0D01*
G01*
G37*
G36*
G01*
X67674500Y-24567000D02*
X67199500Y-24567000D01*
G75*
G02*
X66962000Y-24329500I0J237500D01*
G01*
X66962000Y-23729500D01*
G75*
G02*
X67199500Y-23492000I237500J0D01*
G01*
X67674500Y-23492000D01*
G75*
G02*
X67912000Y-23729500I0J-237500D01*
G01*
X67912000Y-24329500D01*
G75*
G02*
X67674500Y-24567000I-237500J0D01*
G01*
G37*
G36*
G01*
X67674500Y-26292000D02*
X67199500Y-26292000D01*
G75*
G02*
X66962000Y-26054500I0J237500D01*
G01*
X66962000Y-25454500D01*
G75*
G02*
X67199500Y-25217000I237500J0D01*
G01*
X67674500Y-25217000D01*
G75*
G02*
X67912000Y-25454500I0J-237500D01*
G01*
X67912000Y-26054500D01*
G75*
G02*
X67674500Y-26292000I-237500J0D01*
G01*
G37*
G36*
G01*
X162449500Y-25217000D02*
X162924500Y-25217000D01*
G75*
G02*
X163162000Y-25454500I0J-237500D01*
G01*
X163162000Y-26054500D01*
G75*
G02*
X162924500Y-26292000I-237500J0D01*
G01*
X162449500Y-26292000D01*
G75*
G02*
X162212000Y-26054500I0J237500D01*
G01*
X162212000Y-25454500D01*
G75*
G02*
X162449500Y-25217000I237500J0D01*
G01*
G37*
G36*
G01*
X162449500Y-23492000D02*
X162924500Y-23492000D01*
G75*
G02*
X163162000Y-23729500I0J-237500D01*
G01*
X163162000Y-24329500D01*
G75*
G02*
X162924500Y-24567000I-237500J0D01*
G01*
X162449500Y-24567000D01*
G75*
G02*
X162212000Y-24329500I0J237500D01*
G01*
X162212000Y-23729500D01*
G75*
G02*
X162449500Y-23492000I237500J0D01*
G01*
G37*
G36*
G01*
X143272500Y-25254000D02*
X143747500Y-25254000D01*
G75*
G02*
X143985000Y-25491500I0J-237500D01*
G01*
X143985000Y-26091500D01*
G75*
G02*
X143747500Y-26329000I-237500J0D01*
G01*
X143272500Y-26329000D01*
G75*
G02*
X143035000Y-26091500I0J237500D01*
G01*
X143035000Y-25491500D01*
G75*
G02*
X143272500Y-25254000I237500J0D01*
G01*
G37*
G36*
G01*
X143272500Y-23529000D02*
X143747500Y-23529000D01*
G75*
G02*
X143985000Y-23766500I0J-237500D01*
G01*
X143985000Y-24366500D01*
G75*
G02*
X143747500Y-24604000I-237500J0D01*
G01*
X143272500Y-24604000D01*
G75*
G02*
X143035000Y-24366500I0J237500D01*
G01*
X143035000Y-23766500D01*
G75*
G02*
X143272500Y-23529000I237500J0D01*
G01*
G37*
G36*
G01*
X124507000Y-24604000D02*
X124032000Y-24604000D01*
G75*
G02*
X123794500Y-24366500I0J237500D01*
G01*
X123794500Y-23766500D01*
G75*
G02*
X124032000Y-23529000I237500J0D01*
G01*
X124507000Y-23529000D01*
G75*
G02*
X124744500Y-23766500I0J-237500D01*
G01*
X124744500Y-24366500D01*
G75*
G02*
X124507000Y-24604000I-237500J0D01*
G01*
G37*
G36*
G01*
X124507000Y-26329000D02*
X124032000Y-26329000D01*
G75*
G02*
X123794500Y-26091500I0J237500D01*
G01*
X123794500Y-25491500D01*
G75*
G02*
X124032000Y-25254000I237500J0D01*
G01*
X124507000Y-25254000D01*
G75*
G02*
X124744500Y-25491500I0J-237500D01*
G01*
X124744500Y-26091500D01*
G75*
G02*
X124507000Y-26329000I-237500J0D01*
G01*
G37*
G36*
G01*
X292655000Y-24593500D02*
X292180000Y-24593500D01*
G75*
G02*
X291942500Y-24356000I0J237500D01*
G01*
X291942500Y-23756000D01*
G75*
G02*
X292180000Y-23518500I237500J0D01*
G01*
X292655000Y-23518500D01*
G75*
G02*
X292892500Y-23756000I0J-237500D01*
G01*
X292892500Y-24356000D01*
G75*
G02*
X292655000Y-24593500I-237500J0D01*
G01*
G37*
G36*
G01*
X292655000Y-26318500D02*
X292180000Y-26318500D01*
G75*
G02*
X291942500Y-26081000I0J237500D01*
G01*
X291942500Y-25481000D01*
G75*
G02*
X292180000Y-25243500I237500J0D01*
G01*
X292655000Y-25243500D01*
G75*
G02*
X292892500Y-25481000I0J-237500D01*
G01*
X292892500Y-26081000D01*
G75*
G02*
X292655000Y-26318500I-237500J0D01*
G01*
G37*
G36*
G01*
X273257000Y-25190500D02*
X273732000Y-25190500D01*
G75*
G02*
X273969500Y-25428000I0J-237500D01*
G01*
X273969500Y-26028000D01*
G75*
G02*
X273732000Y-26265500I-237500J0D01*
G01*
X273257000Y-26265500D01*
G75*
G02*
X273019500Y-26028000I0J237500D01*
G01*
X273019500Y-25428000D01*
G75*
G02*
X273257000Y-25190500I237500J0D01*
G01*
G37*
G36*
G01*
X273257000Y-23465500D02*
X273732000Y-23465500D01*
G75*
G02*
X273969500Y-23703000I0J-237500D01*
G01*
X273969500Y-24303000D01*
G75*
G02*
X273732000Y-24540500I-237500J0D01*
G01*
X273257000Y-24540500D01*
G75*
G02*
X273019500Y-24303000I0J237500D01*
G01*
X273019500Y-23703000D01*
G75*
G02*
X273257000Y-23465500I237500J0D01*
G01*
G37*
G36*
G01*
X254555000Y-24593500D02*
X254080000Y-24593500D01*
G75*
G02*
X253842500Y-24356000I0J237500D01*
G01*
X253842500Y-23756000D01*
G75*
G02*
X254080000Y-23518500I237500J0D01*
G01*
X254555000Y-23518500D01*
G75*
G02*
X254792500Y-23756000I0J-237500D01*
G01*
X254792500Y-24356000D01*
G75*
G02*
X254555000Y-24593500I-237500J0D01*
G01*
G37*
G36*
G01*
X254555000Y-26318500D02*
X254080000Y-26318500D01*
G75*
G02*
X253842500Y-26081000I0J237500D01*
G01*
X253842500Y-25481000D01*
G75*
G02*
X254080000Y-25243500I237500J0D01*
G01*
X254555000Y-25243500D01*
G75*
G02*
X254792500Y-25481000I0J-237500D01*
G01*
X254792500Y-26081000D01*
G75*
G02*
X254555000Y-26318500I-237500J0D01*
G01*
G37*
G36*
G01*
X90948500Y-96744500D02*
X91423500Y-96744500D01*
G75*
G02*
X91661000Y-96982000I0J-237500D01*
G01*
X91661000Y-97582000D01*
G75*
G02*
X91423500Y-97819500I-237500J0D01*
G01*
X90948500Y-97819500D01*
G75*
G02*
X90711000Y-97582000I0J237500D01*
G01*
X90711000Y-96982000D01*
G75*
G02*
X90948500Y-96744500I237500J0D01*
G01*
G37*
G36*
G01*
X90948500Y-95019500D02*
X91423500Y-95019500D01*
G75*
G02*
X91661000Y-95257000I0J-237500D01*
G01*
X91661000Y-95857000D01*
G75*
G02*
X91423500Y-96094500I-237500J0D01*
G01*
X90948500Y-96094500D01*
G75*
G02*
X90711000Y-95857000I0J237500D01*
G01*
X90711000Y-95257000D01*
G75*
G02*
X90948500Y-95019500I237500J0D01*
G01*
G37*
G36*
G01*
X292942000Y-96617500D02*
X293417000Y-96617500D01*
G75*
G02*
X293654500Y-96855000I0J-237500D01*
G01*
X293654500Y-97455000D01*
G75*
G02*
X293417000Y-97692500I-237500J0D01*
G01*
X292942000Y-97692500D01*
G75*
G02*
X292704500Y-97455000I0J237500D01*
G01*
X292704500Y-96855000D01*
G75*
G02*
X292942000Y-96617500I237500J0D01*
G01*
G37*
G36*
G01*
X292942000Y-94892500D02*
X293417000Y-94892500D01*
G75*
G02*
X293654500Y-95130000I0J-237500D01*
G01*
X293654500Y-95730000D01*
G75*
G02*
X293417000Y-95967500I-237500J0D01*
G01*
X292942000Y-95967500D01*
G75*
G02*
X292704500Y-95730000I0J237500D01*
G01*
X292704500Y-95130000D01*
G75*
G02*
X292942000Y-94892500I237500J0D01*
G01*
G37*
G36*
G01*
X142637500Y-39160500D02*
X143112500Y-39160500D01*
G75*
G02*
X143350000Y-39398000I0J-237500D01*
G01*
X143350000Y-39998000D01*
G75*
G02*
X143112500Y-40235500I-237500J0D01*
G01*
X142637500Y-40235500D01*
G75*
G02*
X142400000Y-39998000I0J237500D01*
G01*
X142400000Y-39398000D01*
G75*
G02*
X142637500Y-39160500I237500J0D01*
G01*
G37*
G36*
G01*
X142637500Y-37435500D02*
X143112500Y-37435500D01*
G75*
G02*
X143350000Y-37673000I0J-237500D01*
G01*
X143350000Y-38273000D01*
G75*
G02*
X143112500Y-38510500I-237500J0D01*
G01*
X142637500Y-38510500D01*
G75*
G02*
X142400000Y-38273000I0J237500D01*
G01*
X142400000Y-37673000D01*
G75*
G02*
X142637500Y-37435500I237500J0D01*
G01*
G37*
G36*
G01*
X113935500Y-39467500D02*
X114410500Y-39467500D01*
G75*
G02*
X114648000Y-39705000I0J-237500D01*
G01*
X114648000Y-40305000D01*
G75*
G02*
X114410500Y-40542500I-237500J0D01*
G01*
X113935500Y-40542500D01*
G75*
G02*
X113698000Y-40305000I0J237500D01*
G01*
X113698000Y-39705000D01*
G75*
G02*
X113935500Y-39467500I237500J0D01*
G01*
G37*
G36*
G01*
X113935500Y-37742500D02*
X114410500Y-37742500D01*
G75*
G02*
X114648000Y-37980000I0J-237500D01*
G01*
X114648000Y-38580000D01*
G75*
G02*
X114410500Y-38817500I-237500J0D01*
G01*
X113935500Y-38817500D01*
G75*
G02*
X113698000Y-38580000I0J237500D01*
G01*
X113698000Y-37980000D01*
G75*
G02*
X113935500Y-37742500I237500J0D01*
G01*
G37*
G36*
G01*
X201756000Y-58464500D02*
X202231000Y-58464500D01*
G75*
G02*
X202468500Y-58702000I0J-237500D01*
G01*
X202468500Y-59302000D01*
G75*
G02*
X202231000Y-59539500I-237500J0D01*
G01*
X201756000Y-59539500D01*
G75*
G02*
X201518500Y-59302000I0J237500D01*
G01*
X201518500Y-58702000D01*
G75*
G02*
X201756000Y-58464500I237500J0D01*
G01*
G37*
G36*
G01*
X201756000Y-56739500D02*
X202231000Y-56739500D01*
G75*
G02*
X202468500Y-56977000I0J-237500D01*
G01*
X202468500Y-57577000D01*
G75*
G02*
X202231000Y-57814500I-237500J0D01*
G01*
X201756000Y-57814500D01*
G75*
G02*
X201518500Y-57577000I0J237500D01*
G01*
X201518500Y-56977000D01*
G75*
G02*
X201756000Y-56739500I237500J0D01*
G01*
G37*
D13*
X402807500Y-52164000D03*
X405347500Y-52164000D03*
X407887500Y-52164000D03*
X410427500Y-52164000D03*
X412967500Y-52164000D03*
X415507500Y-24224000D03*
X400496100Y-52164000D03*
X415507500Y-26764000D03*
X415507500Y-29304000D03*
X415507500Y-31844000D03*
X415507500Y-34384000D03*
X415507500Y-36924000D03*
X415507500Y-39464000D03*
X415507500Y-42004000D03*
X415507500Y-44544000D03*
X415507500Y-47084000D03*
X415507500Y-49624000D03*
X415507500Y-52164000D03*
X400267500Y-49624000D03*
X400267500Y-47084000D03*
X400267500Y-44544000D03*
X400267500Y-42004000D03*
X400267500Y-39464000D03*
X400267500Y-36924000D03*
X400267500Y-34384000D03*
X400267500Y-31844000D03*
X400267500Y-29304000D03*
X400267500Y-26764000D03*
D14*
X400267500Y-24224000D03*
D19*
X213741000Y-105791000D03*
D20*
X208661000Y-105791000D03*
X218821000Y-105791000D03*
D23*
X201803000Y-98806000D03*
X225679000Y-98806000D03*
D19*
X201803000Y-114046000D03*
X225679000Y-114046000D03*
D15*
X220826000Y-108331000D03*
D16*
X213741000Y-105791000D03*
D17*
X208661000Y-105791000D03*
X218821000Y-105791000D03*
D15*
X207899000Y-110871000D03*
D18*
X217551000Y-108331000D03*
X211201000Y-110871000D03*
D12*
X152356000Y-100392000D03*
X152356000Y-101792000D03*
X146856000Y-100392000D03*
X146856000Y-101792000D03*
X95206000Y-100265000D03*
X95206000Y-101665000D03*
X89706000Y-100265000D03*
X89706000Y-101665000D03*
X119082000Y-100392000D03*
X119082000Y-101792000D03*
X113582000Y-100392000D03*
X113582000Y-101792000D03*
X71457000Y-100392000D03*
X71457000Y-101792000D03*
X65957000Y-100392000D03*
X65957000Y-101792000D03*
X47581000Y-100392000D03*
X47581000Y-101792000D03*
X42081000Y-100392000D03*
X42081000Y-101792000D03*
X216427500Y-100392000D03*
X216427500Y-101792000D03*
X210927500Y-100392000D03*
X210927500Y-101792000D03*
X145244000Y-81342000D03*
X145244000Y-82742000D03*
X139744000Y-81342000D03*
X139744000Y-82742000D03*
X107144000Y-81342000D03*
X107144000Y-82742000D03*
X101644000Y-81342000D03*
X101644000Y-82742000D03*
X88221000Y-81342000D03*
X88221000Y-82742000D03*
X82721000Y-81342000D03*
X82721000Y-82742000D03*
X275863500Y-81215000D03*
X275863500Y-82615000D03*
X270363500Y-81215000D03*
X270363500Y-82615000D03*
X256940500Y-81215000D03*
X256940500Y-82615000D03*
X251440500Y-81215000D03*
X251440500Y-82615000D03*
X218713500Y-81215000D03*
X218713500Y-82615000D03*
X213213500Y-81215000D03*
X213213500Y-82615000D03*
X154642000Y-62292000D03*
X154642000Y-63692000D03*
X149142000Y-62292000D03*
X149142000Y-63692000D03*
X135846000Y-62292000D03*
X135846000Y-63692000D03*
X130346000Y-62292000D03*
X130346000Y-63692000D03*
X116669000Y-62292000D03*
X116669000Y-63692000D03*
X111169000Y-62292000D03*
X111169000Y-63692000D03*
X97619000Y-62292000D03*
X97619000Y-63692000D03*
X92119000Y-62292000D03*
X92119000Y-63692000D03*
X78569000Y-62292000D03*
X78569000Y-63692000D03*
X73069000Y-62292000D03*
X73069000Y-63692000D03*
X52407000Y-62292000D03*
X52407000Y-63692000D03*
X46907000Y-62292000D03*
X46907000Y-63692000D03*
X149943000Y-43242000D03*
X149943000Y-44642000D03*
X144443000Y-43242000D03*
X144443000Y-44642000D03*
X131020000Y-43242000D03*
X131020000Y-44642000D03*
X125520000Y-43242000D03*
X125520000Y-44642000D03*
X111843000Y-43242000D03*
X111843000Y-44642000D03*
X106343000Y-43242000D03*
X106343000Y-44642000D03*
X92920000Y-43242000D03*
X92920000Y-44642000D03*
X87420000Y-43242000D03*
X87420000Y-44642000D03*
X73743000Y-43242000D03*
X73743000Y-44642000D03*
X68243000Y-43242000D03*
X68243000Y-44642000D03*
X49994000Y-43242000D03*
X49994000Y-44642000D03*
X44494000Y-43242000D03*
X44494000Y-44642000D03*
X280816500Y-43115000D03*
X280816500Y-44515000D03*
X275316500Y-43115000D03*
X275316500Y-44515000D03*
X261639500Y-43242000D03*
X261639500Y-44642000D03*
X256139500Y-43242000D03*
X256139500Y-44642000D03*
X242589500Y-43242000D03*
X242589500Y-44642000D03*
X237089500Y-43242000D03*
X237089500Y-44642000D03*
X223539500Y-43242000D03*
X223539500Y-44642000D03*
X218039500Y-43242000D03*
X218039500Y-44642000D03*
X140418000Y-24192000D03*
X140418000Y-25592000D03*
X134918000Y-24192000D03*
X134918000Y-25592000D03*
X121368000Y-24192000D03*
X121368000Y-25592000D03*
X115868000Y-24192000D03*
X115868000Y-25592000D03*
X102318000Y-24192000D03*
X102318000Y-25592000D03*
X96818000Y-24192000D03*
X96818000Y-25592000D03*
X83268000Y-24192000D03*
X83268000Y-25592000D03*
X77768000Y-24192000D03*
X77768000Y-25592000D03*
X318789500Y-24192000D03*
X318789500Y-25592000D03*
X313289500Y-24192000D03*
X313289500Y-25592000D03*
X290214500Y-24192000D03*
X290214500Y-25592000D03*
X284714500Y-24192000D03*
X284714500Y-25592000D03*
X271291500Y-24192000D03*
X271291500Y-25592000D03*
X265791500Y-24192000D03*
X265791500Y-25592000D03*
X252114500Y-24192000D03*
X252114500Y-25592000D03*
X246614500Y-24192000D03*
X246614500Y-25592000D03*
X214014500Y-24192000D03*
X214014500Y-25592000D03*
X208514500Y-24192000D03*
X208514500Y-25592000D03*
D19*
X251841000Y-105791000D03*
D20*
X246761000Y-105791000D03*
X256921000Y-105791000D03*
D15*
X258926000Y-108331000D03*
D16*
X251841000Y-105791000D03*
D17*
X246761000Y-105791000D03*
X256921000Y-105791000D03*
D15*
X245999000Y-110871000D03*
D18*
X255651000Y-108331000D03*
X249301000Y-110871000D03*
D15*
X111542500Y-89281000D03*
D16*
X104457500Y-86741000D03*
D17*
X99377500Y-86741000D03*
X109537500Y-86741000D03*
D15*
X98615500Y-91821000D03*
D18*
X108267500Y-89281000D03*
X101917500Y-91821000D03*
D15*
X92492500Y-89281000D03*
D16*
X85407500Y-86741000D03*
D17*
X80327500Y-86741000D03*
X90487500Y-86741000D03*
D15*
X79565500Y-91821000D03*
D18*
X89217500Y-89281000D03*
X82867500Y-91821000D03*
D15*
X242257250Y-89281000D03*
D16*
X235172250Y-86741000D03*
D17*
X230092250Y-86741000D03*
X240252250Y-86741000D03*
D15*
X229330250Y-91821000D03*
D18*
X238982250Y-89281000D03*
X232632250Y-91821000D03*
D15*
X232732250Y-70231000D03*
D16*
X225647250Y-67691000D03*
D17*
X220567250Y-67691000D03*
X230727250Y-67691000D03*
D15*
X219805250Y-72771000D03*
D18*
X229457250Y-70231000D03*
X223107250Y-72771000D03*
D15*
X213682250Y-70231000D03*
D16*
X206597250Y-67691000D03*
D17*
X201517250Y-67691000D03*
X211677250Y-67691000D03*
D15*
X200755250Y-72771000D03*
D18*
X210407250Y-70231000D03*
X204057250Y-72771000D03*
D15*
X304169750Y-51181000D03*
D16*
X297084750Y-48641000D03*
D17*
X292004750Y-48641000D03*
X302164750Y-48641000D03*
D15*
X291242750Y-53721000D03*
D18*
X300894750Y-51181000D03*
X294544750Y-53721000D03*
D15*
X266069750Y-51181000D03*
D16*
X258984750Y-48641000D03*
D17*
X253904750Y-48641000D03*
X264064750Y-48641000D03*
D15*
X253142750Y-53721000D03*
D18*
X262794750Y-51181000D03*
X256444750Y-53721000D03*
D15*
X144880000Y-32131000D03*
D16*
X137795000Y-29591000D03*
D17*
X132715000Y-29591000D03*
X142875000Y-29591000D03*
D15*
X131953000Y-34671000D03*
D18*
X141605000Y-32131000D03*
X135255000Y-34671000D03*
D15*
X125830000Y-32131000D03*
D16*
X118745000Y-29591000D03*
D17*
X113665000Y-29591000D03*
X123825000Y-29591000D03*
D15*
X112903000Y-34671000D03*
D18*
X122555000Y-32131000D03*
X116205000Y-34671000D03*
D15*
X256544750Y-32131000D03*
D16*
X249459750Y-29591000D03*
D17*
X244379750Y-29591000D03*
X254539750Y-29591000D03*
D15*
X243617750Y-34671000D03*
D18*
X253269750Y-32131000D03*
X246919750Y-34671000D03*
D15*
X218444750Y-32131000D03*
D16*
X211359750Y-29591000D03*
D17*
X206279750Y-29591000D03*
X216439750Y-29591000D03*
D15*
X205517750Y-34671000D03*
D18*
X215169750Y-32131000D03*
X208819750Y-34671000D03*
D21*
X84963000Y-107563000D03*
X84963000Y-104013000D03*
X60960000Y-107563000D03*
X60960000Y-104013000D03*
X206184500Y-107563000D03*
X206184500Y-104013000D03*
X134953500Y-88508000D03*
X134953500Y-84958000D03*
X96853500Y-88508000D03*
X96853500Y-84958000D03*
X265620500Y-88519000D03*
X265620500Y-84969000D03*
X246570500Y-88519000D03*
X246570500Y-84969000D03*
X227520500Y-88516000D03*
X227520500Y-84966000D03*
X208470500Y-88519000D03*
X208470500Y-84969000D03*
X144478500Y-69458000D03*
X144478500Y-65908000D03*
X42164000Y-69466000D03*
X42164000Y-65916000D03*
X39751000Y-50416000D03*
X39751000Y-46866000D03*
X289480750Y-50408000D03*
X289480750Y-46858000D03*
X111141000Y-31358000D03*
X111141000Y-27808000D03*
X92091000Y-31358000D03*
X92091000Y-27808000D03*
M02*
