M48
; DRILL file {KiCad (5.1.9)-1} date 02/17/21 22:07:50
; FORMAT={-:-/ absolute / inch / decimal}
; #@! TF.CreationDate,2021-02-17T22:07:50-08:00
; #@! TF.GenerationSoftware,Kicad,Pcbnew,(5.1.9)-1
; #@! TF.FileFunction,NonPlated,1,2,NPTH
FMAT,2
INCH
T1C0.0472
T2C0.0689
T3C0.0748
T4C0.1181
T5C0.1200
T6C0.1570
T7C0.1614
%
G90
G05
T1
X6.6954Y-0.8859
X6.6954Y-1.1615
X7.0525Y-0.8809
X7.0525Y-1.1565
T2
X1.5687Y-4.165
X1.7562Y-2.665
X1.9437Y-3.415
X1.9688Y-4.165
X2.1562Y-2.665
X2.3438Y-3.415
X2.5063Y-4.165
X2.9062Y-4.165
X3.4463Y-4.165
X3.8462Y-4.165
X4.3838Y-4.165
X4.7837Y-4.165
X5.6937Y-4.165
X6.0938Y-4.165
X8.215Y-4.165
X8.615Y-4.165
X9.715Y-4.165
X10.115Y-4.165
X10.6525Y-4.165
X11.0525Y-4.165
X11.59Y-4.165
X11.965Y-3.415
X11.99Y-4.165
X12.1525Y-2.665
X12.2462Y-1.165
X12.365Y-3.415
X12.5275Y-4.165
X12.5525Y-2.665
X12.6463Y-1.165
X12.9275Y-4.165
T3
X1.475Y-1.165
X1.5687Y-4.165
X1.6625Y-1.915
X1.7562Y-2.665
X1.875Y-1.165
X1.9437Y-3.415
X1.9688Y-4.165
X2.0625Y-1.915
X2.1562Y-2.665
X2.225Y-1.165
X2.3438Y-3.415
X2.5063Y-4.165
X2.6Y-1.915
X2.625Y-1.165
X2.7875Y-2.665
X2.9062Y-4.165
X2.975Y-1.165
X3.0Y-1.915
X3.1625Y-3.415
X3.1875Y-2.665
X3.35Y-1.915
X3.375Y-1.165
X3.4463Y-4.165
X3.5375Y-2.665
X3.5625Y-3.415
X3.725Y-1.165
X3.75Y-1.915
X3.8462Y-4.165
X3.9125Y-3.415
X3.9375Y-2.665
X4.1Y-1.915
X4.125Y-1.165
X4.2875Y-2.665
X4.3125Y-3.415
X4.3838Y-4.165
X4.475Y-1.165
X4.5Y-1.915
X4.6625Y-3.415
X4.6875Y-2.665
X4.7837Y-4.165
X4.85Y-1.915
X4.875Y-1.165
X5.0375Y-2.665
X5.0625Y-3.415
X5.225Y-1.165
X5.25Y-1.915
X5.4125Y-3.415
X5.4375Y-2.665
X5.6Y-1.915
X5.625Y-1.165
X5.6937Y-4.165
X5.7875Y-2.665
X5.8125Y-3.415
X5.975Y-1.165
X6.0Y-1.915
X6.0938Y-4.165
X6.1625Y-3.415
X6.1875Y-2.665
X6.375Y-1.165
X6.5625Y-3.415
X6.9962Y-1.915
X7.1837Y-2.665
X7.3712Y-1.165
X7.3963Y-1.915
X7.5587Y-3.415
X7.5838Y-2.665
X7.7462Y-1.915
X7.7713Y-1.165
X7.9337Y-2.665
X7.9588Y-3.415
X8.1212Y-1.165
X8.1463Y-1.915
X8.215Y-4.165
X8.3087Y-3.415
X8.3338Y-2.665
X8.4962Y-1.915
X8.5213Y-1.165
X8.615Y-4.165
X8.6837Y-2.665
X8.7088Y-3.415
X8.8712Y-1.165
X8.8963Y-1.915
X9.0587Y-3.415
X9.0838Y-2.665
X9.2462Y-1.915
X9.2713Y-1.165
X9.4337Y-2.665
X9.4588Y-3.415
X9.6212Y-1.165
X9.6463Y-1.915
X9.715Y-4.165
X9.8087Y-3.415
X9.8338Y-2.665
X9.9962Y-1.915
X10.0213Y-1.165
X10.115Y-4.165
X10.1837Y-2.665
X10.2088Y-3.415
X10.3712Y-1.165
X10.3963Y-1.915
X10.5587Y-3.415
X10.5838Y-2.665
X10.6525Y-4.165
X10.7462Y-1.915
X10.7713Y-1.165
X10.9337Y-2.665
X10.9588Y-3.415
X11.0525Y-4.165
X11.1212Y-1.165
X11.1463Y-1.915
X11.3338Y-2.665
X11.4962Y-1.915
X11.5213Y-1.165
X11.59Y-4.165
X11.8963Y-1.915
X11.965Y-3.415
X11.99Y-4.165
X12.1525Y-2.665
X12.2462Y-1.165
X12.365Y-3.415
X12.4337Y-1.915
X12.5275Y-4.165
X12.5525Y-2.665
X12.6463Y-1.165
X12.8338Y-1.915
X12.9275Y-4.165
X13.5587Y-1.165
X13.5587Y-1.915
X13.5587Y-4.165
X13.9587Y-1.165
X13.9587Y-1.915
X13.9587Y-4.165
X14.3075Y-3.415
X14.3075Y-4.165
X14.31Y-1.165
X14.31Y-1.915
X14.7075Y-3.415
X14.7075Y-4.165
X14.71Y-1.165
X14.71Y-1.915
X15.0575Y-4.165
X15.06Y-1.165
X15.06Y-1.915
X15.4575Y-4.165
X15.46Y-1.165
X15.46Y-1.915
T4
X1.575Y-1.365
X1.6687Y-4.365
X1.7625Y-2.115
X1.825Y-1.265
X1.8562Y-2.865
X1.9187Y-4.265
X2.0125Y-2.015
X2.0437Y-3.615
X2.1062Y-2.765
X2.2937Y-3.515
X2.325Y-1.365
X2.575Y-1.265
X2.6062Y-4.365
X2.7Y-2.115
X2.8562Y-4.265
X2.8875Y-2.865
X2.95Y-2.015
X3.075Y-1.365
X3.1375Y-2.765
X3.2625Y-3.615
X3.325Y-1.265
X3.45Y-2.115
X3.5125Y-3.515
X3.5463Y-4.365
X3.6375Y-2.865
X3.7Y-2.015
X3.7963Y-4.265
X3.825Y-1.365
X3.8875Y-2.765
X4.0125Y-3.615
X4.075Y-1.265
X4.2Y-2.115
X4.2625Y-3.515
X4.3875Y-2.865
X4.45Y-2.015
X4.4837Y-4.365
X4.575Y-1.365
X4.6375Y-2.765
X4.7337Y-4.265
X4.7625Y-3.615
X4.825Y-1.265
X4.95Y-2.115
X5.0125Y-3.515
X5.1375Y-2.865
X5.2Y-2.015
X5.325Y-1.365
X5.3875Y-2.765
X5.5125Y-3.615
X5.575Y-1.265
X5.7Y-2.115
X5.7625Y-3.515
X5.7938Y-4.365
X5.8875Y-2.865
X5.95Y-2.015
X6.0438Y-4.265
X6.075Y-1.365
X6.1375Y-2.765
X6.2625Y-3.615
X6.325Y-1.265
X6.5125Y-3.515
X7.0962Y-2.115
X7.2837Y-2.865
X7.3462Y-2.015
X7.4712Y-1.365
X7.5337Y-2.765
X7.6587Y-3.615
X7.7212Y-1.265
X7.8462Y-2.115
X7.9087Y-3.515
X8.0337Y-2.865
X8.0962Y-2.015
X8.2212Y-1.365
X8.2837Y-2.765
X8.315Y-4.365
X8.4087Y-3.615
X8.4712Y-1.265
X8.565Y-4.265
X8.5962Y-2.115
X8.6587Y-3.515
X8.7837Y-2.865
X8.8462Y-2.015
X8.9712Y-1.365
X9.0337Y-2.765
X9.1587Y-3.615
X9.2212Y-1.265
X9.3462Y-2.115
X9.4087Y-3.515
X9.5337Y-2.865
X9.5962Y-2.015
X9.7212Y-1.365
X9.7837Y-2.765
X9.815Y-4.365
X9.9087Y-3.615
X9.9712Y-1.265
X10.065Y-4.265
X10.0962Y-2.115
X10.1587Y-3.515
X10.2837Y-2.865
X10.3462Y-2.015
X10.4712Y-1.365
X10.5337Y-2.765
X10.6587Y-3.615
X10.7212Y-1.265
X10.7525Y-4.365
X10.8462Y-2.115
X10.9087Y-3.515
X11.0025Y-4.265
X11.0337Y-2.865
X11.0962Y-2.015
X11.2212Y-1.365
X11.2837Y-2.765
X11.4712Y-1.265
X11.5962Y-2.115
X11.69Y-4.365
X11.8462Y-2.015
X11.94Y-4.265
X12.065Y-3.615
X12.2525Y-2.865
X12.315Y-3.515
X12.3462Y-1.365
X12.5025Y-2.765
X12.5337Y-2.115
X12.5962Y-1.265
X12.6275Y-4.365
X12.7837Y-2.015
X12.8775Y-4.265
X13.6587Y-1.365
X13.6587Y-2.115
X13.6587Y-4.365
X13.9087Y-1.265
X13.9087Y-2.015
X13.9087Y-4.265
X14.4075Y-3.615
X14.4075Y-4.365
X14.41Y-1.365
X14.41Y-2.115
X14.6575Y-3.515
X14.6575Y-4.265
X14.66Y-1.265
X14.66Y-2.015
X15.1575Y-4.365
X15.16Y-1.365
X15.16Y-2.115
X15.4075Y-4.265
X15.41Y-1.265
X15.41Y-2.015
T5
X1.6738Y-3.14
X2.6138Y-3.14
X5.4238Y-3.89
X6.3637Y-3.89
X7.945Y-3.89
X8.885Y-3.89
X11.695Y-3.14
X11.8825Y-2.39
X11.9763Y-0.89
X12.635Y-3.14
X12.8225Y-2.39
X12.9162Y-0.89
T6
X1.6738Y-3.74
X1.7688Y-4.165
X1.9563Y-2.665
X2.1437Y-3.415
X2.6138Y-3.74
X2.7062Y-4.165
X3.6462Y-4.165
X4.5838Y-4.165
X5.4238Y-4.49
X5.8937Y-4.165
X6.3637Y-4.49
X7.945Y-4.49
X8.415Y-4.165
X8.885Y-4.49
X9.915Y-4.165
X10.8525Y-4.165
X11.695Y-3.74
X11.79Y-4.165
X11.8825Y-2.99
X11.9763Y-1.49
X12.165Y-3.415
X12.3525Y-2.665
X12.4462Y-1.165
X12.635Y-3.74
X12.7275Y-4.165
X12.8225Y-2.99
X12.9162Y-1.49
T7
X1.675Y-1.165
X1.7688Y-4.165
X1.8625Y-1.915
X1.9563Y-2.665
X2.1437Y-3.415
X2.425Y-1.165
X2.7062Y-4.165
X2.8Y-1.915
X2.9875Y-2.665
X3.175Y-1.165
X3.3625Y-3.415
X3.55Y-1.915
X3.6462Y-4.165
X3.7375Y-2.665
X3.925Y-1.165
X4.1125Y-3.415
X4.3Y-1.915
X4.4875Y-2.665
X4.5838Y-4.165
X4.675Y-1.165
X4.8625Y-3.415
X5.05Y-1.915
X5.2375Y-2.665
X5.425Y-1.165
X5.6125Y-3.415
X5.8Y-1.915
X5.8937Y-4.165
X5.9875Y-2.665
X6.175Y-1.165
X6.3625Y-3.415
X7.1963Y-1.915
X7.3838Y-2.665
X7.5713Y-1.165
X7.7588Y-3.415
X7.9463Y-1.915
X8.1337Y-2.665
X8.3212Y-1.165
X8.415Y-4.165
X8.5087Y-3.415
X8.6962Y-1.915
X8.8837Y-2.665
X9.0712Y-1.165
X9.2587Y-3.415
X9.4462Y-1.915
X9.6337Y-2.665
X9.8212Y-1.165
X9.915Y-4.165
X10.0087Y-3.415
X10.1962Y-1.915
X10.3837Y-2.665
X10.5712Y-1.165
X10.7587Y-3.415
X10.8525Y-4.165
X10.9462Y-1.915
X11.1337Y-2.665
X11.3212Y-1.165
X11.6962Y-1.915
X11.79Y-4.165
X12.165Y-3.415
X12.3525Y-2.665
X12.4462Y-1.165
X12.6337Y-1.915
X12.7275Y-4.165
X13.7587Y-1.165
X13.7587Y-1.915
X13.7587Y-4.165
X14.5075Y-3.415
X14.5075Y-4.165
X14.51Y-1.165
X14.51Y-1.915
X15.2575Y-4.165
X15.26Y-1.165
X15.26Y-1.915
T0
M30
