G04 #@! TF.GenerationSoftware,KiCad,Pcbnew,(5.1.9)-1*
G04 #@! TF.CreationDate,2021-02-17T22:07:48-08:00*
G04 #@! TF.ProjectId,onigaku,6f6e6967-616b-4752-9e6b-696361645f70,rev?*
G04 #@! TF.SameCoordinates,Original*
G04 #@! TF.FileFunction,Soldermask,Top*
G04 #@! TF.FilePolarity,Negative*
%FSLAX46Y46*%
G04 Gerber Fmt 4.6, Leading zero omitted, Abs format (unit mm)*
G04 Created by KiCad (PCBNEW (5.1.9)-1) date 2021-02-17 22:07:48*
%MOMM*%
%LPD*%
G01*
G04 APERTURE LIST*
%ADD10C,1.200000*%
%ADD11O,1.500000X2.300000*%
%ADD12R,1.700000X1.000000*%
%ADD13C,1.752600*%
%ADD14R,1.752600X1.752600*%
%ADD15C,4.100000*%
%ADD16C,1.900000*%
%ADD17C,3.000000*%
%ADD18C,3.987800*%
%ADD19C,1.750000*%
%ADD20C,3.048000*%
G04 APERTURE END LIST*
D10*
X170062000Y-22501000D03*
X170062000Y-29501000D03*
D11*
X172212000Y-24301000D03*
X172212000Y-27301000D03*
X172212000Y-31301000D03*
X167912000Y-32801000D03*
D10*
X179133500Y-22374000D03*
X179133500Y-29374000D03*
D11*
X181283500Y-24174000D03*
X181283500Y-27174000D03*
X181283500Y-31174000D03*
X176983500Y-32674000D03*
D12*
X19365000Y-58933000D03*
X25665000Y-58933000D03*
X19365000Y-62733000D03*
X25665000Y-62733000D03*
X410704500Y-62733000D03*
X404404500Y-62733000D03*
X410704500Y-58933000D03*
X404404500Y-58933000D03*
D13*
X17435000Y-52164000D03*
X19975000Y-52164000D03*
X22515000Y-52164000D03*
X25055000Y-52164000D03*
X27595000Y-52164000D03*
X30135000Y-24224000D03*
X15123600Y-52164000D03*
X30135000Y-26764000D03*
X30135000Y-29304000D03*
X30135000Y-31844000D03*
X30135000Y-34384000D03*
X30135000Y-36924000D03*
X30135000Y-39464000D03*
X30135000Y-42004000D03*
X30135000Y-44544000D03*
X30135000Y-47084000D03*
X30135000Y-49624000D03*
X30135000Y-52164000D03*
X14895000Y-49624000D03*
X14895000Y-47084000D03*
X14895000Y-44544000D03*
X14895000Y-42004000D03*
X14895000Y-39464000D03*
X14895000Y-36924000D03*
X14895000Y-34384000D03*
X14895000Y-31844000D03*
X14895000Y-29304000D03*
X14895000Y-26764000D03*
D14*
X14895000Y-24224000D03*
D15*
X123507500Y-86741000D03*
D16*
X118427500Y-86741000D03*
X128587500Y-86741000D03*
D17*
X127317500Y-89281000D03*
X120967500Y-91821000D03*
D18*
X49688750Y-67691000D03*
D19*
X54768750Y-67691000D03*
X44608750Y-67691000D03*
D15*
X49688750Y-67691000D03*
D16*
X44608750Y-67691000D03*
X54768750Y-67691000D03*
D17*
X53498750Y-70231000D03*
X47148750Y-72771000D03*
D15*
X47307500Y-48641000D03*
D16*
X42227500Y-48641000D03*
X52387500Y-48641000D03*
D17*
X51117500Y-51181000D03*
X44767500Y-53721000D03*
D15*
X387540500Y-105791000D03*
D16*
X382460500Y-105791000D03*
X392620500Y-105791000D03*
D17*
X391350500Y-108331000D03*
X385000500Y-110871000D03*
D15*
X368490500Y-105791000D03*
D16*
X363410500Y-105791000D03*
X373570500Y-105791000D03*
D17*
X372300500Y-108331000D03*
X365950500Y-110871000D03*
D15*
X349471500Y-105791000D03*
D16*
X344391500Y-105791000D03*
X354551500Y-105791000D03*
D17*
X353281500Y-108331000D03*
X346931500Y-110871000D03*
D15*
X368490500Y-86741000D03*
D16*
X363410500Y-86741000D03*
X373570500Y-86741000D03*
D17*
X372300500Y-89281000D03*
X365950500Y-91821000D03*
D15*
X387604000Y-48641000D03*
D16*
X382524000Y-48641000D03*
X392684000Y-48641000D03*
D17*
X391414000Y-51181000D03*
X385064000Y-53721000D03*
D15*
X368554000Y-48641000D03*
D16*
X363474000Y-48641000D03*
X373634000Y-48641000D03*
D17*
X372364000Y-51181000D03*
X366014000Y-53721000D03*
D15*
X349471500Y-48641000D03*
D16*
X344391500Y-48641000D03*
X354551500Y-48641000D03*
D17*
X353281500Y-51181000D03*
X346931500Y-53721000D03*
D15*
X387604000Y-29591000D03*
D16*
X382524000Y-29591000D03*
X392684000Y-29591000D03*
D17*
X391414000Y-32131000D03*
X385064000Y-34671000D03*
D15*
X368554000Y-29591000D03*
D16*
X363474000Y-29591000D03*
X373634000Y-29591000D03*
D17*
X372364000Y-32131000D03*
X366014000Y-34671000D03*
D15*
X349471500Y-29591000D03*
D16*
X344391500Y-29591000D03*
X354551500Y-29591000D03*
D17*
X353281500Y-32131000D03*
X346931500Y-34671000D03*
D15*
X113982500Y-67691000D03*
D16*
X108902500Y-67691000D03*
X119062500Y-67691000D03*
D17*
X117792500Y-70231000D03*
X111442500Y-72771000D03*
D18*
X54451250Y-86741000D03*
D19*
X49371250Y-86741000D03*
X59531250Y-86741000D03*
D20*
X42513250Y-79756000D03*
X66389250Y-79756000D03*
D18*
X42513250Y-94996000D03*
X66389250Y-94996000D03*
D15*
X54451250Y-86741000D03*
D16*
X49371250Y-86741000D03*
X59531250Y-86741000D03*
D17*
X58261250Y-89281000D03*
X51911250Y-91821000D03*
D15*
X42545000Y-29591000D03*
D16*
X37465000Y-29591000D03*
X47625000Y-29591000D03*
D17*
X46355000Y-32131000D03*
X40005000Y-34671000D03*
D18*
X275653500Y-105791000D03*
D19*
X270573500Y-105791000D03*
X280733500Y-105791000D03*
D15*
X275653500Y-105791000D03*
D16*
X270573500Y-105791000D03*
X280733500Y-105791000D03*
D17*
X279463500Y-108331000D03*
X273113500Y-110871000D03*
D15*
X263747250Y-67691000D03*
D16*
X258667250Y-67691000D03*
X268827250Y-67691000D03*
D17*
X267557250Y-70231000D03*
X261207250Y-72771000D03*
D15*
X192309750Y-29591000D03*
D16*
X187229750Y-29591000D03*
X197389750Y-29591000D03*
D17*
X196119750Y-32131000D03*
X189769750Y-34671000D03*
D18*
X316134750Y-29591000D03*
D19*
X311054750Y-29591000D03*
X321214750Y-29591000D03*
D20*
X304196750Y-22606000D03*
X328072750Y-22606000D03*
D18*
X304196750Y-37846000D03*
X328072750Y-37846000D03*
D15*
X316134750Y-29591000D03*
D16*
X311054750Y-29591000D03*
X321214750Y-29591000D03*
D17*
X319944750Y-32131000D03*
X313594750Y-34671000D03*
D18*
X313753500Y-67691000D03*
D19*
X308673500Y-67691000D03*
X318833500Y-67691000D03*
D20*
X301815500Y-60706000D03*
X325691500Y-60706000D03*
D18*
X301815500Y-75946000D03*
X325691500Y-75946000D03*
D15*
X313753500Y-67691000D03*
D16*
X308673500Y-67691000D03*
X318833500Y-67691000D03*
D17*
X317563500Y-70231000D03*
X311213500Y-72771000D03*
D15*
X320897250Y-48641000D03*
D16*
X315817250Y-48641000D03*
X325977250Y-48641000D03*
D17*
X324707250Y-51181000D03*
X318357250Y-53721000D03*
D18*
X149701250Y-105791000D03*
D19*
X144621250Y-105791000D03*
X154781250Y-105791000D03*
D20*
X137763250Y-98806000D03*
X161639250Y-98806000D03*
D18*
X137763250Y-114046000D03*
X161639250Y-114046000D03*
D15*
X149701250Y-105791000D03*
D16*
X144621250Y-105791000D03*
X154781250Y-105791000D03*
D17*
X153511250Y-108331000D03*
X147161250Y-110871000D03*
D18*
X116427250Y-105791000D03*
D19*
X111347250Y-105791000D03*
X121507250Y-105791000D03*
D15*
X116427250Y-105791000D03*
D16*
X111347250Y-105791000D03*
X121507250Y-105791000D03*
D17*
X120237250Y-108331000D03*
X113887250Y-110871000D03*
D18*
X92614750Y-105791000D03*
D19*
X87534750Y-105791000D03*
X97694750Y-105791000D03*
D15*
X92614750Y-105791000D03*
D16*
X87534750Y-105791000D03*
X97694750Y-105791000D03*
D17*
X96424750Y-108331000D03*
X90074750Y-110871000D03*
D18*
X68738750Y-105791000D03*
D19*
X63658750Y-105791000D03*
X73818750Y-105791000D03*
D15*
X68738750Y-105791000D03*
D16*
X63658750Y-105791000D03*
X73818750Y-105791000D03*
D17*
X72548750Y-108331000D03*
X66198750Y-110871000D03*
D18*
X44926250Y-105791000D03*
D19*
X39846250Y-105791000D03*
X50006250Y-105791000D03*
D15*
X44926250Y-105791000D03*
D16*
X39846250Y-105791000D03*
X50006250Y-105791000D03*
D17*
X48736250Y-108331000D03*
X42386250Y-110871000D03*
D18*
X323278500Y-105791000D03*
D19*
X318198500Y-105791000D03*
X328358500Y-105791000D03*
D15*
X323278500Y-105791000D03*
D16*
X318198500Y-105791000D03*
X328358500Y-105791000D03*
D17*
X327088500Y-108331000D03*
X320738500Y-110871000D03*
D18*
X299466000Y-105791000D03*
D19*
X294386000Y-105791000D03*
X304546000Y-105791000D03*
D15*
X299466000Y-105791000D03*
D16*
X294386000Y-105791000D03*
X304546000Y-105791000D03*
D17*
X303276000Y-108331000D03*
X296926000Y-110871000D03*
D15*
X161607500Y-86741000D03*
D16*
X156527500Y-86741000D03*
X166687500Y-86741000D03*
D17*
X165417500Y-89281000D03*
X159067500Y-91821000D03*
D15*
X142557500Y-86741000D03*
D16*
X137477500Y-86741000D03*
X147637500Y-86741000D03*
D17*
X146367500Y-89281000D03*
X140017500Y-91821000D03*
D15*
X273272250Y-86741000D03*
D16*
X268192250Y-86741000D03*
X278352250Y-86741000D03*
D17*
X277082250Y-89281000D03*
X270732250Y-91821000D03*
D15*
X254222250Y-86741000D03*
D16*
X249142250Y-86741000D03*
X259302250Y-86741000D03*
D17*
X258032250Y-89281000D03*
X251682250Y-91821000D03*
D15*
X216122250Y-86741000D03*
D16*
X211042250Y-86741000D03*
X221202250Y-86741000D03*
D17*
X219932250Y-89281000D03*
X213582250Y-91821000D03*
D15*
X197072250Y-86741000D03*
D16*
X191992250Y-86741000D03*
X202152250Y-86741000D03*
D17*
X200882250Y-89281000D03*
X194532250Y-91821000D03*
D15*
X152082500Y-67691000D03*
D16*
X147002500Y-67691000D03*
X157162500Y-67691000D03*
D17*
X155892500Y-70231000D03*
X149542500Y-72771000D03*
D15*
X133032500Y-67691000D03*
D16*
X127952500Y-67691000D03*
X138112500Y-67691000D03*
D17*
X136842500Y-70231000D03*
X130492500Y-72771000D03*
D15*
X94932500Y-67691000D03*
D16*
X89852500Y-67691000D03*
X100012500Y-67691000D03*
D17*
X98742500Y-70231000D03*
X92392500Y-72771000D03*
D15*
X75882500Y-67691000D03*
D16*
X70802500Y-67691000D03*
X80962500Y-67691000D03*
D17*
X79692500Y-70231000D03*
X73342500Y-72771000D03*
D15*
X282797250Y-67691000D03*
D16*
X277717250Y-67691000D03*
X287877250Y-67691000D03*
D17*
X286607250Y-70231000D03*
X280257250Y-72771000D03*
D15*
X244697250Y-67691000D03*
D16*
X239617250Y-67691000D03*
X249777250Y-67691000D03*
D17*
X248507250Y-70231000D03*
X242157250Y-72771000D03*
D15*
X187547250Y-67691000D03*
D16*
X182467250Y-67691000D03*
X192627250Y-67691000D03*
D17*
X191357250Y-70231000D03*
X185007250Y-72771000D03*
D15*
X147320000Y-48641000D03*
D16*
X142240000Y-48641000D03*
X152400000Y-48641000D03*
D17*
X151130000Y-51181000D03*
X144780000Y-53721000D03*
D15*
X128270000Y-48641000D03*
D16*
X123190000Y-48641000D03*
X133350000Y-48641000D03*
D17*
X132080000Y-51181000D03*
X125730000Y-53721000D03*
D15*
X109220000Y-48641000D03*
D16*
X104140000Y-48641000D03*
X114300000Y-48641000D03*
D17*
X113030000Y-51181000D03*
X106680000Y-53721000D03*
D15*
X90170000Y-48641000D03*
D16*
X85090000Y-48641000D03*
X95250000Y-48641000D03*
D17*
X93980000Y-51181000D03*
X87630000Y-53721000D03*
D15*
X71120000Y-48641000D03*
D16*
X66040000Y-48641000D03*
X76200000Y-48641000D03*
D17*
X74930000Y-51181000D03*
X68580000Y-53721000D03*
D15*
X278034750Y-48641000D03*
D16*
X272954750Y-48641000D03*
X283114750Y-48641000D03*
D17*
X281844750Y-51181000D03*
X275494750Y-53721000D03*
D15*
X239934750Y-48641000D03*
D16*
X234854750Y-48641000D03*
X245014750Y-48641000D03*
D17*
X243744750Y-51181000D03*
X237394750Y-53721000D03*
D15*
X220884750Y-48641000D03*
D16*
X215804750Y-48641000D03*
X225964750Y-48641000D03*
D17*
X224694750Y-51181000D03*
X218344750Y-53721000D03*
D15*
X201834750Y-48641000D03*
D16*
X196754750Y-48641000D03*
X206914750Y-48641000D03*
D17*
X205644750Y-51181000D03*
X199294750Y-53721000D03*
D15*
X182784750Y-48641000D03*
D16*
X177704750Y-48641000D03*
X187864750Y-48641000D03*
D17*
X186594750Y-51181000D03*
X180244750Y-53721000D03*
D15*
X99695000Y-29591000D03*
D16*
X94615000Y-29591000D03*
X104775000Y-29591000D03*
D17*
X103505000Y-32131000D03*
X97155000Y-34671000D03*
D15*
X80645000Y-29591000D03*
D16*
X75565000Y-29591000D03*
X85725000Y-29591000D03*
D17*
X84455000Y-32131000D03*
X78105000Y-34671000D03*
D15*
X61595000Y-29591000D03*
D16*
X56515000Y-29591000D03*
X66675000Y-29591000D03*
D17*
X65405000Y-32131000D03*
X59055000Y-34671000D03*
D15*
X287559750Y-29591000D03*
D16*
X282479750Y-29591000D03*
X292639750Y-29591000D03*
D17*
X291369750Y-32131000D03*
X285019750Y-34671000D03*
D15*
X268509750Y-29591000D03*
D16*
X263429750Y-29591000D03*
X273589750Y-29591000D03*
D17*
X272319750Y-32131000D03*
X265969750Y-34671000D03*
D15*
X230409750Y-29591000D03*
D16*
X225329750Y-29591000D03*
X235489750Y-29591000D03*
D17*
X234219750Y-32131000D03*
X227869750Y-34671000D03*
D15*
X156845000Y-29591000D03*
D16*
X151765000Y-29591000D03*
X161925000Y-29591000D03*
D17*
X160655000Y-32131000D03*
X154305000Y-34671000D03*
D18*
X308991000Y-86741000D03*
D19*
X303911000Y-86741000D03*
X314071000Y-86741000D03*
D20*
X297053000Y-79756000D03*
X320929000Y-79756000D03*
D18*
X297053000Y-94996000D03*
X320929000Y-94996000D03*
D15*
X308991000Y-86741000D03*
D16*
X303911000Y-86741000D03*
X314071000Y-86741000D03*
D17*
X312801000Y-89281000D03*
X306451000Y-91821000D03*
D13*
X402807500Y-52164000D03*
X405347500Y-52164000D03*
X407887500Y-52164000D03*
X410427500Y-52164000D03*
X412967500Y-52164000D03*
X415507500Y-24224000D03*
X400496100Y-52164000D03*
X415507500Y-26764000D03*
X415507500Y-29304000D03*
X415507500Y-31844000D03*
X415507500Y-34384000D03*
X415507500Y-36924000D03*
X415507500Y-39464000D03*
X415507500Y-42004000D03*
X415507500Y-44544000D03*
X415507500Y-47084000D03*
X415507500Y-49624000D03*
X415507500Y-52164000D03*
X400267500Y-49624000D03*
X400267500Y-47084000D03*
X400267500Y-44544000D03*
X400267500Y-42004000D03*
X400267500Y-39464000D03*
X400267500Y-36924000D03*
X400267500Y-34384000D03*
X400267500Y-31844000D03*
X400267500Y-29304000D03*
X400267500Y-26764000D03*
D14*
X400267500Y-24224000D03*
D18*
X213741000Y-105791000D03*
D19*
X208661000Y-105791000D03*
X218821000Y-105791000D03*
D20*
X201803000Y-98806000D03*
X225679000Y-98806000D03*
D18*
X201803000Y-114046000D03*
X225679000Y-114046000D03*
D15*
X213741000Y-105791000D03*
D16*
X208661000Y-105791000D03*
X218821000Y-105791000D03*
D17*
X217551000Y-108331000D03*
X211201000Y-110871000D03*
D18*
X251841000Y-105791000D03*
D19*
X246761000Y-105791000D03*
X256921000Y-105791000D03*
D15*
X251841000Y-105791000D03*
D16*
X246761000Y-105791000D03*
X256921000Y-105791000D03*
D17*
X255651000Y-108331000D03*
X249301000Y-110871000D03*
D15*
X104457500Y-86741000D03*
D16*
X99377500Y-86741000D03*
X109537500Y-86741000D03*
D17*
X108267500Y-89281000D03*
X101917500Y-91821000D03*
D15*
X85407500Y-86741000D03*
D16*
X80327500Y-86741000D03*
X90487500Y-86741000D03*
D17*
X89217500Y-89281000D03*
X82867500Y-91821000D03*
D15*
X235172250Y-86741000D03*
D16*
X230092250Y-86741000D03*
X240252250Y-86741000D03*
D17*
X238982250Y-89281000D03*
X232632250Y-91821000D03*
D15*
X225647250Y-67691000D03*
D16*
X220567250Y-67691000D03*
X230727250Y-67691000D03*
D17*
X229457250Y-70231000D03*
X223107250Y-72771000D03*
D15*
X206597250Y-67691000D03*
D16*
X201517250Y-67691000D03*
X211677250Y-67691000D03*
D17*
X210407250Y-70231000D03*
X204057250Y-72771000D03*
D15*
X297084750Y-48641000D03*
D16*
X292004750Y-48641000D03*
X302164750Y-48641000D03*
D17*
X300894750Y-51181000D03*
X294544750Y-53721000D03*
D15*
X258984750Y-48641000D03*
D16*
X253904750Y-48641000D03*
X264064750Y-48641000D03*
D17*
X262794750Y-51181000D03*
X256444750Y-53721000D03*
D15*
X137795000Y-29591000D03*
D16*
X132715000Y-29591000D03*
X142875000Y-29591000D03*
D17*
X141605000Y-32131000D03*
X135255000Y-34671000D03*
D15*
X118745000Y-29591000D03*
D16*
X113665000Y-29591000D03*
X123825000Y-29591000D03*
D17*
X122555000Y-32131000D03*
X116205000Y-34671000D03*
D15*
X249459750Y-29591000D03*
D16*
X244379750Y-29591000D03*
X254539750Y-29591000D03*
D17*
X253269750Y-32131000D03*
X246919750Y-34671000D03*
D15*
X211359750Y-29591000D03*
D16*
X206279750Y-29591000D03*
X216439750Y-29591000D03*
D17*
X215169750Y-32131000D03*
X208819750Y-34671000D03*
M02*
