  0
SECTION
  2
HEADER
  9
$ACADVER
  1
AC1009
  9
$EXTMIN
 10
0.0
 20
0.0
 30
0.0
  9
$EXTMAX
 10
1000.0
 20
1000.0
 30
0.0
  9
$FILLMODE
 70
 0
  9
$SPLFRAME
 70
 1
  0
ENDSEC
  0
SECTION
  2
TABLES
  0
TABLE
  2
LAYER
 70
1
  0
LAYER
  2
0
 70
     0
 62
     7
  6
CONTINUOUS
  0
ENDTAB
  0
ENDSEC
  0
SECTION
  2
ENTITIES
  0
LINE
  8
0
 62
     0
 10
0.0950846
 20
95.5075
 30
0.0
 11
138.208
 21
95.5075
 31
0.0
  0
LINE
  8
0
 62
     0
 10
138.208
 20
95.5075
 30
0.0
 11
138.208
 21
0.257693
 31
0.0
  0
LINE
  8
0
 62
     0
 10
138.208
 20
0.257693
 30
0.0
 11
0.0950846
 21
0.257693
 31
0.0
  0
LINE
  8
0
 62
     0
 10
0.0950846
 20
0.257693
 30
0.0
 11
0.0950846
 21
95.5075
 31
0.0
  0
LINE
  8
0
 62
     0
 10
109.776
 20
16.7831
 30
0.0
 11
109.776
 21
15.7827
 31
0.0
  0
LINE
  8
0
 62
     0
 10
109.776
 20
15.7827
 30
0.0
 11
108.975
 21
15.7827
 31
0.0
  0
LINE
  8
0
 62
     0
 10
108.975
 20
15.7827
 30
0.0
 11
108.975
 21
12.6848
 31
0.0
  0
LINE
  8
0
 62
     0
 10
108.975
 20
12.6848
 30
0.0
 11
109.776
 21
12.6848
 31
0.0
  0
LINE
  8
0
 62
     0
 10
109.776
 20
12.6848
 30
0.0
 11
109.776
 21
12.0826
 31
0.0
  0
LINE
  8
0
 62
     0
 10
109.776
 20
12.0826
 30
0.0
 11
108.251
 21
12.0826
 31
0.0
  0
LINE
  8
0
 62
     0
 10
108.251
 20
12.0826
 30
0.0
 11
108.251
 21
15.3128
 31
0.0
  0
LINE
  8
0
 62
     0
 10
108.251
 20
15.3128
 30
0.0
 11
106.525
 21
15.3128
 31
0.0
  0
LINE
  8
0
 62
     0
 10
106.525
 20
15.3128
 30
0.0
 11
106.525
 21
16.2347
 31
0.0
  0
LINE
  8
0
 62
     0
 10
106.525
 20
16.2347
 30
0.0
 11
103.226
 21
16.2347
 31
0.0
  0
LINE
  8
0
 62
     0
 10
103.226
 20
16.2347
 30
0.0
 11
103.226
 21
15.3128
 31
0.0
  0
LINE
  8
0
 62
     0
 10
103.226
 20
15.3128
 30
0.0
 11
101.501
 21
15.3128
 31
0.0
  0
LINE
  8
0
 62
     0
 10
101.501
 20
15.3128
 30
0.0
 11
101.501
 21
12.0826
 31
0.0
  0
LINE
  8
0
 62
     0
 10
101.501
 20
12.0826
 30
0.0
 11
100.675
 21
12.0826
 31
0.0
  0
LINE
  8
0
 62
     0
 10
100.675
 20
12.0826
 30
0.0
 11
100.675
 21
9.28384
 31
0.0
  0
LINE
  8
0
 62
     0
 10
100.675
 20
9.28384
 30
0.0
 11
101.501
 21
9.28384
 31
0.0
  0
LINE
  8
0
 62
     0
 10
101.501
 20
9.28384
 30
0.0
 11
101.501
 21
3.01377
 31
0.0
  0
LINE
  8
0
 62
     0
 10
101.501
 20
3.01377
 30
0.0
 11
103.226
 21
3.01377
 31
0.0
  0
LINE
  8
0
 62
     0
 10
103.226
 20
3.01377
 30
0.0
 11
103.226
 21
2.03261
 31
0.0
  0
LINE
  8
0
 62
     0
 10
103.226
 20
2.03261
 30
0.0
 11
106.525
 21
2.03261
 31
0.0
  0
LINE
  8
0
 62
     0
 10
106.525
 20
2.03261
 30
0.0
 11
106.525
 21
3.01377
 31
0.0
  0
LINE
  8
0
 62
     0
 10
106.525
 20
3.01377
 30
0.0
 11
108.251
 21
3.01377
 31
0.0
  0
LINE
  8
0
 62
     0
 10
108.251
 20
3.01377
 30
0.0
 11
108.251
 21
7.48411
 31
0.0
  0
LINE
  8
0
 62
     0
 10
108.251
 20
7.48411
 30
0.0
 11
109.776
 21
7.48411
 31
0.0
  0
LINE
  8
0
 62
     0
 10
109.776
 20
7.48411
 30
0.0
 11
109.776
 21
6.88329
 31
0.0
  0
LINE
  8
0
 62
     0
 10
109.776
 20
6.88329
 30
0.0
 11
108.975
 21
6.88329
 31
0.0
  0
LINE
  8
0
 62
     0
 10
108.975
 20
6.88329
 30
0.0
 11
108.975
 21
3.78273
 31
0.0
  0
LINE
  8
0
 62
     0
 10
108.975
 20
3.78273
 30
0.0
 11
109.776
 21
3.78273
 31
0.0
  0
LINE
  8
0
 62
     0
 10
109.776
 20
3.78273
 30
0.0
 11
109.776
 21
2.78364
 31
0.0
  0
LINE
  8
0
 62
     0
 10
109.776
 20
2.78364
 30
0.0
 11
123.775
 21
2.78364
 31
0.0
  0
LINE
  8
0
 62
     0
 10
123.775
 20
2.78364
 30
0.0
 11
123.775
 21
3.78273
 31
0.0
  0
LINE
  8
0
 62
     0
 10
123.775
 20
3.78273
 30
0.0
 11
124.576
 21
3.78273
 31
0.0
  0
LINE
  8
0
 62
     0
 10
124.576
 20
3.78273
 30
0.0
 11
124.576
 21
6.88329
 31
0.0
  0
LINE
  8
0
 62
     0
 10
124.576
 20
6.88329
 30
0.0
 11
123.775
 21
6.88329
 31
0.0
  0
LINE
  8
0
 62
     0
 10
123.775
 20
6.88329
 30
0.0
 11
123.775
 21
7.48411
 31
0.0
  0
LINE
  8
0
 62
     0
 10
123.775
 20
7.48411
 30
0.0
 11
125.3
 21
7.48411
 31
0.0
  0
LINE
  8
0
 62
     0
 10
125.3
 20
7.48411
 30
0.0
 11
125.3
 21
3.01377
 31
0.0
  0
LINE
  8
0
 62
     0
 10
125.3
 20
3.01377
 30
0.0
 11
127.025
 21
3.01377
 31
0.0
  0
LINE
  8
0
 62
     0
 10
127.025
 20
3.01377
 30
0.0
 11
127.025
 21
2.03261
 31
0.0
  0
LINE
  8
0
 62
     0
 10
127.025
 20
2.03261
 30
0.0
 11
130.325
 21
2.03261
 31
0.0
  0
LINE
  8
0
 62
     0
 10
130.325
 20
2.03261
 30
0.0
 11
130.325
 21
3.01377
 31
0.0
  0
LINE
  8
0
 62
     0
 10
130.325
 20
3.01377
 30
0.0
 11
132.05
 21
3.01377
 31
0.0
  0
LINE
  8
0
 62
     0
 10
132.05
 20
3.01377
 30
0.0
 11
132.05
 21
9.28384
 31
0.0
  0
LINE
  8
0
 62
     0
 10
132.05
 20
9.28384
 30
0.0
 11
132.876
 21
9.28384
 31
0.0
  0
LINE
  8
0
 62
     0
 10
132.876
 20
9.28384
 30
0.0
 11
132.876
 21
12.0826
 31
0.0
  0
LINE
  8
0
 62
     0
 10
132.876
 20
12.0826
 30
0.0
 11
132.05
 21
12.0826
 31
0.0
  0
LINE
  8
0
 62
     0
 10
132.05
 20
12.0826
 30
0.0
 11
132.05
 21
15.3128
 31
0.0
  0
LINE
  8
0
 62
     0
 10
132.05
 20
15.3128
 30
0.0
 11
130.325
 21
15.3128
 31
0.0
  0
LINE
  8
0
 62
     0
 10
130.325
 20
15.3128
 30
0.0
 11
130.325
 21
16.2347
 31
0.0
  0
LINE
  8
0
 62
     0
 10
130.325
 20
16.2347
 30
0.0
 11
127.025
 21
16.2347
 31
0.0
  0
LINE
  8
0
 62
     0
 10
127.025
 20
16.2347
 30
0.0
 11
127.025
 21
15.3128
 31
0.0
  0
LINE
  8
0
 62
     0
 10
127.025
 20
15.3128
 30
0.0
 11
125.3
 21
15.3128
 31
0.0
  0
LINE
  8
0
 62
     0
 10
125.3
 20
15.3128
 30
0.0
 11
125.3
 21
12.0826
 31
0.0
  0
LINE
  8
0
 62
     0
 10
125.3
 20
12.0826
 30
0.0
 11
123.775
 21
12.0826
 31
0.0
  0
LINE
  8
0
 62
     0
 10
123.775
 20
12.0826
 30
0.0
 11
123.775
 21
12.6848
 31
0.0
  0
LINE
  8
0
 62
     0
 10
123.775
 20
12.6848
 30
0.0
 11
124.576
 21
12.6848
 31
0.0
  0
LINE
  8
0
 62
     0
 10
124.576
 20
12.6848
 30
0.0
 11
124.576
 21
15.7827
 31
0.0
  0
LINE
  8
0
 62
     0
 10
124.576
 20
15.7827
 30
0.0
 11
123.775
 21
15.7827
 31
0.0
  0
LINE
  8
0
 62
     0
 10
123.775
 20
15.7827
 30
0.0
 11
123.775
 21
16.7831
 31
0.0
  0
LINE
  8
0
 62
     0
 10
123.775
 20
16.7831
 30
0.0
 11
109.776
 21
16.7831
 31
0.0
  0
LINE
  8
0
 62
     0
 10
76.4371
 20
16.7831
 30
0.0
 11
76.4371
 21
15.7827
 31
0.0
  0
LINE
  8
0
 62
     0
 10
76.4371
 20
15.7827
 30
0.0
 11
75.6377
 21
15.7827
 31
0.0
  0
LINE
  8
0
 62
     0
 10
75.6377
 20
15.7827
 30
0.0
 11
75.6377
 21
12.6848
 31
0.0
  0
LINE
  8
0
 62
     0
 10
75.6377
 20
12.6848
 30
0.0
 11
76.4371
 21
12.6848
 31
0.0
  0
LINE
  8
0
 62
     0
 10
76.4371
 20
12.6848
 30
0.0
 11
76.4371
 21
6.88329
 31
0.0
  0
LINE
  8
0
 62
     0
 10
76.4371
 20
6.88329
 30
0.0
 11
75.6377
 21
6.88329
 31
0.0
  0
LINE
  8
0
 62
     0
 10
75.6377
 20
6.88329
 30
0.0
 11
75.6377
 21
3.78273
 31
0.0
  0
LINE
  8
0
 62
     0
 10
75.6377
 20
3.78273
 30
0.0
 11
76.4371
 21
3.78273
 31
0.0
  0
LINE
  8
0
 62
     0
 10
76.4371
 20
3.78273
 30
0.0
 11
76.4371
 21
2.78364
 31
0.0
  0
LINE
  8
0
 62
     0
 10
76.4371
 20
2.78364
 30
0.0
 11
90.4378
 21
2.78364
 31
0.0
  0
LINE
  8
0
 62
     0
 10
90.4378
 20
2.78364
 30
0.0
 11
90.4378
 21
3.78273
 31
0.0
  0
LINE
  8
0
 62
     0
 10
90.4378
 20
3.78273
 30
0.0
 11
91.2372
 21
3.78273
 31
0.0
  0
LINE
  8
0
 62
     0
 10
91.2372
 20
3.78273
 30
0.0
 11
91.2372
 21
6.88329
 31
0.0
  0
LINE
  8
0
 62
     0
 10
91.2372
 20
6.88329
 30
0.0
 11
90.4378
 21
6.88329
 31
0.0
  0
LINE
  8
0
 62
     0
 10
90.4378
 20
6.88329
 30
0.0
 11
90.4378
 21
12.6848
 31
0.0
  0
LINE
  8
0
 62
     0
 10
90.4378
 20
12.6848
 30
0.0
 11
91.2372
 21
12.6848
 31
0.0
  0
LINE
  8
0
 62
     0
 10
91.2372
 20
12.6848
 30
0.0
 11
91.2372
 21
15.7827
 31
0.0
  0
LINE
  8
0
 62
     0
 10
91.2372
 20
15.7827
 30
0.0
 11
90.4378
 21
15.7827
 31
0.0
  0
LINE
  8
0
 62
     0
 10
90.4378
 20
15.7827
 30
0.0
 11
90.4378
 21
16.7831
 31
0.0
  0
LINE
  8
0
 62
     0
 10
90.4378
 20
16.7831
 30
0.0
 11
76.4371
 21
16.7831
 31
0.0
  0
LINE
  8
0
 62
     0
 10
52.626
 20
16.7831
 30
0.0
 11
52.626
 21
15.7827
 31
0.0
  0
LINE
  8
0
 62
     0
 10
52.626
 20
15.7827
 30
0.0
 11
51.8252
 21
15.7827
 31
0.0
  0
LINE
  8
0
 62
     0
 10
51.8252
 20
15.7827
 30
0.0
 11
51.8252
 21
12.6848
 31
0.0
  0
LINE
  8
0
 62
     0
 10
51.8252
 20
12.6848
 30
0.0
 11
52.626
 21
12.6848
 31
0.0
  0
LINE
  8
0
 62
     0
 10
52.626
 20
12.6848
 30
0.0
 11
52.626
 21
6.88329
 31
0.0
  0
LINE
  8
0
 62
     0
 10
52.626
 20
6.88329
 30
0.0
 11
51.8252
 21
6.88329
 31
0.0
  0
LINE
  8
0
 62
     0
 10
51.8252
 20
6.88329
 30
0.0
 11
51.8252
 21
3.78273
 31
0.0
  0
LINE
  8
0
 62
     0
 10
51.8252
 20
3.78273
 30
0.0
 11
52.626
 21
3.78273
 31
0.0
  0
LINE
  8
0
 62
     0
 10
52.626
 20
3.78273
 30
0.0
 11
52.626
 21
2.78364
 31
0.0
  0
LINE
  8
0
 62
     0
 10
52.626
 20
2.78364
 30
0.0
 11
66.6253
 21
2.78364
 31
0.0
  0
LINE
  8
0
 62
     0
 10
66.6253
 20
2.78364
 30
0.0
 11
66.6253
 21
3.78273
 31
0.0
  0
LINE
  8
0
 62
     0
 10
66.6253
 20
3.78273
 30
0.0
 11
67.4261
 21
3.78273
 31
0.0
  0
LINE
  8
0
 62
     0
 10
67.4261
 20
3.78273
 30
0.0
 11
67.4261
 21
6.88329
 31
0.0
  0
LINE
  8
0
 62
     0
 10
67.4261
 20
6.88329
 30
0.0
 11
66.6253
 21
6.88329
 31
0.0
  0
LINE
  8
0
 62
     0
 10
66.6253
 20
6.88329
 30
0.0
 11
66.6253
 21
12.6848
 31
0.0
  0
LINE
  8
0
 62
     0
 10
66.6253
 20
12.6848
 30
0.0
 11
67.4261
 21
12.6848
 31
0.0
  0
LINE
  8
0
 62
     0
 10
67.4261
 20
12.6848
 30
0.0
 11
67.4261
 21
15.7827
 31
0.0
  0
LINE
  8
0
 62
     0
 10
67.4261
 20
15.7827
 30
0.0
 11
66.6253
 21
15.7827
 31
0.0
  0
LINE
  8
0
 62
     0
 10
66.6253
 20
15.7827
 30
0.0
 11
66.6253
 21
16.7831
 31
0.0
  0
LINE
  8
0
 62
     0
 10
66.6253
 20
16.7831
 30
0.0
 11
52.626
 21
16.7831
 31
0.0
  0
LINE
  8
0
 62
     0
 10
28.812
 20
16.7831
 30
0.0
 11
28.812
 21
15.7827
 31
0.0
  0
LINE
  8
0
 62
     0
 10
28.812
 20
15.7827
 30
0.0
 11
28.0128
 21
15.7827
 31
0.0
  0
LINE
  8
0
 62
     0
 10
28.0128
 20
15.7827
 30
0.0
 11
28.0128
 21
12.6848
 31
0.0
  0
LINE
  8
0
 62
     0
 10
28.0128
 20
12.6848
 30
0.0
 11
28.812
 21
12.6848
 31
0.0
  0
LINE
  8
0
 62
     0
 10
28.812
 20
12.6848
 30
0.0
 11
28.812
 21
6.88329
 31
0.0
  0
LINE
  8
0
 62
     0
 10
28.812
 20
6.88329
 30
0.0
 11
28.0128
 21
6.88329
 31
0.0
  0
LINE
  8
0
 62
     0
 10
28.0128
 20
6.88329
 30
0.0
 11
28.0128
 21
3.78273
 31
0.0
  0
LINE
  8
0
 62
     0
 10
28.0128
 20
3.78273
 30
0.0
 11
28.812
 21
3.78273
 31
0.0
  0
LINE
  8
0
 62
     0
 10
28.812
 20
3.78273
 30
0.0
 11
28.812
 21
2.78364
 31
0.0
  0
LINE
  8
0
 62
     0
 10
28.812
 20
2.78364
 30
0.0
 11
42.8128
 21
2.78364
 31
0.0
  0
LINE
  8
0
 62
     0
 10
42.8128
 20
2.78364
 30
0.0
 11
42.8128
 21
3.78273
 31
0.0
  0
LINE
  8
0
 62
     0
 10
42.8128
 20
3.78273
 30
0.0
 11
43.6122
 21
3.78273
 31
0.0
  0
LINE
  8
0
 62
     0
 10
43.6122
 20
3.78273
 30
0.0
 11
43.6122
 21
6.88329
 31
0.0
  0
LINE
  8
0
 62
     0
 10
43.6122
 20
6.88329
 30
0.0
 11
42.8128
 21
6.88329
 31
0.0
  0
LINE
  8
0
 62
     0
 10
42.8128
 20
6.88329
 30
0.0
 11
42.8128
 21
12.6848
 31
0.0
  0
LINE
  8
0
 62
     0
 10
42.8128
 20
12.6848
 30
0.0
 11
43.6122
 21
12.6848
 31
0.0
  0
LINE
  8
0
 62
     0
 10
43.6122
 20
12.6848
 30
0.0
 11
43.6122
 21
15.7827
 31
0.0
  0
LINE
  8
0
 62
     0
 10
43.6122
 20
15.7827
 30
0.0
 11
42.8128
 21
15.7827
 31
0.0
  0
LINE
  8
0
 62
     0
 10
42.8128
 20
15.7827
 30
0.0
 11
42.8128
 21
16.7831
 31
0.0
  0
LINE
  8
0
 62
     0
 10
42.8128
 20
16.7831
 30
0.0
 11
28.812
 21
16.7831
 31
0.0
  0
LINE
  8
0
 62
     0
 10
5.00091
 20
16.7831
 30
0.0
 11
5.00091
 21
15.7827
 31
0.0
  0
LINE
  8
0
 62
     0
 10
5.00091
 20
15.7827
 30
0.0
 11
4.20028
 21
15.7827
 31
0.0
  0
LINE
  8
0
 62
     0
 10
4.20028
 20
15.7827
 30
0.0
 11
4.20028
 21
12.6848
 31
0.0
  0
LINE
  8
0
 62
     0
 10
4.20028
 20
12.6848
 30
0.0
 11
5.00091
 21
12.6848
 31
0.0
  0
LINE
  8
0
 62
     0
 10
5.00091
 20
12.6848
 30
0.0
 11
5.00091
 21
6.88329
 31
0.0
  0
LINE
  8
0
 62
     0
 10
5.00091
 20
6.88329
 30
0.0
 11
4.20028
 21
6.88329
 31
0.0
  0
LINE
  8
0
 62
     0
 10
4.20028
 20
6.88329
 30
0.0
 11
4.20028
 21
3.78273
 31
0.0
  0
LINE
  8
0
 62
     0
 10
4.20028
 20
3.78273
 30
0.0
 11
5.00091
 21
3.78273
 31
0.0
  0
LINE
  8
0
 62
     0
 10
5.00091
 20
3.78273
 30
0.0
 11
5.00091
 21
2.78364
 31
0.0
  0
LINE
  8
0
 62
     0
 10
5.00091
 20
2.78364
 30
0.0
 11
19.0004
 21
2.78364
 31
0.0
  0
LINE
  8
0
 62
     0
 10
19.0004
 20
2.78364
 30
0.0
 11
19.0004
 21
3.78273
 31
0.0
  0
LINE
  8
0
 62
     0
 10
19.0004
 20
3.78273
 30
0.0
 11
19.801
 21
3.78273
 31
0.0
  0
LINE
  8
0
 62
     0
 10
19.801
 20
3.78273
 30
0.0
 11
19.801
 21
6.88329
 31
0.0
  0
LINE
  8
0
 62
     0
 10
19.801
 20
6.88329
 30
0.0
 11
19.0004
 21
6.88329
 31
0.0
  0
LINE
  8
0
 62
     0
 10
19.0004
 20
6.88329
 30
0.0
 11
19.0004
 21
12.6848
 31
0.0
  0
LINE
  8
0
 62
     0
 10
19.0004
 20
12.6848
 30
0.0
 11
19.801
 21
12.6848
 31
0.0
  0
LINE
  8
0
 62
     0
 10
19.801
 20
12.6848
 30
0.0
 11
19.801
 21
15.7827
 31
0.0
  0
LINE
  8
0
 62
     0
 10
19.801
 20
15.7827
 30
0.0
 11
19.0004
 21
15.7827
 31
0.0
  0
LINE
  8
0
 62
     0
 10
19.0004
 20
15.7827
 30
0.0
 11
19.0004
 21
16.7831
 31
0.0
  0
LINE
  8
0
 62
     0
 10
19.0004
 20
16.7831
 30
0.0
 11
5.00091
 21
16.7831
 31
0.0
  0
LINE
  8
0
 62
     0
 10
14.5259
 20
35.833
 30
0.0
 11
14.5259
 21
34.8327
 31
0.0
  0
LINE
  8
0
 62
     0
 10
14.5259
 20
34.8327
 30
0.0
 11
13.7253
 21
34.8327
 31
0.0
  0
LINE
  8
0
 62
     0
 10
13.7253
 20
34.8327
 30
0.0
 11
13.7253
 21
31.7348
 31
0.0
  0
LINE
  8
0
 62
     0
 10
13.7253
 20
31.7348
 30
0.0
 11
14.5259
 21
31.7348
 31
0.0
  0
LINE
  8
0
 62
     0
 10
14.5259
 20
31.7348
 30
0.0
 11
14.5259
 21
31.1326
 31
0.0
  0
LINE
  8
0
 62
     0
 10
14.5259
 20
31.1326
 30
0.0
 11
13.0004
 21
31.1326
 31
0.0
  0
LINE
  8
0
 62
     0
 10
13.0004
 20
31.1326
 30
0.0
 11
13.0004
 21
34.3628
 31
0.0
  0
LINE
  8
0
 62
     0
 10
13.0004
 20
34.3628
 30
0.0
 11
11.2751
 21
34.3628
 31
0.0
  0
LINE
  8
0
 62
     0
 10
11.2751
 20
34.3628
 30
0.0
 11
11.2751
 21
35.2848
 31
0.0
  0
LINE
  8
0
 62
     0
 10
11.2751
 20
35.2848
 30
0.0
 11
7.97609
 21
35.2848
 31
0.0
  0
LINE
  8
0
 62
     0
 10
7.97609
 20
35.2848
 30
0.0
 11
7.97609
 21
34.3628
 31
0.0
  0
LINE
  8
0
 62
     0
 10
7.97609
 20
34.3628
 30
0.0
 11
6.2508
 21
34.3628
 31
0.0
  0
LINE
  8
0
 62
     0
 10
6.2508
 20
34.3628
 30
0.0
 11
6.2508
 21
31.1326
 31
0.0
  0
LINE
  8
0
 62
     0
 10
6.2508
 20
31.1326
 30
0.0
 11
5.42533
 21
31.1326
 31
0.0
  0
LINE
  8
0
 62
     0
 10
5.42533
 20
31.1326
 30
0.0
 11
5.42533
 21
28.3338
 31
0.0
  0
LINE
  8
0
 62
     0
 10
5.42533
 20
28.3338
 30
0.0
 11
6.2508
 21
28.3338
 31
0.0
  0
LINE
  8
0
 62
     0
 10
6.2508
 20
28.3338
 30
0.0
 11
6.2508
 21
22.0638
 31
0.0
  0
LINE
  8
0
 62
     0
 10
6.2508
 20
22.0638
 30
0.0
 11
7.97609
 21
22.0638
 31
0.0
  0
LINE
  8
0
 62
     0
 10
7.97609
 20
22.0638
 30
0.0
 11
7.97609
 21
21.0826
 31
0.0
  0
LINE
  8
0
 62
     0
 10
7.97609
 20
21.0826
 30
0.0
 11
11.2751
 21
21.0826
 31
0.0
  0
LINE
  8
0
 62
     0
 10
11.2751
 20
21.0826
 30
0.0
 11
11.2751
 21
22.0638
 31
0.0
  0
LINE
  8
0
 62
     0
 10
11.2751
 20
22.0638
 30
0.0
 11
13.0004
 21
22.0638
 31
0.0
  0
LINE
  8
0
 62
     0
 10
13.0004
 20
22.0638
 30
0.0
 11
13.0004
 21
26.5327
 31
0.0
  0
LINE
  8
0
 62
     0
 10
13.0004
 20
26.5327
 30
0.0
 11
14.5259
 21
26.5327
 31
0.0
  0
LINE
  8
0
 62
     0
 10
14.5259
 20
26.5327
 30
0.0
 11
14.5259
 21
25.9333
 31
0.0
  0
LINE
  8
0
 62
     0
 10
14.5259
 20
25.9333
 30
0.0
 11
13.7253
 21
25.9333
 31
0.0
  0
LINE
  8
0
 62
     0
 10
13.7253
 20
25.9333
 30
0.0
 11
13.7253
 21
22.8327
 31
0.0
  0
LINE
  8
0
 62
     0
 10
13.7253
 20
22.8327
 30
0.0
 11
14.5259
 21
22.8327
 31
0.0
  0
LINE
  8
0
 62
     0
 10
14.5259
 20
22.8327
 30
0.0
 11
14.5259
 21
21.8336
 31
0.0
  0
LINE
  8
0
 62
     0
 10
14.5259
 20
21.8336
 30
0.0
 11
28.5254
 21
21.8336
 31
0.0
  0
LINE
  8
0
 62
     0
 10
28.5254
 20
21.8336
 30
0.0
 11
28.5254
 21
22.8327
 31
0.0
  0
LINE
  8
0
 62
     0
 10
28.5254
 20
22.8327
 30
0.0
 11
29.326
 21
22.8327
 31
0.0
  0
LINE
  8
0
 62
     0
 10
29.326
 20
22.8327
 30
0.0
 11
29.326
 21
25.9333
 31
0.0
  0
LINE
  8
0
 62
     0
 10
29.326
 20
25.9333
 30
0.0
 11
28.5254
 21
25.9333
 31
0.0
  0
LINE
  8
0
 62
     0
 10
28.5254
 20
25.9333
 30
0.0
 11
28.5254
 21
26.5327
 31
0.0
  0
LINE
  8
0
 62
     0
 10
28.5254
 20
26.5327
 30
0.0
 11
30.0509
 21
26.5327
 31
0.0
  0
LINE
  8
0
 62
     0
 10
30.0509
 20
26.5327
 30
0.0
 11
30.0509
 21
22.0638
 31
0.0
  0
LINE
  8
0
 62
     0
 10
30.0509
 20
22.0638
 30
0.0
 11
31.7748
 21
22.0638
 31
0.0
  0
LINE
  8
0
 62
     0
 10
31.7748
 20
22.0638
 30
0.0
 11
31.7748
 21
21.0826
 31
0.0
  0
LINE
  8
0
 62
     0
 10
31.7748
 20
21.0826
 30
0.0
 11
35.0752
 21
21.0826
 31
0.0
  0
LINE
  8
0
 62
     0
 10
35.0752
 20
21.0826
 30
0.0
 11
35.0752
 21
22.0638
 31
0.0
  0
LINE
  8
0
 62
     0
 10
35.0752
 20
22.0638
 30
0.0
 11
36.8004
 21
22.0638
 31
0.0
  0
LINE
  8
0
 62
     0
 10
36.8004
 20
22.0638
 30
0.0
 11
36.8004
 21
28.3338
 31
0.0
  0
LINE
  8
0
 62
     0
 10
36.8004
 20
28.3338
 30
0.0
 11
37.6259
 21
28.3338
 31
0.0
  0
LINE
  8
0
 62
     0
 10
37.6259
 20
28.3338
 30
0.0
 11
37.6259
 21
31.1326
 31
0.0
  0
LINE
  8
0
 62
     0
 10
37.6259
 20
31.1326
 30
0.0
 11
36.8004
 21
31.1326
 31
0.0
  0
LINE
  8
0
 62
     0
 10
36.8004
 20
31.1326
 30
0.0
 11
36.8004
 21
34.3628
 31
0.0
  0
LINE
  8
0
 62
     0
 10
36.8004
 20
34.3628
 30
0.0
 11
35.0752
 21
34.3628
 31
0.0
  0
LINE
  8
0
 62
     0
 10
35.0752
 20
34.3628
 30
0.0
 11
35.0752
 21
35.2848
 31
0.0
  0
LINE
  8
0
 62
     0
 10
35.0752
 20
35.2848
 30
0.0
 11
31.7748
 21
35.2848
 31
0.0
  0
LINE
  8
0
 62
     0
 10
31.7748
 20
35.2848
 30
0.0
 11
31.7748
 21
34.3628
 31
0.0
  0
LINE
  8
0
 62
     0
 10
31.7748
 20
34.3628
 30
0.0
 11
30.0509
 21
34.3628
 31
0.0
  0
LINE
  8
0
 62
     0
 10
30.0509
 20
34.3628
 30
0.0
 11
30.0509
 21
31.1326
 31
0.0
  0
LINE
  8
0
 62
     0
 10
30.0509
 20
31.1326
 30
0.0
 11
28.5254
 21
31.1326
 31
0.0
  0
LINE
  8
0
 62
     0
 10
28.5254
 20
31.1326
 30
0.0
 11
28.5254
 21
31.7348
 31
0.0
  0
LINE
  8
0
 62
     0
 10
28.5254
 20
31.7348
 30
0.0
 11
29.326
 21
31.7348
 31
0.0
  0
LINE
  8
0
 62
     0
 10
29.326
 20
31.7348
 30
0.0
 11
29.326
 21
34.8327
 31
0.0
  0
LINE
  8
0
 62
     0
 10
29.326
 20
34.8327
 30
0.0
 11
28.5254
 21
34.8327
 31
0.0
  0
LINE
  8
0
 62
     0
 10
28.5254
 20
34.8327
 30
0.0
 11
28.5254
 21
35.833
 31
0.0
  0
LINE
  8
0
 62
     0
 10
28.5254
 20
35.833
 30
0.0
 11
14.5259
 21
35.833
 31
0.0
  0
LINE
  8
0
 62
     0
 10
121.682
 20
35.833
 30
0.0
 11
121.682
 21
34.8327
 31
0.0
  0
LINE
  8
0
 62
     0
 10
121.682
 20
34.8327
 30
0.0
 11
120.881
 21
34.8327
 31
0.0
  0
LINE
  8
0
 62
     0
 10
120.881
 20
34.8327
 30
0.0
 11
120.881
 21
31.7348
 31
0.0
  0
LINE
  8
0
 62
     0
 10
120.881
 20
31.7348
 30
0.0
 11
121.682
 21
31.7348
 31
0.0
  0
LINE
  8
0
 62
     0
 10
121.682
 20
31.7348
 30
0.0
 11
121.682
 21
25.9333
 31
0.0
  0
LINE
  8
0
 62
     0
 10
121.682
 20
25.9333
 30
0.0
 11
120.881
 21
25.9333
 31
0.0
  0
LINE
  8
0
 62
     0
 10
120.881
 20
25.9333
 30
0.0
 11
120.881
 21
22.8327
 31
0.0
  0
LINE
  8
0
 62
     0
 10
120.881
 20
22.8327
 30
0.0
 11
121.682
 21
22.8327
 31
0.0
  0
LINE
  8
0
 62
     0
 10
121.682
 20
22.8327
 30
0.0
 11
121.682
 21
21.8336
 31
0.0
  0
LINE
  8
0
 62
     0
 10
121.682
 20
21.8336
 30
0.0
 11
135.682
 21
21.8336
 31
0.0
  0
LINE
  8
0
 62
     0
 10
135.682
 20
21.8336
 30
0.0
 11
135.682
 21
22.8327
 31
0.0
  0
LINE
  8
0
 62
     0
 10
135.682
 20
22.8327
 30
0.0
 11
136.481
 21
22.8327
 31
0.0
  0
LINE
  8
0
 62
     0
 10
136.481
 20
22.8327
 30
0.0
 11
136.481
 21
25.9333
 31
0.0
  0
LINE
  8
0
 62
     0
 10
136.481
 20
25.9333
 30
0.0
 11
135.682
 21
25.9333
 31
0.0
  0
LINE
  8
0
 62
     0
 10
135.682
 20
25.9333
 30
0.0
 11
135.682
 21
31.7348
 31
0.0
  0
LINE
  8
0
 62
     0
 10
135.682
 20
31.7348
 30
0.0
 11
136.481
 21
31.7348
 31
0.0
  0
LINE
  8
0
 62
     0
 10
136.481
 20
31.7348
 30
0.0
 11
136.481
 21
34.8327
 31
0.0
  0
LINE
  8
0
 62
     0
 10
136.481
 20
34.8327
 30
0.0
 11
135.682
 21
34.8327
 31
0.0
  0
LINE
  8
0
 62
     0
 10
135.682
 20
34.8327
 30
0.0
 11
135.682
 21
35.833
 31
0.0
  0
LINE
  8
0
 62
     0
 10
135.682
 20
35.833
 30
0.0
 11
121.682
 21
35.833
 31
0.0
  0
LINE
  8
0
 62
     0
 10
102.632
 20
35.833
 30
0.0
 11
102.632
 21
34.8327
 31
0.0
  0
LINE
  8
0
 62
     0
 10
102.632
 20
34.8327
 30
0.0
 11
101.831
 21
34.8327
 31
0.0
  0
LINE
  8
0
 62
     0
 10
101.831
 20
34.8327
 30
0.0
 11
101.831
 21
31.7348
 31
0.0
  0
LINE
  8
0
 62
     0
 10
101.831
 20
31.7348
 30
0.0
 11
102.632
 21
31.7348
 31
0.0
  0
LINE
  8
0
 62
     0
 10
102.632
 20
31.7348
 30
0.0
 11
102.632
 21
25.9333
 31
0.0
  0
LINE
  8
0
 62
     0
 10
102.632
 20
25.9333
 30
0.0
 11
101.831
 21
25.9333
 31
0.0
  0
LINE
  8
0
 62
     0
 10
101.831
 20
25.9333
 30
0.0
 11
101.831
 21
22.8327
 31
0.0
  0
LINE
  8
0
 62
     0
 10
101.831
 20
22.8327
 30
0.0
 11
102.632
 21
22.8327
 31
0.0
  0
LINE
  8
0
 62
     0
 10
102.632
 20
22.8327
 30
0.0
 11
102.632
 21
21.8336
 31
0.0
  0
LINE
  8
0
 62
     0
 10
102.632
 20
21.8336
 30
0.0
 11
116.632
 21
21.8336
 31
0.0
  0
LINE
  8
0
 62
     0
 10
116.632
 20
21.8336
 30
0.0
 11
116.632
 21
22.8327
 31
0.0
  0
LINE
  8
0
 62
     0
 10
116.632
 20
22.8327
 30
0.0
 11
117.431
 21
22.8327
 31
0.0
  0
LINE
  8
0
 62
     0
 10
117.431
 20
22.8327
 30
0.0
 11
117.431
 21
25.9333
 31
0.0
  0
LINE
  8
0
 62
     0
 10
117.431
 20
25.9333
 30
0.0
 11
116.632
 21
25.9333
 31
0.0
  0
LINE
  8
0
 62
     0
 10
116.632
 20
25.9333
 30
0.0
 11
116.632
 21
31.7348
 31
0.0
  0
LINE
  8
0
 62
     0
 10
116.632
 20
31.7348
 30
0.0
 11
117.431
 21
31.7348
 31
0.0
  0
LINE
  8
0
 62
     0
 10
117.431
 20
31.7348
 30
0.0
 11
117.431
 21
34.8327
 31
0.0
  0
LINE
  8
0
 62
     0
 10
117.431
 20
34.8327
 30
0.0
 11
116.632
 21
34.8327
 31
0.0
  0
LINE
  8
0
 62
     0
 10
116.632
 20
34.8327
 30
0.0
 11
116.632
 21
35.833
 31
0.0
  0
LINE
  8
0
 62
     0
 10
116.632
 20
35.833
 30
0.0
 11
102.632
 21
35.833
 31
0.0
  0
LINE
  8
0
 62
     0
 10
83.5822
 20
35.833
 30
0.0
 11
83.5822
 21
34.8327
 31
0.0
  0
LINE
  8
0
 62
     0
 10
83.5822
 20
34.8327
 30
0.0
 11
82.7814
 21
34.8327
 31
0.0
  0
LINE
  8
0
 62
     0
 10
82.7814
 20
34.8327
 30
0.0
 11
82.7814
 21
31.7348
 31
0.0
  0
LINE
  8
0
 62
     0
 10
82.7814
 20
31.7348
 30
0.0
 11
83.5822
 21
31.7348
 31
0.0
  0
LINE
  8
0
 62
     0
 10
83.5822
 20
31.7348
 30
0.0
 11
83.5822
 21
25.9333
 31
0.0
  0
LINE
  8
0
 62
     0
 10
83.5822
 20
25.9333
 30
0.0
 11
82.7814
 21
25.9333
 31
0.0
  0
LINE
  8
0
 62
     0
 10
82.7814
 20
25.9333
 30
0.0
 11
82.7814
 21
22.8327
 31
0.0
  0
LINE
  8
0
 62
     0
 10
82.7814
 20
22.8327
 30
0.0
 11
83.5822
 21
22.8327
 31
0.0
  0
LINE
  8
0
 62
     0
 10
83.5822
 20
22.8327
 30
0.0
 11
83.5822
 21
21.8336
 31
0.0
  0
LINE
  8
0
 62
     0
 10
83.5822
 20
21.8336
 30
0.0
 11
97.5815
 21
21.8336
 31
0.0
  0
LINE
  8
0
 62
     0
 10
97.5815
 20
21.8336
 30
0.0
 11
97.5815
 21
22.8327
 31
0.0
  0
LINE
  8
0
 62
     0
 10
97.5815
 20
22.8327
 30
0.0
 11
98.3809
 21
22.8327
 31
0.0
  0
LINE
  8
0
 62
     0
 10
98.3809
 20
22.8327
 30
0.0
 11
98.3809
 21
25.9333
 31
0.0
  0
LINE
  8
0
 62
     0
 10
98.3809
 20
25.9333
 30
0.0
 11
97.5815
 21
25.9333
 31
0.0
  0
LINE
  8
0
 62
     0
 10
97.5815
 20
25.9333
 30
0.0
 11
97.5815
 21
31.7348
 31
0.0
  0
LINE
  8
0
 62
     0
 10
97.5815
 20
31.7348
 30
0.0
 11
98.3809
 21
31.7348
 31
0.0
  0
LINE
  8
0
 62
     0
 10
98.3809
 20
31.7348
 30
0.0
 11
98.3809
 21
34.8327
 31
0.0
  0
LINE
  8
0
 62
     0
 10
98.3809
 20
34.8327
 30
0.0
 11
97.5815
 21
34.8327
 31
0.0
  0
LINE
  8
0
 62
     0
 10
97.5815
 20
34.8327
 30
0.0
 11
97.5815
 21
35.833
 31
0.0
  0
LINE
  8
0
 62
     0
 10
97.5815
 20
35.833
 30
0.0
 11
83.5822
 21
35.833
 31
0.0
  0
LINE
  8
0
 62
     0
 10
64.5322
 20
35.833
 30
0.0
 11
64.5322
 21
34.8327
 31
0.0
  0
LINE
  8
0
 62
     0
 10
64.5322
 20
34.8327
 30
0.0
 11
63.7314
 21
34.8327
 31
0.0
  0
LINE
  8
0
 62
     0
 10
63.7314
 20
34.8327
 30
0.0
 11
63.7314
 21
31.7348
 31
0.0
  0
LINE
  8
0
 62
     0
 10
63.7314
 20
31.7348
 30
0.0
 11
64.5322
 21
31.7348
 31
0.0
  0
LINE
  8
0
 62
     0
 10
64.5322
 20
31.7348
 30
0.0
 11
64.5322
 21
25.9333
 31
0.0
  0
LINE
  8
0
 62
     0
 10
64.5322
 20
25.9333
 30
0.0
 11
63.7314
 21
25.9333
 31
0.0
  0
LINE
  8
0
 62
     0
 10
63.7314
 20
25.9333
 30
0.0
 11
63.7314
 21
22.8327
 31
0.0
  0
LINE
  8
0
 62
     0
 10
63.7314
 20
22.8327
 30
0.0
 11
64.5322
 21
22.8327
 31
0.0
  0
LINE
  8
0
 62
     0
 10
64.5322
 20
22.8327
 30
0.0
 11
64.5322
 21
21.8336
 31
0.0
  0
LINE
  8
0
 62
     0
 10
64.5322
 20
21.8336
 30
0.0
 11
78.5315
 21
21.8336
 31
0.0
  0
LINE
  8
0
 62
     0
 10
78.5315
 20
21.8336
 30
0.0
 11
78.5315
 21
22.8327
 31
0.0
  0
LINE
  8
0
 62
     0
 10
78.5315
 20
22.8327
 30
0.0
 11
79.3309
 21
22.8327
 31
0.0
  0
LINE
  8
0
 62
     0
 10
79.3309
 20
22.8327
 30
0.0
 11
79.3309
 21
25.9333
 31
0.0
  0
LINE
  8
0
 62
     0
 10
79.3309
 20
25.9333
 30
0.0
 11
78.5315
 21
25.9333
 31
0.0
  0
LINE
  8
0
 62
     0
 10
78.5315
 20
25.9333
 30
0.0
 11
78.5315
 21
31.7348
 31
0.0
  0
LINE
  8
0
 62
     0
 10
78.5315
 20
31.7348
 30
0.0
 11
79.3309
 21
31.7348
 31
0.0
  0
LINE
  8
0
 62
     0
 10
79.3309
 20
31.7348
 30
0.0
 11
79.3309
 21
34.8327
 31
0.0
  0
LINE
  8
0
 62
     0
 10
79.3309
 20
34.8327
 30
0.0
 11
78.5315
 21
34.8327
 31
0.0
  0
LINE
  8
0
 62
     0
 10
78.5315
 20
34.8327
 30
0.0
 11
78.5315
 21
35.833
 31
0.0
  0
LINE
  8
0
 62
     0
 10
78.5315
 20
35.833
 30
0.0
 11
64.5322
 21
35.833
 31
0.0
  0
LINE
  8
0
 62
     0
 10
45.4822
 20
35.833
 30
0.0
 11
45.4822
 21
34.8327
 31
0.0
  0
LINE
  8
0
 62
     0
 10
45.4822
 20
34.8327
 30
0.0
 11
44.6814
 21
34.8327
 31
0.0
  0
LINE
  8
0
 62
     0
 10
44.6814
 20
34.8327
 30
0.0
 11
44.6814
 21
31.7348
 31
0.0
  0
LINE
  8
0
 62
     0
 10
44.6814
 20
31.7348
 30
0.0
 11
45.4822
 21
31.7348
 31
0.0
  0
LINE
  8
0
 62
     0
 10
45.4822
 20
31.7348
 30
0.0
 11
45.4822
 21
25.9333
 31
0.0
  0
LINE
  8
0
 62
     0
 10
45.4822
 20
25.9333
 30
0.0
 11
44.6814
 21
25.9333
 31
0.0
  0
LINE
  8
0
 62
     0
 10
44.6814
 20
25.9333
 30
0.0
 11
44.6814
 21
22.8327
 31
0.0
  0
LINE
  8
0
 62
     0
 10
44.6814
 20
22.8327
 30
0.0
 11
45.4822
 21
22.8327
 31
0.0
  0
LINE
  8
0
 62
     0
 10
45.4822
 20
22.8327
 30
0.0
 11
45.4822
 21
21.8336
 31
0.0
  0
LINE
  8
0
 62
     0
 10
45.4822
 20
21.8336
 30
0.0
 11
59.4815
 21
21.8336
 31
0.0
  0
LINE
  8
0
 62
     0
 10
59.4815
 20
21.8336
 30
0.0
 11
59.4815
 21
22.8327
 31
0.0
  0
LINE
  8
0
 62
     0
 10
59.4815
 20
22.8327
 30
0.0
 11
60.2809
 21
22.8327
 31
0.0
  0
LINE
  8
0
 62
     0
 10
60.2809
 20
22.8327
 30
0.0
 11
60.2809
 21
25.9333
 31
0.0
  0
LINE
  8
0
 62
     0
 10
60.2809
 20
25.9333
 30
0.0
 11
59.4815
 21
25.9333
 31
0.0
  0
LINE
  8
0
 62
     0
 10
59.4815
 20
25.9333
 30
0.0
 11
59.4815
 21
31.7348
 31
0.0
  0
LINE
  8
0
 62
     0
 10
59.4815
 20
31.7348
 30
0.0
 11
60.2809
 21
31.7348
 31
0.0
  0
LINE
  8
0
 62
     0
 10
60.2809
 20
31.7348
 30
0.0
 11
60.2809
 21
34.8327
 31
0.0
  0
LINE
  8
0
 62
     0
 10
60.2809
 20
34.8327
 30
0.0
 11
59.4815
 21
34.8327
 31
0.0
  0
LINE
  8
0
 62
     0
 10
59.4815
 20
34.8327
 30
0.0
 11
59.4815
 21
35.833
 31
0.0
  0
LINE
  8
0
 62
     0
 10
59.4815
 20
35.833
 30
0.0
 11
45.4822
 21
35.833
 31
0.0
  0
LINE
  8
0
 62
     0
 10
112.157
 20
54.8831
 30
0.0
 11
112.157
 21
53.8826
 31
0.0
  0
LINE
  8
0
 62
     0
 10
112.157
 20
53.8826
 30
0.0
 11
111.356
 21
53.8826
 31
0.0
  0
LINE
  8
0
 62
     0
 10
111.356
 20
53.8826
 30
0.0
 11
111.356
 21
50.7834
 31
0.0
  0
LINE
  8
0
 62
     0
 10
111.356
 20
50.7834
 30
0.0
 11
112.157
 21
50.7834
 31
0.0
  0
LINE
  8
0
 62
     0
 10
112.157
 20
50.7834
 30
0.0
 11
112.157
 21
44.9834
 31
0.0
  0
LINE
  8
0
 62
     0
 10
112.157
 20
44.9834
 30
0.0
 11
111.356
 21
44.9834
 31
0.0
  0
LINE
  8
0
 62
     0
 10
111.356
 20
44.9834
 30
0.0
 11
111.356
 21
41.8828
 31
0.0
  0
LINE
  8
0
 62
     0
 10
111.356
 20
41.8828
 30
0.0
 11
112.157
 21
41.8828
 31
0.0
  0
LINE
  8
0
 62
     0
 10
112.157
 20
41.8828
 30
0.0
 11
112.157
 21
40.8838
 31
0.0
  0
LINE
  8
0
 62
     0
 10
112.157
 20
40.8838
 30
0.0
 11
126.157
 21
40.8838
 31
0.0
  0
LINE
  8
0
 62
     0
 10
126.157
 20
40.8838
 30
0.0
 11
126.157
 21
41.8828
 31
0.0
  0
LINE
  8
0
 62
     0
 10
126.157
 20
41.8828
 30
0.0
 11
126.956
 21
41.8828
 31
0.0
  0
LINE
  8
0
 62
     0
 10
126.956
 20
41.8828
 30
0.0
 11
126.956
 21
44.9834
 31
0.0
  0
LINE
  8
0
 62
     0
 10
126.956
 20
44.9834
 30
0.0
 11
126.157
 21
44.9834
 31
0.0
  0
LINE
  8
0
 62
     0
 10
126.157
 20
44.9834
 30
0.0
 11
126.157
 21
50.7834
 31
0.0
  0
LINE
  8
0
 62
     0
 10
126.157
 20
50.7834
 30
0.0
 11
126.956
 21
50.7834
 31
0.0
  0
LINE
  8
0
 62
     0
 10
126.956
 20
50.7834
 30
0.0
 11
126.956
 21
53.8826
 31
0.0
  0
LINE
  8
0
 62
     0
 10
126.956
 20
53.8826
 30
0.0
 11
126.157
 21
53.8826
 31
0.0
  0
LINE
  8
0
 62
     0
 10
126.157
 20
53.8826
 30
0.0
 11
126.157
 21
54.8831
 31
0.0
  0
LINE
  8
0
 62
     0
 10
126.157
 20
54.8831
 30
0.0
 11
112.157
 21
54.8831
 31
0.0
  0
LINE
  8
0
 62
     0
 10
93.1072
 20
54.8831
 30
0.0
 11
93.1072
 21
53.8826
 31
0.0
  0
LINE
  8
0
 62
     0
 10
93.1072
 20
53.8826
 30
0.0
 11
92.3064
 21
53.8826
 31
0.0
  0
LINE
  8
0
 62
     0
 10
92.3064
 20
53.8826
 30
0.0
 11
92.3064
 21
50.7834
 31
0.0
  0
LINE
  8
0
 62
     0
 10
92.3064
 20
50.7834
 30
0.0
 11
93.1072
 21
50.7834
 31
0.0
  0
LINE
  8
0
 62
     0
 10
93.1072
 20
50.7834
 30
0.0
 11
93.1072
 21
44.9834
 31
0.0
  0
LINE
  8
0
 62
     0
 10
93.1072
 20
44.9834
 30
0.0
 11
92.3064
 21
44.9834
 31
0.0
  0
LINE
  8
0
 62
     0
 10
92.3064
 20
44.9834
 30
0.0
 11
92.3064
 21
41.8828
 31
0.0
  0
LINE
  8
0
 62
     0
 10
92.3064
 20
41.8828
 30
0.0
 11
93.1072
 21
41.8828
 31
0.0
  0
LINE
  8
0
 62
     0
 10
93.1072
 20
41.8828
 30
0.0
 11
93.1072
 21
40.8838
 31
0.0
  0
LINE
  8
0
 62
     0
 10
93.1072
 20
40.8838
 30
0.0
 11
107.107
 21
40.8838
 31
0.0
  0
LINE
  8
0
 62
     0
 10
107.107
 20
40.8838
 30
0.0
 11
107.107
 21
41.8828
 31
0.0
  0
LINE
  8
0
 62
     0
 10
107.107
 20
41.8828
 30
0.0
 11
107.906
 21
41.8828
 31
0.0
  0
LINE
  8
0
 62
     0
 10
107.906
 20
41.8828
 30
0.0
 11
107.906
 21
44.9834
 31
0.0
  0
LINE
  8
0
 62
     0
 10
107.906
 20
44.9834
 30
0.0
 11
107.107
 21
44.9834
 31
0.0
  0
LINE
  8
0
 62
     0
 10
107.107
 20
44.9834
 30
0.0
 11
107.107
 21
50.7834
 31
0.0
  0
LINE
  8
0
 62
     0
 10
107.107
 20
50.7834
 30
0.0
 11
107.906
 21
50.7834
 31
0.0
  0
LINE
  8
0
 62
     0
 10
107.906
 20
50.7834
 30
0.0
 11
107.906
 21
53.8826
 31
0.0
  0
LINE
  8
0
 62
     0
 10
107.906
 20
53.8826
 30
0.0
 11
107.107
 21
53.8826
 31
0.0
  0
LINE
  8
0
 62
     0
 10
107.107
 20
53.8826
 30
0.0
 11
107.107
 21
54.8831
 31
0.0
  0
LINE
  8
0
 62
     0
 10
107.107
 20
54.8831
 30
0.0
 11
93.1072
 21
54.8831
 31
0.0
  0
LINE
  8
0
 62
     0
 10
74.0572
 20
54.8831
 30
0.0
 11
74.0572
 21
53.8826
 31
0.0
  0
LINE
  8
0
 62
     0
 10
74.0572
 20
53.8826
 30
0.0
 11
73.2564
 21
53.8826
 31
0.0
  0
LINE
  8
0
 62
     0
 10
73.2564
 20
53.8826
 30
0.0
 11
73.2564
 21
50.7834
 31
0.0
  0
LINE
  8
0
 62
     0
 10
73.2564
 20
50.7834
 30
0.0
 11
74.0572
 21
50.7834
 31
0.0
  0
LINE
  8
0
 62
     0
 10
74.0572
 20
50.7834
 30
0.0
 11
74.0572
 21
44.9834
 31
0.0
  0
LINE
  8
0
 62
     0
 10
74.0572
 20
44.9834
 30
0.0
 11
73.2564
 21
44.9834
 31
0.0
  0
LINE
  8
0
 62
     0
 10
73.2564
 20
44.9834
 30
0.0
 11
73.2564
 21
41.8828
 31
0.0
  0
LINE
  8
0
 62
     0
 10
73.2564
 20
41.8828
 30
0.0
 11
74.0572
 21
41.8828
 31
0.0
  0
LINE
  8
0
 62
     0
 10
74.0572
 20
41.8828
 30
0.0
 11
74.0572
 21
40.8838
 31
0.0
  0
LINE
  8
0
 62
     0
 10
74.0572
 20
40.8838
 30
0.0
 11
88.0565
 21
40.8838
 31
0.0
  0
LINE
  8
0
 62
     0
 10
88.0565
 20
40.8838
 30
0.0
 11
88.0565
 21
41.8828
 31
0.0
  0
LINE
  8
0
 62
     0
 10
88.0565
 20
41.8828
 30
0.0
 11
88.8559
 21
41.8828
 31
0.0
  0
LINE
  8
0
 62
     0
 10
88.8559
 20
41.8828
 30
0.0
 11
88.8559
 21
44.9834
 31
0.0
  0
LINE
  8
0
 62
     0
 10
88.8559
 20
44.9834
 30
0.0
 11
88.0565
 21
44.9834
 31
0.0
  0
LINE
  8
0
 62
     0
 10
88.0565
 20
44.9834
 30
0.0
 11
88.0565
 21
50.7834
 31
0.0
  0
LINE
  8
0
 62
     0
 10
88.0565
 20
50.7834
 30
0.0
 11
88.8559
 21
50.7834
 31
0.0
  0
LINE
  8
0
 62
     0
 10
88.8559
 20
50.7834
 30
0.0
 11
88.8559
 21
53.8826
 31
0.0
  0
LINE
  8
0
 62
     0
 10
88.8559
 20
53.8826
 30
0.0
 11
88.0565
 21
53.8826
 31
0.0
  0
LINE
  8
0
 62
     0
 10
88.0565
 20
53.8826
 30
0.0
 11
88.0565
 21
54.8831
 31
0.0
  0
LINE
  8
0
 62
     0
 10
88.0565
 20
54.8831
 30
0.0
 11
74.0572
 21
54.8831
 31
0.0
  0
LINE
  8
0
 62
     0
 10
55.0072
 20
54.8831
 30
0.0
 11
55.0072
 21
53.8826
 31
0.0
  0
LINE
  8
0
 62
     0
 10
55.0072
 20
53.8826
 30
0.0
 11
54.2064
 21
53.8826
 31
0.0
  0
LINE
  8
0
 62
     0
 10
54.2064
 20
53.8826
 30
0.0
 11
54.2064
 21
50.7834
 31
0.0
  0
LINE
  8
0
 62
     0
 10
54.2064
 20
50.7834
 30
0.0
 11
55.0072
 21
50.7834
 31
0.0
  0
LINE
  8
0
 62
     0
 10
55.0072
 20
50.7834
 30
0.0
 11
55.0072
 21
44.9834
 31
0.0
  0
LINE
  8
0
 62
     0
 10
55.0072
 20
44.9834
 30
0.0
 11
54.2064
 21
44.9834
 31
0.0
  0
LINE
  8
0
 62
     0
 10
54.2064
 20
44.9834
 30
0.0
 11
54.2064
 21
41.8828
 31
0.0
  0
LINE
  8
0
 62
     0
 10
54.2064
 20
41.8828
 30
0.0
 11
55.0072
 21
41.8828
 31
0.0
  0
LINE
  8
0
 62
     0
 10
55.0072
 20
41.8828
 30
0.0
 11
55.0072
 21
40.8838
 31
0.0
  0
LINE
  8
0
 62
     0
 10
55.0072
 20
40.8838
 30
0.0
 11
69.0065
 21
40.8838
 31
0.0
  0
LINE
  8
0
 62
     0
 10
69.0065
 20
40.8838
 30
0.0
 11
69.0065
 21
41.8828
 31
0.0
  0
LINE
  8
0
 62
     0
 10
69.0065
 20
41.8828
 30
0.0
 11
69.8059
 21
41.8828
 31
0.0
  0
LINE
  8
0
 62
     0
 10
69.8059
 20
41.8828
 30
0.0
 11
69.8059
 21
44.9834
 31
0.0
  0
LINE
  8
0
 62
     0
 10
69.8059
 20
44.9834
 30
0.0
 11
69.0065
 21
44.9834
 31
0.0
  0
LINE
  8
0
 62
     0
 10
69.0065
 20
44.9834
 30
0.0
 11
69.0065
 21
50.7834
 31
0.0
  0
LINE
  8
0
 62
     0
 10
69.0065
 20
50.7834
 30
0.0
 11
69.8059
 21
50.7834
 31
0.0
  0
LINE
  8
0
 62
     0
 10
69.8059
 20
50.7834
 30
0.0
 11
69.8059
 21
53.8826
 31
0.0
  0
LINE
  8
0
 62
     0
 10
69.8059
 20
53.8826
 30
0.0
 11
69.0065
 21
53.8826
 31
0.0
  0
LINE
  8
0
 62
     0
 10
69.0065
 20
53.8826
 30
0.0
 11
69.0065
 21
54.8831
 31
0.0
  0
LINE
  8
0
 62
     0
 10
69.0065
 20
54.8831
 30
0.0
 11
55.0072
 21
54.8831
 31
0.0
  0
LINE
  8
0
 62
     0
 10
35.9572
 20
54.8831
 30
0.0
 11
35.9572
 21
53.8826
 31
0.0
  0
LINE
  8
0
 62
     0
 10
35.9572
 20
53.8826
 30
0.0
 11
35.1565
 21
53.8826
 31
0.0
  0
LINE
  8
0
 62
     0
 10
35.1565
 20
53.8826
 30
0.0
 11
35.1565
 21
50.7834
 31
0.0
  0
LINE
  8
0
 62
     0
 10
35.1565
 20
50.7834
 30
0.0
 11
35.9572
 21
50.7834
 31
0.0
  0
LINE
  8
0
 62
     0
 10
35.9572
 20
50.7834
 30
0.0
 11
35.9572
 21
44.9834
 31
0.0
  0
LINE
  8
0
 62
     0
 10
35.9572
 20
44.9834
 30
0.0
 11
35.1565
 21
44.9834
 31
0.0
  0
LINE
  8
0
 62
     0
 10
35.1565
 20
44.9834
 30
0.0
 11
35.1565
 21
41.8828
 31
0.0
  0
LINE
  8
0
 62
     0
 10
35.1565
 20
41.8828
 30
0.0
 11
35.9572
 21
41.8828
 31
0.0
  0
LINE
  8
0
 62
     0
 10
35.9572
 20
41.8828
 30
0.0
 11
35.9572
 21
40.8838
 31
0.0
  0
LINE
  8
0
 62
     0
 10
35.9572
 20
40.8838
 30
0.0
 11
49.9565
 21
40.8838
 31
0.0
  0
LINE
  8
0
 62
     0
 10
49.9565
 20
40.8838
 30
0.0
 11
49.9565
 21
41.8828
 31
0.0
  0
LINE
  8
0
 62
     0
 10
49.9565
 20
41.8828
 30
0.0
 11
50.7559
 21
41.8828
 31
0.0
  0
LINE
  8
0
 62
     0
 10
50.7559
 20
41.8828
 30
0.0
 11
50.7559
 21
44.9834
 31
0.0
  0
LINE
  8
0
 62
     0
 10
50.7559
 20
44.9834
 30
0.0
 11
49.9565
 21
44.9834
 31
0.0
  0
LINE
  8
0
 62
     0
 10
49.9565
 20
44.9834
 30
0.0
 11
49.9565
 21
50.7834
 31
0.0
  0
LINE
  8
0
 62
     0
 10
49.9565
 20
50.7834
 30
0.0
 11
50.7559
 21
50.7834
 31
0.0
  0
LINE
  8
0
 62
     0
 10
50.7559
 20
50.7834
 30
0.0
 11
50.7559
 21
53.8826
 31
0.0
  0
LINE
  8
0
 62
     0
 10
50.7559
 20
53.8826
 30
0.0
 11
49.9565
 21
53.8826
 31
0.0
  0
LINE
  8
0
 62
     0
 10
49.9565
 20
53.8826
 30
0.0
 11
49.9565
 21
54.8831
 31
0.0
  0
LINE
  8
0
 62
     0
 10
49.9565
 20
54.8831
 30
0.0
 11
35.9572
 21
54.8831
 31
0.0
  0
LINE
  8
0
 62
     0
 10
9.76203
 20
54.8831
 30
0.0
 11
9.76203
 21
53.8826
 31
0.0
  0
LINE
  8
0
 62
     0
 10
9.76203
 20
53.8826
 30
0.0
 11
8.96278
 21
53.8826
 31
0.0
  0
LINE
  8
0
 62
     0
 10
8.96278
 20
53.8826
 30
0.0
 11
8.96278
 21
50.7834
 31
0.0
  0
LINE
  8
0
 62
     0
 10
8.96278
 20
50.7834
 30
0.0
 11
9.76203
 21
50.7834
 31
0.0
  0
LINE
  8
0
 62
     0
 10
9.76203
 20
50.7834
 30
0.0
 11
9.76203
 21
44.9834
 31
0.0
  0
LINE
  8
0
 62
     0
 10
9.76203
 20
44.9834
 30
0.0
 11
8.96278
 21
44.9834
 31
0.0
  0
LINE
  8
0
 62
     0
 10
8.96278
 20
44.9834
 30
0.0
 11
8.96278
 21
41.8828
 31
0.0
  0
LINE
  8
0
 62
     0
 10
8.96278
 20
41.8828
 30
0.0
 11
9.76203
 21
41.8828
 31
0.0
  0
LINE
  8
0
 62
     0
 10
9.76203
 20
41.8828
 30
0.0
 11
9.76203
 21
40.8838
 31
0.0
  0
LINE
  8
0
 62
     0
 10
9.76203
 20
40.8838
 30
0.0
 11
23.7629
 21
40.8838
 31
0.0
  0
LINE
  8
0
 62
     0
 10
23.7629
 20
40.8838
 30
0.0
 11
23.7629
 21
41.8828
 31
0.0
  0
LINE
  8
0
 62
     0
 10
23.7629
 20
41.8828
 30
0.0
 11
24.5622
 21
41.8828
 31
0.0
  0
LINE
  8
0
 62
     0
 10
24.5622
 20
41.8828
 30
0.0
 11
24.5622
 21
44.9834
 31
0.0
  0
LINE
  8
0
 62
     0
 10
24.5622
 20
44.9834
 30
0.0
 11
23.7629
 21
44.9834
 31
0.0
  0
LINE
  8
0
 62
     0
 10
23.7629
 20
44.9834
 30
0.0
 11
23.7629
 21
50.7834
 31
0.0
  0
LINE
  8
0
 62
     0
 10
23.7629
 20
50.7834
 30
0.0
 11
24.5622
 21
50.7834
 31
0.0
  0
LINE
  8
0
 62
     0
 10
24.5622
 20
50.7834
 30
0.0
 11
24.5622
 21
53.8826
 31
0.0
  0
LINE
  8
0
 62
     0
 10
24.5622
 20
53.8826
 30
0.0
 11
23.7629
 21
53.8826
 31
0.0
  0
LINE
  8
0
 62
     0
 10
23.7629
 20
53.8826
 30
0.0
 11
23.7629
 21
54.8831
 31
0.0
  0
LINE
  8
0
 62
     0
 10
23.7629
 20
54.8831
 30
0.0
 11
9.76203
 21
54.8831
 31
0.0
  0
LINE
  8
0
 62
     0
 10
107.395
 20
73.9331
 30
0.0
 11
107.395
 21
72.9326
 31
0.0
  0
LINE
  8
0
 62
     0
 10
107.395
 20
72.9326
 30
0.0
 11
106.594
 21
72.9326
 31
0.0
  0
LINE
  8
0
 62
     0
 10
106.594
 20
72.9326
 30
0.0
 11
106.594
 21
69.8334
 31
0.0
  0
LINE
  8
0
 62
     0
 10
106.594
 20
69.8334
 30
0.0
 11
107.395
 21
69.8334
 31
0.0
  0
LINE
  8
0
 62
     0
 10
107.395
 20
69.8334
 30
0.0
 11
107.395
 21
64.0334
 31
0.0
  0
LINE
  8
0
 62
     0
 10
107.395
 20
64.0334
 30
0.0
 11
106.594
 21
64.0334
 31
0.0
  0
LINE
  8
0
 62
     0
 10
106.594
 20
64.0334
 30
0.0
 11
106.594
 21
60.9328
 31
0.0
  0
LINE
  8
0
 62
     0
 10
106.594
 20
60.9328
 30
0.0
 11
107.395
 21
60.9328
 31
0.0
  0
LINE
  8
0
 62
     0
 10
107.395
 20
60.9328
 30
0.0
 11
107.395
 21
59.9338
 31
0.0
  0
LINE
  8
0
 62
     0
 10
107.395
 20
59.9338
 30
0.0
 11
121.394
 21
59.9338
 31
0.0
  0
LINE
  8
0
 62
     0
 10
121.394
 20
59.9338
 30
0.0
 11
121.394
 21
60.9328
 31
0.0
  0
LINE
  8
0
 62
     0
 10
121.394
 20
60.9328
 30
0.0
 11
122.195
 21
60.9328
 31
0.0
  0
LINE
  8
0
 62
     0
 10
122.195
 20
60.9328
 30
0.0
 11
122.195
 21
64.0334
 31
0.0
  0
LINE
  8
0
 62
     0
 10
122.195
 20
64.0334
 30
0.0
 11
121.394
 21
64.0334
 31
0.0
  0
LINE
  8
0
 62
     0
 10
121.394
 20
64.0334
 30
0.0
 11
121.394
 21
69.8334
 31
0.0
  0
LINE
  8
0
 62
     0
 10
121.394
 20
69.8334
 30
0.0
 11
122.195
 21
69.8334
 31
0.0
  0
LINE
  8
0
 62
     0
 10
122.195
 20
69.8334
 30
0.0
 11
122.195
 21
72.9326
 31
0.0
  0
LINE
  8
0
 62
     0
 10
122.195
 20
72.9326
 30
0.0
 11
121.394
 21
72.9326
 31
0.0
  0
LINE
  8
0
 62
     0
 10
121.394
 20
72.9326
 30
0.0
 11
121.394
 21
73.9331
 31
0.0
  0
LINE
  8
0
 62
     0
 10
121.394
 20
73.9331
 30
0.0
 11
107.395
 21
73.9331
 31
0.0
  0
LINE
  8
0
 62
     0
 10
88.3447
 20
73.9331
 30
0.0
 11
88.3447
 21
72.9326
 31
0.0
  0
LINE
  8
0
 62
     0
 10
88.3447
 20
72.9326
 30
0.0
 11
87.5439
 21
72.9326
 31
0.0
  0
LINE
  8
0
 62
     0
 10
87.5439
 20
72.9326
 30
0.0
 11
87.5439
 21
69.8334
 31
0.0
  0
LINE
  8
0
 62
     0
 10
87.5439
 20
69.8334
 30
0.0
 11
88.3447
 21
69.8334
 31
0.0
  0
LINE
  8
0
 62
     0
 10
88.3447
 20
69.8334
 30
0.0
 11
88.3447
 21
64.0334
 31
0.0
  0
LINE
  8
0
 62
     0
 10
88.3447
 20
64.0334
 30
0.0
 11
87.5439
 21
64.0334
 31
0.0
  0
LINE
  8
0
 62
     0
 10
87.5439
 20
64.0334
 30
0.0
 11
87.5439
 21
60.9328
 31
0.0
  0
LINE
  8
0
 62
     0
 10
87.5439
 20
60.9328
 30
0.0
 11
88.3447
 21
60.9328
 31
0.0
  0
LINE
  8
0
 62
     0
 10
88.3447
 20
60.9328
 30
0.0
 11
88.3447
 21
59.9338
 31
0.0
  0
LINE
  8
0
 62
     0
 10
88.3447
 20
59.9338
 30
0.0
 11
102.344
 21
59.9338
 31
0.0
  0
LINE
  8
0
 62
     0
 10
102.344
 20
59.9338
 30
0.0
 11
102.344
 21
60.9328
 31
0.0
  0
LINE
  8
0
 62
     0
 10
102.344
 20
60.9328
 30
0.0
 11
103.145
 21
60.9328
 31
0.0
  0
LINE
  8
0
 62
     0
 10
103.145
 20
60.9328
 30
0.0
 11
103.145
 21
64.0334
 31
0.0
  0
LINE
  8
0
 62
     0
 10
103.145
 20
64.0334
 30
0.0
 11
102.344
 21
64.0334
 31
0.0
  0
LINE
  8
0
 62
     0
 10
102.344
 20
64.0334
 30
0.0
 11
102.344
 21
69.8334
 31
0.0
  0
LINE
  8
0
 62
     0
 10
102.344
 20
69.8334
 30
0.0
 11
103.145
 21
69.8334
 31
0.0
  0
LINE
  8
0
 62
     0
 10
103.145
 20
69.8334
 30
0.0
 11
103.145
 21
72.9326
 31
0.0
  0
LINE
  8
0
 62
     0
 10
103.145
 20
72.9326
 30
0.0
 11
102.344
 21
72.9326
 31
0.0
  0
LINE
  8
0
 62
     0
 10
102.344
 20
72.9326
 30
0.0
 11
102.344
 21
73.9331
 31
0.0
  0
LINE
  8
0
 62
     0
 10
102.344
 20
73.9331
 30
0.0
 11
88.3447
 21
73.9331
 31
0.0
  0
LINE
  8
0
 62
     0
 10
69.2947
 20
73.9331
 30
0.0
 11
69.2947
 21
72.9326
 31
0.0
  0
LINE
  8
0
 62
     0
 10
69.2947
 20
72.9326
 30
0.0
 11
68.4939
 21
72.9326
 31
0.0
  0
LINE
  8
0
 62
     0
 10
68.4939
 20
72.9326
 30
0.0
 11
68.4939
 21
69.8334
 31
0.0
  0
LINE
  8
0
 62
     0
 10
68.4939
 20
69.8334
 30
0.0
 11
69.2947
 21
69.8334
 31
0.0
  0
LINE
  8
0
 62
     0
 10
69.2947
 20
69.8334
 30
0.0
 11
69.2947
 21
64.0334
 31
0.0
  0
LINE
  8
0
 62
     0
 10
69.2947
 20
64.0334
 30
0.0
 11
68.4939
 21
64.0334
 31
0.0
  0
LINE
  8
0
 62
     0
 10
68.4939
 20
64.0334
 30
0.0
 11
68.4939
 21
60.9328
 31
0.0
  0
LINE
  8
0
 62
     0
 10
68.4939
 20
60.9328
 30
0.0
 11
69.2947
 21
60.9328
 31
0.0
  0
LINE
  8
0
 62
     0
 10
69.2947
 20
60.9328
 30
0.0
 11
69.2947
 21
59.9338
 31
0.0
  0
LINE
  8
0
 62
     0
 10
69.2947
 20
59.9338
 30
0.0
 11
83.294
 21
59.9338
 31
0.0
  0
LINE
  8
0
 62
     0
 10
83.294
 20
59.9338
 30
0.0
 11
83.294
 21
60.9328
 31
0.0
  0
LINE
  8
0
 62
     0
 10
83.294
 20
60.9328
 30
0.0
 11
84.0948
 21
60.9328
 31
0.0
  0
LINE
  8
0
 62
     0
 10
84.0948
 20
60.9328
 30
0.0
 11
84.0948
 21
64.0334
 31
0.0
  0
LINE
  8
0
 62
     0
 10
84.0948
 20
64.0334
 30
0.0
 11
83.294
 21
64.0334
 31
0.0
  0
LINE
  8
0
 62
     0
 10
83.294
 20
64.0334
 30
0.0
 11
83.294
 21
69.8334
 31
0.0
  0
LINE
  8
0
 62
     0
 10
83.294
 20
69.8334
 30
0.0
 11
84.0948
 21
69.8334
 31
0.0
  0
LINE
  8
0
 62
     0
 10
84.0948
 20
69.8334
 30
0.0
 11
84.0948
 21
72.9326
 31
0.0
  0
LINE
  8
0
 62
     0
 10
84.0948
 20
72.9326
 30
0.0
 11
83.294
 21
72.9326
 31
0.0
  0
LINE
  8
0
 62
     0
 10
83.294
 20
72.9326
 30
0.0
 11
83.294
 21
73.9331
 31
0.0
  0
LINE
  8
0
 62
     0
 10
83.294
 20
73.9331
 30
0.0
 11
69.2947
 21
73.9331
 31
0.0
  0
LINE
  8
0
 62
     0
 10
50.2447
 20
73.9331
 30
0.0
 11
50.2447
 21
72.9326
 31
0.0
  0
LINE
  8
0
 62
     0
 10
50.2447
 20
72.9326
 30
0.0
 11
49.4439
 21
72.9326
 31
0.0
  0
LINE
  8
0
 62
     0
 10
49.4439
 20
72.9326
 30
0.0
 11
49.4439
 21
69.8334
 31
0.0
  0
LINE
  8
0
 62
     0
 10
49.4439
 20
69.8334
 30
0.0
 11
50.2447
 21
69.8334
 31
0.0
  0
LINE
  8
0
 62
     0
 10
50.2447
 20
69.8334
 30
0.0
 11
50.2447
 21
64.0334
 31
0.0
  0
LINE
  8
0
 62
     0
 10
50.2447
 20
64.0334
 30
0.0
 11
49.4439
 21
64.0334
 31
0.0
  0
LINE
  8
0
 62
     0
 10
49.4439
 20
64.0334
 30
0.0
 11
49.4439
 21
60.9328
 31
0.0
  0
LINE
  8
0
 62
     0
 10
49.4439
 20
60.9328
 30
0.0
 11
50.2447
 21
60.9328
 31
0.0
  0
LINE
  8
0
 62
     0
 10
50.2447
 20
60.9328
 30
0.0
 11
50.2447
 21
59.9338
 31
0.0
  0
LINE
  8
0
 62
     0
 10
50.2447
 20
59.9338
 30
0.0
 11
64.244
 21
59.9338
 31
0.0
  0
LINE
  8
0
 62
     0
 10
64.244
 20
59.9338
 30
0.0
 11
64.244
 21
60.9328
 31
0.0
  0
LINE
  8
0
 62
     0
 10
64.244
 20
60.9328
 30
0.0
 11
65.0448
 21
60.9328
 31
0.0
  0
LINE
  8
0
 62
     0
 10
65.0448
 20
60.9328
 30
0.0
 11
65.0448
 21
64.0334
 31
0.0
  0
LINE
  8
0
 62
     0
 10
65.0448
 20
64.0334
 30
0.0
 11
64.244
 21
64.0334
 31
0.0
  0
LINE
  8
0
 62
     0
 10
64.244
 20
64.0334
 30
0.0
 11
64.244
 21
69.8334
 31
0.0
  0
LINE
  8
0
 62
     0
 10
64.244
 20
69.8334
 30
0.0
 11
65.0448
 21
69.8334
 31
0.0
  0
LINE
  8
0
 62
     0
 10
65.0448
 20
69.8334
 30
0.0
 11
65.0448
 21
72.9326
 31
0.0
  0
LINE
  8
0
 62
     0
 10
65.0448
 20
72.9326
 30
0.0
 11
64.244
 21
72.9326
 31
0.0
  0
LINE
  8
0
 62
     0
 10
64.244
 20
72.9326
 30
0.0
 11
64.244
 21
73.9331
 31
0.0
  0
LINE
  8
0
 62
     0
 10
64.244
 20
73.9331
 30
0.0
 11
50.2447
 21
73.9331
 31
0.0
  0
LINE
  8
0
 62
     0
 10
31.1947
 20
73.9331
 30
0.0
 11
31.1947
 21
72.9326
 31
0.0
  0
LINE
  8
0
 62
     0
 10
31.1947
 20
72.9326
 30
0.0
 11
30.394
 21
72.9326
 31
0.0
  0
LINE
  8
0
 62
     0
 10
30.394
 20
72.9326
 30
0.0
 11
30.394
 21
69.8334
 31
0.0
  0
LINE
  8
0
 62
     0
 10
30.394
 20
69.8334
 30
0.0
 11
31.1947
 21
69.8334
 31
0.0
  0
LINE
  8
0
 62
     0
 10
31.1947
 20
69.8334
 30
0.0
 11
31.1947
 21
64.0334
 31
0.0
  0
LINE
  8
0
 62
     0
 10
31.1947
 20
64.0334
 30
0.0
 11
30.394
 21
64.0334
 31
0.0
  0
LINE
  8
0
 62
     0
 10
30.394
 20
64.0334
 30
0.0
 11
30.394
 21
60.9328
 31
0.0
  0
LINE
  8
0
 62
     0
 10
30.394
 20
60.9328
 30
0.0
 11
31.1947
 21
60.9328
 31
0.0
  0
LINE
  8
0
 62
     0
 10
31.1947
 20
60.9328
 30
0.0
 11
31.1947
 21
59.9338
 31
0.0
  0
LINE
  8
0
 62
     0
 10
31.1947
 20
59.9338
 30
0.0
 11
45.194
 21
59.9338
 31
0.0
  0
LINE
  8
0
 62
     0
 10
45.194
 20
59.9338
 30
0.0
 11
45.194
 21
60.9328
 31
0.0
  0
LINE
  8
0
 62
     0
 10
45.194
 20
60.9328
 30
0.0
 11
45.9948
 21
60.9328
 31
0.0
  0
LINE
  8
0
 62
     0
 10
45.9948
 20
60.9328
 30
0.0
 11
45.9948
 21
64.0334
 31
0.0
  0
LINE
  8
0
 62
     0
 10
45.9948
 20
64.0334
 30
0.0
 11
45.194
 21
64.0334
 31
0.0
  0
LINE
  8
0
 62
     0
 10
45.194
 20
64.0334
 30
0.0
 11
45.194
 21
69.8334
 31
0.0
  0
LINE
  8
0
 62
     0
 10
45.194
 20
69.8334
 30
0.0
 11
45.9948
 21
69.8334
 31
0.0
  0
LINE
  8
0
 62
     0
 10
45.9948
 20
69.8334
 30
0.0
 11
45.9948
 21
72.9326
 31
0.0
  0
LINE
  8
0
 62
     0
 10
45.9948
 20
72.9326
 30
0.0
 11
45.194
 21
72.9326
 31
0.0
  0
LINE
  8
0
 62
     0
 10
45.194
 20
72.9326
 30
0.0
 11
45.194
 21
73.9331
 31
0.0
  0
LINE
  8
0
 62
     0
 10
45.194
 20
73.9331
 30
0.0
 11
31.1947
 21
73.9331
 31
0.0
  0
LINE
  8
0
 62
     0
 10
7.38216
 20
73.9331
 30
0.0
 11
7.38216
 21
72.9326
 31
0.0
  0
LINE
  8
0
 62
     0
 10
7.38216
 20
72.9326
 30
0.0
 11
6.58153
 21
72.9326
 31
0.0
  0
LINE
  8
0
 62
     0
 10
6.58153
 20
72.9326
 30
0.0
 11
6.58153
 21
69.8334
 31
0.0
  0
LINE
  8
0
 62
     0
 10
6.58153
 20
69.8334
 30
0.0
 11
7.38216
 21
69.8334
 31
0.0
  0
LINE
  8
0
 62
     0
 10
7.38216
 20
69.8334
 30
0.0
 11
7.38216
 21
64.0334
 31
0.0
  0
LINE
  8
0
 62
     0
 10
7.38216
 20
64.0334
 30
0.0
 11
6.58153
 21
64.0334
 31
0.0
  0
LINE
  8
0
 62
     0
 10
6.58153
 20
64.0334
 30
0.0
 11
6.58153
 21
60.9328
 31
0.0
  0
LINE
  8
0
 62
     0
 10
6.58153
 20
60.9328
 30
0.0
 11
7.38216
 21
60.9328
 31
0.0
  0
LINE
  8
0
 62
     0
 10
7.38216
 20
60.9328
 30
0.0
 11
7.38216
 21
59.9338
 31
0.0
  0
LINE
  8
0
 62
     0
 10
7.38216
 20
59.9338
 30
0.0
 11
21.3817
 21
59.9338
 31
0.0
  0
LINE
  8
0
 62
     0
 10
21.3817
 20
59.9338
 30
0.0
 11
21.3817
 21
60.9328
 31
0.0
  0
LINE
  8
0
 62
     0
 10
21.3817
 20
60.9328
 30
0.0
 11
22.1809
 21
60.9328
 31
0.0
  0
LINE
  8
0
 62
     0
 10
22.1809
 20
60.9328
 30
0.0
 11
22.1809
 21
64.0334
 31
0.0
  0
LINE
  8
0
 62
     0
 10
22.1809
 20
64.0334
 30
0.0
 11
21.3817
 21
64.0334
 31
0.0
  0
LINE
  8
0
 62
     0
 10
21.3817
 20
64.0334
 30
0.0
 11
21.3817
 21
69.8334
 31
0.0
  0
LINE
  8
0
 62
     0
 10
21.3817
 20
69.8334
 30
0.0
 11
22.1809
 21
69.8334
 31
0.0
  0
LINE
  8
0
 62
     0
 10
22.1809
 20
69.8334
 30
0.0
 11
22.1809
 21
72.9326
 31
0.0
  0
LINE
  8
0
 62
     0
 10
22.1809
 20
72.9326
 30
0.0
 11
21.3817
 21
72.9326
 31
0.0
  0
LINE
  8
0
 62
     0
 10
21.3817
 20
72.9326
 30
0.0
 11
21.3817
 21
73.9331
 31
0.0
  0
LINE
  8
0
 62
     0
 10
21.3817
 20
73.9331
 30
0.0
 11
7.38216
 21
73.9331
 31
0.0
  0
LINE
  8
0
 62
     0
 10
116.918
 20
92.9831
 30
0.0
 11
116.918
 21
91.9826
 31
0.0
  0
LINE
  8
0
 62
     0
 10
116.918
 20
91.9826
 30
0.0
 11
116.119
 21
91.9826
 31
0.0
  0
LINE
  8
0
 62
     0
 10
116.119
 20
91.9826
 30
0.0
 11
116.119
 21
88.8834
 31
0.0
  0
LINE
  8
0
 62
     0
 10
116.119
 20
88.8834
 30
0.0
 11
116.918
 21
88.8834
 31
0.0
  0
LINE
  8
0
 62
     0
 10
116.918
 20
88.8834
 30
0.0
 11
116.918
 21
83.0834
 31
0.0
  0
LINE
  8
0
 62
     0
 10
116.918
 20
83.0834
 30
0.0
 11
116.119
 21
83.0834
 31
0.0
  0
LINE
  8
0
 62
     0
 10
116.119
 20
83.0834
 30
0.0
 11
116.119
 21
79.9828
 31
0.0
  0
LINE
  8
0
 62
     0
 10
116.119
 20
79.9828
 30
0.0
 11
116.918
 21
79.9828
 31
0.0
  0
LINE
  8
0
 62
     0
 10
116.918
 20
79.9828
 30
0.0
 11
116.918
 21
78.9838
 31
0.0
  0
LINE
  8
0
 62
     0
 10
116.918
 20
78.9838
 30
0.0
 11
130.919
 21
78.9838
 31
0.0
  0
LINE
  8
0
 62
     0
 10
130.919
 20
78.9838
 30
0.0
 11
130.919
 21
79.9828
 31
0.0
  0
LINE
  8
0
 62
     0
 10
130.919
 20
79.9828
 30
0.0
 11
131.72
 21
79.9828
 31
0.0
  0
LINE
  8
0
 62
     0
 10
131.72
 20
79.9828
 30
0.0
 11
131.72
 21
83.0834
 31
0.0
  0
LINE
  8
0
 62
     0
 10
131.72
 20
83.0834
 30
0.0
 11
130.919
 21
83.0834
 31
0.0
  0
LINE
  8
0
 62
     0
 10
130.919
 20
83.0834
 30
0.0
 11
130.919
 21
88.8834
 31
0.0
  0
LINE
  8
0
 62
     0
 10
130.919
 20
88.8834
 30
0.0
 11
131.72
 21
88.8834
 31
0.0
  0
LINE
  8
0
 62
     0
 10
131.72
 20
88.8834
 30
0.0
 11
131.72
 21
91.9826
 31
0.0
  0
LINE
  8
0
 62
     0
 10
131.72
 20
91.9826
 30
0.0
 11
130.919
 21
91.9826
 31
0.0
  0
LINE
  8
0
 62
     0
 10
130.919
 20
91.9826
 30
0.0
 11
130.919
 21
92.9831
 31
0.0
  0
LINE
  8
0
 62
     0
 10
130.919
 20
92.9831
 30
0.0
 11
116.918
 21
92.9831
 31
0.0
  0
LINE
  8
0
 62
     0
 10
97.8683
 20
92.9831
 30
0.0
 11
97.8683
 21
91.9826
 31
0.0
  0
LINE
  8
0
 62
     0
 10
97.8683
 20
91.9826
 30
0.0
 11
97.0689
 21
91.9826
 31
0.0
  0
LINE
  8
0
 62
     0
 10
97.0689
 20
91.9826
 30
0.0
 11
97.0689
 21
88.8834
 31
0.0
  0
LINE
  8
0
 62
     0
 10
97.0689
 20
88.8834
 30
0.0
 11
97.8683
 21
88.8834
 31
0.0
  0
LINE
  8
0
 62
     0
 10
97.8683
 20
88.8834
 30
0.0
 11
97.8683
 21
83.0834
 31
0.0
  0
LINE
  8
0
 62
     0
 10
97.8683
 20
83.0834
 30
0.0
 11
97.0689
 21
83.0834
 31
0.0
  0
LINE
  8
0
 62
     0
 10
97.0689
 20
83.0834
 30
0.0
 11
97.0689
 21
79.9828
 31
0.0
  0
LINE
  8
0
 62
     0
 10
97.0689
 20
79.9828
 30
0.0
 11
97.8683
 21
79.9828
 31
0.0
  0
LINE
  8
0
 62
     0
 10
97.8683
 20
79.9828
 30
0.0
 11
97.8683
 21
78.9838
 31
0.0
  0
LINE
  8
0
 62
     0
 10
97.8683
 20
78.9838
 30
0.0
 11
111.869
 21
78.9838
 31
0.0
  0
LINE
  8
0
 62
     0
 10
111.869
 20
78.9838
 30
0.0
 11
111.869
 21
79.9828
 31
0.0
  0
LINE
  8
0
 62
     0
 10
111.869
 20
79.9828
 30
0.0
 11
112.668
 21
79.9828
 31
0.0
  0
LINE
  8
0
 62
     0
 10
112.668
 20
79.9828
 30
0.0
 11
112.668
 21
83.0834
 31
0.0
  0
LINE
  8
0
 62
     0
 10
112.668
 20
83.0834
 30
0.0
 11
111.869
 21
83.0834
 31
0.0
  0
LINE
  8
0
 62
     0
 10
111.869
 20
83.0834
 30
0.0
 11
111.869
 21
88.8834
 31
0.0
  0
LINE
  8
0
 62
     0
 10
111.869
 20
88.8834
 30
0.0
 11
112.668
 21
88.8834
 31
0.0
  0
LINE
  8
0
 62
     0
 10
112.668
 20
88.8834
 30
0.0
 11
112.668
 21
91.9826
 31
0.0
  0
LINE
  8
0
 62
     0
 10
112.668
 20
91.9826
 30
0.0
 11
111.869
 21
91.9826
 31
0.0
  0
LINE
  8
0
 62
     0
 10
111.869
 20
91.9826
 30
0.0
 11
111.869
 21
92.9831
 31
0.0
  0
LINE
  8
0
 62
     0
 10
111.869
 20
92.9831
 30
0.0
 11
97.8683
 21
92.9831
 31
0.0
  0
LINE
  8
0
 62
     0
 10
78.8197
 20
92.9831
 30
0.0
 11
78.8197
 21
91.9826
 31
0.0
  0
LINE
  8
0
 62
     0
 10
78.8197
 20
91.9826
 30
0.0
 11
78.0189
 21
91.9826
 31
0.0
  0
LINE
  8
0
 62
     0
 10
78.0189
 20
91.9826
 30
0.0
 11
78.0189
 21
88.8834
 31
0.0
  0
LINE
  8
0
 62
     0
 10
78.0189
 20
88.8834
 30
0.0
 11
78.8197
 21
88.8834
 31
0.0
  0
LINE
  8
0
 62
     0
 10
78.8197
 20
88.8834
 30
0.0
 11
78.8197
 21
83.0834
 31
0.0
  0
LINE
  8
0
 62
     0
 10
78.8197
 20
83.0834
 30
0.0
 11
78.0189
 21
83.0834
 31
0.0
  0
LINE
  8
0
 62
     0
 10
78.0189
 20
83.0834
 30
0.0
 11
78.0189
 21
79.9828
 31
0.0
  0
LINE
  8
0
 62
     0
 10
78.0189
 20
79.9828
 30
0.0
 11
78.8197
 21
79.9828
 31
0.0
  0
LINE
  8
0
 62
     0
 10
78.8197
 20
79.9828
 30
0.0
 11
78.8197
 21
78.9838
 31
0.0
  0
LINE
  8
0
 62
     0
 10
78.8197
 20
78.9838
 30
0.0
 11
92.819
 21
78.9838
 31
0.0
  0
LINE
  8
0
 62
     0
 10
92.819
 20
78.9838
 30
0.0
 11
92.819
 21
79.9828
 31
0.0
  0
LINE
  8
0
 62
     0
 10
92.819
 20
79.9828
 30
0.0
 11
93.6184
 21
79.9828
 31
0.0
  0
LINE
  8
0
 62
     0
 10
93.6184
 20
79.9828
 30
0.0
 11
93.6184
 21
83.0834
 31
0.0
  0
LINE
  8
0
 62
     0
 10
93.6184
 20
83.0834
 30
0.0
 11
92.819
 21
83.0834
 31
0.0
  0
LINE
  8
0
 62
     0
 10
92.819
 20
83.0834
 30
0.0
 11
92.819
 21
88.8834
 31
0.0
  0
LINE
  8
0
 62
     0
 10
92.819
 20
88.8834
 30
0.0
 11
93.6184
 21
88.8834
 31
0.0
  0
LINE
  8
0
 62
     0
 10
93.6184
 20
88.8834
 30
0.0
 11
93.6184
 21
91.9826
 31
0.0
  0
LINE
  8
0
 62
     0
 10
93.6184
 20
91.9826
 30
0.0
 11
92.819
 21
91.9826
 31
0.0
  0
LINE
  8
0
 62
     0
 10
92.819
 20
91.9826
 30
0.0
 11
92.819
 21
92.9831
 31
0.0
  0
LINE
  8
0
 62
     0
 10
92.819
 20
92.9831
 30
0.0
 11
78.8197
 21
92.9831
 31
0.0
  0
LINE
  8
0
 62
     0
 10
59.7697
 20
92.9831
 30
0.0
 11
59.7697
 21
91.9826
 31
0.0
  0
LINE
  8
0
 62
     0
 10
59.7697
 20
91.9826
 30
0.0
 11
58.9689
 21
91.9826
 31
0.0
  0
LINE
  8
0
 62
     0
 10
58.9689
 20
91.9826
 30
0.0
 11
58.9689
 21
88.8834
 31
0.0
  0
LINE
  8
0
 62
     0
 10
58.9689
 20
88.8834
 30
0.0
 11
59.7697
 21
88.8834
 31
0.0
  0
LINE
  8
0
 62
     0
 10
59.7697
 20
88.8834
 30
0.0
 11
59.7697
 21
83.0834
 31
0.0
  0
LINE
  8
0
 62
     0
 10
59.7697
 20
83.0834
 30
0.0
 11
58.9689
 21
83.0834
 31
0.0
  0
LINE
  8
0
 62
     0
 10
58.9689
 20
83.0834
 30
0.0
 11
58.9689
 21
79.9828
 31
0.0
  0
LINE
  8
0
 62
     0
 10
58.9689
 20
79.9828
 30
0.0
 11
59.7697
 21
79.9828
 31
0.0
  0
LINE
  8
0
 62
     0
 10
59.7697
 20
79.9828
 30
0.0
 11
59.7697
 21
78.9838
 31
0.0
  0
LINE
  8
0
 62
     0
 10
59.7697
 20
78.9838
 30
0.0
 11
73.769
 21
78.9838
 31
0.0
  0
LINE
  8
0
 62
     0
 10
73.769
 20
78.9838
 30
0.0
 11
73.769
 21
79.9828
 31
0.0
  0
LINE
  8
0
 62
     0
 10
73.769
 20
79.9828
 30
0.0
 11
74.5698
 21
79.9828
 31
0.0
  0
LINE
  8
0
 62
     0
 10
74.5698
 20
79.9828
 30
0.0
 11
74.5698
 21
83.0834
 31
0.0
  0
LINE
  8
0
 62
     0
 10
74.5698
 20
83.0834
 30
0.0
 11
73.769
 21
83.0834
 31
0.0
  0
LINE
  8
0
 62
     0
 10
73.769
 20
83.0834
 30
0.0
 11
73.769
 21
88.8834
 31
0.0
  0
LINE
  8
0
 62
     0
 10
73.769
 20
88.8834
 30
0.0
 11
74.5698
 21
88.8834
 31
0.0
  0
LINE
  8
0
 62
     0
 10
74.5698
 20
88.8834
 30
0.0
 11
74.5698
 21
91.9826
 31
0.0
  0
LINE
  8
0
 62
     0
 10
74.5698
 20
91.9826
 30
0.0
 11
73.769
 21
91.9826
 31
0.0
  0
LINE
  8
0
 62
     0
 10
73.769
 20
91.9826
 30
0.0
 11
73.769
 21
92.9831
 31
0.0
  0
LINE
  8
0
 62
     0
 10
73.769
 20
92.9831
 30
0.0
 11
59.7697
 21
92.9831
 31
0.0
  0
LINE
  8
0
 62
     0
 10
40.7197
 20
92.9831
 30
0.0
 11
40.7197
 21
91.9826
 31
0.0
  0
LINE
  8
0
 62
     0
 10
40.7197
 20
91.9826
 30
0.0
 11
39.9189
 21
91.9826
 31
0.0
  0
LINE
  8
0
 62
     0
 10
39.9189
 20
91.9826
 30
0.0
 11
39.9189
 21
88.8834
 31
0.0
  0
LINE
  8
0
 62
     0
 10
39.9189
 20
88.8834
 30
0.0
 11
40.7197
 21
88.8834
 31
0.0
  0
LINE
  8
0
 62
     0
 10
40.7197
 20
88.8834
 30
0.0
 11
40.7197
 21
83.0834
 31
0.0
  0
LINE
  8
0
 62
     0
 10
40.7197
 20
83.0834
 30
0.0
 11
39.9189
 21
83.0834
 31
0.0
  0
LINE
  8
0
 62
     0
 10
39.9189
 20
83.0834
 30
0.0
 11
39.9189
 21
79.9828
 31
0.0
  0
LINE
  8
0
 62
     0
 10
39.9189
 20
79.9828
 30
0.0
 11
40.7197
 21
79.9828
 31
0.0
  0
LINE
  8
0
 62
     0
 10
40.7197
 20
79.9828
 30
0.0
 11
40.7197
 21
78.9838
 31
0.0
  0
LINE
  8
0
 62
     0
 10
40.7197
 20
78.9838
 30
0.0
 11
54.719
 21
78.9838
 31
0.0
  0
LINE
  8
0
 62
     0
 10
54.719
 20
78.9838
 30
0.0
 11
54.719
 21
79.9828
 31
0.0
  0
LINE
  8
0
 62
     0
 10
54.719
 20
79.9828
 30
0.0
 11
55.5198
 21
79.9828
 31
0.0
  0
LINE
  8
0
 62
     0
 10
55.5198
 20
79.9828
 30
0.0
 11
55.5198
 21
83.0834
 31
0.0
  0
LINE
  8
0
 62
     0
 10
55.5198
 20
83.0834
 30
0.0
 11
54.719
 21
83.0834
 31
0.0
  0
LINE
  8
0
 62
     0
 10
54.719
 20
83.0834
 30
0.0
 11
54.719
 21
88.8834
 31
0.0
  0
LINE
  8
0
 62
     0
 10
54.719
 20
88.8834
 30
0.0
 11
55.5198
 21
88.8834
 31
0.0
  0
LINE
  8
0
 62
     0
 10
55.5198
 20
88.8834
 30
0.0
 11
55.5198
 21
91.9826
 31
0.0
  0
LINE
  8
0
 62
     0
 10
55.5198
 20
91.9826
 30
0.0
 11
54.719
 21
91.9826
 31
0.0
  0
LINE
  8
0
 62
     0
 10
54.719
 20
91.9826
 30
0.0
 11
54.719
 21
92.9831
 31
0.0
  0
LINE
  8
0
 62
     0
 10
54.719
 20
92.9831
 30
0.0
 11
40.7197
 21
92.9831
 31
0.0
  0
LINE
  8
0
 62
     0
 10
21.6697
 20
92.9831
 30
0.0
 11
21.6697
 21
91.9826
 31
0.0
  0
LINE
  8
0
 62
     0
 10
21.6697
 20
91.9826
 30
0.0
 11
20.869
 21
91.9826
 31
0.0
  0
LINE
  8
0
 62
     0
 10
20.869
 20
91.9826
 30
0.0
 11
20.869
 21
88.8834
 31
0.0
  0
LINE
  8
0
 62
     0
 10
20.869
 20
88.8834
 30
0.0
 11
21.6697
 21
88.8834
 31
0.0
  0
LINE
  8
0
 62
     0
 10
21.6697
 20
88.8834
 30
0.0
 11
21.6697
 21
83.0834
 31
0.0
  0
LINE
  8
0
 62
     0
 10
21.6697
 20
83.0834
 30
0.0
 11
20.869
 21
83.0834
 31
0.0
  0
LINE
  8
0
 62
     0
 10
20.869
 20
83.0834
 30
0.0
 11
20.869
 21
79.9828
 31
0.0
  0
LINE
  8
0
 62
     0
 10
20.869
 20
79.9828
 30
0.0
 11
21.6697
 21
79.9828
 31
0.0
  0
LINE
  8
0
 62
     0
 10
21.6697
 20
79.9828
 30
0.0
 11
21.6697
 21
78.9838
 31
0.0
  0
LINE
  8
0
 62
     0
 10
21.6697
 20
78.9838
 30
0.0
 11
35.669
 21
78.9838
 31
0.0
  0
LINE
  8
0
 62
     0
 10
35.669
 20
78.9838
 30
0.0
 11
35.669
 21
79.9828
 31
0.0
  0
LINE
  8
0
 62
     0
 10
35.669
 20
79.9828
 30
0.0
 11
36.4698
 21
79.9828
 31
0.0
  0
LINE
  8
0
 62
     0
 10
36.4698
 20
79.9828
 30
0.0
 11
36.4698
 21
83.0834
 31
0.0
  0
LINE
  8
0
 62
     0
 10
36.4698
 20
83.0834
 30
0.0
 11
35.669
 21
83.0834
 31
0.0
  0
LINE
  8
0
 62
     0
 10
35.669
 20
83.0834
 30
0.0
 11
35.669
 21
88.8834
 31
0.0
  0
LINE
  8
0
 62
     0
 10
35.669
 20
88.8834
 30
0.0
 11
36.4698
 21
88.8834
 31
0.0
  0
LINE
  8
0
 62
     0
 10
36.4698
 20
88.8834
 30
0.0
 11
36.4698
 21
91.9826
 31
0.0
  0
LINE
  8
0
 62
     0
 10
36.4698
 20
91.9826
 30
0.0
 11
35.669
 21
91.9826
 31
0.0
  0
LINE
  8
0
 62
     0
 10
35.669
 20
91.9826
 30
0.0
 11
35.669
 21
92.9831
 31
0.0
  0
LINE
  8
0
 62
     0
 10
35.669
 20
92.9831
 30
0.0
 11
21.6697
 21
92.9831
 31
0.0
  0
LINE
  8
0
 62
     0
 10
2.61965
 20
92.9831
 30
0.0
 11
2.61965
 21
91.9826
 31
0.0
  0
LINE
  8
0
 62
     0
 10
2.61965
 20
91.9826
 30
0.0
 11
1.81901
 21
91.9826
 31
0.0
  0
LINE
  8
0
 62
     0
 10
1.81901
 20
91.9826
 30
0.0
 11
1.81901
 21
88.8834
 31
0.0
  0
LINE
  8
0
 62
     0
 10
1.81901
 20
88.8834
 30
0.0
 11
2.61965
 21
88.8834
 31
0.0
  0
LINE
  8
0
 62
     0
 10
2.61965
 20
88.8834
 30
0.0
 11
2.61965
 21
83.0834
 31
0.0
  0
LINE
  8
0
 62
     0
 10
2.61965
 20
83.0834
 30
0.0
 11
1.81901
 21
83.0834
 31
0.0
  0
LINE
  8
0
 62
     0
 10
1.81901
 20
83.0834
 30
0.0
 11
1.81901
 21
79.9828
 31
0.0
  0
LINE
  8
0
 62
     0
 10
1.81901
 20
79.9828
 30
0.0
 11
2.61965
 21
79.9828
 31
0.0
  0
LINE
  8
0
 62
     0
 10
2.61965
 20
79.9828
 30
0.0
 11
2.61965
 21
78.9838
 31
0.0
  0
LINE
  8
0
 62
     0
 10
2.61965
 20
78.9838
 30
0.0
 11
16.6192
 21
78.9838
 31
0.0
  0
LINE
  8
0
 62
     0
 10
16.6192
 20
78.9838
 30
0.0
 11
16.6192
 21
79.9828
 31
0.0
  0
LINE
  8
0
 62
     0
 10
16.6192
 20
79.9828
 30
0.0
 11
17.4198
 21
79.9828
 31
0.0
  0
LINE
  8
0
 62
     0
 10
17.4198
 20
79.9828
 30
0.0
 11
17.4198
 21
83.0834
 31
0.0
  0
LINE
  8
0
 62
     0
 10
17.4198
 20
83.0834
 30
0.0
 11
16.6192
 21
83.0834
 31
0.0
  0
LINE
  8
0
 62
     0
 10
16.6192
 20
83.0834
 30
0.0
 11
16.6192
 21
88.8834
 31
0.0
  0
LINE
  8
0
 62
     0
 10
16.6192
 20
88.8834
 30
0.0
 11
17.4198
 21
88.8834
 31
0.0
  0
LINE
  8
0
 62
     0
 10
17.4198
 20
88.8834
 30
0.0
 11
17.4198
 21
91.9826
 31
0.0
  0
LINE
  8
0
 62
     0
 10
17.4198
 20
91.9826
 30
0.0
 11
16.6192
 21
91.9826
 31
0.0
  0
LINE
  8
0
 62
     0
 10
16.6192
 20
91.9826
 30
0.0
 11
16.6192
 21
92.9831
 31
0.0
  0
LINE
  8
0
 62
     0
 10
16.6192
 20
92.9831
 30
0.0
 11
2.61965
 21
92.9831
 31
0.0
  0
ENDSEC
  0
EOF
